<?xml version="1.0" encoding="UTF-8"?>
<svg xmlns="http://www.w3.org/2000/svg" xmlns:xlink="http://www.w3.org/1999/xlink" width="20px" height="59px" viewBox="0 0 20 8" version="1.1">
<g id="surface1">
<path style=" stroke:none;fill-rule:evenodd;fill:rgb(100%,99.607843%,99.607843%);fill-opacity:1;" d="M -0.03125 -0.0273438 C 6.636719 -0.0273438 13.304688 -0.0273438 19.96875 -0.0273438 C 19.96875 2.640625 19.96875 5.304688 19.96875 7.972656 C 13.304688 7.972656 6.636719 7.972656 -0.03125 7.972656 C -0.03125 5.304688 -0.03125 2.640625 -0.03125 -0.0273438 Z M -0.03125 -0.0273438 "/>
<path style=" stroke:none;fill-rule:evenodd;fill:rgb(100%,81.960784%,59.215686%);fill-opacity:1;" d="M 8.964844 1.101562 C 8.964844 2.820312 8.964844 4.535156 8.964844 6.253906 C 9.203125 6.253906 9.4375 6.253906 9.675781 6.253906 C 9.675781 4.535156 9.675781 2.820312 9.675781 1.101562 C 9.734375 2.828125 9.753906 4.5625 9.734375 6.308594 C 9.457031 6.308594 9.179688 6.308594 8.90625 6.308594 C 8.886719 4.5625 8.90625 2.828125 8.964844 1.101562 Z M 8.964844 1.101562 "/>
<path style=" stroke:none;fill-rule:evenodd;fill:rgb(100%,93.333333%,82.352941%);fill-opacity:1;" d="M 15.175781 1.101562 C 15.21875 1.90625 15.257812 2.710938 15.296875 3.515625 C 15.277344 3.558594 15.25 3.59375 15.207031 3.625 C 15.175781 2.78125 15.167969 1.941406 15.175781 1.101562 Z M 15.175781 1.101562 "/>
<path style=" stroke:none;fill-rule:evenodd;fill:rgb(100%,61.960784%,0%);fill-opacity:1;" d="M 8.964844 1.101562 C 9.203125 1.101562 9.4375 1.101562 9.675781 1.101562 C 9.675781 2.820312 9.675781 4.535156 9.675781 6.253906 C 9.4375 6.253906 9.203125 6.253906 8.964844 6.253906 C 8.964844 4.535156 8.964844 2.820312 8.964844 1.101562 Z M 8.964844 1.101562 "/>
<path style=" stroke:none;fill-rule:evenodd;fill:rgb(100%,62.745098%,4.705882%);fill-opacity:1;" d="M 15.175781 1.101562 C 15.167969 1.941406 15.175781 2.78125 15.207031 3.625 C 15.25 3.59375 15.277344 3.558594 15.296875 3.515625 C 16.265625 2.984375 17.046875 3.164062 17.632812 4.054688 C 17.898438 4.730469 17.800781 5.355469 17.335938 5.933594 C 16.644531 6.484375 15.933594 6.5 15.207031 5.988281 C 15.179688 6.074219 15.167969 6.164062 15.175781 6.253906 C 14.921875 6.253906 14.664062 6.253906 14.410156 6.253906 C 14.410156 4.535156 14.410156 2.820312 14.410156 1.101562 C 14.664062 1.101562 14.921875 1.101562 15.175781 1.101562 Z M 15.175781 1.101562 "/>
<path style=" stroke:none;fill-rule:evenodd;fill:rgb(100%,85.098039%,22.745098%);fill-opacity:1;" d="M 3.402344 4.105469 C 3.226562 3.910156 3.027344 3.730469 2.8125 3.570312 C 3.523438 3.09375 4.25 3.074219 5 3.515625 C 4.96875 3.769531 4.851562 4.003906 4.644531 4.214844 C 4.253906 3.976562 3.839844 3.9375 3.402344 4.105469 Z M 3.402344 4.105469 "/>
<path style=" stroke:none;fill-rule:evenodd;fill:rgb(100%,62.745098%,3.529412%);fill-opacity:1;" d="M 12.871094 3.570312 C 12.929688 3.527344 12.949219 3.4375 12.929688 3.300781 C 13.164062 3.300781 13.402344 3.300781 13.640625 3.300781 C 13.640625 4.285156 13.640625 5.269531 13.640625 6.253906 C 13.402344 6.253906 13.164062 6.253906 12.929688 6.253906 C 12.945312 6.160156 12.925781 6.070312 12.871094 5.988281 C 12.832031 5.992188 12.8125 6.011719 12.8125 6.039062 C 11.761719 6.613281 10.960938 6.398438 10.414062 5.394531 C 10.144531 4.574219 10.371094 3.902344 11.09375 3.382812 C 11.734375 3.09375 12.324219 3.15625 12.871094 3.570312 Z M 12.871094 3.570312 "/>
<path style=" stroke:none;fill-rule:evenodd;fill:rgb(100%,85.098039%,22.352941%);fill-opacity:1;" d="M 7.839844 3.679688 C 7.664062 3.855469 7.488281 4.035156 7.308594 4.214844 C 6.785156 3.894531 6.304688 3.929688 5.859375 4.320312 C 5.628906 4.730469 5.679688 5.105469 6.007812 5.449219 C 5.949219 5.476562 5.890625 5.503906 5.828125 5.53125 C 5.65625 5.660156 5.519531 5.8125 5.414062 5.988281 C 4.679688 5.269531 4.640625 4.515625 5.296875 3.730469 C 5.933594 3.160156 6.664062 3.042969 7.484375 3.382812 C 7.632812 3.453125 7.75 3.550781 7.839844 3.679688 Z M 7.839844 3.679688 "/>
<path style=" stroke:none;fill-rule:evenodd;fill:rgb(100%,82.352941%,56.078431%);fill-opacity:1;" d="M 12.8125 6.039062 C 12.8125 6.011719 12.832031 5.992188 12.871094 5.988281 C 12.925781 6.070312 12.945312 6.160156 12.929688 6.253906 C 13.164062 6.253906 13.402344 6.253906 13.640625 6.253906 C 13.640625 5.269531 13.640625 4.285156 13.640625 3.300781 C 13.402344 3.300781 13.164062 3.300781 12.929688 3.300781 C 12.949219 3.4375 12.929688 3.527344 12.871094 3.570312 C 12.871094 3.464844 12.871094 3.355469 12.871094 3.25 C 13.144531 3.25 13.421875 3.25 13.699219 3.25 C 13.699219 4.269531 13.699219 5.289062 13.699219 6.308594 C 13.421875 6.308594 13.144531 6.308594 12.871094 6.308594 C 12.886719 6.207031 12.867188 6.117188 12.8125 6.039062 Z M 12.8125 6.039062 "/>
<path style=" stroke:none;fill-rule:evenodd;fill:rgb(100%,75.686275%,7.843137%);fill-opacity:1;" d="M 2.8125 3.570312 C 3.027344 3.730469 3.226562 3.910156 3.402344 4.105469 C 2.851562 4.574219 2.851562 5.039062 3.402344 5.503906 C 3.226562 5.699219 3.027344 5.878906 2.8125 6.039062 C 2.097656 5.4375 1.96875 4.738281 2.425781 3.945312 C 2.527344 3.796875 2.65625 3.671875 2.8125 3.570312 Z M 2.8125 3.570312 "/>
<path style=" stroke:none;fill-rule:evenodd;fill:rgb(100%,99.215686%,98.039216%);fill-opacity:1;" d="M 15.769531 3.839844 C 16.699219 3.816406 17.105469 4.226562 16.980469 5.074219 C 16.730469 5.691406 16.269531 5.878906 15.589844 5.636719 C 15.078125 5.210938 14.988281 4.71875 15.324219 4.160156 C 15.449219 4.019531 15.597656 3.914062 15.769531 3.839844 Z M 15.769531 3.839844 "/>
<path style=" stroke:none;fill-rule:evenodd;fill:rgb(100%,72.941176%,10.196078%);fill-opacity:1;" d="M 7.839844 3.679688 C 8.335938 4.0625 8.515625 4.546875 8.371094 5.128906 C 8.039062 4.925781 7.753906 4.671875 7.515625 4.375 C 7.492188 4.386719 7.480469 4.40625 7.484375 4.429688 C 7.425781 4.359375 7.367188 4.289062 7.308594 4.214844 C 7.488281 4.035156 7.664062 3.855469 7.839844 3.679688 Z M 7.839844 3.679688 "/>
<path style=" stroke:none;fill-rule:evenodd;fill:rgb(100%,99.215686%,98.431373%);fill-opacity:1;" d="M 11.6875 3.839844 C 12.277344 3.734375 12.679688 3.933594 12.898438 4.429688 C 13.085938 5.371094 12.660156 5.789062 11.628906 5.691406 C 11.085938 5.292969 10.957031 4.800781 11.242188 4.214844 C 11.382812 4.078125 11.53125 3.953125 11.6875 3.839844 Z M 11.6875 3.839844 "/>
<path style=" stroke:none;fill-rule:evenodd;fill:rgb(100%,99.607843%,98.823529%);fill-opacity:1;" d="M 7.308594 4.214844 C 7.367188 4.289062 7.425781 4.359375 7.484375 4.429688 C 7.691406 5.136719 7.394531 5.550781 6.597656 5.664062 C 6.445312 5.667969 6.308594 5.632812 6.183594 5.558594 C 6.113281 5.535156 6.050781 5.496094 6.007812 5.449219 C 5.679688 5.105469 5.628906 4.730469 5.859375 4.320312 C 6.304688 3.929688 6.785156 3.894531 7.308594 4.214844 Z M 7.308594 4.214844 "/>
<path style=" stroke:none;fill-rule:evenodd;fill:rgb(100%,75.686275%,7.843137%);fill-opacity:1;" d="M 8.371094 5.128906 C 8.207031 5.832031 7.734375 6.246094 6.953125 6.363281 C 6.671875 6.109375 6.417969 5.839844 6.183594 5.558594 C 6.308594 5.632812 6.445312 5.667969 6.597656 5.664062 C 7.394531 5.550781 7.691406 5.136719 7.484375 4.429688 C 7.480469 4.40625 7.492188 4.386719 7.515625 4.375 C 7.753906 4.671875 8.039062 4.925781 8.371094 5.128906 Z M 8.371094 5.128906 "/>
<path style=" stroke:none;fill-rule:evenodd;fill:rgb(100%,85.098039%,22.352941%);fill-opacity:1;" d="M 2.8125 6.039062 C 3.027344 5.878906 3.226562 5.699219 3.402344 5.503906 C 3.808594 5.726562 4.203125 5.707031 4.585938 5.449219 C 4.8125 5.628906 4.960938 5.84375 5.03125 6.09375 C 4.492188 6.417969 3.910156 6.496094 3.285156 6.335938 C 3.089844 6.277344 2.933594 6.175781 2.8125 6.039062 Z M 2.8125 6.039062 "/>
<path style=" stroke:none;fill-rule:evenodd;fill:rgb(99.607843%,72.156863%,6.27451%);fill-opacity:1;" d="M 6.007812 5.449219 C 6.050781 5.496094 6.113281 5.535156 6.183594 5.558594 C 6.417969 5.839844 6.671875 6.109375 6.953125 6.363281 C 6.367188 6.488281 5.855469 6.363281 5.414062 5.988281 C 5.519531 5.8125 5.65625 5.660156 5.828125 5.53125 C 5.890625 5.503906 5.949219 5.476562 6.007812 5.449219 Z M 6.007812 5.449219 "/>
</g>
</svg>
