<?xml version="1.0" encoding="UTF-8"?>
<svg xmlns="http://www.w3.org/2000/svg" xmlns:xlink="http://www.w3.org/1999/xlink" width="59px" height="20px" viewBox="0 0 6 20" version="1.1">
<g id="surface1">
<path style=" stroke:none;fill-rule:evenodd;fill:rgb(100%,99.607843%,99.607843%);fill-opacity:1;" d="M -0.0078125 8.636719 C 1.992188 8.636719 3.992188 8.636719 5.992188 8.636719 C 5.992188 9.539062 5.992188 10.441406 5.992188 11.347656 C 3.992188 11.347656 1.992188 11.347656 -0.0078125 11.347656 C -0.0078125 10.441406 -0.0078125 9.539062 -0.0078125 8.636719 Z M -0.0078125 8.636719 "/>
<path style=" stroke:none;fill-rule:evenodd;fill:rgb(100%,81.960784%,59.215686%);fill-opacity:1;" d="M 2.691406 9.015625 C 2.691406 9.601562 2.691406 10.179688 2.691406 10.765625 C 2.761719 10.765625 2.832031 10.765625 2.902344 10.765625 C 2.902344 10.179688 2.902344 9.601562 2.902344 9.015625 C 2.921875 9.601562 2.925781 10.191406 2.921875 10.78125 C 2.835938 10.78125 2.753906 10.78125 2.671875 10.78125 C 2.667969 10.191406 2.671875 9.601562 2.691406 9.015625 Z M 2.691406 9.015625 "/>
<path style=" stroke:none;fill-rule:evenodd;fill:rgb(100%,93.333333%,82.352941%);fill-opacity:1;" d="M 4.550781 9.015625 C 4.566406 9.289062 4.578125 9.5625 4.589844 9.835938 C 4.582031 9.851562 4.574219 9.863281 4.5625 9.871094 C 4.550781 9.585938 4.550781 9.300781 4.550781 9.015625 Z M 4.550781 9.015625 "/>
<path style=" stroke:none;fill-rule:evenodd;fill:rgb(100%,61.960784%,0%);fill-opacity:1;" d="M 2.691406 9.015625 C 2.761719 9.015625 2.832031 9.015625 2.902344 9.015625 C 2.902344 9.601562 2.902344 10.179688 2.902344 10.765625 C 2.832031 10.765625 2.761719 10.765625 2.691406 10.765625 C 2.691406 10.179688 2.691406 9.601562 2.691406 9.015625 Z M 2.691406 9.015625 "/>
<path style=" stroke:none;fill-rule:evenodd;fill:rgb(100%,62.745098%,4.705882%);fill-opacity:1;" d="M 4.550781 9.015625 C 4.550781 9.300781 4.550781 9.585938 4.5625 9.871094 C 4.574219 9.863281 4.582031 9.851562 4.589844 9.835938 C 4.878906 9.65625 5.113281 9.714844 5.289062 10.019531 C 5.371094 10.246094 5.339844 10.460938 5.199219 10.65625 C 4.992188 10.84375 4.78125 10.847656 4.5625 10.675781 C 4.554688 10.703125 4.550781 10.734375 4.550781 10.765625 C 4.476562 10.765625 4.398438 10.765625 4.324219 10.765625 C 4.324219 10.179688 4.324219 9.601562 4.324219 9.015625 C 4.398438 9.015625 4.476562 9.015625 4.550781 9.015625 Z M 4.550781 9.015625 "/>
<path style=" stroke:none;fill-rule:evenodd;fill:rgb(100%,85.098039%,22.745098%);fill-opacity:1;" d="M 1.019531 10.035156 C 0.96875 9.96875 0.910156 9.910156 0.84375 9.855469 C 1.058594 9.691406 1.273438 9.6875 1.5 9.835938 C 1.492188 9.921875 1.457031 10 1.394531 10.074219 C 1.277344 9.992188 1.152344 9.980469 1.019531 10.035156 Z M 1.019531 10.035156 "/>
<path style=" stroke:none;fill-rule:evenodd;fill:rgb(100%,62.745098%,3.529412%);fill-opacity:1;" d="M 3.863281 9.855469 C 3.878906 9.839844 3.886719 9.808594 3.878906 9.761719 C 3.949219 9.761719 4.019531 9.761719 4.09375 9.761719 C 4.09375 10.097656 4.09375 10.429688 4.09375 10.765625 C 4.019531 10.765625 3.949219 10.765625 3.878906 10.765625 C 3.882812 10.730469 3.878906 10.703125 3.863281 10.675781 C 3.847656 10.675781 3.84375 10.683594 3.84375 10.691406 C 3.527344 10.886719 3.289062 10.8125 3.125 10.472656 C 3.042969 10.195312 3.113281 9.96875 3.328125 9.789062 C 3.519531 9.691406 3.699219 9.714844 3.863281 9.855469 Z M 3.863281 9.855469 "/>
<path style=" stroke:none;fill-rule:evenodd;fill:rgb(100%,85.098039%,22.352941%);fill-opacity:1;" d="M 2.351562 9.890625 C 2.300781 9.949219 2.246094 10.011719 2.191406 10.074219 C 2.035156 9.964844 1.890625 9.976562 1.757812 10.109375 C 1.6875 10.246094 1.703125 10.375 1.800781 10.492188 C 1.785156 10.5 1.765625 10.511719 1.75 10.519531 C 1.695312 10.5625 1.65625 10.613281 1.625 10.675781 C 1.402344 10.429688 1.390625 10.175781 1.589844 9.910156 C 1.78125 9.714844 2 9.675781 2.246094 9.789062 C 2.289062 9.816406 2.324219 9.847656 2.351562 9.890625 Z M 2.351562 9.890625 "/>
<path style=" stroke:none;fill-rule:evenodd;fill:rgb(100%,82.352941%,56.078431%);fill-opacity:1;" d="M 3.84375 10.691406 C 3.84375 10.683594 3.847656 10.675781 3.863281 10.675781 C 3.878906 10.703125 3.882812 10.730469 3.878906 10.765625 C 3.949219 10.765625 4.019531 10.765625 4.09375 10.765625 C 4.09375 10.429688 4.09375 10.097656 4.09375 9.761719 C 4.019531 9.761719 3.949219 9.761719 3.878906 9.761719 C 3.886719 9.808594 3.878906 9.839844 3.863281 9.855469 C 3.863281 9.820312 3.863281 9.78125 3.863281 9.746094 C 3.941406 9.746094 4.027344 9.746094 4.109375 9.746094 C 4.109375 10.089844 4.109375 10.4375 4.109375 10.78125 C 4.027344 10.78125 3.941406 10.78125 3.863281 10.78125 C 3.867188 10.75 3.859375 10.71875 3.84375 10.691406 Z M 3.84375 10.691406 "/>
<path style=" stroke:none;fill-rule:evenodd;fill:rgb(100%,75.686275%,7.843137%);fill-opacity:1;" d="M 0.84375 9.855469 C 0.910156 9.910156 0.96875 9.96875 1.019531 10.035156 C 0.855469 10.195312 0.855469 10.351562 1.019531 10.511719 C 0.96875 10.574219 0.910156 10.636719 0.84375 10.691406 C 0.628906 10.488281 0.589844 10.25 0.726562 9.980469 C 0.757812 9.929688 0.796875 9.890625 0.84375 9.855469 Z M 0.84375 9.855469 "/>
<path style=" stroke:none;fill-rule:evenodd;fill:rgb(100%,99.215686%,98.039216%);fill-opacity:1;" d="M 4.730469 9.945312 C 5.011719 9.9375 5.132812 10.078125 5.09375 10.363281 C 5.019531 10.574219 4.878906 10.636719 4.675781 10.554688 C 4.523438 10.410156 4.496094 10.242188 4.597656 10.054688 C 4.636719 10.007812 4.679688 9.972656 4.730469 9.945312 Z M 4.730469 9.945312 "/>
<path style=" stroke:none;fill-rule:evenodd;fill:rgb(100%,72.941176%,10.196078%);fill-opacity:1;" d="M 2.351562 9.890625 C 2.5 10.019531 2.554688 10.183594 2.511719 10.382812 C 2.410156 10.3125 2.324219 10.226562 2.253906 10.128906 C 2.246094 10.132812 2.246094 10.136719 2.246094 10.144531 C 2.226562 10.121094 2.210938 10.097656 2.191406 10.074219 C 2.246094 10.011719 2.300781 9.949219 2.351562 9.890625 Z M 2.351562 9.890625 "/>
<path style=" stroke:none;fill-rule:evenodd;fill:rgb(100%,99.215686%,98.431373%);fill-opacity:1;" d="M 3.507812 9.945312 C 3.683594 9.910156 3.804688 9.976562 3.871094 10.144531 C 3.925781 10.464844 3.796875 10.605469 3.488281 10.574219 C 3.324219 10.4375 3.285156 10.269531 3.371094 10.074219 C 3.414062 10.027344 3.460938 9.984375 3.507812 9.945312 Z M 3.507812 9.945312 "/>
<path style=" stroke:none;fill-rule:evenodd;fill:rgb(100%,99.607843%,98.823529%);fill-opacity:1;" d="M 2.191406 10.074219 C 2.210938 10.097656 2.226562 10.121094 2.246094 10.144531 C 2.308594 10.386719 2.21875 10.527344 1.980469 10.5625 C 1.933594 10.566406 1.894531 10.554688 1.855469 10.527344 C 1.832031 10.519531 1.816406 10.507812 1.800781 10.492188 C 1.703125 10.375 1.6875 10.246094 1.757812 10.109375 C 1.890625 9.976562 2.035156 9.964844 2.191406 10.074219 Z M 2.191406 10.074219 "/>
<path style=" stroke:none;fill-rule:evenodd;fill:rgb(100%,75.686275%,7.843137%);fill-opacity:1;" d="M 2.511719 10.382812 C 2.460938 10.621094 2.320312 10.761719 2.085938 10.800781 C 2 10.714844 1.925781 10.625 1.855469 10.527344 C 1.894531 10.554688 1.933594 10.566406 1.980469 10.5625 C 2.21875 10.527344 2.308594 10.386719 2.246094 10.144531 C 2.246094 10.136719 2.246094 10.132812 2.253906 10.128906 C 2.324219 10.226562 2.410156 10.3125 2.511719 10.382812 Z M 2.511719 10.382812 "/>
<path style=" stroke:none;fill-rule:evenodd;fill:rgb(100%,85.098039%,22.352941%);fill-opacity:1;" d="M 0.84375 10.691406 C 0.910156 10.636719 0.96875 10.574219 1.019531 10.511719 C 1.144531 10.585938 1.261719 10.578125 1.375 10.492188 C 1.445312 10.550781 1.488281 10.625 1.507812 10.710938 C 1.347656 10.820312 1.171875 10.847656 0.984375 10.792969 C 0.925781 10.773438 0.878906 10.738281 0.84375 10.691406 Z M 0.84375 10.691406 "/>
<path style=" stroke:none;fill-rule:evenodd;fill:rgb(99.607843%,72.156863%,6.27451%);fill-opacity:1;" d="M 1.800781 10.492188 C 1.816406 10.507812 1.832031 10.519531 1.855469 10.527344 C 1.925781 10.625 2 10.714844 2.085938 10.800781 C 1.910156 10.84375 1.757812 10.800781 1.625 10.675781 C 1.65625 10.613281 1.695312 10.5625 1.75 10.519531 C 1.765625 10.511719 1.785156 10.5 1.800781 10.492188 Z M 1.800781 10.492188 "/>
</g>
</svg>
