<?xml version="1.0" encoding="UTF-8"?>
<svg xmlns="http://www.w3.org/2000/svg" xmlns:xlink="http://www.w3.org/1999/xlink" width="20px" height="59px" viewBox="0 0 20 20" version="1.1">
<defs>
<filter id="alpha" filterUnits="objectBoundingBox" x="0%" y="0%" width="100%" height="100%">
  <feColorMatrix type="matrix" in="SourceGraphic" values="0 0 0 0 1 0 0 0 0 1 0 0 0 0 1 0 0 0 1 0"/>
</filter>
<mask id="mask0">
  <g filter="url(#alpha)">
<rect x="0" y="0" width="20" height="20" style="fill:rgb(0%,0%,0%);fill-opacity:0.0431373;stroke:none;"/>
  </g>
</mask>
<clipPath id="clip1">
  <rect x="0" y="0" width="20" height="20"/>
</clipPath>
<g id="surface5" clip-path="url(#clip1)">
<path style=" stroke:none;fill-rule:evenodd;fill:rgb(24.705882%,24.705882%,24.705882%);fill-opacity:1;" d="M 14.203125 0.105469 C 13.390625 0.105469 12.582031 0.105469 11.769531 0.105469 C 11.757812 0.386719 11.78125 0.664062 11.839844 0.9375 C 11.773438 0.90625 11.714844 0.859375 11.667969 0.796875 C 11.632812 0.546875 11.621094 0.289062 11.632812 0.0351562 C 12.5 0.0117188 13.355469 0.0351562 14.203125 0.105469 Z M 14.203125 0.105469 "/>
</g>
<mask id="mask1">
  <g filter="url(#alpha)">
<rect x="0" y="0" width="20" height="20" style="fill:rgb(0%,0%,0%);fill-opacity:0.690196;stroke:none;"/>
  </g>
</mask>
<clipPath id="clip2">
  <rect x="0" y="0" width="20" height="20"/>
</clipPath>
<g id="surface8" clip-path="url(#clip2)">
<path style=" stroke:none;fill-rule:evenodd;fill:rgb(16.862745%,16.862745%,16.862745%);fill-opacity:1;" d="M 11.214844 0.0351562 C 11.238281 0.304688 11.214844 0.558594 11.144531 0.796875 C 11.144531 0.589844 11.144531 0.382812 11.144531 0.171875 C 10.335938 0.171875 9.527344 0.171875 8.714844 0.171875 C 9.523438 0.0351562 10.355469 -0.0117188 11.214844 0.0351562 Z M 11.214844 0.0351562 "/>
</g>
<mask id="mask2">
  <g filter="url(#alpha)">
<rect x="0" y="0" width="20" height="20" style="fill:rgb(0%,0%,0%);fill-opacity:0.698039;stroke:none;"/>
  </g>
</mask>
<clipPath id="clip3">
  <rect x="0" y="0" width="20" height="20"/>
</clipPath>
<g id="surface11" clip-path="url(#clip3)">
<path style=" stroke:none;fill-rule:evenodd;fill:rgb(27.843137%,27.843137%,27.843137%);fill-opacity:1;" d="M 8.367188 0.171875 C 7.652344 0.171875 6.933594 0.171875 6.214844 0.171875 C 6.214844 1.03125 6.214844 1.886719 6.214844 2.742188 C 6.933594 2.742188 7.652344 2.742188 8.367188 2.742188 C 7.617188 2.8125 6.851562 2.835938 6.078125 2.8125 C 6.078125 1.886719 6.078125 0.960938 6.078125 0.0351562 C 6.867188 -0.0117188 7.628906 0.0351562 8.367188 0.171875 Z M 8.367188 0.171875 "/>
</g>
<mask id="mask3">
  <g filter="url(#alpha)">
<rect x="0" y="0" width="20" height="20" style="fill:rgb(0%,0%,0%);fill-opacity:0.964706;stroke:none;"/>
  </g>
</mask>
<clipPath id="clip4">
  <rect x="0" y="0" width="20" height="20"/>
</clipPath>
<g id="surface14" clip-path="url(#clip4)">
<path style=" stroke:none;fill-rule:evenodd;fill:rgb(7.843137%,7.843137%,7.843137%);fill-opacity:1;" d="M 8.367188 0.171875 C 8.367188 0.40625 8.367188 0.636719 8.367188 0.867188 C 7.929688 0.867188 7.488281 0.867188 7.046875 0.867188 C 7.027344 1.25 7.050781 1.621094 7.117188 1.980469 C 7.535156 1.980469 7.953125 1.980469 8.367188 1.980469 C 8.367188 2.234375 8.367188 2.488281 8.367188 2.742188 C 7.652344 2.742188 6.933594 2.742188 6.214844 2.742188 C 6.214844 1.886719 6.214844 1.03125 6.214844 0.171875 C 6.933594 0.171875 7.652344 0.171875 8.367188 0.171875 Z M 8.367188 0.171875 "/>
</g>
<mask id="mask4">
  <g filter="url(#alpha)">
<rect x="0" y="0" width="20" height="20" style="fill:rgb(0%,0%,0%);fill-opacity:0.984314;stroke:none;"/>
  </g>
</mask>
<clipPath id="clip5">
  <rect x="0" y="0" width="20" height="20"/>
</clipPath>
<g id="surface17" clip-path="url(#clip5)">
<path style=" stroke:none;fill-rule:evenodd;fill:rgb(8.627451%,8.627451%,8.627451%);fill-opacity:1;" d="M 8.714844 0.171875 C 9.527344 0.171875 10.335938 0.171875 11.144531 0.171875 C 11.144531 0.382812 11.144531 0.589844 11.144531 0.796875 C 10.773438 0.785156 10.40625 0.796875 10.035156 0.832031 C 10.144531 1.046875 10.304688 1.195312 10.519531 1.285156 C 10.683594 1.46875 10.84375 1.65625 11.007812 1.839844 C 11.019531 1.957031 11.078125 2.050781 11.179688 2.117188 C 11.214844 2.324219 11.226562 2.535156 11.214844 2.742188 C 10.382812 2.742188 9.546875 2.742188 8.714844 2.742188 C 8.714844 2.488281 8.714844 2.234375 8.714844 1.980469 C 9.085938 1.992188 9.457031 1.980469 9.828125 1.945312 C 9.582031 1.710938 9.347656 1.46875 9.132812 1.214844 C 9.132812 1.03125 9.039062 0.9375 8.855469 0.9375 C 8.726562 0.707031 8.679688 0.449219 8.714844 0.171875 Z M 8.714844 0.171875 "/>
</g>
<mask id="mask5">
  <g filter="url(#alpha)">
<rect x="0" y="0" width="20" height="20" style="fill:rgb(0%,0%,0%);fill-opacity:0.980392;stroke:none;"/>
  </g>
</mask>
<clipPath id="clip6">
  <rect x="0" y="0" width="20" height="20"/>
</clipPath>
<g id="surface20" clip-path="url(#clip6)">
<path style=" stroke:none;fill-rule:evenodd;fill:rgb(8.235294%,8.235294%,8.235294%);fill-opacity:1;" d="M 14.203125 0.105469 C 14.203125 0.335938 14.203125 0.566406 14.203125 0.796875 C 13.804688 0.777344 13.410156 0.800781 13.019531 0.867188 C 13.03125 0.910156 13.050781 0.933594 13.089844 0.9375 C 13.113281 0.9375 13.136719 0.9375 13.160156 0.9375 C 13.207031 1.007812 13.253906 1.078125 13.296875 1.144531 C 13.367188 1.355469 13.507812 1.492188 13.714844 1.5625 C 13.851562 1.734375 14 1.894531 14.167969 2.046875 C 14.203125 2.277344 14.210938 2.511719 14.203125 2.742188 C 13.367188 2.742188 12.535156 2.742188 11.703125 2.742188 C 11.703125 2.511719 11.703125 2.28125 11.703125 2.046875 C 12.09375 2.058594 12.488281 2.046875 12.882812 2.015625 C 12.84375 1.914062 12.773438 1.859375 12.671875 1.839844 C 12.535156 1.746094 12.417969 1.632812 12.328125 1.492188 C 12.328125 1.308594 12.234375 1.21875 12.046875 1.214844 C 11.980469 1.121094 11.910156 1.03125 11.839844 0.9375 C 11.78125 0.664062 11.757812 0.386719 11.769531 0.105469 C 12.582031 0.105469 13.390625 0.105469 14.203125 0.105469 Z M 14.203125 0.105469 "/>
</g>
<mask id="mask6">
  <g filter="url(#alpha)">
<rect x="0" y="0" width="20" height="20" style="fill:rgb(0%,0%,0%);fill-opacity:0.478431;stroke:none;"/>
  </g>
</mask>
<clipPath id="clip7">
  <rect x="0" y="0" width="20" height="20"/>
</clipPath>
<g id="surface23" clip-path="url(#clip7)">
<path style=" stroke:none;fill-rule:evenodd;fill:rgb(47.058824%,47.058824%,47.058824%);fill-opacity:1;" d="M 11.214844 0.0351562 C 11.292969 0.300781 11.304688 0.578125 11.25 0.867188 C 10.921875 0.925781 10.585938 0.957031 10.242188 0.972656 C 10.351562 1.066406 10.441406 1.171875 10.519531 1.285156 C 10.304688 1.195312 10.144531 1.046875 10.035156 0.832031 C 10.40625 0.796875 10.773438 0.785156 11.144531 0.796875 C 11.214844 0.558594 11.238281 0.304688 11.214844 0.0351562 Z M 11.214844 0.0351562 "/>
</g>
<mask id="mask7">
  <g filter="url(#alpha)">
<rect x="0" y="0" width="20" height="20" style="fill:rgb(0%,0%,0%);fill-opacity:0.501961;stroke:none;"/>
  </g>
</mask>
<clipPath id="clip8">
  <rect x="0" y="0" width="20" height="20"/>
</clipPath>
<g id="surface26" clip-path="url(#clip8)">
<path style=" stroke:none;fill-rule:evenodd;fill:rgb(47.45098%,47.45098%,47.45098%);fill-opacity:1;" d="M 14.203125 0.796875 C 14.195312 0.839844 14.171875 0.875 14.132812 0.902344 C 13.808594 0.9375 13.484375 0.949219 13.160156 0.9375 C 13.136719 0.84375 13.113281 0.84375 13.089844 0.9375 C 13.050781 0.933594 13.03125 0.910156 13.019531 0.867188 C 13.410156 0.800781 13.804688 0.777344 14.203125 0.796875 Z M 14.203125 0.796875 "/>
</g>
<mask id="mask8">
  <g filter="url(#alpha)">
<rect x="0" y="0" width="20" height="20" style="fill:rgb(0%,0%,0%);fill-opacity:0.0666667;stroke:none;"/>
  </g>
</mask>
<clipPath id="clip9">
  <rect x="0" y="0" width="20" height="20"/>
</clipPath>
<g id="surface29" clip-path="url(#clip9)">
<path style=" stroke:none;fill-rule:evenodd;fill:rgb(66.666667%,66.666667%,66.666667%);fill-opacity:1;" d="M 8.367188 0.867188 C 7.964844 0.9375 7.546875 0.960938 7.117188 0.9375 C 7.117188 1.285156 7.117188 1.632812 7.117188 1.980469 C 7.050781 1.621094 7.027344 1.25 7.046875 0.867188 C 7.488281 0.867188 7.929688 0.867188 8.367188 0.867188 Z M 8.367188 0.867188 "/>
</g>
<mask id="mask9">
  <g filter="url(#alpha)">
<rect x="0" y="0" width="20" height="20" style="fill:rgb(0%,0%,0%);fill-opacity:0.780392;stroke:none;"/>
  </g>
</mask>
<clipPath id="clip10">
  <rect x="0" y="0" width="20" height="20"/>
</clipPath>
<g id="surface32" clip-path="url(#clip10)">
<path style=" stroke:none;fill-rule:evenodd;fill:rgb(41.568627%,41.568627%,41.568627%);fill-opacity:1;" d="M 8.855469 0.9375 C 9.039062 0.9375 9.132812 1.03125 9.132812 1.214844 C 9.015625 1.144531 8.921875 1.054688 8.855469 0.9375 Z M 8.855469 0.9375 "/>
</g>
<mask id="mask10">
  <g filter="url(#alpha)">
<rect x="0" y="0" width="20" height="20" style="fill:rgb(0%,0%,0%);fill-opacity:0.505882;stroke:none;"/>
  </g>
</mask>
<clipPath id="clip11">
  <rect x="0" y="0" width="20" height="20"/>
</clipPath>
<g id="surface35" clip-path="url(#clip11)">
<path style=" stroke:none;fill-rule:evenodd;fill:rgb(45.098039%,45.098039%,45.098039%);fill-opacity:1;" d="M 13.296875 1.144531 C 13.460938 1.261719 13.597656 1.402344 13.714844 1.5625 C 13.507812 1.492188 13.367188 1.355469 13.296875 1.144531 Z M 13.296875 1.144531 "/>
</g>
<mask id="mask11">
  <g filter="url(#alpha)">
<rect x="0" y="0" width="20" height="20" style="fill:rgb(0%,0%,0%);fill-opacity:0.772549;stroke:none;"/>
  </g>
</mask>
<clipPath id="clip12">
  <rect x="0" y="0" width="20" height="20"/>
</clipPath>
<g id="surface38" clip-path="url(#clip12)">
<path style=" stroke:none;fill-rule:evenodd;fill:rgb(38.039216%,38.039216%,38.039216%);fill-opacity:1;" d="M 12.046875 1.214844 C 12.234375 1.21875 12.328125 1.308594 12.328125 1.492188 C 12.210938 1.421875 12.117188 1.332031 12.046875 1.214844 Z M 12.046875 1.214844 "/>
</g>
<mask id="mask12">
  <g filter="url(#alpha)">
<rect x="0" y="0" width="20" height="20" style="fill:rgb(0%,0%,0%);fill-opacity:0.403922;stroke:none;"/>
  </g>
</mask>
<clipPath id="clip13">
  <rect x="0" y="0" width="20" height="20"/>
</clipPath>
<g id="surface41" clip-path="url(#clip13)">
<path style=" stroke:none;fill-rule:evenodd;fill:rgb(26.27451%,26.27451%,26.27451%);fill-opacity:1;" d="M 11.007812 1.839844 C 11.097656 1.894531 11.179688 1.964844 11.25 2.046875 C 11.285156 2.300781 11.296875 2.558594 11.285156 2.8125 C 10.414062 2.835938 9.558594 2.8125 8.714844 2.742188 C 9.546875 2.742188 10.382812 2.742188 11.214844 2.742188 C 11.226562 2.535156 11.214844 2.324219 11.179688 2.117188 C 11.078125 2.050781 11.019531 1.957031 11.007812 1.839844 Z M 11.007812 1.839844 "/>
</g>
<mask id="mask13">
  <g filter="url(#alpha)">
<rect x="0" y="0" width="20" height="20" style="fill:rgb(0%,0%,0%);fill-opacity:0.403922;stroke:none;"/>
  </g>
</mask>
<clipPath id="clip14">
  <rect x="0" y="0" width="20" height="20"/>
</clipPath>
<g id="surface44" clip-path="url(#clip14)">
<path style=" stroke:none;fill-rule:evenodd;fill:rgb(29.019608%,29.019608%,29.019608%);fill-opacity:1;" d="M 12.671875 1.839844 C 12.773438 1.859375 12.84375 1.914062 12.882812 2.015625 C 12.488281 2.046875 12.09375 2.058594 11.703125 2.046875 C 11.703125 2.28125 11.703125 2.511719 11.703125 2.742188 C 12.535156 2.742188 13.367188 2.742188 14.203125 2.742188 C 13.355469 2.8125 12.5 2.835938 11.632812 2.8125 C 11.632812 2.535156 11.632812 2.257812 11.632812 1.980469 C 12.003906 1.992188 12.375 1.980469 12.742188 1.945312 C 12.703125 1.917969 12.679688 1.882812 12.671875 1.839844 Z M 12.671875 1.839844 "/>
</g>
<mask id="mask14">
  <g filter="url(#alpha)">
<rect x="0" y="0" width="20" height="20" style="fill:rgb(0%,0%,0%);fill-opacity:0.0901961;stroke:none;"/>
  </g>
</mask>
<clipPath id="clip15">
  <rect x="0" y="0" width="20" height="20"/>
</clipPath>
<g id="surface47" clip-path="url(#clip15)">
<path style=" stroke:none;fill-rule:evenodd;fill:rgb(66.27451%,80%,89.803922%);fill-opacity:1;" d="M 3.089844 3.992188 C 7.800781 3.902344 12.523438 3.902344 17.257812 3.992188 C 17.25 4.035156 17.226562 4.058594 17.1875 4.0625 C 12.5 3.992188 7.800781 3.96875 3.089844 3.992188 Z M 3.089844 3.992188 "/>
</g>
<mask id="mask15">
  <g filter="url(#alpha)">
<rect x="0" y="0" width="20" height="20" style="fill:rgb(0%,0%,0%);fill-opacity:0.996078;stroke:none;"/>
  </g>
</mask>
<clipPath id="clip16">
  <rect x="0" y="0" width="20" height="20"/>
</clipPath>
<g id="surface50" clip-path="url(#clip16)">
<path style=" stroke:none;fill-rule:evenodd;fill:rgb(10.196078%,45.098039%,71.372549%);fill-opacity:1;" d="M 3.089844 3.992188 C 7.800781 3.96875 12.5 3.992188 17.1875 4.0625 C 16.792969 8.832031 16.378906 13.601562 15.9375 18.367188 C 14.019531 18.875 12.097656 19.386719 10.171875 19.894531 C 8.25 19.386719 6.328125 18.878906 4.410156 18.367188 C 3.964844 13.578125 3.527344 8.785156 3.089844 3.992188 Z M 3.089844 3.992188 "/>
</g>
</defs>
<g id="surface1">
<use xlink:href="#surface5" mask="url(#mask0)"/>
<use xlink:href="#surface8" mask="url(#mask1)"/>
<use xlink:href="#surface11" mask="url(#mask2)"/>
<use xlink:href="#surface14" mask="url(#mask3)"/>
<use xlink:href="#surface17" mask="url(#mask4)"/>
<use xlink:href="#surface20" mask="url(#mask5)"/>
<use xlink:href="#surface23" mask="url(#mask6)"/>
<use xlink:href="#surface26" mask="url(#mask7)"/>
<use xlink:href="#surface29" mask="url(#mask8)"/>
<use xlink:href="#surface32" mask="url(#mask9)"/>
<use xlink:href="#surface35" mask="url(#mask10)"/>
<use xlink:href="#surface38" mask="url(#mask11)"/>
<use xlink:href="#surface41" mask="url(#mask12)"/>
<use xlink:href="#surface44" mask="url(#mask13)"/>
<use xlink:href="#surface47" mask="url(#mask14)"/>
<use xlink:href="#surface50" mask="url(#mask15)"/>
<path style=" stroke:none;fill-rule:evenodd;fill:rgb(20.784314%,66.27451%,85.882353%);fill-opacity:1;" d="M 10.171875 16.703125 C 11.378906 16.367188 12.582031 16.042969 13.785156 15.730469 C 14.027344 12.765625 14.28125 9.800781 14.546875 6.839844 C 13.101562 6.769531 11.644531 6.746094 10.171875 6.769531 C 10.171875 6.238281 10.171875 5.707031 10.171875 5.171875 C 12.070312 5.171875 13.96875 5.171875 15.867188 5.171875 C 15.507812 9.246094 15.164062 13.320312 14.828125 17.394531 C 13.292969 17.789062 11.765625 18.207031 10.242188 18.644531 C 10.171875 18 10.152344 17.351562 10.171875 16.703125 Z M 10.171875 16.703125 "/>
<path style=" stroke:none;fill-rule:evenodd;fill:rgb(90.196078%,91.372549%,91.764706%);fill-opacity:1;" d="M 10.171875 6.769531 C 11.644531 6.746094 13.101562 6.769531 14.546875 6.839844 C 13.089844 6.839844 11.632812 6.839844 10.171875 6.839844 C 10.171875 7.394531 10.171875 7.953125 10.171875 8.507812 C 8.761719 8.507812 7.347656 8.507812 5.9375 8.507812 C 5.898438 7.925781 5.851562 7.347656 5.796875 6.769531 C 7.257812 6.769531 8.714844 6.769531 10.171875 6.769531 Z M 10.171875 6.769531 "/>
<path style=" stroke:none;fill-rule:evenodd;fill:rgb(99.215686%,99.607843%,99.607843%);fill-opacity:1;" d="M 14.546875 6.839844 C 14.28125 9.800781 14.027344 12.765625 13.785156 15.730469 C 12.582031 16.042969 11.378906 16.367188 10.171875 16.703125 C 10.171875 16.097656 10.171875 15.496094 10.171875 14.894531 C 10.8125 14.722656 11.449219 14.539062 12.082031 14.339844 C 12.171875 13.601562 12.25 12.859375 12.328125 12.117188 C 11.621094 12.050781 10.902344 12.027344 10.171875 12.046875 C 10.171875 11.492188 10.171875 10.9375 10.171875 10.382812 C 10.949219 10.40625 11.714844 10.382812 12.464844 10.3125 C 12.511719 9.894531 12.558594 9.480469 12.605469 9.0625 C 12.671875 8.890625 12.695312 8.707031 12.671875 8.507812 C 11.839844 8.507812 11.007812 8.507812 10.171875 8.507812 C 10.171875 7.953125 10.171875 7.394531 10.171875 6.839844 C 11.632812 6.839844 13.089844 6.839844 14.546875 6.839844 Z M 14.546875 6.839844 "/>
<path style=" stroke:none;fill-rule:evenodd;fill:rgb(61.960784%,80%,89.803922%);fill-opacity:1;" d="M 5.9375 8.507812 C 7.347656 8.507812 8.761719 8.507812 10.171875 8.507812 C 11.007812 8.507812 11.839844 8.507812 12.671875 8.507812 C 12.695312 8.707031 12.671875 8.890625 12.605469 9.0625 C 12.605469 8.902344 12.605469 8.738281 12.605469 8.578125 C 11.792969 8.578125 10.984375 8.578125 10.171875 8.578125 C 8.75 8.597656 7.335938 8.578125 5.9375 8.507812 Z M 5.9375 8.507812 "/>
<path style=" stroke:none;fill-rule:evenodd;fill:rgb(20.392157%,66.27451%,86.27451%);fill-opacity:1;" d="M 10.171875 8.578125 C 10.984375 8.578125 11.792969 8.578125 12.605469 8.578125 C 12.605469 8.738281 12.605469 8.902344 12.605469 9.0625 C 12.558594 9.480469 12.511719 9.894531 12.464844 10.3125 C 11.703125 10.3125 10.9375 10.3125 10.171875 10.3125 C 10.171875 9.734375 10.171875 9.15625 10.171875 8.578125 Z M 10.171875 8.578125 "/>
<path style=" stroke:none;fill-rule:evenodd;fill:rgb(61.960784%,80.392157%,89.803922%);fill-opacity:1;" d="M 10.171875 10.3125 C 10.9375 10.3125 11.703125 10.3125 12.464844 10.3125 C 11.714844 10.382812 10.949219 10.40625 10.171875 10.382812 C 9.503906 10.382812 8.832031 10.382812 8.160156 10.382812 C 8.160156 10.542969 8.160156 10.707031 8.160156 10.867188 C 8.09375 10.699219 8.070312 10.511719 8.089844 10.3125 C 8.785156 10.3125 9.480469 10.3125 10.171875 10.3125 Z M 10.171875 10.3125 "/>
<path style=" stroke:none;fill-rule:evenodd;fill:rgb(90.196078%,91.372549%,91.764706%);fill-opacity:1;" d="M 10.171875 10.382812 C 10.171875 10.9375 10.171875 11.492188 10.171875 12.046875 C 10.902344 12.027344 11.621094 12.050781 12.328125 12.117188 C 11.609375 12.117188 10.890625 12.117188 10.171875 12.117188 C 9.527344 12.117188 8.878906 12.117188 8.230469 12.117188 C 8.234375 11.699219 8.210938 11.28125 8.160156 10.867188 C 8.160156 10.707031 8.160156 10.542969 8.160156 10.382812 C 8.832031 10.382812 9.503906 10.382812 10.171875 10.382812 Z M 10.171875 10.382812 "/>
<path style=" stroke:none;fill-rule:evenodd;fill:rgb(20.784314%,66.27451%,86.27451%);fill-opacity:1;" d="M 10.171875 12.117188 C 10.890625 12.117188 11.609375 12.117188 12.328125 12.117188 C 12.25 12.859375 12.171875 13.601562 12.082031 14.339844 C 11.449219 14.539062 10.8125 14.722656 10.171875 14.894531 C 10.082031 14.914062 10.015625 14.890625 9.964844 14.828125 C 10.035156 14.828125 10.105469 14.828125 10.171875 14.828125 C 10.171875 13.921875 10.171875 13.019531 10.171875 12.117188 Z M 10.171875 12.117188 "/>
<path style=" stroke:none;fill-rule:evenodd;fill:rgb(64.705882%,76.862745%,85.490196%);fill-opacity:1;" d="M 8.089844 13.019531 C 7.535156 13.019531 6.980469 13.019531 6.421875 13.019531 C 6.421875 13.230469 6.421875 13.4375 6.421875 13.644531 C 6.355469 13.429688 6.332031 13.199219 6.355469 12.953125 C 6.945312 12.929688 7.523438 12.953125 8.089844 13.019531 Z M 8.089844 13.019531 "/>
<path style=" stroke:none;fill-rule:evenodd;fill:rgb(91.372549%,91.372549%,91.764706%);fill-opacity:1;" d="M 8.089844 13.019531 C 8.125 13.476562 8.171875 13.925781 8.230469 14.375 C 8.796875 14.578125 9.375 14.726562 9.964844 14.828125 C 10.015625 14.890625 10.082031 14.914062 10.171875 14.894531 C 10.171875 15.496094 10.171875 16.097656 10.171875 16.703125 C 9.003906 16.367188 7.820312 16.054688 6.632812 15.765625 C 6.535156 15.0625 6.464844 14.359375 6.421875 13.644531 C 6.421875 13.4375 6.421875 13.230469 6.421875 13.019531 C 6.980469 13.019531 7.535156 13.019531 8.089844 13.019531 Z M 8.089844 13.019531 "/>
</g>
</svg>
