<?xml version="1.0" encoding="UTF-8"?>
<svg xmlns="http://www.w3.org/2000/svg" xmlns:xlink="http://www.w3.org/1999/xlink" width="59px" height="20px" viewBox="0 0 6 20" version="1.1">
<g id="surface1">
<path style=" stroke:none;fill-rule:evenodd;fill:rgb(99.607843%,99.607843%,99.607843%);fill-opacity:1;" d="M -0.0078125 8.804688 C 1.992188 8.804688 3.992188 8.804688 5.992188 8.804688 C 5.992188 9.597656 5.992188 10.386719 5.992188 11.175781 C 3.992188 11.175781 1.992188 11.175781 -0.0078125 11.175781 C -0.0078125 10.386719 -0.0078125 9.597656 -0.0078125 8.804688 Z M -0.0078125 8.804688 "/>
<path style=" stroke:none;fill-rule:evenodd;fill:rgb(12.941176%,43.529412%,26.27451%);fill-opacity:1;" d="M 1.449219 9.1875 C 1.476562 9.230469 1.488281 9.28125 1.480469 9.34375 C 1.703125 9.34375 1.925781 9.34375 2.152344 9.34375 C 2.175781 9.34375 2.195312 9.355469 2.207031 9.375 C 2.21875 9.796875 2.21875 10.21875 2.207031 10.640625 C 2.195312 10.65625 2.183594 10.667969 2.167969 10.675781 C 1.9375 10.675781 1.707031 10.675781 1.480469 10.675781 C 1.480469 10.734375 1.480469 10.789062 1.480469 10.847656 C 1.210938 10.800781 0.945312 10.75 0.679688 10.691406 C 0.785156 10.589844 0.847656 10.464844 0.875 10.3125 C 0.847656 10.316406 0.824219 10.3125 0.808594 10.292969 C 0.839844 10.296875 0.871094 10.292969 0.898438 10.277344 C 0.917969 10.21875 0.941406 10.160156 0.972656 10.101562 C 1.003906 10.164062 1.03125 10.230469 1.054688 10.292969 C 1.097656 10.3125 1.140625 10.316406 1.183594 10.304688 C 1.132812 10.210938 1.089844 10.109375 1.054688 10.007812 C 1.089844 9.90625 1.132812 9.808594 1.183594 9.714844 C 1.148438 9.703125 1.109375 9.703125 1.070312 9.714844 C 1.035156 9.777344 1.003906 9.84375 0.980469 9.914062 C 0.957031 9.855469 0.9375 9.796875 0.914062 9.742188 C 0.882812 9.722656 0.847656 9.71875 0.808594 9.722656 C 0.828125 9.707031 0.847656 9.699219 0.875 9.695312 C 0.839844 9.558594 0.777344 9.433594 0.695312 9.324219 C 0.945312 9.277344 1.195312 9.230469 1.449219 9.1875 Z M 1.449219 9.1875 "/>
<path style=" stroke:none;fill-rule:evenodd;fill:rgb(80%,86.27451%,82.745098%);fill-opacity:1;" d="M 1.449219 9.1875 C 1.457031 9.167969 1.476562 9.164062 1.496094 9.167969 C 1.496094 9.21875 1.496094 9.273438 1.496094 9.324219 C 1.714844 9.320312 1.933594 9.324219 2.152344 9.34375 C 1.925781 9.34375 1.703125 9.34375 1.480469 9.34375 C 1.488281 9.28125 1.476562 9.230469 1.449219 9.1875 Z M 1.449219 9.1875 "/>
<path style=" stroke:none;fill-rule:evenodd;fill:rgb(97.254902%,98.039216%,97.647059%);fill-opacity:1;" d="M 1.707031 10.363281 C 1.640625 10.347656 1.570312 10.339844 1.496094 10.347656 C 1.496094 10.328125 1.496094 10.3125 1.496094 10.292969 C 1.566406 10.292969 1.636719 10.292969 1.707031 10.292969 C 1.707031 10.242188 1.707031 10.191406 1.707031 10.140625 C 1.632812 10.140625 1.554688 10.140625 1.480469 10.140625 C 1.480469 10.121094 1.480469 10.101562 1.480469 10.085938 C 1.554688 10.085938 1.632812 10.085938 1.707031 10.085938 C 1.707031 10.035156 1.707031 9.984375 1.707031 9.929688 C 1.636719 9.929688 1.566406 9.929688 1.496094 9.929688 C 1.496094 9.914062 1.496094 9.898438 1.496094 9.878906 C 1.566406 9.878906 1.636719 9.878906 1.707031 9.878906 C 1.707031 9.828125 1.707031 9.773438 1.707031 9.722656 C 1.636719 9.722656 1.566406 9.722656 1.496094 9.722656 C 1.496094 9.707031 1.496094 9.6875 1.496094 9.671875 C 1.570312 9.675781 1.640625 9.671875 1.707031 9.652344 C 1.707031 9.609375 1.707031 9.5625 1.707031 9.515625 C 1.632812 9.515625 1.554688 9.515625 1.480469 9.515625 C 1.480469 9.472656 1.480469 9.433594 1.480469 9.394531 C 1.703125 9.394531 1.925781 9.394531 2.152344 9.394531 C 2.152344 9.804688 2.152344 10.214844 2.152344 10.625 C 1.925781 10.625 1.703125 10.625 1.480469 10.625 C 1.480469 10.582031 1.480469 10.542969 1.480469 10.5 C 1.554688 10.5 1.632812 10.5 1.707031 10.5 C 1.707031 10.457031 1.707031 10.410156 1.707031 10.363281 Z M 1.707031 10.363281 "/>
<path style=" stroke:none;fill-rule:evenodd;fill:rgb(15.294118%,43.529412%,26.27451%);fill-opacity:1;" d="M 3.292969 9.445312 C 3.320312 9.445312 3.347656 9.445312 3.375 9.445312 C 3.378906 9.507812 3.355469 9.527344 3.300781 9.5 C 3.292969 9.480469 3.292969 9.464844 3.292969 9.445312 Z M 3.292969 9.445312 "/>
<path style=" stroke:none;fill-rule:evenodd;fill:rgb(12.54902%,47.058824%,27.843137%);fill-opacity:1;" d="M 0.695312 9.324219 C 0.777344 9.433594 0.839844 9.558594 0.875 9.695312 C 0.847656 9.699219 0.828125 9.707031 0.808594 9.722656 C 0.792969 9.738281 0.789062 9.753906 0.800781 9.773438 C 0.839844 9.851562 0.875 9.929688 0.90625 10.007812 C 0.871094 10.101562 0.824219 10.191406 0.777344 10.277344 C 0.785156 10.292969 0.792969 10.296875 0.808594 10.292969 C 0.824219 10.3125 0.847656 10.316406 0.875 10.3125 C 0.847656 10.464844 0.785156 10.589844 0.679688 10.691406 C 0.628906 10.683594 0.582031 10.679688 0.53125 10.675781 C 0.53125 10.230469 0.53125 9.785156 0.53125 9.34375 C 0.585938 9.34375 0.640625 9.335938 0.695312 9.324219 Z M 0.695312 9.324219 "/>
<path style=" stroke:none;fill-rule:evenodd;fill:rgb(61.176471%,73.333333%,66.27451%);fill-opacity:1;" d="M 3.132812 9.464844 C 3.152344 9.445312 3.183594 9.441406 3.210938 9.445312 C 3.21875 9.617188 3.210938 9.785156 3.195312 9.949219 C 3.195312 9.785156 3.195312 9.625 3.195312 9.464844 C 3.175781 9.464844 3.152344 9.464844 3.132812 9.464844 Z M 3.132812 9.464844 "/>
<path style=" stroke:none;fill-rule:evenodd;fill:rgb(10.196078%,43.529412%,25.490196%);fill-opacity:1;" d="M 1.773438 9.515625 C 1.859375 9.515625 1.949219 9.515625 2.035156 9.515625 C 2.035156 9.5625 2.035156 9.609375 2.035156 9.652344 C 1.949219 9.652344 1.859375 9.652344 1.773438 9.652344 C 1.773438 9.609375 1.773438 9.5625 1.773438 9.515625 Z M 1.773438 9.515625 "/>
<path style=" stroke:none;fill-rule:evenodd;fill:rgb(10.980392%,44.705882%,25.882353%);fill-opacity:1;" d="M 5.09375 9.585938 C 5.109375 9.601562 5.132812 9.605469 5.160156 9.601562 C 5.160156 9.617188 5.160156 9.636719 5.160156 9.652344 C 5.136719 9.652344 5.113281 9.652344 5.09375 9.652344 C 5.09375 9.753906 5.09375 9.851562 5.09375 9.949219 C 5.070312 9.949219 5.050781 9.949219 5.027344 9.949219 C 5.027344 9.851562 5.027344 9.753906 5.027344 9.652344 C 5.011719 9.652344 4.996094 9.652344 4.976562 9.652344 C 4.976562 9.636719 4.976562 9.617188 4.976562 9.601562 C 4.996094 9.601562 5.011719 9.601562 5.027344 9.601562 C 5.007812 9.476562 5.058594 9.421875 5.175781 9.429688 C 5.175781 9.445312 5.175781 9.464844 5.175781 9.480469 C 5.101562 9.472656 5.074219 9.507812 5.09375 9.585938 Z M 5.09375 9.585938 "/>
<path style=" stroke:none;fill-rule:evenodd;fill:rgb(60%,73.333333%,65.098039%);fill-opacity:1;" d="M 3.359375 9.949219 C 3.359375 9.832031 3.359375 9.714844 3.359375 9.601562 C 3.34375 9.601562 3.328125 9.601562 3.308594 9.601562 C 3.308594 9.714844 3.308594 9.832031 3.308594 9.949219 C 3.292969 9.832031 3.289062 9.707031 3.292969 9.585938 C 3.320312 9.585938 3.347656 9.585938 3.375 9.585938 C 3.378906 9.707031 3.375 9.832031 3.359375 9.949219 Z M 3.359375 9.949219 "/>
<path style=" stroke:none;fill-rule:evenodd;fill:rgb(66.27451%,77.254902%,70.588235%);fill-opacity:1;" d="M 3.832031 9.617188 C 3.835938 9.625 3.832031 9.632812 3.824219 9.636719 C 3.816406 9.609375 3.792969 9.597656 3.769531 9.601562 C 3.769531 9.714844 3.769531 9.832031 3.769531 9.949219 C 3.753906 9.832031 3.746094 9.707031 3.753906 9.585938 C 3.789062 9.578125 3.816406 9.589844 3.832031 9.617188 Z M 3.832031 9.617188 "/>
<path style=" stroke:none;fill-rule:evenodd;fill:rgb(61.176471%,72.941176%,65.882353%);fill-opacity:1;" d="M 5.09375 9.585938 C 5.140625 9.585938 5.191406 9.585938 5.238281 9.585938 C 5.226562 9.601562 5.210938 9.605469 5.191406 9.601562 C 5.191406 9.617188 5.191406 9.636719 5.191406 9.652344 C 5.179688 9.652344 5.167969 9.652344 5.160156 9.652344 C 5.160156 9.636719 5.160156 9.617188 5.160156 9.601562 C 5.132812 9.605469 5.109375 9.601562 5.09375 9.585938 Z M 5.09375 9.585938 "/>
<path style=" stroke:none;fill-rule:evenodd;fill:rgb(9.019608%,44.705882%,25.490196%);fill-opacity:1;" d="M 3.359375 9.949219 C 3.34375 9.949219 3.328125 9.949219 3.308594 9.949219 C 3.308594 9.832031 3.308594 9.714844 3.308594 9.601562 C 3.328125 9.601562 3.34375 9.601562 3.359375 9.601562 C 3.359375 9.714844 3.359375 9.832031 3.359375 9.949219 Z M 3.359375 9.949219 "/>
<path style=" stroke:none;fill-rule:evenodd;fill:rgb(14.901961%,44.705882%,27.45098%);fill-opacity:1;" d="M 4.0625 9.585938 C 4.257812 9.582031 4.328125 9.679688 4.265625 9.878906 C 4.207031 9.945312 4.132812 9.964844 4.046875 9.9375 C 4.011719 9.925781 3.988281 9.898438 3.972656 9.859375 C 3.941406 9.742188 3.96875 9.652344 4.0625 9.585938 Z M 4.0625 9.585938 "/>
<path style=" stroke:none;fill-rule:evenodd;fill:rgb(14.509804%,44.313725%,27.058824%);fill-opacity:1;" d="M 4.714844 9.585938 C 4.917969 9.578125 4.988281 9.675781 4.921875 9.878906 C 4.859375 9.945312 4.785156 9.964844 4.699219 9.9375 C 4.664062 9.921875 4.636719 9.890625 4.625 9.84375 C 4.59375 9.730469 4.625 9.644531 4.714844 9.585938 Z M 4.714844 9.585938 "/>
<path style=" stroke:none;fill-rule:evenodd;fill:rgb(14.117647%,45.882353%,27.843137%);fill-opacity:1;" d="M 5.191406 9.652344 C 5.191406 9.636719 5.191406 9.617188 5.191406 9.601562 C 5.210938 9.605469 5.226562 9.601562 5.238281 9.585938 C 5.238281 9.554688 5.238281 9.527344 5.238281 9.5 C 5.261719 9.5 5.28125 9.5 5.304688 9.5 C 5.304688 9.53125 5.304688 9.566406 5.304688 9.601562 C 5.332031 9.601562 5.359375 9.601562 5.386719 9.601562 C 5.386719 9.617188 5.386719 9.636719 5.386719 9.652344 C 5.359375 9.652344 5.332031 9.652344 5.304688 9.652344 C 5.300781 9.730469 5.304688 9.804688 5.3125 9.878906 C 5.335938 9.902344 5.355469 9.902344 5.378906 9.878906 C 5.386719 9.902344 5.390625 9.925781 5.386719 9.949219 C 5.335938 9.957031 5.289062 9.945312 5.246094 9.914062 C 5.238281 9.828125 5.238281 9.742188 5.238281 9.652344 C 5.222656 9.652344 5.207031 9.652344 5.191406 9.652344 Z M 5.191406 9.652344 "/>
<path style=" stroke:none;fill-rule:evenodd;fill:rgb(56.470588%,70.588235%,62.352941%);fill-opacity:1;" d="M 1.707031 9.652344 C 1.640625 9.671875 1.570312 9.675781 1.496094 9.671875 C 1.496094 9.6875 1.496094 9.707031 1.496094 9.722656 C 1.480469 9.703125 1.476562 9.679688 1.480469 9.652344 C 1.554688 9.652344 1.632812 9.652344 1.707031 9.652344 Z M 1.707031 9.652344 "/>
<path style=" stroke:none;fill-rule:evenodd;fill:rgb(61.176471%,74.117647%,66.666667%);fill-opacity:1;" d="M 1.773438 9.515625 C 1.773438 9.5625 1.773438 9.609375 1.773438 9.652344 C 1.859375 9.652344 1.949219 9.652344 2.035156 9.652344 C 1.945312 9.671875 1.851562 9.675781 1.757812 9.671875 C 1.753906 9.613281 1.757812 9.5625 1.773438 9.515625 Z M 1.773438 9.515625 "/>
<path style=" stroke:none;fill-rule:evenodd;fill:rgb(96.862745%,98.039216%,97.254902%);fill-opacity:1;" d="M 4.0625 9.652344 C 4.234375 9.65625 4.269531 9.734375 4.175781 9.886719 C 4.050781 9.902344 4.003906 9.839844 4.039062 9.707031 C 4.046875 9.6875 4.054688 9.671875 4.0625 9.652344 Z M 4.0625 9.652344 "/>
<path style=" stroke:none;fill-rule:evenodd;fill:rgb(96.862745%,98.039216%,97.254902%);fill-opacity:1;" d="M 4.714844 9.652344 C 4.765625 9.648438 4.8125 9.65625 4.855469 9.671875 C 4.894531 9.75 4.886719 9.820312 4.832031 9.886719 C 4.703125 9.902344 4.65625 9.839844 4.691406 9.707031 C 4.699219 9.6875 4.707031 9.671875 4.714844 9.652344 Z M 4.714844 9.652344 "/>
<path style=" stroke:none;fill-rule:evenodd;fill:rgb(14.117647%,45.098039%,27.45098%);fill-opacity:1;" d="M 3.132812 9.464844 C 3.152344 9.464844 3.175781 9.464844 3.195312 9.464844 C 3.195312 9.625 3.195312 9.785156 3.195312 9.949219 C 3.179688 9.949219 3.164062 9.949219 3.148438 9.949219 C 3.148438 9.828125 3.148438 9.707031 3.140625 9.585938 C 3.121094 9.597656 3.113281 9.613281 3.113281 9.636719 C 3.074219 9.746094 3.023438 9.847656 2.96875 9.949219 C 2.90625 9.835938 2.847656 9.71875 2.796875 9.601562 C 2.789062 9.714844 2.785156 9.832031 2.789062 9.949219 C 2.765625 9.949219 2.742188 9.949219 2.722656 9.949219 C 2.722656 9.785156 2.722656 9.625 2.722656 9.464844 C 2.757812 9.457031 2.789062 9.464844 2.820312 9.480469 C 2.863281 9.59375 2.914062 9.703125 2.96875 9.808594 C 3.023438 9.691406 3.078125 9.578125 3.132812 9.464844 Z M 3.132812 9.464844 "/>
<path style=" stroke:none;fill-rule:evenodd;fill:rgb(56.470588%,70.588235%,62.352941%);fill-opacity:1;" d="M 3.148438 9.949219 C 3.136719 9.84375 3.125 9.742188 3.113281 9.636719 C 3.113281 9.613281 3.121094 9.597656 3.140625 9.585938 C 3.148438 9.707031 3.148438 9.828125 3.148438 9.949219 Z M 3.148438 9.949219 "/>
<path style=" stroke:none;fill-rule:evenodd;fill:rgb(94.901961%,96.470588%,95.294118%);fill-opacity:1;" d="M 0.808594 10.292969 C 0.792969 10.296875 0.785156 10.292969 0.777344 10.277344 C 0.824219 10.191406 0.871094 10.101562 0.90625 10.007812 C 0.875 9.929688 0.839844 9.851562 0.800781 9.773438 C 0.789062 9.753906 0.792969 9.738281 0.808594 9.722656 C 0.847656 9.71875 0.882812 9.722656 0.914062 9.742188 C 0.9375 9.796875 0.957031 9.855469 0.980469 9.914062 C 1.003906 9.84375 1.035156 9.777344 1.070312 9.714844 C 1.109375 9.703125 1.148438 9.703125 1.183594 9.714844 C 1.132812 9.808594 1.089844 9.90625 1.054688 10.007812 C 1.089844 10.109375 1.132812 10.210938 1.183594 10.304688 C 1.140625 10.316406 1.097656 10.3125 1.054688 10.292969 C 1.03125 10.230469 1.003906 10.164062 0.972656 10.101562 C 0.941406 10.160156 0.917969 10.21875 0.898438 10.277344 C 0.871094 10.292969 0.839844 10.296875 0.808594 10.292969 Z M 0.808594 10.292969 "/>
<path style=" stroke:none;fill-rule:evenodd;fill:rgb(14.509804%,45.098039%,27.45098%);fill-opacity:1;" d="M 1.773438 9.722656 C 1.859375 9.722656 1.949219 9.722656 2.035156 9.722656 C 2.035156 9.773438 2.035156 9.828125 2.035156 9.878906 C 1.949219 9.878906 1.859375 9.878906 1.773438 9.878906 C 1.773438 9.828125 1.773438 9.773438 1.773438 9.722656 Z M 1.773438 9.722656 "/>
<path style=" stroke:none;fill-rule:evenodd;fill:rgb(14.117647%,45.098039%,27.058824%);fill-opacity:1;" d="M 3.769531 9.949219 C 3.769531 9.832031 3.769531 9.714844 3.769531 9.601562 C 3.792969 9.597656 3.816406 9.609375 3.824219 9.636719 C 3.832031 9.632812 3.835938 9.625 3.832031 9.617188 C 3.867188 9.589844 3.90625 9.578125 3.949219 9.585938 C 3.949219 9.613281 3.949219 9.640625 3.941406 9.671875 C 3.902344 9.644531 3.871094 9.652344 3.839844 9.6875 C 3.835938 9.773438 3.832031 9.859375 3.832031 9.949219 C 3.8125 9.949219 3.789062 9.949219 3.769531 9.949219 Z M 3.769531 9.949219 "/>
<path style=" stroke:none;fill-rule:evenodd;fill:rgb(14.901961%,45.490196%,27.843137%);fill-opacity:1;" d="M 4.40625 9.585938 C 4.449219 9.582031 4.496094 9.585938 4.535156 9.601562 C 4.554688 9.621094 4.558594 9.644531 4.542969 9.671875 C 4.523438 9.660156 4.503906 9.65625 4.480469 9.652344 C 4.40625 9.652344 4.390625 9.675781 4.4375 9.730469 C 4.53125 9.746094 4.570312 9.800781 4.5625 9.898438 C 4.546875 9.917969 4.527344 9.929688 4.503906 9.9375 C 4.449219 9.949219 4.394531 9.949219 4.339844 9.949219 C 4.339844 9.917969 4.339844 9.890625 4.347656 9.859375 C 4.40625 9.910156 4.457031 9.90625 4.503906 9.851562 C 4.464844 9.816406 4.421875 9.785156 4.375 9.765625 C 4.34375 9.734375 4.335938 9.695312 4.347656 9.652344 C 4.371094 9.632812 4.390625 9.609375 4.40625 9.585938 Z M 4.40625 9.585938 "/>
<path style=" stroke:none;fill-rule:evenodd;fill:rgb(13.72549%,43.921569%,26.666667%);fill-opacity:1;" d="M 3.554688 9.585938 C 3.59375 9.582031 3.632812 9.585938 3.671875 9.59375 C 3.703125 9.613281 3.707031 9.636719 3.6875 9.671875 C 3.582031 9.621094 3.519531 9.65625 3.507812 9.773438 C 3.523438 9.898438 3.585938 9.925781 3.6875 9.859375 C 3.707031 9.894531 3.703125 9.917969 3.671875 9.9375 C 3.5 9.96875 3.425781 9.890625 3.449219 9.707031 C 3.476562 9.65625 3.511719 9.617188 3.554688 9.585938 Z M 3.554688 9.585938 "/>
<path style=" stroke:none;fill-rule:evenodd;fill:rgb(12.54902%,44.313725%,26.666667%);fill-opacity:1;" d="M 1.773438 9.929688 C 1.859375 9.929688 1.949219 9.929688 2.035156 9.929688 C 2.035156 9.984375 2.035156 10.035156 2.035156 10.085938 C 1.949219 10.085938 1.859375 10.085938 1.773438 10.085938 C 1.773438 10.035156 1.773438 9.984375 1.773438 9.929688 Z M 1.773438 9.929688 "/>
<path style=" stroke:none;fill-rule:evenodd;fill:rgb(14.901961%,45.490196%,28.235294%);fill-opacity:1;" d="M 1.773438 10.140625 C 1.859375 10.140625 1.949219 10.140625 2.035156 10.140625 C 2.035156 10.191406 2.035156 10.242188 2.035156 10.292969 C 1.949219 10.292969 1.859375 10.292969 1.773438 10.292969 C 1.773438 10.242188 1.773438 10.191406 1.773438 10.140625 Z M 1.773438 10.140625 "/>
<path style=" stroke:none;fill-rule:evenodd;fill:rgb(11.764706%,43.921569%,25.490196%);fill-opacity:1;" d="M 2.738281 10.101562 C 2.816406 10.097656 2.890625 10.105469 2.96875 10.121094 C 2.910156 10.140625 2.847656 10.144531 2.789062 10.140625 C 2.789062 10.195312 2.789062 10.253906 2.789062 10.3125 C 2.839844 10.3125 2.898438 10.3125 2.949219 10.3125 C 2.949219 10.328125 2.949219 10.347656 2.949219 10.363281 C 2.898438 10.363281 2.839844 10.363281 2.789062 10.363281 C 2.789062 10.414062 2.789062 10.46875 2.789062 10.519531 C 2.851562 10.519531 2.917969 10.519531 2.984375 10.519531 C 2.984375 10.535156 2.984375 10.554688 2.984375 10.570312 C 2.902344 10.570312 2.820312 10.570312 2.738281 10.570312 C 2.738281 10.414062 2.738281 10.257812 2.738281 10.101562 Z M 2.738281 10.101562 "/>
<path style=" stroke:none;fill-rule:evenodd;fill:rgb(65.490196%,75.294118%,69.411765%);fill-opacity:1;" d="M 1.496094 10.292969 C 1.496094 10.3125 1.496094 10.328125 1.496094 10.347656 C 1.570312 10.339844 1.640625 10.347656 1.707031 10.363281 C 1.632812 10.363281 1.554688 10.363281 1.480469 10.363281 C 1.476562 10.335938 1.480469 10.3125 1.496094 10.292969 Z M 1.496094 10.292969 "/>
<path style=" stroke:none;fill-rule:evenodd;fill:rgb(69.019608%,77.647059%,72.54902%);fill-opacity:1;" d="M 2.035156 10.363281 C 1.949219 10.363281 1.859375 10.363281 1.773438 10.363281 C 1.773438 10.410156 1.773438 10.457031 1.773438 10.5 C 1.757812 10.453125 1.753906 10.402344 1.757812 10.347656 C 1.851562 10.339844 1.945312 10.347656 2.035156 10.363281 Z M 2.035156 10.363281 "/>
<path style=" stroke:none;fill-rule:evenodd;fill:rgb(18.431373%,47.843137%,30.196078%);fill-opacity:1;" d="M 3.996094 10.070312 C 4.011719 10.070312 4.03125 10.070312 4.046875 10.070312 C 4.046875 10.238281 4.046875 10.402344 4.046875 10.570312 C 4.03125 10.570312 4.011719 10.570312 3.996094 10.570312 C 3.996094 10.402344 3.996094 10.238281 3.996094 10.070312 Z M 3.996094 10.070312 "/>
<path style=" stroke:none;fill-rule:evenodd;fill:rgb(13.333333%,44.705882%,27.058824%);fill-opacity:1;" d="M 2.035156 10.363281 C 2.035156 10.410156 2.035156 10.457031 2.035156 10.5 C 1.949219 10.5 1.859375 10.5 1.773438 10.5 C 1.773438 10.457031 1.773438 10.410156 1.773438 10.363281 C 1.859375 10.363281 1.949219 10.363281 2.035156 10.363281 Z M 2.035156 10.363281 "/>
<path style=" stroke:none;fill-rule:evenodd;fill:rgb(15.294118%,46.666667%,28.235294%);fill-opacity:1;" d="M 3.03125 10.242188 C 3.050781 10.238281 3.066406 10.242188 3.082031 10.25 C 3.105469 10.289062 3.132812 10.324219 3.15625 10.363281 C 3.179688 10.324219 3.203125 10.289062 3.230469 10.25 C 3.246094 10.238281 3.261719 10.238281 3.277344 10.25 C 3.246094 10.304688 3.210938 10.355469 3.179688 10.40625 C 3.214844 10.453125 3.25 10.503906 3.277344 10.554688 C 3.261719 10.574219 3.246094 10.574219 3.230469 10.5625 C 3.203125 10.523438 3.175781 10.484375 3.148438 10.449219 C 3.125 10.484375 3.101562 10.519531 3.082031 10.554688 C 3.0625 10.574219 3.039062 10.574219 3.015625 10.5625 C 3.054688 10.515625 3.089844 10.464844 3.113281 10.40625 C 3.085938 10.355469 3.058594 10.296875 3.03125 10.242188 Z M 3.03125 10.242188 "/>
<path style=" stroke:none;fill-rule:evenodd;fill:rgb(16.470588%,45.490196%,28.235294%);fill-opacity:1;" d="M 3.441406 10.226562 C 3.472656 10.222656 3.507812 10.226562 3.539062 10.234375 C 3.566406 10.246094 3.574219 10.265625 3.5625 10.292969 C 3.429688 10.25 3.371094 10.304688 3.382812 10.449219 C 3.398438 10.480469 3.417969 10.507812 3.441406 10.527344 C 3.488281 10.53125 3.53125 10.535156 3.570312 10.535156 C 3.507812 10.605469 3.4375 10.605469 3.367188 10.535156 C 3.296875 10.40625 3.320312 10.300781 3.441406 10.226562 Z M 3.441406 10.226562 "/>
<path style=" stroke:none;fill-rule:evenodd;fill:rgb(14.901961%,45.098039%,27.45098%);fill-opacity:1;" d="M 3.71875 10.226562 C 3.847656 10.214844 3.910156 10.28125 3.914062 10.414062 C 3.839844 10.414062 3.761719 10.414062 3.6875 10.414062 C 3.679688 10.464844 3.695312 10.5 3.734375 10.527344 C 3.785156 10.53125 3.835938 10.535156 3.882812 10.535156 C 3.792969 10.613281 3.714844 10.605469 3.644531 10.5 C 3.617188 10.390625 3.640625 10.296875 3.71875 10.226562 Z M 3.71875 10.226562 "/>
<path style=" stroke:none;fill-rule:evenodd;fill:rgb(53.72549%,68.627451%,60%);fill-opacity:1;" d="M 3.847656 10.328125 C 3.863281 10.339844 3.871094 10.359375 3.867188 10.382812 C 3.800781 10.386719 3.742188 10.382812 3.6875 10.363281 C 3.75 10.375 3.804688 10.363281 3.847656 10.328125 Z M 3.847656 10.328125 "/>
<path style=" stroke:none;fill-rule:evenodd;fill:rgb(97.647059%,98.431373%,97.647059%);fill-opacity:1;" d="M 3.847656 10.328125 C 3.804688 10.363281 3.75 10.375 3.6875 10.363281 C 3.699219 10.285156 3.742188 10.257812 3.816406 10.285156 C 3.832031 10.296875 3.84375 10.3125 3.847656 10.328125 Z M 3.847656 10.328125 "/>
<path style=" stroke:none;fill-rule:evenodd;fill:rgb(74.509804%,82.745098%,78.039216%);fill-opacity:1;" d="M 2.167969 10.675781 C 1.945312 10.691406 1.722656 10.699219 1.496094 10.691406 C 1.5 10.75 1.496094 10.800781 1.480469 10.847656 C 1.480469 10.789062 1.480469 10.734375 1.480469 10.675781 C 1.707031 10.675781 1.9375 10.675781 2.167969 10.675781 Z M 2.167969 10.675781 "/>
</g>
</svg>
