<?xml version="1.0" encoding="UTF-8"?>
<svg xmlns="http://www.w3.org/2000/svg" xmlns:xlink="http://www.w3.org/1999/xlink" width="20px" height="59px" viewBox="0 0 20 7" version="1.1">
<g id="surface1">
<path style=" stroke:none;fill-rule:evenodd;fill:rgb(99.607843%,99.607843%,99.607843%);fill-opacity:1;" d="M -0.0273438 -0.0273438 C 6.640625 -0.0273438 13.304688 -0.0273438 19.972656 -0.0273438 C 19.972656 2.308594 19.972656 4.640625 19.972656 6.972656 C 13.304688 6.972656 6.640625 6.972656 -0.0273438 6.972656 C -0.0273438 4.640625 -0.0273438 2.308594 -0.0273438 -0.0273438 Z M -0.0273438 -0.0273438 "/>
<path style=" stroke:none;fill-rule:evenodd;fill:rgb(12.941176%,43.529412%,26.27451%);fill-opacity:1;" d="M 4.824219 1.097656 C 4.925781 1.226562 4.960938 1.378906 4.933594 1.558594 C 5.675781 1.558594 6.421875 1.558594 7.167969 1.558594 C 7.25 1.558594 7.3125 1.59375 7.355469 1.660156 C 7.394531 2.902344 7.394531 4.148438 7.355469 5.390625 C 7.320312 5.433594 7.273438 5.46875 7.222656 5.492188 C 6.457031 5.492188 5.695312 5.492188 4.933594 5.492188 C 4.933594 5.664062 4.933594 5.832031 4.933594 6.003906 C 4.039062 5.867188 3.148438 5.714844 2.261719 5.542969 C 2.613281 5.242188 2.828125 4.867188 2.914062 4.417969 C 2.828125 4.433594 2.753906 4.417969 2.699219 4.367188 C 2.804688 4.378906 2.90625 4.363281 2.996094 4.316406 C 3.0625 4.140625 3.144531 3.96875 3.242188 3.804688 C 3.347656 3.988281 3.4375 4.175781 3.515625 4.367188 C 3.65625 4.425781 3.800781 4.4375 3.949219 4.394531 C 3.777344 4.117188 3.628906 3.828125 3.515625 3.527344 C 3.628906 3.222656 3.777344 2.933594 3.949219 2.65625 C 3.824219 2.621094 3.695312 2.621094 3.570312 2.65625 C 3.449219 2.84375 3.347656 3.039062 3.269531 3.246094 C 3.195312 3.074219 3.125 2.902344 3.050781 2.734375 C 2.941406 2.6875 2.824219 2.667969 2.699219 2.683594 C 2.757812 2.640625 2.832031 2.617188 2.914062 2.605469 C 2.796875 2.199219 2.597656 1.832031 2.316406 1.507812 C 3.148438 1.363281 3.984375 1.226562 4.824219 1.097656 Z M 4.824219 1.097656 "/>
<path style=" stroke:none;fill-rule:evenodd;fill:rgb(80%,86.27451%,82.745098%);fill-opacity:1;" d="M 4.824219 1.097656 C 4.863281 1.050781 4.917969 1.035156 4.988281 1.046875 C 4.988281 1.199219 4.988281 1.355469 4.988281 1.507812 C 5.722656 1.492188 6.449219 1.507812 7.167969 1.558594 C 6.421875 1.558594 5.675781 1.558594 4.933594 1.558594 C 4.960938 1.378906 4.925781 1.226562 4.824219 1.097656 Z M 4.824219 1.097656 "/>
<path style=" stroke:none;fill-rule:evenodd;fill:rgb(97.254902%,98.039216%,97.647059%);fill-opacity:1;" d="M 5.695312 4.574219 C 5.46875 4.523438 5.234375 4.503906 4.988281 4.523438 C 4.988281 4.472656 4.988281 4.417969 4.988281 4.367188 C 5.222656 4.367188 5.457031 4.367188 5.695312 4.367188 C 5.695312 4.214844 5.695312 4.0625 5.695312 3.910156 C 5.441406 3.910156 5.1875 3.910156 4.933594 3.910156 C 4.933594 3.859375 4.933594 3.804688 4.933594 3.753906 C 5.1875 3.753906 5.441406 3.753906 5.695312 3.753906 C 5.695312 3.601562 5.695312 3.449219 5.695312 3.296875 C 5.457031 3.296875 5.222656 3.296875 4.988281 3.296875 C 4.988281 3.246094 4.988281 3.195312 4.988281 3.140625 C 5.222656 3.140625 5.457031 3.140625 5.695312 3.140625 C 5.695312 2.988281 5.695312 2.835938 5.695312 2.683594 C 5.457031 2.683594 5.222656 2.683594 4.988281 2.683594 C 4.988281 2.632812 4.988281 2.582031 4.988281 2.527344 C 5.234375 2.546875 5.46875 2.527344 5.695312 2.476562 C 5.695312 2.34375 5.695312 2.207031 5.695312 2.070312 C 5.441406 2.070312 5.1875 2.070312 4.933594 2.070312 C 4.933594 1.949219 4.933594 1.832031 4.933594 1.710938 C 5.675781 1.710938 6.421875 1.710938 7.167969 1.710938 C 7.167969 2.921875 7.167969 4.128906 7.167969 5.339844 C 6.421875 5.339844 5.675781 5.339844 4.933594 5.339844 C 4.933594 5.21875 4.933594 5.101562 4.933594 4.980469 C 5.1875 4.980469 5.441406 4.980469 5.695312 4.980469 C 5.695312 4.84375 5.695312 4.710938 5.695312 4.574219 Z M 5.695312 4.574219 "/>
<path style=" stroke:none;fill-rule:evenodd;fill:rgb(15.294118%,43.529412%,26.27451%);fill-opacity:1;" d="M 10.980469 1.863281 C 11.070312 1.863281 11.164062 1.863281 11.253906 1.863281 C 11.261719 2.050781 11.179688 2.101562 11.007812 2.019531 C 10.980469 1.96875 10.972656 1.917969 10.980469 1.863281 Z M 10.980469 1.863281 "/>
<path style=" stroke:none;fill-rule:evenodd;fill:rgb(12.54902%,47.058824%,27.843137%);fill-opacity:1;" d="M 2.316406 1.507812 C 2.597656 1.832031 2.796875 2.199219 2.914062 2.605469 C 2.832031 2.617188 2.757812 2.640625 2.699219 2.683594 C 2.640625 2.722656 2.628906 2.773438 2.671875 2.835938 C 2.796875 3.0625 2.914062 3.292969 3.023438 3.527344 C 2.902344 3.800781 2.753906 4.066406 2.589844 4.316406 C 2.613281 4.359375 2.648438 4.375 2.699219 4.367188 C 2.753906 4.417969 2.828125 4.433594 2.914062 4.417969 C 2.828125 4.867188 2.613281 5.242188 2.261719 5.542969 C 2.097656 5.519531 1.9375 5.503906 1.769531 5.492188 C 1.769531 4.179688 1.769531 2.871094 1.769531 1.558594 C 1.957031 1.558594 2.136719 1.542969 2.316406 1.507812 Z M 2.316406 1.507812 "/>
<path style=" stroke:none;fill-rule:evenodd;fill:rgb(61.176471%,73.333333%,66.27451%);fill-opacity:1;" d="M 10.4375 1.917969 C 10.511719 1.867188 10.605469 1.851562 10.707031 1.863281 C 10.726562 2.367188 10.707031 2.863281 10.652344 3.347656 C 10.652344 2.871094 10.652344 2.394531 10.652344 1.917969 C 10.582031 1.917969 10.507812 1.917969 10.4375 1.917969 Z M 10.4375 1.917969 "/>
<path style=" stroke:none;fill-rule:evenodd;fill:rgb(10.196078%,43.529412%,25.490196%);fill-opacity:1;" d="M 5.914062 2.070312 C 6.203125 2.070312 6.492188 2.070312 6.785156 2.070312 C 6.785156 2.207031 6.785156 2.34375 6.785156 2.476562 C 6.492188 2.476562 6.203125 2.476562 5.914062 2.476562 C 5.914062 2.34375 5.914062 2.207031 5.914062 2.070312 Z M 5.914062 2.070312 "/>
<path style=" stroke:none;fill-rule:evenodd;fill:rgb(10.980392%,44.705882%,25.882353%);fill-opacity:1;" d="M 16.976562 2.273438 C 17.035156 2.320312 17.105469 2.339844 17.195312 2.324219 C 17.195312 2.375 17.195312 2.425781 17.195312 2.476562 C 17.121094 2.476562 17.046875 2.476562 16.976562 2.476562 C 16.976562 2.769531 16.976562 3.058594 16.976562 3.347656 C 16.902344 3.347656 16.832031 3.347656 16.757812 3.347656 C 16.757812 3.058594 16.757812 2.769531 16.757812 2.476562 C 16.703125 2.476562 16.648438 2.476562 16.59375 2.476562 C 16.59375 2.425781 16.59375 2.375 16.59375 2.324219 C 16.648438 2.324219 16.703125 2.324219 16.757812 2.324219 C 16.695312 1.957031 16.859375 1.789062 17.246094 1.8125 C 17.246094 1.863281 17.246094 1.917969 17.246094 1.96875 C 17.007812 1.945312 16.917969 2.046875 16.976562 2.273438 Z M 16.976562 2.273438 "/>
<path style=" stroke:none;fill-rule:evenodd;fill:rgb(60%,73.333333%,65.098039%);fill-opacity:1;" d="M 11.199219 3.347656 C 11.199219 3.007812 11.199219 2.664062 11.199219 2.324219 C 11.144531 2.324219 11.089844 2.324219 11.035156 2.324219 C 11.035156 2.664062 11.035156 3.007812 11.035156 3.347656 C 10.980469 3 10.964844 2.640625 10.980469 2.273438 C 11.070312 2.273438 11.164062 2.273438 11.253906 2.273438 C 11.269531 2.640625 11.253906 3 11.199219 3.347656 Z M 11.199219 3.347656 "/>
<path style=" stroke:none;fill-rule:evenodd;fill:rgb(66.27451%,77.254902%,70.588235%);fill-opacity:1;" d="M 12.777344 2.375 C 12.78125 2.398438 12.773438 2.414062 12.753906 2.425781 C 12.714844 2.351562 12.648438 2.316406 12.5625 2.324219 C 12.5625 2.664062 12.5625 3.007812 12.5625 3.347656 C 12.507812 3 12.488281 2.640625 12.507812 2.273438 C 12.632812 2.253906 12.722656 2.285156 12.777344 2.375 Z M 12.777344 2.375 "/>
<path style=" stroke:none;fill-rule:evenodd;fill:rgb(61.176471%,72.941176%,65.882353%);fill-opacity:1;" d="M 16.976562 2.273438 C 17.140625 2.273438 17.300781 2.273438 17.464844 2.273438 C 17.425781 2.320312 17.371094 2.335938 17.300781 2.324219 C 17.300781 2.375 17.300781 2.425781 17.300781 2.476562 C 17.265625 2.476562 17.230469 2.476562 17.195312 2.476562 C 17.195312 2.425781 17.195312 2.375 17.195312 2.324219 C 17.105469 2.339844 17.035156 2.320312 16.976562 2.273438 Z M 16.976562 2.273438 "/>
<path style=" stroke:none;fill-rule:evenodd;fill:rgb(9.019608%,44.705882%,25.490196%);fill-opacity:1;" d="M 11.199219 3.347656 C 11.144531 3.347656 11.089844 3.347656 11.035156 3.347656 C 11.035156 3.007812 11.035156 2.664062 11.035156 2.324219 C 11.089844 2.324219 11.144531 2.324219 11.199219 2.324219 C 11.199219 2.664062 11.199219 3.007812 11.199219 3.347656 Z M 11.199219 3.347656 "/>
<path style=" stroke:none;fill-rule:evenodd;fill:rgb(14.901961%,44.705882%,27.45098%);fill-opacity:1;" d="M 13.542969 2.273438 C 14.191406 2.265625 14.421875 2.558594 14.222656 3.140625 C 14.019531 3.335938 13.773438 3.394531 13.488281 3.320312 C 13.371094 3.277344 13.289062 3.203125 13.242188 3.089844 C 13.132812 2.742188 13.234375 2.46875 13.542969 2.273438 Z M 13.542969 2.273438 "/>
<path style=" stroke:none;fill-rule:evenodd;fill:rgb(14.509804%,44.313725%,27.058824%);fill-opacity:1;" d="M 15.722656 2.273438 C 16.398438 2.25 16.625 2.539062 16.402344 3.140625 C 16.199219 3.335938 15.953125 3.394531 15.667969 3.320312 C 15.542969 3.265625 15.460938 3.171875 15.421875 3.039062 C 15.316406 2.707031 15.417969 2.449219 15.722656 2.273438 Z M 15.722656 2.273438 "/>
<path style=" stroke:none;fill-rule:evenodd;fill:rgb(14.117647%,45.882353%,27.843137%);fill-opacity:1;" d="M 17.300781 2.476562 C 17.300781 2.425781 17.300781 2.375 17.300781 2.324219 C 17.371094 2.335938 17.425781 2.320312 17.464844 2.273438 C 17.464844 2.1875 17.464844 2.101562 17.464844 2.019531 C 17.539062 2.019531 17.609375 2.019531 17.683594 2.019531 C 17.683594 2.121094 17.683594 2.222656 17.683594 2.324219 C 17.773438 2.324219 17.867188 2.324219 17.957031 2.324219 C 17.957031 2.375 17.957031 2.425781 17.957031 2.476562 C 17.867188 2.476562 17.773438 2.476562 17.683594 2.476562 C 17.675781 2.699219 17.683594 2.921875 17.710938 3.140625 C 17.785156 3.210938 17.855469 3.210938 17.929688 3.140625 C 17.957031 3.207031 17.964844 3.277344 17.957031 3.347656 C 17.78125 3.371094 17.628906 3.335938 17.492188 3.246094 C 17.464844 2.988281 17.457031 2.734375 17.464844 2.476562 C 17.410156 2.476562 17.355469 2.476562 17.300781 2.476562 Z M 17.300781 2.476562 "/>
<path style=" stroke:none;fill-rule:evenodd;fill:rgb(56.470588%,70.588235%,62.352941%);fill-opacity:1;" d="M 5.695312 2.476562 C 5.46875 2.527344 5.234375 2.546875 4.988281 2.527344 C 4.988281 2.582031 4.988281 2.632812 4.988281 2.683594 C 4.933594 2.628906 4.917969 2.558594 4.933594 2.476562 C 5.1875 2.476562 5.441406 2.476562 5.695312 2.476562 Z M 5.695312 2.476562 "/>
<path style=" stroke:none;fill-rule:evenodd;fill:rgb(61.176471%,74.117647%,66.666667%);fill-opacity:1;" d="M 5.914062 2.070312 C 5.914062 2.207031 5.914062 2.34375 5.914062 2.476562 C 6.203125 2.476562 6.492188 2.476562 6.785156 2.476562 C 6.488281 2.527344 6.175781 2.546875 5.859375 2.527344 C 5.839844 2.363281 5.859375 2.210938 5.914062 2.070312 Z M 5.914062 2.070312 "/>
<path style=" stroke:none;fill-rule:evenodd;fill:rgb(96.862745%,98.039216%,97.254902%);fill-opacity:1;" d="M 13.542969 2.476562 C 14.109375 2.484375 14.238281 2.714844 13.921875 3.167969 C 13.496094 3.210938 13.34375 3.03125 13.460938 2.632812 C 13.488281 2.578125 13.515625 2.527344 13.542969 2.476562 Z M 13.542969 2.476562 "/>
<path style=" stroke:none;fill-rule:evenodd;fill:rgb(96.862745%,98.039216%,97.254902%);fill-opacity:1;" d="M 15.722656 2.476562 C 15.882812 2.464844 16.039062 2.480469 16.183594 2.527344 C 16.3125 2.761719 16.285156 2.972656 16.105469 3.167969 C 15.675781 3.210938 15.523438 3.03125 15.640625 2.632812 C 15.667969 2.578125 15.695312 2.527344 15.722656 2.476562 Z M 15.722656 2.476562 "/>
<path style=" stroke:none;fill-rule:evenodd;fill:rgb(14.117647%,45.098039%,27.45098%);fill-opacity:1;" d="M 10.4375 1.917969 C 10.507812 1.917969 10.582031 1.917969 10.652344 1.917969 C 10.652344 2.394531 10.652344 2.871094 10.652344 3.347656 C 10.597656 3.347656 10.546875 3.347656 10.492188 3.347656 C 10.5 2.988281 10.492188 2.632812 10.464844 2.273438 C 10.40625 2.3125 10.378906 2.363281 10.382812 2.425781 C 10.246094 2.75 10.082031 3.054688 9.890625 3.347656 C 9.6875 3.015625 9.496094 2.675781 9.320312 2.324219 C 9.292969 2.664062 9.28125 3.003906 9.292969 3.347656 C 9.21875 3.347656 9.144531 3.347656 9.074219 3.347656 C 9.074219 2.871094 9.074219 2.394531 9.074219 1.917969 C 9.1875 1.902344 9.296875 1.917969 9.402344 1.96875 C 9.550781 2.296875 9.714844 2.621094 9.890625 2.9375 C 10.074219 2.59375 10.257812 2.253906 10.4375 1.917969 Z M 10.4375 1.917969 "/>
<path style=" stroke:none;fill-rule:evenodd;fill:rgb(56.470588%,70.588235%,62.352941%);fill-opacity:1;" d="M 10.492188 3.347656 C 10.453125 3.039062 10.417969 2.734375 10.382812 2.425781 C 10.378906 2.363281 10.40625 2.3125 10.464844 2.273438 C 10.492188 2.632812 10.5 2.988281 10.492188 3.347656 Z M 10.492188 3.347656 "/>
<path style=" stroke:none;fill-rule:evenodd;fill:rgb(94.901961%,96.470588%,95.294118%);fill-opacity:1;" d="M 2.699219 4.367188 C 2.648438 4.375 2.613281 4.359375 2.589844 4.316406 C 2.753906 4.066406 2.902344 3.800781 3.023438 3.527344 C 2.914062 3.292969 2.796875 3.0625 2.671875 2.835938 C 2.628906 2.773438 2.640625 2.722656 2.699219 2.683594 C 2.824219 2.667969 2.941406 2.6875 3.050781 2.734375 C 3.125 2.902344 3.195312 3.074219 3.269531 3.246094 C 3.347656 3.039062 3.449219 2.84375 3.570312 2.65625 C 3.695312 2.621094 3.824219 2.621094 3.949219 2.65625 C 3.777344 2.933594 3.628906 3.222656 3.515625 3.527344 C 3.628906 3.828125 3.777344 4.117188 3.949219 4.394531 C 3.800781 4.4375 3.65625 4.425781 3.515625 4.367188 C 3.4375 4.175781 3.347656 3.988281 3.242188 3.804688 C 3.144531 3.96875 3.0625 4.140625 2.996094 4.316406 C 2.90625 4.363281 2.804688 4.378906 2.699219 4.367188 Z M 2.699219 4.367188 "/>
<path style=" stroke:none;fill-rule:evenodd;fill:rgb(14.509804%,45.098039%,27.45098%);fill-opacity:1;" d="M 5.914062 2.683594 C 6.203125 2.683594 6.492188 2.683594 6.785156 2.683594 C 6.785156 2.835938 6.785156 2.988281 6.785156 3.140625 C 6.492188 3.140625 6.203125 3.140625 5.914062 3.140625 C 5.914062 2.988281 5.914062 2.835938 5.914062 2.683594 Z M 5.914062 2.683594 "/>
<path style=" stroke:none;fill-rule:evenodd;fill:rgb(14.117647%,45.098039%,27.058824%);fill-opacity:1;" d="M 12.5625 3.347656 C 12.5625 3.007812 12.5625 2.664062 12.5625 2.324219 C 12.648438 2.316406 12.714844 2.351562 12.753906 2.425781 C 12.773438 2.414062 12.78125 2.398438 12.777344 2.375 C 12.886719 2.289062 13.015625 2.257812 13.160156 2.273438 C 13.167969 2.359375 13.160156 2.445312 13.132812 2.527344 C 13.011719 2.457031 12.902344 2.472656 12.804688 2.582031 C 12.78125 2.835938 12.769531 3.089844 12.777344 3.347656 C 12.707031 3.347656 12.632812 3.347656 12.5625 3.347656 Z M 12.5625 3.347656 "/>
<path style=" stroke:none;fill-rule:evenodd;fill:rgb(14.901961%,45.490196%,27.843137%);fill-opacity:1;" d="M 14.6875 2.273438 C 14.835938 2.261719 14.980469 2.277344 15.121094 2.324219 C 15.183594 2.386719 15.191406 2.457031 15.148438 2.527344 C 15.082031 2.5 15.011719 2.480469 14.933594 2.476562 C 14.6875 2.46875 14.640625 2.546875 14.796875 2.707031 C 15.101562 2.753906 15.238281 2.917969 15.203125 3.195312 C 15.15625 3.253906 15.089844 3.296875 15.011719 3.320312 C 14.832031 3.347656 14.652344 3.355469 14.46875 3.347656 C 14.460938 3.261719 14.46875 3.175781 14.496094 3.089844 C 14.691406 3.234375 14.863281 3.222656 15.011719 3.066406 C 14.886719 2.957031 14.742188 2.871094 14.578125 2.808594 C 14.484375 2.710938 14.457031 2.601562 14.496094 2.476562 C 14.570312 2.417969 14.632812 2.347656 14.6875 2.273438 Z M 14.6875 2.273438 "/>
<path style=" stroke:none;fill-rule:evenodd;fill:rgb(13.72549%,43.921569%,26.666667%);fill-opacity:1;" d="M 11.851562 2.273438 C 11.980469 2.265625 12.109375 2.273438 12.234375 2.300781 C 12.34375 2.359375 12.359375 2.433594 12.289062 2.527344 C 11.9375 2.386719 11.738281 2.488281 11.6875 2.835938 C 11.75 3.199219 11.953125 3.285156 12.289062 3.089844 C 12.359375 3.1875 12.34375 3.261719 12.234375 3.320312 C 11.664062 3.402344 11.417969 3.171875 11.5 2.632812 C 11.589844 2.484375 11.710938 2.367188 11.851562 2.273438 Z M 11.851562 2.273438 "/>
<path style=" stroke:none;fill-rule:evenodd;fill:rgb(12.54902%,44.313725%,26.666667%);fill-opacity:1;" d="M 5.914062 3.296875 C 6.203125 3.296875 6.492188 3.296875 6.785156 3.296875 C 6.785156 3.449219 6.785156 3.601562 6.785156 3.753906 C 6.492188 3.753906 6.203125 3.753906 5.914062 3.753906 C 5.914062 3.601562 5.914062 3.449219 5.914062 3.296875 Z M 5.914062 3.296875 "/>
<path style=" stroke:none;fill-rule:evenodd;fill:rgb(14.901961%,45.490196%,28.235294%);fill-opacity:1;" d="M 5.914062 3.910156 C 6.203125 3.910156 6.492188 3.910156 6.785156 3.910156 C 6.785156 4.0625 6.785156 4.214844 6.785156 4.367188 C 6.492188 4.367188 6.203125 4.367188 5.914062 4.367188 C 5.914062 4.214844 5.914062 4.0625 5.914062 3.910156 Z M 5.914062 3.910156 "/>
<path style=" stroke:none;fill-rule:evenodd;fill:rgb(11.764706%,43.921569%,25.490196%);fill-opacity:1;" d="M 9.128906 3.804688 C 9.386719 3.789062 9.640625 3.808594 9.890625 3.859375 C 9.695312 3.910156 9.496094 3.925781 9.292969 3.910156 C 9.292969 4.078125 9.292969 4.25 9.292969 4.417969 C 9.472656 4.417969 9.65625 4.417969 9.835938 4.417969 C 9.835938 4.472656 9.835938 4.523438 9.835938 4.574219 C 9.65625 4.574219 9.472656 4.574219 9.292969 4.574219 C 9.292969 4.726562 9.292969 4.878906 9.292969 5.03125 C 9.507812 5.03125 9.726562 5.03125 9.945312 5.03125 C 9.945312 5.082031 9.945312 5.136719 9.945312 5.1875 C 9.671875 5.1875 9.402344 5.1875 9.128906 5.1875 C 9.128906 4.726562 9.128906 4.265625 9.128906 3.804688 Z M 9.128906 3.804688 "/>
<path style=" stroke:none;fill-rule:evenodd;fill:rgb(65.490196%,75.294118%,69.411765%);fill-opacity:1;" d="M 4.988281 4.367188 C 4.988281 4.417969 4.988281 4.472656 4.988281 4.523438 C 5.234375 4.503906 5.46875 4.523438 5.695312 4.574219 C 5.441406 4.574219 5.1875 4.574219 4.933594 4.574219 C 4.917969 4.492188 4.933594 4.421875 4.988281 4.367188 Z M 4.988281 4.367188 "/>
<path style=" stroke:none;fill-rule:evenodd;fill:rgb(69.019608%,77.647059%,72.54902%);fill-opacity:1;" d="M 6.785156 4.574219 C 6.492188 4.574219 6.203125 4.574219 5.914062 4.574219 C 5.914062 4.710938 5.914062 4.84375 5.914062 4.980469 C 5.859375 4.839844 5.839844 4.6875 5.859375 4.523438 C 6.175781 4.503906 6.488281 4.523438 6.785156 4.574219 Z M 6.785156 4.574219 "/>
<path style=" stroke:none;fill-rule:evenodd;fill:rgb(18.431373%,47.843137%,30.196078%);fill-opacity:1;" d="M 13.324219 3.703125 C 13.378906 3.703125 13.433594 3.703125 13.488281 3.703125 C 13.488281 4.199219 13.488281 4.691406 13.488281 5.1875 C 13.433594 5.1875 13.378906 5.1875 13.324219 5.1875 C 13.324219 4.691406 13.324219 4.199219 13.324219 3.703125 Z M 13.324219 3.703125 "/>
<path style=" stroke:none;fill-rule:evenodd;fill:rgb(13.333333%,44.705882%,27.058824%);fill-opacity:1;" d="M 6.785156 4.574219 C 6.785156 4.710938 6.785156 4.84375 6.785156 4.980469 C 6.492188 4.980469 6.203125 4.980469 5.914062 4.980469 C 5.914062 4.84375 5.914062 4.710938 5.914062 4.574219 C 6.203125 4.574219 6.492188 4.574219 6.785156 4.574219 Z M 6.785156 4.574219 "/>
<path style=" stroke:none;fill-rule:evenodd;fill:rgb(15.294118%,46.666667%,28.235294%);fill-opacity:1;" d="M 10.109375 4.214844 C 10.167969 4.207031 10.222656 4.214844 10.273438 4.242188 C 10.355469 4.351562 10.4375 4.460938 10.519531 4.574219 C 10.597656 4.460938 10.679688 4.351562 10.761719 4.242188 C 10.816406 4.207031 10.871094 4.207031 10.925781 4.242188 C 10.816406 4.394531 10.707031 4.546875 10.597656 4.699219 C 10.71875 4.839844 10.828125 4.984375 10.925781 5.136719 C 10.878906 5.191406 10.824219 5.199219 10.761719 5.160156 C 10.679688 5.042969 10.589844 4.929688 10.492188 4.828125 C 10.417969 4.929688 10.34375 5.03125 10.273438 5.136719 C 10.207031 5.191406 10.132812 5.199219 10.054688 5.160156 C 10.1875 5.019531 10.292969 4.867188 10.382812 4.699219 C 10.28125 4.542969 10.191406 4.378906 10.109375 4.214844 Z M 10.109375 4.214844 "/>
<path style=" stroke:none;fill-rule:evenodd;fill:rgb(16.470588%,45.490196%,28.235294%);fill-opacity:1;" d="M 11.472656 4.164062 C 11.582031 4.15625 11.691406 4.164062 11.796875 4.191406 C 11.890625 4.226562 11.914062 4.285156 11.878906 4.367188 C 11.433594 4.242188 11.234375 4.394531 11.28125 4.828125 C 11.324219 4.917969 11.386719 4.996094 11.472656 5.058594 C 11.625 5.070312 11.769531 5.078125 11.90625 5.082031 C 11.6875 5.285156 11.460938 5.285156 11.226562 5.082031 C 10.988281 4.699219 11.070312 4.390625 11.472656 4.164062 Z M 11.472656 4.164062 "/>
<path style=" stroke:none;fill-rule:evenodd;fill:rgb(14.901961%,45.098039%,27.45098%);fill-opacity:1;" d="M 12.398438 4.164062 C 12.824219 4.136719 13.039062 4.324219 13.050781 4.726562 C 12.796875 4.726562 12.542969 4.726562 12.289062 4.726562 C 12.265625 4.871094 12.320312 4.980469 12.453125 5.058594 C 12.621094 5.066406 12.785156 5.074219 12.941406 5.082031 C 12.644531 5.3125 12.378906 5.28125 12.152344 4.980469 C 12.054688 4.652344 12.136719 4.378906 12.398438 4.164062 Z M 12.398438 4.164062 "/>
<path style=" stroke:none;fill-rule:evenodd;fill:rgb(53.72549%,68.627451%,60%);fill-opacity:1;" d="M 12.832031 4.472656 C 12.882812 4.507812 12.902344 4.558594 12.886719 4.625 C 12.675781 4.640625 12.476562 4.625 12.289062 4.574219 C 12.496094 4.601562 12.679688 4.566406 12.832031 4.472656 Z M 12.832031 4.472656 "/>
<path style=" stroke:none;fill-rule:evenodd;fill:rgb(97.647059%,98.431373%,97.647059%);fill-opacity:1;" d="M 12.832031 4.472656 C 12.679688 4.566406 12.496094 4.601562 12.289062 4.574219 C 12.328125 4.335938 12.472656 4.257812 12.726562 4.34375 C 12.773438 4.378906 12.808594 4.421875 12.832031 4.472656 Z M 12.832031 4.472656 "/>
<path style=" stroke:none;fill-rule:evenodd;fill:rgb(74.509804%,82.745098%,78.039216%);fill-opacity:1;" d="M 7.222656 5.492188 C 6.484375 5.542969 5.742188 5.5625 4.988281 5.542969 C 5.003906 5.707031 4.984375 5.859375 4.933594 6.003906 C 4.933594 5.832031 4.933594 5.664062 4.933594 5.492188 C 5.695312 5.492188 6.457031 5.492188 7.222656 5.492188 Z M 7.222656 5.492188 "/>
</g>
</svg>
