<?xml version="1.0" encoding="UTF-8"?>
<svg xmlns="http://www.w3.org/2000/svg" xmlns:xlink="http://www.w3.org/1999/xlink" width="59px" height="20px" viewBox="0 0 6 20" version="1.1">
<g id="surface1">
<path style=" stroke:none;fill-rule:evenodd;fill:rgb(99.215686%,99.215686%,99.215686%);fill-opacity:1;" d="M -0.0078125 8.292969 C 1.992188 8.292969 3.988281 8.292969 5.992188 8.292969 C 5.992188 9.425781 5.992188 10.554688 5.992188 11.683594 C 3.988281 11.683594 1.992188 11.683594 -0.0078125 11.683594 C -0.0078125 10.554688 -0.0078125 9.425781 -0.0078125 8.292969 Z M -0.0078125 8.292969 "/>
<path style=" stroke:none;fill-rule:evenodd;fill:rgb(34.901961%,34.901961%,34.901961%);fill-opacity:1;" d="M 0.652344 8.871094 C 0.605469 8.859375 0.578125 8.882812 0.574219 8.933594 C 0.550781 8.910156 0.550781 8.886719 0.574219 8.859375 C 0.605469 8.84375 0.628906 8.847656 0.652344 8.871094 Z M 0.652344 8.871094 "/>
<path style=" stroke:none;fill-rule:evenodd;fill:rgb(89.411765%,89.411765%,89.411765%);fill-opacity:1;" d="M 0.652344 8.871094 C 0.636719 8.90625 0.613281 8.925781 0.574219 8.933594 C 0.578125 8.882812 0.605469 8.859375 0.652344 8.871094 Z M 0.652344 8.871094 "/>
<path style=" stroke:none;fill-rule:evenodd;fill:rgb(10.588235%,10.588235%,10.588235%);fill-opacity:1;" d="M 1.199219 9.296875 C 1.246094 9.304688 1.292969 9.328125 1.332031 9.359375 C 1.332031 9.382812 1.332031 9.402344 1.332031 9.425781 C 1.273438 9.414062 1.21875 9.40625 1.160156 9.402344 C 1.1875 9.375 1.199219 9.339844 1.199219 9.296875 Z M 1.199219 9.296875 "/>
<path style=" stroke:none;fill-rule:evenodd;fill:rgb(5.490196%,5.490196%,5.490196%);fill-opacity:1;" d="M 3.085938 9.316406 C 3.105469 9.316406 3.121094 9.316406 3.140625 9.316406 C 3.136719 9.722656 3.140625 10.128906 3.152344 10.535156 C 3.195312 10.566406 3.242188 10.597656 3.292969 10.617188 C 3.171875 10.644531 3.054688 10.644531 2.933594 10.617188 C 2.957031 10.601562 2.980469 10.578125 3 10.554688 C 3.011719 10.214844 3.011719 9.871094 3 9.53125 C 2.96875 9.503906 2.941406 9.476562 2.914062 9.445312 C 2.976562 9.40625 3.03125 9.367188 3.085938 9.316406 Z M 3.085938 9.316406 "/>
<path style=" stroke:none;fill-rule:evenodd;fill:rgb(3.137255%,3.137255%,3.137255%);fill-opacity:1;" d="M 4.972656 9.316406 C 4.992188 9.316406 5.011719 9.316406 5.027344 9.316406 C 5.027344 9.625 5.027344 9.929688 5.027344 10.234375 C 5.117188 10.199219 5.195312 10.140625 5.265625 10.0625 C 5.277344 10.042969 5.277344 10.019531 5.265625 10 C 5.234375 9.988281 5.207031 9.972656 5.179688 9.957031 C 5.304688 9.9375 5.429688 9.929688 5.558594 9.9375 C 5.558594 9.957031 5.558594 9.980469 5.558594 10 C 5.421875 10.003906 5.316406 10.066406 5.234375 10.191406 C 5.292969 10.332031 5.375 10.449219 5.480469 10.542969 C 5.523438 10.570312 5.566406 10.578125 5.613281 10.574219 C 5.613281 10.597656 5.613281 10.617188 5.613281 10.640625 C 5.539062 10.632812 5.46875 10.640625 5.394531 10.660156 C 5.296875 10.546875 5.203125 10.425781 5.121094 10.296875 C 5.097656 10.308594 5.078125 10.324219 5.058594 10.339844 C 5.042969 10.410156 5.042969 10.484375 5.058594 10.554688 C 5.09375 10.578125 5.136719 10.601562 5.179688 10.617188 C 5.058594 10.644531 4.941406 10.644531 4.820312 10.617188 C 4.851562 10.59375 4.878906 10.5625 4.90625 10.535156 C 4.917969 10.207031 4.917969 9.878906 4.90625 9.550781 C 4.871094 9.515625 4.835938 9.476562 4.800781 9.445312 C 4.863281 9.40625 4.917969 9.367188 4.972656 9.316406 Z M 4.972656 9.316406 "/>
<path style=" stroke:none;fill-rule:evenodd;fill:rgb(87.45098%,87.45098%,87.45098%);fill-opacity:1;" d="M 1.121094 9.253906 C 1.152344 9.257812 1.179688 9.273438 1.199219 9.296875 C 1.199219 9.339844 1.1875 9.375 1.160156 9.402344 C 1.039062 9.449219 0.914062 9.472656 0.78125 9.476562 C 0.722656 9.539062 0.652344 9.554688 0.574219 9.53125 C 0.507812 9.597656 0.457031 9.582031 0.433594 9.488281 C 0.414062 9.527344 0.398438 9.570312 0.394531 9.617188 C 0.347656 9.523438 0.367188 9.464844 0.460938 9.445312 C 0.5 9.488281 0.542969 9.507812 0.59375 9.5 C 0.578125 9.476562 0.566406 9.449219 0.558594 9.425781 C 0.652344 9.390625 0.746094 9.355469 0.839844 9.316406 C 0.828125 9.292969 0.8125 9.273438 0.792969 9.253906 C 0.773438 9.273438 0.75 9.277344 0.726562 9.277344 C 0.738281 9.261719 0.75 9.246094 0.765625 9.230469 C 0.796875 9.230469 0.828125 9.222656 0.859375 9.210938 C 0.914062 9.234375 0.917969 9.265625 0.878906 9.296875 C 0.882812 9.304688 0.890625 9.308594 0.894531 9.316406 C 0.925781 9.300781 0.957031 9.292969 0.988281 9.296875 C 0.988281 9.320312 0.992188 9.34375 1.007812 9.359375 C 1.015625 9.335938 1.023438 9.308594 1.027344 9.285156 C 1.0625 9.28125 1.097656 9.269531 1.121094 9.253906 Z M 1.121094 9.253906 "/>
<path style=" stroke:none;fill-rule:evenodd;fill:rgb(52.941176%,52.941176%,52.941176%);fill-opacity:1;" d="M 1.332031 9.359375 C 1.394531 9.375 1.402344 9.402344 1.347656 9.445312 C 1.335938 9.441406 1.332031 9.4375 1.332031 9.425781 C 1.332031 9.402344 1.332031 9.382812 1.332031 9.359375 Z M 1.332031 9.359375 "/>
<path style=" stroke:none;fill-rule:evenodd;fill:rgb(3.921569%,3.921569%,3.921569%);fill-opacity:1;" d="M 2.011719 9.425781 C 2.253906 9.425781 2.5 9.425781 2.746094 9.425781 C 2.746094 9.503906 2.746094 9.582031 2.746094 9.660156 C 2.722656 9.664062 2.703125 9.65625 2.6875 9.636719 C 2.675781 9.589844 2.648438 9.550781 2.613281 9.519531 C 2.5 9.511719 2.386719 9.507812 2.273438 9.511719 C 2.273438 9.667969 2.273438 9.824219 2.273438 9.980469 C 2.363281 9.984375 2.449219 9.980469 2.539062 9.96875 C 2.554688 9.929688 2.558594 9.894531 2.558594 9.851562 C 2.574219 9.851562 2.59375 9.851562 2.613281 9.851562 C 2.613281 9.972656 2.613281 10.09375 2.613281 10.214844 C 2.59375 10.214844 2.574219 10.214844 2.558594 10.214844 C 2.554688 10.15625 2.535156 10.109375 2.5 10.074219 C 2.425781 10.0625 2.347656 10.0625 2.273438 10.0625 C 2.269531 10.21875 2.273438 10.378906 2.28125 10.535156 C 2.339844 10.558594 2.390625 10.589844 2.441406 10.617188 C 2.300781 10.644531 2.152344 10.644531 2.011719 10.617188 C 2.050781 10.601562 2.085938 10.574219 2.113281 10.535156 C 2.125 10.199219 2.125 9.863281 2.113281 9.53125 C 2.066406 9.503906 2.035156 9.46875 2.011719 9.425781 Z M 2.011719 9.425781 "/>
<path style=" stroke:none;fill-rule:evenodd;fill:rgb(7.843137%,7.843137%,7.843137%);fill-opacity:1;" d="M 0.652344 8.871094 C 0.675781 8.878906 0.683594 8.894531 0.6875 8.921875 C 0.667969 8.953125 0.667969 8.980469 0.6875 9.007812 C 0.730469 9.019531 0.777344 9.023438 0.820312 9.019531 C 0.816406 9.050781 0.824219 9.078125 0.839844 9.105469 C 0.882812 9.121094 0.925781 9.128906 0.972656 9.136719 C 1.011719 9.191406 1.0625 9.230469 1.121094 9.253906 C 1.097656 9.269531 1.0625 9.28125 1.027344 9.285156 C 1.023438 9.308594 1.015625 9.335938 1.007812 9.359375 C 0.992188 9.34375 0.988281 9.320312 0.988281 9.296875 C 0.957031 9.292969 0.925781 9.300781 0.894531 9.316406 C 0.890625 9.308594 0.882812 9.304688 0.878906 9.296875 C 0.917969 9.265625 0.914062 9.234375 0.859375 9.210938 C 0.828125 9.222656 0.796875 9.230469 0.765625 9.230469 C 0.699219 9.246094 0.636719 9.265625 0.574219 9.296875 C 0.582031 9.304688 0.589844 9.308594 0.59375 9.316406 C 0.636719 9.292969 0.679688 9.28125 0.726562 9.277344 C 0.75 9.277344 0.773438 9.273438 0.792969 9.253906 C 0.8125 9.273438 0.828125 9.292969 0.839844 9.316406 C 0.746094 9.355469 0.652344 9.390625 0.558594 9.425781 C 0.566406 9.449219 0.578125 9.476562 0.59375 9.5 C 0.542969 9.507812 0.5 9.488281 0.460938 9.445312 C 0.367188 9.464844 0.347656 9.523438 0.394531 9.617188 C 0.398438 9.570312 0.414062 9.527344 0.433594 9.488281 C 0.457031 9.582031 0.507812 9.597656 0.574219 9.53125 C 0.652344 9.554688 0.722656 9.539062 0.78125 9.476562 C 0.914062 9.472656 1.039062 9.449219 1.160156 9.402344 C 1.160156 9.410156 1.160156 9.417969 1.160156 9.425781 C 1.148438 9.4375 1.136719 9.453125 1.121094 9.464844 C 1.074219 9.464844 1.027344 9.46875 0.980469 9.488281 C 0.871094 9.527344 0.773438 9.585938 0.6875 9.660156 C 0.746094 9.734375 0.726562 9.777344 0.632812 9.785156 C 0.617188 9.8125 0.613281 9.839844 0.613281 9.871094 C 0.667969 9.886719 0.71875 9.894531 0.765625 9.894531 C 0.738281 9.933594 0.722656 9.976562 0.707031 10.019531 C 0.699219 9.988281 0.691406 9.957031 0.6875 9.925781 C 0.652344 9.910156 0.628906 9.917969 0.613281 9.957031 C 0.65625 10.027344 0.699219 10.097656 0.746094 10.171875 C 0.761719 10.164062 0.773438 10.152344 0.78125 10.140625 C 0.722656 10.097656 0.710938 10.046875 0.753906 9.980469 C 0.761719 10.007812 0.769531 10.035156 0.773438 10.0625 C 0.816406 10.007812 0.851562 10.015625 0.878906 10.085938 C 0.863281 10.101562 0.839844 10.113281 0.820312 10.117188 C 0.832031 10.125 0.839844 10.136719 0.839844 10.148438 C 0.824219 10.164062 0.816406 10.1875 0.8125 10.214844 C 0.796875 10.203125 0.78125 10.195312 0.765625 10.191406 C 0.738281 10.199219 0.726562 10.210938 0.734375 10.234375 C 0.8125 10.324219 0.890625 10.332031 0.972656 10.253906 C 0.988281 10.265625 1.003906 10.28125 1.019531 10.296875 C 1.054688 10.292969 1.082031 10.3125 1.105469 10.363281 C 1.09375 10.390625 1.074219 10.40625 1.046875 10.414062 C 1.078125 10.464844 1.121094 10.496094 1.167969 10.511719 C 1.179688 10.53125 1.183594 10.554688 1.179688 10.574219 C 1.140625 10.574219 1.105469 10.5625 1.074219 10.535156 C 1.066406 10.535156 1.058594 10.539062 1.046875 10.542969 C 1.066406 10.5625 1.085938 10.578125 1.105469 10.597656 C 1.082031 10.59375 1.066406 10.597656 1.046875 10.609375 C 1.0625 10.621094 1.074219 10.640625 1.085938 10.660156 C 1.035156 10.644531 0.984375 10.640625 0.933594 10.648438 C 0.976562 10.699219 1.027344 10.714844 1.085938 10.703125 C 1.152344 10.703125 1.214844 10.695312 1.273438 10.683594 C 1.324219 10.707031 1.367188 10.746094 1.40625 10.789062 C 1.367188 10.800781 1.328125 10.800781 1.292969 10.789062 C 1.316406 10.84375 1.355469 10.863281 1.40625 10.851562 C 1.425781 10.851562 1.445312 10.851562 1.460938 10.863281 C 1.445312 10.882812 1.441406 10.910156 1.445312 10.9375 C 1.542969 10.980469 1.644531 10.996094 1.746094 10.980469 C 1.769531 10.976562 1.789062 10.984375 1.800781 11.003906 C 1.8125 11.003906 1.828125 11.003906 1.839844 11.003906 C 1.816406 11.066406 1.839844 11.101562 1.90625 11.109375 C 1.914062 11.097656 1.925781 11.085938 1.933594 11.078125 C 1.898438 11.074219 1.871094 11.058594 1.859375 11.023438 C 1.910156 11.042969 1.960938 11.042969 2.011719 11.023438 C 1.835938 10.949219 1.675781 10.859375 1.519531 10.746094 C 1.449219 10.632812 1.378906 10.519531 1.3125 10.40625 C 1.390625 10.496094 1.464844 10.59375 1.539062 10.691406 C 1.6875 10.839844 1.859375 10.929688 2.058594 10.960938 C 2.125 10.929688 2.183594 10.886719 2.234375 10.832031 C 2.25 10.839844 2.261719 10.847656 2.273438 10.851562 C 2.257812 10.890625 2.242188 10.925781 2.21875 10.960938 C 2.304688 10.996094 2.390625 11.003906 2.480469 10.980469 C 2.496094 10.996094 2.515625 11.007812 2.539062 11.011719 C 2.488281 11.03125 2.492188 11.042969 2.546875 11.042969 C 2.578125 11.03125 2.605469 11.019531 2.632812 11.003906 C 2.65625 11.023438 2.65625 11.046875 2.632812 11.078125 C 2.433594 11.121094 2.230469 11.160156 2.027344 11.195312 C 1.886719 11.160156 1.742188 11.140625 1.59375 11.128906 C 1.554688 11.132812 1.519531 11.128906 1.480469 11.117188 C 1.5 11.113281 1.519531 11.105469 1.539062 11.097656 C 1.421875 11.089844 1.316406 11.058594 1.214844 11.003906 C 1.234375 10.984375 1.234375 10.96875 1.214844 10.960938 C 1.171875 10.957031 1.128906 10.964844 1.085938 10.980469 C 1.03125 10.960938 0.988281 10.925781 0.953125 10.875 C 0.972656 10.875 0.992188 10.882812 1.007812 10.894531 C 1.027344 10.882812 1.03125 10.871094 1.019531 10.851562 C 0.9375 10.769531 0.851562 10.691406 0.765625 10.617188 C 0.769531 10.589844 0.765625 10.558594 0.753906 10.535156 C 0.679688 10.445312 0.621094 10.34375 0.574219 10.234375 C 0.578125 10.222656 0.585938 10.210938 0.59375 10.203125 C 0.558594 10.117188 0.527344 10.027344 0.511719 9.9375 C 0.484375 9.914062 0.46875 9.925781 0.460938 9.96875 C 0.484375 10.027344 0.511719 10.089844 0.539062 10.148438 C 0.53125 10.167969 0.515625 10.171875 0.5 10.171875 C 0.445312 9.953125 0.390625 9.734375 0.332031 9.519531 C 0.332031 9.453125 0.363281 9.398438 0.414062 9.359375 C 0.414062 9.277344 0.453125 9.230469 0.527344 9.230469 C 0.53125 9.183594 0.542969 9.132812 0.558594 9.082031 C 0.625 9.042969 0.628906 8.992188 0.574219 8.933594 C 0.613281 8.925781 0.636719 8.90625 0.652344 8.871094 Z M 0.652344 8.871094 "/>
<path style=" stroke:none;fill-rule:evenodd;fill:rgb(8.235294%,8.235294%,8.235294%);fill-opacity:1;" d="M 0.652344 9.464844 C 0.671875 9.441406 0.6875 9.445312 0.707031 9.476562 C 0.6875 9.488281 0.667969 9.484375 0.652344 9.464844 Z M 0.652344 9.464844 "/>
<path style=" stroke:none;fill-rule:evenodd;fill:rgb(48.235294%,48.235294%,48.235294%);fill-opacity:1;" d="M 0.765625 9.230469 C 0.75 9.246094 0.738281 9.261719 0.726562 9.277344 C 0.679688 9.28125 0.636719 9.292969 0.59375 9.316406 C 0.589844 9.308594 0.582031 9.304688 0.574219 9.296875 C 0.636719 9.265625 0.699219 9.246094 0.765625 9.230469 Z M 0.765625 9.230469 "/>
<path style=" stroke:none;fill-rule:evenodd;fill:rgb(40%,40%,40%);fill-opacity:1;" d="M 0.726562 9.167969 C 0.71875 9.195312 0.699219 9.207031 0.671875 9.210938 C 0.652344 9.207031 0.632812 9.203125 0.613281 9.199219 C 0.644531 9.171875 0.683594 9.160156 0.726562 9.167969 Z M 0.726562 9.167969 "/>
<path style=" stroke:none;fill-rule:evenodd;fill:rgb(90.980392%,90.980392%,90.980392%);fill-opacity:1;" d="M 0.726562 9.167969 C 0.75 9.117188 0.78125 9.113281 0.820312 9.15625 C 0.796875 9.222656 0.765625 9.226562 0.726562 9.167969 Z M 0.726562 9.167969 "/>
<path style=" stroke:none;fill-rule:evenodd;fill:rgb(93.333333%,93.333333%,93.333333%);fill-opacity:1;" d="M 1.121094 9.464844 C 1.125 9.511719 1.121094 9.550781 1.113281 9.59375 C 1.101562 9.566406 1.089844 9.566406 1.085938 9.59375 C 1.058594 9.621094 1.058594 9.648438 1.085938 9.679688 C 1.097656 9.679688 1.101562 9.671875 1.105469 9.660156 C 1.117188 9.660156 1.128906 9.660156 1.140625 9.660156 C 1.152344 9.773438 1.152344 9.886719 1.140625 10 C 1.148438 10.023438 1.15625 10.023438 1.167969 10 C 1.179688 10.074219 1.195312 10.144531 1.214844 10.214844 C 1.214844 10.234375 1.207031 10.257812 1.199219 10.277344 C 1.203125 10.304688 1.214844 10.304688 1.226562 10.277344 C 1.21875 10.34375 1.246094 10.386719 1.3125 10.40625 C 1.378906 10.519531 1.449219 10.632812 1.519531 10.746094 C 1.675781 10.859375 1.835938 10.949219 2.011719 11.023438 C 1.960938 11.042969 1.910156 11.042969 1.859375 11.023438 C 1.859375 11.007812 1.851562 11.003906 1.839844 11.003906 C 1.828125 11.003906 1.8125 11.003906 1.800781 11.003906 C 1.789062 10.984375 1.769531 10.976562 1.746094 10.980469 C 1.644531 10.996094 1.542969 10.980469 1.445312 10.9375 C 1.441406 10.910156 1.445312 10.882812 1.460938 10.863281 C 1.445312 10.851562 1.425781 10.851562 1.40625 10.851562 C 1.425781 10.828125 1.425781 10.804688 1.40625 10.789062 C 1.367188 10.746094 1.324219 10.707031 1.273438 10.683594 C 1.226562 10.636719 1.167969 10.609375 1.105469 10.597656 C 1.085938 10.578125 1.066406 10.5625 1.046875 10.542969 C 1.058594 10.539062 1.066406 10.535156 1.074219 10.535156 C 1.105469 10.5625 1.140625 10.574219 1.179688 10.574219 C 1.183594 10.554688 1.179688 10.53125 1.167969 10.511719 C 1.121094 10.496094 1.078125 10.464844 1.046875 10.414062 C 1.074219 10.40625 1.09375 10.390625 1.105469 10.363281 C 1.082031 10.3125 1.054688 10.292969 1.019531 10.296875 C 1.003906 10.28125 0.988281 10.265625 0.972656 10.253906 C 0.890625 10.332031 0.8125 10.324219 0.734375 10.234375 C 0.726562 10.210938 0.738281 10.199219 0.765625 10.191406 C 0.78125 10.195312 0.796875 10.203125 0.8125 10.214844 C 0.816406 10.1875 0.824219 10.164062 0.839844 10.148438 C 0.839844 10.136719 0.832031 10.125 0.820312 10.117188 C 0.839844 10.113281 0.863281 10.101562 0.878906 10.085938 C 0.851562 10.015625 0.816406 10.007812 0.773438 10.0625 C 0.769531 10.035156 0.761719 10.007812 0.753906 9.980469 C 0.710938 10.046875 0.722656 10.097656 0.78125 10.140625 C 0.773438 10.152344 0.761719 10.164062 0.746094 10.171875 C 0.699219 10.097656 0.65625 10.027344 0.613281 9.957031 C 0.628906 9.917969 0.652344 9.910156 0.6875 9.925781 C 0.691406 9.957031 0.699219 9.988281 0.707031 10.019531 C 0.722656 9.976562 0.738281 9.933594 0.765625 9.894531 C 0.71875 9.894531 0.667969 9.886719 0.613281 9.871094 C 0.613281 9.839844 0.617188 9.8125 0.632812 9.785156 C 0.726562 9.777344 0.746094 9.734375 0.6875 9.660156 C 0.773438 9.585938 0.871094 9.527344 0.980469 9.488281 C 1.027344 9.46875 1.074219 9.464844 1.121094 9.464844 Z M 1.121094 9.464844 "/>
<path style=" stroke:none;fill-rule:evenodd;fill:rgb(60.392157%,60.392157%,60.392157%);fill-opacity:1;" d="M 1.160156 9.425781 C 1.160156 9.464844 1.160156 9.511719 1.160156 9.550781 C 1.144531 9.582031 1.136719 9.617188 1.140625 9.660156 C 1.128906 9.660156 1.117188 9.660156 1.105469 9.660156 C 1.085938 9.644531 1.082031 9.621094 1.085938 9.59375 C 1.089844 9.566406 1.101562 9.566406 1.113281 9.59375 C 1.121094 9.550781 1.125 9.511719 1.121094 9.464844 C 1.136719 9.453125 1.148438 9.4375 1.160156 9.425781 Z M 1.160156 9.425781 "/>
<path style=" stroke:none;fill-rule:evenodd;fill:rgb(2.745098%,2.745098%,2.745098%);fill-opacity:1;" d="M 1.085938 9.59375 C 1.082031 9.621094 1.085938 9.644531 1.105469 9.660156 C 1.101562 9.671875 1.097656 9.679688 1.085938 9.679688 C 1.058594 9.648438 1.058594 9.621094 1.085938 9.59375 Z M 1.085938 9.59375 "/>
<path style=" stroke:none;fill-rule:evenodd;fill:rgb(65.490196%,65.490196%,65.490196%);fill-opacity:1;" d="M 0.6875 9.660156 C 0.675781 9.691406 0.648438 9.707031 0.613281 9.703125 C 0.613281 9.679688 0.613281 9.660156 0.613281 9.636719 C 0.640625 9.636719 0.664062 9.644531 0.6875 9.660156 Z M 0.6875 9.660156 "/>
<path style=" stroke:none;fill-rule:evenodd;fill:rgb(25.490196%,25.490196%,25.490196%);fill-opacity:1;" d="M 1.160156 9.550781 C 1.152344 9.851562 1.203125 10.136719 1.3125 10.40625 C 1.246094 10.386719 1.21875 10.34375 1.226562 10.277344 C 1.214844 10.304688 1.203125 10.304688 1.199219 10.277344 C 1.207031 10.257812 1.214844 10.234375 1.214844 10.214844 C 1.195312 10.144531 1.179688 10.074219 1.167969 10 C 1.15625 10.023438 1.148438 10.023438 1.140625 10 C 1.152344 9.886719 1.152344 9.773438 1.140625 9.660156 C 1.136719 9.617188 1.144531 9.582031 1.160156 9.550781 Z M 1.160156 9.550781 "/>
<path style=" stroke:none;fill-rule:evenodd;fill:rgb(55.294118%,55.294118%,55.294118%);fill-opacity:1;" d="M 0.820312 9.828125 C 0.8125 9.800781 0.792969 9.785156 0.765625 9.785156 C 0.777344 9.769531 0.796875 9.761719 0.820312 9.753906 C 0.796875 9.71875 0.800781 9.707031 0.839844 9.710938 C 0.863281 9.734375 0.863281 9.753906 0.839844 9.777344 C 0.890625 9.789062 0.890625 9.804688 0.839844 9.820312 C 0.847656 9.828125 0.851562 9.832031 0.859375 9.839844 C 0.839844 9.855469 0.828125 9.851562 0.820312 9.828125 Z M 0.820312 9.828125 "/>
<path style=" stroke:none;fill-rule:evenodd;fill:rgb(9.411765%,9.411765%,9.411765%);fill-opacity:1;" d="M 0.765625 9.785156 C 0.792969 9.785156 0.8125 9.800781 0.820312 9.828125 C 0.792969 9.832031 0.773438 9.816406 0.765625 9.785156 Z M 0.765625 9.785156 "/>
<path style=" stroke:none;fill-rule:evenodd;fill:rgb(5.098039%,5.098039%,5.098039%);fill-opacity:1;" d="M 3.632812 9.914062 C 3.695312 9.910156 3.757812 9.914062 3.820312 9.925781 C 3.847656 9.933594 3.871094 9.953125 3.886719 9.980469 C 3.894531 10.148438 3.898438 10.320312 3.90625 10.488281 C 3.941406 10.523438 3.980469 10.542969 4.027344 10.554688 C 3.953125 10.671875 3.863281 10.6875 3.765625 10.597656 C 3.699219 10.628906 3.628906 10.648438 3.558594 10.660156 C 3.457031 10.652344 3.40625 10.59375 3.40625 10.480469 C 3.425781 10.402344 3.46875 10.34375 3.539062 10.308594 C 3.617188 10.289062 3.695312 10.261719 3.773438 10.234375 C 3.785156 10.171875 3.785156 10.105469 3.773438 10.042969 C 3.742188 9.996094 3.699219 9.980469 3.652344 9.988281 C 3.613281 10.027344 3.582031 10.070312 3.558594 10.117188 C 3.449219 10.144531 3.425781 10.109375 3.480469 10.011719 C 3.53125 9.976562 3.582031 9.945312 3.632812 9.914062 Z M 3.632812 9.914062 "/>
<path style=" stroke:none;fill-rule:evenodd;fill:rgb(4.705882%,4.705882%,4.705882%);fill-opacity:1;" d="M 4.3125 9.914062 C 4.410156 9.914062 4.511719 9.921875 4.613281 9.9375 C 4.621094 9.992188 4.625 10.050781 4.632812 10.105469 C 4.5625 10.0625 4.492188 10.015625 4.414062 9.980469 C 4.289062 10 4.265625 10.058594 4.347656 10.160156 C 4.457031 10.210938 4.554688 10.277344 4.640625 10.363281 C 4.671875 10.519531 4.617188 10.617188 4.480469 10.648438 C 4.378906 10.671875 4.277344 10.660156 4.179688 10.617188 C 4.160156 10.5625 4.152344 10.503906 4.160156 10.449219 C 4.21875 10.496094 4.28125 10.542969 4.347656 10.585938 C 4.417969 10.609375 4.476562 10.589844 4.527344 10.535156 C 4.542969 10.484375 4.535156 10.449219 4.5 10.414062 C 4.414062 10.371094 4.332031 10.320312 4.253906 10.265625 C 4.167969 10.128906 4.1875 10.007812 4.3125 9.914062 Z M 4.3125 9.914062 "/>
<path style=" stroke:none;fill-rule:evenodd;fill:rgb(11.372549%,11.372549%,11.372549%);fill-opacity:1;" d="M 1.027344 9.914062 C 1.039062 9.917969 1.050781 9.925781 1.058594 9.9375 C 1.0625 9.96875 1.070312 10.003906 1.085938 10.03125 C 1.066406 10.046875 1.050781 10.042969 1.039062 10.019531 C 1.027344 9.988281 1.027344 9.949219 1.027344 9.914062 Z M 1.027344 9.914062 "/>
<path style=" stroke:none;fill-rule:evenodd;fill:rgb(21.568627%,21.568627%,21.568627%);fill-opacity:1;" d="M 0.878906 9.9375 C 0.910156 9.957031 0.9375 9.988281 0.953125 10.03125 C 0.902344 10.074219 0.871094 10.054688 0.859375 9.980469 C 0.863281 9.964844 0.871094 9.949219 0.878906 9.9375 Z M 0.878906 9.9375 "/>
<path style=" stroke:none;fill-rule:evenodd;fill:rgb(70.196078%,70.196078%,70.196078%);fill-opacity:1;" d="M 0.765625 10.617188 C 0.75 10.613281 0.738281 10.605469 0.726562 10.597656 C 0.730469 10.574219 0.726562 10.554688 0.71875 10.535156 C 0.636719 10.421875 0.570312 10.316406 0.519531 10.214844 C 0.503906 10.207031 0.496094 10.191406 0.5 10.171875 C 0.515625 10.171875 0.53125 10.167969 0.539062 10.148438 C 0.511719 10.089844 0.484375 10.027344 0.460938 9.96875 C 0.46875 9.925781 0.484375 9.914062 0.511719 9.9375 C 0.527344 10.027344 0.558594 10.117188 0.59375 10.203125 C 0.585938 10.210938 0.578125 10.222656 0.574219 10.234375 C 0.621094 10.34375 0.679688 10.445312 0.753906 10.535156 C 0.765625 10.558594 0.769531 10.589844 0.765625 10.617188 Z M 0.765625 10.617188 "/>
<path style=" stroke:none;fill-rule:evenodd;fill:rgb(10.196078%,10.196078%,10.196078%);fill-opacity:1;" d="M 0.839844 10.148438 C 0.875 10.171875 0.886719 10.210938 0.867188 10.253906 C 0.855469 10.222656 0.847656 10.183594 0.839844 10.148438 Z M 0.839844 10.148438 "/>
<path style=" stroke:none;fill-rule:evenodd;fill:rgb(94.117647%,94.117647%,94.117647%);fill-opacity:1;" d="M 3.652344 10.320312 C 3.695312 10.320312 3.738281 10.320312 3.78125 10.320312 C 3.824219 10.511719 3.761719 10.59375 3.59375 10.566406 C 3.5625 10.542969 3.542969 10.511719 3.539062 10.46875 C 3.5625 10.40625 3.601562 10.355469 3.652344 10.320312 Z M 3.652344 10.320312 "/>
<path style=" stroke:none;fill-rule:evenodd;fill:rgb(84.705882%,84.705882%,84.705882%);fill-opacity:1;" d="M 0.859375 10.363281 C 0.890625 10.355469 0.921875 10.363281 0.953125 10.382812 C 0.949219 10.394531 0.941406 10.40625 0.933594 10.414062 C 1.050781 10.578125 1.03125 10.609375 0.878906 10.511719 C 0.847656 10.460938 0.84375 10.414062 0.859375 10.363281 Z M 0.859375 10.363281 "/>
<path style=" stroke:none;fill-rule:evenodd;fill:rgb(16.862745%,16.862745%,16.862745%);fill-opacity:1;" d="M 0.726562 10.597656 C 0.6875 10.570312 0.660156 10.535156 0.640625 10.488281 C 0.589844 10.402344 0.550781 10.3125 0.519531 10.214844 C 0.570312 10.316406 0.636719 10.421875 0.71875 10.535156 C 0.726562 10.554688 0.730469 10.574219 0.726562 10.597656 Z M 0.726562 10.597656 "/>
<path style=" stroke:none;fill-rule:evenodd;fill:rgb(14.509804%,14.509804%,14.509804%);fill-opacity:1;" d="M 0.726562 10.597656 C 0.738281 10.605469 0.75 10.613281 0.765625 10.617188 C 0.765625 10.632812 0.765625 10.644531 0.765625 10.660156 C 0.738281 10.652344 0.726562 10.628906 0.726562 10.597656 Z M 0.726562 10.597656 "/>
<path style=" stroke:none;fill-rule:evenodd;fill:rgb(89.803922%,89.803922%,89.803922%);fill-opacity:1;" d="M 1.085938 10.660156 C 1.085938 10.675781 1.085938 10.691406 1.085938 10.703125 C 1.027344 10.714844 0.976562 10.699219 0.933594 10.648438 C 0.984375 10.640625 1.035156 10.644531 1.085938 10.660156 Z M 1.085938 10.660156 "/>
<path style=" stroke:none;fill-rule:evenodd;fill:rgb(36.862745%,36.862745%,36.862745%);fill-opacity:1;" d="M 1.105469 10.597656 C 1.167969 10.609375 1.226562 10.636719 1.273438 10.683594 C 1.214844 10.695312 1.152344 10.703125 1.085938 10.703125 C 1.085938 10.691406 1.085938 10.675781 1.085938 10.660156 C 1.074219 10.640625 1.0625 10.621094 1.046875 10.609375 C 1.066406 10.597656 1.082031 10.59375 1.105469 10.597656 Z M 1.105469 10.597656 "/>
<path style=" stroke:none;fill-rule:evenodd;fill:rgb(82.745098%,82.745098%,82.745098%);fill-opacity:1;" d="M 0.765625 10.617188 C 0.851562 10.691406 0.9375 10.769531 1.019531 10.851562 C 1.03125 10.871094 1.027344 10.882812 1.007812 10.894531 C 0.992188 10.882812 0.972656 10.875 0.953125 10.875 C 0.894531 10.796875 0.832031 10.722656 0.765625 10.660156 C 0.765625 10.644531 0.765625 10.632812 0.765625 10.617188 Z M 0.765625 10.617188 "/>
<path style=" stroke:none;fill-rule:evenodd;fill:rgb(31.372549%,31.372549%,31.372549%);fill-opacity:1;" d="M 1.179688 10.746094 C 1.1875 10.722656 1.199219 10.71875 1.214844 10.734375 C 1.269531 10.804688 1.257812 10.832031 1.179688 10.808594 C 1.175781 10.785156 1.175781 10.761719 1.179688 10.746094 Z M 1.179688 10.746094 "/>
<path style=" stroke:none;fill-rule:evenodd;fill:rgb(16.470588%,16.470588%,16.470588%);fill-opacity:1;" d="M 0.765625 10.660156 C 0.832031 10.722656 0.894531 10.796875 0.953125 10.875 C 0.871094 10.824219 0.808594 10.753906 0.765625 10.660156 Z M 0.765625 10.660156 "/>
<path style=" stroke:none;fill-rule:evenodd;fill:rgb(57.647059%,57.647059%,57.647059%);fill-opacity:1;" d="M 1.40625 10.789062 C 1.425781 10.804688 1.425781 10.828125 1.40625 10.851562 C 1.355469 10.863281 1.316406 10.84375 1.292969 10.789062 C 1.328125 10.800781 1.367188 10.800781 1.40625 10.789062 Z M 1.40625 10.789062 "/>
<path style=" stroke:none;fill-rule:evenodd;fill:rgb(39.215686%,39.215686%,39.215686%);fill-opacity:1;" d="M 2.480469 10.980469 C 2.535156 10.972656 2.585938 10.980469 2.632812 11.003906 C 2.605469 11.019531 2.578125 11.03125 2.546875 11.042969 C 2.492188 11.042969 2.488281 11.03125 2.539062 11.011719 C 2.515625 11.007812 2.496094 10.996094 2.480469 10.980469 Z M 2.480469 10.980469 "/>
<path style=" stroke:none;fill-rule:evenodd;fill:rgb(43.529412%,43.529412%,43.529412%);fill-opacity:1;" d="M 1.214844 11.003906 C 1.199219 11.019531 1.207031 11.035156 1.238281 11.054688 C 1.273438 11.0625 1.304688 11.082031 1.332031 11.109375 C 1.234375 11.09375 1.152344 11.050781 1.085938 10.980469 C 1.128906 10.964844 1.171875 10.957031 1.214844 10.960938 C 1.234375 10.96875 1.234375 10.984375 1.214844 11.003906 Z M 1.214844 11.003906 "/>
<path style=" stroke:none;fill-rule:evenodd;fill:rgb(83.921569%,83.921569%,83.921569%);fill-opacity:1;" d="M 1.746094 10.980469 C 1.746094 11.003906 1.746094 11.023438 1.746094 11.042969 C 1.652344 11.042969 1.652344 11.019531 1.746094 10.980469 Z M 1.746094 10.980469 "/>
<path style=" stroke:none;fill-rule:evenodd;fill:rgb(42.745098%,42.745098%,42.745098%);fill-opacity:1;" d="M 1.839844 11.003906 C 1.851562 11.003906 1.859375 11.007812 1.859375 11.023438 C 1.871094 11.058594 1.898438 11.074219 1.933594 11.078125 C 1.925781 11.085938 1.914062 11.097656 1.90625 11.109375 C 1.839844 11.101562 1.816406 11.066406 1.839844 11.003906 Z M 1.839844 11.003906 "/>
<path style=" stroke:none;fill-rule:evenodd;fill:rgb(74.117647%,74.117647%,74.117647%);fill-opacity:1;" d="M 2.085938 11.003906 C 2.15625 10.996094 2.226562 11.003906 2.292969 11.035156 C 2.257812 11.039062 2.222656 11.039062 2.1875 11.042969 C 2.144531 11.042969 2.109375 11.027344 2.085938 11.003906 Z M 2.085938 11.003906 "/>
<path style=" stroke:none;fill-rule:evenodd;fill:rgb(56.862745%,56.862745%,56.862745%);fill-opacity:1;" d="M 1.800781 11.003906 C 1.800781 11.03125 1.789062 11.0625 1.773438 11.085938 C 1.757812 11.046875 1.765625 11.015625 1.800781 11.003906 Z M 1.800781 11.003906 "/>
<path style=" stroke:none;fill-rule:evenodd;fill:rgb(65.490196%,65.490196%,65.490196%);fill-opacity:1;" d="M 1.214844 11.003906 C 1.316406 11.058594 1.421875 11.089844 1.539062 11.097656 C 1.519531 11.105469 1.5 11.113281 1.480469 11.117188 C 1.519531 11.128906 1.554688 11.132812 1.59375 11.128906 C 1.554688 11.144531 1.519531 11.160156 1.480469 11.171875 C 1.425781 11.160156 1.375 11.140625 1.332031 11.109375 C 1.304688 11.082031 1.273438 11.0625 1.238281 11.054688 C 1.207031 11.035156 1.199219 11.019531 1.214844 11.003906 Z M 1.214844 11.003906 "/>
<path style=" stroke:none;fill-rule:evenodd;fill:rgb(56.078431%,56.078431%,56.078431%);fill-opacity:1;" d="M 1.59375 11.128906 C 1.742188 11.140625 1.886719 11.160156 2.027344 11.195312 C 1.988281 11.207031 1.945312 11.214844 1.894531 11.214844 C 1.757812 11.203125 1.621094 11.1875 1.480469 11.171875 C 1.519531 11.160156 1.554688 11.144531 1.59375 11.128906 Z M 1.59375 11.128906 "/>
</g>
</svg>
