<?xml version="1.0" encoding="UTF-8"?>
<svg xmlns="http://www.w3.org/2000/svg" xmlns:xlink="http://www.w3.org/1999/xlink" width="20px" height="59px" viewBox="0 0 20 10" version="1.1">
<g id="surface1">
<path style=" stroke:none;fill-rule:evenodd;fill:rgb(99.215686%,99.215686%,99.215686%);fill-opacity:1;" d="M -0.03125 -0.03125 C 6.636719 -0.03125 13.300781 -0.03125 19.96875 -0.03125 C 19.96875 3.300781 19.96875 6.636719 19.96875 9.96875 C 13.300781 9.96875 6.636719 9.96875 -0.03125 9.96875 C -0.03125 6.636719 -0.03125 3.300781 -0.03125 -0.03125 Z M -0.03125 -0.03125 "/>
<path style=" stroke:none;fill-rule:evenodd;fill:rgb(34.901961%,34.901961%,34.901961%);fill-opacity:1;" d="M 2.167969 1.667969 C 2.015625 1.640625 1.929688 1.703125 1.917969 1.855469 C 1.835938 1.789062 1.835938 1.714844 1.917969 1.636719 C 2.015625 1.585938 2.101562 1.597656 2.167969 1.667969 Z M 2.167969 1.667969 "/>
<path style=" stroke:none;fill-rule:evenodd;fill:rgb(89.411765%,89.411765%,89.411765%);fill-opacity:1;" d="M 2.167969 1.667969 C 2.125 1.773438 2.042969 1.835938 1.917969 1.855469 C 1.929688 1.703125 2.015625 1.640625 2.167969 1.667969 Z M 2.167969 1.667969 "/>
<path style=" stroke:none;fill-rule:evenodd;fill:rgb(10.588235%,10.588235%,10.588235%);fill-opacity:1;" d="M 3.992188 2.925781 C 4.160156 2.953125 4.308594 3.015625 4.433594 3.113281 C 4.433594 3.175781 4.433594 3.238281 4.433594 3.300781 C 4.246094 3.273438 4.058594 3.25 3.867188 3.238281 C 3.957031 3.15625 4 3.050781 3.992188 2.925781 Z M 3.992188 2.925781 "/>
<path style=" stroke:none;fill-rule:evenodd;fill:rgb(5.490196%,5.490196%,5.490196%);fill-opacity:1;" d="M 10.28125 2.988281 C 10.347656 2.988281 10.410156 2.988281 10.472656 2.988281 C 10.460938 4.183594 10.472656 5.378906 10.503906 6.574219 C 10.648438 6.671875 10.804688 6.757812 10.976562 6.824219 C 10.578125 6.90625 10.179688 6.90625 9.78125 6.824219 C 9.859375 6.769531 9.933594 6.707031 10 6.636719 C 10.042969 5.628906 10.042969 4.621094 10 3.617188 C 9.898438 3.539062 9.804688 3.457031 9.71875 3.363281 C 9.917969 3.253906 10.105469 3.128906 10.28125 2.988281 Z M 10.28125 2.988281 "/>
<path style=" stroke:none;fill-rule:evenodd;fill:rgb(3.137255%,3.137255%,3.137255%);fill-opacity:1;" d="M 16.574219 2.988281 C 16.636719 2.988281 16.699219 2.988281 16.761719 2.988281 C 16.761719 3.890625 16.761719 4.789062 16.761719 5.691406 C 17.054688 5.582031 17.316406 5.414062 17.546875 5.1875 C 17.589844 5.125 17.589844 5.0625 17.546875 5 C 17.453125 4.964844 17.359375 4.921875 17.265625 4.875 C 17.679688 4.8125 18.101562 4.789062 18.523438 4.8125 C 18.523438 4.875 18.523438 4.9375 18.523438 5 C 18.070312 5.007812 17.714844 5.195312 17.453125 5.566406 C 17.640625 5.976562 17.914062 6.320312 18.269531 6.605469 C 18.40625 6.679688 18.554688 6.710938 18.710938 6.699219 C 18.710938 6.761719 18.710938 6.824219 18.710938 6.886719 C 18.464844 6.871094 18.226562 6.894531 17.988281 6.949219 C 17.652344 6.617188 17.347656 6.261719 17.074219 5.878906 C 16.996094 5.914062 16.921875 5.957031 16.855469 6.007812 C 16.8125 6.214844 16.8125 6.425781 16.855469 6.636719 C 16.984375 6.710938 17.121094 6.773438 17.265625 6.824219 C 16.867188 6.90625 16.46875 6.90625 16.070312 6.824219 C 16.167969 6.746094 16.261719 6.660156 16.351562 6.574219 C 16.394531 5.609375 16.394531 4.644531 16.351562 3.679688 C 16.242188 3.566406 16.125 3.460938 16.007812 3.363281 C 16.207031 3.253906 16.394531 3.128906 16.574219 2.988281 Z M 16.574219 2.988281 "/>
<path style=" stroke:none;fill-rule:evenodd;fill:rgb(87.45098%,87.45098%,87.45098%);fill-opacity:1;" d="M 3.742188 2.796875 C 3.847656 2.808594 3.929688 2.851562 3.992188 2.925781 C 4 3.050781 3.957031 3.15625 3.867188 3.238281 C 3.460938 3.371094 3.042969 3.445312 2.609375 3.460938 C 2.402344 3.636719 2.171875 3.6875 1.917969 3.617188 C 1.6875 3.8125 1.527344 3.769531 1.445312 3.492188 C 1.375 3.601562 1.332031 3.730469 1.320312 3.867188 C 1.152344 3.59375 1.222656 3.425781 1.539062 3.363281 C 1.664062 3.492188 1.8125 3.542969 1.980469 3.523438 C 1.929688 3.453125 1.890625 3.378906 1.855469 3.300781 C 2.171875 3.207031 2.488281 3.101562 2.796875 2.988281 C 2.757812 2.914062 2.707031 2.851562 2.640625 2.796875 C 2.578125 2.851562 2.503906 2.871094 2.421875 2.863281 C 2.464844 2.820312 2.503906 2.777344 2.546875 2.734375 C 2.652344 2.726562 2.757812 2.707031 2.863281 2.671875 C 3.046875 2.742188 3.066406 2.828125 2.925781 2.925781 C 2.945312 2.945312 2.964844 2.964844 2.988281 2.988281 C 3.085938 2.9375 3.191406 2.914062 3.300781 2.925781 C 3.289062 3 3.308594 3.0625 3.363281 3.113281 C 3.390625 3.039062 3.414062 2.964844 3.425781 2.894531 C 3.546875 2.878906 3.652344 2.847656 3.742188 2.796875 Z M 3.742188 2.796875 "/>
<path style=" stroke:none;fill-rule:evenodd;fill:rgb(52.941176%,52.941176%,52.941176%);fill-opacity:1;" d="M 4.433594 3.113281 C 4.644531 3.15625 4.667969 3.242188 4.496094 3.363281 C 4.457031 3.355469 4.4375 3.335938 4.433594 3.300781 C 4.433594 3.238281 4.433594 3.175781 4.433594 3.113281 Z M 4.433594 3.113281 "/>
<path style=" stroke:none;fill-rule:evenodd;fill:rgb(3.921569%,3.921569%,3.921569%);fill-opacity:1;" d="M 6.699219 3.300781 C 7.515625 3.300781 8.332031 3.300781 9.152344 3.300781 C 9.152344 3.53125 9.152344 3.761719 9.152344 3.992188 C 9.078125 4.007812 9.015625 3.988281 8.960938 3.929688 C 8.914062 3.789062 8.832031 3.671875 8.710938 3.585938 C 8.332031 3.554688 7.957031 3.542969 7.578125 3.554688 C 7.578125 4.015625 7.578125 4.476562 7.578125 4.9375 C 7.871094 4.949219 8.167969 4.9375 8.460938 4.90625 C 8.515625 4.796875 8.535156 4.683594 8.523438 4.558594 C 8.585938 4.558594 8.648438 4.558594 8.710938 4.558594 C 8.710938 4.917969 8.710938 5.273438 8.710938 5.628906 C 8.648438 5.628906 8.585938 5.628906 8.523438 5.628906 C 8.519531 5.464844 8.457031 5.328125 8.332031 5.21875 C 8.082031 5.1875 7.832031 5.179688 7.578125 5.1875 C 7.566406 5.648438 7.578125 6.113281 7.609375 6.574219 C 7.792969 6.652344 7.972656 6.738281 8.144531 6.824219 C 7.664062 6.90625 7.179688 6.90625 6.699219 6.824219 C 6.839844 6.777344 6.953125 6.691406 7.042969 6.574219 C 7.085938 5.585938 7.085938 4.601562 7.042969 3.617188 C 6.894531 3.539062 6.78125 3.433594 6.699219 3.300781 Z M 6.699219 3.300781 "/>
<path style=" stroke:none;fill-rule:evenodd;fill:rgb(7.843137%,7.843137%,7.843137%);fill-opacity:1;" d="M 2.167969 1.667969 C 2.246094 1.691406 2.285156 1.742188 2.296875 1.824219 C 2.226562 1.914062 2.226562 1.996094 2.296875 2.074219 C 2.441406 2.105469 2.585938 2.117188 2.734375 2.105469 C 2.71875 2.199219 2.742188 2.285156 2.796875 2.359375 C 2.941406 2.402344 3.089844 2.433594 3.238281 2.453125 C 3.375 2.617188 3.542969 2.730469 3.742188 2.796875 C 3.652344 2.847656 3.546875 2.878906 3.425781 2.894531 C 3.414062 2.964844 3.390625 3.039062 3.363281 3.113281 C 3.308594 3.0625 3.289062 3 3.300781 2.925781 C 3.191406 2.914062 3.085938 2.9375 2.988281 2.988281 C 2.964844 2.964844 2.945312 2.945312 2.925781 2.925781 C 3.066406 2.828125 3.046875 2.742188 2.863281 2.671875 C 2.757812 2.707031 2.652344 2.726562 2.546875 2.734375 C 2.332031 2.773438 2.121094 2.835938 1.917969 2.925781 C 1.9375 2.945312 1.960938 2.964844 1.980469 2.988281 C 2.121094 2.917969 2.269531 2.878906 2.421875 2.863281 C 2.503906 2.871094 2.578125 2.851562 2.640625 2.796875 C 2.707031 2.851562 2.757812 2.914062 2.796875 2.988281 C 2.488281 3.101562 2.171875 3.207031 1.855469 3.300781 C 1.890625 3.378906 1.929688 3.453125 1.980469 3.523438 C 1.8125 3.542969 1.664062 3.492188 1.539062 3.363281 C 1.222656 3.425781 1.152344 3.59375 1.320312 3.867188 C 1.332031 3.730469 1.375 3.601562 1.445312 3.492188 C 1.527344 3.769531 1.6875 3.8125 1.917969 3.617188 C 2.171875 3.6875 2.402344 3.636719 2.609375 3.460938 C 3.042969 3.445312 3.460938 3.371094 3.867188 3.238281 C 3.867188 3.261719 3.867188 3.28125 3.867188 3.300781 C 3.824219 3.34375 3.785156 3.386719 3.742188 3.425781 C 3.582031 3.417969 3.421875 3.4375 3.269531 3.492188 C 2.90625 3.605469 2.582031 3.773438 2.296875 3.992188 C 2.480469 4.214844 2.417969 4.339844 2.105469 4.371094 C 2.058594 4.449219 2.039062 4.53125 2.042969 4.621094 C 2.222656 4.664062 2.390625 4.683594 2.546875 4.683594 C 2.464844 4.800781 2.402344 4.925781 2.359375 5.0625 C 2.324219 4.964844 2.300781 4.871094 2.296875 4.78125 C 2.179688 4.730469 2.097656 4.761719 2.042969 4.875 C 2.191406 5.082031 2.335938 5.292969 2.484375 5.503906 C 2.535156 5.484375 2.578125 5.453125 2.609375 5.410156 C 2.40625 5.292969 2.375 5.136719 2.515625 4.9375 C 2.535156 5.019531 2.558594 5.105469 2.578125 5.1875 C 2.71875 5.023438 2.835938 5.042969 2.925781 5.25 C 2.871094 5.296875 2.804688 5.332031 2.734375 5.347656 C 2.769531 5.371094 2.792969 5.402344 2.796875 5.441406 C 2.75 5.488281 2.71875 5.550781 2.703125 5.628906 C 2.660156 5.59375 2.605469 5.574219 2.546875 5.566406 C 2.457031 5.582031 2.425781 5.621094 2.453125 5.691406 C 2.707031 5.953125 2.96875 5.976562 3.238281 5.753906 C 3.300781 5.785156 3.351562 5.828125 3.394531 5.878906 C 3.519531 5.859375 3.613281 5.921875 3.679688 6.070312 C 3.640625 6.152344 3.578125 6.203125 3.492188 6.226562 C 3.59375 6.371094 3.730469 6.464844 3.898438 6.507812 C 3.929688 6.570312 3.941406 6.632812 3.929688 6.699219 C 3.796875 6.699219 3.683594 6.65625 3.585938 6.574219 C 3.554688 6.582031 3.523438 6.59375 3.492188 6.605469 C 3.558594 6.65625 3.621094 6.710938 3.679688 6.761719 C 3.613281 6.75 3.550781 6.761719 3.492188 6.792969 C 3.546875 6.835938 3.585938 6.890625 3.617188 6.949219 C 3.449219 6.902344 3.28125 6.890625 3.113281 6.917969 C 3.25 7.058594 3.417969 7.109375 3.617188 7.074219 C 3.835938 7.070312 4.042969 7.050781 4.246094 7.011719 C 4.410156 7.089844 4.554688 7.195312 4.683594 7.328125 C 4.554688 7.363281 4.429688 7.363281 4.308594 7.328125 C 4.386719 7.484375 4.511719 7.546875 4.683594 7.515625 C 4.75 7.507812 4.816406 7.515625 4.875 7.546875 C 4.820312 7.609375 4.800781 7.683594 4.8125 7.765625 C 5.148438 7.890625 5.484375 7.933594 5.816406 7.894531 C 5.898438 7.878906 5.960938 7.898438 6.007812 7.957031 C 6.046875 7.957031 6.089844 7.957031 6.132812 7.957031 C 6.054688 8.144531 6.128906 8.25 6.351562 8.269531 C 6.382812 8.238281 6.414062 8.207031 6.445312 8.175781 C 6.324219 8.167969 6.242188 8.117188 6.195312 8.019531 C 6.367188 8.078125 6.53125 8.078125 6.699219 8.019531 C 6.125 7.800781 5.582031 7.53125 5.0625 7.203125 C 4.828125 6.863281 4.597656 6.527344 4.371094 6.195312 C 4.632812 6.464844 4.882812 6.75 5.125 7.042969 C 5.621094 7.476562 6.199219 7.738281 6.855469 7.832031 C 7.082031 7.742188 7.28125 7.613281 7.453125 7.453125 C 7.496094 7.472656 7.535156 7.496094 7.578125 7.515625 C 7.53125 7.632812 7.46875 7.734375 7.390625 7.832031 C 7.679688 7.933594 7.972656 7.957031 8.269531 7.894531 C 8.320312 7.941406 8.382812 7.972656 8.460938 7.988281 C 8.292969 8.042969 8.304688 8.074219 8.492188 8.082031 C 8.589844 8.046875 8.6875 8.003906 8.773438 7.957031 C 8.855469 8.023438 8.855469 8.09375 8.773438 8.175781 C 8.105469 8.3125 7.4375 8.425781 6.761719 8.523438 C 6.285156 8.421875 5.804688 8.359375 5.316406 8.332031 C 5.1875 8.34375 5.0625 8.332031 4.9375 8.300781 C 5 8.28125 5.0625 8.261719 5.125 8.238281 C 4.738281 8.210938 4.382812 8.117188 4.054688 7.957031 C 4.117188 7.902344 4.117188 7.859375 4.054688 7.832031 C 3.90625 7.824219 3.761719 7.847656 3.617188 7.894531 C 3.4375 7.835938 3.289062 7.730469 3.175781 7.578125 C 3.246094 7.582031 3.308594 7.601562 3.363281 7.640625 C 3.429688 7.609375 3.441406 7.566406 3.394531 7.515625 C 3.128906 7.265625 2.84375 7.035156 2.546875 6.824219 C 2.558594 6.738281 2.546875 6.652344 2.515625 6.574219 C 2.269531 6.3125 2.070312 6.019531 1.917969 5.691406 C 1.929688 5.65625 1.953125 5.625 1.980469 5.597656 C 1.855469 5.347656 1.761719 5.085938 1.699219 4.8125 C 1.613281 4.746094 1.558594 4.777344 1.539062 4.90625 C 1.617188 5.085938 1.699219 5.265625 1.792969 5.441406 C 1.765625 5.492188 1.722656 5.511719 1.667969 5.503906 C 1.488281 4.859375 1.300781 4.21875 1.101562 3.585938 C 1.113281 3.382812 1.207031 3.226562 1.382812 3.113281 C 1.382812 2.863281 1.507812 2.734375 1.761719 2.734375 C 1.773438 2.585938 1.804688 2.4375 1.855469 2.296875 C 2.078125 2.175781 2.097656 2.027344 1.917969 1.855469 C 2.042969 1.835938 2.125 1.773438 2.167969 1.667969 Z M 2.167969 1.667969 "/>
<path style=" stroke:none;fill-rule:evenodd;fill:rgb(8.235294%,8.235294%,8.235294%);fill-opacity:1;" d="M 2.167969 3.425781 C 2.234375 3.351562 2.296875 3.363281 2.359375 3.460938 C 2.289062 3.488281 2.226562 3.476562 2.167969 3.425781 Z M 2.167969 3.425781 "/>
<path style=" stroke:none;fill-rule:evenodd;fill:rgb(48.235294%,48.235294%,48.235294%);fill-opacity:1;" d="M 2.546875 2.734375 C 2.503906 2.777344 2.464844 2.820312 2.421875 2.863281 C 2.269531 2.878906 2.121094 2.917969 1.980469 2.988281 C 1.960938 2.964844 1.9375 2.945312 1.917969 2.925781 C 2.121094 2.835938 2.332031 2.773438 2.546875 2.734375 Z M 2.546875 2.734375 "/>
<path style=" stroke:none;fill-rule:evenodd;fill:rgb(40%,40%,40%);fill-opacity:1;" d="M 2.421875 2.546875 C 2.390625 2.621094 2.328125 2.664062 2.234375 2.671875 C 2.167969 2.664062 2.105469 2.652344 2.042969 2.640625 C 2.152344 2.558594 2.28125 2.527344 2.421875 2.546875 Z M 2.421875 2.546875 "/>
<path style=" stroke:none;fill-rule:evenodd;fill:rgb(90.980392%,90.980392%,90.980392%);fill-opacity:1;" d="M 2.421875 2.546875 C 2.5 2.390625 2.605469 2.382812 2.734375 2.515625 C 2.652344 2.707031 2.546875 2.714844 2.421875 2.546875 Z M 2.421875 2.546875 "/>
<path style=" stroke:none;fill-rule:evenodd;fill:rgb(93.333333%,93.333333%,93.333333%);fill-opacity:1;" d="M 3.742188 3.425781 C 3.753906 3.554688 3.742188 3.679688 3.710938 3.804688 C 3.667969 3.726562 3.636719 3.726562 3.617188 3.804688 C 3.535156 3.882812 3.535156 3.964844 3.617188 4.054688 C 3.65625 4.050781 3.675781 4.027344 3.679688 3.992188 C 3.722656 3.992188 3.761719 3.992188 3.804688 3.992188 C 3.839844 4.332031 3.839844 4.667969 3.804688 5 C 3.828125 5.074219 3.859375 5.074219 3.898438 5 C 3.933594 5.214844 3.984375 5.425781 4.054688 5.628906 C 4.046875 5.695312 4.023438 5.757812 3.992188 5.816406 C 4.015625 5.894531 4.046875 5.894531 4.089844 5.816406 C 4.058594 6.011719 4.15625 6.140625 4.371094 6.195312 C 4.597656 6.527344 4.828125 6.863281 5.0625 7.203125 C 5.582031 7.53125 6.125 7.800781 6.699219 8.019531 C 6.53125 8.078125 6.367188 8.078125 6.195312 8.019531 C 6.195312 7.976562 6.175781 7.957031 6.132812 7.957031 C 6.089844 7.957031 6.046875 7.957031 6.007812 7.957031 C 5.960938 7.898438 5.898438 7.878906 5.816406 7.894531 C 5.484375 7.933594 5.148438 7.890625 4.8125 7.765625 C 4.800781 7.683594 4.820312 7.609375 4.875 7.546875 C 4.816406 7.515625 4.75 7.507812 4.683594 7.515625 C 4.757812 7.441406 4.757812 7.378906 4.683594 7.328125 C 4.554688 7.195312 4.410156 7.089844 4.246094 7.011719 C 4.085938 6.878906 3.894531 6.796875 3.679688 6.761719 C 3.621094 6.710938 3.558594 6.65625 3.492188 6.605469 C 3.523438 6.59375 3.554688 6.582031 3.585938 6.574219 C 3.683594 6.65625 3.796875 6.699219 3.929688 6.699219 C 3.941406 6.632812 3.929688 6.570312 3.898438 6.507812 C 3.730469 6.464844 3.59375 6.371094 3.492188 6.226562 C 3.578125 6.203125 3.640625 6.152344 3.679688 6.070312 C 3.613281 5.921875 3.519531 5.859375 3.394531 5.878906 C 3.351562 5.828125 3.300781 5.785156 3.238281 5.753906 C 2.96875 5.976562 2.707031 5.953125 2.453125 5.691406 C 2.425781 5.621094 2.457031 5.582031 2.546875 5.566406 C 2.605469 5.574219 2.660156 5.59375 2.703125 5.628906 C 2.71875 5.550781 2.75 5.488281 2.796875 5.441406 C 2.792969 5.402344 2.769531 5.371094 2.734375 5.347656 C 2.804688 5.332031 2.871094 5.296875 2.925781 5.25 C 2.835938 5.042969 2.71875 5.023438 2.578125 5.1875 C 2.558594 5.105469 2.535156 5.019531 2.515625 4.9375 C 2.375 5.136719 2.40625 5.292969 2.609375 5.410156 C 2.578125 5.453125 2.535156 5.484375 2.484375 5.503906 C 2.335938 5.292969 2.191406 5.082031 2.042969 4.875 C 2.097656 4.761719 2.179688 4.730469 2.296875 4.78125 C 2.300781 4.871094 2.324219 4.964844 2.359375 5.0625 C 2.402344 4.925781 2.464844 4.800781 2.546875 4.683594 C 2.390625 4.683594 2.222656 4.664062 2.042969 4.621094 C 2.039062 4.53125 2.058594 4.449219 2.105469 4.371094 C 2.417969 4.339844 2.480469 4.214844 2.296875 3.992188 C 2.582031 3.773438 2.90625 3.605469 3.269531 3.492188 C 3.421875 3.4375 3.582031 3.417969 3.742188 3.425781 Z M 3.742188 3.425781 "/>
<path style=" stroke:none;fill-rule:evenodd;fill:rgb(60.392157%,60.392157%,60.392157%);fill-opacity:1;" d="M 3.867188 3.300781 C 3.867188 3.425781 3.867188 3.554688 3.867188 3.679688 C 3.808594 3.769531 3.789062 3.875 3.804688 3.992188 C 3.761719 3.992188 3.722656 3.992188 3.679688 3.992188 C 3.621094 3.949219 3.601562 3.886719 3.617188 3.804688 C 3.636719 3.726562 3.667969 3.726562 3.710938 3.804688 C 3.742188 3.679688 3.753906 3.554688 3.742188 3.425781 C 3.785156 3.386719 3.824219 3.34375 3.867188 3.300781 Z M 3.867188 3.300781 "/>
<path style=" stroke:none;fill-rule:evenodd;fill:rgb(2.745098%,2.745098%,2.745098%);fill-opacity:1;" d="M 3.617188 3.804688 C 3.601562 3.886719 3.621094 3.949219 3.679688 3.992188 C 3.675781 4.027344 3.65625 4.050781 3.617188 4.054688 C 3.535156 3.964844 3.535156 3.882812 3.617188 3.804688 Z M 3.617188 3.804688 "/>
<path style=" stroke:none;fill-rule:evenodd;fill:rgb(65.490196%,65.490196%,65.490196%);fill-opacity:1;" d="M 2.296875 3.992188 C 2.246094 4.09375 2.164062 4.136719 2.042969 4.121094 C 2.042969 4.054688 2.042969 3.992188 2.042969 3.929688 C 2.136719 3.925781 2.21875 3.949219 2.296875 3.992188 Z M 2.296875 3.992188 "/>
<path style=" stroke:none;fill-rule:evenodd;fill:rgb(25.490196%,25.490196%,25.490196%);fill-opacity:1;" d="M 3.867188 3.679688 C 3.839844 4.558594 4.007812 5.398438 4.371094 6.195312 C 4.15625 6.140625 4.058594 6.011719 4.089844 5.816406 C 4.046875 5.894531 4.015625 5.894531 3.992188 5.816406 C 4.023438 5.757812 4.046875 5.695312 4.054688 5.628906 C 3.984375 5.425781 3.933594 5.214844 3.898438 5 C 3.859375 5.074219 3.828125 5.074219 3.804688 5 C 3.839844 4.667969 3.839844 4.332031 3.804688 3.992188 C 3.789062 3.875 3.808594 3.769531 3.867188 3.679688 Z M 3.867188 3.679688 "/>
<path style=" stroke:none;fill-rule:evenodd;fill:rgb(55.294118%,55.294118%,55.294118%);fill-opacity:1;" d="M 2.734375 4.496094 C 2.707031 4.410156 2.644531 4.367188 2.546875 4.371094 C 2.59375 4.324219 2.65625 4.292969 2.734375 4.277344 C 2.652344 4.171875 2.671875 4.132812 2.796875 4.152344 C 2.882812 4.214844 2.882812 4.277344 2.796875 4.339844 C 2.964844 4.382812 2.964844 4.421875 2.796875 4.464844 C 2.820312 4.488281 2.839844 4.507812 2.863281 4.527344 C 2.800781 4.570312 2.761719 4.5625 2.734375 4.496094 Z M 2.734375 4.496094 "/>
<path style=" stroke:none;fill-rule:evenodd;fill:rgb(9.411765%,9.411765%,9.411765%);fill-opacity:1;" d="M 2.546875 4.371094 C 2.644531 4.367188 2.707031 4.410156 2.734375 4.496094 C 2.640625 4.5 2.578125 4.460938 2.546875 4.371094 Z M 2.546875 4.371094 "/>
<path style=" stroke:none;fill-rule:evenodd;fill:rgb(5.098039%,5.098039%,5.098039%);fill-opacity:1;" d="M 12.105469 4.75 C 12.316406 4.738281 12.527344 4.75 12.734375 4.78125 C 12.824219 4.808594 12.898438 4.863281 12.957031 4.9375 C 12.976562 5.441406 12.996094 5.945312 13.019531 6.445312 C 13.136719 6.539062 13.273438 6.601562 13.425781 6.636719 C 13.171875 6.984375 12.875 7.023438 12.546875 6.761719 C 12.324219 6.851562 12.09375 6.917969 11.855469 6.949219 C 11.527344 6.925781 11.359375 6.746094 11.351562 6.414062 C 11.417969 6.183594 11.5625 6.015625 11.792969 5.910156 C 12.058594 5.847656 12.320312 5.773438 12.578125 5.691406 C 12.621094 5.503906 12.621094 5.316406 12.578125 5.125 C 12.46875 4.992188 12.332031 4.941406 12.167969 4.96875 C 12.050781 5.082031 11.945312 5.207031 11.855469 5.347656 C 11.496094 5.429688 11.414062 5.324219 11.605469 5.03125 C 11.773438 4.929688 11.941406 4.835938 12.105469 4.75 Z M 12.105469 4.75 "/>
<path style=" stroke:none;fill-rule:evenodd;fill:rgb(4.705882%,4.705882%,4.705882%);fill-opacity:1;" d="M 14.371094 4.75 C 14.707031 4.746094 15.042969 4.769531 15.378906 4.8125 C 15.398438 4.980469 15.417969 5.148438 15.441406 5.316406 C 15.207031 5.179688 14.96875 5.050781 14.71875 4.9375 C 14.296875 4.996094 14.222656 5.175781 14.496094 5.472656 C 14.859375 5.617188 15.183594 5.816406 15.472656 6.070312 C 15.570312 6.535156 15.390625 6.820312 14.9375 6.917969 C 14.589844 6.980469 14.253906 6.949219 13.929688 6.824219 C 13.871094 6.660156 13.847656 6.492188 13.867188 6.320312 C 14.066406 6.460938 14.273438 6.597656 14.496094 6.730469 C 14.726562 6.792969 14.925781 6.742188 15.09375 6.574219 C 15.144531 6.433594 15.113281 6.320312 15 6.226562 C 14.71875 6.097656 14.445312 5.949219 14.183594 5.785156 C 13.890625 5.375 13.957031 5.027344 14.371094 4.75 Z M 14.371094 4.75 "/>
<path style=" stroke:none;fill-rule:evenodd;fill:rgb(11.372549%,11.372549%,11.372549%);fill-opacity:1;" d="M 3.425781 4.75 C 3.464844 4.753906 3.496094 4.777344 3.523438 4.8125 C 3.539062 4.910156 3.570312 5.007812 3.617188 5.09375 C 3.558594 5.132812 3.503906 5.121094 3.460938 5.0625 C 3.429688 4.960938 3.417969 4.855469 3.425781 4.75 Z M 3.425781 4.75 "/>
<path style=" stroke:none;fill-rule:evenodd;fill:rgb(21.568627%,21.568627%,21.568627%);fill-opacity:1;" d="M 2.925781 4.8125 C 3.039062 4.875 3.125 4.96875 3.175781 5.09375 C 3.007812 5.214844 2.902344 5.160156 2.863281 4.9375 C 2.882812 4.894531 2.90625 4.851562 2.925781 4.8125 Z M 2.925781 4.8125 "/>
<path style=" stroke:none;fill-rule:evenodd;fill:rgb(70.196078%,70.196078%,70.196078%);fill-opacity:1;" d="M 2.546875 6.824219 C 2.503906 6.804688 2.464844 6.78125 2.421875 6.761719 C 2.429688 6.695312 2.421875 6.632812 2.390625 6.574219 C 2.125 6.246094 1.90625 5.929688 1.730469 5.628906 C 1.675781 5.609375 1.65625 5.566406 1.667969 5.503906 C 1.722656 5.511719 1.765625 5.492188 1.792969 5.441406 C 1.699219 5.265625 1.617188 5.085938 1.539062 4.90625 C 1.558594 4.777344 1.613281 4.746094 1.699219 4.8125 C 1.761719 5.085938 1.855469 5.347656 1.980469 5.597656 C 1.953125 5.625 1.929688 5.65625 1.917969 5.691406 C 2.070312 6.019531 2.269531 6.3125 2.515625 6.574219 C 2.546875 6.652344 2.558594 6.738281 2.546875 6.824219 Z M 2.546875 6.824219 "/>
<path style=" stroke:none;fill-rule:evenodd;fill:rgb(10.196078%,10.196078%,10.196078%);fill-opacity:1;" d="M 2.796875 5.441406 C 2.917969 5.511719 2.949219 5.617188 2.894531 5.753906 C 2.855469 5.652344 2.824219 5.546875 2.796875 5.441406 Z M 2.796875 5.441406 "/>
<path style=" stroke:none;fill-rule:evenodd;fill:rgb(94.117647%,94.117647%,94.117647%);fill-opacity:1;" d="M 12.167969 5.945312 C 12.316406 5.945312 12.464844 5.945312 12.609375 5.945312 C 12.746094 6.503906 12.535156 6.746094 11.980469 6.667969 C 11.878906 6.597656 11.816406 6.503906 11.792969 6.382812 C 11.875 6.195312 12 6.050781 12.167969 5.945312 Z M 12.167969 5.945312 "/>
<path style=" stroke:none;fill-rule:evenodd;fill:rgb(84.705882%,84.705882%,84.705882%);fill-opacity:1;" d="M 2.863281 6.070312 C 2.972656 6.050781 3.078125 6.070312 3.175781 6.132812 C 3.164062 6.167969 3.140625 6.199219 3.113281 6.226562 C 3.503906 6.707031 3.441406 6.800781 2.925781 6.507812 C 2.828125 6.363281 2.808594 6.21875 2.863281 6.070312 Z M 2.863281 6.070312 "/>
<path style=" stroke:none;fill-rule:evenodd;fill:rgb(16.862745%,16.862745%,16.862745%);fill-opacity:1;" d="M 2.421875 6.761719 C 2.296875 6.683594 2.203125 6.578125 2.136719 6.445312 C 1.96875 6.191406 1.832031 5.917969 1.730469 5.628906 C 1.90625 5.929688 2.125 6.246094 2.390625 6.574219 C 2.421875 6.632812 2.429688 6.695312 2.421875 6.761719 Z M 2.421875 6.761719 "/>
<path style=" stroke:none;fill-rule:evenodd;fill:rgb(14.509804%,14.509804%,14.509804%);fill-opacity:1;" d="M 2.421875 6.761719 C 2.464844 6.78125 2.503906 6.804688 2.546875 6.824219 C 2.546875 6.867188 2.546875 6.90625 2.546875 6.949219 C 2.457031 6.921875 2.417969 6.855469 2.421875 6.761719 Z M 2.421875 6.761719 "/>
<path style=" stroke:none;fill-rule:evenodd;fill:rgb(89.803922%,89.803922%,89.803922%);fill-opacity:1;" d="M 3.617188 6.949219 C 3.617188 6.992188 3.617188 7.035156 3.617188 7.074219 C 3.417969 7.109375 3.25 7.058594 3.113281 6.917969 C 3.28125 6.890625 3.449219 6.902344 3.617188 6.949219 Z M 3.617188 6.949219 "/>
<path style=" stroke:none;fill-rule:evenodd;fill:rgb(36.862745%,36.862745%,36.862745%);fill-opacity:1;" d="M 3.679688 6.761719 C 3.894531 6.796875 4.085938 6.878906 4.246094 7.011719 C 4.042969 7.050781 3.835938 7.070312 3.617188 7.074219 C 3.617188 7.035156 3.617188 6.992188 3.617188 6.949219 C 3.585938 6.890625 3.546875 6.835938 3.492188 6.792969 C 3.550781 6.761719 3.613281 6.75 3.679688 6.761719 Z M 3.679688 6.761719 "/>
<path style=" stroke:none;fill-rule:evenodd;fill:rgb(82.745098%,82.745098%,82.745098%);fill-opacity:1;" d="M 2.546875 6.824219 C 2.84375 7.035156 3.128906 7.265625 3.394531 7.515625 C 3.441406 7.566406 3.429688 7.609375 3.363281 7.640625 C 3.308594 7.601562 3.246094 7.582031 3.175781 7.578125 C 2.988281 7.347656 2.777344 7.136719 2.546875 6.949219 C 2.546875 6.90625 2.546875 6.867188 2.546875 6.824219 Z M 2.546875 6.824219 "/>
<path style=" stroke:none;fill-rule:evenodd;fill:rgb(31.372549%,31.372549%,31.372549%);fill-opacity:1;" d="M 3.929688 7.203125 C 3.957031 7.136719 3.996094 7.125 4.054688 7.167969 C 4.230469 7.378906 4.1875 7.449219 3.929688 7.390625 C 3.914062 7.3125 3.914062 7.25 3.929688 7.203125 Z M 3.929688 7.203125 "/>
<path style=" stroke:none;fill-rule:evenodd;fill:rgb(16.470588%,16.470588%,16.470588%);fill-opacity:1;" d="M 2.546875 6.949219 C 2.777344 7.136719 2.988281 7.347656 3.175781 7.578125 C 2.902344 7.433594 2.695312 7.222656 2.546875 6.949219 Z M 2.546875 6.949219 "/>
<path style=" stroke:none;fill-rule:evenodd;fill:rgb(57.647059%,57.647059%,57.647059%);fill-opacity:1;" d="M 4.683594 7.328125 C 4.757812 7.378906 4.757812 7.441406 4.683594 7.515625 C 4.511719 7.546875 4.386719 7.484375 4.308594 7.328125 C 4.429688 7.363281 4.554688 7.363281 4.683594 7.328125 Z M 4.683594 7.328125 "/>
<path style=" stroke:none;fill-rule:evenodd;fill:rgb(39.215686%,39.215686%,39.215686%);fill-opacity:1;" d="M 8.269531 7.894531 C 8.453125 7.875 8.621094 7.894531 8.773438 7.957031 C 8.6875 8.003906 8.589844 8.046875 8.492188 8.082031 C 8.304688 8.074219 8.292969 8.042969 8.460938 7.988281 C 8.382812 7.972656 8.320312 7.941406 8.269531 7.894531 Z M 8.269531 7.894531 "/>
<path style=" stroke:none;fill-rule:evenodd;fill:rgb(43.529412%,43.529412%,43.529412%);fill-opacity:1;" d="M 4.054688 7.957031 C 4.003906 8.007812 4.023438 8.058594 4.121094 8.113281 C 4.246094 8.136719 4.347656 8.1875 4.433594 8.269531 C 4.117188 8.226562 3.847656 8.101562 3.617188 7.894531 C 3.761719 7.847656 3.90625 7.824219 4.054688 7.832031 C 4.117188 7.859375 4.117188 7.902344 4.054688 7.957031 Z M 4.054688 7.957031 "/>
<path style=" stroke:none;fill-rule:evenodd;fill:rgb(83.921569%,83.921569%,83.921569%);fill-opacity:1;" d="M 5.816406 7.894531 C 5.816406 7.957031 5.816406 8.019531 5.816406 8.082031 C 5.507812 8.074219 5.507812 8.007812 5.816406 7.894531 Z M 5.816406 7.894531 "/>
<path style=" stroke:none;fill-rule:evenodd;fill:rgb(42.745098%,42.745098%,42.745098%);fill-opacity:1;" d="M 6.132812 7.957031 C 6.175781 7.957031 6.195312 7.976562 6.195312 8.019531 C 6.242188 8.117188 6.324219 8.167969 6.445312 8.175781 C 6.414062 8.207031 6.382812 8.238281 6.351562 8.269531 C 6.128906 8.25 6.054688 8.144531 6.132812 7.957031 Z M 6.132812 7.957031 "/>
<path style=" stroke:none;fill-rule:evenodd;fill:rgb(74.117647%,74.117647%,74.117647%);fill-opacity:1;" d="M 6.949219 7.957031 C 7.1875 7.933594 7.417969 7.964844 7.640625 8.050781 C 7.527344 8.0625 7.410156 8.070312 7.296875 8.082031 C 7.152344 8.078125 7.035156 8.035156 6.949219 7.957031 Z M 6.949219 7.957031 "/>
<path style=" stroke:none;fill-rule:evenodd;fill:rgb(56.862745%,56.862745%,56.862745%);fill-opacity:1;" d="M 6.007812 7.957031 C 6 8.046875 5.96875 8.132812 5.910156 8.207031 C 5.859375 8.085938 5.890625 8 6.007812 7.957031 Z M 6.007812 7.957031 "/>
<path style=" stroke:none;fill-rule:evenodd;fill:rgb(65.490196%,65.490196%,65.490196%);fill-opacity:1;" d="M 4.054688 7.957031 C 4.382812 8.117188 4.738281 8.210938 5.125 8.238281 C 5.0625 8.261719 5 8.28125 4.9375 8.300781 C 5.0625 8.332031 5.1875 8.34375 5.316406 8.332031 C 5.1875 8.375 5.0625 8.417969 4.9375 8.460938 C 4.753906 8.425781 4.585938 8.363281 4.433594 8.269531 C 4.347656 8.1875 4.246094 8.136719 4.121094 8.113281 C 4.023438 8.058594 4.003906 8.007812 4.054688 7.957031 Z M 4.054688 7.957031 "/>
<path style=" stroke:none;fill-rule:evenodd;fill:rgb(56.078431%,56.078431%,56.078431%);fill-opacity:1;" d="M 5.316406 8.332031 C 5.804688 8.359375 6.285156 8.421875 6.761719 8.523438 C 6.625 8.5625 6.480469 8.585938 6.320312 8.585938 C 5.859375 8.546875 5.398438 8.503906 4.9375 8.460938 C 5.0625 8.417969 5.1875 8.375 5.316406 8.332031 Z M 5.316406 8.332031 "/>
</g>
</svg>
