<?xml version="1.0" encoding="UTF-8"?>
<svg xmlns="http://www.w3.org/2000/svg" xmlns:xlink="http://www.w3.org/1999/xlink" width="20px" height="59px" viewBox="0 0 20 20" version="1.1">
<defs>
<filter id="alpha" filterUnits="objectBoundingBox" x="0%" y="0%" width="100%" height="100%">
  <feColorMatrix type="matrix" in="SourceGraphic" values="0 0 0 0 1 0 0 0 0 1 0 0 0 0 1 0 0 0 1 0"/>
</filter>
<mask id="mask0">
  <g filter="url(#alpha)">
<rect x="0" y="0" width="20" height="20" style="fill:rgb(0%,0%,0%);fill-opacity:0.976471;stroke:none;"/>
  </g>
</mask>
<clipPath id="clip1">
  <rect x="0" y="0" width="20" height="20"/>
</clipPath>
<g id="surface5" clip-path="url(#clip1)">
<path style=" stroke:none;fill-rule:evenodd;fill:rgb(8.627451%,8.235294%,8.235294%);fill-opacity:1;" d="M 19.964844 9.132812 C 19.964844 9.828125 19.964844 10.519531 19.964844 11.214844 C 19.375 15.328125 17.152344 18.140625 13.296875 19.652344 C 12.949219 19.757812 12.660156 19.675781 12.429688 19.410156 C 12.40625 18.207031 12.382812 17.003906 12.359375 15.796875 C 12.273438 15.347656 12.078125 14.957031 11.769531 14.617188 C 15.101562 14.214844 16.59375 12.339844 16.25 8.992188 C 16.214844 8.652344 16.121094 8.328125 15.972656 8.019531 C 15.769531 7.636719 15.546875 7.265625 15.3125 6.910156 C 15.519531 6.066406 15.484375 5.230469 15.207031 4.410156 C 14.996094 4.332031 14.773438 4.320312 14.546875 4.375 C 13.800781 4.628906 13.09375 4.964844 12.429688 5.382812 C 10.785156 4.917969 9.144531 4.917969 7.5 5.382812 C 6.835938 4.964844 6.128906 4.628906 5.382812 4.375 C 5.152344 4.339844 4.921875 4.328125 4.6875 4.339844 C 4.589844 4.835938 4.5 5.332031 4.410156 5.832031 C 4.46875 6.195312 4.539062 6.554688 4.617188 6.910156 C 3.746094 8.035156 3.433594 9.308594 3.679688 10.730469 C 3.851562 12.339844 4.675781 13.460938 6.144531 14.097656 C 6.800781 14.335938 7.472656 14.511719 8.160156 14.617188 C 7.808594 14.957031 7.613281 15.375 7.570312 15.867188 C 6.171875 16.558594 5.109375 16.214844 4.375 14.828125 C 3.957031 14.292969 3.414062 14.074219 2.742188 14.167969 C 2.707031 14.207031 2.683594 14.25 2.671875 14.304688 C 2.972656 14.601562 3.285156 14.890625 3.609375 15.171875 C 3.902344 15.617188 4.15625 16.078125 4.375 16.5625 C 5.160156 17.332031 6.097656 17.597656 7.1875 17.359375 C 7.277344 17.339844 7.355469 17.304688 7.429688 17.257812 C 7.578125 18.027344 7.566406 18.789062 7.394531 19.546875 C 7.359375 19.597656 7.3125 19.632812 7.257812 19.652344 C 7.046875 19.699219 6.839844 19.699219 6.632812 19.652344 C 2.867188 18.152344 0.644531 15.410156 -0.0351562 11.421875 C -0.0351562 10.613281 -0.0351562 9.804688 -0.0351562 8.992188 C 0.679688 4.796875 3.039062 1.984375 7.046875 0.554688 C 11.980469 -0.566406 15.832031 0.925781 18.609375 5.035156 C 19.332031 6.320312 19.78125 7.6875 19.964844 9.132812 Z M 19.964844 9.132812 "/>
</g>
<mask id="mask1">
  <g filter="url(#alpha)">
<rect x="0" y="0" width="20" height="20" style="fill:rgb(0%,0%,0%);fill-opacity:0.631373;stroke:none;"/>
  </g>
</mask>
<clipPath id="clip2">
  <rect x="0" y="0" width="20" height="20"/>
</clipPath>
<g id="surface8" clip-path="url(#clip2)">
<path style=" stroke:none;fill-rule:evenodd;fill:rgb(8.627451%,8.235294%,8.235294%);fill-opacity:1;" d="M 3.507812 14.339844 C 3.714844 14.316406 3.808594 14.410156 3.785156 14.617188 C 3.554688 14.621094 3.464844 14.527344 3.507812 14.339844 Z M 3.507812 14.339844 "/>
</g>
<mask id="mask2">
  <g filter="url(#alpha)">
<rect x="0" y="0" width="20" height="20" style="fill:rgb(0%,0%,0%);fill-opacity:0.65098;stroke:none;"/>
  </g>
</mask>
<clipPath id="clip3">
  <rect x="0" y="0" width="20" height="20"/>
</clipPath>
<g id="surface11" clip-path="url(#clip3)">
<path style=" stroke:none;fill-rule:evenodd;fill:rgb(8.627451%,8.235294%,8.235294%);fill-opacity:1;" d="M 3.855469 14.6875 C 4.132812 14.640625 4.246094 14.757812 4.203125 15.035156 C 3.96875 15.035156 3.855469 14.917969 3.855469 14.6875 Z M 3.855469 14.6875 "/>
</g>
<mask id="mask3">
  <g filter="url(#alpha)">
<rect x="0" y="0" width="20" height="20" style="fill:rgb(0%,0%,0%);fill-opacity:0.705882;stroke:none;"/>
  </g>
</mask>
<clipPath id="clip4">
  <rect x="0" y="0" width="20" height="20"/>
</clipPath>
<g id="surface14" clip-path="url(#clip4)">
<path style=" stroke:none;fill-rule:evenodd;fill:rgb(8.627451%,8.235294%,8.235294%);fill-opacity:1;" d="M 4.339844 15.171875 C 4.566406 15.21875 4.660156 15.355469 4.617188 15.589844 C 4.289062 15.609375 4.195312 15.472656 4.339844 15.171875 Z M 4.339844 15.171875 "/>
</g>
<mask id="mask4">
  <g filter="url(#alpha)">
<rect x="0" y="0" width="20" height="20" style="fill:rgb(0%,0%,0%);fill-opacity:0.698039;stroke:none;"/>
  </g>
</mask>
<clipPath id="clip5">
  <rect x="0" y="0" width="20" height="20"/>
</clipPath>
<g id="surface17" clip-path="url(#clip5)">
<path style=" stroke:none;fill-rule:evenodd;fill:rgb(8.627451%,8.235294%,8.235294%);fill-opacity:1;" d="M 4.6875 15.796875 C 4.921875 15.75 5.085938 15.832031 5.171875 16.042969 C 5.03125 16.238281 4.882812 16.226562 4.722656 16.007812 C 4.6875 15.941406 4.675781 15.871094 4.6875 15.796875 Z M 4.6875 15.796875 "/>
</g>
<mask id="mask5">
  <g filter="url(#alpha)">
<rect x="0" y="0" width="20" height="20" style="fill:rgb(0%,0%,0%);fill-opacity:0.745098;stroke:none;"/>
  </g>
</mask>
<clipPath id="clip6">
  <rect x="0" y="0" width="20" height="20"/>
</clipPath>
<g id="surface20" clip-path="url(#clip6)">
<path style=" stroke:none;fill-rule:evenodd;fill:rgb(8.627451%,8.235294%,8.235294%);fill-opacity:1;" d="M 5.453125 16.214844 C 5.570312 16.203125 5.683594 16.214844 5.796875 16.25 C 5.902344 16.515625 5.808594 16.609375 5.519531 16.527344 C 5.378906 16.441406 5.355469 16.339844 5.453125 16.214844 Z M 5.453125 16.214844 "/>
</g>
<mask id="mask6">
  <g filter="url(#alpha)">
<rect x="0" y="0" width="20" height="20" style="fill:rgb(0%,0%,0%);fill-opacity:0.666667;stroke:none;"/>
  </g>
</mask>
<clipPath id="clip7">
  <rect x="0" y="0" width="20" height="20"/>
</clipPath>
<g id="surface23" clip-path="url(#clip7)">
<path style=" stroke:none;fill-rule:evenodd;fill:rgb(8.627451%,8.235294%,8.235294%);fill-opacity:1;" d="M 7.117188 16.214844 C 7.546875 16.292969 7.570312 16.433594 7.1875 16.632812 C 7.082031 16.589844 6.992188 16.535156 6.910156 16.457031 C 6.992188 16.386719 7.0625 16.304688 7.117188 16.214844 Z M 7.117188 16.214844 "/>
</g>
<mask id="mask7">
  <g filter="url(#alpha)">
<rect x="0" y="0" width="20" height="20" style="fill:rgb(0%,0%,0%);fill-opacity:0.705882;stroke:none;"/>
  </g>
</mask>
<clipPath id="clip8">
  <rect x="0" y="0" width="20" height="20"/>
</clipPath>
<g id="surface26" clip-path="url(#clip8)">
<path style=" stroke:none;fill-rule:evenodd;fill:rgb(8.627451%,8.235294%,8.235294%);fill-opacity:1;" d="M 6.214844 16.355469 C 6.355469 16.34375 6.496094 16.355469 6.632812 16.390625 C 6.71875 16.5 6.695312 16.589844 6.5625 16.667969 C 6.285156 16.75 6.167969 16.644531 6.214844 16.355469 Z M 6.214844 16.355469 "/>
</g>
</defs>
<g id="surface1">
<use xlink:href="#surface5" mask="url(#mask0)"/>
<use xlink:href="#surface8" mask="url(#mask1)"/>
<use xlink:href="#surface11" mask="url(#mask2)"/>
<use xlink:href="#surface14" mask="url(#mask3)"/>
<use xlink:href="#surface17" mask="url(#mask4)"/>
<use xlink:href="#surface20" mask="url(#mask5)"/>
<use xlink:href="#surface23" mask="url(#mask6)"/>
<use xlink:href="#surface26" mask="url(#mask7)"/>
</g>
</svg>
