<?xml version="1.0" encoding="UTF-8"?>
<svg xmlns="http://www.w3.org/2000/svg" xmlns:xlink="http://www.w3.org/1999/xlink" width="20px" height="59px" viewBox="0 0 20 20" version="1.1">
<defs>
<filter id="alpha" filterUnits="objectBoundingBox" x="0%" y="0%" width="100%" height="100%">
  <feColorMatrix type="matrix" in="SourceGraphic" values="0 0 0 0 1 0 0 0 0 1 0 0 0 0 1 0 0 0 1 0"/>
</filter>
<mask id="mask0">
  <g filter="url(#alpha)">
<rect x="0" y="0" width="20" height="20" style="fill:rgb(0%,0%,0%);fill-opacity:0.721569;stroke:none;"/>
  </g>
</mask>
<clipPath id="clip1">
  <rect x="0" y="0" width="20" height="20"/>
</clipPath>
<g id="surface5" clip-path="url(#clip1)">
<path style=" stroke:none;fill-rule:evenodd;fill:rgb(0%,0%,0%);fill-opacity:1;" d="M 3.992188 -0.0351562 C 4.410156 -0.0351562 4.828125 -0.0351562 5.242188 -0.0351562 C 5.230469 0.222656 5.242188 0.476562 5.277344 0.730469 C 5.417969 0.636719 5.554688 0.636719 5.695312 0.730469 C 5.730469 0.476562 5.742188 0.222656 5.730469 -0.0351562 C 6.144531 -0.0351562 6.5625 -0.0351562 6.980469 -0.0351562 C 7.003906 0.914062 6.980469 1.863281 6.910156 2.8125 C 6.515625 2.898438 6.125 2.898438 5.730469 2.8125 C 5.707031 2.515625 5.730469 2.226562 5.796875 1.945312 C 5.613281 1.910156 5.429688 1.898438 5.242188 1.910156 C 5.265625 2.214844 5.242188 2.515625 5.171875 2.8125 C 5.003906 2.855469 4.832031 2.878906 4.652344 2.882812 C 4.425781 2.894531 4.21875 2.847656 4.027344 2.742188 C 3.992188 1.816406 3.980469 0.890625 3.992188 -0.0351562 Z M 3.992188 -0.0351562 "/>
</g>
<mask id="mask1">
  <g filter="url(#alpha)">
<rect x="0" y="0" width="20" height="20" style="fill:rgb(0%,0%,0%);fill-opacity:0.741176;stroke:none;"/>
  </g>
</mask>
<clipPath id="clip2">
  <rect x="0" y="0" width="20" height="20"/>
</clipPath>
<g id="surface8" clip-path="url(#clip2)">
<path style=" stroke:none;fill-rule:evenodd;fill:rgb(0%,0%,0%);fill-opacity:1;" d="M 7.046875 -0.0351562 C 7.996094 -0.0351562 8.945312 -0.0351562 9.894531 -0.0351562 C 9.90625 0.289062 9.894531 0.613281 9.859375 0.9375 C 9.601562 0.992188 9.335938 1.027344 9.0625 1.042969 C 9.15625 1.621094 9.15625 2.199219 9.0625 2.777344 C 8.695312 2.902344 8.328125 2.914062 7.953125 2.8125 C 7.882812 2.210938 7.859375 1.609375 7.882812 1.007812 C 7.628906 1.007812 7.371094 1.007812 7.117188 1.007812 C 7.058594 0.664062 7.039062 0.316406 7.046875 -0.0351562 Z M 7.046875 -0.0351562 "/>
</g>
<mask id="mask2">
  <g filter="url(#alpha)">
<rect x="0" y="0" width="20" height="20" style="fill:rgb(0%,0%,0%);fill-opacity:0.792157;stroke:none;"/>
  </g>
</mask>
<clipPath id="clip3">
  <rect x="0" y="0" width="20" height="20"/>
</clipPath>
<g id="surface11" clip-path="url(#clip3)">
<path style=" stroke:none;fill-rule:evenodd;fill:rgb(0%,0%,0%);fill-opacity:1;" d="M 10.035156 -0.0351562 C 10.429688 -0.0351562 10.820312 -0.0351562 11.214844 -0.0351562 C 11.339844 0.164062 11.457031 0.371094 11.5625 0.589844 C 11.773438 0.421875 11.9375 0.214844 12.046875 -0.0351562 C 12.441406 -0.0351562 12.835938 -0.0351562 13.230469 -0.0351562 C 13.242188 0.914062 13.230469 1.863281 13.195312 2.8125 C 12.886719 2.890625 12.574219 2.902344 12.257812 2.847656 C 12.222656 2.8125 12.1875 2.777344 12.152344 2.742188 C 12.128906 2.417969 12.105469 2.09375 12.082031 1.769531 C 11.792969 2.65625 11.492188 2.679688 11.179688 1.839844 C 11.15625 2.140625 11.132812 2.441406 11.109375 2.742188 C 11.078125 2.777344 11.042969 2.8125 11.007812 2.847656 C 10.6875 2.902344 10.375 2.890625 10.070312 2.8125 C 10.035156 1.863281 10.023438 0.914062 10.035156 -0.0351562 Z M 10.035156 -0.0351562 "/>
</g>
<mask id="mask3">
  <g filter="url(#alpha)">
<rect x="0" y="0" width="20" height="20" style="fill:rgb(0%,0%,0%);fill-opacity:0.729412;stroke:none;"/>
  </g>
</mask>
<clipPath id="clip4">
  <rect x="0" y="0" width="20" height="20"/>
</clipPath>
<g id="surface14" clip-path="url(#clip4)">
<path style=" stroke:none;fill-rule:evenodd;fill:rgb(0%,0%,0%);fill-opacity:1;" d="M 13.507812 -0.0351562 C 13.902344 -0.0351562 14.292969 -0.0351562 14.6875 -0.0351562 C 14.707031 0.5 14.683594 1.035156 14.617188 1.5625 C 15.054688 1.632812 15.496094 1.65625 15.9375 1.632812 C 15.9375 2.027344 15.9375 2.417969 15.9375 2.8125 C 15.136719 2.902344 14.335938 2.902344 13.542969 2.8125 C 13.507812 1.863281 13.496094 0.914062 13.507812 -0.0351562 Z M 13.507812 -0.0351562 "/>
</g>
<mask id="mask4">
  <g filter="url(#alpha)">
<rect x="0" y="0" width="20" height="20" style="fill:rgb(0%,0%,0%);fill-opacity:0.909804;stroke:none;"/>
  </g>
</mask>
<clipPath id="clip5">
  <rect x="0" y="0" width="20" height="20"/>
</clipPath>
<g id="surface17" clip-path="url(#clip5)">
<path style=" stroke:none;fill-rule:evenodd;fill:rgb(89.411765%,29.803922%,14.509804%);fill-opacity:1;" d="M 10.519531 19.964844 C 10.152344 19.964844 9.78125 19.964844 9.410156 19.964844 C 7.628906 19.523438 5.847656 19.015625 4.0625 18.4375 C 3.621094 13.542969 3.15625 8.65625 2.671875 3.785156 C 7.511719 3.691406 12.351562 3.691406 17.1875 3.785156 C 17.210938 3.902344 17.234375 4.015625 17.257812 4.132812 C 17.15625 4.683594 17.097656 5.238281 17.082031 5.796875 C 17.058594 5.777344 17.035156 5.753906 17.015625 5.730469 C 16.699219 9.097656 16.421875 12.476562 16.179688 15.867188 C 16.109375 16.726562 16.007812 17.585938 15.867188 18.4375 C 14.082031 19.015625 12.300781 19.523438 10.519531 19.964844 Z M 10.519531 19.964844 "/>
</g>
</defs>
<g id="surface1">
<use xlink:href="#surface5" mask="url(#mask0)"/>
<use xlink:href="#surface8" mask="url(#mask1)"/>
<use xlink:href="#surface11" mask="url(#mask2)"/>
<use xlink:href="#surface14" mask="url(#mask3)"/>
<use xlink:href="#surface17" mask="url(#mask4)"/>
<path style=" stroke:none;fill-rule:evenodd;fill:rgb(94.117647%,39.215686%,15.686275%);fill-opacity:1;" d="M 14.617188 17.464844 C 13.0625 17.863281 11.511719 18.28125 9.964844 18.714844 C 10.007812 18.09375 9.960938 17.492188 9.828125 16.910156 C 9.917969 16.910156 10.011719 16.910156 10.105469 16.910156 C 10.234375 16.890625 10.351562 16.84375 10.453125 16.769531 C 10.617188 16.683594 10.804688 16.636719 11.007812 16.632812 C 11.3125 16.597656 11.589844 16.507812 11.839844 16.355469 C 11.933594 16.355469 12.027344 16.355469 12.117188 16.355469 C 12.300781 16.359375 12.464844 16.3125 12.605469 16.214844 C 12.789062 16.222656 12.949219 16.175781 13.089844 16.078125 C 13.25 16.039062 13.410156 16.003906 13.578125 15.972656 C 13.628906 15.925781 13.652344 15.867188 13.644531 15.796875 C 13.714844 15.511719 13.738281 15.210938 13.714844 14.894531 C 13.789062 14.421875 13.835938 13.9375 13.855469 13.4375 C 13.890625 13.089844 13.914062 12.746094 13.921875 12.394531 C 14.035156 11.738281 14.078125 11.066406 14.0625 10.382812 C 12.695312 10.382812 11.332031 10.382812 9.964844 10.382812 C 9.964844 10.359375 9.964844 10.335938 9.964844 10.3125 C 11.332031 10.324219 12.695312 10.3125 14.0625 10.277344 C 12.683594 10.265625 11.320312 10.230469 9.964844 10.171875 C 9.964844 9.757812 9.964844 9.339844 9.964844 8.921875 C 15.613281 8.878906 15.613281 8.832031 9.964844 8.785156 C 9.964844 8.761719 9.964844 8.738281 9.964844 8.714844 C 11.421875 8.714844 12.882812 8.714844 14.339844 8.714844 C 14.339844 8.597656 14.339844 8.484375 14.339844 8.367188 C 14.339844 8.136719 14.339844 7.90625 14.339844 7.671875 C 14.339844 7.628906 14.339844 7.582031 14.339844 7.535156 C 14.441406 7.421875 14.488281 7.285156 14.480469 7.117188 C 14.476562 7.007812 14.453125 6.902344 14.410156 6.804688 C 12.929688 6.769531 11.445312 6.757812 9.964844 6.769531 C 11.433594 6.714844 12.917969 6.679688 14.410156 6.667969 C 12.917969 6.65625 11.433594 6.621094 9.964844 6.5625 C 10.035156 6.089844 10.058594 5.601562 10.035156 5.105469 C 11.933594 5.105469 13.832031 5.105469 15.730469 5.105469 C 15.367188 9.226562 14.996094 13.34375 14.617188 17.464844 Z M 14.617188 17.464844 "/>
<path style=" stroke:none;fill-rule:evenodd;fill:rgb(89.803922%,42.745098%,30.588235%);fill-opacity:1;" d="M 9.964844 6.769531 C 9.964844 6.792969 9.964844 6.816406 9.964844 6.839844 C 8.496094 6.816406 7.035156 6.839844 5.589844 6.910156 C 5.523438 7.03125 5.5 7.171875 5.519531 7.328125 C 5.457031 7.277344 5.433594 7.207031 5.453125 7.117188 C 5.4375 7.003906 5.460938 6.898438 5.519531 6.804688 C 7.003906 6.769531 8.484375 6.757812 9.964844 6.769531 Z M 9.964844 6.769531 "/>
<path style=" stroke:none;fill-rule:evenodd;fill:rgb(95.686275%,52.941176%,34.901961%);fill-opacity:1;" d="M 9.964844 6.839844 C 9.964844 6.816406 9.964844 6.792969 9.964844 6.769531 C 11.445312 6.757812 12.929688 6.769531 14.410156 6.804688 C 14.453125 6.902344 14.476562 7.007812 14.480469 7.117188 C 14.488281 7.285156 14.441406 7.421875 14.339844 7.535156 C 14.339844 7.304688 14.339844 7.070312 14.339844 6.839844 C 12.882812 6.839844 11.421875 6.839844 9.964844 6.839844 Z M 9.964844 6.839844 "/>
<path style=" stroke:none;fill-rule:evenodd;fill:rgb(98.039216%,84.313725%,78.823529%);fill-opacity:1;" d="M 5.589844 6.910156 C 7.035156 6.839844 8.496094 6.816406 9.964844 6.839844 C 11.421875 6.839844 12.882812 6.839844 14.339844 6.839844 C 14.339844 7.070312 14.339844 7.304688 14.339844 7.535156 C 14.339844 7.582031 14.339844 7.628906 14.339844 7.671875 C 14.292969 7.789062 14.246094 7.90625 14.203125 8.019531 C 14.21875 7.671875 14.242188 7.324219 14.269531 6.980469 C 12.835938 6.980469 11.402344 6.980469 9.964844 6.980469 C 8.519531 6.910156 7.0625 6.886719 5.589844 6.910156 Z M 5.589844 6.910156 "/>
<path style=" stroke:none;fill-rule:evenodd;fill:rgb(99.607843%,99.607843%,99.607843%);fill-opacity:1;" d="M 9.964844 6.980469 C 11.402344 6.980469 12.835938 6.980469 14.269531 6.980469 C 14.242188 7.324219 14.21875 7.671875 14.203125 8.019531 C 14.203125 8.207031 14.203125 8.390625 14.203125 8.578125 C 12.789062 8.578125 11.378906 8.578125 9.964844 8.578125 C 9.964844 8.066406 9.964844 7.558594 9.964844 7.046875 C 9.964844 7.027344 9.964844 7.003906 9.964844 6.980469 Z M 9.964844 6.980469 "/>
<path style=" stroke:none;fill-rule:evenodd;fill:rgb(92.156863%,94.901961%,95.294118%);fill-opacity:1;" d="M 5.589844 6.910156 C 7.0625 6.886719 8.519531 6.910156 9.964844 6.980469 C 9.964844 7.003906 9.964844 7.027344 9.964844 7.046875 C 8.605469 7.117188 7.238281 7.140625 5.867188 7.117188 C 5.859375 7.875 5.90625 8.628906 6.007812 9.375 C 5.996094 9.640625 5.984375 9.90625 5.972656 10.171875 C 5.953125 10.109375 5.917969 10.0625 5.867188 10.035156 C 5.886719 9.625 5.839844 9.230469 5.730469 8.855469 C 5.730469 8.203125 5.683594 7.554688 5.589844 6.910156 Z M 5.589844 6.910156 "/>
<path style=" stroke:none;fill-rule:evenodd;fill:rgb(92.156863%,92.156863%,92.156863%);fill-opacity:1;" d="M 9.964844 7.046875 C 9.964844 7.558594 9.964844 8.066406 9.964844 8.578125 C 9.121094 8.554688 8.285156 8.578125 7.464844 8.644531 C 7.464844 8.738281 7.464844 8.832031 7.464844 8.921875 C 7.484375 9.421875 7.53125 9.910156 7.605469 10.382812 C 7.625 10.488281 7.695312 10.535156 7.8125 10.519531 C 7.757812 10.574219 7.691406 10.609375 7.605469 10.625 C 8.367188 10.660156 9.132812 10.671875 9.894531 10.660156 C 9.894531 11.078125 9.894531 11.492188 9.894531 11.910156 C 8.691406 11.910156 7.488281 11.910156 6.285156 11.910156 C 6.183594 11.453125 6.125 10.992188 6.109375 10.519531 C 6.089844 10.496094 6.066406 10.472656 6.042969 10.453125 C 6.007812 10.636719 5.996094 10.820312 6.007812 11.007812 C 5.960938 10.84375 5.914062 10.683594 5.867188 10.519531 C 5.867188 10.472656 5.867188 10.429688 5.867188 10.382812 C 5.867188 10.265625 5.867188 10.152344 5.867188 10.035156 C 5.917969 10.0625 5.953125 10.109375 5.972656 10.171875 C 5.984375 9.90625 5.996094 9.640625 6.007812 9.375 C 5.90625 8.628906 5.859375 7.875 5.867188 7.117188 C 7.238281 7.140625 8.605469 7.117188 9.964844 7.046875 Z M 9.964844 7.046875 "/>
<path style=" stroke:none;fill-rule:evenodd;fill:rgb(89.019608%,25.098039%,8.627451%);fill-opacity:1;" d="M 5.453125 7.117188 C 5.433594 7.207031 5.457031 7.277344 5.519531 7.328125 C 5.519531 7.394531 5.519531 7.464844 5.519531 7.535156 C 5.507812 7.976562 5.519531 8.414062 5.554688 8.855469 C 5.570312 8.941406 5.605469 9.007812 5.660156 9.0625 C 5.640625 9.695312 5.6875 10.320312 5.796875 10.9375 C 5.820312 11.195312 5.796875 11.449219 5.730469 11.703125 C 5.597656 10.171875 5.433594 8.644531 5.242188 7.117188 C 5.3125 6.753906 5.382812 6.753906 5.453125 7.117188 Z M 5.453125 7.117188 "/>
<path style=" stroke:none;fill-rule:evenodd;fill:rgb(91.372549%,65.882353%,58.823529%);fill-opacity:1;" d="M 5.589844 6.910156 C 5.683594 7.554688 5.730469 8.203125 5.730469 8.855469 C 5.730469 8.921875 5.730469 8.992188 5.730469 9.0625 C 5.707031 9.0625 5.683594 9.0625 5.660156 9.0625 C 5.640625 8.539062 5.59375 8.03125 5.519531 7.535156 C 5.519531 7.464844 5.519531 7.394531 5.519531 7.328125 C 5.5 7.171875 5.523438 7.03125 5.589844 6.910156 Z M 5.589844 6.910156 "/>
<path style=" stroke:none;fill-rule:evenodd;fill:rgb(96.078431%,76.470588%,69.019608%);fill-opacity:1;" d="M 14.339844 7.671875 C 14.339844 7.90625 14.339844 8.136719 14.339844 8.367188 C 14.277344 8.441406 14.253906 8.535156 14.269531 8.644531 C 12.835938 8.644531 11.402344 8.644531 9.964844 8.644531 C 9.132812 8.644531 8.296875 8.644531 7.464844 8.644531 C 8.285156 8.578125 9.121094 8.554688 9.964844 8.578125 C 11.378906 8.578125 12.789062 8.578125 14.203125 8.578125 C 14.203125 8.390625 14.203125 8.207031 14.203125 8.019531 C 14.246094 7.90625 14.292969 7.789062 14.339844 7.671875 Z M 14.339844 7.671875 "/>
<path style=" stroke:none;fill-rule:evenodd;fill:rgb(89.411765%,32.941176%,18.431373%);fill-opacity:1;" d="M 5.519531 7.535156 C 5.59375 8.03125 5.640625 8.539062 5.660156 9.0625 C 5.605469 9.007812 5.570312 8.941406 5.554688 8.855469 C 5.519531 8.414062 5.507812 7.976562 5.519531 7.535156 Z M 5.519531 7.535156 "/>
<path style=" stroke:none;fill-rule:evenodd;fill:rgb(89.803922%,41.960784%,29.803922%);fill-opacity:1;" d="M 7.464844 8.644531 C 8.296875 8.644531 9.132812 8.644531 9.964844 8.644531 C 9.964844 8.667969 9.964844 8.691406 9.964844 8.714844 C 9.179688 8.714844 8.390625 8.714844 7.605469 8.714844 C 7.605469 8.945312 7.605469 9.179688 7.605469 9.410156 C 7.558594 9.246094 7.511719 9.085938 7.464844 8.921875 C 7.464844 8.832031 7.464844 8.738281 7.464844 8.644531 Z M 7.464844 8.644531 "/>
<path style=" stroke:none;fill-rule:evenodd;fill:rgb(95.294118%,50.980392%,31.764706%);fill-opacity:1;" d="M 14.339844 8.367188 C 14.339844 8.484375 14.339844 8.597656 14.339844 8.714844 C 12.882812 8.714844 11.421875 8.714844 9.964844 8.714844 C 9.964844 8.691406 9.964844 8.667969 9.964844 8.644531 C 11.402344 8.644531 12.835938 8.644531 14.269531 8.644531 C 14.253906 8.535156 14.277344 8.441406 14.339844 8.367188 Z M 14.339844 8.367188 "/>
<path style=" stroke:none;fill-rule:evenodd;fill:rgb(93.72549%,35.294118%,10.588235%);fill-opacity:1;" d="M 9.964844 8.785156 C 15.613281 8.832031 15.613281 8.878906 9.964844 8.921875 C 9.964844 8.878906 9.964844 8.832031 9.964844 8.785156 Z M 9.964844 8.785156 "/>
<path style=" stroke:none;fill-rule:evenodd;fill:rgb(89.019608%,26.666667%,10.588235%);fill-opacity:1;" d="M 9.964844 8.714844 C 9.964844 8.738281 9.964844 8.761719 9.964844 8.785156 C 9.964844 8.832031 9.964844 8.878906 9.964844 8.921875 C 9.222656 8.921875 8.484375 8.921875 7.742188 8.921875 C 7.753906 9.15625 7.742188 9.386719 7.707031 9.617188 C 7.683594 9.578125 7.648438 9.554688 7.605469 9.546875 C 7.605469 9.503906 7.605469 9.457031 7.605469 9.410156 C 7.605469 9.179688 7.605469 8.945312 7.605469 8.714844 C 8.390625 8.714844 9.179688 8.714844 9.964844 8.714844 Z M 9.964844 8.714844 "/>
<path style=" stroke:none;fill-rule:evenodd;fill:rgb(89.411765%,30.196078%,14.901961%);fill-opacity:1;" d="M 9.964844 8.921875 C 9.964844 9.339844 9.964844 9.757812 9.964844 10.171875 C 9.246094 10.171875 8.53125 10.171875 7.8125 10.171875 C 7.824219 10.03125 7.8125 9.894531 7.777344 9.757812 C 7.742188 9.941406 7.730469 10.125 7.742188 10.3125 C 8.484375 10.3125 9.222656 10.3125 9.964844 10.3125 C 9.964844 10.335938 9.964844 10.359375 9.964844 10.382812 C 9.179688 10.382812 8.390625 10.382812 7.605469 10.382812 C 7.605469 10.105469 7.605469 9.828125 7.605469 9.546875 C 7.648438 9.554688 7.683594 9.578125 7.707031 9.617188 C 7.742188 9.386719 7.753906 9.15625 7.742188 8.921875 C 8.484375 8.921875 9.222656 8.921875 9.964844 8.921875 Z M 9.964844 8.921875 "/>
<path style=" stroke:none;fill-rule:evenodd;fill:rgb(91.372549%,76.470588%,71.764706%);fill-opacity:1;" d="M 5.730469 8.855469 C 5.839844 9.230469 5.886719 9.625 5.867188 10.035156 C 5.867188 10.152344 5.867188 10.265625 5.867188 10.382812 C 5.804688 9.953125 5.757812 9.515625 5.730469 9.0625 C 5.730469 8.992188 5.730469 8.921875 5.730469 8.855469 Z M 5.730469 8.855469 "/>
<path style=" stroke:none;fill-rule:evenodd;fill:rgb(90.980392%,65.098039%,58.039216%);fill-opacity:1;" d="M 7.464844 8.921875 C 7.511719 9.085938 7.558594 9.246094 7.605469 9.410156 C 7.605469 9.457031 7.605469 9.503906 7.605469 9.546875 C 7.605469 9.828125 7.605469 10.105469 7.605469 10.382812 C 7.53125 9.910156 7.484375 9.421875 7.464844 8.921875 Z M 7.464844 8.921875 "/>
<path style=" stroke:none;fill-rule:evenodd;fill:rgb(90.196078%,41.176471%,28.235294%);fill-opacity:1;" d="M 5.660156 9.0625 C 5.683594 9.0625 5.707031 9.0625 5.730469 9.0625 C 5.757812 9.515625 5.804688 9.953125 5.867188 10.382812 C 5.867188 10.429688 5.867188 10.472656 5.867188 10.519531 C 5.867188 10.660156 5.867188 10.796875 5.867188 10.9375 C 5.84375 10.9375 5.820312 10.9375 5.796875 10.9375 C 5.6875 10.320312 5.640625 9.695312 5.660156 9.0625 Z M 5.660156 9.0625 "/>
<path style=" stroke:none;fill-rule:evenodd;fill:rgb(90.196078%,24.705882%,4.313725%);fill-opacity:1;" d="M 9.964844 10.171875 C 11.320312 10.230469 12.683594 10.265625 14.0625 10.277344 C 12.695312 10.3125 11.332031 10.324219 9.964844 10.3125 C 9.222656 10.3125 8.484375 10.3125 7.742188 10.3125 C 7.730469 10.125 7.742188 9.941406 7.777344 9.757812 C 7.8125 9.894531 7.824219 10.03125 7.8125 10.171875 C 8.53125 10.171875 9.246094 10.171875 9.964844 10.171875 Z M 9.964844 10.171875 "/>
<path style=" stroke:none;fill-rule:evenodd;fill:rgb(96.470588%,72.54902%,63.137255%);fill-opacity:1;" d="M 7.605469 10.382812 C 8.390625 10.382812 9.179688 10.382812 9.964844 10.382812 C 11.332031 10.382812 12.695312 10.382812 14.0625 10.382812 C 14.078125 11.066406 14.035156 11.738281 13.921875 12.394531 C 13.921875 12.328125 13.921875 12.257812 13.921875 12.1875 C 13.914062 11.628906 13.9375 11.074219 13.992188 10.519531 C 12.652344 10.519531 11.308594 10.519531 9.964844 10.519531 C 9.246094 10.519531 8.53125 10.519531 7.8125 10.519531 C 7.695312 10.535156 7.625 10.488281 7.605469 10.382812 Z M 7.605469 10.382812 "/>
<path style=" stroke:none;fill-rule:evenodd;fill:rgb(99.607843%,99.215686%,99.215686%);fill-opacity:1;" d="M 9.964844 10.519531 C 11.308594 10.519531 12.652344 10.519531 13.992188 10.519531 C 13.9375 11.074219 13.914062 11.628906 13.921875 12.1875 C 13.871094 12.242188 13.835938 12.308594 13.820312 12.394531 C 13.785156 12.742188 13.773438 13.089844 13.785156 13.4375 C 13.742188 13.445312 13.707031 13.46875 13.679688 13.507812 C 13.65625 14.085938 13.621094 14.664062 13.578125 15.242188 C 13.578125 15.429688 13.578125 15.613281 13.578125 15.796875 C 13.578125 15.84375 13.554688 15.867188 13.507812 15.867188 C 13.367188 15.855469 13.226562 15.867188 13.089844 15.902344 C 12.855469 15.960938 12.644531 16.066406 12.464844 16.214844 C 12.417969 16.214844 12.371094 16.214844 12.328125 16.214844 C 12.101562 16.226562 11.894531 16.273438 11.703125 16.355469 C 11.503906 16.441406 11.296875 16.5 11.078125 16.527344 C 11.039062 16.554688 11.015625 16.589844 11.007812 16.632812 C 10.804688 16.636719 10.617188 16.683594 10.453125 16.769531 C 10.328125 16.761719 10.210938 16.785156 10.105469 16.839844 C 10.015625 16.855469 9.945312 16.832031 9.894531 16.769531 C 9.945312 16.222656 9.992188 15.667969 10.035156 15.105469 C 10.167969 15.082031 10.28125 15.039062 10.382812 14.964844 C 10.496094 14.953125 10.589844 14.90625 10.660156 14.828125 C 10.785156 14.835938 10.898438 14.8125 11.007812 14.757812 C 11.171875 14.746094 11.332031 14.722656 11.492188 14.6875 C 11.6875 14.71875 11.828125 14.652344 11.910156 14.480469 C 11.976562 14.378906 12 14.265625 11.980469 14.132812 C 12.074219 13.800781 12.121094 13.453125 12.117188 13.089844 C 12.117188 12.90625 12.117188 12.71875 12.117188 12.535156 C 12.117188 12.441406 12.117188 12.347656 12.117188 12.257812 C 11.425781 12.121094 10.710938 12.074219 9.964844 12.117188 C 9.964844 11.585938 9.964844 11.054688 9.964844 10.519531 Z M 9.964844 10.519531 "/>
<path style=" stroke:none;fill-rule:evenodd;fill:rgb(91.764706%,69.803922%,63.529412%);fill-opacity:1;" d="M 5.867188 10.519531 C 5.914062 10.683594 5.960938 10.84375 6.007812 11.007812 C 6.007812 11.261719 6.007812 11.515625 6.007812 11.769531 C 6.007812 11.910156 6.007812 12.046875 6.007812 12.1875 C 5.984375 12.1875 5.960938 12.1875 5.9375 12.1875 C 5.90625 11.769531 5.882812 11.355469 5.867188 10.9375 C 5.867188 10.796875 5.867188 10.660156 5.867188 10.519531 Z M 5.867188 10.519531 "/>
<path style=" stroke:none;fill-rule:evenodd;fill:rgb(91.372549%,34.117647%,15.294118%);fill-opacity:1;" d="M 14.617188 17.464844 C 14.996094 13.34375 15.367188 9.226562 15.730469 5.105469 C 13.832031 5.105469 11.933594 5.105469 10.035156 5.105469 C 10.058594 5.601562 10.035156 6.089844 9.964844 6.5625 C 9.964844 6.054688 9.964844 5.542969 9.964844 5.035156 C 11.910156 5.035156 13.855469 5.035156 15.796875 5.035156 C 15.460938 9.15625 15.105469 13.277344 14.722656 17.394531 C 14.695312 17.433594 14.660156 17.457031 14.617188 17.464844 Z M 14.617188 17.464844 "/>
<path style=" stroke:none;fill-rule:evenodd;fill:rgb(92.156863%,96.078431%,96.862745%);fill-opacity:1;" d="M 7.8125 10.519531 C 8.53125 10.519531 9.246094 10.519531 9.964844 10.519531 C 9.964844 11.054688 9.964844 11.585938 9.964844 12.117188 C 8.667969 12.117188 7.371094 12.117188 6.078125 12.117188 C 6.097656 11.984375 6.074219 11.871094 6.007812 11.769531 C 6.007812 11.515625 6.007812 11.261719 6.007812 11.007812 C 5.996094 10.820312 6.007812 10.636719 6.042969 10.453125 C 6.066406 10.472656 6.089844 10.496094 6.109375 10.519531 C 6.125 10.992188 6.183594 11.453125 6.285156 11.910156 C 7.488281 11.910156 8.691406 11.910156 9.894531 11.910156 C 9.894531 11.492188 9.894531 11.078125 9.894531 10.660156 C 9.132812 10.671875 8.367188 10.660156 7.605469 10.625 C 7.691406 10.609375 7.757812 10.574219 7.8125 10.519531 Z M 7.8125 10.519531 "/>
<path style=" stroke:none;fill-rule:evenodd;fill:rgb(94.509804%,81.568627%,77.254902%);fill-opacity:1;" d="M 6.007812 11.769531 C 6.074219 11.871094 6.097656 11.984375 6.078125 12.117188 C 7.371094 12.117188 8.667969 12.117188 9.964844 12.117188 C 10.710938 12.074219 11.425781 12.121094 12.117188 12.257812 C 11.402344 12.257812 10.683594 12.257812 9.964844 12.257812 C 8.632812 12.28125 7.3125 12.257812 6.007812 12.1875 C 6.007812 12.046875 6.007812 11.910156 6.007812 11.769531 Z M 6.007812 11.769531 "/>
<path style=" stroke:none;fill-rule:evenodd;fill:rgb(89.411765%,35.686275%,21.960784%);fill-opacity:1;" d="M 5.9375 12.1875 C 5.960938 12.1875 5.984375 12.1875 6.007812 12.1875 C 7.3125 12.257812 8.632812 12.28125 9.964844 12.257812 C 9.964844 12.28125 9.964844 12.304688 9.964844 12.328125 C 8.621094 12.328125 7.28125 12.328125 5.9375 12.328125 C 5.9375 12.28125 5.9375 12.234375 5.9375 12.1875 Z M 5.9375 12.1875 "/>
<path style=" stroke:none;fill-rule:evenodd;fill:rgb(94.901961%,45.098039%,24.313725%);fill-opacity:1;" d="M 9.964844 12.328125 C 9.964844 12.304688 9.964844 12.28125 9.964844 12.257812 C 10.683594 12.257812 11.402344 12.257812 12.117188 12.257812 C 12.117188 12.347656 12.117188 12.441406 12.117188 12.535156 C 12.09375 12.535156 12.070312 12.535156 12.046875 12.535156 C 12.046875 12.464844 12.046875 12.394531 12.046875 12.328125 C 11.355469 12.328125 10.660156 12.328125 9.964844 12.328125 Z M 9.964844 12.328125 "/>
<path style=" stroke:none;fill-rule:evenodd;fill:rgb(89.411765%,26.666667%,10.588235%);fill-opacity:1;" d="M 5.9375 12.328125 C 7.28125 12.328125 8.621094 12.328125 9.964844 12.328125 C 9.964844 12.394531 9.964844 12.464844 9.964844 12.535156 C 8.621094 12.535156 7.28125 12.535156 5.9375 12.535156 C 5.9375 12.464844 5.9375 12.394531 5.9375 12.328125 Z M 5.9375 12.328125 "/>
<path style=" stroke:none;fill-rule:evenodd;fill:rgb(94.117647%,38.823529%,15.294118%);fill-opacity:1;" d="M 9.964844 12.328125 C 10.660156 12.328125 11.355469 12.328125 12.046875 12.328125 C 12.046875 12.394531 12.046875 12.464844 12.046875 12.535156 C 12.019531 12.882812 11.996094 13.230469 11.980469 13.578125 C 11.980469 13.761719 11.980469 13.945312 11.980469 14.132812 C 12 14.265625 11.976562 14.378906 11.910156 14.480469 C 11.765625 14.511719 11.625 14.558594 11.492188 14.617188 C 11.308594 14.613281 11.148438 14.65625 11.007812 14.757812 C 10.898438 14.8125 10.785156 14.835938 10.660156 14.828125 C 10.492188 14.808594 10.355469 14.855469 10.242188 14.964844 C 10.195312 14.964844 10.152344 14.964844 10.105469 14.964844 C 10.058594 14.964844 10.011719 14.964844 9.964844 14.964844 C 9.964844 14.894531 9.964844 14.828125 9.964844 14.757812 C 9.964844 14.015625 9.964844 13.277344 9.964844 12.535156 C 9.964844 12.464844 9.964844 12.394531 9.964844 12.328125 Z M 9.964844 12.328125 "/>
<path style=" stroke:none;fill-rule:evenodd;fill:rgb(98.431373%,80%,72.156863%);fill-opacity:1;" d="M 13.921875 12.1875 C 13.921875 12.257812 13.921875 12.328125 13.921875 12.394531 C 13.914062 12.746094 13.890625 13.089844 13.855469 13.4375 C 13.832031 13.4375 13.808594 13.4375 13.785156 13.4375 C 13.773438 13.089844 13.785156 12.742188 13.820312 12.394531 C 13.835938 12.308594 13.871094 12.242188 13.921875 12.1875 Z M 13.921875 12.1875 "/>
<path style=" stroke:none;fill-rule:evenodd;fill:rgb(90.980392%,61.176471%,52.941176%);fill-opacity:1;" d="M 8.019531 13.578125 C 8.019531 13.878906 8.019531 14.179688 8.019531 14.480469 C 7.957031 14.429688 7.933594 14.359375 7.953125 14.269531 C 7.957031 13.90625 7.910156 13.558594 7.8125 13.230469 C 7.269531 13.160156 6.714844 13.136719 6.144531 13.160156 C 6.199219 13.667969 6.222656 14.175781 6.214844 14.6875 C 6.105469 14.171875 6.0625 13.636719 6.078125 13.089844 C 6.679688 13.078125 7.28125 13.089844 7.882812 13.125 C 7.925781 13.28125 7.972656 13.433594 8.019531 13.578125 Z M 8.019531 13.578125 "/>
<path style=" stroke:none;fill-rule:evenodd;fill:rgb(92.156863%,92.156863%,92.156863%);fill-opacity:1;" d="M 7.8125 13.230469 C 7.796875 13.59375 7.84375 13.941406 7.953125 14.269531 C 7.933594 14.359375 7.957031 14.429688 8.019531 14.480469 C 8.167969 14.628906 8.351562 14.699219 8.578125 14.6875 C 8.71875 14.6875 8.859375 14.710938 8.992188 14.757812 C 9.132812 14.855469 9.296875 14.902344 9.480469 14.894531 C 9.503906 14.894531 9.527344 14.894531 9.546875 14.894531 C 9.628906 14.953125 9.722656 15 9.828125 15.035156 C 9.875 15.097656 9.945312 15.121094 10.035156 15.105469 C 9.992188 15.667969 9.945312 16.222656 9.894531 16.769531 C 9.667969 16.710938 9.4375 16.664062 9.203125 16.632812 C 9.109375 16.632812 9.015625 16.632812 8.921875 16.632812 C 8.785156 16.53125 8.621094 16.488281 8.4375 16.492188 C 8.414062 16.492188 8.390625 16.492188 8.367188 16.492188 C 8.257812 16.382812 8.117188 16.335938 7.953125 16.355469 C 7.839844 16.371094 7.746094 16.347656 7.671875 16.285156 C 7.535156 16.1875 7.371094 16.140625 7.1875 16.144531 C 6.980469 16.023438 6.746094 15.953125 6.492188 15.9375 C 6.425781 15.949219 6.378906 15.925781 6.355469 15.867188 C 6.378906 15.480469 6.332031 15.109375 6.214844 14.757812 C 6.214844 14.734375 6.214844 14.710938 6.214844 14.6875 C 6.222656 14.175781 6.199219 13.667969 6.144531 13.160156 C 6.714844 13.136719 7.269531 13.160156 7.8125 13.230469 Z M 7.8125 13.230469 "/>
<path style=" stroke:none;fill-rule:evenodd;fill:rgb(96.862745%,63.529412%,49.411765%);fill-opacity:1;" d="M 12.046875 12.535156 C 12.070312 12.535156 12.09375 12.535156 12.117188 12.535156 C 12.117188 12.71875 12.117188 12.90625 12.117188 13.089844 C 12.070312 13.253906 12.027344 13.414062 11.980469 13.578125 C 11.996094 13.230469 12.019531 12.882812 12.046875 12.535156 Z M 12.046875 12.535156 "/>
<path style=" stroke:none;fill-rule:evenodd;fill:rgb(98.039216%,80.784314%,73.72549%);fill-opacity:1;" d="M 12.117188 13.089844 C 12.121094 13.453125 12.074219 13.800781 11.980469 14.132812 C 11.980469 13.945312 11.980469 13.761719 11.980469 13.578125 C 12.027344 13.414062 12.070312 13.253906 12.117188 13.089844 Z M 12.117188 13.089844 "/>
<path style=" stroke:none;fill-rule:evenodd;fill:rgb(99.215686%,90.588235%,87.45098%);fill-opacity:1;" d="M 13.785156 13.4375 C 13.726562 13.921875 13.703125 14.40625 13.714844 14.894531 C 13.667969 15.011719 13.621094 15.128906 13.578125 15.242188 C 13.621094 14.664062 13.65625 14.085938 13.679688 13.507812 C 13.707031 13.46875 13.742188 13.445312 13.785156 13.4375 Z M 13.785156 13.4375 "/>
<path style=" stroke:none;fill-rule:evenodd;fill:rgb(91.372549%,78.823529%,75.294118%);fill-opacity:1;" d="M 7.8125 13.230469 C 7.910156 13.558594 7.957031 13.90625 7.953125 14.269531 C 7.84375 13.941406 7.796875 13.59375 7.8125 13.230469 Z M 7.8125 13.230469 "/>
<path style=" stroke:none;fill-rule:evenodd;fill:rgb(97.254902%,65.882353%,52.54902%);fill-opacity:1;" d="M 13.785156 13.4375 C 13.808594 13.4375 13.832031 13.4375 13.855469 13.4375 C 13.835938 13.9375 13.789062 14.421875 13.714844 14.894531 C 13.703125 14.40625 13.726562 13.921875 13.785156 13.4375 Z M 13.785156 13.4375 "/>
<path style=" stroke:none;fill-rule:evenodd;fill:rgb(89.019608%,26.666667%,10.980392%);fill-opacity:1;" d="M 9.964844 14.757812 C 9.964844 14.828125 9.964844 14.894531 9.964844 14.964844 C 9.832031 14.921875 9.691406 14.898438 9.546875 14.894531 C 9.527344 14.894531 9.503906 14.894531 9.480469 14.894531 C 9.339844 14.796875 9.175781 14.75 8.992188 14.757812 C 8.859375 14.710938 8.71875 14.6875 8.578125 14.6875 C 8.40625 14.59375 8.222656 14.523438 8.019531 14.480469 C 8.019531 14.179688 8.019531 13.878906 8.019531 13.578125 C 8.007812 13.414062 8.019531 13.25 8.054688 13.089844 C 8.078125 13.113281 8.101562 13.136719 8.125 13.160156 C 8.144531 13.484375 8.179688 13.808594 8.230469 14.132812 C 8.246094 14.265625 8.3125 14.355469 8.4375 14.410156 C 8.964844 14.480469 9.472656 14.597656 9.964844 14.757812 Z M 9.964844 14.757812 "/>
<path style=" stroke:none;fill-rule:evenodd;fill:rgb(90.980392%,61.568627%,54.117647%);fill-opacity:1;" d="M 8.019531 14.480469 C 8.222656 14.523438 8.40625 14.59375 8.578125 14.6875 C 8.351562 14.699219 8.167969 14.628906 8.019531 14.480469 Z M 8.019531 14.480469 "/>
<path style=" stroke:none;fill-rule:evenodd;fill:rgb(98.431373%,80%,72.156863%);fill-opacity:1;" d="M 11.910156 14.480469 C 11.828125 14.652344 11.6875 14.71875 11.492188 14.6875 C 11.492188 14.664062 11.492188 14.640625 11.492188 14.617188 C 11.625 14.558594 11.765625 14.511719 11.910156 14.480469 Z M 11.910156 14.480469 "/>
<path style=" stroke:none;fill-rule:evenodd;fill:rgb(96.862745%,65.098039%,51.372549%);fill-opacity:1;" d="M 11.492188 14.617188 C 11.492188 14.640625 11.492188 14.664062 11.492188 14.6875 C 11.332031 14.722656 11.171875 14.746094 11.007812 14.757812 C 11.148438 14.65625 11.308594 14.613281 11.492188 14.617188 Z M 11.492188 14.617188 "/>
<path style=" stroke:none;fill-rule:evenodd;fill:rgb(90.196078%,47.843137%,36.862745%);fill-opacity:1;" d="M 8.992188 14.757812 C 9.175781 14.75 9.339844 14.796875 9.480469 14.894531 C 9.296875 14.902344 9.132812 14.855469 8.992188 14.757812 Z M 8.992188 14.757812 "/>
<path style=" stroke:none;fill-rule:evenodd;fill:rgb(97.647059%,68.627451%,56.078431%);fill-opacity:1;" d="M 10.660156 14.828125 C 10.589844 14.90625 10.496094 14.953125 10.382812 14.964844 C 10.335938 14.964844 10.289062 14.964844 10.242188 14.964844 C 10.355469 14.855469 10.492188 14.808594 10.660156 14.828125 Z M 10.660156 14.828125 "/>
<path style=" stroke:none;fill-rule:evenodd;fill:rgb(91.764706%,48.235294%,34.509804%);fill-opacity:1;" d="M 9.546875 14.894531 C 9.691406 14.898438 9.832031 14.921875 9.964844 14.964844 C 10.011719 14.964844 10.058594 14.964844 10.105469 14.964844 C 10.03125 15.03125 9.9375 15.054688 9.828125 15.035156 C 9.722656 15 9.628906 14.953125 9.546875 14.894531 Z M 9.546875 14.894531 "/>
<path style=" stroke:none;fill-rule:evenodd;fill:rgb(97.254902%,82.352941%,76.470588%);fill-opacity:1;" d="M 10.105469 14.964844 C 10.152344 14.964844 10.195312 14.964844 10.242188 14.964844 C 10.289062 14.964844 10.335938 14.964844 10.382812 14.964844 C 10.28125 15.039062 10.167969 15.082031 10.035156 15.105469 C 9.945312 15.121094 9.875 15.097656 9.828125 15.035156 C 9.9375 15.054688 10.03125 15.03125 10.105469 14.964844 Z M 10.105469 14.964844 "/>
<path style=" stroke:none;fill-rule:evenodd;fill:rgb(91.372549%,65.882353%,59.215686%);fill-opacity:1;" d="M 6.214844 14.757812 C 6.332031 15.109375 6.378906 15.480469 6.355469 15.867188 C 6.261719 15.511719 6.21875 15.140625 6.214844 14.757812 Z M 6.214844 14.757812 "/>
<path style=" stroke:none;fill-rule:evenodd;fill:rgb(97.254902%,69.411765%,57.254902%);fill-opacity:1;" d="M 13.714844 14.894531 C 13.738281 15.210938 13.714844 15.511719 13.644531 15.796875 C 13.621094 15.796875 13.597656 15.796875 13.578125 15.796875 C 13.578125 15.613281 13.578125 15.429688 13.578125 15.242188 C 13.621094 15.128906 13.667969 15.011719 13.714844 14.894531 Z M 13.714844 14.894531 "/>
<path style=" stroke:none;fill-rule:evenodd;fill:rgb(99.215686%,87.843137%,83.137255%);fill-opacity:1;" d="M 13.507812 15.867188 C 13.351562 15.902344 13.210938 15.972656 13.089844 16.078125 C 12.90625 16.070312 12.742188 16.117188 12.605469 16.214844 C 12.558594 16.214844 12.511719 16.214844 12.464844 16.214844 C 12.644531 16.066406 12.855469 15.960938 13.089844 15.902344 C 13.226562 15.867188 13.367188 15.855469 13.507812 15.867188 Z M 13.507812 15.867188 "/>
<path style=" stroke:none;fill-rule:evenodd;fill:rgb(90.980392%,65.098039%,58.039216%);fill-opacity:1;" d="M 6.492188 15.9375 C 6.746094 15.953125 6.980469 16.023438 7.1875 16.144531 C 6.933594 16.128906 6.703125 16.0625 6.492188 15.9375 Z M 6.492188 15.9375 "/>
<path style=" stroke:none;fill-rule:evenodd;fill:rgb(96.470588%,58.039216%,41.568627%);fill-opacity:1;" d="M 13.578125 15.796875 C 13.597656 15.796875 13.621094 15.796875 13.644531 15.796875 C 13.652344 15.867188 13.628906 15.925781 13.578125 15.972656 C 13.410156 16.003906 13.25 16.039062 13.089844 16.078125 C 13.210938 15.972656 13.351562 15.902344 13.507812 15.867188 C 13.554688 15.867188 13.578125 15.84375 13.578125 15.796875 Z M 13.578125 15.796875 "/>
<path style=" stroke:none;fill-rule:evenodd;fill:rgb(95.686275%,52.941176%,34.509804%);fill-opacity:1;" d="M 13.089844 16.078125 C 12.949219 16.175781 12.789062 16.222656 12.605469 16.214844 C 12.742188 16.117188 12.90625 16.070312 13.089844 16.078125 Z M 13.089844 16.078125 "/>
<path style=" stroke:none;fill-rule:evenodd;fill:rgb(90.980392%,60.784314%,52.941176%);fill-opacity:1;" d="M 7.1875 16.144531 C 7.371094 16.140625 7.535156 16.1875 7.671875 16.285156 C 7.488281 16.289062 7.328125 16.246094 7.1875 16.144531 Z M 7.1875 16.144531 "/>
<path style=" stroke:none;fill-rule:evenodd;fill:rgb(98.823529%,84.705882%,78.823529%);fill-opacity:1;" d="M 12.328125 16.214844 C 12.257812 16.261719 12.1875 16.308594 12.117188 16.355469 C 12.027344 16.355469 11.933594 16.355469 11.839844 16.355469 C 11.792969 16.355469 11.746094 16.355469 11.703125 16.355469 C 11.894531 16.273438 12.101562 16.226562 12.328125 16.214844 Z M 12.328125 16.214844 "/>
<path style=" stroke:none;fill-rule:evenodd;fill:rgb(95.686275%,51.372549%,32.156863%);fill-opacity:1;" d="M 12.328125 16.214844 C 12.371094 16.214844 12.417969 16.214844 12.464844 16.214844 C 12.511719 16.214844 12.558594 16.214844 12.605469 16.214844 C 12.464844 16.3125 12.300781 16.359375 12.117188 16.355469 C 12.1875 16.308594 12.257812 16.261719 12.328125 16.214844 Z M 12.328125 16.214844 "/>
<path style=" stroke:none;fill-rule:evenodd;fill:rgb(90.588235%,56.862745%,48.235294%);fill-opacity:1;" d="M 7.953125 16.355469 C 8.117188 16.335938 8.257812 16.382812 8.367188 16.492188 C 8.203125 16.511719 8.0625 16.464844 7.953125 16.355469 Z M 7.953125 16.355469 "/>
<path style=" stroke:none;fill-rule:evenodd;fill:rgb(97.647059%,70.588235%,58.823529%);fill-opacity:1;" d="M 11.703125 16.355469 C 11.746094 16.355469 11.792969 16.355469 11.839844 16.355469 C 11.589844 16.507812 11.3125 16.597656 11.007812 16.632812 C 11.015625 16.589844 11.039062 16.554688 11.078125 16.527344 C 11.296875 16.5 11.503906 16.441406 11.703125 16.355469 Z M 11.703125 16.355469 "/>
<path style=" stroke:none;fill-rule:evenodd;fill:rgb(90.588235%,60.392157%,52.156863%);fill-opacity:1;" d="M 8.4375 16.492188 C 8.621094 16.488281 8.785156 16.53125 8.921875 16.632812 C 8.738281 16.636719 8.578125 16.59375 8.4375 16.492188 Z M 8.4375 16.492188 "/>
<path style=" stroke:none;fill-rule:evenodd;fill:rgb(90.588235%,59.215686%,50.980392%);fill-opacity:1;" d="M 8.921875 16.632812 C 9.015625 16.632812 9.109375 16.632812 9.203125 16.632812 C 9.269531 16.679688 9.339844 16.722656 9.410156 16.769531 C 9.226562 16.777344 9.0625 16.730469 8.921875 16.632812 Z M 8.921875 16.632812 "/>
<path style=" stroke:none;fill-rule:evenodd;fill:rgb(92.156863%,80.392157%,76.862745%);fill-opacity:1;" d="M 9.203125 16.632812 C 9.4375 16.664062 9.667969 16.710938 9.894531 16.769531 C 9.945312 16.832031 10.015625 16.855469 10.105469 16.839844 C 10.105469 16.863281 10.105469 16.886719 10.105469 16.910156 C 10.011719 16.910156 9.917969 16.910156 9.828125 16.910156 C 9.726562 16.835938 9.609375 16.792969 9.480469 16.769531 C 9.457031 16.769531 9.433594 16.769531 9.410156 16.769531 C 9.339844 16.722656 9.269531 16.679688 9.203125 16.632812 Z M 9.203125 16.632812 "/>
<path style=" stroke:none;fill-rule:evenodd;fill:rgb(90.196078%,47.45098%,36.470588%);fill-opacity:1;" d="M 9.480469 16.769531 C 9.609375 16.792969 9.726562 16.835938 9.828125 16.910156 C 9.671875 16.9375 9.558594 16.890625 9.480469 16.769531 Z M 9.480469 16.769531 "/>
<path style=" stroke:none;fill-rule:evenodd;fill:rgb(96.862745%,63.137255%,49.019608%);fill-opacity:1;" d="M 10.453125 16.769531 C 10.351562 16.84375 10.234375 16.890625 10.105469 16.910156 C 10.105469 16.886719 10.105469 16.863281 10.105469 16.839844 C 10.210938 16.785156 10.328125 16.761719 10.453125 16.769531 Z M 10.453125 16.769531 "/>
</g>
</svg>
