<?xml version="1.0" encoding="UTF-8"?>
<svg xmlns="http://www.w3.org/2000/svg" xmlns:xlink="http://www.w3.org/1999/xlink" width="20px" height="59px" viewBox="0 0 20 20" version="1.1">
<g id="surface1">
<path style=" stroke:none;fill-rule:evenodd;fill:rgb(93.72549%,85.490196%,30.588235%);fill-opacity:1;" d="M -0.0351562 -0.0351562 C 6.632812 -0.0351562 13.296875 -0.0351562 19.964844 -0.0351562 C 19.964844 6.632812 19.964844 13.296875 19.964844 19.964844 C 13.296875 19.964844 6.632812 19.964844 -0.0351562 19.964844 C -0.0351562 13.296875 -0.0351562 6.632812 -0.0351562 -0.0351562 Z M -0.0351562 -0.0351562 "/>
<path style=" stroke:none;fill-rule:evenodd;fill:rgb(41.176471%,39.215686%,22.352941%);fill-opacity:1;" d="M 16.144531 9.203125 C 15.421875 9.097656 14.707031 9.121094 13.992188 9.269531 C 14.074219 9.160156 14.191406 9.105469 14.339844 9.097656 C 14.894531 9.050781 15.453125 9.050781 16.007812 9.097656 C 16.070312 9.117188 16.117188 9.152344 16.144531 9.203125 Z M 16.144531 9.203125 "/>
<path style=" stroke:none;fill-rule:evenodd;fill:rgb(20%,20.392157%,18.823529%);fill-opacity:1;" d="M 16.144531 9.203125 C 16.265625 9.210938 16.378906 9.234375 16.492188 9.269531 C 16.597656 9.390625 16.738281 9.460938 16.910156 9.480469 C 17.089844 9.625 17.25 9.789062 17.394531 9.964844 C 17.414062 10.097656 17.480469 10.191406 17.605469 10.242188 C 17.742188 10.363281 17.765625 10.5 17.671875 10.660156 C 17.605469 10.648438 17.558594 10.671875 17.535156 10.730469 C 17.429688 10.722656 17.359375 10.769531 17.328125 10.867188 C 17.207031 10.90625 17.113281 10.972656 17.046875 11.078125 C 16.816406 11.121094 16.628906 11.238281 16.492188 11.421875 C 16.324219 11.324219 16.1875 11.183594 16.078125 11.007812 C 16.019531 10.851562 15.902344 10.78125 15.730469 10.796875 C 15.578125 10.699219 15.402344 10.652344 15.207031 10.660156 C 15.089844 10.660156 14.984375 10.683594 14.894531 10.730469 C 14.847656 10.730469 14.804688 10.730469 14.757812 10.730469 C 14.554688 10.804688 14.402344 10.945312 14.304688 11.144531 C 14.253906 11.40625 14.265625 11.660156 14.339844 11.910156 C 14.335938 12.015625 14.382812 12.085938 14.480469 12.117188 C 14.652344 12.289062 14.863281 12.402344 15.105469 12.464844 C 15.210938 12.585938 15.347656 12.65625 15.519531 12.671875 C 15.582031 12.714844 15.652344 12.738281 15.730469 12.742188 C 15.761719 12.839844 15.832031 12.886719 15.9375 12.882812 C 15.960938 12.882812 15.984375 12.882812 16.007812 12.882812 C 16.113281 13.003906 16.253906 13.074219 16.421875 13.089844 C 16.484375 13.132812 16.554688 13.15625 16.632812 13.160156 C 16.664062 13.257812 16.734375 13.304688 16.839844 13.296875 C 16.9375 13.394531 17.054688 13.464844 17.1875 13.507812 C 17.347656 13.65625 17.523438 13.792969 17.707031 13.921875 C 17.828125 14.078125 17.933594 14.238281 18.019531 14.410156 C 18.015625 14.515625 18.0625 14.585938 18.160156 14.617188 C 18.160156 14.640625 18.160156 14.664062 18.160156 14.6875 C 18.179688 14.820312 18.226562 14.933594 18.296875 15.035156 C 18.3125 15.523438 18.289062 16.007812 18.230469 16.492188 C 18.21875 16.613281 18.195312 16.726562 18.160156 16.839844 C 18.089844 16.980469 18.019531 17.117188 17.953125 17.257812 C 17.765625 17.394531 17.605469 17.558594 17.464844 17.742188 C 17.3125 17.761719 17.199219 17.828125 17.117188 17.953125 C 17.042969 17.957031 16.972656 17.976562 16.910156 18.019531 C 16.777344 18.003906 16.6875 18.046875 16.632812 18.160156 C 16.332031 18.171875 16.050781 18.238281 15.796875 18.367188 C 15.40625 18.367188 15.011719 18.367188 14.617188 18.367188 C 14.507812 18.257812 14.367188 18.210938 14.203125 18.230469 C 14.179688 18.230469 14.15625 18.230469 14.132812 18.230469 C 14.097656 18.144531 14.03125 18.101562 13.921875 18.089844 C 13.761719 18.054688 13.601562 18.03125 13.4375 18.019531 C 13.40625 17.921875 13.335938 17.875 13.230469 17.882812 C 13.195312 17.785156 13.125 17.738281 13.019531 17.742188 C 12.972656 17.71875 12.929688 17.695312 12.882812 17.671875 C 12.847656 17.574219 12.78125 17.53125 12.671875 17.535156 C 12.382812 17.230469 12.128906 16.90625 11.910156 16.5625 C 11.957031 16.492188 12.003906 16.421875 12.046875 16.355469 C 12.15625 16.359375 12.222656 16.3125 12.257812 16.214844 C 12.320312 16.171875 12.386719 16.148438 12.464844 16.144531 C 12.570312 16.152344 12.640625 16.105469 12.671875 16.007812 C 12.804688 16.027344 12.898438 15.980469 12.953125 15.867188 C 13.058594 15.875 13.125 15.828125 13.160156 15.730469 C 13.253906 15.707031 13.34375 15.683594 13.4375 15.660156 C 13.59375 15.933594 13.804688 16.164062 14.0625 16.355469 C 14.09375 16.453125 14.164062 16.5 14.269531 16.492188 C 14.339844 16.539062 14.410156 16.585938 14.480469 16.632812 C 14.867188 16.785156 15.273438 16.808594 15.695312 16.703125 C 15.839844 16.652344 15.964844 16.582031 16.078125 16.492188 C 16.21875 16.398438 16.332031 16.28125 16.421875 16.144531 C 16.503906 15.90625 16.515625 15.648438 16.457031 15.382812 C 16.433594 15.34375 16.398438 15.320312 16.355469 15.3125 C 16.234375 15.125 16.074219 14.984375 15.867188 14.894531 C 15.660156 14.746094 15.429688 14.628906 15.171875 14.546875 C 15.066406 14.425781 14.929688 14.359375 14.757812 14.339844 C 14.597656 14.332031 14.460938 14.289062 14.339844 14.203125 C 14.308594 14.105469 14.238281 14.058594 14.132812 14.0625 C 13.933594 14.023438 13.773438 13.929688 13.644531 13.785156 C 13.613281 13.6875 13.542969 13.640625 13.4375 13.644531 C 13.175781 13.453125 12.96875 13.222656 12.8125 12.953125 C 12.816406 12.84375 12.769531 12.777344 12.671875 12.742188 C 12.671875 12.71875 12.671875 12.695312 12.671875 12.671875 C 12.667969 12.597656 12.648438 12.527344 12.605469 12.464844 C 12.515625 11.816406 12.515625 11.167969 12.605469 10.519531 C 12.652344 10.519531 12.671875 10.496094 12.671875 10.453125 C 12.804688 10.382812 12.875 10.265625 12.882812 10.105469 C 12.882812 10.058594 12.90625 10.035156 12.953125 10.035156 C 13.113281 9.917969 13.253906 9.78125 13.367188 9.617188 C 13.5 9.601562 13.59375 9.53125 13.644531 9.410156 C 13.746094 9.335938 13.859375 9.292969 13.992188 9.269531 C 14.707031 9.121094 15.421875 9.097656 16.144531 9.203125 Z M 16.144531 9.203125 "/>
<path style=" stroke:none;fill-rule:evenodd;fill:rgb(50.980392%,47.45098%,23.921569%);fill-opacity:1;" d="M 8.992188 9.203125 C 8.992188 9.179688 8.992188 9.15625 8.992188 9.132812 C 9.628906 9.109375 10.253906 9.132812 10.867188 9.203125 C 10.890625 11.433594 10.867188 13.65625 10.796875 15.867188 C 10.796875 13.644531 10.796875 11.421875 10.796875 9.203125 C 10.195312 9.203125 9.59375 9.203125 8.992188 9.203125 Z M 8.992188 9.203125 "/>
<path style=" stroke:none;fill-rule:evenodd;fill:rgb(86.27451%,78.823529%,29.411765%);fill-opacity:1;" d="M 10.867188 9.203125 C 10.914062 10.371094 10.9375 11.550781 10.9375 12.742188 C 10.9375 13.949219 10.890625 15.128906 10.796875 16.285156 C 10.796875 16.261719 10.796875 16.238281 10.796875 16.214844 C 10.796875 16.097656 10.796875 15.984375 10.796875 15.867188 C 10.867188 13.65625 10.890625 11.433594 10.867188 9.203125 Z M 10.867188 9.203125 "/>
<path style=" stroke:none;fill-rule:evenodd;fill:rgb(20%,20.392157%,18.823529%);fill-opacity:1;" d="M 8.992188 9.203125 C 9.59375 9.203125 10.195312 9.203125 10.796875 9.203125 C 10.796875 11.421875 10.796875 13.644531 10.796875 15.867188 C 10.796875 15.984375 10.796875 16.097656 10.796875 16.214844 C 10.734375 16.363281 10.6875 16.527344 10.660156 16.703125 C 10.660156 16.722656 10.660156 16.746094 10.660156 16.769531 C 10.539062 16.878906 10.46875 17.015625 10.453125 17.1875 C 10.3125 17.371094 10.175781 17.554688 10.035156 17.742188 C 9.726562 17.929688 9.402344 18.09375 9.0625 18.230469 C 8.414062 18.320312 7.765625 18.320312 7.117188 18.230469 C 6.292969 18.054688 5.691406 17.589844 5.3125 16.839844 C 5.328125 16.730469 5.375 16.640625 5.453125 16.5625 C 5.558594 16.566406 5.625 16.519531 5.660156 16.421875 C 5.757812 16.328125 5.871094 16.257812 6.007812 16.214844 C 6.230469 16.121094 6.449219 16.007812 6.667969 15.867188 C 6.761719 15.976562 6.867188 16.066406 6.980469 16.144531 C 7.117188 16.332031 7.28125 16.492188 7.464844 16.632812 C 7.710938 16.777344 7.964844 16.796875 8.230469 16.703125 C 8.335938 16.636719 8.453125 16.589844 8.578125 16.5625 C 8.714844 16.5625 8.785156 16.492188 8.785156 16.355469 C 8.785156 16.308594 8.808594 16.285156 8.855469 16.285156 C 8.90625 16.253906 8.9375 16.210938 8.957031 16.144531 C 8.992188 13.832031 9.003906 11.515625 8.992188 9.203125 Z M 8.992188 9.203125 "/>
<path style=" stroke:none;fill-rule:evenodd;fill:rgb(65.098039%,60.392157%,26.27451%);fill-opacity:1;" d="M 16.492188 9.269531 C 16.664062 9.289062 16.804688 9.359375 16.910156 9.480469 C 16.738281 9.460938 16.597656 9.390625 16.492188 9.269531 Z M 16.492188 9.269531 "/>
<path style=" stroke:none;fill-rule:evenodd;fill:rgb(45.882353%,43.137255%,23.137255%);fill-opacity:1;" d="M 13.644531 9.410156 C 13.59375 9.53125 13.5 9.601562 13.367188 9.617188 C 13.421875 9.496094 13.511719 9.425781 13.644531 9.410156 Z M 13.644531 9.410156 "/>
<path style=" stroke:none;fill-rule:evenodd;fill:rgb(47.058824%,43.921569%,23.137255%);fill-opacity:1;" d="M 13.367188 9.617188 C 13.253906 9.78125 13.113281 9.917969 12.953125 10.035156 C 13.019531 9.828125 13.160156 9.6875 13.367188 9.617188 Z M 13.367188 9.617188 "/>
<path style=" stroke:none;fill-rule:evenodd;fill:rgb(41.176471%,39.215686%,22.352941%);fill-opacity:1;" d="M 17.394531 9.964844 C 17.488281 10.011719 17.558594 10.082031 17.605469 10.171875 C 17.605469 10.195312 17.605469 10.21875 17.605469 10.242188 C 17.480469 10.191406 17.414062 10.097656 17.394531 9.964844 Z M 17.394531 9.964844 "/>
<path style=" stroke:none;fill-rule:evenodd;fill:rgb(36.078431%,34.509804%,21.568627%);fill-opacity:1;" d="M 12.882812 10.105469 C 12.875 10.265625 12.804688 10.382812 12.671875 10.453125 C 12.691406 10.300781 12.761719 10.183594 12.882812 10.105469 Z M 12.882812 10.105469 "/>
<path style=" stroke:none;fill-rule:evenodd;fill:rgb(72.54902%,66.666667%,27.45098%);fill-opacity:1;" d="M 17.605469 10.242188 C 17.605469 10.21875 17.605469 10.195312 17.605469 10.171875 C 17.742188 10.242188 17.835938 10.355469 17.882812 10.519531 C 17.847656 10.621094 17.777344 10.664062 17.671875 10.660156 C 17.765625 10.5 17.742188 10.363281 17.605469 10.242188 Z M 17.605469 10.242188 "/>
<path style=" stroke:none;fill-rule:evenodd;fill:rgb(66.27451%,61.176471%,26.27451%);fill-opacity:1;" d="M 14.894531 10.730469 C 14.984375 10.683594 15.089844 10.660156 15.207031 10.660156 C 15.402344 10.652344 15.578125 10.699219 15.730469 10.796875 C 15.453125 10.761719 15.175781 10.738281 14.894531 10.730469 Z M 14.894531 10.730469 "/>
<path style=" stroke:none;fill-rule:evenodd;fill:rgb(35.294118%,33.72549%,21.568627%);fill-opacity:1;" d="M 15.730469 10.796875 C 15.902344 10.78125 16.019531 10.851562 16.078125 11.007812 C 15.941406 10.964844 15.828125 10.894531 15.730469 10.796875 Z M 15.730469 10.796875 "/>
<path style=" stroke:none;fill-rule:evenodd;fill:rgb(60%,55.686275%,25.490196%);fill-opacity:1;" d="M 17.535156 10.730469 C 17.5 10.828125 17.433594 10.875 17.328125 10.867188 C 17.359375 10.769531 17.429688 10.722656 17.535156 10.730469 Z M 17.535156 10.730469 "/>
<path style=" stroke:none;fill-rule:evenodd;fill:rgb(37.254902%,35.686275%,21.960784%);fill-opacity:1;" d="M 12.605469 10.519531 C 12.515625 11.167969 12.515625 11.816406 12.605469 12.464844 C 12.582031 12.464844 12.558594 12.464844 12.535156 12.464844 C 12.332031 11.800781 12.355469 11.152344 12.605469 10.519531 Z M 12.605469 10.519531 "/>
<path style=" stroke:none;fill-rule:evenodd;fill:rgb(79.215686%,72.54902%,28.627451%);fill-opacity:1;" d="M 17.046875 11.078125 C 16.9375 11.292969 16.75 11.410156 16.492188 11.421875 C 16.628906 11.238281 16.816406 11.121094 17.046875 11.078125 Z M 17.046875 11.078125 "/>
<path style=" stroke:none;fill-rule:evenodd;fill:rgb(72.156863%,66.27451%,27.45098%);fill-opacity:1;" d="M 14.757812 10.730469 C 14.375 11.042969 14.257812 11.433594 14.410156 11.910156 C 14.386719 11.910156 14.363281 11.910156 14.339844 11.910156 C 14.265625 11.660156 14.253906 11.40625 14.304688 11.144531 C 14.402344 10.945312 14.554688 10.804688 14.757812 10.730469 Z M 14.757812 10.730469 "/>
<path style=" stroke:none;fill-rule:evenodd;fill:rgb(45.490196%,42.745098%,23.137255%);fill-opacity:1;" d="M 14.339844 11.910156 C 14.363281 11.910156 14.386719 11.910156 14.410156 11.910156 C 14.453125 11.972656 14.476562 12.042969 14.480469 12.117188 C 14.382812 12.085938 14.335938 12.015625 14.339844 11.910156 Z M 14.339844 11.910156 "/>
<path style=" stroke:none;fill-rule:evenodd;fill:rgb(59.215686%,54.901961%,25.098039%);fill-opacity:1;" d="M 8.992188 9.132812 C 8.992188 9.15625 8.992188 9.179688 8.992188 9.203125 C 9.003906 11.515625 8.992188 13.832031 8.957031 16.144531 C 8.9375 16.210938 8.90625 16.253906 8.855469 16.285156 C 8.898438 13.890625 8.945312 11.507812 8.992188 9.132812 Z M 8.992188 9.132812 "/>
<path style=" stroke:none;fill-rule:evenodd;fill:rgb(55.686275%,52.156863%,24.705882%);fill-opacity:1;" d="M 12.535156 12.464844 C 12.558594 12.464844 12.582031 12.464844 12.605469 12.464844 C 12.648438 12.527344 12.667969 12.597656 12.671875 12.671875 C 12.574219 12.640625 12.53125 12.570312 12.535156 12.464844 Z M 12.535156 12.464844 "/>
<path style=" stroke:none;fill-rule:evenodd;fill:rgb(62.745098%,58.039216%,25.882353%);fill-opacity:1;" d="M 15.105469 12.464844 C 15.277344 12.484375 15.414062 12.550781 15.519531 12.671875 C 15.347656 12.65625 15.210938 12.585938 15.105469 12.464844 Z M 15.105469 12.464844 "/>
<path style=" stroke:none;fill-rule:evenodd;fill:rgb(54.117647%,50.196078%,24.313725%);fill-opacity:1;" d="M 15.730469 12.742188 C 15.835938 12.738281 15.90625 12.785156 15.9375 12.882812 C 15.832031 12.886719 15.761719 12.839844 15.730469 12.742188 Z M 15.730469 12.742188 "/>
<path style=" stroke:none;fill-rule:evenodd;fill:rgb(50.196078%,47.058824%,23.921569%);fill-opacity:1;" d="M 12.671875 12.742188 C 12.769531 12.777344 12.816406 12.84375 12.8125 12.953125 C 12.714844 12.917969 12.667969 12.847656 12.671875 12.742188 Z M 12.671875 12.742188 "/>
<path style=" stroke:none;fill-rule:evenodd;fill:rgb(53.333333%,49.803922%,24.313725%);fill-opacity:1;" d="M 16.007812 12.882812 C 16.179688 12.898438 16.316406 12.96875 16.421875 13.089844 C 16.253906 13.074219 16.113281 13.003906 16.007812 12.882812 Z M 16.007812 12.882812 "/>
<path style=" stroke:none;fill-rule:evenodd;fill:rgb(61.176471%,56.470588%,25.490196%);fill-opacity:1;" d="M 16.632812 13.160156 C 16.738281 13.15625 16.808594 13.199219 16.839844 13.296875 C 16.734375 13.304688 16.664062 13.257812 16.632812 13.160156 Z M 16.632812 13.160156 "/>
<path style=" stroke:none;fill-rule:evenodd;fill:rgb(73.72549%,67.843137%,27.843137%);fill-opacity:1;" d="M 16.839844 13.296875 C 17.011719 13.28125 17.128906 13.351562 17.1875 13.507812 C 17.054688 13.464844 16.9375 13.394531 16.839844 13.296875 Z M 16.839844 13.296875 "/>
<path style=" stroke:none;fill-rule:evenodd;fill:rgb(45.098039%,42.745098%,22.745098%);fill-opacity:1;" d="M 13.4375 13.644531 C 13.542969 13.640625 13.613281 13.6875 13.644531 13.785156 C 13.539062 13.789062 13.46875 13.742188 13.4375 13.644531 Z M 13.4375 13.644531 "/>
<path style=" stroke:none;fill-rule:evenodd;fill:rgb(52.941176%,49.411765%,24.313725%);fill-opacity:1;" d="M 14.132812 14.0625 C 14.238281 14.058594 14.308594 14.105469 14.339844 14.203125 C 14.234375 14.207031 14.164062 14.160156 14.132812 14.0625 Z M 14.132812 14.0625 "/>
<path style=" stroke:none;fill-rule:evenodd;fill:rgb(41.568627%,39.607843%,22.352941%);fill-opacity:1;" d="M 14.757812 14.339844 C 14.929688 14.359375 15.066406 14.425781 15.171875 14.546875 C 15.003906 14.53125 14.863281 14.460938 14.757812 14.339844 Z M 14.757812 14.339844 "/>
<path style=" stroke:none;fill-rule:evenodd;fill:rgb(46.666667%,43.921569%,23.137255%);fill-opacity:1;" d="M 18.019531 14.410156 C 18.117188 14.441406 18.164062 14.511719 18.160156 14.617188 C 18.0625 14.585938 18.015625 14.515625 18.019531 14.410156 Z M 18.019531 14.410156 "/>
<path style=" stroke:none;fill-rule:evenodd;fill:rgb(67.058824%,61.568627%,26.666667%);fill-opacity:1;" d="M 15.171875 14.546875 C 15.429688 14.628906 15.660156 14.746094 15.867188 14.894531 C 15.59375 14.851562 15.363281 14.734375 15.171875 14.546875 Z M 15.171875 14.546875 "/>
<path style=" stroke:none;fill-rule:evenodd;fill:rgb(57.647059%,53.72549%,25.098039%);fill-opacity:1;" d="M 18.160156 14.6875 C 18.277344 14.765625 18.324219 14.882812 18.296875 15.035156 C 18.226562 14.933594 18.179688 14.820312 18.160156 14.6875 Z M 18.160156 14.6875 "/>
<path style=" stroke:none;fill-rule:evenodd;fill:rgb(37.647059%,36.078431%,21.568627%);fill-opacity:1;" d="M 18.296875 15.035156 C 18.367188 15.4375 18.390625 15.855469 18.367188 16.285156 C 18.320312 16.355469 18.277344 16.421875 18.230469 16.492188 C 18.289062 16.007812 18.3125 15.523438 18.296875 15.035156 Z M 18.296875 15.035156 "/>
<path style=" stroke:none;fill-rule:evenodd;fill:rgb(51.764706%,48.235294%,23.921569%);fill-opacity:1;" d="M 13.4375 15.660156 C 13.34375 15.683594 13.253906 15.707031 13.160156 15.730469 C 13.230469 15.589844 13.324219 15.566406 13.4375 15.660156 Z M 13.4375 15.660156 "/>
<path style=" stroke:none;fill-rule:evenodd;fill:rgb(67.058824%,61.960784%,26.666667%);fill-opacity:1;" d="M 16.355469 15.3125 C 16.398438 15.320312 16.433594 15.34375 16.457031 15.382812 C 16.515625 15.648438 16.503906 15.90625 16.421875 16.144531 C 16.4375 15.863281 16.414062 15.585938 16.355469 15.3125 Z M 16.355469 15.3125 "/>
<path style=" stroke:none;fill-rule:evenodd;fill:rgb(42.745098%,40.392157%,22.745098%);fill-opacity:1;" d="M 13.160156 15.730469 C 13.125 15.828125 13.058594 15.875 12.953125 15.867188 C 12.984375 15.769531 13.054688 15.722656 13.160156 15.730469 Z M 13.160156 15.730469 "/>
<path style=" stroke:none;fill-rule:evenodd;fill:rgb(37.647059%,35.686275%,21.960784%);fill-opacity:1;" d="M 6.980469 16.144531 C 6.867188 16.066406 6.761719 15.976562 6.667969 15.867188 C 6.449219 16.007812 6.230469 16.121094 6.007812 16.214844 C 6.1875 16.019531 6.40625 15.878906 6.667969 15.796875 C 6.832031 15.859375 6.9375 15.976562 6.980469 16.144531 Z M 6.980469 16.144531 "/>
<path style=" stroke:none;fill-rule:evenodd;fill:rgb(43.137255%,41.176471%,22.745098%);fill-opacity:1;" d="M 12.953125 15.867188 C 12.898438 15.980469 12.804688 16.027344 12.671875 16.007812 C 12.742188 15.925781 12.835938 15.878906 12.953125 15.867188 Z M 12.953125 15.867188 "/>
<path style=" stroke:none;fill-rule:evenodd;fill:rgb(42.352941%,40%,22.745098%);fill-opacity:1;" d="M 12.671875 16.007812 C 12.640625 16.105469 12.570312 16.152344 12.464844 16.144531 C 12.5 16.046875 12.566406 16 12.671875 16.007812 Z M 12.671875 16.007812 "/>
<path style=" stroke:none;fill-rule:evenodd;fill:rgb(58.039216%,54.117647%,25.098039%);fill-opacity:1;" d="M 12.257812 16.214844 C 12.222656 16.3125 12.15625 16.359375 12.046875 16.355469 C 12.082031 16.257812 12.152344 16.210938 12.257812 16.214844 Z M 12.257812 16.214844 "/>
<path style=" stroke:none;fill-rule:evenodd;fill:rgb(62.352941%,57.647059%,25.882353%);fill-opacity:1;" d="M 14.0625 16.355469 C 14.167969 16.347656 14.238281 16.394531 14.269531 16.492188 C 14.164062 16.5 14.09375 16.453125 14.0625 16.355469 Z M 14.0625 16.355469 "/>
<path style=" stroke:none;fill-rule:evenodd;fill:rgb(46.27451%,43.529412%,23.137255%);fill-opacity:1;" d="M 5.660156 16.421875 C 5.625 16.519531 5.558594 16.566406 5.453125 16.5625 C 5.484375 16.464844 5.554688 16.417969 5.660156 16.421875 Z M 5.660156 16.421875 "/>
<path style=" stroke:none;fill-rule:evenodd;fill:rgb(46.27451%,43.529412%,23.137255%);fill-opacity:1;" d="M 8.785156 16.355469 C 8.785156 16.492188 8.714844 16.5625 8.578125 16.5625 C 8.621094 16.46875 8.691406 16.402344 8.785156 16.355469 Z M 8.785156 16.355469 "/>
<path style=" stroke:none;fill-rule:evenodd;fill:rgb(61.176471%,56.862745%,25.490196%);fill-opacity:1;" d="M 12.046875 16.355469 C 12.003906 16.421875 11.957031 16.492188 11.910156 16.5625 C 11.824219 16.433594 11.871094 16.367188 12.046875 16.355469 Z M 12.046875 16.355469 "/>
<path style=" stroke:none;fill-rule:evenodd;fill:rgb(69.803922%,64.313725%,27.058824%);fill-opacity:1;" d="M 18.367188 16.285156 C 18.378906 16.507812 18.308594 16.691406 18.160156 16.839844 C 18.195312 16.726562 18.21875 16.613281 18.230469 16.492188 C 18.277344 16.421875 18.320312 16.355469 18.367188 16.285156 Z M 18.367188 16.285156 "/>
<path style=" stroke:none;fill-rule:evenodd;fill:rgb(66.27451%,61.176471%,26.27451%);fill-opacity:1;" d="M 10.796875 16.214844 C 10.796875 16.238281 10.796875 16.261719 10.796875 16.285156 C 10.828125 16.460938 10.785156 16.597656 10.660156 16.703125 C 10.6875 16.527344 10.734375 16.363281 10.796875 16.214844 Z M 10.796875 16.214844 "/>
<path style=" stroke:none;fill-rule:evenodd;fill:rgb(63.529412%,58.823529%,25.882353%);fill-opacity:1;" d="M 16.078125 16.492188 C 15.964844 16.582031 15.839844 16.652344 15.695312 16.703125 C 15.273438 16.808594 14.867188 16.785156 14.480469 16.632812 C 15.019531 16.65625 15.554688 16.613281 16.078125 16.492188 Z M 16.078125 16.492188 "/>
<path style=" stroke:none;fill-rule:evenodd;fill:rgb(48.235294%,45.098039%,23.529412%);fill-opacity:1;" d="M 5.453125 16.5625 C 5.375 16.640625 5.328125 16.730469 5.3125 16.839844 C 5.210938 16.6875 5.257812 16.59375 5.453125 16.5625 Z M 5.453125 16.5625 "/>
<path style=" stroke:none;fill-rule:evenodd;fill:rgb(45.882353%,43.137255%,23.137255%);fill-opacity:1;" d="M 7.464844 16.632812 C 7.71875 16.675781 7.972656 16.699219 8.230469 16.703125 C 7.964844 16.796875 7.710938 16.777344 7.464844 16.632812 Z M 7.464844 16.632812 "/>
<path style=" stroke:none;fill-rule:evenodd;fill:rgb(58.039216%,54.117647%,25.098039%);fill-opacity:1;" d="M 10.660156 16.769531 C 10.640625 16.941406 10.574219 17.082031 10.453125 17.1875 C 10.46875 17.015625 10.539062 16.878906 10.660156 16.769531 Z M 10.660156 16.769531 "/>
<path style=" stroke:none;fill-rule:evenodd;fill:rgb(54.901961%,50.588235%,24.705882%);fill-opacity:1;" d="M 12.671875 17.535156 C 12.78125 17.53125 12.847656 17.574219 12.882812 17.671875 C 12.777344 17.679688 12.707031 17.632812 12.671875 17.535156 Z M 12.671875 17.535156 "/>
<path style=" stroke:none;fill-rule:evenodd;fill:rgb(73.333333%,67.45098%,27.45098%);fill-opacity:1;" d="M 17.953125 17.257812 C 17.859375 17.488281 17.695312 17.652344 17.464844 17.742188 C 17.605469 17.558594 17.765625 17.394531 17.953125 17.257812 Z M 17.953125 17.257812 "/>
<path style=" stroke:none;fill-rule:evenodd;fill:rgb(45.098039%,42.352941%,22.745098%);fill-opacity:1;" d="M 13.019531 17.742188 C 13.125 17.738281 13.195312 17.785156 13.230469 17.882812 C 13.125 17.886719 13.054688 17.839844 13.019531 17.742188 Z M 13.019531 17.742188 "/>
<path style=" stroke:none;fill-rule:evenodd;fill:rgb(58.823529%,54.509804%,25.098039%);fill-opacity:1;" d="M 17.464844 17.742188 C 17.386719 17.863281 17.269531 17.933594 17.117188 17.953125 C 17.199219 17.828125 17.3125 17.761719 17.464844 17.742188 Z M 17.464844 17.742188 "/>
<path style=" stroke:none;fill-rule:evenodd;fill:rgb(75.686275%,69.803922%,27.843137%);fill-opacity:1;" d="M 10.035156 17.742188 C 9.96875 17.847656 9.890625 17.941406 9.792969 18.019531 C 9.566406 18.167969 9.324219 18.257812 9.0625 18.296875 C 9.0625 18.277344 9.0625 18.253906 9.0625 18.230469 C 9.402344 18.09375 9.726562 17.929688 10.035156 17.742188 Z M 10.035156 17.742188 "/>
<path style=" stroke:none;fill-rule:evenodd;fill:rgb(60.784314%,56.078431%,25.490196%);fill-opacity:1;" d="M 13.230469 17.882812 C 13.335938 17.875 13.40625 17.921875 13.4375 18.019531 C 13.332031 18.027344 13.261719 17.980469 13.230469 17.882812 Z M 13.230469 17.882812 "/>
<path style=" stroke:none;fill-rule:evenodd;fill:rgb(36.470588%,34.901961%,21.960784%);fill-opacity:1;" d="M 13.4375 18.019531 C 13.601562 18.03125 13.761719 18.054688 13.921875 18.089844 C 14.03125 18.101562 14.097656 18.144531 14.132812 18.230469 C 13.882812 18.195312 13.652344 18.125 13.4375 18.019531 Z M 13.4375 18.019531 "/>
<path style=" stroke:none;fill-rule:evenodd;fill:rgb(47.45098%,44.705882%,23.137255%);fill-opacity:1;" d="M 16.910156 18.019531 C 16.839844 18.101562 16.746094 18.148438 16.632812 18.160156 C 16.6875 18.046875 16.777344 18.003906 16.910156 18.019531 Z M 16.910156 18.019531 "/>
<path style=" stroke:none;fill-rule:evenodd;fill:rgb(38.823529%,36.862745%,21.960784%);fill-opacity:1;" d="M 7.117188 18.230469 C 7.765625 18.320312 8.414062 18.320312 9.0625 18.230469 C 9.0625 18.253906 9.0625 18.277344 9.0625 18.296875 C 8.4375 18.371094 7.8125 18.382812 7.1875 18.332031 C 7.148438 18.308594 7.125 18.273438 7.117188 18.230469 Z M 7.117188 18.230469 "/>
<path style=" stroke:none;fill-rule:evenodd;fill:rgb(55.686275%,51.764706%,24.705882%);fill-opacity:1;" d="M 14.203125 18.230469 C 14.367188 18.210938 14.507812 18.257812 14.617188 18.367188 C 14.453125 18.386719 14.3125 18.339844 14.203125 18.230469 Z M 14.203125 18.230469 "/>
<path style=" stroke:none;fill-rule:evenodd;fill:rgb(56.862745%,52.54902%,24.705882%);fill-opacity:1;" d="M 16.632812 18.160156 C 16.378906 18.292969 16.101562 18.363281 15.796875 18.367188 C 16.050781 18.238281 16.332031 18.171875 16.632812 18.160156 Z M 16.632812 18.160156 "/>
</g>
</svg>
