<?xml version="1.0" encoding="UTF-8"?>
<svg xmlns="http://www.w3.org/2000/svg" xmlns:xlink="http://www.w3.org/1999/xlink" width="59px" height="20px" viewBox="0 0 6 20" version="1.1">
<g id="surface1">
<path style=" stroke:none;fill-rule:evenodd;fill:rgb(93.72549%,85.490196%,30.588235%);fill-opacity:1;" d="M -0.0117188 6.597656 C 1.988281 6.597656 3.988281 6.597656 5.988281 6.597656 C 5.988281 8.859375 5.988281 11.117188 5.988281 13.378906 C 3.988281 13.378906 1.988281 13.378906 -0.0117188 13.378906 C -0.0117188 11.117188 -0.0117188 8.859375 -0.0117188 6.597656 Z M -0.0117188 6.597656 "/>
<path style=" stroke:none;fill-rule:evenodd;fill:rgb(41.176471%,39.215686%,22.352941%);fill-opacity:1;" d="M 4.84375 9.730469 C 4.625 9.695312 4.410156 9.703125 4.199219 9.753906 C 4.222656 9.714844 4.257812 9.695312 4.300781 9.695312 C 4.46875 9.679688 4.636719 9.679688 4.800781 9.695312 C 4.820312 9.699219 4.835938 9.710938 4.84375 9.730469 Z M 4.84375 9.730469 "/>
<path style=" stroke:none;fill-rule:evenodd;fill:rgb(20%,20.392157%,18.823529%);fill-opacity:1;" d="M 4.84375 9.730469 C 4.878906 9.734375 4.914062 9.742188 4.949219 9.753906 C 4.980469 9.792969 5.019531 9.816406 5.074219 9.824219 C 5.128906 9.871094 5.175781 9.929688 5.21875 9.988281 C 5.222656 10.03125 5.246094 10.066406 5.28125 10.082031 C 5.324219 10.125 5.328125 10.167969 5.300781 10.222656 C 5.28125 10.21875 5.269531 10.226562 5.261719 10.246094 C 5.230469 10.246094 5.207031 10.261719 5.199219 10.292969 C 5.160156 10.308594 5.132812 10.328125 5.113281 10.367188 C 5.042969 10.378906 4.988281 10.417969 4.949219 10.480469 C 4.898438 10.449219 4.855469 10.402344 4.824219 10.339844 C 4.804688 10.289062 4.769531 10.265625 4.71875 10.269531 C 4.671875 10.238281 4.621094 10.222656 4.5625 10.222656 C 4.527344 10.222656 4.496094 10.230469 4.46875 10.246094 C 4.453125 10.246094 4.441406 10.246094 4.425781 10.246094 C 4.367188 10.273438 4.320312 10.320312 4.292969 10.386719 C 4.277344 10.476562 4.28125 10.5625 4.300781 10.648438 C 4.300781 10.683594 4.316406 10.707031 4.34375 10.71875 C 4.394531 10.777344 4.457031 10.8125 4.53125 10.835938 C 4.5625 10.875 4.605469 10.902344 4.65625 10.90625 C 4.675781 10.921875 4.695312 10.929688 4.71875 10.929688 C 4.730469 10.960938 4.75 10.980469 4.78125 10.976562 C 4.789062 10.976562 4.796875 10.976562 4.800781 10.976562 C 4.832031 11.019531 4.875 11.042969 4.925781 11.046875 C 4.945312 11.0625 4.964844 11.070312 4.988281 11.070312 C 5 11.105469 5.019531 11.121094 5.050781 11.117188 C 5.082031 11.152344 5.117188 11.175781 5.15625 11.1875 C 5.203125 11.238281 5.257812 11.285156 5.3125 11.328125 C 5.347656 11.382812 5.378906 11.4375 5.40625 11.496094 C 5.40625 11.53125 5.417969 11.554688 5.449219 11.566406 C 5.449219 11.574219 5.449219 11.582031 5.449219 11.589844 C 5.453125 11.632812 5.46875 11.671875 5.488281 11.707031 C 5.492188 11.871094 5.488281 12.035156 5.46875 12.199219 C 5.464844 12.242188 5.457031 12.28125 5.449219 12.320312 C 5.425781 12.367188 5.40625 12.414062 5.386719 12.460938 C 5.328125 12.507812 5.28125 12.5625 5.238281 12.625 C 5.195312 12.632812 5.160156 12.652344 5.136719 12.695312 C 5.113281 12.699219 5.089844 12.703125 5.074219 12.71875 C 5.035156 12.714844 5.007812 12.726562 4.988281 12.765625 C 4.898438 12.769531 4.816406 12.792969 4.738281 12.835938 C 4.621094 12.835938 4.503906 12.835938 4.386719 12.835938 C 4.351562 12.800781 4.308594 12.785156 4.261719 12.789062 C 4.253906 12.789062 4.246094 12.789062 4.238281 12.789062 C 4.230469 12.761719 4.210938 12.746094 4.175781 12.742188 C 4.128906 12.730469 4.082031 12.722656 4.03125 12.71875 C 4.023438 12.683594 4 12.667969 3.96875 12.671875 C 3.957031 12.640625 3.9375 12.625 3.90625 12.625 C 3.890625 12.617188 3.878906 12.609375 3.863281 12.601562 C 3.855469 12.566406 3.835938 12.554688 3.800781 12.554688 C 3.714844 12.449219 3.636719 12.339844 3.574219 12.222656 C 3.585938 12.199219 3.601562 12.175781 3.613281 12.15625 C 3.648438 12.15625 3.667969 12.140625 3.675781 12.105469 C 3.695312 12.09375 3.714844 12.085938 3.738281 12.082031 C 3.769531 12.085938 3.792969 12.070312 3.800781 12.035156 C 3.839844 12.042969 3.871094 12.027344 3.886719 11.988281 C 3.917969 11.992188 3.9375 11.976562 3.949219 11.941406 C 3.976562 11.933594 4.003906 11.925781 4.03125 11.917969 C 4.078125 12.011719 4.140625 12.089844 4.21875 12.15625 C 4.226562 12.1875 4.25 12.203125 4.28125 12.199219 C 4.300781 12.214844 4.324219 12.234375 4.34375 12.25 C 4.460938 12.300781 4.582031 12.308594 4.707031 12.273438 C 4.753906 12.253906 4.789062 12.230469 4.824219 12.199219 C 4.867188 12.167969 4.898438 12.128906 4.925781 12.082031 C 4.949219 12.003906 4.953125 11.914062 4.9375 11.824219 C 4.929688 11.8125 4.917969 11.804688 4.90625 11.800781 C 4.871094 11.738281 4.824219 11.691406 4.761719 11.660156 C 4.699219 11.609375 4.628906 11.570312 4.550781 11.542969 C 4.519531 11.5 4.480469 11.476562 4.425781 11.472656 C 4.378906 11.46875 4.339844 11.453125 4.300781 11.425781 C 4.292969 11.390625 4.269531 11.375 4.238281 11.378906 C 4.179688 11.363281 4.132812 11.332031 4.09375 11.28125 C 4.082031 11.25 4.0625 11.234375 4.03125 11.234375 C 3.953125 11.171875 3.890625 11.09375 3.84375 11 C 3.84375 10.964844 3.832031 10.941406 3.800781 10.929688 C 3.800781 10.921875 3.800781 10.914062 3.800781 10.90625 C 3.800781 10.878906 3.792969 10.855469 3.78125 10.835938 C 3.753906 10.617188 3.753906 10.394531 3.78125 10.175781 C 3.796875 10.175781 3.800781 10.167969 3.800781 10.152344 C 3.839844 10.128906 3.863281 10.089844 3.863281 10.035156 C 3.863281 10.019531 3.871094 10.011719 3.886719 10.011719 C 3.933594 9.972656 3.976562 9.925781 4.011719 9.871094 C 4.050781 9.863281 4.078125 9.839844 4.09375 9.800781 C 4.125 9.773438 4.15625 9.761719 4.199219 9.753906 C 4.410156 9.703125 4.625 9.695312 4.84375 9.730469 Z M 4.84375 9.730469 "/>
<path style=" stroke:none;fill-rule:evenodd;fill:rgb(50.980392%,47.45098%,23.921569%);fill-opacity:1;" d="M 2.699219 9.730469 C 2.699219 9.722656 2.699219 9.714844 2.699219 9.707031 C 2.886719 9.699219 3.074219 9.707031 3.261719 9.730469 C 3.265625 10.484375 3.261719 11.238281 3.238281 11.988281 C 3.238281 11.234375 3.238281 10.480469 3.238281 9.730469 C 3.058594 9.730469 2.878906 9.730469 2.699219 9.730469 Z M 2.699219 9.730469 "/>
<path style=" stroke:none;fill-rule:evenodd;fill:rgb(86.27451%,78.823529%,29.411765%);fill-opacity:1;" d="M 3.261719 9.730469 C 3.273438 10.125 3.28125 10.527344 3.28125 10.929688 C 3.28125 11.339844 3.265625 11.738281 3.238281 12.128906 C 3.238281 12.121094 3.238281 12.113281 3.238281 12.105469 C 3.238281 12.066406 3.238281 12.027344 3.238281 11.988281 C 3.261719 11.238281 3.265625 10.484375 3.261719 9.730469 Z M 3.261719 9.730469 "/>
<path style=" stroke:none;fill-rule:evenodd;fill:rgb(20%,20.392157%,18.823529%);fill-opacity:1;" d="M 2.699219 9.730469 C 2.878906 9.730469 3.058594 9.730469 3.238281 9.730469 C 3.238281 10.480469 3.238281 11.234375 3.238281 11.988281 C 3.238281 12.027344 3.238281 12.066406 3.238281 12.105469 C 3.21875 12.15625 3.207031 12.210938 3.199219 12.273438 C 3.199219 12.277344 3.199219 12.285156 3.199219 12.292969 C 3.160156 12.332031 3.140625 12.378906 3.136719 12.4375 C 3.09375 12.5 3.050781 12.5625 3.011719 12.625 C 2.917969 12.6875 2.820312 12.742188 2.71875 12.789062 C 2.523438 12.820312 2.328125 12.820312 2.136719 12.789062 C 1.886719 12.730469 1.707031 12.574219 1.59375 12.320312 C 1.597656 12.28125 1.613281 12.25 1.636719 12.222656 C 1.667969 12.226562 1.6875 12.210938 1.699219 12.175781 C 1.726562 12.144531 1.761719 12.121094 1.800781 12.105469 C 1.871094 12.074219 1.933594 12.035156 2 11.988281 C 2.027344 12.027344 2.058594 12.054688 2.09375 12.082031 C 2.136719 12.144531 2.183594 12.199219 2.238281 12.25 C 2.3125 12.296875 2.390625 12.304688 2.46875 12.273438 C 2.5 12.25 2.535156 12.234375 2.574219 12.222656 C 2.613281 12.222656 2.636719 12.199219 2.636719 12.15625 C 2.636719 12.136719 2.644531 12.128906 2.65625 12.128906 C 2.671875 12.121094 2.679688 12.105469 2.6875 12.082031 C 2.699219 11.300781 2.699219 10.515625 2.699219 9.730469 Z M 2.699219 9.730469 "/>
<path style=" stroke:none;fill-rule:evenodd;fill:rgb(65.098039%,60.392157%,26.27451%);fill-opacity:1;" d="M 4.949219 9.753906 C 5 9.757812 5.042969 9.78125 5.074219 9.824219 C 5.019531 9.816406 4.980469 9.792969 4.949219 9.753906 Z M 4.949219 9.753906 "/>
<path style=" stroke:none;fill-rule:evenodd;fill:rgb(45.882353%,43.137255%,23.137255%);fill-opacity:1;" d="M 4.09375 9.800781 C 4.078125 9.839844 4.050781 9.863281 4.011719 9.871094 C 4.027344 9.828125 4.054688 9.804688 4.09375 9.800781 Z M 4.09375 9.800781 "/>
<path style=" stroke:none;fill-rule:evenodd;fill:rgb(47.058824%,43.921569%,23.137255%);fill-opacity:1;" d="M 4.011719 9.871094 C 3.976562 9.925781 3.933594 9.972656 3.886719 10.011719 C 3.90625 9.941406 3.949219 9.894531 4.011719 9.871094 Z M 4.011719 9.871094 "/>
<path style=" stroke:none;fill-rule:evenodd;fill:rgb(41.176471%,39.215686%,22.352941%);fill-opacity:1;" d="M 5.21875 9.988281 C 5.246094 10.003906 5.269531 10.027344 5.28125 10.058594 C 5.28125 10.066406 5.28125 10.074219 5.28125 10.082031 C 5.246094 10.066406 5.222656 10.03125 5.21875 9.988281 Z M 5.21875 9.988281 "/>
<path style=" stroke:none;fill-rule:evenodd;fill:rgb(36.078431%,34.509804%,21.568627%);fill-opacity:1;" d="M 3.863281 10.035156 C 3.863281 10.089844 3.839844 10.128906 3.800781 10.152344 C 3.808594 10.101562 3.828125 10.0625 3.863281 10.035156 Z M 3.863281 10.035156 "/>
<path style=" stroke:none;fill-rule:evenodd;fill:rgb(72.54902%,66.666667%,27.45098%);fill-opacity:1;" d="M 5.28125 10.082031 C 5.28125 10.074219 5.28125 10.066406 5.28125 10.058594 C 5.324219 10.082031 5.351562 10.121094 5.363281 10.175781 C 5.355469 10.210938 5.332031 10.226562 5.300781 10.222656 C 5.328125 10.167969 5.324219 10.125 5.28125 10.082031 Z M 5.28125 10.082031 "/>
<path style=" stroke:none;fill-rule:evenodd;fill:rgb(66.27451%,61.176471%,26.27451%);fill-opacity:1;" d="M 4.46875 10.246094 C 4.496094 10.230469 4.527344 10.222656 4.5625 10.222656 C 4.621094 10.222656 4.671875 10.238281 4.71875 10.269531 C 4.636719 10.257812 4.550781 10.25 4.46875 10.246094 Z M 4.46875 10.246094 "/>
<path style=" stroke:none;fill-rule:evenodd;fill:rgb(35.294118%,33.72549%,21.568627%);fill-opacity:1;" d="M 4.71875 10.269531 C 4.769531 10.265625 4.804688 10.289062 4.824219 10.339844 C 4.78125 10.328125 4.75 10.304688 4.71875 10.269531 Z M 4.71875 10.269531 "/>
<path style=" stroke:none;fill-rule:evenodd;fill:rgb(60%,55.686275%,25.490196%);fill-opacity:1;" d="M 5.261719 10.246094 C 5.25 10.28125 5.230469 10.296875 5.199219 10.292969 C 5.207031 10.261719 5.230469 10.246094 5.261719 10.246094 Z M 5.261719 10.246094 "/>
<path style=" stroke:none;fill-rule:evenodd;fill:rgb(37.254902%,35.686275%,21.960784%);fill-opacity:1;" d="M 3.78125 10.175781 C 3.753906 10.394531 3.753906 10.617188 3.78125 10.835938 C 3.773438 10.835938 3.769531 10.835938 3.761719 10.835938 C 3.699219 10.609375 3.707031 10.390625 3.78125 10.175781 Z M 3.78125 10.175781 "/>
<path style=" stroke:none;fill-rule:evenodd;fill:rgb(79.215686%,72.54902%,28.627451%);fill-opacity:1;" d="M 5.113281 10.367188 C 5.082031 10.4375 5.023438 10.476562 4.949219 10.480469 C 4.988281 10.417969 5.042969 10.378906 5.113281 10.367188 Z M 5.113281 10.367188 "/>
<path style=" stroke:none;fill-rule:evenodd;fill:rgb(72.156863%,66.27451%,27.45098%);fill-opacity:1;" d="M 4.425781 10.246094 C 4.3125 10.355469 4.277344 10.484375 4.324219 10.648438 C 4.316406 10.648438 4.308594 10.648438 4.300781 10.648438 C 4.28125 10.5625 4.277344 10.476562 4.292969 10.386719 C 4.320312 10.320312 4.367188 10.273438 4.425781 10.246094 Z M 4.425781 10.246094 "/>
<path style=" stroke:none;fill-rule:evenodd;fill:rgb(45.490196%,42.745098%,23.137255%);fill-opacity:1;" d="M 4.300781 10.648438 C 4.308594 10.648438 4.316406 10.648438 4.324219 10.648438 C 4.335938 10.667969 4.34375 10.691406 4.34375 10.71875 C 4.316406 10.707031 4.300781 10.683594 4.300781 10.648438 Z M 4.300781 10.648438 "/>
<path style=" stroke:none;fill-rule:evenodd;fill:rgb(59.215686%,54.901961%,25.098039%);fill-opacity:1;" d="M 2.699219 9.707031 C 2.699219 9.714844 2.699219 9.722656 2.699219 9.730469 C 2.699219 10.515625 2.699219 11.300781 2.6875 12.082031 C 2.679688 12.105469 2.671875 12.121094 2.65625 12.128906 C 2.667969 11.320312 2.683594 10.511719 2.699219 9.707031 Z M 2.699219 9.707031 "/>
<path style=" stroke:none;fill-rule:evenodd;fill:rgb(55.686275%,52.156863%,24.705882%);fill-opacity:1;" d="M 3.761719 10.835938 C 3.769531 10.835938 3.773438 10.835938 3.78125 10.835938 C 3.792969 10.855469 3.800781 10.878906 3.800781 10.90625 C 3.773438 10.894531 3.757812 10.871094 3.761719 10.835938 Z M 3.761719 10.835938 "/>
<path style=" stroke:none;fill-rule:evenodd;fill:rgb(62.745098%,58.039216%,25.882353%);fill-opacity:1;" d="M 4.53125 10.835938 C 4.582031 10.84375 4.625 10.863281 4.65625 10.90625 C 4.605469 10.902344 4.5625 10.875 4.53125 10.835938 Z M 4.53125 10.835938 "/>
<path style=" stroke:none;fill-rule:evenodd;fill:rgb(54.117647%,50.196078%,24.313725%);fill-opacity:1;" d="M 4.71875 10.929688 C 4.75 10.929688 4.773438 10.945312 4.78125 10.976562 C 4.75 10.980469 4.730469 10.960938 4.71875 10.929688 Z M 4.71875 10.929688 "/>
<path style=" stroke:none;fill-rule:evenodd;fill:rgb(50.196078%,47.058824%,23.921569%);fill-opacity:1;" d="M 3.800781 10.929688 C 3.832031 10.941406 3.84375 10.964844 3.84375 11 C 3.816406 10.988281 3.800781 10.964844 3.800781 10.929688 Z M 3.800781 10.929688 "/>
<path style=" stroke:none;fill-rule:evenodd;fill:rgb(53.333333%,49.803922%,24.313725%);fill-opacity:1;" d="M 4.800781 10.976562 C 4.855469 10.984375 4.894531 11.007812 4.925781 11.046875 C 4.875 11.042969 4.832031 11.019531 4.800781 10.976562 Z M 4.800781 10.976562 "/>
<path style=" stroke:none;fill-rule:evenodd;fill:rgb(61.176471%,56.470588%,25.490196%);fill-opacity:1;" d="M 4.988281 11.070312 C 5.019531 11.070312 5.042969 11.085938 5.050781 11.117188 C 5.019531 11.121094 5 11.105469 4.988281 11.070312 Z M 4.988281 11.070312 "/>
<path style=" stroke:none;fill-rule:evenodd;fill:rgb(73.72549%,67.843137%,27.843137%);fill-opacity:1;" d="M 5.050781 11.117188 C 5.105469 11.113281 5.136719 11.136719 5.15625 11.1875 C 5.117188 11.175781 5.082031 11.152344 5.050781 11.117188 Z M 5.050781 11.117188 "/>
<path style=" stroke:none;fill-rule:evenodd;fill:rgb(45.098039%,42.745098%,22.745098%);fill-opacity:1;" d="M 4.03125 11.234375 C 4.0625 11.234375 4.082031 11.25 4.09375 11.28125 C 4.0625 11.285156 4.039062 11.269531 4.03125 11.234375 Z M 4.03125 11.234375 "/>
<path style=" stroke:none;fill-rule:evenodd;fill:rgb(52.941176%,49.411765%,24.313725%);fill-opacity:1;" d="M 4.238281 11.378906 C 4.269531 11.375 4.292969 11.390625 4.300781 11.425781 C 4.269531 11.425781 4.25 11.410156 4.238281 11.378906 Z M 4.238281 11.378906 "/>
<path style=" stroke:none;fill-rule:evenodd;fill:rgb(41.568627%,39.607843%,22.352941%);fill-opacity:1;" d="M 4.425781 11.472656 C 4.480469 11.476562 4.519531 11.5 4.550781 11.542969 C 4.5 11.535156 4.457031 11.511719 4.425781 11.472656 Z M 4.425781 11.472656 "/>
<path style=" stroke:none;fill-rule:evenodd;fill:rgb(46.666667%,43.921569%,23.137255%);fill-opacity:1;" d="M 5.40625 11.496094 C 5.433594 11.503906 5.449219 11.53125 5.449219 11.566406 C 5.417969 11.554688 5.40625 11.53125 5.40625 11.496094 Z M 5.40625 11.496094 "/>
<path style=" stroke:none;fill-rule:evenodd;fill:rgb(67.058824%,61.568627%,26.666667%);fill-opacity:1;" d="M 4.550781 11.542969 C 4.628906 11.570312 4.699219 11.609375 4.761719 11.660156 C 4.679688 11.644531 4.609375 11.605469 4.550781 11.542969 Z M 4.550781 11.542969 "/>
<path style=" stroke:none;fill-rule:evenodd;fill:rgb(57.647059%,53.72549%,25.098039%);fill-opacity:1;" d="M 5.449219 11.589844 C 5.484375 11.617188 5.496094 11.65625 5.488281 11.707031 C 5.46875 11.671875 5.453125 11.632812 5.449219 11.589844 Z M 5.449219 11.589844 "/>
<path style=" stroke:none;fill-rule:evenodd;fill:rgb(37.647059%,36.078431%,21.568627%);fill-opacity:1;" d="M 5.488281 11.707031 C 5.511719 11.84375 5.515625 11.984375 5.511719 12.128906 C 5.496094 12.15625 5.484375 12.175781 5.46875 12.199219 C 5.488281 12.035156 5.492188 11.871094 5.488281 11.707031 Z M 5.488281 11.707031 "/>
<path style=" stroke:none;fill-rule:evenodd;fill:rgb(51.764706%,48.235294%,23.921569%);fill-opacity:1;" d="M 4.03125 11.917969 C 4.003906 11.925781 3.976562 11.933594 3.949219 11.941406 C 3.96875 11.894531 3.996094 11.886719 4.03125 11.917969 Z M 4.03125 11.917969 "/>
<path style=" stroke:none;fill-rule:evenodd;fill:rgb(67.058824%,61.960784%,26.666667%);fill-opacity:1;" d="M 4.90625 11.800781 C 4.917969 11.804688 4.929688 11.8125 4.9375 11.824219 C 4.953125 11.914062 4.949219 12.003906 4.925781 12.082031 C 4.929688 11.988281 4.925781 11.894531 4.90625 11.800781 Z M 4.90625 11.800781 "/>
<path style=" stroke:none;fill-rule:evenodd;fill:rgb(42.745098%,40.392157%,22.745098%);fill-opacity:1;" d="M 3.949219 11.941406 C 3.9375 11.976562 3.917969 11.992188 3.886719 11.988281 C 3.894531 11.957031 3.917969 11.941406 3.949219 11.941406 Z M 3.949219 11.941406 "/>
<path style=" stroke:none;fill-rule:evenodd;fill:rgb(37.647059%,35.686275%,21.960784%);fill-opacity:1;" d="M 2.09375 12.082031 C 2.058594 12.054688 2.027344 12.027344 2 11.988281 C 1.933594 12.035156 1.871094 12.074219 1.800781 12.105469 C 1.855469 12.039062 1.921875 11.992188 2 11.964844 C 2.050781 11.984375 2.082031 12.027344 2.09375 12.082031 Z M 2.09375 12.082031 "/>
<path style=" stroke:none;fill-rule:evenodd;fill:rgb(43.137255%,41.176471%,22.745098%);fill-opacity:1;" d="M 3.886719 11.988281 C 3.871094 12.027344 3.839844 12.042969 3.800781 12.035156 C 3.824219 12.007812 3.851562 11.992188 3.886719 11.988281 Z M 3.886719 11.988281 "/>
<path style=" stroke:none;fill-rule:evenodd;fill:rgb(42.352941%,40%,22.745098%);fill-opacity:1;" d="M 3.800781 12.035156 C 3.792969 12.070312 3.769531 12.085938 3.738281 12.082031 C 3.75 12.050781 3.769531 12.035156 3.800781 12.035156 Z M 3.800781 12.035156 "/>
<path style=" stroke:none;fill-rule:evenodd;fill:rgb(58.039216%,54.117647%,25.098039%);fill-opacity:1;" d="M 3.675781 12.105469 C 3.667969 12.140625 3.648438 12.15625 3.613281 12.15625 C 3.625 12.121094 3.644531 12.105469 3.675781 12.105469 Z M 3.675781 12.105469 "/>
<path style=" stroke:none;fill-rule:evenodd;fill:rgb(62.352941%,57.647059%,25.882353%);fill-opacity:1;" d="M 4.21875 12.15625 C 4.25 12.152344 4.269531 12.167969 4.28125 12.199219 C 4.25 12.203125 4.226562 12.1875 4.21875 12.15625 Z M 4.21875 12.15625 "/>
<path style=" stroke:none;fill-rule:evenodd;fill:rgb(46.27451%,43.529412%,23.137255%);fill-opacity:1;" d="M 1.699219 12.175781 C 1.6875 12.210938 1.667969 12.226562 1.636719 12.222656 C 1.644531 12.191406 1.667969 12.175781 1.699219 12.175781 Z M 1.699219 12.175781 "/>
<path style=" stroke:none;fill-rule:evenodd;fill:rgb(46.27451%,43.529412%,23.137255%);fill-opacity:1;" d="M 2.636719 12.15625 C 2.636719 12.199219 2.613281 12.222656 2.574219 12.222656 C 2.585938 12.191406 2.605469 12.171875 2.636719 12.15625 Z M 2.636719 12.15625 "/>
<path style=" stroke:none;fill-rule:evenodd;fill:rgb(61.176471%,56.862745%,25.490196%);fill-opacity:1;" d="M 3.613281 12.15625 C 3.601562 12.175781 3.585938 12.199219 3.574219 12.222656 C 3.546875 12.179688 3.5625 12.160156 3.613281 12.15625 Z M 3.613281 12.15625 "/>
<path style=" stroke:none;fill-rule:evenodd;fill:rgb(69.803922%,64.313725%,27.058824%);fill-opacity:1;" d="M 5.511719 12.128906 C 5.511719 12.207031 5.492188 12.269531 5.449219 12.320312 C 5.457031 12.28125 5.464844 12.242188 5.46875 12.199219 C 5.484375 12.175781 5.496094 12.15625 5.511719 12.128906 Z M 5.511719 12.128906 "/>
<path style=" stroke:none;fill-rule:evenodd;fill:rgb(66.27451%,61.176471%,26.27451%);fill-opacity:1;" d="M 3.238281 12.105469 C 3.238281 12.113281 3.238281 12.121094 3.238281 12.128906 C 3.25 12.191406 3.234375 12.238281 3.199219 12.273438 C 3.207031 12.210938 3.21875 12.15625 3.238281 12.105469 Z M 3.238281 12.105469 "/>
<path style=" stroke:none;fill-rule:evenodd;fill:rgb(63.529412%,58.823529%,25.882353%);fill-opacity:1;" d="M 4.824219 12.199219 C 4.789062 12.230469 4.753906 12.253906 4.707031 12.273438 C 4.582031 12.308594 4.460938 12.300781 4.34375 12.25 C 4.503906 12.257812 4.667969 12.242188 4.824219 12.199219 Z M 4.824219 12.199219 "/>
<path style=" stroke:none;fill-rule:evenodd;fill:rgb(48.235294%,45.098039%,23.529412%);fill-opacity:1;" d="M 1.636719 12.222656 C 1.613281 12.25 1.597656 12.28125 1.59375 12.320312 C 1.5625 12.265625 1.578125 12.234375 1.636719 12.222656 Z M 1.636719 12.222656 "/>
<path style=" stroke:none;fill-rule:evenodd;fill:rgb(45.882353%,43.137255%,23.137255%);fill-opacity:1;" d="M 2.238281 12.25 C 2.316406 12.261719 2.390625 12.269531 2.46875 12.273438 C 2.390625 12.304688 2.3125 12.296875 2.238281 12.25 Z M 2.238281 12.25 "/>
<path style=" stroke:none;fill-rule:evenodd;fill:rgb(58.039216%,54.117647%,25.098039%);fill-opacity:1;" d="M 3.199219 12.292969 C 3.191406 12.351562 3.171875 12.402344 3.136719 12.4375 C 3.140625 12.378906 3.160156 12.332031 3.199219 12.292969 Z M 3.199219 12.292969 "/>
<path style=" stroke:none;fill-rule:evenodd;fill:rgb(54.901961%,50.588235%,24.705882%);fill-opacity:1;" d="M 3.800781 12.554688 C 3.835938 12.554688 3.855469 12.566406 3.863281 12.601562 C 3.832031 12.601562 3.8125 12.585938 3.800781 12.554688 Z M 3.800781 12.554688 "/>
<path style=" stroke:none;fill-rule:evenodd;fill:rgb(73.333333%,67.45098%,27.45098%);fill-opacity:1;" d="M 5.386719 12.460938 C 5.359375 12.539062 5.308594 12.59375 5.238281 12.625 C 5.28125 12.5625 5.328125 12.507812 5.386719 12.460938 Z M 5.386719 12.460938 "/>
<path style=" stroke:none;fill-rule:evenodd;fill:rgb(45.098039%,42.352941%,22.745098%);fill-opacity:1;" d="M 3.90625 12.625 C 3.9375 12.625 3.957031 12.640625 3.96875 12.671875 C 3.9375 12.671875 3.917969 12.65625 3.90625 12.625 Z M 3.90625 12.625 "/>
<path style=" stroke:none;fill-rule:evenodd;fill:rgb(58.823529%,54.509804%,25.098039%);fill-opacity:1;" d="M 5.238281 12.625 C 5.214844 12.664062 5.179688 12.6875 5.136719 12.695312 C 5.160156 12.652344 5.195312 12.632812 5.238281 12.625 Z M 5.238281 12.625 "/>
<path style=" stroke:none;fill-rule:evenodd;fill:rgb(75.686275%,69.803922%,27.843137%);fill-opacity:1;" d="M 3.011719 12.625 C 2.992188 12.660156 2.96875 12.691406 2.9375 12.71875 C 2.871094 12.769531 2.796875 12.800781 2.71875 12.8125 C 2.71875 12.804688 2.71875 12.796875 2.71875 12.789062 C 2.820312 12.742188 2.917969 12.6875 3.011719 12.625 Z M 3.011719 12.625 "/>
<path style=" stroke:none;fill-rule:evenodd;fill:rgb(60.784314%,56.078431%,25.490196%);fill-opacity:1;" d="M 3.96875 12.671875 C 4 12.667969 4.023438 12.683594 4.03125 12.71875 C 4 12.722656 3.980469 12.707031 3.96875 12.671875 Z M 3.96875 12.671875 "/>
<path style=" stroke:none;fill-rule:evenodd;fill:rgb(36.470588%,34.901961%,21.960784%);fill-opacity:1;" d="M 4.03125 12.71875 C 4.082031 12.722656 4.128906 12.730469 4.175781 12.742188 C 4.210938 12.746094 4.230469 12.761719 4.238281 12.789062 C 4.164062 12.777344 4.097656 12.753906 4.03125 12.71875 Z M 4.03125 12.71875 "/>
<path style=" stroke:none;fill-rule:evenodd;fill:rgb(47.45098%,44.705882%,23.137255%);fill-opacity:1;" d="M 5.074219 12.71875 C 5.050781 12.746094 5.023438 12.761719 4.988281 12.765625 C 5.007812 12.726562 5.035156 12.714844 5.074219 12.71875 Z M 5.074219 12.71875 "/>
<path style=" stroke:none;fill-rule:evenodd;fill:rgb(38.823529%,36.862745%,21.960784%);fill-opacity:1;" d="M 2.136719 12.789062 C 2.328125 12.820312 2.523438 12.820312 2.71875 12.789062 C 2.71875 12.796875 2.71875 12.804688 2.71875 12.8125 C 2.53125 12.835938 2.34375 12.839844 2.15625 12.824219 C 2.144531 12.816406 2.136719 12.804688 2.136719 12.789062 Z M 2.136719 12.789062 "/>
<path style=" stroke:none;fill-rule:evenodd;fill:rgb(55.686275%,51.764706%,24.705882%);fill-opacity:1;" d="M 4.261719 12.789062 C 4.308594 12.785156 4.351562 12.800781 4.386719 12.835938 C 4.335938 12.84375 4.292969 12.828125 4.261719 12.789062 Z M 4.261719 12.789062 "/>
<path style=" stroke:none;fill-rule:evenodd;fill:rgb(56.862745%,52.54902%,24.705882%);fill-opacity:1;" d="M 4.988281 12.765625 C 4.914062 12.8125 4.832031 12.835938 4.738281 12.835938 C 4.816406 12.792969 4.898438 12.769531 4.988281 12.765625 Z M 4.988281 12.765625 "/>
</g>
</svg>
