<?xml version="1.0" encoding="UTF-8"?>
<svg xmlns="http://www.w3.org/2000/svg" xmlns:xlink="http://www.w3.org/1999/xlink" width="59px" height="20px" viewBox="0 0 6 20" version="1.1">
<g id="surface1">
<path style=" stroke:none;fill-rule:evenodd;fill:rgb(99.607843%,99.607843%,99.215686%);fill-opacity:1;" d="M -0.0078125 9.144531 C 1.992188 9.144531 3.992188 9.144531 5.992188 9.144531 C 5.992188 9.285156 5.992188 9.429688 5.992188 9.566406 C 5.882812 9.566406 5.808594 9.621094 5.765625 9.730469 C 5.757812 9.6875 5.757812 9.640625 5.757812 9.597656 C 5.722656 9.585938 5.6875 9.578125 5.648438 9.585938 C 5.644531 9.828125 5.648438 10.074219 5.664062 10.3125 C 5.699219 10.3125 5.734375 10.3125 5.773438 10.3125 C 5.765625 10.148438 5.773438 9.980469 5.792969 9.816406 C 5.832031 9.726562 5.898438 9.6875 5.992188 9.699219 C 5.992188 10.082031 5.992188 10.460938 5.992188 10.839844 C 4.0625 10.839844 2.128906 10.839844 0.199219 10.839844 C 0.289062 10.78125 0.304688 10.703125 0.242188 10.613281 C 0.0898438 10.566406 0.03125 10.621094 0.0703125 10.78125 C 0.0898438 10.804688 0.109375 10.824219 0.132812 10.839844 C 0.0859375 10.839844 0.0390625 10.839844 -0.0078125 10.839844 C -0.0078125 10.277344 -0.0078125 9.710938 -0.0078125 9.144531 Z M -0.0078125 9.144531 "/>
<path style=" stroke:none;fill-rule:evenodd;fill:rgb(46.27451%,46.27451%,46.666667%);fill-opacity:1;" d="M 1.042969 9.160156 C 1.144531 9.152344 1.179688 9.203125 1.160156 9.304688 C 1.113281 9.359375 1.0625 9.363281 1.007812 9.320312 C 0.972656 9.253906 0.984375 9.199219 1.042969 9.160156 Z M 1.042969 9.160156 "/>
<path style=" stroke:none;fill-rule:evenodd;fill:rgb(44.313725%,44.705882%,44.705882%);fill-opacity:1;" d="M 0.0351562 9.320312 C 0.128906 9.320312 0.15625 9.359375 0.117188 9.445312 C 0.0546875 9.480469 0.0195312 9.460938 0.0078125 9.386719 C 0.0078125 9.359375 0.015625 9.339844 0.0351562 9.320312 Z M 0.0351562 9.320312 "/>
<path style=" stroke:none;fill-rule:evenodd;fill:rgb(95.294118%,46.27451%,14.509804%);fill-opacity:1;" d="M 1.179688 9.6875 C 0.886719 9.480469 0.574219 9.441406 0.242188 9.578125 C 0.179688 9.609375 0.121094 9.652344 0.0703125 9.699219 C 0.171875 9.441406 0.355469 9.308594 0.628906 9.304688 C 0.890625 9.308594 1.074219 9.433594 1.179688 9.6875 Z M 1.179688 9.6875 "/>
<path style=" stroke:none;fill-rule:evenodd;fill:rgb(77.254902%,77.254902%,77.254902%);fill-opacity:1;" d="M 4.585938 9.394531 C 4.585938 9.386719 4.589844 9.378906 4.597656 9.378906 C 4.613281 9.445312 4.617188 9.515625 4.613281 9.585938 C 4.671875 9.578125 4.726562 9.585938 4.777344 9.597656 C 4.71875 9.597656 4.660156 9.597656 4.597656 9.597656 C 4.605469 9.527344 4.597656 9.457031 4.585938 9.394531 Z M 4.585938 9.394531 "/>
<path style=" stroke:none;fill-rule:evenodd;fill:rgb(29.803922%,29.803922%,29.803922%);fill-opacity:1;" d="M 4.585938 9.394531 C 4.597656 9.457031 4.605469 9.527344 4.597656 9.597656 C 4.660156 9.597656 4.71875 9.597656 4.777344 9.597656 C 4.777344 9.628906 4.777344 9.65625 4.777344 9.6875 C 4.71875 9.6875 4.660156 9.6875 4.597656 9.6875 C 4.597656 9.835938 4.597656 9.988281 4.605469 10.140625 C 4.609375 10.164062 4.621094 10.1875 4.640625 10.203125 C 4.683594 10.210938 4.722656 10.214844 4.765625 10.210938 C 4.769531 10.246094 4.765625 10.28125 4.753906 10.3125 C 4.605469 10.355469 4.515625 10.296875 4.488281 10.140625 C 4.488281 9.988281 4.488281 9.835938 4.488281 9.6875 C 4.453125 9.6875 4.414062 9.6875 4.378906 9.6875 C 4.378906 9.65625 4.378906 9.628906 4.378906 9.597656 C 4.414062 9.597656 4.453125 9.597656 4.488281 9.597656 C 4.488281 9.539062 4.488281 9.480469 4.488281 9.421875 C 4.519531 9.402344 4.550781 9.390625 4.585938 9.394531 Z M 4.585938 9.394531 "/>
<path style=" stroke:none;fill-rule:evenodd;fill:rgb(65.490196%,65.490196%,65.490196%);fill-opacity:1;" d="M 4.488281 9.421875 C 4.488281 9.480469 4.488281 9.539062 4.488281 9.597656 C 4.453125 9.597656 4.414062 9.597656 4.378906 9.597656 C 4.410156 9.585938 4.441406 9.578125 4.476562 9.585938 C 4.472656 9.527344 4.476562 9.472656 4.488281 9.421875 Z M 4.488281 9.421875 "/>
<path style=" stroke:none;fill-rule:evenodd;fill:rgb(62.745098%,62.745098%,62.745098%);fill-opacity:1;" d="M 2.253906 9.597656 C 2.21875 9.597656 2.183594 9.597656 2.144531 9.597656 C 2.144531 9.753906 2.144531 9.910156 2.144531 10.066406 C 2.132812 9.90625 2.128906 9.746094 2.128906 9.585938 C 2.175781 9.578125 2.21875 9.585938 2.253906 9.597656 Z M 2.253906 9.597656 "/>
<path style=" stroke:none;fill-rule:evenodd;fill:rgb(72.941176%,72.941176%,72.941176%);fill-opacity:1;" d="M 2.710938 10.269531 C 2.695312 10.050781 2.691406 9.824219 2.695312 9.597656 C 2.660156 9.597656 2.621094 9.597656 2.585938 9.597656 C 2.589844 9.757812 2.585938 9.914062 2.574219 10.066406 C 2.574219 9.90625 2.574219 9.746094 2.574219 9.585938 C 2.617188 9.585938 2.664062 9.585938 2.710938 9.585938 C 2.710938 9.8125 2.710938 10.042969 2.710938 10.269531 Z M 2.710938 10.269531 "/>
<path style=" stroke:none;fill-rule:evenodd;fill:rgb(31.372549%,31.372549%,31.372549%);fill-opacity:1;" d="M 3.207031 9.566406 C 3.394531 9.554688 3.511719 9.640625 3.558594 9.832031 C 3.574219 9.949219 3.558594 10.0625 3.515625 10.167969 C 3.441406 10.292969 3.332031 10.34375 3.191406 10.320312 C 3.140625 10.300781 3.097656 10.269531 3.0625 10.226562 C 3.054688 10.355469 3.050781 10.480469 3.054688 10.605469 C 3.015625 10.605469 2.972656 10.605469 2.929688 10.605469 C 2.929688 10.265625 2.929688 9.925781 2.929688 9.585938 C 2.96875 9.585938 3.003906 9.585938 3.042969 9.585938 C 3.039062 9.628906 3.042969 9.671875 3.046875 9.714844 C 3.085938 9.648438 3.140625 9.597656 3.207031 9.566406 Z M 3.207031 9.566406 "/>
<path style=" stroke:none;fill-rule:evenodd;fill:rgb(30.588235%,30.588235%,30.588235%);fill-opacity:1;" d="M 5.46875 9.832031 C 5.46875 9.875 5.46875 9.917969 5.46875 9.964844 C 5.3125 9.964844 5.15625 9.964844 5 9.964844 C 4.996094 9.992188 5 10.015625 5.011719 10.035156 C 5.042969 10.167969 5.121094 10.230469 5.25 10.226562 C 5.308594 10.222656 5.367188 10.214844 5.429688 10.199219 C 5.4375 10.226562 5.4375 10.257812 5.429688 10.285156 C 5.054688 10.402344 4.878906 10.257812 4.894531 9.847656 C 4.976562 9.597656 5.132812 9.523438 5.359375 9.621094 C 5.421875 9.675781 5.460938 9.746094 5.46875 9.832031 Z M 5.46875 9.832031 "/>
<path style=" stroke:none;fill-rule:evenodd;fill:rgb(30.196078%,30.196078%,30.196078%);fill-opacity:1;" d="M 5.992188 9.566406 C 5.992188 9.613281 5.992188 9.65625 5.992188 9.699219 C 5.898438 9.6875 5.832031 9.726562 5.792969 9.816406 C 5.773438 9.980469 5.765625 10.148438 5.773438 10.3125 C 5.734375 10.3125 5.699219 10.3125 5.664062 10.3125 C 5.664062 10.074219 5.664062 9.835938 5.664062 9.597656 C 5.695312 9.597656 5.726562 9.597656 5.757812 9.597656 C 5.757812 9.640625 5.757812 9.6875 5.765625 9.730469 C 5.808594 9.621094 5.882812 9.566406 5.992188 9.566406 Z M 5.992188 9.566406 "/>
<path style=" stroke:none;fill-rule:evenodd;fill:rgb(48.627451%,48.627451%,49.019608%);fill-opacity:1;" d="M 1.910156 9.597656 C 1.875 9.597656 1.835938 9.597656 1.800781 9.597656 C 1.804688 9.824219 1.800781 10.050781 1.785156 10.269531 C 1.785156 10.042969 1.785156 9.8125 1.785156 9.585938 C 1.832031 9.578125 1.871094 9.585938 1.910156 9.597656 Z M 1.910156 9.597656 "/>
<path style=" stroke:none;fill-rule:evenodd;fill:rgb(30.196078%,30.196078%,30.196078%);fill-opacity:1;" d="M 1.910156 9.597656 C 1.917969 9.875 1.910156 10.152344 1.890625 10.433594 C 1.84375 10.5625 1.753906 10.625 1.621094 10.621094 C 1.621094 10.585938 1.621094 10.550781 1.621094 10.519531 C 1.707031 10.519531 1.757812 10.472656 1.777344 10.386719 C 1.785156 10.347656 1.789062 10.308594 1.785156 10.269531 C 1.800781 10.050781 1.804688 9.824219 1.800781 9.597656 C 1.835938 9.597656 1.875 9.597656 1.910156 9.597656 Z M 1.910156 9.597656 "/>
<path style=" stroke:none;fill-rule:evenodd;fill:rgb(30.196078%,30.196078%,30.196078%);fill-opacity:1;" d="M 2.253906 9.597656 C 2.253906 9.757812 2.253906 9.917969 2.261719 10.082031 C 2.292969 10.203125 2.363281 10.242188 2.476562 10.203125 C 2.53125 10.175781 2.5625 10.128906 2.574219 10.066406 C 2.585938 9.914062 2.589844 9.757812 2.585938 9.597656 C 2.621094 9.597656 2.660156 9.597656 2.695312 9.597656 C 2.691406 9.824219 2.695312 10.050781 2.710938 10.269531 C 2.710938 10.285156 2.710938 10.300781 2.710938 10.3125 C 2.671875 10.3125 2.636719 10.3125 2.601562 10.3125 C 2.601562 10.277344 2.601562 10.234375 2.59375 10.199219 C 2.5 10.332031 2.382812 10.363281 2.242188 10.292969 C 2.175781 10.230469 2.144531 10.15625 2.144531 10.066406 C 2.144531 9.910156 2.144531 9.753906 2.144531 9.597656 C 2.183594 9.597656 2.21875 9.597656 2.253906 9.597656 Z M 2.253906 9.597656 "/>
<path style=" stroke:none;fill-rule:evenodd;fill:rgb(30.588235%,30.588235%,30.588235%);fill-opacity:1;" d="M 3.660156 9.597656 C 3.707031 9.59375 3.75 9.597656 3.792969 9.613281 C 3.851562 9.792969 3.914062 9.972656 3.972656 10.152344 C 4.035156 9.972656 4.09375 9.785156 4.144531 9.597656 C 4.1875 9.597656 4.226562 9.597656 4.269531 9.597656 C 4.183594 9.875 4.085938 10.148438 3.972656 10.414062 C 3.917969 10.53125 3.832031 10.605469 3.71875 10.636719 C 3.714844 10.601562 3.707031 10.570312 3.691406 10.539062 C 3.800781 10.488281 3.871094 10.40625 3.910156 10.285156 C 3.828125 10.054688 3.746094 9.828125 3.660156 9.597656 Z M 3.660156 9.597656 "/>
<path style=" stroke:none;fill-rule:evenodd;fill:rgb(98.431373%,98.431373%,98.431373%);fill-opacity:1;" d="M 5.359375 9.875 C 5.238281 9.886719 5.125 9.875 5.011719 9.847656 C 5.039062 9.699219 5.125 9.644531 5.261719 9.679688 C 5.332031 9.722656 5.363281 9.789062 5.359375 9.875 Z M 5.359375 9.875 "/>
<path style=" stroke:none;fill-rule:evenodd;fill:rgb(98.823529%,98.823529%,98.823529%);fill-opacity:1;" d="M 3.207031 9.671875 C 3.359375 9.683594 3.4375 9.769531 3.441406 9.933594 C 3.453125 10.160156 3.355469 10.25 3.152344 10.203125 C 3.113281 10.171875 3.082031 10.128906 3.0625 10.082031 C 3.050781 9.980469 3.054688 9.886719 3.074219 9.789062 C 3.109375 9.734375 3.152344 9.695312 3.207031 9.671875 Z M 3.207031 9.671875 "/>
<path style=" stroke:none;fill-rule:evenodd;fill:rgb(77.254902%,77.254902%,77.254902%);fill-opacity:1;" d="M 4.378906 9.6875 C 4.414062 9.6875 4.453125 9.6875 4.488281 9.6875 C 4.488281 9.835938 4.488281 9.988281 4.488281 10.140625 C 4.476562 9.996094 4.472656 9.847656 4.476562 9.699219 C 4.441406 9.703125 4.410156 9.699219 4.378906 9.6875 Z M 4.378906 9.6875 "/>
<path style=" stroke:none;fill-rule:evenodd;fill:rgb(98.039216%,67.058824%,50.588235%);fill-opacity:1;" d="M 1.179688 9.6875 C 1.199219 9.691406 1.207031 9.707031 1.199219 9.730469 C 1.1875 9.71875 1.179688 9.703125 1.179688 9.6875 Z M 1.179688 9.6875 "/>
<path style=" stroke:none;fill-rule:evenodd;fill:rgb(85.098039%,85.098039%,85.098039%);fill-opacity:1;" d="M 5.757812 9.597656 C 5.726562 9.597656 5.695312 9.597656 5.664062 9.597656 C 5.664062 9.835938 5.664062 10.074219 5.664062 10.3125 C 5.648438 10.074219 5.644531 9.828125 5.648438 9.585938 C 5.6875 9.578125 5.722656 9.585938 5.757812 9.597656 Z M 5.757812 9.597656 "/>
<path style=" stroke:none;fill-rule:evenodd;fill:rgb(56.078431%,56.078431%,56.078431%);fill-opacity:1;" d="M 5.011719 9.847656 C 5.125 9.875 5.238281 9.886719 5.359375 9.875 C 5.242188 9.890625 5.121094 9.894531 5 9.890625 C 4.996094 9.871094 5 9.855469 5.011719 9.847656 Z M 5.011719 9.847656 "/>
<path style=" stroke:none;fill-rule:evenodd;fill:rgb(50.980392%,50.980392%,50.980392%);fill-opacity:1;" d="M 5.46875 9.832031 C 5.480469 9.878906 5.488281 9.925781 5.484375 9.976562 C 5.324219 9.976562 5.171875 9.976562 5.011719 9.976562 C 5.011719 9.996094 5.011719 10.015625 5.011719 10.035156 C 5 10.015625 4.996094 9.992188 5 9.964844 C 5.15625 9.964844 5.3125 9.964844 5.46875 9.964844 C 5.46875 9.917969 5.46875 9.875 5.46875 9.832031 Z M 5.46875 9.832031 "/>
<path style=" stroke:none;fill-rule:evenodd;fill:rgb(95.294118%,46.666667%,14.509804%);fill-opacity:1;" d="M 0.0625 10.210938 C 0.285156 10.402344 0.535156 10.46875 0.820312 10.410156 C 0.964844 10.382812 1.085938 10.316406 1.1875 10.210938 C 1.089844 10.472656 0.90625 10.609375 0.632812 10.621094 C 0.359375 10.613281 0.167969 10.476562 0.0625 10.210938 Z M 0.0625 10.210938 "/>
<path style=" stroke:none;fill-rule:evenodd;fill:rgb(60%,59.607843%,60%);fill-opacity:1;" d="M 0.199219 10.839844 C 0.175781 10.839844 0.152344 10.839844 0.132812 10.839844 C 0.109375 10.824219 0.0898438 10.804688 0.0703125 10.78125 C 0.03125 10.621094 0.0898438 10.566406 0.242188 10.613281 C 0.304688 10.703125 0.289062 10.78125 0.199219 10.839844 Z M 0.199219 10.839844 "/>
</g>
</svg>
