<?xml version="1.0" encoding="UTF-8"?>
<svg xmlns="http://www.w3.org/2000/svg" xmlns:xlink="http://www.w3.org/1999/xlink" width="20px" height="59px" viewBox="0 0 20 5" version="1.1">
<g id="surface1">
<path style=" stroke:none;fill-rule:evenodd;fill:rgb(99.607843%,99.607843%,99.215686%);fill-opacity:1;" d="M -0.0234375 -0.0234375 C 6.644531 -0.0234375 13.308594 -0.0234375 19.976562 -0.0234375 C 19.976562 0.394531 19.976562 0.8125 19.976562 1.226562 C 19.609375 1.222656 19.355469 1.378906 19.21875 1.703125 C 19.195312 1.574219 19.1875 1.445312 19.195312 1.316406 C 19.082031 1.273438 18.960938 1.257812 18.828125 1.273438 C 18.8125 1.996094 18.828125 2.714844 18.875 3.425781 C 18.996094 3.425781 19.117188 3.425781 19.242188 3.425781 C 19.222656 2.933594 19.246094 2.445312 19.308594 1.960938 C 19.4375 1.691406 19.660156 1.574219 19.976562 1.617188 C 19.976562 2.738281 19.976562 3.859375 19.976562 4.976562 C 13.539062 4.976562 7.101562 4.976562 0.667969 4.976562 C 0.96875 4.800781 1.011719 4.578125 0.804688 4.308594 C 0.300781 4.167969 0.109375 4.332031 0.230469 4.804688 C 0.292969 4.875 0.363281 4.929688 0.4375 4.976562 C 0.285156 4.976562 0.128906 4.976562 -0.0234375 4.976562 C -0.0234375 3.3125 -0.0234375 1.644531 -0.0234375 -0.0234375 Z M -0.0234375 -0.0234375 "/>
<path style=" stroke:none;fill-rule:evenodd;fill:rgb(46.27451%,46.27451%,46.666667%);fill-opacity:1;" d="M 3.472656 0.0234375 C 3.808594 0 3.9375 0.144531 3.863281 0.453125 C 3.710938 0.609375 3.542969 0.621094 3.355469 0.496094 C 3.242188 0.300781 3.28125 0.140625 3.472656 0.0234375 Z M 3.472656 0.0234375 "/>
<path style=" stroke:none;fill-rule:evenodd;fill:rgb(44.313725%,44.705882%,44.705882%);fill-opacity:1;" d="M 0.113281 0.496094 C 0.425781 0.492188 0.515625 0.613281 0.390625 0.863281 C 0.183594 0.964844 0.0625 0.910156 0.0234375 0.691406 C 0.0234375 0.609375 0.0546875 0.546875 0.113281 0.496094 Z M 0.113281 0.496094 "/>
<path style=" stroke:none;fill-rule:evenodd;fill:rgb(95.294118%,46.27451%,14.509804%);fill-opacity:1;" d="M 3.929688 1.574219 C 2.953125 0.964844 1.910156 0.855469 0.804688 1.25 C 0.59375 1.34375 0.402344 1.46875 0.230469 1.617188 C 0.570312 0.847656 1.191406 0.460938 2.09375 0.453125 C 2.964844 0.457031 3.578125 0.832031 3.929688 1.574219 Z M 3.929688 1.574219 "/>
<path style=" stroke:none;fill-rule:evenodd;fill:rgb(77.254902%,77.254902%,77.254902%);fill-opacity:1;" d="M 15.289062 0.710938 C 15.289062 0.6875 15.304688 0.671875 15.332031 0.667969 C 15.378906 0.867188 15.394531 1.070312 15.378906 1.273438 C 15.574219 1.257812 15.757812 1.273438 15.929688 1.316406 C 15.730469 1.316406 15.53125 1.316406 15.332031 1.316406 C 15.347656 1.105469 15.332031 0.902344 15.289062 0.710938 Z M 15.289062 0.710938 "/>
<path style=" stroke:none;fill-rule:evenodd;fill:rgb(29.803922%,29.803922%,29.803922%);fill-opacity:1;" d="M 15.289062 0.710938 C 15.332031 0.902344 15.347656 1.105469 15.332031 1.316406 C 15.53125 1.316406 15.730469 1.316406 15.929688 1.316406 C 15.929688 1.402344 15.929688 1.488281 15.929688 1.574219 C 15.730469 1.574219 15.53125 1.574219 15.332031 1.574219 C 15.324219 2.019531 15.332031 2.464844 15.355469 2.910156 C 15.367188 2.988281 15.40625 3.054688 15.472656 3.101562 C 15.609375 3.125 15.746094 3.132812 15.886719 3.125 C 15.898438 3.230469 15.882812 3.328125 15.839844 3.425781 C 15.347656 3.546875 15.054688 3.375 14.964844 2.910156 C 14.964844 2.464844 14.964844 2.019531 14.964844 1.574219 C 14.84375 1.574219 14.71875 1.574219 14.597656 1.574219 C 14.597656 1.488281 14.597656 1.402344 14.597656 1.316406 C 14.71875 1.316406 14.84375 1.316406 14.964844 1.316406 C 14.964844 1.140625 14.964844 0.96875 14.964844 0.796875 C 15.058594 0.734375 15.164062 0.707031 15.289062 0.710938 Z M 15.289062 0.710938 "/>
<path style=" stroke:none;fill-rule:evenodd;fill:rgb(65.490196%,65.490196%,65.490196%);fill-opacity:1;" d="M 14.964844 0.796875 C 14.964844 0.96875 14.964844 1.140625 14.964844 1.316406 C 14.84375 1.316406 14.71875 1.316406 14.597656 1.316406 C 14.695312 1.273438 14.800781 1.257812 14.917969 1.273438 C 14.90625 1.105469 14.921875 0.945312 14.964844 0.796875 Z M 14.964844 0.796875 "/>
<path style=" stroke:none;fill-rule:evenodd;fill:rgb(62.745098%,62.745098%,62.745098%);fill-opacity:1;" d="M 7.515625 1.316406 C 7.394531 1.316406 7.273438 1.316406 7.148438 1.316406 C 7.148438 1.773438 7.148438 2.234375 7.148438 2.695312 C 7.105469 2.226562 7.089844 1.753906 7.101562 1.273438 C 7.25 1.257812 7.390625 1.273438 7.515625 1.316406 Z M 7.515625 1.316406 "/>
<path style=" stroke:none;fill-rule:evenodd;fill:rgb(72.941176%,72.941176%,72.941176%);fill-opacity:1;" d="M 9.035156 3.296875 C 8.988281 2.644531 8.972656 1.984375 8.988281 1.316406 C 8.867188 1.316406 8.742188 1.316406 8.621094 1.316406 C 8.636719 1.78125 8.621094 2.242188 8.574219 2.695312 C 8.574219 2.21875 8.574219 1.746094 8.574219 1.273438 C 8.726562 1.273438 8.882812 1.273438 9.035156 1.273438 C 9.035156 1.945312 9.035156 2.621094 9.035156 3.296875 Z M 9.035156 3.296875 "/>
<path style=" stroke:none;fill-rule:evenodd;fill:rgb(31.372549%,31.372549%,31.372549%);fill-opacity:1;" d="M 10.691406 1.226562 C 11.3125 1.1875 11.703125 1.445312 11.863281 2.003906 C 11.914062 2.347656 11.867188 2.679688 11.722656 2.996094 C 11.46875 3.363281 11.109375 3.511719 10.644531 3.449219 C 10.46875 3.390625 10.324219 3.296875 10.207031 3.167969 C 10.183594 3.542969 10.175781 3.914062 10.183594 4.289062 C 10.046875 4.289062 9.90625 4.289062 9.769531 4.289062 C 9.769531 3.28125 9.769531 2.277344 9.769531 1.273438 C 9.894531 1.273438 10.015625 1.273438 10.136719 1.273438 C 10.128906 1.402344 10.136719 1.53125 10.160156 1.660156 C 10.289062 1.460938 10.464844 1.316406 10.691406 1.226562 Z M 10.691406 1.226562 "/>
<path style=" stroke:none;fill-rule:evenodd;fill:rgb(30.588235%,30.588235%,30.588235%);fill-opacity:1;" d="M 18.230469 2.003906 C 18.230469 2.132812 18.230469 2.261719 18.230469 2.390625 C 17.707031 2.390625 17.1875 2.390625 16.667969 2.390625 C 16.652344 2.476562 16.667969 2.546875 16.710938 2.609375 C 16.808594 2.992188 17.070312 3.175781 17.496094 3.167969 C 17.695312 3.15625 17.894531 3.128906 18.09375 3.082031 C 18.125 3.171875 18.125 3.257812 18.09375 3.339844 C 16.847656 3.6875 16.257812 3.257812 16.320312 2.046875 C 16.589844 1.3125 17.105469 1.089844 17.863281 1.378906 C 18.074219 1.542969 18.199219 1.75 18.230469 2.003906 Z M 18.230469 2.003906 "/>
<path style=" stroke:none;fill-rule:evenodd;fill:rgb(30.196078%,30.196078%,30.196078%);fill-opacity:1;" d="M 19.976562 1.226562 C 19.976562 1.359375 19.976562 1.488281 19.976562 1.617188 C 19.660156 1.574219 19.4375 1.691406 19.308594 1.960938 C 19.246094 2.445312 19.222656 2.933594 19.242188 3.425781 C 19.117188 3.425781 18.996094 3.425781 18.875 3.425781 C 18.875 2.722656 18.875 2.019531 18.875 1.316406 C 18.980469 1.316406 19.089844 1.316406 19.195312 1.316406 C 19.1875 1.445312 19.195312 1.574219 19.21875 1.703125 C 19.355469 1.378906 19.609375 1.222656 19.976562 1.226562 Z M 19.976562 1.226562 "/>
<path style=" stroke:none;fill-rule:evenodd;fill:rgb(48.627451%,48.627451%,49.019608%);fill-opacity:1;" d="M 6.367188 1.316406 C 6.246094 1.316406 6.121094 1.316406 6 1.316406 C 6.015625 1.984375 6 2.644531 5.953125 3.296875 C 5.953125 2.621094 5.953125 1.945312 5.953125 1.273438 C 6.101562 1.257812 6.238281 1.273438 6.367188 1.316406 Z M 6.367188 1.316406 "/>
<path style=" stroke:none;fill-rule:evenodd;fill:rgb(30.196078%,30.196078%,30.196078%);fill-opacity:1;" d="M 6.367188 1.316406 C 6.386719 2.136719 6.367188 2.953125 6.300781 3.773438 C 6.144531 4.15625 5.847656 4.34375 5.402344 4.332031 C 5.402344 4.230469 5.402344 4.128906 5.402344 4.03125 C 5.6875 4.03125 5.863281 3.898438 5.929688 3.640625 C 5.953125 3.527344 5.960938 3.414062 5.953125 3.296875 C 6 2.644531 6.015625 1.984375 6 1.316406 C 6.121094 1.316406 6.246094 1.316406 6.367188 1.316406 Z M 6.367188 1.316406 "/>
<path style=" stroke:none;fill-rule:evenodd;fill:rgb(30.196078%,30.196078%,30.196078%);fill-opacity:1;" d="M 7.515625 1.316406 C 7.507812 1.789062 7.515625 2.261719 7.539062 2.738281 C 7.636719 3.097656 7.871094 3.21875 8.253906 3.101562 C 8.441406 3.019531 8.546875 2.882812 8.574219 2.695312 C 8.621094 2.242188 8.636719 1.78125 8.621094 1.316406 C 8.742188 1.316406 8.867188 1.316406 8.988281 1.316406 C 8.972656 1.984375 8.988281 2.644531 9.035156 3.296875 C 9.035156 3.339844 9.035156 3.382812 9.035156 3.425781 C 8.910156 3.425781 8.789062 3.425781 8.667969 3.425781 C 8.675781 3.3125 8.667969 3.195312 8.644531 3.082031 C 8.332031 3.476562 7.941406 3.570312 7.472656 3.363281 C 7.257812 3.183594 7.152344 2.960938 7.148438 2.695312 C 7.148438 2.234375 7.148438 1.773438 7.148438 1.316406 C 7.273438 1.316406 7.394531 1.316406 7.515625 1.316406 Z M 7.515625 1.316406 "/>
<path style=" stroke:none;fill-rule:evenodd;fill:rgb(30.588235%,30.588235%,30.588235%);fill-opacity:1;" d="M 12.207031 1.316406 C 12.359375 1.300781 12.503906 1.316406 12.644531 1.359375 C 12.84375 1.890625 13.042969 2.421875 13.242188 2.953125 C 13.457031 2.414062 13.648438 1.867188 13.816406 1.316406 C 13.953125 1.316406 14.09375 1.316406 14.230469 1.316406 C 13.949219 2.136719 13.621094 2.941406 13.242188 3.726562 C 13.058594 4.066406 12.777344 4.28125 12.390625 4.375 C 12.382812 4.273438 12.351562 4.179688 12.300781 4.09375 C 12.664062 3.945312 12.910156 3.695312 13.035156 3.339844 C 12.757812 2.664062 12.484375 1.988281 12.207031 1.316406 Z M 12.207031 1.316406 "/>
<path style=" stroke:none;fill-rule:evenodd;fill:rgb(98.431373%,98.431373%,98.431373%);fill-opacity:1;" d="M 17.863281 2.132812 C 17.460938 2.160156 17.078125 2.132812 16.710938 2.046875 C 16.800781 1.613281 17.078125 1.449219 17.539062 1.550781 C 17.773438 1.683594 17.882812 1.875 17.863281 2.132812 Z M 17.863281 2.132812 "/>
<path style=" stroke:none;fill-rule:evenodd;fill:rgb(98.823529%,98.823529%,98.823529%);fill-opacity:1;" d="M 10.691406 1.53125 C 11.203125 1.566406 11.460938 1.824219 11.472656 2.304688 C 11.507812 2.96875 11.183594 3.234375 10.503906 3.101562 C 10.371094 3.003906 10.269531 2.882812 10.207031 2.738281 C 10.167969 2.445312 10.183594 2.160156 10.253906 1.875 C 10.363281 1.714844 10.507812 1.597656 10.691406 1.53125 Z M 10.691406 1.53125 "/>
<path style=" stroke:none;fill-rule:evenodd;fill:rgb(77.254902%,77.254902%,77.254902%);fill-opacity:1;" d="M 14.597656 1.574219 C 14.71875 1.574219 14.84375 1.574219 14.964844 1.574219 C 14.964844 2.019531 14.964844 2.464844 14.964844 2.910156 C 14.917969 2.484375 14.90625 2.054688 14.917969 1.617188 C 14.800781 1.628906 14.695312 1.613281 14.597656 1.574219 Z M 14.597656 1.574219 "/>
<path style=" stroke:none;fill-rule:evenodd;fill:rgb(98.039216%,67.058824%,50.588235%);fill-opacity:1;" d="M 3.929688 1.574219 C 4.003906 1.59375 4.027344 1.636719 4 1.703125 C 3.953125 1.671875 3.929688 1.628906 3.929688 1.574219 Z M 3.929688 1.574219 "/>
<path style=" stroke:none;fill-rule:evenodd;fill:rgb(85.098039%,85.098039%,85.098039%);fill-opacity:1;" d="M 19.195312 1.316406 C 19.089844 1.316406 18.980469 1.316406 18.875 1.316406 C 18.875 2.019531 18.875 2.722656 18.875 3.425781 C 18.828125 2.714844 18.8125 1.996094 18.828125 1.273438 C 18.960938 1.257812 19.082031 1.273438 19.195312 1.316406 Z M 19.195312 1.316406 "/>
<path style=" stroke:none;fill-rule:evenodd;fill:rgb(56.078431%,56.078431%,56.078431%);fill-opacity:1;" d="M 16.710938 2.046875 C 17.078125 2.132812 17.460938 2.160156 17.863281 2.132812 C 17.472656 2.175781 17.074219 2.191406 16.667969 2.175781 C 16.65625 2.121094 16.671875 2.078125 16.710938 2.046875 Z M 16.710938 2.046875 "/>
<path style=" stroke:none;fill-rule:evenodd;fill:rgb(50.980392%,50.980392%,50.980392%);fill-opacity:1;" d="M 18.230469 2.003906 C 18.273438 2.140625 18.289062 2.28125 18.277344 2.433594 C 17.753906 2.433594 17.234375 2.433594 16.710938 2.433594 C 16.710938 2.492188 16.710938 2.550781 16.710938 2.609375 C 16.667969 2.546875 16.652344 2.476562 16.667969 2.390625 C 17.1875 2.390625 17.707031 2.390625 18.230469 2.390625 C 18.230469 2.261719 18.230469 2.132812 18.230469 2.003906 Z M 18.230469 2.003906 "/>
<path style=" stroke:none;fill-rule:evenodd;fill:rgb(95.294118%,46.666667%,14.509804%);fill-opacity:1;" d="M 0.207031 3.125 C 0.945312 3.691406 1.789062 3.886719 2.734375 3.707031 C 3.210938 3.632812 3.617188 3.4375 3.953125 3.125 C 3.628906 3.894531 3.015625 4.296875 2.113281 4.332031 C 1.199219 4.3125 0.5625 3.910156 0.207031 3.125 Z M 0.207031 3.125 "/>
<path style=" stroke:none;fill-rule:evenodd;fill:rgb(60%,59.607843%,60%);fill-opacity:1;" d="M 0.667969 4.976562 C 0.589844 4.976562 0.511719 4.976562 0.4375 4.976562 C 0.363281 4.929688 0.292969 4.875 0.230469 4.804688 C 0.109375 4.332031 0.300781 4.167969 0.804688 4.308594 C 1.011719 4.578125 0.96875 4.800781 0.667969 4.976562 Z M 0.667969 4.976562 "/>
</g>
</svg>
