<?xml version="1.0" encoding="UTF-8"?>
<svg xmlns="http://www.w3.org/2000/svg" xmlns:xlink="http://www.w3.org/1999/xlink" width="83px" height="20px" viewBox="0 0 83 20" version="1.1">
<g id="surface1">
<path style=" stroke:none;fill-rule:nonzero;fill:rgb(0%,0%,0%);fill-opacity:1;" d="M 42.765625 3.660156 C 42.546875 5.378906 41.933594 14.546875 42.042969 14.691406 C 42.152344 14.875 43.378906 14.910156 43.8125 14.746094 C 44.191406 14.601562 44.191406 13.496094 43.8125 12.175781 C 43.414062 10.832031 43.558594 9.222656 44.15625 7.898438 C 44.535156 7.101562 44.644531 6.46875 44.753906 4.890625 L 44.878906 2.898438 L 42.855469 2.898438 Z M 42.765625 3.660156 "/>
<path style=" stroke:none;fill-rule:nonzero;fill:rgb(0%,0%,0%);fill-opacity:1;" d="M 62.847656 3.023438 C 62.683594 3.277344 61.941406 14.257812 62.050781 14.566406 C 62.175781 14.890625 63.695312 14.980469 63.894531 14.675781 C 64.039062 14.421875 64.890625 3.242188 64.78125 3.042969 C 64.671875 2.863281 62.953125 2.84375 62.847656 3.023438 Z M 62.847656 3.023438 "/>
<path style=" stroke:none;fill-rule:nonzero;fill:rgb(0%,0%,0%);fill-opacity:1;" d="M 71.503906 3.117188 C 71.414062 3.386719 70.671875 13.386719 70.671875 14.257812 C 70.671875 14.820312 70.710938 14.855469 71.359375 14.855469 C 72.117188 14.855469 72.480469 14.601562 72.480469 14.074219 C 72.480469 13.769531 72.550781 13.804688 73.09375 14.273438 C 74.105469 15.164062 75.914062 15.199219 76.910156 14.347656 C 78.445312 13.042969 79.113281 9.601562 78.191406 7.808594 C 77.378906 6.25 75.335938 5.925781 73.691406 7.101562 L 73.183594 7.464844 L 73.292969 6.59375 C 73.347656 6.105469 73.402344 5.089844 73.4375 4.347656 L 73.472656 2.988281 L 72.515625 2.933594 C 71.867188 2.898438 71.558594 2.953125 71.503906 3.117188 Z M 75.949219 8.714844 C 76.710938 9.726562 76.511719 11.757812 75.554688 12.71875 C 74.902344 13.371094 74.269531 13.371094 73.527344 12.699219 C 72.949219 12.191406 72.949219 12.136719 72.988281 10.851562 C 73.039062 9.546875 73.058594 9.492188 73.765625 8.824219 C 74.632812 7.988281 75.390625 7.953125 75.949219 8.714844 Z M 75.949219 8.714844 "/>
<path style=" stroke:none;fill-rule:nonzero;fill:rgb(0%,0%,0%);fill-opacity:1;" d="M 67.472656 3.261719 C 67.039062 3.441406 66.804688 4.039062 66.914062 4.726562 C 66.96875 5.109375 67.074219 5.164062 67.835938 5.21875 C 68.917969 5.289062 69.226562 5.054688 69.226562 4.148438 C 69.226562 3.1875 68.539062 2.84375 67.472656 3.261719 Z M 67.472656 3.261719 "/>
<path style=" stroke:none;fill-rule:nonzero;fill:rgb(0%,0%,0%);fill-opacity:1;" d="M 48.945312 4.476562 C 49.074219 4.527344 49.234375 4.511719 49.289062 4.457031 C 49.363281 4.402344 49.253906 4.347656 49.054688 4.367188 C 48.855469 4.367188 48.800781 4.421875 48.945312 4.476562 Z M 48.945312 4.476562 "/>
<path style=" stroke:none;fill-rule:nonzero;fill:rgb(0%,0%,0%);fill-opacity:1;" d="M 51.296875 4.476562 C 51.40625 4.511719 51.621094 4.511719 51.75 4.476562 C 51.855469 4.421875 51.765625 4.382812 51.511719 4.382812 C 51.261719 4.382812 51.171875 4.421875 51.296875 4.476562 Z M 51.296875 4.476562 "/>
<path style=" stroke:none;fill-rule:nonzero;fill:rgb(0%,0%,0%);fill-opacity:1;" d="M 27.402344 4.925781 C 27.347656 5.164062 27.292969 5.597656 27.292969 5.925781 C 27.292969 6.429688 27.238281 6.503906 26.714844 6.558594 C 26.136719 6.613281 26.117188 6.648438 26.117188 7.425781 C 26.117188 8.1875 26.15625 8.242188 26.625 8.296875 C 27.183594 8.371094 27.183594 8.351562 26.949219 11.050781 C 26.859375 11.992188 26.839844 13.042969 26.878906 13.351562 C 27.058594 14.582031 28.484375 15.273438 29.984375 14.855469 C 30.566406 14.710938 30.710938 14.566406 30.800781 14.113281 C 31 13.078125 30.960938 13.023438 30.222656 13.152344 C 29.082031 13.332031 28.867188 12.972656 29.011719 11.070312 C 29.210938 8.242188 29.15625 8.351562 30.238281 8.296875 L 31.179688 8.242188 L 31.234375 7.375 L 31.289062 6.523438 L 29.460938 6.523438 L 29.460938 4.527344 L 28.484375 4.527344 C 27.636719 4.527344 27.511719 4.582031 27.402344 4.925781 Z M 27.402344 4.925781 "/>
<path style=" stroke:none;fill-rule:nonzero;fill:rgb(0%,0%,0%);fill-opacity:1;" d="M 56.863281 5.089844 C 56.808594 5.398438 56.753906 5.851562 56.753906 6.085938 C 56.753906 6.429688 56.664062 6.523438 56.320312 6.523438 L 55.871094 6.523438 L 56.410156 7.679688 C 57.152344 9.273438 57.28125 10.90625 56.773438 12.480469 C 56.394531 13.714844 56.464844 14.148438 57.097656 14.621094 C 57.550781 14.945312 58.707031 15.054688 59.449219 14.855469 C 60.152344 14.675781 60.371094 14.347656 60.371094 13.441406 C 60.371094 13.078125 60.316406 13.042969 59.683594 13.152344 C 58.542969 13.332031 58.347656 12.972656 58.472656 11.070312 C 58.671875 8.242188 58.617188 8.351562 59.703125 8.296875 L 60.640625 8.242188 L 60.695312 7.375 L 60.75 6.523438 L 58.925781 6.523438 L 58.925781 4.527344 L 57.949219 4.527344 C 57.007812 4.527344 56.972656 4.546875 56.863281 5.089844 Z M 56.863281 5.089844 "/>
<path style=" stroke:none;fill-rule:nonzero;fill:rgb(0%,0%,0%);fill-opacity:1;" d="M 46.976562 5.234375 C 45.839844 5.976562 44.464844 7.609375 44.464844 8.242188 C 44.464844 8.332031 44.699219 8.007812 44.988281 7.519531 C 45.601562 6.449219 46.253906 5.816406 47.355469 5.179688 C 47.808594 4.925781 48.078125 4.710938 47.972656 4.710938 C 47.878906 4.710938 47.429688 4.945312 46.976562 5.234375 Z M 46.976562 5.234375 "/>
<path style=" stroke:none;fill-rule:nonzero;fill:rgb(0%,0%,0%);fill-opacity:1;" d="M 53.699219 5.453125 C 54.132812 5.777344 54.730469 6.285156 55.003906 6.59375 L 55.507812 7.15625 L 55.109375 6.574219 C 54.75 6.03125 53.339844 4.890625 53.03125 4.890625 C 52.960938 4.890625 53.265625 5.144531 53.699219 5.453125 Z M 53.699219 5.453125 "/>
<path style=" stroke:none;fill-rule:nonzero;fill:rgb(0%,0%,0%);fill-opacity:1;" d="M 46.996094 6.085938 C 46.796875 6.304688 46.8125 6.414062 47.085938 6.667969 C 47.410156 6.957031 47.410156 6.957031 47.195312 6.648438 C 46.996094 6.394531 46.996094 6.285156 47.175781 6.070312 C 47.300781 5.925781 47.355469 5.796875 47.300781 5.796875 C 47.265625 5.796875 47.121094 5.925781 46.996094 6.085938 Z M 46.996094 6.085938 "/>
<path style=" stroke:none;fill-rule:nonzero;fill:rgb(0%,0%,0%);fill-opacity:1;" d="M 7.539062 6.523438 C 7.246094 6.613281 6.761719 6.882812 6.417969 7.136719 C 5.65625 7.734375 5.566406 7.71875 5.640625 7.101562 C 5.695312 6.648438 5.640625 6.613281 4.917969 6.558594 C 4.265625 6.503906 4.140625 6.558594 3.996094 6.921875 C 3.796875 7.464844 3.363281 14.203125 3.488281 14.566406 C 3.613281 14.890625 5.152344 14.980469 5.332031 14.675781 C 5.40625 14.566406 5.53125 13.371094 5.621094 11.992188 L 5.800781 9.511719 L 6.507812 8.824219 C 7.300781 8.0625 7.789062 7.988281 8.316406 8.515625 C 8.710938 8.914062 8.765625 10.089844 8.511719 13.042969 C 8.421875 14.074219 8.441406 14.636719 8.566406 14.726562 C 8.675781 14.800781 9.128906 14.835938 9.578125 14.820312 L 10.394531 14.765625 L 10.519531 13.769531 C 10.59375 13.226562 10.699219 11.976562 10.753906 10.996094 L 10.882812 9.222656 L 11.605469 8.675781 C 12.488281 8.042969 12.886719 8.023438 13.394531 8.53125 C 13.808594 8.949219 13.808594 9.09375 13.484375 14.3125 C 13.464844 14.726562 13.539062 14.765625 14.277344 14.820312 C 14.730469 14.835938 15.183594 14.800781 15.308594 14.726562 C 15.636719 14.492188 16.015625 8.839844 15.742188 7.972656 C 15.21875 6.230469 12.90625 5.851562 11.316406 7.246094 L 10.699219 7.789062 L 10.394531 7.320312 C 9.867188 6.503906 8.695312 6.175781 7.539062 6.523438 Z M 7.539062 6.523438 "/>
<path style=" stroke:none;fill-rule:nonzero;fill:rgb(0%,0%,0%);fill-opacity:1;" d="M 20.007812 6.539062 C 19.628906 6.628906 19.085938 6.828125 18.796875 6.976562 C 18.328125 7.210938 18.253906 7.355469 18.253906 7.972656 C 18.253906 8.371094 18.308594 8.695312 18.398438 8.695312 C 18.472656 8.695312 18.960938 8.53125 19.484375 8.332031 C 21.363281 7.609375 22.683594 8.023438 22.558594 9.292969 L 22.503906 9.875 L 21.058594 9.980469 C 18.78125 10.144531 17.695312 10.851562 17.441406 12.300781 C 17.0625 14.621094 19.917969 15.832031 22.085938 14.273438 L 22.59375 13.929688 L 22.59375 14.402344 C 22.59375 14.855469 22.648438 14.875 23.351562 14.820312 L 24.128906 14.765625 L 24.273438 13.859375 C 24.347656 13.351562 24.417969 11.757812 24.457031 10.289062 C 24.492188 7.734375 24.472656 7.625 24.074219 7.191406 C 23.371094 6.449219 21.617188 6.160156 20.007812 6.539062 Z M 22.414062 11.847656 C 22.414062 12.972656 20.859375 13.914062 19.972656 13.332031 C 19.195312 12.824219 19.449219 11.722656 20.425781 11.359375 C 20.570312 11.304688 21.074219 11.25 21.5625 11.25 L 22.414062 11.230469 Z M 22.414062 11.847656 "/>
<path style=" stroke:none;fill-rule:nonzero;fill:rgb(0%,0%,0%);fill-opacity:1;" d="M 36.601562 6.558594 C 36.3125 6.667969 35.804688 6.9375 35.480469 7.175781 C 34.757812 7.734375 34.703125 7.71875 34.703125 7.066406 C 34.703125 6.558594 34.667969 6.523438 34 6.523438 C 33.601562 6.523438 33.222656 6.613281 33.148438 6.738281 C 33.078125 6.847656 32.824219 9.367188 32.605469 12.300781 C 32.316406 16.304688 32.265625 17.699219 32.425781 17.789062 C 32.699219 17.972656 33.835938 17.972656 34.105469 17.789062 C 34.234375 17.71875 34.378906 16.902344 34.449219 15.816406 L 34.578125 13.96875 L 35.136719 14.402344 C 36.238281 15.234375 37.722656 15.164062 38.878906 14.183594 C 40.523438 12.789062 40.976562 8.824219 39.65625 7.246094 C 38.96875 6.449219 37.722656 6.160156 36.601562 6.558594 Z M 37.6875 8.605469 C 38.535156 9.4375 38.28125 12.066406 37.289062 12.863281 C 36.636719 13.371094 36.078125 13.316406 35.335938 12.664062 L 34.703125 12.101562 L 34.8125 10.796875 C 34.902344 9.601562 34.976562 9.457031 35.625 8.824219 C 36.4375 8.023438 37.054688 7.953125 37.6875 8.605469 Z M 37.6875 8.605469 "/>
<path style=" stroke:none;fill-rule:nonzero;fill:rgb(0%,0%,0%);fill-opacity:1;" d="M 66.949219 6.722656 C 66.769531 7.011719 66.261719 14.222656 66.390625 14.566406 C 66.515625 14.910156 68.050781 14.980469 68.234375 14.65625 C 68.414062 14.382812 68.9375 7.15625 68.8125 6.8125 C 68.667969 6.46875 67.148438 6.394531 66.949219 6.722656 Z M 66.949219 6.722656 "/>
<path style=" stroke:none;fill-rule:nonzero;fill:rgb(0%,0%,0%);fill-opacity:1;" d="M 55.6875 7.609375 C 55.941406 8.171875 56.03125 8.261719 56.03125 8.042969 C 56.03125 7.933594 55.90625 7.699219 55.742188 7.5 C 55.488281 7.175781 55.488281 7.175781 55.6875 7.609375 Z M 55.6875 7.609375 "/>
<path style=" stroke:none;fill-rule:nonzero;fill:rgb(0%,0%,0%);fill-opacity:1;" d="M 47.71875 7.5 C 47.71875 7.535156 47.863281 7.679688 48.042969 7.808594 C 48.3125 8.042969 48.332031 8.023438 48.097656 7.734375 C 47.863281 7.445312 47.71875 7.355469 47.71875 7.5 Z M 47.71875 7.5 "/>
<path style=" stroke:none;fill-rule:nonzero;fill:rgb(0%,0%,0%);fill-opacity:1;" d="M 48.621094 8.585938 C 48.621094 8.625 48.765625 8.769531 48.945312 8.894531 C 49.21875 9.128906 49.234375 9.113281 49 8.824219 C 48.765625 8.53125 48.621094 8.441406 48.621094 8.585938 Z M 48.621094 8.585938 "/>
<path style=" stroke:none;fill-rule:nonzero;fill:rgb(0%,0%,0%);fill-opacity:1;" d="M 44.140625 9.511719 C 44.140625 9.800781 44.175781 9.910156 44.230469 9.726562 C 44.265625 9.566406 44.265625 9.3125 44.230469 9.183594 C 44.175781 9.074219 44.140625 9.203125 44.140625 9.511719 Z M 44.140625 9.511719 "/>
<path style=" stroke:none;fill-rule:nonzero;fill:rgb(0%,0%,0%);fill-opacity:1;" d="M 56.449219 10.417969 C 56.449219 10.90625 56.484375 11.105469 56.519531 10.816406 C 56.554688 10.542969 56.554688 10.144531 56.519531 9.910156 C 56.484375 9.691406 56.449219 9.910156 56.449219 10.417969 Z M 56.449219 10.417969 "/>
<path style=" stroke:none;fill-rule:nonzero;fill:rgb(0%,0%,0%);fill-opacity:1;" d="M 50.066406 10.179688 C 50.066406 10.289062 49.886719 10.523438 49.667969 10.707031 C 49.472656 10.90625 49.363281 11.050781 49.453125 11.050781 C 49.5625 11.050781 49.722656 10.960938 49.832031 10.851562 C 49.996094 10.6875 50.15625 10.707031 50.519531 10.941406 C 50.789062 11.125 51.042969 11.214844 51.097656 11.175781 C 51.132812 11.125 50.988281 10.976562 50.773438 10.851562 C 50.410156 10.671875 50.394531 10.617188 50.644531 10.523438 C 50.898438 10.433594 50.882812 10.378906 50.519531 10.199219 C 50.210938 10.074219 50.066406 10.054688 50.066406 10.179688 Z M 50.066406 10.179688 "/>
<path style=" stroke:none;fill-rule:nonzero;fill:rgb(0%,0%,0%);fill-opacity:1;" d="M 44.140625 11.414062 C 44.140625 11.667969 44.175781 11.757812 44.230469 11.628906 C 44.265625 11.523438 44.265625 11.304688 44.230469 11.175781 C 44.175781 11.070312 44.140625 11.160156 44.140625 11.414062 Z M 44.140625 11.414062 "/>
<path style=" stroke:none;fill-rule:nonzero;fill:rgb(0%,0%,0%);fill-opacity:1;" d="M 51.152344 11.667969 C 51.152344 11.703125 51.296875 11.847656 51.476562 11.976562 C 51.75 12.210938 51.765625 12.191406 51.53125 11.902344 C 51.296875 11.613281 51.152344 11.523438 51.152344 11.667969 Z M 51.152344 11.667969 "/>
<path style=" stroke:none;fill-rule:nonzero;fill:rgb(0%,0%,0%);fill-opacity:1;" d="M 56.230469 11.882812 C 56.230469 12.082031 56.285156 12.136719 56.339844 11.992188 C 56.394531 11.867188 56.375 11.703125 56.320312 11.648438 C 56.265625 11.574219 56.214844 11.683594 56.230469 11.882812 Z M 56.230469 11.882812 "/>
<path style=" stroke:none;fill-rule:nonzero;fill:rgb(0%,0%,0%);fill-opacity:1;" d="M 44.464844 12.773438 C 44.464844 13.042969 45.152344 14.148438 45.710938 14.746094 C 46.21875 15.308594 47.679688 16.304688 47.972656 16.304688 C 48.078125 16.304688 47.808594 16.085938 47.355469 15.832031 C 46.253906 15.199219 45.601562 14.566406 44.988281 13.496094 C 44.699219 12.988281 44.464844 12.664062 44.464844 12.773438 Z M 44.464844 12.773438 "/>
<path style=" stroke:none;fill-rule:nonzero;fill:rgb(0%,0%,0%);fill-opacity:1;" d="M 55.6875 13.351562 C 55.507812 13.824219 55.507812 13.839844 55.761719 13.515625 C 55.90625 13.316406 56.03125 13.097656 56.03125 13.007812 C 56.03125 12.734375 55.90625 12.863281 55.6875 13.351562 Z M 55.6875 13.351562 "/>
<path style=" stroke:none;fill-rule:nonzero;fill:rgb(0%,0%,0%);fill-opacity:1;" d="M 54.207031 13.640625 C 54.421875 13.914062 54.40625 14.003906 54.132812 14.3125 C 53.828125 14.65625 53.789062 14.65625 53.429688 14.367188 L 53.050781 14.039062 L 53.394531 14.457031 L 53.753906 14.875 L 54.207031 14.402344 C 54.660156 13.96875 54.660156 13.949219 54.316406 13.640625 C 53.988281 13.332031 53.988281 13.332031 54.207031 13.640625 Z M 54.207031 13.640625 "/>
<path style=" stroke:none;fill-rule:nonzero;fill:rgb(0%,0%,0%);fill-opacity:1;" d="M 54.351562 14.945312 C 53.195312 16.050781 53.105469 16.214844 54.117188 15.417969 C 54.695312 14.945312 55.632812 13.929688 55.453125 13.949219 C 55.417969 13.96875 54.929688 14.402344 54.351562 14.945312 Z M 54.351562 14.945312 "/>
<path style=" stroke:none;fill-rule:nonzero;fill:rgb(0%,0%,0%);fill-opacity:1;" d="M 52.144531 16.304688 C 51.910156 16.414062 51.875 16.46875 52.054688 16.46875 C 52.199219 16.46875 52.453125 16.394531 52.597656 16.304688 C 52.921875 16.085938 52.632812 16.085938 52.144531 16.304688 Z M 52.144531 16.304688 "/>
<path style=" stroke:none;fill-rule:nonzero;fill:rgb(0%,0%,0%);fill-opacity:1;" d="M 48.945312 16.613281 C 49.054688 16.648438 49.273438 16.648438 49.398438 16.613281 C 49.507812 16.558594 49.417969 16.523438 49.164062 16.523438 C 48.910156 16.523438 48.820312 16.558594 48.945312 16.613281 Z M 48.945312 16.613281 "/>
<path style=" stroke:none;fill-rule:nonzero;fill:rgb(0%,0%,0%);fill-opacity:1;" d="M 51.296875 16.613281 C 51.421875 16.667969 51.585938 16.648438 51.640625 16.59375 C 51.710938 16.539062 51.605469 16.484375 51.40625 16.503906 C 51.207031 16.503906 51.152344 16.558594 51.296875 16.613281 Z M 51.296875 16.613281 "/>
</g>
</svg>
