<?xml version="1.0" encoding="UTF-8"?>
<svg xmlns="http://www.w3.org/2000/svg" xmlns:xlink="http://www.w3.org/1999/xlink" width="20px" height="59px" viewBox="0 0 20 18" version="1.1">
<defs>
<filter id="alpha" filterUnits="objectBoundingBox" x="0%" y="0%" width="100%" height="100%">
  <feColorMatrix type="matrix" in="SourceGraphic" values="0 0 0 0 1 0 0 0 0 1 0 0 0 0 1 0 0 0 1 0"/>
</filter>
<mask id="mask0">
  <g filter="url(#alpha)">
<rect x="0" y="0" width="20" height="18" style="fill:rgb(0%,0%,0%);fill-opacity:0.752941;stroke:none;"/>
  </g>
</mask>
<clipPath id="clip1">
  <rect x="0" y="0" width="20" height="18"/>
</clipPath>
<g id="surface5" clip-path="url(#clip1)">
<path style=" stroke:none;fill-rule:evenodd;fill:rgb(9.803922%,63.921569%,33.333333%);fill-opacity:1;" d="M 9.828125 0.121094 C 9.8125 0.140625 9.804688 0.160156 9.808594 0.1875 C 9.792969 0.1875 9.777344 0.1875 9.757812 0.1875 C 9.761719 0.214844 9.757812 0.234375 9.742188 0.253906 C 9.746094 0.175781 9.757812 0.101562 9.777344 0.0234375 C 9.800781 0.0546875 9.820312 0.0859375 9.828125 0.121094 Z M 9.828125 0.121094 "/>
</g>
<mask id="mask1">
  <g filter="url(#alpha)">
<rect x="0" y="0" width="20" height="18" style="fill:rgb(0%,0%,0%);fill-opacity:0.980392;stroke:none;"/>
  </g>
</mask>
<clipPath id="clip2">
  <rect x="0" y="0" width="20" height="18"/>
</clipPath>
<g id="surface8" clip-path="url(#clip2)">
<path style=" stroke:none;fill-rule:evenodd;fill:rgb(72.156863%,76.862745%,75.686275%);fill-opacity:1;" d="M 9.929688 9.832031 C 9.929688 9.84375 9.929688 9.855469 9.929688 9.867188 C 9.917969 9.988281 9.949219 10.097656 10.015625 10.195312 C 10.035156 10.21875 10.046875 10.242188 10.050781 10.273438 C 10.0625 10.34375 10.082031 10.410156 10.101562 10.472656 C 10.152344 10.472656 10.183594 10.496094 10.207031 10.535156 C 10.222656 10.550781 10.238281 10.558594 10.257812 10.554688 C 10.28125 10.5625 10.304688 10.574219 10.328125 10.585938 C 10.207031 11.097656 10.117188 11.617188 10.050781 12.140625 C 9.960938 12.140625 9.867188 12.140625 9.777344 12.140625 C 9.734375 11.664062 9.675781 11.1875 9.605469 10.714844 C 9.621094 10.714844 9.636719 10.714844 9.65625 10.714844 C 9.679688 10.585938 9.703125 10.453125 9.722656 10.324219 C 9.722656 10.320312 9.722656 10.3125 9.722656 10.308594 C 9.734375 10.304688 9.742188 10.300781 9.75 10.292969 C 9.765625 10.214844 9.777344 10.140625 9.777344 10.0625 C 9.789062 10.042969 9.800781 10.019531 9.808594 9.996094 C 9.824219 9.882812 9.839844 9.769531 9.855469 9.652344 C 9.859375 9.648438 9.863281 9.644531 9.871094 9.636719 C 9.882812 9.707031 9.902344 9.773438 9.929688 9.832031 Z M 9.929688 9.832031 "/>
</g>
<mask id="mask2">
  <g filter="url(#alpha)">
<rect x="0" y="0" width="20" height="18" style="fill:rgb(0%,0%,0%);fill-opacity:0.984314;stroke:none;"/>
  </g>
</mask>
<clipPath id="clip3">
  <rect x="0" y="0" width="20" height="18"/>
</clipPath>
<g id="surface11" clip-path="url(#clip3)">
<path style=" stroke:none;fill-rule:evenodd;fill:rgb(12.941176%,18.823529%,23.921569%);fill-opacity:1;" d="M 13.359375 14.167969 C 13.875 14.183594 14.394531 14.183594 14.910156 14.175781 C 15.550781 14.195312 15.980469 14.492188 16.191406 15.066406 C 16.289062 15.449219 16.25 15.820312 16.074219 16.175781 C 15.792969 16.589844 15.394531 16.820312 14.875 16.871094 C 14.707031 16.886719 14.535156 16.894531 14.367188 16.894531 C 14.03125 16.886719 13.695312 16.878906 13.359375 16.878906 C 13.351562 16.804688 13.371094 16.742188 13.429688 16.691406 C 13.515625 16.691406 13.59375 16.667969 13.667969 16.625 C 13.691406 16.601562 13.703125 16.570312 13.710938 16.535156 C 13.738281 15.898438 13.746094 15.261719 13.730469 14.625 C 13.730469 14.476562 13.652344 14.398438 13.496094 14.386719 C 13.421875 14.371094 13.347656 14.363281 13.273438 14.363281 C 13.292969 14.292969 13.320312 14.226562 13.359375 14.167969 Z M 14.339844 14.378906 C 14.652344 14.359375 14.945312 14.417969 15.21875 14.550781 C 15.578125 14.789062 15.753906 15.121094 15.753906 15.539062 C 15.757812 15.847656 15.660156 16.128906 15.46875 16.375 C 15.128906 16.683594 14.742188 16.75 14.304688 16.578125 C 14.253906 16.542969 14.222656 16.496094 14.210938 16.4375 C 14.179688 15.773438 14.179688 15.109375 14.210938 14.445312 C 14.25 14.40625 14.292969 14.386719 14.339844 14.378906 Z M 14.339844 14.378906 "/>
</g>
<mask id="mask3">
  <g filter="url(#alpha)">
<rect x="0" y="0" width="20" height="18" style="fill:rgb(0%,0%,0%);fill-opacity:0.976471;stroke:none;"/>
  </g>
</mask>
<clipPath id="clip4">
  <rect x="0" y="0" width="20" height="18"/>
</clipPath>
<g id="surface14" clip-path="url(#clip4)">
<path style=" stroke:none;fill-rule:evenodd;fill:rgb(12.941176%,18.823529%,23.921569%);fill-opacity:1;" d="M 16.667969 14.394531 C 16.636719 14.375 16.605469 14.351562 16.582031 14.320312 C 16.558594 14.3125 16.535156 14.3125 16.511719 14.3125 C 16.515625 14.269531 16.539062 14.234375 16.582031 14.207031 C 16.667969 14.199219 16.753906 14.195312 16.839844 14.199219 C 17.222656 14.1875 17.609375 14.183594 17.992188 14.191406 C 18.222656 14.203125 18.414062 14.289062 18.570312 14.445312 C 18.789062 14.835938 18.695312 15.136719 18.285156 15.351562 C 18.808594 15.503906 18.992188 15.828125 18.847656 16.324219 C 18.6875 16.585938 18.457031 16.757812 18.148438 16.839844 C 18.058594 16.863281 17.964844 16.878906 17.871094 16.886719 C 17.402344 16.898438 16.929688 16.894531 16.460938 16.878906 C 16.457031 16.820312 16.472656 16.765625 16.511719 16.714844 C 16.609375 16.695312 16.707031 16.671875 16.804688 16.644531 C 16.84375 16.605469 16.863281 16.558594 16.863281 16.503906 C 16.867188 15.933594 16.875 15.363281 16.890625 14.796875 C 16.878906 14.695312 16.871094 14.59375 16.863281 14.492188 C 16.820312 14.425781 16.753906 14.390625 16.667969 14.394531 Z M 17.40625 14.394531 C 17.617188 14.378906 17.820312 14.414062 18.011719 14.5 C 18.195312 14.652344 18.257812 14.839844 18.191406 15.066406 C 18.136719 15.21875 18.023438 15.300781 17.855469 15.320312 C 17.683594 15.332031 17.515625 15.328125 17.347656 15.3125 C 17.335938 15.027344 17.335938 14.742188 17.347656 14.460938 C 17.359375 14.429688 17.378906 14.410156 17.40625 14.394531 Z M 17.355469 15.539062 C 17.558594 15.53125 17.757812 15.542969 17.957031 15.582031 C 18.300781 15.683594 18.445312 15.90625 18.398438 16.242188 C 18.320312 16.53125 18.121094 16.679688 17.804688 16.683594 C 17.707031 16.675781 17.609375 16.660156 17.511719 16.644531 C 17.425781 16.605469 17.371094 16.542969 17.347656 16.453125 C 17.332031 16.148438 17.335938 15.84375 17.355469 15.539062 Z M 17.355469 15.539062 "/>
</g>
<mask id="mask4">
  <g filter="url(#alpha)">
<rect x="0" y="0" width="20" height="18" style="fill:rgb(0%,0%,0%);fill-opacity:0.980392;stroke:none;"/>
  </g>
</mask>
<clipPath id="clip5">
  <rect x="0" y="0" width="20" height="18"/>
</clipPath>
<g id="surface17" clip-path="url(#clip5)">
<path style=" stroke:none;fill-rule:evenodd;fill:rgb(12.941176%,18.823529%,23.921569%);fill-opacity:1;" d="M 0.386719 16.339844 C 0.414062 16.285156 0.425781 16.226562 0.421875 16.160156 C 0.417969 16.089844 0.414062 16.019531 0.40625 15.949219 C 0.429688 15.949219 0.449219 15.949219 0.472656 15.949219 C 0.472656 15.773438 0.472656 15.597656 0.472656 15.425781 C 0.496094 15.425781 0.519531 15.425781 0.542969 15.425781 C 0.542969 15.347656 0.542969 15.273438 0.542969 15.195312 C 0.492188 15.191406 0.464844 15.214844 0.457031 15.261719 C 0.433594 15.28125 0.40625 15.300781 0.378906 15.3125 C 0.394531 15.421875 0.40625 15.535156 0.40625 15.652344 C 0.40625 15.734375 0.398438 15.808594 0.386719 15.882812 C 0.394531 15.746094 0.386719 15.609375 0.363281 15.472656 C 0.277344 15.414062 0.183594 15.375 0.078125 15.351562 C 0.046875 15.328125 0.0390625 15.296875 0.0507812 15.261719 C 0.28125 15.210938 0.507812 15.152344 0.730469 15.082031 C 0.742188 15.085938 0.75 15.089844 0.757812 15.097656 C 0.769531 15.167969 0.769531 15.242188 0.75 15.3125 C 0.753906 15.328125 0.765625 15.335938 0.785156 15.34375 C 0.941406 15.222656 1.121094 15.140625 1.316406 15.089844 C 1.445312 15.070312 1.566406 15.085938 1.679688 15.140625 C 1.769531 15.203125 1.847656 15.277344 1.921875 15.359375 C 2.117188 15.210938 2.335938 15.117188 2.582031 15.082031 C 2.921875 15.109375 3.117188 15.285156 3.167969 15.605469 C 3.175781 15.9375 3.179688 16.269531 3.1875 16.601562 C 3.207031 16.648438 3.246094 16.679688 3.300781 16.691406 C 3.359375 16.703125 3.421875 16.714844 3.480469 16.734375 C 3.492188 16.78125 3.488281 16.832031 3.472656 16.878906 C 3.15625 16.878906 2.84375 16.878906 2.53125 16.878906 C 2.519531 16.832031 2.519531 16.78125 2.539062 16.734375 C 2.628906 16.722656 2.707031 16.6875 2.773438 16.636719 C 2.777344 16.613281 2.785156 16.589844 2.789062 16.570312 C 2.800781 16.300781 2.800781 16.035156 2.789062 15.769531 C 2.726562 15.421875 2.515625 15.304688 2.160156 15.417969 C 2.078125 15.445312 2.007812 15.488281 1.957031 15.554688 C 1.96875 15.902344 1.976562 16.253906 1.980469 16.601562 C 1.992188 16.625 2.003906 16.648438 2.023438 16.667969 C 2.101562 16.695312 2.179688 16.714844 2.257812 16.734375 C 2.269531 16.78125 2.265625 16.832031 2.25 16.878906 C 1.933594 16.875 1.617188 16.882812 1.300781 16.894531 C 1.296875 16.839844 1.300781 16.785156 1.316406 16.734375 C 1.394531 16.71875 1.46875 16.699219 1.542969 16.675781 C 1.566406 16.65625 1.582031 16.632812 1.585938 16.601562 C 1.613281 16.296875 1.613281 15.992188 1.585938 15.6875 C 1.511719 15.410156 1.332031 15.3125 1.042969 15.382812 C 0.945312 15.414062 0.855469 15.460938 0.773438 15.523438 C 0.742188 15.894531 0.742188 16.265625 0.773438 16.636719 C 0.847656 16.691406 0.929688 16.722656 1.023438 16.726562 C 1.042969 16.773438 1.046875 16.828125 1.035156 16.878906 C 0.714844 16.875 0.398438 16.878906 0.078125 16.894531 C 0.0507812 16.839844 0.0585938 16.785156 0.09375 16.734375 C 0.183594 16.71875 0.265625 16.691406 0.34375 16.652344 C 0.371094 16.550781 0.382812 16.445312 0.386719 16.339844 Z M 0.386719 16.339844 "/>
</g>
<mask id="mask5">
  <g filter="url(#alpha)">
<rect x="0" y="0" width="20" height="18" style="fill:rgb(0%,0%,0%);fill-opacity:0.980392;stroke:none;"/>
  </g>
</mask>
<clipPath id="clip6">
  <rect x="0" y="0" width="20" height="18"/>
</clipPath>
<g id="surface20" clip-path="url(#clip6)">
<path style=" stroke:none;fill-rule:evenodd;fill:rgb(12.941176%,18.823529%,23.529412%);fill-opacity:1;" d="M 9.398438 15.082031 C 9.488281 15.078125 9.582031 15.082031 9.671875 15.089844 C 9.816406 15.121094 9.960938 15.160156 10.101562 15.203125 C 10.257812 15.238281 10.394531 15.207031 10.515625 15.113281 C 10.570312 15.242188 10.542969 15.347656 10.429688 15.433594 C 10.34375 15.457031 10.257812 15.464844 10.171875 15.457031 C 10.269531 15.84375 10.128906 16.125 9.757812 16.300781 C 9.613281 16.347656 9.464844 16.382812 9.3125 16.398438 C 9.21875 16.441406 9.207031 16.5 9.277344 16.570312 C 9.308594 16.585938 9.34375 16.601562 9.378906 16.609375 C 9.617188 16.625 9.851562 16.648438 10.085938 16.675781 C 10.351562 16.71875 10.496094 16.867188 10.515625 17.125 C 10.480469 17.429688 10.316406 17.65625 10.035156 17.804688 C 9.71875 17.964844 9.382812 18.003906 9.035156 17.917969 C 8.785156 17.835938 8.632812 17.667969 8.585938 17.417969 C 8.59375 17.355469 8.613281 17.296875 8.648438 17.238281 C 8.773438 17.121094 8.90625 17.015625 9.050781 16.921875 C 8.980469 16.886719 8.917969 16.84375 8.855469 16.796875 C 8.816406 16.75 8.789062 16.695312 8.777344 16.636719 C 8.773438 16.605469 8.785156 16.578125 8.8125 16.5625 C 8.914062 16.507812 9.011719 16.445312 9.105469 16.375 C 8.734375 16.21875 8.597656 15.949219 8.699219 15.570312 C 8.761719 15.390625 8.886719 15.265625 9.070312 15.1875 C 9.179688 15.148438 9.289062 15.113281 9.398438 15.082031 Z M 9.328125 15.261719 C 9.660156 15.273438 9.828125 15.441406 9.828125 15.761719 C 9.828125 15.90625 9.777344 16.03125 9.671875 16.136719 C 9.367188 16.242188 9.171875 16.148438 9.078125 15.851562 C 9.03125 15.691406 9.050781 15.539062 9.128906 15.390625 C 9.183594 15.328125 9.25 15.285156 9.328125 15.261719 Z M 9.292969 16.960938 C 9.445312 16.960938 9.59375 16.96875 9.742188 16.988281 C 9.851562 17 9.957031 17.03125 10.050781 17.085938 C 10.203125 17.230469 10.210938 17.386719 10.078125 17.550781 C 9.933594 17.675781 9.765625 17.734375 9.570312 17.730469 C 9.324219 17.742188 9.132812 17.652344 8.992188 17.46875 C 8.921875 17.300781 8.964844 17.160156 9.121094 17.050781 C 9.175781 17.015625 9.234375 16.988281 9.292969 16.960938 Z M 9.292969 16.960938 "/>
</g>
<mask id="mask6">
  <g filter="url(#alpha)">
<rect x="0" y="0" width="20" height="18" style="fill:rgb(0%,0%,0%);fill-opacity:0.972549;stroke:none;"/>
  </g>
</mask>
<clipPath id="clip7">
  <rect x="0" y="0" width="20" height="18"/>
</clipPath>
<g id="surface23" clip-path="url(#clip7)">
<path style=" stroke:none;fill-rule:evenodd;fill:rgb(12.941176%,18.823529%,23.529412%);fill-opacity:1;" d="M 11.722656 15.082031 C 12.25 15.03125 12.59375 15.242188 12.746094 15.71875 C 12.824219 16.042969 12.761719 16.335938 12.558594 16.601562 C 12.152344 16.96875 11.699219 17.027344 11.207031 16.773438 C 10.957031 16.570312 10.835938 16.3125 10.84375 15.996094 C 10.84375 15.605469 11.035156 15.328125 11.414062 15.171875 C 11.515625 15.136719 11.621094 15.105469 11.722656 15.082031 Z M 11.652344 15.277344 C 12.011719 15.292969 12.234375 15.46875 12.316406 15.800781 C 12.375 16.019531 12.371094 16.238281 12.300781 16.453125 C 12.164062 16.714844 11.953125 16.789062 11.671875 16.675781 C 11.492188 16.574219 11.375 16.429688 11.316406 16.242188 C 11.222656 15.972656 11.242188 15.710938 11.371094 15.457031 C 11.445312 15.367188 11.539062 15.304688 11.652344 15.277344 Z M 11.652344 15.277344 "/>
</g>
<mask id="mask7">
  <g filter="url(#alpha)">
<rect x="0" y="0" width="20" height="18" style="fill:rgb(0%,0%,0%);fill-opacity:0.976471;stroke:none;"/>
  </g>
</mask>
<clipPath id="clip8">
  <rect x="0" y="0" width="20" height="18"/>
</clipPath>
<g id="surface26" clip-path="url(#clip8)">
<path style=" stroke:none;fill-rule:evenodd;fill:rgb(12.941176%,18.823529%,23.529412%);fill-opacity:1;" d="M 4.710938 15.082031 C 5.363281 15.054688 5.714844 15.347656 5.761719 15.964844 C 5.75 16.46875 5.484375 16.78125 4.96875 16.90625 C 4.246094 16.988281 3.867188 16.6875 3.832031 15.996094 C 3.835938 15.585938 4.035156 15.308594 4.4375 15.15625 C 4.527344 15.125 4.621094 15.101562 4.710938 15.082031 Z M 4.625 15.277344 C 5.007812 15.289062 5.234375 15.472656 5.304688 15.832031 C 5.34375 16.035156 5.339844 16.238281 5.289062 16.4375 C 5.171875 16.695312 4.972656 16.777344 4.695312 16.691406 C 4.449219 16.578125 4.308594 16.386719 4.273438 16.128906 C 4.230469 15.929688 4.242188 15.734375 4.304688 15.539062 C 4.367188 15.402344 4.476562 15.3125 4.625 15.277344 Z M 4.625 15.277344 "/>
</g>
<mask id="mask8">
  <g filter="url(#alpha)">
<rect x="0" y="0" width="20" height="18" style="fill:rgb(0%,0%,0%);fill-opacity:0.968627;stroke:none;"/>
  </g>
</mask>
<clipPath id="clip9">
  <rect x="0" y="0" width="20" height="18"/>
</clipPath>
<g id="surface29" clip-path="url(#clip9)">
<path style=" stroke:none;fill-rule:evenodd;fill:rgb(12.941176%,18.823529%,23.529412%);fill-opacity:1;" d="M 6.398438 16.390625 C 6.410156 16.128906 6.421875 15.867188 6.433594 15.605469 C 6.476562 15.554688 6.464844 15.507812 6.398438 15.472656 C 6.378906 15.460938 6.355469 15.457031 6.332031 15.457031 C 6.25 15.425781 6.171875 15.394531 6.089844 15.367188 C 6.042969 15.328125 6.042969 15.292969 6.089844 15.253906 C 6.316406 15.207031 6.539062 15.152344 6.761719 15.082031 C 6.78125 15.085938 6.796875 15.097656 6.804688 15.113281 C 6.808594 15.195312 6.808594 15.277344 6.804688 15.359375 C 6.984375 15.199219 7.199219 15.101562 7.441406 15.066406 C 7.78125 15.09375 7.976562 15.269531 8.027344 15.589844 C 8.046875 15.929688 8.058594 16.273438 8.0625 16.617188 C 8.070312 16.632812 8.078125 16.648438 8.085938 16.660156 C 8.171875 16.6875 8.257812 16.714844 8.347656 16.734375 C 8.367188 16.789062 8.363281 16.84375 8.335938 16.894531 C 8.015625 16.898438 7.695312 16.898438 7.371094 16.894531 C 7.363281 16.84375 7.363281 16.789062 7.371094 16.734375 C 7.433594 16.71875 7.492188 16.703125 7.554688 16.691406 C 7.578125 16.683594 7.597656 16.671875 7.613281 16.652344 C 7.632812 16.503906 7.640625 16.351562 7.640625 16.203125 C 7.636719 16.066406 7.632812 15.933594 7.632812 15.800781 C 7.609375 15.488281 7.433594 15.355469 7.105469 15.402344 C 6.984375 15.421875 6.890625 15.480469 6.820312 15.570312 C 6.808594 15.921875 6.808594 16.269531 6.820312 16.617188 C 6.835938 16.652344 6.863281 16.679688 6.898438 16.691406 C 6.964844 16.710938 7.035156 16.71875 7.105469 16.714844 C 7.109375 16.777344 7.105469 16.835938 7.089844 16.894531 C 6.765625 16.894531 6.445312 16.894531 6.125 16.90625 C 6.105469 16.847656 6.101562 16.792969 6.117188 16.734375 C 6.175781 16.714844 6.234375 16.703125 6.296875 16.691406 C 6.328125 16.679688 6.351562 16.660156 6.375 16.636719 C 6.382812 16.554688 6.394531 16.472656 6.398438 16.390625 Z M 6.398438 16.390625 "/>
</g>
<mask id="mask9">
  <g filter="url(#alpha)">
<rect x="0" y="0" width="20" height="18" style="fill:rgb(0%,0%,0%);fill-opacity:0.678431;stroke:none;"/>
  </g>
</mask>
<clipPath id="clip10">
  <rect x="0" y="0" width="20" height="18"/>
</clipPath>
<g id="surface32" clip-path="url(#clip10)">
<path style=" stroke:none;fill-rule:evenodd;fill:rgb(13.72549%,18.823529%,20.784314%);fill-opacity:1;" d="M 6.332031 15.457031 C 6.355469 15.457031 6.378906 15.460938 6.398438 15.472656 C 6.464844 15.507812 6.476562 15.554688 6.433594 15.605469 C 6.421875 15.867188 6.410156 16.128906 6.398438 16.390625 C 6.402344 16.101562 6.398438 15.8125 6.390625 15.523438 C 6.378906 15.492188 6.359375 15.472656 6.332031 15.457031 Z M 6.332031 15.457031 "/>
</g>
<mask id="mask10">
  <g filter="url(#alpha)">
<rect x="0" y="0" width="20" height="18" style="fill:rgb(0%,0%,0%);fill-opacity:0.729412;stroke:none;"/>
  </g>
</mask>
<clipPath id="clip11">
  <rect x="0" y="0" width="20" height="18"/>
</clipPath>
<g id="surface35" clip-path="url(#clip11)">
<path style=" stroke:none;fill-rule:evenodd;fill:rgb(14.117647%,18.823529%,21.568627%);fill-opacity:1;" d="M 19.527344 16.195312 C 19.855469 16.203125 19.992188 16.359375 19.929688 16.667969 C 19.792969 16.894531 19.601562 16.949219 19.355469 16.824219 C 19.199219 16.671875 19.179688 16.503906 19.292969 16.324219 C 19.359375 16.253906 19.433594 16.210938 19.527344 16.195312 Z M 19.527344 16.242188 C 19.746094 16.238281 19.871094 16.339844 19.90625 16.546875 C 19.839844 16.8125 19.671875 16.894531 19.40625 16.789062 C 19.222656 16.625 19.222656 16.464844 19.40625 16.300781 C 19.449219 16.28125 19.488281 16.261719 19.527344 16.242188 Z M 19.507812 16.390625 C 19.554688 16.386719 19.601562 16.390625 19.648438 16.398438 C 19.667969 16.429688 19.667969 16.464844 19.648438 16.496094 C 19.605469 16.515625 19.558594 16.523438 19.507812 16.519531 C 19.507812 16.476562 19.507812 16.433594 19.507812 16.390625 Z M 19.507812 16.390625 "/>
</g>
<mask id="mask11">
  <g filter="url(#alpha)">
<rect x="0" y="0" width="20" height="18" style="fill:rgb(0%,0%,0%);fill-opacity:0.768627;stroke:none;"/>
  </g>
</mask>
<clipPath id="clip12">
  <rect x="0" y="0" width="20" height="18"/>
</clipPath>
<g id="surface38" clip-path="url(#clip12)">
<path style=" stroke:none;fill-rule:evenodd;fill:rgb(13.333333%,18.823529%,23.137255%);fill-opacity:1;" d="M 19.441406 16.324219 C 19.515625 16.320312 19.589844 16.324219 19.664062 16.332031 C 19.695312 16.339844 19.714844 16.359375 19.722656 16.390625 C 19.75 16.46875 19.726562 16.535156 19.664062 16.585938 C 19.6875 16.644531 19.714844 16.703125 19.75 16.757812 C 19.722656 16.769531 19.691406 16.769531 19.664062 16.757812 C 19.636719 16.707031 19.613281 16.652344 19.585938 16.601562 C 19.5625 16.585938 19.539062 16.582031 19.507812 16.585938 C 19.507812 16.644531 19.507812 16.707031 19.507812 16.765625 C 19.484375 16.765625 19.464844 16.765625 19.441406 16.765625 C 19.441406 16.617188 19.441406 16.472656 19.441406 16.324219 Z M 19.507812 16.390625 C 19.507812 16.433594 19.507812 16.476562 19.507812 16.519531 C 19.558594 16.523438 19.605469 16.515625 19.648438 16.496094 C 19.667969 16.464844 19.667969 16.429688 19.648438 16.398438 C 19.601562 16.390625 19.554688 16.386719 19.507812 16.390625 Z M 19.507812 16.390625 "/>
</g>
</defs>
<g id="surface1">
<use xlink:href="#surface5" mask="url(#mask0)"/>
<path style=" stroke:none;fill-rule:evenodd;fill:rgb(5.098039%,59.215686%,29.803922%);fill-opacity:1;" d="M 9.828125 0.238281 C 9.851562 0.246094 9.867188 0.265625 9.878906 0.285156 C 9.882812 0.453125 9.882812 0.621094 9.878906 0.792969 C 9.855469 0.609375 9.839844 0.425781 9.828125 0.238281 Z M 9.828125 0.238281 "/>
<path style=" stroke:none;fill-rule:evenodd;fill:rgb(6.666667%,57.254902%,31.372549%);fill-opacity:1;" d="M 9.828125 0.121094 C 9.945312 0.359375 10.074219 0.585938 10.214844 0.808594 C 10.457031 1.066406 10.703125 1.316406 10.957031 1.5625 C 11.703125 2.410156 12.222656 3.375 12.507812 4.453125 C 12.921875 6.082031 12.6875 7.621094 11.800781 9.066406 C 11.421875 9.667969 10.929688 10.175781 10.328125 10.585938 C 10.304688 10.574219 10.28125 10.5625 10.257812 10.554688 C 10.242188 10.53125 10.222656 10.507812 10.207031 10.488281 C 10.195312 10.460938 10.183594 10.433594 10.171875 10.40625 C 10.195312 10.324219 10.195312 10.242188 10.171875 10.160156 C 10.136719 10.183594 10.101562 10.199219 10.058594 10.210938 C 10.054688 10.171875 10.046875 10.132812 10.042969 10.09375 C 10.035156 10.074219 10.023438 10.0625 10 10.0625 C 9.984375 10.046875 9.976562 10.023438 9.984375 9.996094 C 9.945312 9.820312 9.925781 9.640625 9.921875 9.457031 C 9.917969 9.402344 9.90625 9.355469 9.878906 9.3125 C 9.878906 9.277344 9.878906 9.246094 9.878906 9.210938 C 9.875 9.101562 9.878906 8.992188 9.898438 8.886719 C 9.917969 8.671875 9.929688 8.453125 9.929688 8.230469 C 9.949219 8.175781 9.953125 8.113281 9.949219 8.050781 C 9.960938 7.035156 9.972656 6.015625 9.972656 4.996094 C 9.980469 4.878906 9.984375 4.765625 9.992188 4.652344 C 10.007812 4.640625 10.015625 4.628906 10.015625 4.609375 C 9.972656 4.527344 9.972656 4.441406 10.015625 4.355469 C 10 4.324219 9.984375 4.292969 9.972656 4.257812 C 9.945312 3.5 9.925781 2.742188 9.914062 1.988281 C 9.910156 1.589844 9.898438 1.191406 9.878906 0.792969 C 9.882812 0.621094 9.882812 0.453125 9.878906 0.285156 C 9.867188 0.265625 9.851562 0.246094 9.828125 0.238281 C 9.832031 0.214844 9.824219 0.199219 9.808594 0.1875 C 9.804688 0.160156 9.8125 0.140625 9.828125 0.121094 Z M 9.828125 0.121094 "/>
<path style=" stroke:none;fill-rule:evenodd;fill:rgb(6.666667%,66.27451%,31.372549%);fill-opacity:1;" d="M 9.808594 0.1875 C 9.824219 0.199219 9.832031 0.214844 9.828125 0.238281 C 9.839844 0.425781 9.855469 0.609375 9.878906 0.792969 C 9.898438 1.191406 9.910156 1.589844 9.914062 1.988281 C 9.9375 4.007812 9.949219 6.03125 9.949219 8.050781 C 9.953125 8.113281 9.949219 8.175781 9.929688 8.230469 C 9.898438 8.445312 9.886719 8.660156 9.898438 8.886719 C 9.878906 8.992188 9.875 9.101562 9.878906 9.210938 C 9.851562 9.273438 9.839844 9.339844 9.84375 9.410156 C 9.832031 9.472656 9.828125 9.539062 9.828125 9.605469 C 9.800781 9.664062 9.785156 9.730469 9.777344 9.800781 C 9.757812 9.886719 9.753906 9.976562 9.757812 10.0625 C 9.75 10.066406 9.738281 10.070312 9.734375 10.078125 C 9.722656 10.132812 9.722656 10.1875 9.722656 10.242188 C 9.722656 10.265625 9.722656 10.285156 9.722656 10.308594 C 9.722656 10.3125 9.722656 10.320312 9.722656 10.324219 C 9.691406 10.445312 9.652344 10.566406 9.605469 10.683594 C 8.40625 9.84375 7.59375 8.742188 7.167969 7.382812 C 6.808594 5.839844 6.96875 4.347656 7.648438 2.902344 C 7.957031 2.277344 8.351562 1.710938 8.835938 1.203125 C 9.089844 0.960938 9.347656 0.726562 9.613281 0.5 C 9.664062 0.417969 9.707031 0.339844 9.742188 0.253906 C 9.757812 0.234375 9.761719 0.214844 9.757812 0.1875 C 9.777344 0.1875 9.792969 0.1875 9.808594 0.1875 Z M 9.808594 0.1875 "/>
<path style=" stroke:none;fill-rule:evenodd;fill:rgb(6.27451%,59.215686%,30.588235%);fill-opacity:1;" d="M 9.914062 1.988281 C 9.925781 2.742188 9.945312 3.5 9.972656 4.257812 C 9.984375 4.292969 10 4.324219 10.015625 4.355469 C 9.972656 4.441406 9.972656 4.527344 10.015625 4.609375 C 10.015625 4.628906 10.007812 4.640625 9.992188 4.652344 C 9.984375 4.765625 9.980469 4.878906 9.972656 4.996094 C 9.972656 6.015625 9.960938 7.035156 9.949219 8.050781 C 9.949219 6.03125 9.9375 4.007812 9.914062 1.988281 Z M 9.914062 1.988281 "/>
<path style=" stroke:none;fill-rule:evenodd;fill:rgb(7.45098%,63.529412%,31.764706%);fill-opacity:1;" d="M 9.929688 8.230469 C 9.929688 8.453125 9.917969 8.671875 9.898438 8.886719 C 9.886719 8.660156 9.898438 8.445312 9.929688 8.230469 Z M 9.929688 8.230469 "/>
<path style=" stroke:none;fill-rule:evenodd;fill:rgb(49.019608%,77.647059%,61.568627%);fill-opacity:1;" d="M 9.878906 9.210938 C 9.878906 9.246094 9.878906 9.277344 9.878906 9.3125 C 9.878906 9.335938 9.878906 9.363281 9.878906 9.390625 C 9.867188 9.398438 9.855469 9.402344 9.84375 9.410156 C 9.839844 9.339844 9.851562 9.273438 9.878906 9.210938 Z M 9.878906 9.210938 "/>
<path style=" stroke:none;fill-rule:evenodd;fill:rgb(18.431373%,56.862745%,36.862745%);fill-opacity:1;" d="M 9.878906 9.3125 C 9.90625 9.355469 9.917969 9.402344 9.921875 9.457031 C 9.925781 9.640625 9.945312 9.820312 9.984375 9.996094 C 9.960938 9.953125 9.945312 9.910156 9.929688 9.867188 C 9.929688 9.855469 9.929688 9.84375 9.929688 9.832031 C 9.914062 9.6875 9.898438 9.539062 9.878906 9.390625 C 9.878906 9.363281 9.878906 9.335938 9.878906 9.3125 Z M 9.878906 9.3125 "/>
<path style=" stroke:none;fill-rule:evenodd;fill:rgb(61.960784%,80%,70.588235%);fill-opacity:1;" d="M 9.878906 9.390625 C 9.898438 9.539062 9.914062 9.6875 9.929688 9.832031 C 9.902344 9.773438 9.882812 9.707031 9.871094 9.636719 C 9.863281 9.644531 9.859375 9.648438 9.855469 9.652344 C 9.839844 9.769531 9.824219 9.882812 9.808594 9.996094 C 9.800781 10.019531 9.789062 10.042969 9.777344 10.0625 C 9.792969 9.910156 9.808594 9.757812 9.828125 9.605469 C 9.828125 9.539062 9.832031 9.472656 9.84375 9.410156 C 9.855469 9.402344 9.867188 9.398438 9.878906 9.390625 Z M 9.878906 9.390625 "/>
<path style=" stroke:none;fill-rule:evenodd;fill:rgb(14.509804%,63.529412%,34.117647%);fill-opacity:1;" d="M 9.828125 9.605469 C 9.808594 9.757812 9.792969 9.910156 9.777344 10.0625 C 9.769531 10.0625 9.765625 10.0625 9.757812 10.0625 C 9.753906 9.976562 9.757812 9.886719 9.777344 9.800781 C 9.785156 9.730469 9.800781 9.664062 9.828125 9.605469 Z M 9.828125 9.605469 "/>
<path style=" stroke:none;fill-rule:evenodd;fill:rgb(11.372549%,62.745098%,35.686275%);fill-opacity:1;" d="M 9.757812 10.0625 C 9.757812 10.125 9.746094 10.1875 9.722656 10.242188 C 9.722656 10.1875 9.722656 10.132812 9.734375 10.078125 C 9.738281 10.070312 9.75 10.066406 9.757812 10.0625 Z M 9.757812 10.0625 "/>
<path style=" stroke:none;fill-rule:evenodd;fill:rgb(62.352941%,78.431373%,70.588235%);fill-opacity:1;" d="M 9.929688 9.867188 C 9.945312 9.910156 9.960938 9.953125 9.984375 9.996094 C 9.976562 10.023438 9.984375 10.046875 10 10.0625 C 10.003906 10.105469 10.011719 10.148438 10.015625 10.195312 C 9.949219 10.097656 9.917969 9.988281 9.929688 9.867188 Z M 9.929688 9.867188 "/>
<path style=" stroke:none;fill-rule:evenodd;fill:rgb(54.117647%,79.215686%,66.666667%);fill-opacity:1;" d="M 9.757812 10.0625 C 9.765625 10.0625 9.769531 10.0625 9.777344 10.0625 C 9.777344 10.140625 9.765625 10.214844 9.75 10.292969 C 9.742188 10.300781 9.734375 10.304688 9.722656 10.308594 C 9.722656 10.285156 9.722656 10.265625 9.722656 10.242188 C 9.746094 10.1875 9.757812 10.125 9.757812 10.0625 Z M 9.757812 10.0625 "/>
<path style=" stroke:none;fill-rule:evenodd;fill:rgb(10.196078%,56.078431%,33.333333%);fill-opacity:1;" d="M 10 10.0625 C 10.023438 10.0625 10.035156 10.074219 10.042969 10.09375 C 10.046875 10.132812 10.054688 10.171875 10.058594 10.210938 C 10.101562 10.199219 10.136719 10.183594 10.171875 10.160156 C 10.195312 10.242188 10.195312 10.324219 10.171875 10.40625 C 10.183594 10.433594 10.195312 10.460938 10.207031 10.488281 C 10.140625 10.425781 10.089844 10.355469 10.050781 10.273438 C 10.046875 10.242188 10.035156 10.21875 10.015625 10.195312 C 10.011719 10.148438 10.003906 10.105469 10 10.0625 Z M 10 10.0625 "/>
<use xlink:href="#surface8" mask="url(#mask1)"/>
<path style=" stroke:none;fill-rule:evenodd;fill:rgb(65.098039%,78.431373%,72.941176%);fill-opacity:1;" d="M 10.050781 10.273438 C 10.089844 10.355469 10.140625 10.425781 10.207031 10.488281 C 10.222656 10.507812 10.242188 10.53125 10.257812 10.554688 C 10.238281 10.558594 10.222656 10.550781 10.207031 10.535156 C 10.183594 10.496094 10.152344 10.472656 10.101562 10.472656 C 10.082031 10.410156 10.0625 10.34375 10.050781 10.273438 Z M 10.050781 10.273438 "/>
<path style=" stroke:none;fill-rule:evenodd;fill:rgb(63.137255%,77.647059%,70.588235%);fill-opacity:1;" d="M 9.722656 10.324219 C 9.703125 10.453125 9.679688 10.585938 9.65625 10.714844 C 9.636719 10.714844 9.621094 10.714844 9.605469 10.714844 C 9.605469 10.707031 9.605469 10.695312 9.605469 10.683594 C 9.652344 10.566406 9.691406 10.445312 9.722656 10.324219 Z M 9.722656 10.324219 "/>
<use xlink:href="#surface11" mask="url(#mask2)"/>
<use xlink:href="#surface14" mask="url(#mask3)"/>
<path style=" stroke:none;fill-rule:evenodd;fill:rgb(12.54902%,18.823529%,25.098039%);fill-opacity:1;" d="M 13.546875 14.246094 C 13.835938 14.246094 14.121094 14.246094 14.410156 14.257812 C 14.417969 14.277344 14.429688 14.292969 14.445312 14.3125 C 14.457031 14.285156 14.472656 14.265625 14.496094 14.246094 C 14.507812 14.25 14.515625 14.257812 14.523438 14.265625 C 14.53125 14.296875 14.535156 14.328125 14.53125 14.363281 C 14.4375 14.359375 14.347656 14.363281 14.253906 14.371094 C 14.230469 14.378906 14.210938 14.390625 14.195312 14.410156 C 14.128906 14.390625 14.0625 14.378906 13.988281 14.378906 C 13.894531 14.375 13.808594 14.386719 13.722656 14.410156 C 13.644531 14.390625 13.570312 14.363281 13.496094 14.328125 C 13.523438 14.308594 13.539062 14.28125 13.546875 14.246094 Z M 13.546875 14.246094 "/>
<path style=" stroke:none;fill-rule:evenodd;fill:rgb(13.333333%,19.215686%,20.784314%);fill-opacity:1;" d="M 16.839844 14.199219 C 16.753906 14.195312 16.667969 14.199219 16.582031 14.207031 C 16.539062 14.234375 16.515625 14.269531 16.511719 14.3125 C 16.535156 14.3125 16.558594 14.3125 16.582031 14.320312 C 16.605469 14.351562 16.636719 14.375 16.667969 14.394531 C 16.597656 14.382812 16.527344 14.371094 16.460938 14.363281 C 16.464844 14.300781 16.488281 14.242188 16.527344 14.191406 C 16.636719 14.175781 16.738281 14.179688 16.839844 14.199219 Z M 16.839844 14.199219 "/>
<use xlink:href="#surface17" mask="url(#mask4)"/>
<use xlink:href="#surface20" mask="url(#mask5)"/>
<use xlink:href="#surface23" mask="url(#mask6)"/>
<use xlink:href="#surface26" mask="url(#mask7)"/>
<path style=" stroke:none;fill-rule:evenodd;fill:rgb(12.54902%,18.823529%,25.098039%);fill-opacity:1;" d="M 0.386719 16.339844 C 0.386719 16.1875 0.386719 16.035156 0.386719 15.882812 C 0.398438 15.808594 0.40625 15.734375 0.40625 15.652344 C 0.40625 15.535156 0.394531 15.421875 0.378906 15.3125 C 0.40625 15.300781 0.433594 15.28125 0.457031 15.261719 C 0.464844 15.214844 0.492188 15.191406 0.542969 15.195312 C 0.542969 15.273438 0.542969 15.347656 0.542969 15.425781 C 0.519531 15.425781 0.496094 15.425781 0.472656 15.425781 C 0.472656 15.597656 0.472656 15.773438 0.472656 15.949219 C 0.449219 15.949219 0.429688 15.949219 0.40625 15.949219 C 0.414062 16.019531 0.417969 16.089844 0.421875 16.160156 C 0.425781 16.226562 0.414062 16.285156 0.386719 16.339844 Z M 0.386719 16.339844 "/>
<use xlink:href="#surface29" mask="url(#mask8)"/>
<path style=" stroke:none;fill-rule:evenodd;fill:rgb(12.54902%,18.823529%,25.098039%);fill-opacity:1;" d="M 6.433594 15.425781 C 6.492188 15.425781 6.550781 15.425781 6.605469 15.425781 C 6.605469 15.773438 6.605469 16.121094 6.605469 16.472656 C 6.582031 16.472656 6.558594 16.472656 6.539062 16.472656 C 6.539062 16.515625 6.539062 16.558594 6.539062 16.601562 C 6.558594 16.601562 6.582031 16.601562 6.605469 16.601562 C 6.605469 16.625 6.605469 16.644531 6.605469 16.667969 C 6.570312 16.667969 6.539062 16.667969 6.503906 16.667969 C 6.507812 16.636719 6.5 16.609375 6.476562 16.585938 C 6.464844 16.230469 6.464844 15.878906 6.484375 15.523438 C 6.507812 15.527344 6.523438 15.519531 6.539062 15.507812 C 6.492188 15.492188 6.457031 15.464844 6.433594 15.425781 Z M 6.433594 15.425781 "/>
<use xlink:href="#surface32" mask="url(#mask9)"/>
<use xlink:href="#surface35" mask="url(#mask10)"/>
<use xlink:href="#surface38" mask="url(#mask11)"/>
</g>
</svg>
