<?xml version="1.0" encoding="UTF-8"?>
<svg xmlns="http://www.w3.org/2000/svg" xmlns:xlink="http://www.w3.org/1999/xlink" width="59px" height="20px" viewBox="0 0 6 20" version="1.1">
<g id="surface1">
<path style=" stroke:none;fill-rule:evenodd;fill:rgb(99.607843%,99.607843%,99.215686%);fill-opacity:1;" d="M -0.0117188 6.597656 C 1.988281 6.597656 3.988281 6.597656 5.988281 6.597656 C 5.988281 8.859375 5.988281 11.117188 5.988281 13.378906 C 3.988281 13.378906 1.988281 13.378906 -0.0117188 13.378906 C -0.0117188 11.117188 -0.0117188 8.859375 -0.0117188 6.597656 Z M -0.0117188 6.597656 "/>
<path style=" stroke:none;fill-rule:evenodd;fill:rgb(32.156863%,47.058824%,54.117647%);fill-opacity:1;" d="M 3.34375 8.480469 C 3.53125 8.574219 3.726562 8.652344 3.925781 8.703125 C 4.222656 8.933594 4.421875 9.242188 4.519531 9.632812 C 4.675781 9.714844 4.816406 9.824219 4.9375 9.964844 C 4.945312 9.992188 4.9375 10.007812 4.90625 10.011719 C 4.839844 10.019531 4.777344 10.042969 4.71875 10.082031 C 4.824219 10.167969 4.921875 10.265625 5.011719 10.375 C 4.925781 10.316406 4.835938 10.261719 4.738281 10.210938 C 4.695312 10.175781 4.65625 10.132812 4.625 10.082031 C 4.617188 10.023438 4.640625 9.988281 4.699219 9.976562 C 4.753906 9.96875 4.808594 9.960938 4.863281 9.953125 C 4.753906 9.835938 4.625 9.753906 4.480469 9.707031 C 4.398438 9.527344 4.320312 9.347656 4.25 9.164062 C 4.097656 8.886719 3.878906 8.726562 3.59375 8.679688 C 3.527344 8.613281 3.449219 8.574219 3.363281 8.566406 C 3.34375 8.589844 3.339844 8.617188 3.355469 8.648438 C 3.390625 8.691406 3.421875 8.742188 3.457031 8.785156 C 3.5 8.945312 3.5625 9.09375 3.636719 9.234375 C 3.585938 9.398438 3.582031 9.5625 3.625 9.730469 C 3.632812 9.761719 3.652344 9.785156 3.675781 9.800781 C 3.695312 9.738281 3.703125 9.675781 3.707031 9.613281 C 3.722656 9.574219 3.742188 9.542969 3.769531 9.519531 C 3.824219 9.65625 3.890625 9.789062 3.96875 9.917969 C 3.964844 9.925781 3.960938 9.933594 3.957031 9.941406 C 3.878906 9.871094 3.820312 9.785156 3.78125 9.683594 C 3.769531 9.746094 3.75 9.804688 3.71875 9.859375 C 3.675781 9.871094 3.644531 9.863281 3.613281 9.824219 C 3.585938 9.761719 3.558594 9.699219 3.542969 9.632812 C 3.53125 9.492188 3.535156 9.351562 3.5625 9.210938 C 3.503906 9.089844 3.453125 8.96875 3.417969 8.835938 C 3.328125 8.753906 3.292969 8.652344 3.3125 8.527344 C 3.328125 8.515625 3.335938 8.5 3.34375 8.480469 Z M 3.34375 8.480469 "/>
<path style=" stroke:none;fill-rule:evenodd;fill:rgb(50.196078%,57.647059%,63.921569%);fill-opacity:1;" d="M 3.636719 8.8125 C 3.710938 8.808594 3.734375 8.847656 3.707031 8.929688 C 3.671875 8.898438 3.648438 8.859375 3.636719 8.8125 Z M 3.636719 8.8125 "/>
<path style=" stroke:none;fill-rule:evenodd;fill:rgb(28.627451%,44.313725%,51.764706%);fill-opacity:1;" d="M 0.96875 11.425781 C 0.917969 11.425781 0.871094 11.425781 0.824219 11.425781 C 0.824219 11.371094 0.824219 11.316406 0.824219 11.257812 C 0.835938 10.953125 0.847656 10.648438 0.863281 10.339844 C 0.941406 10.332031 1.019531 10.339844 1.09375 10.367188 C 1.167969 10.609375 1.242188 10.851562 1.3125 11.09375 C 1.394531 10.851562 1.472656 10.609375 1.550781 10.367188 C 1.621094 10.339844 1.691406 10.332031 1.761719 10.339844 C 1.792969 10.703125 1.8125 11.0625 1.824219 11.425781 C 1.765625 11.425781 1.710938 11.425781 1.65625 11.425781 C 1.664062 11.140625 1.644531 10.855469 1.605469 10.578125 C 1.523438 10.839844 1.449219 11.109375 1.375 11.378906 C 1.328125 11.4375 1.277344 11.4375 1.230469 11.378906 C 1.15625 11.109375 1.082031 10.84375 1 10.578125 C 0.972656 10.859375 0.960938 11.140625 0.96875 11.425781 Z M 0.96875 11.425781 "/>
<path style=" stroke:none;fill-rule:evenodd;fill:rgb(82.352941%,55.686275%,25.882353%);fill-opacity:1;" d="M 2.824219 10.316406 C 2.953125 10.300781 3.070312 10.332031 3.175781 10.410156 C 3.167969 10.445312 3.152344 10.46875 3.125 10.480469 C 3.039062 10.457031 2.953125 10.453125 2.863281 10.472656 C 2.808594 10.523438 2.789062 10.589844 2.8125 10.671875 C 2.917969 10.769531 3.03125 10.851562 3.15625 10.917969 C 3.296875 11.164062 3.242188 11.339844 2.988281 11.433594 C 2.847656 11.476562 2.730469 11.4375 2.636719 11.320312 C 2.640625 11.28125 2.65625 11.261719 2.6875 11.257812 C 2.824219 11.335938 2.949219 11.320312 3.0625 11.214844 C 3.082031 11.113281 3.050781 11.039062 2.96875 10.988281 C 2.886719 10.949219 2.8125 10.902344 2.738281 10.847656 C 2.578125 10.632812 2.605469 10.453125 2.824219 10.316406 Z M 2.824219 10.316406 "/>
<path style=" stroke:none;fill-rule:evenodd;fill:rgb(82.352941%,54.901961%,25.098039%);fill-opacity:1;" d="M 3.574219 10.316406 C 3.707031 10.300781 3.832031 10.328125 3.949219 10.398438 C 3.980469 10.449219 4.011719 10.5 4.042969 10.554688 C 4.074219 10.714844 4.082031 10.878906 4.0625 11.046875 C 4.050781 11.160156 4.011719 11.257812 3.949219 11.339844 C 3.988281 11.394531 4.035156 11.4375 4.09375 11.472656 C 4.074219 11.507812 4.050781 11.539062 4.019531 11.566406 C 3.882812 11.460938 3.722656 11.417969 3.550781 11.433594 C 3.398438 11.363281 3.320312 11.234375 3.3125 11.046875 C 3.285156 10.847656 3.308594 10.65625 3.394531 10.480469 C 3.445312 10.414062 3.507812 10.359375 3.574219 10.316406 Z M 3.574219 10.316406 "/>
<path style=" stroke:none;fill-rule:evenodd;fill:rgb(82.352941%,55.686275%,25.882353%);fill-opacity:1;" d="M 4.386719 11.28125 C 4.480469 11.304688 4.574219 11.3125 4.675781 11.308594 C 4.675781 11.34375 4.675781 11.386719 4.675781 11.425781 C 4.523438 11.425781 4.371094 11.425781 4.21875 11.425781 C 4.21875 11.0625 4.21875 10.703125 4.21875 10.339844 C 4.273438 10.339844 4.332031 10.339844 4.386719 10.339844 C 4.386719 10.65625 4.386719 10.96875 4.386719 11.28125 Z M 4.386719 11.28125 "/>
<path style=" stroke:none;fill-rule:evenodd;fill:rgb(99.607843%,98.823529%,97.647059%);fill-opacity:1;" d="M 3.59375 10.460938 C 3.738281 10.417969 3.839844 10.472656 3.894531 10.625 C 3.910156 10.789062 3.910156 10.953125 3.894531 11.117188 C 3.84375 11.277344 3.742188 11.339844 3.59375 11.296875 C 3.542969 11.238281 3.503906 11.171875 3.480469 11.09375 C 3.464844 10.945312 3.464844 10.796875 3.480469 10.648438 C 3.507812 10.574219 3.542969 10.511719 3.59375 10.460938 Z M 3.59375 10.460938 "/>
<path style=" stroke:none;fill-rule:evenodd;fill:rgb(28.627451%,44.705882%,51.764706%);fill-opacity:1;" d="M 1.90625 10.625 C 1.964844 10.617188 2.019531 10.625 2.074219 10.648438 C 2.128906 10.84375 2.179688 11.039062 2.230469 11.234375 C 2.308594 11.042969 2.351562 10.839844 2.363281 10.625 C 2.414062 10.625 2.460938 10.625 2.511719 10.625 C 2.480469 10.929688 2.398438 11.222656 2.269531 11.496094 C 2.183594 11.660156 2.058594 11.730469 1.886719 11.707031 C 1.886719 11.667969 1.886719 11.628906 1.886719 11.589844 C 2.027344 11.621094 2.105469 11.558594 2.113281 11.402344 C 2.050781 11.140625 1.980469 10.878906 1.90625 10.625 Z M 1.90625 10.625 "/>
<path style=" stroke:none;fill-rule:evenodd;fill:rgb(90.980392%,77.254902%,61.960784%);fill-opacity:1;" d="M 4.386719 11.28125 C 4.488281 11.28125 4.59375 11.28125 4.699219 11.28125 C 4.703125 11.335938 4.695312 11.382812 4.675781 11.425781 C 4.675781 11.386719 4.675781 11.34375 4.675781 11.308594 C 4.574219 11.3125 4.480469 11.304688 4.386719 11.28125 Z M 4.386719 11.28125 "/>
<path style=" stroke:none;fill-rule:evenodd;fill:rgb(94.117647%,85.098039%,75.294118%);fill-opacity:1;" d="M 4.925781 11.308594 C 4.890625 11.332031 4.875 11.371094 4.886719 11.425781 C 4.875 11.382812 4.855469 11.351562 4.824219 11.328125 C 4.808594 11.300781 4.796875 11.300781 4.78125 11.328125 C 4.769531 11.328125 4.761719 11.320312 4.761719 11.308594 C 4.820312 11.277344 4.875 11.277344 4.925781 11.308594 Z M 4.925781 11.308594 "/>
<path style=" stroke:none;fill-rule:evenodd;fill:rgb(87.843137%,69.411765%,48.627451%);fill-opacity:1;" d="M 4.824219 11.328125 C 4.808594 11.457031 4.796875 11.457031 4.78125 11.328125 C 4.796875 11.300781 4.808594 11.300781 4.824219 11.328125 Z M 4.824219 11.328125 "/>
<path style=" stroke:none;fill-rule:evenodd;fill:rgb(87.45098%,68.235294%,46.666667%);fill-opacity:1;" d="M 4.925781 11.308594 C 4.945312 11.332031 4.964844 11.332031 4.988281 11.308594 C 5.011719 11.34375 5.015625 11.382812 5 11.425781 C 4.988281 11.363281 4.96875 11.363281 4.949219 11.425781 C 4.933594 11.410156 4.921875 11.394531 4.917969 11.378906 C 4.910156 11.398438 4.902344 11.414062 4.886719 11.425781 C 4.875 11.371094 4.890625 11.332031 4.925781 11.308594 Z M 4.925781 11.308594 "/>
<path style=" stroke:none;fill-rule:evenodd;fill:rgb(75.686275%,81.176471%,83.137255%);fill-opacity:1;" d="M 0.824219 11.257812 C 0.824219 11.316406 0.824219 11.371094 0.824219 11.425781 C 0.871094 11.425781 0.917969 11.425781 0.96875 11.425781 C 0.917969 11.449219 0.863281 11.457031 0.800781 11.449219 C 0.796875 11.378906 0.800781 11.316406 0.824219 11.257812 Z M 0.824219 11.257812 "/>
</g>
</svg>
