<?xml version="1.0" encoding="UTF-8"?>
<svg xmlns="http://www.w3.org/2000/svg" xmlns:xlink="http://www.w3.org/1999/xlink" width="20px" height="59px" viewBox="0 0 20 20" version="1.1">
<g id="surface1">
<path style=" stroke:none;fill-rule:evenodd;fill:rgb(99.607843%,99.607843%,99.215686%);fill-opacity:1;" d="M -0.0351562 -0.0351562 C 6.632812 -0.0351562 13.296875 -0.0351562 19.964844 -0.0351562 C 19.964844 6.632812 19.964844 13.296875 19.964844 19.964844 C 13.296875 19.964844 6.632812 19.964844 -0.0351562 19.964844 C -0.0351562 13.296875 -0.0351562 6.632812 -0.0351562 -0.0351562 Z M -0.0351562 -0.0351562 "/>
<path style=" stroke:none;fill-rule:evenodd;fill:rgb(32.156863%,47.058824%,54.117647%);fill-opacity:1;" d="M 11.144531 5.519531 C 11.769531 5.796875 12.417969 6.019531 13.089844 6.179688 C 14.078125 6.851562 14.738281 7.765625 15.070312 8.921875 C 15.589844 9.160156 16.054688 9.484375 16.457031 9.894531 C 16.488281 9.972656 16.453125 10.019531 16.355469 10.035156 C 16.128906 10.0625 15.917969 10.128906 15.730469 10.242188 C 16.082031 10.492188 16.40625 10.78125 16.703125 11.109375 C 16.425781 10.9375 16.125 10.773438 15.796875 10.625 C 15.648438 10.519531 15.519531 10.394531 15.417969 10.242188 C 15.386719 10.066406 15.464844 9.960938 15.660156 9.929688 C 15.84375 9.90625 16.03125 9.882812 16.214844 9.859375 C 15.84375 9.519531 15.417969 9.277344 14.929688 9.132812 C 14.65625 8.609375 14.402344 8.078125 14.167969 7.535156 C 13.65625 6.71875 12.929688 6.246094 11.980469 6.109375 C 11.753906 5.914062 11.5 5.796875 11.214844 5.765625 C 11.144531 5.835938 11.132812 5.917969 11.179688 6.007812 C 11.296875 6.144531 11.410156 6.285156 11.527344 6.421875 C 11.671875 6.890625 11.871094 7.332031 12.117188 7.742188 C 11.953125 8.226562 11.941406 8.710938 12.082031 9.203125 C 12.109375 9.300781 12.167969 9.367188 12.257812 9.410156 C 12.3125 9.230469 12.347656 9.042969 12.359375 8.855469 C 12.402344 8.742188 12.472656 8.648438 12.570312 8.578125 C 12.753906 8.988281 12.972656 9.382812 13.230469 9.757812 C 13.21875 9.78125 13.207031 9.804688 13.195312 9.828125 C 12.929688 9.621094 12.734375 9.367188 12.605469 9.0625 C 12.566406 9.253906 12.496094 9.425781 12.394531 9.582031 C 12.257812 9.625 12.144531 9.59375 12.046875 9.480469 C 11.949219 9.300781 11.867188 9.117188 11.804688 8.921875 C 11.765625 8.5 11.789062 8.082031 11.875 7.671875 C 11.675781 7.320312 11.515625 6.953125 11.390625 6.5625 C 11.097656 6.328125 10.980469 6.027344 11.042969 5.660156 C 11.089844 5.621094 11.125 5.574219 11.144531 5.519531 Z M 11.144531 5.519531 "/>
<path style=" stroke:none;fill-rule:evenodd;fill:rgb(50.196078%,57.647059%,63.921569%);fill-opacity:1;" d="M 12.117188 6.492188 C 12.367188 6.488281 12.445312 6.601562 12.359375 6.839844 C 12.234375 6.75 12.15625 6.636719 12.117188 6.492188 Z M 12.117188 6.492188 "/>
<path style=" stroke:none;fill-rule:evenodd;fill:rgb(28.627451%,44.313725%,51.764706%);fill-opacity:1;" d="M 3.230469 14.203125 C 3.066406 14.203125 2.90625 14.203125 2.742188 14.203125 C 2.742188 14.039062 2.742188 13.878906 2.742188 13.714844 C 2.78125 12.8125 2.828125 11.910156 2.882812 11.007812 C 3.140625 10.984375 3.394531 11.007812 3.644531 11.078125 C 3.894531 11.792969 4.140625 12.507812 4.375 13.230469 C 4.648438 12.515625 4.914062 11.800781 5.171875 11.078125 C 5.402344 11.007812 5.632812 10.984375 5.867188 11.007812 C 5.980469 12.070312 6.046875 13.132812 6.078125 14.203125 C 5.890625 14.203125 5.707031 14.203125 5.519531 14.203125 C 5.542969 13.363281 5.484375 12.527344 5.347656 11.703125 C 5.078125 12.480469 4.824219 13.269531 4.582031 14.0625 C 4.421875 14.246094 4.257812 14.246094 4.097656 14.0625 C 3.855469 13.269531 3.601562 12.484375 3.332031 11.703125 C 3.238281 12.53125 3.203125 13.363281 3.230469 14.203125 Z M 3.230469 14.203125 "/>
<path style=" stroke:none;fill-rule:evenodd;fill:rgb(82.352941%,55.686275%,25.882353%);fill-opacity:1;" d="M 9.410156 10.9375 C 9.839844 10.890625 10.234375 10.980469 10.589844 11.214844 C 10.566406 11.3125 10.507812 11.382812 10.417969 11.421875 C 10.128906 11.347656 9.839844 11.335938 9.546875 11.390625 C 9.355469 11.542969 9.296875 11.738281 9.375 11.980469 C 9.726562 12.265625 10.109375 12.507812 10.519531 12.707031 C 10.988281 13.4375 10.804688 13.949219 9.964844 14.234375 C 9.488281 14.359375 9.097656 14.242188 8.785156 13.890625 C 8.796875 13.785156 8.855469 13.726562 8.957031 13.714844 C 9.414062 13.941406 9.832031 13.894531 10.207031 13.578125 C 10.269531 13.285156 10.164062 13.066406 9.894531 12.917969 C 9.628906 12.796875 9.375 12.65625 9.132812 12.5 C 8.597656 11.863281 8.691406 11.339844 9.410156 10.9375 Z M 9.410156 10.9375 "/>
<path style=" stroke:none;fill-rule:evenodd;fill:rgb(82.352941%,54.901961%,25.098039%);fill-opacity:1;" d="M 11.910156 10.9375 C 12.355469 10.886719 12.769531 10.96875 13.160156 11.179688 C 13.273438 11.324219 13.375 11.476562 13.472656 11.632812 C 13.578125 12.113281 13.601562 12.597656 13.542969 13.089844 C 13.496094 13.417969 13.367188 13.707031 13.160156 13.957031 C 13.289062 14.117188 13.453125 14.246094 13.644531 14.339844 C 13.582031 14.449219 13.5 14.539062 13.402344 14.617188 C 12.9375 14.308594 12.414062 14.179688 11.839844 14.234375 C 11.332031 14.027344 11.066406 13.644531 11.042969 13.089844 C 10.945312 12.5 11.035156 11.941406 11.320312 11.421875 C 11.488281 11.21875 11.6875 11.054688 11.910156 10.9375 Z M 11.910156 10.9375 "/>
<path style=" stroke:none;fill-rule:evenodd;fill:rgb(82.352941%,55.686275%,25.882353%);fill-opacity:1;" d="M 14.617188 13.785156 C 14.929688 13.851562 15.253906 13.875 15.589844 13.855469 C 15.589844 13.96875 15.589844 14.085938 15.589844 14.203125 C 15.082031 14.203125 14.570312 14.203125 14.0625 14.203125 C 14.0625 13.136719 14.0625 12.070312 14.0625 11.007812 C 14.246094 11.007812 14.433594 11.007812 14.617188 11.007812 C 14.617188 11.933594 14.617188 12.859375 14.617188 13.785156 Z M 14.617188 13.785156 "/>
<path style=" stroke:none;fill-rule:evenodd;fill:rgb(99.607843%,98.823529%,97.647059%);fill-opacity:1;" d="M 11.980469 11.355469 C 12.460938 11.234375 12.796875 11.394531 12.984375 11.839844 C 13.03125 12.328125 13.03125 12.8125 12.984375 13.296875 C 12.808594 13.773438 12.472656 13.949219 11.980469 13.820312 C 11.808594 13.648438 11.679688 13.453125 11.597656 13.230469 C 11.550781 12.789062 11.550781 12.347656 11.597656 11.910156 C 11.6875 11.695312 11.8125 11.507812 11.980469 11.355469 Z M 11.980469 11.355469 "/>
<path style=" stroke:none;fill-rule:evenodd;fill:rgb(28.627451%,44.705882%,51.764706%);fill-opacity:1;" d="M 6.355469 11.839844 C 6.546875 11.820312 6.730469 11.839844 6.910156 11.910156 C 7.09375 12.484375 7.269531 13.0625 7.429688 13.644531 C 7.691406 13.074219 7.84375 12.472656 7.882812 11.839844 C 8.042969 11.839844 8.207031 11.839844 8.367188 11.839844 C 8.261719 12.746094 7.996094 13.601562 7.570312 14.410156 C 7.285156 14.902344 6.855469 15.109375 6.285156 15.035156 C 6.285156 14.917969 6.285156 14.804688 6.285156 14.6875 C 6.761719 14.785156 7.015625 14.601562 7.046875 14.132812 C 6.835938 13.359375 6.605469 12.597656 6.355469 11.839844 Z M 6.355469 11.839844 "/>
<path style=" stroke:none;fill-rule:evenodd;fill:rgb(90.980392%,77.254902%,61.960784%);fill-opacity:1;" d="M 14.617188 13.785156 C 14.964844 13.785156 15.3125 13.785156 15.660156 13.785156 C 15.679688 13.941406 15.65625 14.078125 15.589844 14.203125 C 15.589844 14.085938 15.589844 13.96875 15.589844 13.855469 C 15.253906 13.875 14.929688 13.851562 14.617188 13.785156 Z M 14.617188 13.785156 "/>
<path style=" stroke:none;fill-rule:evenodd;fill:rgb(94.117647%,85.098039%,75.294118%);fill-opacity:1;" d="M 16.421875 13.855469 C 16.300781 13.925781 16.253906 14.042969 16.285156 14.203125 C 16.25 14.082031 16.179688 13.988281 16.078125 13.921875 C 16.03125 13.832031 15.984375 13.832031 15.9375 13.921875 C 15.898438 13.917969 15.875 13.894531 15.867188 13.855469 C 16.0625 13.765625 16.25 13.765625 16.421875 13.855469 Z M 16.421875 13.855469 "/>
<path style=" stroke:none;fill-rule:evenodd;fill:rgb(87.843137%,69.411765%,48.627451%);fill-opacity:1;" d="M 16.078125 13.921875 C 16.03125 14.292969 15.984375 14.292969 15.9375 13.921875 C 15.984375 13.832031 16.03125 13.832031 16.078125 13.921875 Z M 16.078125 13.921875 "/>
<path style=" stroke:none;fill-rule:evenodd;fill:rgb(87.45098%,68.235294%,46.666667%);fill-opacity:1;" d="M 16.421875 13.855469 C 16.480469 13.933594 16.550781 13.933594 16.632812 13.855469 C 16.710938 13.964844 16.722656 14.078125 16.667969 14.203125 C 16.625 14.027344 16.566406 14.027344 16.492188 14.203125 C 16.445312 14.164062 16.410156 14.117188 16.390625 14.0625 C 16.371094 14.125 16.335938 14.171875 16.285156 14.203125 C 16.253906 14.042969 16.300781 13.925781 16.421875 13.855469 Z M 16.421875 13.855469 "/>
<path style=" stroke:none;fill-rule:evenodd;fill:rgb(75.686275%,81.176471%,83.137255%);fill-opacity:1;" d="M 2.742188 13.714844 C 2.742188 13.878906 2.742188 14.039062 2.742188 14.203125 C 2.90625 14.203125 3.066406 14.203125 3.230469 14.203125 C 3.058594 14.269531 2.875 14.292969 2.671875 14.269531 C 2.652344 14.070312 2.675781 13.886719 2.742188 13.714844 Z M 2.742188 13.714844 "/>
</g>
</svg>
