<?xml version="1.0" encoding="UTF-8"?>
<svg xmlns="http://www.w3.org/2000/svg" xmlns:xlink="http://www.w3.org/1999/xlink" width="20px" height="59px" viewBox="0 0 20 11" version="1.1">
<g id="surface1">
<path style=" stroke:none;fill-rule:evenodd;fill:rgb(99.607843%,99.607843%,99.607843%);fill-opacity:1;" d="M -0.0351562 -0.03125 C 6.632812 -0.03125 13.300781 -0.03125 19.964844 -0.03125 C 19.964844 3.632812 19.964844 7.300781 19.964844 10.96875 C 13.300781 10.96875 6.632812 10.96875 -0.0351562 10.96875 C -0.0351562 7.300781 -0.0351562 3.632812 -0.0351562 -0.03125 Z M -0.0351562 -0.03125 "/>
<path style=" stroke:none;fill-rule:evenodd;fill:rgb(87.058824%,62.745098%,7.058824%);fill-opacity:1;" d="M 4.21875 2.996094 C 4.230469 3.742188 4.21875 4.492188 4.1875 5.238281 C 4.136719 5.398438 4.050781 5.464844 3.921875 5.433594 C 3.824219 5.5625 3.710938 5.605469 3.589844 5.566406 C 3.542969 5.742188 3.5 5.742188 3.457031 5.566406 C 3.425781 5.597656 3.394531 5.617188 3.355469 5.632812 C 3.308594 5.582031 3.265625 5.539062 3.222656 5.5 C 3.242188 5.078125 3.21875 4.660156 3.15625 4.25 C 2.9375 4.183594 2.71875 4.160156 2.492188 4.183594 C 2.480469 3.785156 2.492188 3.390625 2.523438 2.996094 C 2.558594 2.964844 2.589844 2.929688 2.625 2.898438 C 3.113281 2.855469 3.597656 2.855469 4.085938 2.898438 C 4.148438 2.917969 4.191406 2.949219 4.21875 2.996094 Z M 4.21875 2.996094 "/>
<path style=" stroke:none;fill-rule:evenodd;fill:rgb(9.019608%,9.019608%,9.019608%);fill-opacity:1;" d="M 6.277344 4.378906 C 6.632812 4.371094 6.988281 4.378906 7.34375 4.414062 C 7.761719 4.597656 7.929688 4.917969 7.839844 5.367188 C 7.5625 5.828125 7.15625 6.003906 6.609375 5.894531 C 6.609375 6.222656 6.609375 6.554688 6.609375 6.882812 C 6.5 6.882812 6.390625 6.882812 6.277344 6.882812 C 6.277344 6.050781 6.277344 5.214844 6.277344 4.378906 Z M 6.277344 4.378906 "/>
<path style=" stroke:none;fill-rule:evenodd;fill:rgb(3.137255%,3.137255%,3.137255%);fill-opacity:1;" d="M 17.175781 4.378906 C 17.507812 4.371094 17.839844 4.378906 18.171875 4.414062 C 18.53125 4.546875 18.65625 4.796875 18.539062 5.171875 C 18.460938 5.335938 18.339844 5.457031 18.171875 5.53125 C 18.671875 5.71875 18.816406 6.058594 18.605469 6.554688 C 18.523438 6.65625 18.425781 6.734375 18.304688 6.785156 C 17.933594 6.875 17.558594 6.90625 17.175781 6.882812 C 17.175781 6.050781 17.175781 5.214844 17.175781 4.378906 Z M 17.175781 4.378906 "/>
<path style=" stroke:none;fill-rule:evenodd;fill:rgb(0%,0%,0%);fill-opacity:1;" d="M 19.234375 4.378906 C 19.324219 4.378906 19.414062 4.378906 19.5 4.378906 C 19.5 5.214844 19.5 6.050781 19.5 6.882812 C 19.414062 6.882812 19.324219 6.882812 19.234375 6.882812 C 19.234375 6.050781 19.234375 5.214844 19.234375 4.378906 Z M 19.234375 4.378906 "/>
<path style=" stroke:none;fill-rule:evenodd;fill:rgb(96.862745%,96.862745%,96.862745%);fill-opacity:1;" d="M 6.609375 4.644531 C 7.421875 4.492188 7.691406 4.789062 7.410156 5.53125 C 7.164062 5.671875 6.894531 5.726562 6.609375 5.699219 C 6.609375 5.347656 6.609375 4.996094 6.609375 4.644531 Z M 6.609375 4.644531 "/>
<path style=" stroke:none;fill-rule:evenodd;fill:rgb(97.254902%,97.254902%,97.254902%);fill-opacity:1;" d="M 17.441406 4.644531 C 17.664062 4.632812 17.886719 4.644531 18.105469 4.675781 C 18.382812 4.9375 18.359375 5.179688 18.039062 5.402344 C 17.839844 5.433594 17.640625 5.445312 17.441406 5.433594 C 17.441406 5.171875 17.441406 4.90625 17.441406 4.644531 Z M 17.441406 4.644531 "/>
<path style=" stroke:none;fill-rule:evenodd;fill:rgb(94.117647%,78.039216%,22.352941%);fill-opacity:1;" d="M 2.492188 4.183594 C 2.71875 4.160156 2.9375 4.183594 3.15625 4.25 C 3.21875 4.660156 3.242188 5.078125 3.222656 5.5 C 3.222656 5.523438 3.222656 5.542969 3.222656 5.566406 C 3.171875 5.714844 3.117188 5.867188 3.054688 6.027344 C 2.945312 6.027344 2.835938 6.027344 2.722656 6.027344 C 2.578125 6.253906 2.390625 6.363281 2.160156 6.355469 C 2.179688 6.078125 2.160156 5.816406 2.09375 5.566406 C 2.085938 5.523438 2.0625 5.492188 2.027344 5.46875 C 1.828125 5.433594 1.628906 5.421875 1.429688 5.433594 C 1.410156 5.035156 1.429688 4.640625 1.496094 4.25 C 1.824219 4.183594 2.15625 4.160156 2.492188 4.183594 Z M 2.492188 4.183594 "/>
<path style=" stroke:none;fill-rule:evenodd;fill:rgb(5.098039%,5.098039%,5.098039%);fill-opacity:1;" d="M 8.671875 5.039062 C 9.582031 5.019531 9.949219 5.460938 9.765625 6.355469 C 9.695312 6.582031 9.550781 6.746094 9.335938 6.851562 C 8.355469 7.019531 7.945312 6.613281 8.105469 5.632812 C 8.21875 5.355469 8.40625 5.160156 8.671875 5.039062 Z M 8.671875 5.039062 "/>
<path style=" stroke:none;fill-rule:evenodd;fill:rgb(6.27451%,6.27451%,6.27451%);fill-opacity:1;" d="M 10.066406 5.171875 C 10.160156 5.109375 10.269531 5.085938 10.398438 5.105469 C 10.480469 5.597656 10.601562 6.082031 10.765625 6.554688 C 10.902344 6.089844 11.046875 5.628906 11.195312 5.171875 C 11.296875 5.109375 11.410156 5.085938 11.527344 5.105469 C 11.628906 5.589844 11.75 6.074219 11.894531 6.554688 C 12.035156 6.074219 12.160156 5.589844 12.257812 5.105469 C 12.371094 5.09375 12.484375 5.105469 12.589844 5.136719 C 12.378906 5.710938 12.203125 6.289062 12.058594 6.882812 C 11.949219 6.882812 11.839844 6.882812 11.726562 6.882812 C 11.625 6.414062 11.492188 5.953125 11.328125 5.5 C 11.164062 5.933594 11.019531 6.371094 10.898438 6.816406 C 10.796875 6.898438 10.699219 6.898438 10.597656 6.816406 C 10.429688 6.257812 10.253906 5.710938 10.066406 5.171875 Z M 10.066406 5.171875 "/>
<path style=" stroke:none;fill-rule:evenodd;fill:rgb(5.882353%,5.882353%,5.882353%);fill-opacity:1;" d="M 13.457031 5.039062 C 14.128906 5.023438 14.4375 5.355469 14.386719 6.027344 C 13.964844 6.027344 13.542969 6.027344 13.121094 6.027344 C 13.089844 6.457031 13.289062 6.675781 13.722656 6.6875 C 13.890625 6.6875 14.046875 6.644531 14.1875 6.554688 C 14.246094 6.632812 14.269531 6.71875 14.253906 6.816406 C 13.140625 7.128906 12.683594 6.714844 12.890625 5.566406 C 13.03125 5.328125 13.21875 5.152344 13.457031 5.039062 Z M 13.457031 5.039062 "/>
<path style=" stroke:none;fill-rule:evenodd;fill:rgb(1.568627%,1.568627%,1.568627%);fill-opacity:1;" d="M 15.515625 5.039062 C 15.605469 5.039062 15.691406 5.039062 15.78125 5.039062 C 15.792969 5.152344 15.78125 5.261719 15.746094 5.367188 C 15.429688 5.242188 15.230469 5.351562 15.148438 5.699219 C 15.117188 6.09375 15.105469 6.488281 15.117188 6.882812 C 15.027344 6.882812 14.9375 6.882812 14.851562 6.882812 C 14.851562 6.289062 14.851562 5.699219 14.851562 5.105469 C 14.9375 5.105469 15.027344 5.105469 15.117188 5.105469 C 15.105469 5.214844 15.117188 5.328125 15.148438 5.433594 C 15.238281 5.269531 15.363281 5.136719 15.515625 5.039062 Z M 15.515625 5.039062 "/>
<path style=" stroke:none;fill-rule:evenodd;fill:rgb(97.254902%,97.254902%,97.254902%);fill-opacity:1;" d="M 8.671875 5.300781 C 9.4375 5.257812 9.710938 5.605469 9.5 6.355469 C 9.308594 6.664062 9.03125 6.761719 8.671875 6.652344 C 8.363281 6.402344 8.261719 6.085938 8.371094 5.699219 C 8.425781 5.523438 8.523438 5.390625 8.671875 5.300781 Z M 8.671875 5.300781 "/>
<path style=" stroke:none;fill-rule:evenodd;fill:rgb(94.901961%,94.901961%,94.901961%);fill-opacity:1;" d="M 13.390625 5.300781 C 13.84375 5.207031 14.085938 5.382812 14.121094 5.828125 C 13.789062 5.828125 13.457031 5.828125 13.121094 5.828125 C 13.140625 5.617188 13.230469 5.441406 13.390625 5.300781 Z M 13.390625 5.300781 "/>
<path style=" stroke:none;fill-rule:evenodd;fill:rgb(96.862745%,87.45098%,47.45098%);fill-opacity:1;" d="M 1.429688 5.433594 C 1.628906 5.421875 1.828125 5.433594 2.027344 5.46875 C 2.0625 5.492188 2.085938 5.523438 2.09375 5.566406 C 2.117188 5.734375 2.082031 5.890625 1.992188 6.027344 C 1.871094 5.9375 1.835938 5.949219 1.894531 6.058594 C 1.382812 6.191406 0.929688 6.375 0.53125 6.621094 C 0.507812 6.597656 0.488281 6.574219 0.464844 6.554688 C 0.453125 6.808594 0.421875 7.050781 0.367188 7.277344 C 0.355469 6.707031 0.367188 6.136719 0.398438 5.566406 C 0.433594 5.53125 0.464844 5.5 0.5 5.46875 C 0.808594 5.433594 1.117188 5.421875 1.429688 5.433594 Z M 1.429688 5.433594 "/>
<path style=" stroke:none;fill-rule:evenodd;fill:rgb(96.470588%,96.470588%,96.470588%);fill-opacity:1;" d="M 17.441406 5.699219 C 17.664062 5.6875 17.886719 5.699219 18.105469 5.730469 C 18.550781 6.015625 18.550781 6.300781 18.105469 6.585938 C 17.886719 6.621094 17.664062 6.628906 17.441406 6.621094 C 17.441406 6.3125 17.441406 6.003906 17.441406 5.699219 Z M 17.441406 5.699219 "/>
<path style=" stroke:none;fill-rule:evenodd;fill:rgb(96.470588%,85.490196%,37.647059%);fill-opacity:1;" d="M 2.09375 5.566406 C 2.160156 5.816406 2.179688 6.078125 2.160156 6.355469 C 2.160156 6.90625 2.160156 7.453125 2.160156 8.003906 C 1.582031 8.023438 1.007812 8.003906 0.433594 7.9375 C 0.371094 7.722656 0.347656 7.503906 0.367188 7.277344 C 0.421875 7.050781 0.453125 6.808594 0.464844 6.554688 C 0.488281 6.574219 0.507812 6.597656 0.53125 6.621094 C 0.929688 6.375 1.382812 6.191406 1.894531 6.058594 C 1.835938 5.949219 1.871094 5.9375 1.992188 6.027344 C 2.082031 5.890625 2.117188 5.734375 2.09375 5.566406 Z M 2.09375 5.566406 "/>
<path style=" stroke:none;fill-rule:evenodd;fill:rgb(91.372549%,70.588235%,11.372549%);fill-opacity:1;" d="M 3.222656 5.566406 C 3.222656 6.378906 3.222656 7.191406 3.222656 8.003906 C 2.867188 8.003906 2.515625 8.003906 2.160156 8.003906 C 2.160156 7.453125 2.160156 6.90625 2.160156 6.355469 C 2.390625 6.363281 2.578125 6.253906 2.722656 6.027344 C 2.835938 6.027344 2.945312 6.027344 3.054688 6.027344 C 3.117188 5.867188 3.171875 5.714844 3.222656 5.566406 Z M 3.222656 5.566406 "/>
<path style=" stroke:none;fill-rule:evenodd;fill:rgb(81.176471%,54.117647%,10.980392%);fill-opacity:1;" d="M 4.21875 2.996094 C 4.296875 4.609375 4.308594 6.234375 4.253906 7.871094 C 4.21875 7.902344 4.1875 7.9375 4.152344 7.96875 C 3.84375 8.003906 3.535156 8.015625 3.222656 8.003906 C 3.222656 7.191406 3.222656 6.378906 3.222656 5.566406 C 3.222656 5.542969 3.222656 5.523438 3.222656 5.5 C 3.265625 5.539062 3.308594 5.582031 3.355469 5.632812 C 3.394531 5.617188 3.425781 5.597656 3.457031 5.566406 C 3.5 5.742188 3.542969 5.742188 3.589844 5.566406 C 3.710938 5.605469 3.824219 5.5625 3.921875 5.433594 C 4.050781 5.464844 4.136719 5.398438 4.1875 5.238281 C 4.21875 4.492188 4.230469 3.742188 4.21875 2.996094 Z M 4.21875 2.996094 "/>
</g>
</svg>
