<?xml version="1.0" encoding="UTF-8"?>
<svg xmlns="http://www.w3.org/2000/svg" xmlns:xlink="http://www.w3.org/1999/xlink" width="59px" height="20px" viewBox="0 0 6 20" version="1.1">
<g id="surface1">
<path style=" stroke:none;fill-rule:evenodd;fill:rgb(99.607843%,99.607843%,99.607843%);fill-opacity:1;" d="M -0.0117188 8.125 C 1.988281 8.125 3.988281 8.125 5.988281 8.125 C 5.988281 9.367188 5.988281 10.609375 5.988281 11.855469 C 3.988281 11.855469 1.988281 11.855469 -0.0117188 11.855469 C -0.0117188 10.609375 -0.0117188 9.367188 -0.0117188 8.125 Z M -0.0117188 8.125 "/>
<path style=" stroke:none;fill-rule:evenodd;fill:rgb(87.058824%,62.745098%,7.058824%);fill-opacity:1;" d="M 1.265625 9.152344 C 1.269531 9.402344 1.265625 9.660156 1.257812 9.910156 C 1.242188 9.964844 1.214844 9.988281 1.175781 9.976562 C 1.148438 10.019531 1.113281 10.035156 1.078125 10.023438 C 1.0625 10.082031 1.050781 10.082031 1.035156 10.023438 C 1.027344 10.03125 1.019531 10.039062 1.007812 10.046875 C 0.992188 10.027344 0.980469 10.011719 0.964844 10 C 0.972656 9.855469 0.964844 9.714844 0.945312 9.578125 C 0.882812 9.554688 0.816406 9.546875 0.746094 9.554688 C 0.746094 9.417969 0.746094 9.285156 0.757812 9.152344 C 0.769531 9.140625 0.777344 9.128906 0.789062 9.117188 C 0.933594 9.105469 1.078125 9.105469 1.226562 9.117188 C 1.246094 9.125 1.257812 9.136719 1.265625 9.152344 Z M 1.265625 9.152344 "/>
<path style=" stroke:none;fill-rule:evenodd;fill:rgb(9.019608%,9.019608%,9.019608%);fill-opacity:1;" d="M 1.882812 9.621094 C 1.988281 9.617188 2.097656 9.621094 2.203125 9.632812 C 2.328125 9.695312 2.378906 9.800781 2.351562 9.953125 C 2.269531 10.109375 2.148438 10.171875 1.984375 10.132812 C 1.984375 10.246094 1.984375 10.359375 1.984375 10.46875 C 1.949219 10.46875 1.917969 10.46875 1.882812 10.46875 C 1.882812 10.1875 1.882812 9.902344 1.882812 9.621094 Z M 1.882812 9.621094 "/>
<path style=" stroke:none;fill-rule:evenodd;fill:rgb(3.137255%,3.137255%,3.137255%);fill-opacity:1;" d="M 5.152344 9.621094 C 5.253906 9.617188 5.351562 9.621094 5.453125 9.632812 C 5.558594 9.675781 5.597656 9.761719 5.5625 9.890625 C 5.539062 9.945312 5.503906 9.984375 5.453125 10.011719 C 5.601562 10.074219 5.644531 10.1875 5.582031 10.359375 C 5.558594 10.390625 5.527344 10.417969 5.492188 10.4375 C 5.378906 10.464844 5.269531 10.476562 5.152344 10.46875 C 5.152344 10.1875 5.152344 9.902344 5.152344 9.621094 Z M 5.152344 9.621094 "/>
<path style=" stroke:none;fill-rule:evenodd;fill:rgb(0%,0%,0%);fill-opacity:1;" d="M 5.769531 9.621094 C 5.796875 9.621094 5.824219 9.621094 5.851562 9.621094 C 5.851562 9.902344 5.851562 10.1875 5.851562 10.46875 C 5.824219 10.46875 5.796875 10.46875 5.769531 10.46875 C 5.769531 10.1875 5.769531 9.902344 5.769531 9.621094 Z M 5.769531 9.621094 "/>
<path style=" stroke:none;fill-rule:evenodd;fill:rgb(96.862745%,96.862745%,96.862745%);fill-opacity:1;" d="M 1.984375 9.710938 C 2.226562 9.660156 2.308594 9.757812 2.222656 10.011719 C 2.148438 10.058594 2.066406 10.078125 1.984375 10.066406 C 1.984375 9.949219 1.984375 9.828125 1.984375 9.710938 Z M 1.984375 9.710938 "/>
<path style=" stroke:none;fill-rule:evenodd;fill:rgb(97.254902%,97.254902%,97.254902%);fill-opacity:1;" d="M 5.230469 9.710938 C 5.300781 9.707031 5.367188 9.710938 5.433594 9.71875 C 5.515625 9.808594 5.507812 9.890625 5.410156 9.96875 C 5.351562 9.976562 5.292969 9.980469 5.230469 9.976562 C 5.230469 9.890625 5.230469 9.796875 5.230469 9.710938 Z M 5.230469 9.710938 "/>
<path style=" stroke:none;fill-rule:evenodd;fill:rgb(94.117647%,78.039216%,22.352941%);fill-opacity:1;" d="M 0.746094 9.554688 C 0.816406 9.546875 0.882812 9.554688 0.945312 9.578125 C 0.964844 9.714844 0.972656 9.855469 0.964844 10 C 0.964844 10.007812 0.964844 10.015625 0.964844 10.023438 C 0.953125 10.074219 0.933594 10.125 0.917969 10.179688 C 0.882812 10.179688 0.851562 10.179688 0.816406 10.179688 C 0.773438 10.253906 0.71875 10.292969 0.648438 10.289062 C 0.652344 10.195312 0.648438 10.105469 0.628906 10.023438 C 0.625 10.007812 0.617188 9.996094 0.609375 9.988281 C 0.546875 9.976562 0.488281 9.972656 0.429688 9.976562 C 0.421875 9.84375 0.429688 9.707031 0.449219 9.578125 C 0.546875 9.554688 0.648438 9.546875 0.746094 9.554688 Z M 0.746094 9.554688 "/>
<path style=" stroke:none;fill-rule:evenodd;fill:rgb(5.098039%,5.098039%,5.098039%);fill-opacity:1;" d="M 2.601562 9.84375 C 2.875 9.835938 2.984375 9.988281 2.929688 10.289062 C 2.910156 10.367188 2.863281 10.421875 2.800781 10.457031 C 2.507812 10.515625 2.382812 10.378906 2.433594 10.046875 C 2.464844 9.949219 2.523438 9.886719 2.601562 9.84375 Z M 2.601562 9.84375 "/>
<path style=" stroke:none;fill-rule:evenodd;fill:rgb(6.27451%,6.27451%,6.27451%);fill-opacity:1;" d="M 3.019531 9.890625 C 3.046875 9.867188 3.082031 9.859375 3.121094 9.867188 C 3.144531 10.03125 3.179688 10.199219 3.230469 10.359375 C 3.269531 10.199219 3.3125 10.042969 3.359375 9.890625 C 3.390625 9.867188 3.421875 9.859375 3.457031 9.867188 C 3.488281 10.03125 3.523438 10.195312 3.566406 10.359375 C 3.609375 10.195312 3.648438 10.03125 3.675781 9.867188 C 3.710938 9.863281 3.746094 9.867188 3.777344 9.875 C 3.714844 10.070312 3.660156 10.265625 3.617188 10.46875 C 3.585938 10.46875 3.550781 10.46875 3.519531 10.46875 C 3.488281 10.308594 3.449219 10.152344 3.398438 10 C 3.347656 10.148438 3.304688 10.296875 3.269531 10.445312 C 3.238281 10.472656 3.210938 10.472656 3.179688 10.445312 C 3.128906 10.257812 3.074219 10.070312 3.019531 9.890625 Z M 3.019531 9.890625 "/>
<path style=" stroke:none;fill-rule:evenodd;fill:rgb(5.882353%,5.882353%,5.882353%);fill-opacity:1;" d="M 4.035156 9.84375 C 4.238281 9.839844 4.332031 9.949219 4.316406 10.179688 C 4.191406 10.179688 4.0625 10.179688 3.9375 10.179688 C 3.925781 10.324219 3.988281 10.398438 4.117188 10.402344 C 4.167969 10.402344 4.214844 10.386719 4.257812 10.359375 C 4.273438 10.382812 4.28125 10.414062 4.277344 10.445312 C 3.941406 10.550781 3.804688 10.410156 3.867188 10.023438 C 3.910156 9.941406 3.964844 9.882812 4.035156 9.84375 Z M 4.035156 9.84375 "/>
<path style=" stroke:none;fill-rule:evenodd;fill:rgb(1.568627%,1.568627%,1.568627%);fill-opacity:1;" d="M 4.65625 9.84375 C 4.683594 9.84375 4.707031 9.84375 4.734375 9.84375 C 4.738281 9.882812 4.734375 9.917969 4.722656 9.953125 C 4.628906 9.914062 4.570312 9.949219 4.542969 10.066406 C 4.535156 10.203125 4.53125 10.335938 4.535156 10.46875 C 4.507812 10.46875 4.480469 10.46875 4.457031 10.46875 C 4.457031 10.265625 4.457031 10.066406 4.457031 9.867188 C 4.480469 9.867188 4.507812 9.867188 4.535156 9.867188 C 4.53125 9.902344 4.535156 9.941406 4.542969 9.976562 C 4.570312 9.921875 4.609375 9.875 4.65625 9.84375 Z M 4.65625 9.84375 "/>
<path style=" stroke:none;fill-rule:evenodd;fill:rgb(97.254902%,97.254902%,97.254902%);fill-opacity:1;" d="M 2.601562 9.933594 C 2.832031 9.917969 2.914062 10.035156 2.851562 10.289062 C 2.792969 10.394531 2.710938 10.425781 2.601562 10.390625 C 2.507812 10.304688 2.480469 10.199219 2.511719 10.066406 C 2.527344 10.007812 2.558594 9.964844 2.601562 9.933594 Z M 2.601562 9.933594 "/>
<path style=" stroke:none;fill-rule:evenodd;fill:rgb(94.901961%,94.901961%,94.901961%);fill-opacity:1;" d="M 4.015625 9.933594 C 4.152344 9.902344 4.226562 9.960938 4.238281 10.109375 C 4.136719 10.109375 4.035156 10.109375 3.9375 10.109375 C 3.941406 10.039062 3.96875 9.980469 4.015625 9.933594 Z M 4.015625 9.933594 "/>
<path style=" stroke:none;fill-rule:evenodd;fill:rgb(96.862745%,87.45098%,47.45098%);fill-opacity:1;" d="M 0.429688 9.976562 C 0.488281 9.972656 0.546875 9.976562 0.609375 9.988281 C 0.617188 9.996094 0.625 10.007812 0.628906 10.023438 C 0.636719 10.078125 0.625 10.132812 0.597656 10.179688 C 0.5625 10.148438 0.550781 10.152344 0.566406 10.1875 C 0.414062 10.234375 0.277344 10.296875 0.160156 10.378906 C 0.152344 10.371094 0.144531 10.363281 0.140625 10.359375 C 0.136719 10.445312 0.125 10.527344 0.109375 10.601562 C 0.105469 10.410156 0.109375 10.214844 0.121094 10.023438 C 0.128906 10.011719 0.140625 10 0.148438 9.988281 C 0.242188 9.976562 0.335938 9.972656 0.429688 9.976562 Z M 0.429688 9.976562 "/>
<path style=" stroke:none;fill-rule:evenodd;fill:rgb(96.470588%,96.470588%,96.470588%);fill-opacity:1;" d="M 5.230469 10.066406 C 5.300781 10.0625 5.367188 10.066406 5.433594 10.078125 C 5.566406 10.175781 5.566406 10.269531 5.433594 10.367188 C 5.367188 10.378906 5.300781 10.382812 5.230469 10.378906 C 5.230469 10.277344 5.230469 10.171875 5.230469 10.066406 Z M 5.230469 10.066406 "/>
<path style=" stroke:none;fill-rule:evenodd;fill:rgb(96.470588%,85.490196%,37.647059%);fill-opacity:1;" d="M 0.628906 10.023438 C 0.648438 10.105469 0.652344 10.195312 0.648438 10.289062 C 0.648438 10.476562 0.648438 10.660156 0.648438 10.847656 C 0.472656 10.855469 0.300781 10.847656 0.128906 10.828125 C 0.113281 10.753906 0.105469 10.679688 0.109375 10.601562 C 0.125 10.527344 0.136719 10.445312 0.140625 10.359375 C 0.144531 10.363281 0.152344 10.371094 0.160156 10.378906 C 0.277344 10.296875 0.414062 10.234375 0.566406 10.1875 C 0.550781 10.152344 0.5625 10.148438 0.597656 10.179688 C 0.625 10.132812 0.636719 10.078125 0.628906 10.023438 Z M 0.628906 10.023438 "/>
<path style=" stroke:none;fill-rule:evenodd;fill:rgb(91.372549%,70.588235%,11.372549%);fill-opacity:1;" d="M 0.964844 10.023438 C 0.964844 10.296875 0.964844 10.574219 0.964844 10.847656 C 0.859375 10.847656 0.753906 10.847656 0.648438 10.847656 C 0.648438 10.660156 0.648438 10.476562 0.648438 10.289062 C 0.71875 10.292969 0.773438 10.253906 0.816406 10.179688 C 0.851562 10.179688 0.882812 10.179688 0.917969 10.179688 C 0.933594 10.125 0.953125 10.074219 0.964844 10.023438 Z M 0.964844 10.023438 "/>
<path style=" stroke:none;fill-rule:evenodd;fill:rgb(81.176471%,54.117647%,10.980392%);fill-opacity:1;" d="M 1.265625 9.152344 C 1.289062 9.699219 1.292969 10.25 1.277344 10.804688 C 1.265625 10.8125 1.257812 10.828125 1.246094 10.835938 C 1.152344 10.847656 1.058594 10.851562 0.964844 10.847656 C 0.964844 10.574219 0.964844 10.296875 0.964844 10.023438 C 0.964844 10.015625 0.964844 10.007812 0.964844 10 C 0.980469 10.011719 0.992188 10.027344 1.007812 10.046875 C 1.019531 10.039062 1.027344 10.03125 1.035156 10.023438 C 1.050781 10.082031 1.0625 10.082031 1.078125 10.023438 C 1.113281 10.035156 1.148438 10.019531 1.175781 9.976562 C 1.214844 9.988281 1.242188 9.964844 1.257812 9.910156 C 1.265625 9.660156 1.269531 9.402344 1.265625 9.152344 Z M 1.265625 9.152344 "/>
</g>
</svg>
