<?xml version="1.0" encoding="UTF-8"?>
<svg xmlns="http://www.w3.org/2000/svg" xmlns:xlink="http://www.w3.org/1999/xlink" width="59px" height="20px" viewBox="0 0 6 20" version="1.1">
<g id="surface1">
<path style=" stroke:none;fill-rule:evenodd;fill:rgb(99.215686%,99.607843%,99.607843%);fill-opacity:1;" d="M -0.0078125 8.804688 C 0.296875 8.804688 0.605469 8.804688 0.910156 8.804688 C 0.410156 8.929688 0.101562 9.273438 -0.0078125 9.839844 C -0.0078125 9.496094 -0.0078125 9.148438 -0.0078125 8.804688 Z M -0.0078125 8.804688 "/>
<path style=" stroke:none;fill-rule:evenodd;fill:rgb(99.607843%,99.607843%,99.607843%);fill-opacity:1;" d="M 1.164062 8.804688 C 2.773438 8.804688 4.382812 8.804688 5.992188 8.804688 C 5.992188 9.597656 5.992188 10.386719 5.992188 11.175781 C 4.382812 11.175781 2.773438 11.175781 1.164062 11.175781 C 1.613281 11.089844 1.914062 10.796875 2.058594 10.304688 C 2.167969 9.667969 1.972656 9.203125 1.464844 8.902344 C 1.363281 8.863281 1.261719 8.828125 1.164062 8.804688 Z M 1.164062 8.804688 "/>
<path style=" stroke:none;fill-rule:evenodd;fill:rgb(45.882353%,66.666667%,85.882353%);fill-opacity:1;" d="M 0.910156 8.804688 C 0.996094 8.804688 1.078125 8.804688 1.164062 8.804688 C 1.261719 8.828125 1.363281 8.863281 1.464844 8.902344 C 1.972656 9.203125 2.167969 9.667969 2.058594 10.304688 C 1.914062 10.796875 1.613281 11.089844 1.164062 11.175781 C 1.078125 11.175781 0.996094 11.175781 0.910156 11.175781 C 0.394531 11.046875 0.0898438 10.691406 -0.0078125 10.105469 C -0.0078125 10.015625 -0.0078125 9.929688 -0.0078125 9.839844 C 0.101562 9.273438 0.410156 8.929688 0.910156 8.804688 Z M 0.910156 8.804688 "/>
<path style=" stroke:none;fill-rule:evenodd;fill:rgb(98.039216%,98.823529%,99.215686%);fill-opacity:1;" d="M 0.910156 9.984375 C 0.894531 10.109375 0.890625 10.242188 0.894531 10.375 C 0.945312 10.375 1 10.375 1.050781 10.375 C 1.050781 10.402344 1.050781 10.433594 1.050781 10.464844 C 0.925781 10.464844 0.800781 10.464844 0.671875 10.464844 C 0.671875 10.433594 0.671875 10.402344 0.671875 10.375 C 0.714844 10.375 0.757812 10.375 0.800781 10.375 C 0.800781 10.089844 0.800781 9.804688 0.800781 9.519531 C 0.757812 9.507812 0.714844 9.503906 0.671875 9.5 C 0.667969 9.460938 0.675781 9.425781 0.6875 9.394531 C 0.839844 9.40625 0.992188 9.410156 1.148438 9.402344 C 1.355469 9.46875 1.417969 9.613281 1.332031 9.839844 C 1.285156 9.902344 1.230469 9.949219 1.164062 9.972656 C 1.246094 10.097656 1.324219 10.222656 1.394531 10.355469 C 1.429688 10.375 1.472656 10.378906 1.511719 10.375 C 1.511719 10.402344 1.511719 10.433594 1.511719 10.464844 C 1.453125 10.46875 1.394531 10.464844 1.339844 10.457031 C 1.246094 10.296875 1.152344 10.144531 1.050781 9.992188 C 1.003906 9.984375 0.957031 9.980469 0.910156 9.984375 Z M 0.910156 9.984375 "/>
<path style=" stroke:none;fill-rule:evenodd;fill:rgb(30.196078%,30.196078%,30.196078%);fill-opacity:1;" d="M 4.710938 9.394531 C 4.753906 9.394531 4.792969 9.394531 4.835938 9.394531 C 4.835938 9.761719 4.835938 10.132812 4.835938 10.5 C 4.800781 10.5 4.761719 10.5 4.726562 10.5 C 4.730469 10.457031 4.726562 10.414062 4.71875 10.375 C 4.6875 10.4375 4.644531 10.484375 4.582031 10.507812 C 4.335938 10.542969 4.207031 10.417969 4.203125 10.132812 C 4.207031 9.859375 4.328125 9.730469 4.566406 9.742188 C 4.625 9.753906 4.667969 9.785156 4.703125 9.839844 C 4.710938 9.691406 4.710938 9.542969 4.710938 9.394531 Z M 4.710938 9.394531 "/>
<path style=" stroke:none;fill-rule:evenodd;fill:rgb(30.196078%,30.196078%,30.196078%);fill-opacity:1;" d="M 2.527344 9.429688 C 2.621094 9.421875 2.714844 9.4375 2.800781 9.480469 C 2.808594 9.523438 2.800781 9.558594 2.777344 9.589844 C 2.648438 9.503906 2.535156 9.523438 2.4375 9.644531 C 2.421875 9.714844 2.433594 9.777344 2.476562 9.832031 C 2.554688 9.875 2.632812 9.917969 2.714844 9.953125 C 2.871094 10.074219 2.898438 10.226562 2.800781 10.410156 C 2.769531 10.441406 2.734375 10.464844 2.699219 10.492188 C 2.601562 10.519531 2.5 10.523438 2.398438 10.507812 C 2.355469 10.496094 2.320312 10.476562 2.289062 10.445312 C 2.296875 10.417969 2.308594 10.390625 2.320312 10.367188 C 2.355469 10.371094 2.394531 10.382812 2.429688 10.402344 C 2.519531 10.421875 2.601562 10.410156 2.683594 10.367188 C 2.75 10.265625 2.746094 10.171875 2.667969 10.082031 C 2.542969 10.035156 2.433594 9.960938 2.34375 9.855469 C 2.269531 9.644531 2.332031 9.5 2.527344 9.429688 Z M 2.527344 9.429688 "/>
<path style=" stroke:none;fill-rule:evenodd;fill:rgb(28.627451%,28.627451%,28.627451%);fill-opacity:1;" d="M 5.074219 9.445312 C 5.164062 9.453125 5.191406 9.503906 5.152344 9.597656 C 5.019531 9.613281 4.996094 9.5625 5.074219 9.445312 Z M 5.074219 9.445312 "/>
<path style=" stroke:none;fill-rule:evenodd;fill:rgb(50.196078%,50.196078%,50.196078%);fill-opacity:1;" d="M 5.929688 9.5 C 5.894531 9.519531 5.886719 9.542969 5.914062 9.582031 C 5.898438 9.585938 5.886719 9.59375 5.882812 9.609375 C 5.863281 9.609375 5.851562 9.601562 5.839844 9.589844 C 5.816406 9.480469 5.851562 9.4375 5.945312 9.457031 C 5.925781 9.460938 5.902344 9.46875 5.882812 9.472656 C 5.902344 9.476562 5.917969 9.484375 5.929688 9.5 Z M 5.929688 9.5 "/>
<path style=" stroke:none;fill-rule:evenodd;fill:rgb(99.607843%,100%,99.607843%);fill-opacity:1;" d="M 5.851562 9.5 C 5.867188 9.503906 5.878906 9.515625 5.882812 9.535156 C 5.875 9.546875 5.871094 9.558594 5.863281 9.574219 C 5.851562 9.550781 5.84375 9.527344 5.851562 9.5 Z M 5.851562 9.5 "/>
<path style=" stroke:none;fill-rule:evenodd;fill:rgb(74.117647%,83.529412%,92.54902%);fill-opacity:1;" d="M 0.910156 9.519531 C 0.910156 9.636719 0.910156 9.757812 0.910156 9.875 C 0.964844 9.875 1.015625 9.875 1.070312 9.875 C 1.011719 9.894531 0.957031 9.898438 0.894531 9.894531 C 0.890625 9.765625 0.894531 9.640625 0.910156 9.519531 Z M 0.910156 9.519531 "/>
<path style=" stroke:none;fill-rule:evenodd;fill:rgb(45.490196%,66.27451%,85.490196%);fill-opacity:1;" d="M 1.070312 9.875 C 1.015625 9.875 0.964844 9.875 0.910156 9.875 C 0.910156 9.757812 0.910156 9.636719 0.910156 9.519531 C 0.980469 9.5 1.054688 9.496094 1.132812 9.507812 C 1.246094 9.546875 1.289062 9.632812 1.25 9.769531 C 1.207031 9.84375 1.148438 9.878906 1.070312 9.875 Z M 1.070312 9.875 "/>
<path style=" stroke:none;fill-rule:evenodd;fill:rgb(69.803922%,69.803922%,69.803922%);fill-opacity:1;" d="M 5.929688 9.5 C 5.949219 9.515625 5.949219 9.53125 5.929688 9.554688 C 5.988281 9.589844 5.984375 9.609375 5.914062 9.625 C 5.898438 9.625 5.886719 9.617188 5.882812 9.609375 C 5.886719 9.59375 5.898438 9.585938 5.914062 9.582031 C 5.886719 9.542969 5.894531 9.519531 5.929688 9.5 Z M 5.929688 9.5 "/>
<path style=" stroke:none;fill-rule:evenodd;fill:rgb(29.411765%,29.411765%,29.411765%);fill-opacity:1;" d="M 3.332031 9.75 C 3.332031 9.78125 3.332031 9.808594 3.332031 9.839844 C 3.273438 9.839844 3.214844 9.839844 3.160156 9.839844 C 3.152344 10.003906 3.160156 10.164062 3.175781 10.320312 C 3.171875 10.355469 3.183594 10.382812 3.207031 10.402344 C 3.246094 10.410156 3.289062 10.414062 3.332031 10.410156 C 3.332031 10.445312 3.332031 10.480469 3.332031 10.519531 C 3.269531 10.519531 3.207031 10.519531 3.144531 10.507812 C 3.109375 10.492188 3.085938 10.46875 3.070312 10.425781 C 3.050781 10.238281 3.042969 10.050781 3.046875 9.855469 C 3.011719 9.855469 2.972656 9.855469 2.9375 9.855469 C 2.9375 9.820312 2.9375 9.785156 2.9375 9.75 C 2.972656 9.75 3.011719 9.75 3.046875 9.75 C 3.042969 9.703125 3.046875 9.65625 3.054688 9.609375 C 3.082031 9.59375 3.113281 9.582031 3.144531 9.574219 C 3.160156 9.628906 3.164062 9.691406 3.160156 9.75 C 3.214844 9.75 3.273438 9.75 3.332031 9.75 Z M 3.332031 9.75 "/>
<path style=" stroke:none;fill-rule:evenodd;fill:rgb(30.196078%,30.196078%,30.196078%);fill-opacity:1;" d="M 5.5625 9.734375 C 5.878906 9.722656 6.015625 9.894531 5.96875 10.25 C 5.890625 10.472656 5.746094 10.558594 5.53125 10.507812 C 5.382812 10.4375 5.316406 10.308594 5.328125 10.125 C 5.328125 9.933594 5.40625 9.800781 5.5625 9.734375 Z M 5.5625 9.734375 "/>
<path style=" stroke:none;fill-rule:evenodd;fill:rgb(30.588235%,30.588235%,30.588235%);fill-opacity:1;" d="M 3.472656 9.75 C 3.515625 9.75 3.558594 9.75 3.601562 9.75 C 3.59375 9.945312 3.605469 10.144531 3.625 10.339844 C 3.730469 10.441406 3.824219 10.429688 3.910156 10.304688 C 3.917969 10.121094 3.921875 9.933594 3.917969 9.75 C 3.960938 9.75 4.003906 9.75 4.046875 9.75 C 4.046875 10 4.046875 10.25 4.046875 10.5 C 4.007812 10.5 3.972656 10.5 3.933594 10.5 C 3.9375 10.464844 3.933594 10.425781 3.925781 10.390625 C 3.847656 10.507812 3.746094 10.546875 3.617188 10.507812 C 3.535156 10.457031 3.488281 10.375 3.484375 10.265625 C 3.472656 10.09375 3.472656 9.921875 3.472656 9.75 Z M 3.472656 9.75 "/>
<path style=" stroke:none;fill-rule:evenodd;fill:rgb(29.019608%,29.019608%,29.019608%);fill-opacity:1;" d="M 5.152344 9.75 C 5.152344 10 5.152344 10.25 5.152344 10.5 C 5.117188 10.5 5.078125 10.5 5.042969 10.5 C 5.042969 10.25 5.042969 10 5.042969 9.75 C 5.078125 9.75 5.117188 9.75 5.152344 9.75 Z M 5.152344 9.75 "/>
<path style=" stroke:none;fill-rule:evenodd;fill:rgb(58.039216%,58.039216%,58.039216%);fill-opacity:1;" d="M 5.152344 9.75 C 5.167969 10.003906 5.175781 10.257812 5.167969 10.519531 C 5.125 10.523438 5.082031 10.515625 5.042969 10.5 C 5.078125 10.5 5.117188 10.5 5.152344 10.5 C 5.152344 10.25 5.152344 10 5.152344 9.75 Z M 5.152344 9.75 "/>
<path style=" stroke:none;fill-rule:evenodd;fill:rgb(98.823529%,98.823529%,98.823529%);fill-opacity:1;" d="M 4.472656 9.839844 C 4.574219 9.828125 4.648438 9.867188 4.703125 9.964844 C 4.710938 10.066406 4.710938 10.167969 4.703125 10.265625 C 4.644531 10.410156 4.550781 10.449219 4.425781 10.382812 C 4.382812 10.347656 4.355469 10.304688 4.339844 10.25 C 4.292969 10.070312 4.339844 9.933594 4.472656 9.839844 Z M 4.472656 9.839844 "/>
<path style=" stroke:none;fill-rule:evenodd;fill:rgb(98.431373%,98.431373%,98.431373%);fill-opacity:1;" d="M 5.582031 9.839844 C 5.707031 9.8125 5.792969 9.863281 5.839844 10 C 5.878906 10.160156 5.84375 10.292969 5.738281 10.402344 C 5.578125 10.453125 5.480469 10.386719 5.445312 10.195312 C 5.425781 10.046875 5.472656 9.925781 5.582031 9.839844 Z M 5.582031 9.839844 "/>
<path style=" stroke:none;fill-rule:evenodd;fill:rgb(64.705882%,64.705882%,64.705882%);fill-opacity:1;" d="M 3.332031 9.75 C 3.347656 9.78125 3.351562 9.816406 3.347656 9.855469 C 3.289062 9.855469 3.230469 9.855469 3.175781 9.855469 C 3.175781 10.011719 3.175781 10.167969 3.175781 10.320312 C 3.160156 10.164062 3.152344 10.003906 3.160156 9.839844 C 3.214844 9.839844 3.273438 9.839844 3.332031 9.839844 C 3.332031 9.808594 3.332031 9.78125 3.332031 9.75 Z M 3.332031 9.75 "/>
<path style=" stroke:none;fill-rule:evenodd;fill:rgb(73.72549%,83.137255%,92.54902%);fill-opacity:1;" d="M 0.910156 9.984375 C 0.910156 10.105469 0.910156 10.230469 0.910156 10.355469 C 0.960938 10.351562 1.007812 10.359375 1.050781 10.375 C 1 10.375 0.945312 10.375 0.894531 10.375 C 0.890625 10.242188 0.894531 10.109375 0.910156 9.984375 Z M 0.910156 9.984375 "/>
<path style=" stroke:none;fill-rule:evenodd;fill:rgb(99.215686%,99.607843%,99.607843%);fill-opacity:1;" d="M -0.0078125 10.105469 C 0.0898438 10.691406 0.394531 11.046875 0.910156 11.175781 C 0.605469 11.175781 0.296875 11.175781 -0.0078125 11.175781 C -0.0078125 10.820312 -0.0078125 10.464844 -0.0078125 10.105469 Z M -0.0078125 10.105469 "/>
</g>
</svg>
