<?xml version="1.0" encoding="UTF-8"?>
<svg xmlns="http://www.w3.org/2000/svg" xmlns:xlink="http://www.w3.org/1999/xlink" width="20px" height="59px" viewBox="0 0 20 7" version="1.1">
<g id="surface1">
<path style=" stroke:none;fill-rule:evenodd;fill:rgb(99.215686%,99.607843%,99.607843%);fill-opacity:1;" d="M -0.0273438 -0.0273438 C 0.992188 -0.0273438 2.015625 -0.0273438 3.035156 -0.0273438 C 1.363281 0.34375 0.34375 1.359375 -0.0273438 3.027344 C -0.0273438 2.007812 -0.0273438 0.992188 -0.0273438 -0.0273438 Z M -0.0273438 -0.0273438 "/>
<path style=" stroke:none;fill-rule:evenodd;fill:rgb(99.607843%,99.607843%,99.607843%);fill-opacity:1;" d="M 3.878906 -0.0273438 C 9.242188 -0.0273438 14.609375 -0.0273438 19.972656 -0.0273438 C 19.972656 2.308594 19.972656 4.640625 19.972656 6.972656 C 14.609375 6.972656 9.242188 6.972656 3.878906 6.972656 C 5.382812 6.710938 6.375 5.851562 6.859375 4.394531 C 7.226562 2.523438 6.570312 1.148438 4.882812 0.261719 C 4.546875 0.144531 4.210938 0.046875 3.878906 -0.0273438 Z M 3.878906 -0.0273438 "/>
<path style=" stroke:none;fill-rule:evenodd;fill:rgb(45.882353%,66.666667%,85.882353%);fill-opacity:1;" d="M 3.035156 -0.0273438 C 3.316406 -0.0273438 3.597656 -0.0273438 3.878906 -0.0273438 C 4.210938 0.046875 4.546875 0.144531 4.882812 0.261719 C 6.570312 1.148438 7.226562 2.523438 6.859375 4.394531 C 6.375 5.851562 5.382812 6.710938 3.878906 6.972656 C 3.597656 6.972656 3.316406 6.972656 3.035156 6.972656 C 1.316406 6.59375 0.296875 5.539062 -0.0273438 3.816406 C -0.0273438 3.550781 -0.0273438 3.289062 -0.0273438 3.027344 C 0.34375 1.359375 1.363281 0.34375 3.035156 -0.0273438 Z M 3.035156 -0.0273438 "/>
<path style=" stroke:none;fill-rule:evenodd;fill:rgb(98.039216%,98.823529%,99.215686%);fill-opacity:1;" d="M 3.035156 3.449219 C 2.980469 3.824219 2.964844 4.210938 2.980469 4.605469 C 3.15625 4.605469 3.332031 4.605469 3.507812 4.605469 C 3.507812 4.691406 3.507812 4.78125 3.507812 4.867188 C 3.085938 4.867188 2.664062 4.867188 2.242188 4.867188 C 2.242188 4.78125 2.242188 4.691406 2.242188 4.605469 C 2.382812 4.605469 2.523438 4.605469 2.664062 4.605469 C 2.664062 3.761719 2.664062 2.921875 2.664062 2.078125 C 2.527344 2.046875 2.386719 2.03125 2.242188 2.027344 C 2.226562 1.914062 2.246094 1.808594 2.296875 1.710938 C 2.804688 1.75 3.3125 1.757812 3.824219 1.738281 C 4.519531 1.933594 4.722656 2.363281 4.433594 3.027344 C 4.289062 3.214844 4.101562 3.347656 3.878906 3.421875 C 4.152344 3.785156 4.410156 4.160156 4.644531 4.550781 C 4.769531 4.601562 4.902344 4.621094 5.039062 4.605469 C 5.039062 4.691406 5.039062 4.78125 5.039062 4.867188 C 4.84375 4.878906 4.652344 4.867188 4.460938 4.84375 C 4.15625 4.375 3.839844 3.921875 3.507812 3.472656 C 3.351562 3.449219 3.195312 3.4375 3.035156 3.449219 Z M 3.035156 3.449219 "/>
<path style=" stroke:none;fill-rule:evenodd;fill:rgb(30.196078%,30.196078%,30.196078%);fill-opacity:1;" d="M 15.699219 1.710938 C 15.839844 1.710938 15.980469 1.710938 16.121094 1.710938 C 16.121094 2.796875 16.121094 3.886719 16.121094 4.972656 C 16 4.972656 15.875 4.972656 15.753906 4.972656 C 15.761719 4.851562 15.75 4.726562 15.726562 4.605469 C 15.625 4.792969 15.476562 4.925781 15.277344 5 C 14.449219 5.105469 14.027344 4.738281 14.011719 3.894531 C 14.027344 3.089844 14.429688 2.703125 15.222656 2.738281 C 15.417969 2.773438 15.566406 2.871094 15.671875 3.027344 C 15.699219 2.589844 15.707031 2.148438 15.699219 1.710938 Z M 15.699219 1.710938 "/>
<path style=" stroke:none;fill-rule:evenodd;fill:rgb(30.196078%,30.196078%,30.196078%);fill-opacity:1;" d="M 8.417969 1.816406 C 8.742188 1.789062 9.046875 1.84375 9.339844 1.972656 C 9.363281 2.089844 9.335938 2.195312 9.261719 2.289062 C 8.832031 2.035156 8.453125 2.089844 8.125 2.449219 C 8.070312 2.65625 8.113281 2.84375 8.257812 3 C 8.515625 3.136719 8.78125 3.261719 9.050781 3.367188 C 9.566406 3.71875 9.660156 4.167969 9.339844 4.710938 C 9.230469 4.796875 9.117188 4.875 8.996094 4.949219 C 8.667969 5.027344 8.332031 5.042969 7.996094 5 C 7.855469 4.964844 7.734375 4.90625 7.625 4.816406 C 7.65625 4.734375 7.691406 4.65625 7.730469 4.578125 C 7.851562 4.59375 7.976562 4.628906 8.101562 4.683594 C 8.394531 4.742188 8.675781 4.707031 8.945312 4.578125 C 9.167969 4.285156 9.148438 4.003906 8.890625 3.738281 C 8.476562 3.605469 8.113281 3.386719 7.808594 3.078125 C 7.570312 2.449219 7.773438 2.027344 8.417969 1.816406 Z M 8.417969 1.816406 "/>
<path style=" stroke:none;fill-rule:evenodd;fill:rgb(28.627451%,28.627451%,28.627451%);fill-opacity:1;" d="M 16.914062 1.867188 C 17.21875 1.882812 17.304688 2.03125 17.175781 2.316406 C 16.738281 2.359375 16.648438 2.210938 16.914062 1.867188 Z M 16.914062 1.867188 "/>
<path style=" stroke:none;fill-rule:evenodd;fill:rgb(50.196078%,50.196078%,50.196078%);fill-opacity:1;" d="M 19.761719 2.027344 C 19.644531 2.078125 19.628906 2.15625 19.710938 2.261719 C 19.660156 2.277344 19.625 2.304688 19.605469 2.34375 C 19.550781 2.347656 19.507812 2.328125 19.472656 2.289062 C 19.382812 1.972656 19.5 1.84375 19.816406 1.894531 C 19.746094 1.914062 19.675781 1.929688 19.605469 1.949219 C 19.667969 1.960938 19.722656 1.984375 19.761719 2.027344 Z M 19.761719 2.027344 "/>
<path style=" stroke:none;fill-rule:evenodd;fill:rgb(99.607843%,100%,99.607843%);fill-opacity:1;" d="M 19.5 2.027344 C 19.554688 2.03125 19.589844 2.066406 19.605469 2.132812 C 19.585938 2.167969 19.570312 2.203125 19.550781 2.238281 C 19.503906 2.175781 19.484375 2.105469 19.5 2.027344 Z M 19.5 2.027344 "/>
<path style=" stroke:none;fill-rule:evenodd;fill:rgb(74.117647%,83.529412%,92.54902%);fill-opacity:1;" d="M 3.035156 2.078125 C 3.035156 2.429688 3.035156 2.78125 3.035156 3.132812 C 3.210938 3.132812 3.386719 3.132812 3.5625 3.132812 C 3.378906 3.183594 3.1875 3.199219 2.980469 3.183594 C 2.964844 2.804688 2.980469 2.4375 3.035156 2.078125 Z M 3.035156 2.078125 "/>
<path style=" stroke:none;fill-rule:evenodd;fill:rgb(45.490196%,66.27451%,85.490196%);fill-opacity:1;" d="M 3.5625 3.132812 C 3.386719 3.132812 3.210938 3.132812 3.035156 3.132812 C 3.035156 2.78125 3.035156 2.429688 3.035156 2.078125 C 3.269531 2.019531 3.515625 2.007812 3.773438 2.050781 C 4.160156 2.167969 4.292969 2.421875 4.167969 2.816406 C 4.027344 3.035156 3.824219 3.140625 3.5625 3.132812 Z M 3.5625 3.132812 "/>
<path style=" stroke:none;fill-rule:evenodd;fill:rgb(69.803922%,69.803922%,69.803922%);fill-opacity:1;" d="M 19.761719 2.027344 C 19.824219 2.070312 19.824219 2.121094 19.761719 2.183594 C 19.964844 2.285156 19.949219 2.351562 19.710938 2.394531 C 19.660156 2.390625 19.625 2.375 19.605469 2.34375 C 19.625 2.304688 19.660156 2.277344 19.710938 2.261719 C 19.628906 2.15625 19.644531 2.078125 19.761719 2.027344 Z M 19.761719 2.027344 "/>
<path style=" stroke:none;fill-rule:evenodd;fill:rgb(29.411765%,29.411765%,29.411765%);fill-opacity:1;" d="M 11.109375 2.761719 C 11.109375 2.851562 11.109375 2.9375 11.109375 3.027344 C 10.914062 3.027344 10.722656 3.027344 10.527344 3.027344 C 10.511719 3.507812 10.527344 3.984375 10.582031 4.449219 C 10.570312 4.546875 10.605469 4.625 10.6875 4.683594 C 10.824219 4.710938 10.964844 4.71875 11.109375 4.710938 C 11.109375 4.816406 11.109375 4.921875 11.109375 5.027344 C 10.894531 5.035156 10.683594 5.027344 10.476562 5 C 10.359375 4.957031 10.28125 4.878906 10.238281 4.761719 C 10.164062 4.207031 10.136719 3.644531 10.160156 3.078125 C 10.035156 3.078125 9.910156 3.078125 9.789062 3.078125 C 9.789062 2.972656 9.789062 2.867188 9.789062 2.761719 C 9.910156 2.761719 10.035156 2.761719 10.160156 2.761719 C 10.148438 2.621094 10.160156 2.480469 10.183594 2.34375 C 10.277344 2.304688 10.375 2.269531 10.476562 2.238281 C 10.527344 2.410156 10.542969 2.585938 10.527344 2.761719 C 10.722656 2.761719 10.914062 2.761719 11.109375 2.761719 Z M 11.109375 2.761719 "/>
<path style=" stroke:none;fill-rule:evenodd;fill:rgb(30.196078%,30.196078%,30.196078%);fill-opacity:1;" d="M 18.546875 2.710938 C 19.601562 2.683594 20.050781 3.191406 19.894531 4.238281 C 19.636719 4.898438 19.152344 5.152344 18.441406 5 C 17.945312 4.789062 17.714844 4.414062 17.757812 3.867188 C 17.761719 3.300781 18.023438 2.914062 18.546875 2.710938 Z M 18.546875 2.710938 "/>
<path style=" stroke:none;fill-rule:evenodd;fill:rgb(30.588235%,30.588235%,30.588235%);fill-opacity:1;" d="M 11.582031 2.761719 C 11.722656 2.761719 11.863281 2.761719 12.003906 2.761719 C 11.984375 3.34375 12.011719 3.925781 12.085938 4.5 C 12.433594 4.800781 12.75 4.765625 13.035156 4.394531 C 13.0625 3.851562 13.070312 3.308594 13.0625 2.761719 C 13.203125 2.761719 13.34375 2.761719 13.484375 2.761719 C 13.484375 3.5 13.484375 4.238281 13.484375 4.972656 C 13.359375 4.972656 13.238281 4.972656 13.113281 4.972656 C 13.121094 4.867188 13.113281 4.761719 13.085938 4.65625 C 12.828125 5 12.488281 5.113281 12.058594 5 C 11.78125 4.84375 11.632812 4.609375 11.609375 4.289062 C 11.582031 3.78125 11.574219 3.273438 11.582031 2.761719 Z M 11.582031 2.761719 "/>
<path style=" stroke:none;fill-rule:evenodd;fill:rgb(29.019608%,29.019608%,29.019608%);fill-opacity:1;" d="M 17.175781 2.761719 C 17.175781 3.5 17.175781 4.238281 17.175781 4.972656 C 17.054688 4.972656 16.929688 4.972656 16.808594 4.972656 C 16.808594 4.238281 16.808594 3.5 16.808594 2.761719 C 16.929688 2.761719 17.054688 2.761719 17.175781 2.761719 Z M 17.175781 2.761719 "/>
<path style=" stroke:none;fill-rule:evenodd;fill:rgb(58.039216%,58.039216%,58.039216%);fill-opacity:1;" d="M 17.175781 2.761719 C 17.230469 3.507812 17.246094 4.261719 17.230469 5.027344 C 17.078125 5.042969 16.9375 5.023438 16.808594 4.972656 C 16.929688 4.972656 17.054688 4.972656 17.175781 4.972656 C 17.175781 4.238281 17.175781 3.5 17.175781 2.761719 Z M 17.175781 2.761719 "/>
<path style=" stroke:none;fill-rule:evenodd;fill:rgb(98.823529%,98.823529%,98.823529%);fill-opacity:1;" d="M 14.90625 3.027344 C 15.242188 2.988281 15.5 3.109375 15.671875 3.394531 C 15.707031 3.691406 15.707031 3.992188 15.671875 4.289062 C 15.484375 4.707031 15.175781 4.820312 14.75 4.632812 C 14.613281 4.53125 14.515625 4.398438 14.460938 4.238281 C 14.316406 3.710938 14.464844 3.304688 14.90625 3.027344 Z M 14.90625 3.027344 "/>
<path style=" stroke:none;fill-rule:evenodd;fill:rgb(98.431373%,98.431373%,98.431373%);fill-opacity:1;" d="M 18.601562 3.027344 C 19.027344 2.945312 19.316406 3.101562 19.472656 3.5 C 19.589844 3.96875 19.476562 4.363281 19.128906 4.683594 C 18.589844 4.839844 18.261719 4.636719 18.152344 4.078125 C 18.085938 3.632812 18.238281 3.28125 18.601562 3.027344 Z M 18.601562 3.027344 "/>
<path style=" stroke:none;fill-rule:evenodd;fill:rgb(64.705882%,64.705882%,64.705882%);fill-opacity:1;" d="M 11.109375 2.761719 C 11.160156 2.855469 11.175781 2.960938 11.160156 3.078125 C 10.96875 3.078125 10.773438 3.078125 10.582031 3.078125 C 10.582031 3.535156 10.582031 3.992188 10.582031 4.449219 C 10.527344 3.984375 10.511719 3.507812 10.527344 3.027344 C 10.722656 3.027344 10.914062 3.027344 11.109375 3.027344 C 11.109375 2.9375 11.109375 2.851562 11.109375 2.761719 Z M 11.109375 2.761719 "/>
<path style=" stroke:none;fill-rule:evenodd;fill:rgb(73.72549%,83.137255%,92.54902%);fill-opacity:1;" d="M 3.035156 3.449219 C 3.035156 3.816406 3.035156 4.183594 3.035156 4.550781 C 3.203125 4.535156 3.363281 4.554688 3.507812 4.605469 C 3.332031 4.605469 3.15625 4.605469 2.980469 4.605469 C 2.964844 4.210938 2.980469 3.824219 3.035156 3.449219 Z M 3.035156 3.449219 "/>
<path style=" stroke:none;fill-rule:evenodd;fill:rgb(99.215686%,99.607843%,99.607843%);fill-opacity:1;" d="M -0.0273438 3.816406 C 0.296875 5.539062 1.316406 6.59375 3.035156 6.972656 C 2.015625 6.972656 0.992188 6.972656 -0.0273438 6.972656 C -0.0273438 5.921875 -0.0273438 4.867188 -0.0273438 3.816406 Z M -0.0273438 3.816406 "/>
</g>
</svg>
