<?xml version="1.0" encoding="UTF-8"?>
<svg xmlns="http://www.w3.org/2000/svg" xmlns:xlink="http://www.w3.org/1999/xlink" width="20px" height="59px" viewBox="0 0 20 4" version="1.1">
<g id="surface1">
<path style=" stroke:none;fill-rule:evenodd;fill:rgb(99.215686%,99.215686%,99.215686%);fill-opacity:1;" d="M -0.0234375 -0.0195312 C 6.644531 -0.0195312 13.3125 -0.0195312 19.976562 -0.0195312 C 19.976562 1.316406 19.976562 2.648438 19.976562 3.980469 C 13.3125 3.980469 6.644531 3.980469 -0.0234375 3.980469 C -0.0234375 2.648438 -0.0234375 1.316406 -0.0234375 -0.0195312 Z M -0.0234375 -0.0195312 "/>
<path style=" stroke:none;fill-rule:evenodd;fill:rgb(99.607843%,87.843137%,91.764706%);fill-opacity:1;" d="M 16.421875 0.945312 C 16.15625 0.90625 15.890625 0.902344 15.621094 0.929688 C 15.476562 0.96875 15.359375 1.035156 15.265625 1.125 C 15.148438 1.179688 15.058594 1.15625 15 1.054688 C 15.070312 1.074219 15.144531 1.085938 15.222656 1.089844 C 15.222656 1.054688 15.222656 1.019531 15.222656 0.980469 C 15.351562 0.980469 15.46875 0.949219 15.578125 0.894531 C 15.71875 0.886719 15.859375 0.882812 16 0.875 C 16.160156 0.875 16.300781 0.898438 16.421875 0.945312 Z M 16.421875 0.945312 "/>
<path style=" stroke:none;fill-rule:evenodd;fill:rgb(30.980392%,48.627451%,69.803922%);fill-opacity:1;" d="M 3.667969 1.230469 C 3.246094 1.269531 2.816406 1.28125 2.378906 1.269531 C 2.5625 1.21875 2.761719 1.195312 2.976562 1.195312 C 3.210938 1.199219 3.4375 1.210938 3.667969 1.230469 Z M 3.667969 1.230469 "/>
<path style=" stroke:none;fill-rule:evenodd;fill:rgb(32.156863%,46.27451%,69.803922%);fill-opacity:1;" d="M 1.265625 1.195312 C 1.578125 1.183594 1.890625 1.195312 2.199219 1.230469 C 2.042969 1.242188 1.890625 1.257812 1.734375 1.269531 C 1.558594 1.265625 1.40625 1.242188 1.265625 1.195312 Z M 1.265625 1.195312 "/>
<path style=" stroke:none;fill-rule:evenodd;fill:rgb(32.941176%,49.803922%,72.941176%);fill-opacity:1;" d="M 4.023438 1.195312 C 5.089844 1.21875 5.089844 1.242188 4.023438 1.269531 C 4.023438 1.242188 4.023438 1.21875 4.023438 1.195312 Z M 4.023438 1.195312 "/>
<path style=" stroke:none;fill-rule:evenodd;fill:rgb(30.196078%,51.372549%,70.196078%);fill-opacity:1;" d="M 5.398438 1.195312 C 5.667969 1.183594 5.933594 1.195312 6.199219 1.230469 C 6.066406 1.242188 5.933594 1.257812 5.800781 1.269531 C 5.648438 1.265625 5.515625 1.242188 5.398438 1.195312 Z M 5.398438 1.195312 "/>
<path style=" stroke:none;fill-rule:evenodd;fill:rgb(80.784314%,85.882353%,92.941176%);fill-opacity:1;" d="M 3.667969 1.230469 C 3.691406 1.234375 3.707031 1.246094 3.710938 1.269531 C 3.257812 1.316406 2.816406 1.316406 2.378906 1.269531 C 2.816406 1.28125 3.246094 1.269531 3.667969 1.230469 Z M 3.667969 1.230469 "/>
<path style=" stroke:none;fill-rule:evenodd;fill:rgb(93.72549%,98.431373%,99.607843%);fill-opacity:1;" d="M 8.464844 1.804688 C 8.40625 1.84375 8.351562 1.890625 8.3125 1.945312 C 8.335938 1.882812 8.328125 1.824219 8.289062 1.769531 C 8.132812 1.601562 7.972656 1.441406 7.800781 1.285156 C 8.15625 1.269531 8.511719 1.261719 8.867188 1.269531 C 8.878906 1.367188 8.851562 1.386719 8.777344 1.320312 C 8.511719 1.296875 8.246094 1.296875 7.976562 1.320312 C 8.167969 1.46875 8.328125 1.628906 8.464844 1.804688 Z M 8.464844 1.804688 "/>
<path style=" stroke:none;fill-rule:evenodd;fill:rgb(54.509804%,69.019608%,82.352941%);fill-opacity:1;" d="M 8.957031 0.839844 C 8.988281 0.867188 9.035156 0.882812 9.089844 0.894531 C 9.042969 0.90625 9 0.917969 8.957031 0.929688 C 9.058594 0.957031 9.160156 0.980469 9.265625 1 C 9.238281 1.011719 9.207031 1.023438 9.179688 1.035156 C 9.226562 1.257812 9.316406 1.464844 9.445312 1.660156 C 9.445312 1.769531 9.394531 1.855469 9.289062 1.910156 C 9.253906 1.90625 9.226562 1.894531 9.199219 1.875 C 9.191406 1.789062 9.167969 1.707031 9.132812 1.625 C 9.070312 1.742188 9.085938 1.847656 9.179688 1.945312 C 9.097656 1.996094 9.03125 1.984375 8.976562 1.910156 C 8.78125 2.023438 8.566406 2.113281 8.332031 2.179688 C 8.28125 2.214844 8.296875 2.238281 8.378906 2.25 C 8.496094 2.269531 8.613281 2.273438 8.734375 2.269531 C 8.488281 2.308594 8.238281 2.316406 7.976562 2.285156 C 8.011719 2.261719 8.027344 2.230469 8.023438 2.195312 C 8.210938 2.167969 8.386719 2.09375 8.554688 1.980469 C 8.585938 1.992188 8.613281 2.007812 8.644531 2.019531 C 8.65625 1.882812 8.746094 1.820312 8.910156 1.820312 C 9.007812 1.730469 9.007812 1.648438 8.910156 1.570312 C 9.027344 1.53125 9.027344 1.503906 8.910156 1.480469 C 8.992188 1.304688 8.960938 1.144531 8.820312 1 C 8.679688 0.988281 8.664062 0.960938 8.777344 0.910156 C 8.710938 0.898438 8.644531 0.886719 8.578125 0.875 C 8.417969 0.886719 8.261719 0.910156 8.109375 0.945312 C 8.375 0.816406 8.65625 0.777344 8.957031 0.839844 Z M 8.957031 0.839844 "/>
<path style=" stroke:none;fill-rule:evenodd;fill:rgb(88.627451%,15.294118%,30.588235%);fill-opacity:1;" d="M 14.554688 0.945312 C 14.140625 0.945312 13.726562 0.945312 13.3125 0.945312 C 13.3125 1.03125 13.3125 1.113281 13.3125 1.195312 C 13.234375 1.203125 13.160156 1.191406 13.089844 1.160156 C 13.046875 1.214844 13.03125 1.277344 13.042969 1.339844 C 12.929688 1.34375 12.828125 1.320312 12.734375 1.269531 C 12.75 1.3125 12.722656 1.339844 12.644531 1.355469 C 12.835938 1.421875 13.027344 1.476562 13.222656 1.519531 C 13.027344 1.53125 12.835938 1.519531 12.644531 1.480469 C 12.523438 1.371094 12.375 1.34375 12.199219 1.410156 C 12.164062 1.359375 12.164062 1.3125 12.199219 1.269531 C 12.316406 1.304688 12.433594 1.3125 12.554688 1.285156 C 12.539062 1.273438 12.527344 1.261719 12.511719 1.25 C 12.695312 1.234375 12.855469 1.179688 13 1.089844 C 12.902344 1.011719 12.789062 1 12.667969 1.054688 C 12.644531 1.042969 12.621094 1.03125 12.601562 1.019531 C 12.648438 0.992188 12.695312 0.96875 12.734375 0.945312 C 12.929688 0.972656 13.089844 1.042969 13.222656 1.160156 C 13.265625 1.082031 13.28125 0.996094 13.265625 0.910156 C 13.703125 0.898438 14.132812 0.910156 14.554688 0.945312 Z M 14.554688 0.945312 "/>
<path style=" stroke:none;fill-rule:evenodd;fill:rgb(65.490196%,73.72549%,85.490196%);fill-opacity:1;" d="M 3.535156 1.375 C 3.648438 1.363281 3.75 1.375 3.84375 1.410156 C 3.339844 1.386719 2.847656 1.410156 2.378906 1.480469 C 2.335938 1.457031 2.324219 1.421875 2.332031 1.375 C 2.734375 1.375 3.132812 1.375 3.535156 1.375 Z M 3.535156 1.375 "/>
<path style=" stroke:none;fill-rule:evenodd;fill:rgb(33.72549%,48.627451%,77.647059%);fill-opacity:1;" d="M 3.84375 1.410156 C 3.371094 1.480469 2.882812 1.503906 2.378906 1.480469 C 2.847656 1.410156 3.339844 1.386719 3.84375 1.410156 Z M 3.84375 1.410156 "/>
<path style=" stroke:none;fill-rule:evenodd;fill:rgb(32.941176%,47.058824%,74.117647%);fill-opacity:1;" d="M 1.265625 1.410156 C 1.578125 1.398438 1.890625 1.410156 2.199219 1.445312 C 2.042969 1.457031 1.890625 1.46875 1.734375 1.480469 C 1.558594 1.480469 1.40625 1.457031 1.265625 1.410156 Z M 1.265625 1.410156 "/>
<path style=" stroke:none;fill-rule:evenodd;fill:rgb(32.941176%,47.45098%,74.117647%);fill-opacity:1;" d="M 6.199219 1.410156 C 6.199219 1.433594 6.199219 1.457031 6.199219 1.480469 C 5.015625 1.457031 5.015625 1.433594 6.199219 1.410156 Z M 6.199219 1.410156 "/>
<path style=" stroke:none;fill-rule:evenodd;fill:rgb(93.72549%,7.058824%,27.45098%);fill-opacity:1;" d="M 14.554688 0.945312 C 14.710938 0.933594 14.84375 0.96875 14.957031 1.054688 C 14.921875 1.097656 14.878906 1.132812 14.820312 1.160156 C 14.878906 1.203125 14.9375 1.203125 15 1.160156 C 15.03125 1.265625 15.03125 1.359375 15 1.445312 C 14.9375 1.496094 14.871094 1.546875 14.800781 1.589844 C 14.777344 1.625 14.769531 1.660156 14.777344 1.695312 C 14.839844 1.699219 14.902344 1.6875 14.957031 1.660156 C 14.996094 1.691406 15.007812 1.726562 15 1.769531 C 14.875 1.820312 14.742188 1.835938 14.601562 1.820312 C 14.621094 1.804688 14.644531 1.785156 14.667969 1.769531 C 14.6875 1.648438 14.710938 1.527344 14.734375 1.410156 C 14.527344 1.414062 14.46875 1.339844 14.554688 1.195312 C 14.511719 1.195312 14.464844 1.195312 14.421875 1.195312 C 14.421875 1.230469 14.421875 1.269531 14.421875 1.304688 C 14.152344 1.289062 13.972656 1.300781 13.890625 1.339844 C 13.890625 1.480469 13.890625 1.625 13.890625 1.769531 C 13.746094 1.792969 13.605469 1.828125 13.464844 1.875 C 13.394531 1.75 13.34375 1.617188 13.3125 1.480469 C 13.285156 1.488281 13.269531 1.5 13.265625 1.519531 C 13.25 1.519531 13.238281 1.519531 13.222656 1.519531 C 13.027344 1.476562 12.835938 1.421875 12.644531 1.355469 C 12.722656 1.339844 12.75 1.3125 12.734375 1.269531 C 12.828125 1.320312 12.929688 1.34375 13.042969 1.339844 C 13.03125 1.277344 13.046875 1.214844 13.089844 1.160156 C 13.160156 1.191406 13.234375 1.203125 13.3125 1.195312 C 13.3125 1.113281 13.3125 1.03125 13.3125 0.945312 C 13.726562 0.945312 14.140625 0.945312 14.554688 0.945312 Z M 14.554688 0.945312 "/>
<path style=" stroke:none;fill-rule:evenodd;fill:rgb(89.411765%,15.686275%,31.372549%);fill-opacity:1;" d="M 12.6875 0.945312 C 12.351562 0.917969 12.042969 0.972656 11.753906 1.105469 C 11.882812 1.144531 11.914062 1.210938 11.84375 1.304688 C 11.800781 1.25 11.75 1.203125 11.6875 1.160156 C 11.71875 1.300781 11.785156 1.429688 11.890625 1.554688 C 11.875 1.578125 11.859375 1.601562 11.84375 1.625 C 11.761719 1.519531 11.679688 1.410156 11.601562 1.304688 C 11.507812 1.375 11.476562 1.457031 11.511719 1.554688 C 11.640625 1.714844 11.78125 1.867188 11.933594 2.019531 C 11.730469 1.96875 11.589844 1.859375 11.511719 1.695312 C 11.382812 1.316406 11.550781 1.058594 12.023438 0.929688 C 12.253906 0.898438 12.476562 0.90625 12.6875 0.945312 Z M 12.6875 0.945312 "/>
<path style=" stroke:none;fill-rule:evenodd;fill:rgb(100%,87.45098%,88.627451%);fill-opacity:1;" d="M 18.6875 1.519531 C 18.445312 1.558594 18.191406 1.566406 17.933594 1.535156 C 17.867188 1.429688 17.761719 1.394531 17.621094 1.429688 C 17.5625 1.464844 17.5625 1.5 17.621094 1.535156 C 17.84375 1.570312 18.035156 1.632812 18.199219 1.730469 C 17.992188 1.691406 17.78125 1.644531 17.578125 1.589844 C 17.464844 1.523438 17.464844 1.457031 17.578125 1.394531 C 17.757812 1.347656 17.90625 1.382812 18.023438 1.5 C 18.242188 1.519531 18.464844 1.523438 18.6875 1.519531 Z M 18.6875 1.519531 "/>
<path style=" stroke:none;fill-rule:evenodd;fill:rgb(89.019608%,63.529412%,69.019608%);fill-opacity:1;" d="M 18.820312 1.230469 C 18.980469 1.210938 19.070312 1.265625 19.089844 1.394531 C 19.027344 1.515625 18.925781 1.546875 18.777344 1.480469 C 18.71875 1.390625 18.734375 1.304688 18.820312 1.230469 Z M 18.820312 1.230469 "/>
<path style=" stroke:none;fill-rule:evenodd;fill:rgb(49.803922%,58.823529%,70.588235%);fill-opacity:1;" d="M 4.289062 1.625 C 4.503906 1.589844 4.726562 1.578125 4.957031 1.589844 C 4.957031 1.613281 4.96875 1.625 5 1.625 C 5 1.671875 4.96875 1.695312 4.910156 1.695312 C 4.722656 1.628906 4.515625 1.601562 4.289062 1.625 Z M 4.289062 1.625 "/>
<path style=" stroke:none;fill-rule:evenodd;fill:rgb(72.941176%,83.137255%,90.980392%);fill-opacity:1;" d="M 8.910156 1.480469 C 8.726562 1.472656 8.566406 1.523438 8.421875 1.644531 C 8.515625 1.6875 8.53125 1.742188 8.464844 1.804688 C 8.328125 1.628906 8.167969 1.46875 7.976562 1.320312 C 8.246094 1.296875 8.511719 1.296875 8.777344 1.320312 C 8.851562 1.386719 8.878906 1.367188 8.867188 1.269531 C 8.511719 1.261719 8.15625 1.269531 7.800781 1.285156 C 7.972656 1.441406 8.132812 1.601562 8.289062 1.769531 C 8.257812 1.78125 8.234375 1.804688 8.222656 1.839844 C 8.058594 1.808594 7.917969 1.75 7.800781 1.660156 C 7.773438 1.667969 7.75 1.679688 7.734375 1.695312 C 7.71875 1.636719 7.703125 1.578125 7.6875 1.519531 C 7.644531 1.492188 7.59375 1.492188 7.535156 1.519531 C 7.5625 1.445312 7.59375 1.375 7.621094 1.304688 C 7.730469 1.136719 7.890625 1.015625 8.109375 0.945312 C 8.261719 0.910156 8.417969 0.886719 8.578125 0.875 C 8.644531 0.886719 8.710938 0.898438 8.777344 0.910156 C 8.664062 0.960938 8.679688 0.988281 8.820312 1 C 8.960938 1.144531 8.992188 1.304688 8.910156 1.480469 Z M 8.910156 1.480469 "/>
<path style=" stroke:none;fill-rule:evenodd;fill:rgb(98.823529%,92.941176%,92.941176%);fill-opacity:1;" d="M 13.222656 1.519531 C 13.238281 1.519531 13.25 1.519531 13.265625 1.519531 C 13.273438 1.636719 13.265625 1.757812 13.246094 1.875 C 13.105469 1.792969 12.949219 1.746094 12.777344 1.730469 C 12.597656 1.664062 12.40625 1.609375 12.199219 1.570312 C 12.144531 1.519531 12.144531 1.464844 12.199219 1.410156 C 12.375 1.34375 12.523438 1.371094 12.644531 1.480469 C 12.835938 1.519531 13.027344 1.53125 13.222656 1.519531 Z M 13.222656 1.519531 "/>
<path style=" stroke:none;fill-rule:evenodd;fill:rgb(38.431373%,50.588235%,74.117647%);fill-opacity:1;" d="M 1.535156 1.589844 C 1.667969 1.589844 1.800781 1.589844 1.933594 1.589844 C 1.933594 1.625 1.933594 1.660156 1.933594 1.695312 C 1.800781 1.695312 1.667969 1.695312 1.535156 1.695312 C 1.535156 1.660156 1.535156 1.625 1.535156 1.589844 Z M 1.535156 1.589844 "/>
<path style=" stroke:none;fill-rule:evenodd;fill:rgb(39.607843%,50.196078%,70.980392%);fill-opacity:1;" d="M 3 1.695312 C 2.882812 1.695312 2.761719 1.695312 2.644531 1.695312 C 2.644531 1.660156 2.644531 1.625 2.644531 1.589844 C 2.777344 1.589844 2.910156 1.589844 3.042969 1.589844 C 3.054688 1.636719 3.039062 1.671875 3 1.695312 Z M 3 1.695312 "/>
<path style=" stroke:none;fill-rule:evenodd;fill:rgb(38.431373%,51.372549%,72.54902%);fill-opacity:1;" d="M 5.84375 1.695312 C 5.617188 1.71875 5.410156 1.695312 5.222656 1.625 C 5.457031 1.589844 5.691406 1.578125 5.933594 1.589844 C 5.941406 1.648438 5.914062 1.683594 5.84375 1.695312 Z M 5.84375 1.695312 "/>
<path style=" stroke:none;fill-rule:evenodd;fill:rgb(92.156863%,9.803922%,28.627451%);fill-opacity:1;" d="M 16.421875 0.945312 C 16.585938 1.011719 16.734375 1.09375 16.867188 1.195312 C 17.246094 0.910156 17.691406 0.832031 18.199219 0.964844 C 18.511719 1.066406 18.675781 1.25 18.6875 1.519531 C 18.464844 1.523438 18.242188 1.519531 18.023438 1.5 C 17.90625 1.382812 17.757812 1.347656 17.578125 1.394531 C 17.464844 1.457031 17.464844 1.523438 17.578125 1.589844 C 17.78125 1.644531 17.992188 1.691406 18.199219 1.730469 C 18.785156 1.898438 18.941406 2.210938 18.667969 2.660156 C 18.1875 3 17.660156 3.054688 17.089844 2.820312 C 17.035156 2.78125 16.984375 2.738281 16.933594 2.695312 C 16.285156 3.105469 15.675781 3.070312 15.109375 2.589844 C 15.0625 2.496094 15.023438 2.402344 15 2.304688 C 15.238281 2.292969 15.476562 2.304688 15.710938 2.339844 C 15.773438 2.464844 15.894531 2.523438 16.066406 2.519531 C 16.28125 2.511719 16.355469 2.425781 16.289062 2.269531 C 16.042969 2.175781 15.792969 2.097656 15.535156 2.035156 C 15.453125 2 15.378906 1.957031 15.3125 1.910156 C 15.269531 1.871094 15.222656 1.828125 15.179688 1.785156 C 15.261719 1.734375 15.324219 1.667969 15.355469 1.589844 C 15.28125 1.441406 15.25 1.285156 15.265625 1.125 C 15.359375 1.035156 15.476562 0.96875 15.621094 0.929688 C 15.890625 0.902344 16.15625 0.90625 16.421875 0.945312 Z M 16.421875 0.945312 "/>
<path style=" stroke:none;fill-rule:evenodd;fill:rgb(98.431373%,93.333333%,93.333333%);fill-opacity:1;" d="M 15.84375 1.375 C 16.027344 1.347656 16.175781 1.386719 16.289062 1.5 C 16.453125 1.507812 16.617188 1.523438 16.777344 1.554688 C 16.835938 1.714844 16.941406 1.851562 17.089844 1.964844 C 17.375 2.078125 17.671875 2.175781 17.976562 2.25 C 18.125 2.417969 18.066406 2.507812 17.800781 2.519531 C 17.621094 2.507812 17.488281 2.441406 17.398438 2.320312 C 17.296875 2.304688 17.195312 2.296875 17.089844 2.304688 C 17.089844 2.121094 17 1.972656 16.820312 1.855469 C 16.503906 1.75 16.179688 1.652344 15.84375 1.570312 C 15.789062 1.507812 15.789062 1.441406 15.84375 1.375 Z M 15.84375 1.375 "/>
<path style=" stroke:none;fill-rule:evenodd;fill:rgb(40%,52.54902%,74.117647%);fill-opacity:1;" d="M 5.398438 1.804688 C 5.578125 1.804688 5.753906 1.804688 5.933594 1.804688 C 5.933594 1.839844 5.933594 1.875 5.933594 1.910156 C 5.59375 1.910156 5.25 1.910156 4.910156 1.910156 C 4.703125 1.910156 4.496094 1.910156 4.289062 1.910156 C 4.289062 1.875 4.289062 1.839844 4.289062 1.804688 C 4.542969 1.796875 4.792969 1.804688 5.042969 1.820312 C 5.066406 1.839844 5.089844 1.855469 5.109375 1.875 C 5.191406 1.8125 5.285156 1.789062 5.398438 1.804688 Z M 5.398438 1.804688 "/>
<path style=" stroke:none;fill-rule:evenodd;fill:rgb(35.686275%,50.980392%,68.627451%);fill-opacity:1;" d="M 1.535156 1.804688 C 1.667969 1.804688 1.800781 1.804688 1.933594 1.804688 C 1.933594 1.839844 1.933594 1.875 1.933594 1.910156 C 1.800781 1.910156 1.667969 1.910156 1.535156 1.910156 C 1.535156 1.875 1.535156 1.839844 1.535156 1.804688 Z M 1.535156 1.804688 "/>
<path style=" stroke:none;fill-rule:evenodd;fill:rgb(62.745098%,75.686275%,88.235294%);fill-opacity:1;" d="M 8.910156 1.480469 C 9.027344 1.503906 9.027344 1.53125 8.910156 1.570312 C 9.007812 1.648438 9.007812 1.730469 8.910156 1.820312 C 8.746094 1.820312 8.65625 1.882812 8.644531 2.019531 C 8.613281 2.007812 8.585938 1.992188 8.554688 1.980469 C 8.386719 2.09375 8.210938 2.167969 8.023438 2.195312 C 8.023438 2.15625 8.039062 2.121094 8.066406 2.089844 C 8.035156 2.054688 8.007812 2.019531 7.976562 1.980469 C 8.097656 1.910156 8.089844 1.851562 7.957031 1.804688 C 7.859375 1.824219 7.761719 1.847656 7.667969 1.875 C 7.628906 1.769531 7.628906 1.664062 7.667969 1.554688 C 7.609375 1.546875 7.554688 1.558594 7.511719 1.589844 C 7.480469 1.554688 7.488281 1.53125 7.535156 1.519531 C 7.59375 1.492188 7.644531 1.492188 7.6875 1.519531 C 7.703125 1.578125 7.71875 1.636719 7.734375 1.695312 C 7.75 1.679688 7.773438 1.667969 7.800781 1.660156 C 7.917969 1.75 8.058594 1.808594 8.222656 1.839844 C 8.234375 1.804688 8.257812 1.78125 8.289062 1.769531 C 8.328125 1.824219 8.335938 1.882812 8.3125 1.945312 C 8.351562 1.890625 8.40625 1.84375 8.464844 1.804688 C 8.53125 1.742188 8.515625 1.6875 8.421875 1.644531 C 8.566406 1.523438 8.726562 1.472656 8.910156 1.480469 Z M 8.910156 1.480469 "/>
<path style=" stroke:none;fill-rule:evenodd;fill:rgb(78.823529%,91.764706%,98.823529%);fill-opacity:1;" d="M 9.179688 1.945312 C 9.085938 1.847656 9.070312 1.742188 9.132812 1.625 C 9.167969 1.707031 9.191406 1.789062 9.199219 1.875 C 9.226562 1.894531 9.253906 1.90625 9.289062 1.910156 C 9.394531 1.855469 9.445312 1.769531 9.445312 1.660156 C 9.472656 1.628906 9.503906 1.59375 9.535156 1.554688 C 9.546875 1.566406 9.5625 1.578125 9.578125 1.589844 C 9.554688 1.640625 9.539062 1.695312 9.535156 1.75 C 9.550781 1.839844 9.589844 1.894531 9.644531 1.910156 C 9.574219 1.953125 9.515625 1.941406 9.464844 1.875 C 9.386719 1.9375 9.289062 1.960938 9.179688 1.945312 Z M 9.179688 1.945312 "/>
<path style=" stroke:none;fill-rule:evenodd;fill:rgb(52.941176%,69.411765%,83.529412%);fill-opacity:1;" d="M 7.621094 1.304688 C 7.59375 1.375 7.5625 1.445312 7.535156 1.519531 C 7.488281 1.53125 7.480469 1.554688 7.511719 1.589844 C 7.554688 1.558594 7.609375 1.546875 7.667969 1.554688 C 7.628906 1.664062 7.628906 1.769531 7.667969 1.875 C 7.761719 1.847656 7.859375 1.824219 7.957031 1.804688 C 8.089844 1.851562 8.097656 1.910156 7.976562 1.980469 C 8.007812 2.019531 8.035156 2.054688 8.066406 2.089844 C 8.039062 2.121094 8.023438 2.15625 8.023438 2.195312 C 8.007812 2.195312 7.992188 2.195312 7.976562 2.195312 C 7.976562 2.175781 7.960938 2.164062 7.933594 2.160156 C 7.824219 2.214844 7.707031 2.25 7.578125 2.269531 C 7.476562 2.128906 7.402344 1.988281 7.355469 1.839844 C 7.375 1.636719 7.464844 1.457031 7.621094 1.304688 Z M 7.621094 1.304688 "/>
<path style=" stroke:none;fill-rule:evenodd;fill:rgb(92.941176%,8.627451%,28.235294%);fill-opacity:1;" d="M 12.6875 0.945312 C 12.703125 0.945312 12.71875 0.945312 12.734375 0.945312 C 12.695312 0.96875 12.648438 0.992188 12.601562 1.019531 C 12.621094 1.03125 12.644531 1.042969 12.667969 1.054688 C 12.789062 1 12.902344 1.011719 13 1.089844 C 12.855469 1.179688 12.695312 1.234375 12.511719 1.25 C 12.527344 1.261719 12.539062 1.273438 12.554688 1.285156 C 12.433594 1.3125 12.316406 1.304688 12.199219 1.269531 C 12.164062 1.3125 12.164062 1.359375 12.199219 1.410156 C 12.144531 1.464844 12.144531 1.519531 12.199219 1.570312 C 12.40625 1.609375 12.597656 1.664062 12.777344 1.730469 C 12.859375 1.785156 12.949219 1.832031 13.042969 1.875 C 12.960938 1.921875 12.878906 1.921875 12.800781 1.875 C 12.777344 1.914062 12.785156 1.949219 12.820312 1.980469 C 12.992188 2.007812 13.148438 2.058594 13.289062 2.125 C 13.554688 2.007812 13.632812 2.070312 13.535156 2.304688 C 13.546875 2.339844 13.578125 2.363281 13.621094 2.375 C 13.652344 2.300781 13.695312 2.234375 13.753906 2.179688 C 13.671875 2.140625 13.65625 2.09375 13.710938 2.035156 C 13.996094 1.949219 14.277344 1.941406 14.554688 2.019531 C 14.492188 2.058594 14.425781 2.09375 14.355469 2.125 C 14.328125 2.160156 14.34375 2.183594 14.398438 2.195312 C 14.507812 2.148438 14.621094 2.121094 14.734375 2.105469 C 14.695312 2.144531 14.679688 2.183594 14.6875 2.230469 C 14.449219 2.242188 14.210938 2.230469 13.976562 2.195312 C 13.933594 2.214844 13.890625 2.230469 13.84375 2.25 C 13.886719 2.453125 13.902344 2.664062 13.890625 2.875 C 13.699219 2.910156 13.507812 2.921875 13.3125 2.910156 C 13.3125 2.851562 13.3125 2.792969 13.3125 2.730469 C 13.222656 2.71875 13.164062 2.742188 13.132812 2.804688 C 13.105469 2.828125 13.074219 2.851562 13.042969 2.875 C 12.414062 3.082031 11.886719 2.976562 11.464844 2.554688 C 11.421875 2.472656 11.402344 2.390625 11.398438 2.304688 C 11.640625 2.292969 11.878906 2.304688 12.109375 2.339844 C 12.265625 2.527344 12.464844 2.5625 12.710938 2.445312 C 12.742188 2.398438 12.742188 2.351562 12.710938 2.304688 C 12.449219 2.207031 12.191406 2.109375 11.933594 2.019531 C 11.78125 1.867188 11.640625 1.714844 11.511719 1.554688 C 11.476562 1.457031 11.507812 1.375 11.601562 1.304688 C 11.679688 1.410156 11.761719 1.519531 11.84375 1.625 C 11.859375 1.601562 11.875 1.578125 11.890625 1.554688 C 11.785156 1.429688 11.71875 1.300781 11.6875 1.160156 C 11.75 1.203125 11.800781 1.25 11.84375 1.304688 C 11.914062 1.210938 11.882812 1.144531 11.753906 1.105469 C 12.042969 0.972656 12.351562 0.917969 12.6875 0.945312 Z M 12.6875 0.945312 "/>
<path style=" stroke:none;fill-rule:evenodd;fill:rgb(37.647059%,50.980392%,71.764706%);fill-opacity:1;" d="M 1.535156 2.019531 C 1.667969 2.019531 1.800781 2.019531 1.933594 2.019531 C 1.933594 2.054688 1.933594 2.089844 1.933594 2.125 C 1.800781 2.125 1.667969 2.125 1.535156 2.125 C 1.535156 2.089844 1.535156 2.054688 1.535156 2.019531 Z M 1.535156 2.019531 "/>
<path style=" stroke:none;fill-rule:evenodd;fill:rgb(37.647059%,52.156863%,70.588235%);fill-opacity:1;" d="M 4.867188 2.019531 C 5.042969 2.019531 5.222656 2.019531 5.398438 2.019531 C 5.398438 2.054688 5.398438 2.089844 5.398438 2.125 C 5.207031 2.125 5.015625 2.125 4.820312 2.125 C 4.8125 2.078125 4.828125 2.042969 4.867188 2.019531 Z M 4.867188 2.019531 "/>
<path style=" stroke:none;fill-rule:evenodd;fill:rgb(90.196078%,10.196078%,28.235294%);fill-opacity:1;" d="M 14.957031 1.054688 C 14.96875 1.054688 14.984375 1.054688 15 1.054688 C 15.058594 1.15625 15.148438 1.179688 15.265625 1.125 C 15.25 1.285156 15.28125 1.441406 15.355469 1.589844 C 15.324219 1.667969 15.261719 1.734375 15.179688 1.785156 C 15.222656 1.828125 15.269531 1.871094 15.3125 1.910156 C 15.191406 1.988281 15.070312 2.078125 14.957031 2.179688 C 14.644531 2.285156 14.316406 2.328125 13.976562 2.304688 C 13.949219 2.492188 13.917969 2.683594 13.890625 2.875 C 13.902344 2.664062 13.886719 2.453125 13.84375 2.25 C 13.890625 2.230469 13.933594 2.214844 13.976562 2.195312 C 14.210938 2.230469 14.449219 2.242188 14.6875 2.230469 C 14.679688 2.183594 14.695312 2.144531 14.734375 2.105469 C 14.621094 2.121094 14.507812 2.148438 14.398438 2.195312 C 14.34375 2.183594 14.328125 2.160156 14.355469 2.125 C 14.425781 2.09375 14.492188 2.058594 14.554688 2.019531 C 14.277344 1.941406 13.996094 1.949219 13.710938 2.035156 C 13.65625 2.09375 13.671875 2.140625 13.753906 2.179688 C 13.695312 2.234375 13.652344 2.300781 13.621094 2.375 C 13.578125 2.363281 13.546875 2.339844 13.535156 2.304688 C 13.632812 2.070312 13.554688 2.007812 13.289062 2.125 C 13.148438 2.058594 12.992188 2.007812 12.820312 1.980469 C 12.785156 1.949219 12.777344 1.914062 12.800781 1.875 C 12.878906 1.921875 12.960938 1.921875 13.042969 1.875 C 12.949219 1.832031 12.859375 1.785156 12.777344 1.730469 C 12.949219 1.746094 13.105469 1.792969 13.246094 1.875 C 13.265625 1.757812 13.273438 1.636719 13.265625 1.519531 C 13.269531 1.5 13.285156 1.488281 13.3125 1.480469 C 13.34375 1.617188 13.394531 1.75 13.464844 1.875 C 13.605469 1.828125 13.746094 1.792969 13.890625 1.769531 C 13.890625 1.625 13.890625 1.480469 13.890625 1.339844 C 13.972656 1.300781 14.152344 1.289062 14.421875 1.304688 C 14.421875 1.269531 14.421875 1.230469 14.421875 1.195312 C 14.464844 1.195312 14.511719 1.195312 14.554688 1.195312 C 14.46875 1.339844 14.527344 1.414062 14.734375 1.410156 C 14.710938 1.527344 14.6875 1.648438 14.667969 1.769531 C 14.644531 1.785156 14.621094 1.804688 14.601562 1.820312 C 14.742188 1.835938 14.875 1.820312 15 1.769531 C 15.007812 1.726562 14.996094 1.691406 14.957031 1.660156 C 14.902344 1.6875 14.839844 1.699219 14.777344 1.695312 C 14.769531 1.660156 14.777344 1.625 14.800781 1.589844 C 14.871094 1.546875 14.9375 1.496094 15 1.445312 C 15.03125 1.359375 15.03125 1.265625 15 1.160156 C 14.9375 1.203125 14.878906 1.203125 14.820312 1.160156 C 14.878906 1.132812 14.921875 1.097656 14.957031 1.054688 Z M 14.957031 1.054688 "/>
<path style=" stroke:none;fill-rule:evenodd;fill:rgb(100%,88.627451%,92.156863%);fill-opacity:1;" d="M 14.554688 1.730469 C 14.550781 1.777344 14.523438 1.804688 14.464844 1.820312 C 14.304688 1.839844 14.140625 1.84375 13.976562 1.839844 C 13.976562 1.683594 13.976562 1.53125 13.976562 1.375 C 14.160156 1.363281 14.339844 1.378906 14.511719 1.429688 C 14.664062 1.523438 14.679688 1.625 14.554688 1.730469 Z M 14.554688 1.730469 "/>
<path style=" stroke:none;fill-rule:evenodd;fill:rgb(95.294118%,98.823529%,97.254902%);fill-opacity:1;" d="M 14.554688 1.730469 C 14.386719 1.785156 14.207031 1.808594 14.023438 1.804688 C 14.023438 1.683594 14.023438 1.566406 14.023438 1.445312 C 14.195312 1.433594 14.359375 1.457031 14.511719 1.519531 C 14.496094 1.542969 14.480469 1.566406 14.464844 1.589844 C 14.527344 1.625 14.554688 1.671875 14.554688 1.730469 Z M 14.554688 1.730469 "/>
<path style=" stroke:none;fill-rule:evenodd;fill:rgb(37.254902%,50.588235%,74.901961%);fill-opacity:1;" d="M 3.753906 2.054688 C 3.761719 2.074219 3.773438 2.09375 3.800781 2.105469 C 3.414062 2.125 3.03125 2.132812 2.644531 2.125 C 2.644531 2.089844 2.644531 2.054688 2.644531 2.019531 C 3.019531 2.007812 3.390625 2.019531 3.753906 2.054688 Z M 3.753906 2.054688 "/>
<path style=" stroke:none;fill-rule:evenodd;fill:rgb(37.647059%,50.196078%,74.901961%);fill-opacity:1;" d="M 5.933594 2.125 C 5.800781 2.125 5.667969 2.125 5.535156 2.125 C 5.535156 2.089844 5.535156 2.054688 5.535156 2.019531 C 5.667969 2.019531 5.800781 2.019531 5.933594 2.019531 C 5.933594 2.054688 5.933594 2.089844 5.933594 2.125 Z M 5.933594 2.125 "/>
<path style=" stroke:none;fill-rule:evenodd;fill:rgb(99.215686%,69.803922%,74.901961%);fill-opacity:1;" d="M 11.398438 2.304688 C 11.511719 2.28125 11.628906 2.269531 11.753906 2.269531 C 11.894531 2.269531 12.011719 2.292969 12.109375 2.339844 C 11.878906 2.304688 11.640625 2.292969 11.398438 2.304688 Z M 11.398438 2.304688 "/>
<path style=" stroke:none;fill-rule:evenodd;fill:rgb(42.745098%,48.235294%,68.627451%);fill-opacity:1;" d="M 1.84375 2.339844 C 1.753906 2.339844 1.667969 2.339844 1.578125 2.339844 C 1.539062 2.3125 1.523438 2.277344 1.535156 2.230469 C 1.667969 2.230469 1.800781 2.230469 1.933594 2.230469 C 1.941406 2.292969 1.914062 2.328125 1.84375 2.339844 Z M 1.84375 2.339844 "/>
<path style=" stroke:none;fill-rule:evenodd;fill:rgb(38.823529%,50.588235%,70.980392%);fill-opacity:1;" d="M 5.933594 2.230469 C 5.933594 2.269531 5.933594 2.304688 5.933594 2.339844 C 5.800781 2.339844 5.667969 2.339844 5.535156 2.339844 C 5.535156 2.304688 5.535156 2.269531 5.535156 2.230469 C 5.667969 2.230469 5.800781 2.230469 5.933594 2.230469 Z M 5.933594 2.230469 "/>
<path style=" stroke:none;fill-rule:evenodd;fill:rgb(94.509804%,96.862745%,98.039216%);fill-opacity:1;" d="M 6.199219 1.410156 C 5.015625 1.433594 5.015625 1.457031 6.199219 1.480469 C 5.792969 1.523438 5.378906 1.523438 4.957031 1.480469 C 4.957031 1.519531 4.957031 1.554688 4.957031 1.589844 C 4.726562 1.578125 4.503906 1.589844 4.289062 1.625 C 4.476562 1.695312 4.683594 1.71875 4.910156 1.695312 C 4.96875 1.695312 5 1.671875 5 1.625 C 5.074219 1.625 5.148438 1.625 5.222656 1.625 C 5.410156 1.695312 5.617188 1.71875 5.84375 1.695312 C 5.683594 1.710938 5.535156 1.746094 5.398438 1.804688 C 5.285156 1.789062 5.191406 1.8125 5.109375 1.875 C 5.089844 1.855469 5.066406 1.839844 5.042969 1.820312 C 4.792969 1.804688 4.542969 1.796875 4.289062 1.804688 C 4.289062 1.839844 4.289062 1.875 4.289062 1.910156 C 4.496094 1.910156 4.703125 1.910156 4.910156 1.910156 C 4.882812 1.941406 4.871094 1.976562 4.867188 2.019531 C 4.828125 2.042969 4.8125 2.078125 4.820312 2.125 C 5.015625 2.125 5.207031 2.125 5.398438 2.125 C 5.445312 2.125 5.488281 2.125 5.535156 2.125 C 5.667969 2.125 5.800781 2.125 5.933594 2.125 C 5.914062 2.152344 5.886719 2.167969 5.84375 2.179688 C 5.886719 2.1875 5.914062 2.207031 5.933594 2.230469 C 5.800781 2.230469 5.667969 2.230469 5.535156 2.230469 C 5.535156 2.269531 5.535156 2.304688 5.535156 2.339844 C 5.667969 2.339844 5.800781 2.339844 5.933594 2.339844 C 6.007812 2.394531 6.097656 2.429688 6.199219 2.445312 C 6.277344 2.503906 6.308594 2.570312 6.289062 2.644531 C 6.347656 2.648438 6.40625 2.644531 6.464844 2.625 C 6.644531 2.671875 6.644531 2.71875 6.464844 2.769531 C 6.367188 2.679688 6.28125 2.679688 6.199219 2.769531 C 6.199219 2.730469 6.199219 2.695312 6.199219 2.660156 C 5.976562 2.660156 5.753906 2.660156 5.535156 2.660156 C 5.519531 2.597656 5.472656 2.582031 5.398438 2.605469 C 5.339844 2.648438 5.296875 2.703125 5.265625 2.769531 C 5.226562 2.785156 5.179688 2.796875 5.132812 2.804688 C 4.988281 2.734375 4.839844 2.722656 4.6875 2.769531 C 4.6875 2.730469 4.6875 2.695312 4.6875 2.660156 C 4.464844 2.660156 4.246094 2.660156 4.023438 2.660156 C 3.863281 2.707031 3.699219 2.742188 3.535156 2.769531 C 3.558594 2.722656 3.601562 2.691406 3.667969 2.679688 C 3.238281 2.660156 2.808594 2.65625 2.378906 2.660156 C 2.378906 2.695312 2.378906 2.730469 2.378906 2.769531 C 2.496094 2.769531 2.613281 2.769531 2.734375 2.769531 C 2.59375 2.796875 2.445312 2.820312 2.289062 2.839844 C 1.941406 2.816406 1.601562 2.792969 1.265625 2.769531 C 1.578125 2.769531 1.890625 2.769531 2.199219 2.769531 C 2.199219 2.730469 2.199219 2.695312 2.199219 2.660156 C 1.890625 2.660156 1.578125 2.660156 1.265625 2.660156 C 1.183594 2.617188 1.167969 2.566406 1.222656 2.5 C 1.191406 2.488281 1.164062 2.476562 1.132812 2.464844 C 1.296875 2.4375 1.441406 2.394531 1.578125 2.339844 C 1.667969 2.339844 1.753906 2.339844 1.84375 2.339844 C 1.84375 2.375 1.84375 2.410156 1.84375 2.445312 C 1.652344 2.445312 1.460938 2.445312 1.265625 2.445312 C 1.265625 2.480469 1.265625 2.519531 1.265625 2.554688 C 1.578125 2.554688 1.890625 2.554688 2.199219 2.554688 C 2.199219 2.519531 2.199219 2.480469 2.199219 2.445312 C 2.257812 2.492188 2.320312 2.492188 2.378906 2.445312 C 2.464844 2.414062 2.480469 2.363281 2.421875 2.304688 C 2.496094 2.273438 2.570312 2.25 2.644531 2.230469 C 2.644531 2.269531 2.644531 2.304688 2.644531 2.339844 C 2.777344 2.339844 2.910156 2.339844 3.042969 2.339844 C 3.042969 2.304688 3.042969 2.269531 3.042969 2.230469 C 3.179688 2.230469 3.3125 2.230469 3.445312 2.230469 C 3.464844 2.207031 3.492188 2.1875 3.535156 2.179688 C 3.4375 2.171875 3.339844 2.167969 3.246094 2.160156 C 2.980469 2.191406 2.722656 2.203125 2.464844 2.195312 C 2.421875 2.183594 2.378906 2.171875 2.332031 2.160156 C 2.355469 2.148438 2.378906 2.136719 2.398438 2.125 C 2.476562 2.101562 2.554688 2.101562 2.644531 2.125 C 3.03125 2.132812 3.414062 2.125 3.800781 2.105469 C 3.773438 2.09375 3.761719 2.074219 3.753906 2.054688 C 3.839844 2.023438 3.929688 2.011719 4.023438 2.019531 C 4.023438 1.980469 4.023438 1.945312 4.023438 1.910156 C 3.917969 1.910156 3.816406 1.910156 3.710938 1.910156 C 3.730469 1.875 3.761719 1.847656 3.800781 1.820312 C 3.414062 1.804688 3.03125 1.796875 2.644531 1.804688 C 2.644531 1.839844 2.644531 1.875 2.644531 1.910156 C 2.582031 1.867188 2.507812 1.832031 2.421875 1.804688 C 2.507812 1.773438 2.597656 1.757812 2.6875 1.75 C 2.664062 1.738281 2.648438 1.71875 2.644531 1.695312 C 2.761719 1.695312 2.882812 1.695312 3 1.695312 C 3.109375 1.730469 3.226562 1.742188 3.355469 1.730469 C 3.355469 1.671875 3.355469 1.613281 3.355469 1.554688 C 3.476562 1.558594 3.59375 1.554688 3.710938 1.535156 C 3.257812 1.53125 2.8125 1.511719 2.378906 1.480469 C 2.882812 1.503906 3.371094 1.480469 3.84375 1.410156 C 3.75 1.375 3.648438 1.363281 3.535156 1.375 C 3.703125 1.34375 3.878906 1.328125 4.066406 1.320312 C 4.042969 1.308594 4.027344 1.289062 4.023438 1.269531 C 5.089844 1.242188 5.089844 1.21875 4.023438 1.195312 C 4.296875 1.171875 4.578125 1.148438 4.867188 1.125 C 5.011719 1.164062 5.097656 1.242188 5.132812 1.355469 C 5.496094 1.339844 5.851562 1.359375 6.199219 1.410156 Z M 6.199219 1.410156 "/>
<path style=" stroke:none;fill-rule:evenodd;fill:rgb(35.686275%,49.803922%,68.235294%);fill-opacity:1;" d="M 4.289062 2.230469 C 4.421875 2.230469 4.554688 2.230469 4.6875 2.230469 C 4.6875 2.269531 4.6875 2.304688 4.6875 2.339844 C 4.554688 2.339844 4.421875 2.339844 4.289062 2.339844 C 4.289062 2.304688 4.289062 2.269531 4.289062 2.230469 Z M 4.289062 2.230469 "/>
<path style=" stroke:none;fill-rule:evenodd;fill:rgb(40%,50.196078%,69.019608%);fill-opacity:1;" d="M 3.445312 2.230469 C 3.59375 2.230469 3.742188 2.230469 3.890625 2.230469 C 3.890625 2.269531 3.890625 2.304688 3.890625 2.339844 C 3.742188 2.339844 3.59375 2.339844 3.445312 2.339844 C 3.445312 2.304688 3.445312 2.269531 3.445312 2.230469 Z M 3.445312 2.230469 "/>
<path style=" stroke:none;fill-rule:evenodd;fill:rgb(37.647059%,48.235294%,63.921569%);fill-opacity:1;" d="M 2.644531 2.230469 C 2.777344 2.230469 2.910156 2.230469 3.042969 2.230469 C 3.042969 2.269531 3.042969 2.304688 3.042969 2.339844 C 2.910156 2.339844 2.777344 2.339844 2.644531 2.339844 C 2.644531 2.304688 2.644531 2.269531 2.644531 2.230469 Z M 2.644531 2.230469 "/>
<path style=" stroke:none;fill-rule:evenodd;fill:rgb(40%,50.196078%,67.843137%);fill-opacity:1;" d="M 4.867188 2.269531 C 5.003906 2.234375 5.152344 2.222656 5.3125 2.230469 C 5.3125 2.269531 5.3125 2.304688 5.3125 2.339844 C 5.148438 2.355469 5 2.332031 4.867188 2.269531 Z M 4.867188 2.269531 "/>
<path style=" stroke:none;fill-rule:evenodd;fill:rgb(37.647059%,49.411765%,70.588235%);fill-opacity:1;" d="M 4.289062 2.019531 C 4.421875 2.019531 4.554688 2.019531 4.6875 2.019531 C 4.6875 2.054688 4.6875 2.089844 4.6875 2.125 C 4.554688 2.125 4.421875 2.125 4.289062 2.125 C 4.289062 2.089844 4.289062 2.054688 4.289062 2.019531 Z M 4.289062 2.019531 "/>
<path style=" stroke:none;fill-rule:evenodd;fill:rgb(38.431373%,50.588235%,72.54902%);fill-opacity:1;" d="M 3.710938 1.910156 C 3.355469 1.910156 3 1.910156 2.644531 1.910156 C 2.644531 1.875 2.644531 1.839844 2.644531 1.804688 C 3.03125 1.796875 3.414062 1.804688 3.800781 1.820312 C 3.761719 1.847656 3.730469 1.875 3.710938 1.910156 Z M 3.710938 1.910156 "/>
<path style=" stroke:none;fill-rule:evenodd;fill:rgb(31.764706%,50.588235%,75.686275%);fill-opacity:1;" d="M 4.289062 1.625 C 4.515625 1.601562 4.722656 1.628906 4.910156 1.695312 C 4.683594 1.71875 4.476562 1.695312 4.289062 1.625 Z M 4.289062 1.625 "/>
<path style=" stroke:none;fill-rule:evenodd;fill:rgb(41.568627%,52.54902%,76.862745%);fill-opacity:1;" d="M 3.445312 1.589844 C 3.59375 1.589844 3.742188 1.589844 3.890625 1.589844 C 3.890625 1.625 3.890625 1.660156 3.890625 1.695312 C 3.742188 1.695312 3.59375 1.695312 3.445312 1.695312 C 3.445312 1.660156 3.445312 1.625 3.445312 1.589844 Z M 3.445312 1.589844 "/>
<path style=" stroke:none;fill-rule:evenodd;fill:rgb(35.294118%,48.627451%,74.117647%);fill-opacity:1;" d="M 4.023438 1.410156 C 4.320312 1.398438 4.617188 1.410156 4.910156 1.445312 C 4.761719 1.457031 4.613281 1.46875 4.464844 1.480469 C 4.300781 1.480469 4.152344 1.457031 4.023438 1.410156 Z M 4.023438 1.410156 "/>
<path style=" stroke:none;fill-rule:evenodd;fill:rgb(37.254902%,50.980392%,72.156863%);fill-opacity:1;" d="M 2.378906 2.445312 C 2.882812 2.441406 3.386719 2.445312 3.890625 2.464844 C 3.867188 2.480469 3.855469 2.496094 3.84375 2.519531 C 3.355469 2.554688 2.867188 2.566406 2.378906 2.554688 C 2.378906 2.519531 2.378906 2.480469 2.378906 2.445312 Z M 2.378906 2.445312 "/>
<path style=" stroke:none;fill-rule:evenodd;fill:rgb(37.647059%,58.431373%,76.862745%);fill-opacity:1;" d="M 8.957031 0.839844 C 9.535156 0.929688 9.914062 1.203125 10.089844 1.660156 C 10.167969 2.464844 9.707031 2.917969 8.710938 3.019531 C 7.851562 2.929688 7.398438 2.535156 7.355469 1.839844 C 7.402344 1.988281 7.476562 2.128906 7.578125 2.269531 C 7.707031 2.25 7.824219 2.214844 7.933594 2.160156 C 7.960938 2.164062 7.976562 2.175781 7.976562 2.195312 C 7.910156 2.257812 7.851562 2.320312 7.800781 2.394531 C 8.171875 2.410156 8.539062 2.417969 8.910156 2.410156 C 8.917969 2.351562 8.910156 2.289062 8.890625 2.230469 C 8.84375 2.261719 8.792969 2.273438 8.734375 2.269531 C 8.613281 2.273438 8.496094 2.269531 8.378906 2.25 C 8.296875 2.238281 8.28125 2.214844 8.332031 2.179688 C 8.566406 2.113281 8.78125 2.023438 8.976562 1.910156 C 9.03125 1.984375 9.097656 1.996094 9.179688 1.945312 C 9.289062 1.960938 9.386719 1.9375 9.464844 1.875 C 9.515625 1.941406 9.574219 1.953125 9.644531 1.910156 C 9.589844 1.894531 9.550781 1.839844 9.535156 1.75 C 9.539062 1.695312 9.554688 1.640625 9.578125 1.589844 C 9.5625 1.578125 9.546875 1.566406 9.535156 1.554688 C 9.503906 1.59375 9.472656 1.628906 9.445312 1.660156 C 9.316406 1.464844 9.226562 1.257812 9.179688 1.035156 C 9.207031 1.023438 9.238281 1.011719 9.265625 1 C 9.160156 0.980469 9.058594 0.957031 8.957031 0.929688 C 9 0.917969 9.042969 0.90625 9.089844 0.894531 C 9.035156 0.882812 8.988281 0.867188 8.957031 0.839844 Z M 8.957031 0.839844 "/>
<path style=" stroke:none;fill-rule:evenodd;fill:rgb(93.72549%,98.039216%,98.823529%);fill-opacity:1;" d="M 7.976562 2.195312 C 7.992188 2.195312 8.007812 2.195312 8.023438 2.195312 C 8.027344 2.230469 8.011719 2.261719 7.976562 2.285156 C 8.238281 2.316406 8.488281 2.308594 8.734375 2.269531 C 8.792969 2.273438 8.84375 2.261719 8.890625 2.230469 C 8.910156 2.289062 8.917969 2.351562 8.910156 2.410156 C 8.539062 2.417969 8.171875 2.410156 7.800781 2.394531 C 7.851562 2.320312 7.910156 2.257812 7.976562 2.195312 Z M 7.976562 2.195312 "/>
<path style=" stroke:none;fill-rule:evenodd;fill:rgb(98.431373%,92.941176%,93.72549%);fill-opacity:1;" d="M 15.3125 1.910156 C 15.378906 1.957031 15.453125 2 15.535156 2.035156 C 15.792969 2.097656 16.042969 2.175781 16.289062 2.269531 C 16.355469 2.425781 16.28125 2.511719 16.066406 2.519531 C 15.894531 2.523438 15.773438 2.464844 15.710938 2.339844 C 15.476562 2.304688 15.238281 2.292969 15 2.304688 C 15.003906 2.273438 14.992188 2.25 14.957031 2.230469 C 14.679688 2.34375 14.382812 2.402344 14.066406 2.410156 C 14.078125 2.605469 14.078125 2.796875 14.066406 2.980469 C 13.835938 3.027344 13.605469 3.027344 13.378906 2.980469 C 13.324219 3.015625 13.300781 3.050781 13.3125 3.089844 C 13.238281 3.066406 13.164062 3.046875 13.089844 3.035156 C 13.160156 3 13.191406 2.945312 13.179688 2.875 C 13.132812 2.875 13.089844 2.875 13.042969 2.875 C 13.074219 2.851562 13.105469 2.828125 13.132812 2.804688 C 13.164062 2.792969 13.191406 2.78125 13.222656 2.769531 C 13.265625 2.824219 13.28125 2.882812 13.265625 2.945312 C 13.503906 2.945312 13.742188 2.945312 13.976562 2.945312 C 13.976562 2.730469 13.976562 2.519531 13.976562 2.304688 C 14.316406 2.328125 14.644531 2.285156 14.957031 2.179688 C 15.070312 2.078125 15.191406 1.988281 15.3125 1.910156 Z M 15.3125 1.910156 "/>
<path style=" stroke:none;fill-rule:evenodd;fill:rgb(36.470588%,49.411765%,72.54902%);fill-opacity:1;" d="M 1.84375 2.445312 C 1.964844 2.445312 2.082031 2.445312 2.199219 2.445312 C 2.199219 2.480469 2.199219 2.519531 2.199219 2.554688 C 1.890625 2.554688 1.578125 2.554688 1.265625 2.554688 C 1.265625 2.519531 1.265625 2.480469 1.265625 2.445312 C 1.460938 2.445312 1.652344 2.445312 1.84375 2.445312 Z M 1.84375 2.445312 "/>
<path style=" stroke:none;fill-rule:evenodd;fill:rgb(36.862745%,50.196078%,72.156863%);fill-opacity:1;" d="M 4.023438 2.445312 C 4.246094 2.445312 4.464844 2.445312 4.6875 2.445312 C 4.6875 2.480469 4.6875 2.519531 4.6875 2.554688 C 4.464844 2.554688 4.246094 2.554688 4.023438 2.554688 C 4.023438 2.519531 4.023438 2.480469 4.023438 2.445312 Z M 4.023438 2.445312 "/>
<path style=" stroke:none;fill-rule:evenodd;fill:rgb(40.392157%,52.156863%,67.843137%);fill-opacity:1;" d="M 5 2.445312 C 5.074219 2.445312 5.148438 2.445312 5.222656 2.445312 C 5.222656 2.480469 5.222656 2.519531 5.222656 2.554688 C 5.148438 2.554688 5.074219 2.554688 5 2.554688 C 5 2.519531 5 2.480469 5 2.445312 Z M 5 2.445312 "/>
<path style=" stroke:none;fill-rule:evenodd;fill:rgb(35.294118%,49.803922%,73.333333%);fill-opacity:1;" d="M 6.199219 2.445312 C 6.199219 2.480469 6.199219 2.519531 6.199219 2.554688 C 5.976562 2.554688 5.753906 2.554688 5.535156 2.554688 C 5.535156 2.519531 5.535156 2.480469 5.535156 2.445312 C 5.753906 2.445312 5.976562 2.445312 6.199219 2.445312 Z M 6.199219 2.445312 "/>
<path style=" stroke:none;fill-rule:evenodd;fill:rgb(41.568627%,50.196078%,72.54902%);fill-opacity:1;" d="M 1.265625 2.660156 C 1.578125 2.660156 1.890625 2.660156 2.199219 2.660156 C 2.199219 2.695312 2.199219 2.730469 2.199219 2.769531 C 1.890625 2.769531 1.578125 2.769531 1.265625 2.769531 C 1.265625 2.730469 1.265625 2.695312 1.265625 2.660156 Z M 1.265625 2.660156 "/>
<path style=" stroke:none;fill-rule:evenodd;fill:rgb(40.784314%,52.54902%,74.117647%);fill-opacity:1;" d="M 3.535156 2.769531 C 3.265625 2.769531 3 2.769531 2.734375 2.769531 C 2.613281 2.769531 2.496094 2.769531 2.378906 2.769531 C 2.378906 2.730469 2.378906 2.695312 2.378906 2.660156 C 2.808594 2.65625 3.238281 2.660156 3.667969 2.679688 C 3.601562 2.691406 3.558594 2.722656 3.535156 2.769531 Z M 3.535156 2.769531 "/>
<path style=" stroke:none;fill-rule:evenodd;fill:rgb(38.431373%,52.54902%,72.941176%);fill-opacity:1;" d="M 4.023438 2.660156 C 4.246094 2.660156 4.464844 2.660156 4.6875 2.660156 C 4.6875 2.695312 4.6875 2.730469 4.6875 2.769531 C 4.464844 2.769531 4.246094 2.769531 4.023438 2.769531 C 4.023438 2.730469 4.023438 2.695312 4.023438 2.660156 Z M 4.023438 2.660156 "/>
<path style=" stroke:none;fill-rule:evenodd;fill:rgb(38.823529%,51.372549%,73.72549%);fill-opacity:1;" d="M 5.535156 2.660156 C 5.753906 2.660156 5.976562 2.660156 6.199219 2.660156 C 6.199219 2.695312 6.199219 2.730469 6.199219 2.769531 C 5.976562 2.769531 5.753906 2.769531 5.535156 2.769531 C 5.535156 2.730469 5.535156 2.695312 5.535156 2.660156 Z M 5.535156 2.660156 "/>
<path style=" stroke:none;fill-rule:evenodd;fill:rgb(77.647059%,23.921569%,35.686275%);fill-opacity:1;" d="M 13.976562 2.304688 C 13.976562 2.519531 13.976562 2.730469 13.976562 2.945312 C 13.742188 2.945312 13.503906 2.945312 13.265625 2.945312 C 13.28125 2.882812 13.265625 2.824219 13.222656 2.769531 C 13.191406 2.78125 13.164062 2.792969 13.132812 2.804688 C 13.164062 2.742188 13.222656 2.71875 13.3125 2.730469 C 13.3125 2.792969 13.3125 2.851562 13.3125 2.910156 C 13.507812 2.921875 13.699219 2.910156 13.890625 2.875 C 13.917969 2.683594 13.949219 2.492188 13.976562 2.304688 Z M 13.976562 2.304688 "/>
</g>
</svg>
