<?xml version="1.0" encoding="UTF-8"?>
<svg xmlns="http://www.w3.org/2000/svg" xmlns:xlink="http://www.w3.org/1999/xlink" width="59px" height="20px" viewBox="0 0 6 20" version="1.1">
<g id="surface1">
<path style=" stroke:none;fill-rule:evenodd;fill:rgb(99.215686%,99.215686%,99.215686%);fill-opacity:1;" d="M -0.0078125 9.316406 C 1.992188 9.316406 3.992188 9.316406 5.992188 9.316406 C 5.992188 9.769531 5.992188 10.21875 5.992188 10.671875 C 3.992188 10.671875 1.992188 10.671875 -0.0078125 10.671875 C -0.0078125 10.21875 -0.0078125 9.769531 -0.0078125 9.316406 Z M -0.0078125 9.316406 "/>
<path style=" stroke:none;fill-rule:evenodd;fill:rgb(99.607843%,87.843137%,91.764706%);fill-opacity:1;" d="M 4.925781 9.640625 C 4.847656 9.628906 4.765625 9.628906 4.6875 9.636719 C 4.644531 9.652344 4.609375 9.671875 4.578125 9.703125 C 4.542969 9.722656 4.519531 9.714844 4.5 9.679688 C 4.519531 9.6875 4.542969 9.691406 4.566406 9.691406 C 4.566406 9.679688 4.566406 9.667969 4.566406 9.65625 C 4.605469 9.65625 4.640625 9.644531 4.671875 9.625 C 4.714844 9.621094 4.757812 9.621094 4.800781 9.617188 C 4.847656 9.617188 4.890625 9.625 4.925781 9.640625 Z M 4.925781 9.640625 "/>
<path style=" stroke:none;fill-rule:evenodd;fill:rgb(30.980392%,48.627451%,69.803922%);fill-opacity:1;" d="M 1.101562 9.738281 C 0.972656 9.753906 0.84375 9.757812 0.714844 9.753906 C 0.769531 9.734375 0.828125 9.726562 0.894531 9.726562 C 0.964844 9.730469 1.03125 9.734375 1.101562 9.738281 Z M 1.101562 9.738281 "/>
<path style=" stroke:none;fill-rule:evenodd;fill:rgb(32.156863%,46.27451%,69.803922%);fill-opacity:1;" d="M 0.378906 9.726562 C 0.472656 9.722656 0.566406 9.726562 0.660156 9.738281 C 0.613281 9.742188 0.566406 9.75 0.519531 9.753906 C 0.46875 9.75 0.421875 9.742188 0.378906 9.726562 Z M 0.378906 9.726562 "/>
<path style=" stroke:none;fill-rule:evenodd;fill:rgb(32.941176%,49.803922%,72.941176%);fill-opacity:1;" d="M 1.207031 9.726562 C 1.527344 9.734375 1.527344 9.742188 1.207031 9.753906 C 1.207031 9.742188 1.207031 9.734375 1.207031 9.726562 Z M 1.207031 9.726562 "/>
<path style=" stroke:none;fill-rule:evenodd;fill:rgb(30.196078%,51.372549%,70.196078%);fill-opacity:1;" d="M 1.621094 9.726562 C 1.699219 9.722656 1.78125 9.726562 1.859375 9.738281 C 1.820312 9.742188 1.78125 9.75 1.738281 9.753906 C 1.695312 9.75 1.65625 9.742188 1.621094 9.726562 Z M 1.621094 9.726562 "/>
<path style=" stroke:none;fill-rule:evenodd;fill:rgb(80.784314%,85.882353%,92.941176%);fill-opacity:1;" d="M 1.101562 9.738281 C 1.105469 9.742188 1.113281 9.746094 1.113281 9.753906 C 0.976562 9.769531 0.84375 9.769531 0.714844 9.753906 C 0.84375 9.757812 0.972656 9.753906 1.101562 9.738281 Z M 1.101562 9.738281 "/>
<path style=" stroke:none;fill-rule:evenodd;fill:rgb(93.72549%,98.431373%,99.607843%);fill-opacity:1;" d="M 2.539062 9.933594 C 2.523438 9.945312 2.503906 9.964844 2.492188 9.980469 C 2.5 9.960938 2.5 9.941406 2.488281 9.921875 C 2.441406 9.863281 2.390625 9.8125 2.339844 9.757812 C 2.445312 9.753906 2.554688 9.75 2.660156 9.753906 C 2.664062 9.785156 2.65625 9.792969 2.632812 9.769531 C 2.554688 9.761719 2.472656 9.761719 2.394531 9.769531 C 2.449219 9.820312 2.5 9.875 2.539062 9.933594 Z M 2.539062 9.933594 "/>
<path style=" stroke:none;fill-rule:evenodd;fill:rgb(54.509804%,69.019608%,82.352941%);fill-opacity:1;" d="M 2.6875 9.605469 C 2.695312 9.617188 2.710938 9.621094 2.726562 9.625 C 2.714844 9.628906 2.699219 9.632812 2.6875 9.636719 C 2.71875 9.644531 2.746094 9.65625 2.78125 9.660156 C 2.769531 9.664062 2.761719 9.667969 2.753906 9.671875 C 2.769531 9.75 2.792969 9.820312 2.832031 9.886719 C 2.832031 9.921875 2.816406 9.949219 2.785156 9.96875 C 2.777344 9.96875 2.769531 9.964844 2.761719 9.957031 C 2.757812 9.929688 2.75 9.902344 2.738281 9.871094 C 2.722656 9.914062 2.726562 9.949219 2.753906 9.980469 C 2.730469 10 2.710938 9.996094 2.691406 9.96875 C 2.632812 10.007812 2.570312 10.039062 2.5 10.0625 C 2.484375 10.074219 2.488281 10.082031 2.511719 10.085938 C 2.550781 10.089844 2.582031 10.09375 2.621094 10.089844 C 2.546875 10.105469 2.472656 10.105469 2.394531 10.097656 C 2.402344 10.089844 2.410156 10.078125 2.40625 10.066406 C 2.464844 10.058594 2.515625 10.03125 2.566406 9.992188 C 2.574219 9.996094 2.582031 10.003906 2.59375 10.007812 C 2.597656 9.960938 2.625 9.9375 2.671875 9.9375 C 2.703125 9.910156 2.703125 9.878906 2.671875 9.855469 C 2.707031 9.839844 2.707031 9.832031 2.671875 9.824219 C 2.699219 9.765625 2.6875 9.710938 2.644531 9.660156 C 2.605469 9.65625 2.597656 9.648438 2.632812 9.628906 C 2.613281 9.625 2.59375 9.621094 2.574219 9.617188 C 2.527344 9.621094 2.480469 9.628906 2.433594 9.640625 C 2.511719 9.597656 2.597656 9.585938 2.6875 9.605469 Z M 2.6875 9.605469 "/>
<path style=" stroke:none;fill-rule:evenodd;fill:rgb(88.627451%,15.294118%,30.588235%);fill-opacity:1;" d="M 4.367188 9.640625 C 4.242188 9.640625 4.117188 9.640625 3.992188 9.640625 C 3.992188 9.671875 3.992188 9.699219 3.992188 9.726562 C 3.96875 9.730469 3.949219 9.726562 3.925781 9.714844 C 3.914062 9.734375 3.910156 9.753906 3.914062 9.777344 C 3.878906 9.777344 3.847656 9.769531 3.820312 9.753906 C 3.824219 9.765625 3.816406 9.777344 3.792969 9.78125 C 3.851562 9.804688 3.910156 9.824219 3.964844 9.835938 C 3.910156 9.839844 3.851562 9.835938 3.792969 9.824219 C 3.757812 9.785156 3.710938 9.777344 3.660156 9.800781 C 3.648438 9.78125 3.648438 9.765625 3.660156 9.753906 C 3.695312 9.765625 3.730469 9.765625 3.765625 9.757812 C 3.761719 9.753906 3.757812 9.75 3.753906 9.746094 C 3.808594 9.742188 3.855469 9.722656 3.898438 9.691406 C 3.871094 9.664062 3.835938 9.660156 3.800781 9.679688 C 3.792969 9.675781 3.785156 9.671875 3.78125 9.667969 C 3.792969 9.660156 3.808594 9.652344 3.820312 9.640625 C 3.878906 9.652344 3.925781 9.675781 3.964844 9.714844 C 3.980469 9.6875 3.984375 9.660156 3.980469 9.628906 C 4.109375 9.625 4.238281 9.628906 4.367188 9.640625 Z M 4.367188 9.640625 "/>
<path style=" stroke:none;fill-rule:evenodd;fill:rgb(65.490196%,73.72549%,85.490196%);fill-opacity:1;" d="M 1.058594 9.789062 C 1.09375 9.785156 1.125 9.789062 1.152344 9.800781 C 1.003906 9.792969 0.855469 9.800781 0.714844 9.824219 C 0.699219 9.816406 0.699219 9.804688 0.699219 9.789062 C 0.820312 9.789062 0.941406 9.789062 1.058594 9.789062 Z M 1.058594 9.789062 "/>
<path style=" stroke:none;fill-rule:evenodd;fill:rgb(33.72549%,48.627451%,77.647059%);fill-opacity:1;" d="M 1.152344 9.800781 C 1.011719 9.824219 0.863281 9.832031 0.714844 9.824219 C 0.855469 9.800781 1.003906 9.792969 1.152344 9.800781 Z M 1.152344 9.800781 "/>
<path style=" stroke:none;fill-rule:evenodd;fill:rgb(32.941176%,47.058824%,74.117647%);fill-opacity:1;" d="M 0.378906 9.800781 C 0.472656 9.796875 0.566406 9.800781 0.660156 9.8125 C 0.613281 9.816406 0.566406 9.820312 0.519531 9.824219 C 0.46875 9.824219 0.421875 9.816406 0.378906 9.800781 Z M 0.378906 9.800781 "/>
<path style=" stroke:none;fill-rule:evenodd;fill:rgb(32.941176%,47.45098%,74.117647%);fill-opacity:1;" d="M 1.859375 9.800781 C 1.859375 9.808594 1.859375 9.816406 1.859375 9.824219 C 1.503906 9.816406 1.503906 9.808594 1.859375 9.800781 Z M 1.859375 9.800781 "/>
<path style=" stroke:none;fill-rule:evenodd;fill:rgb(93.72549%,7.058824%,27.45098%);fill-opacity:1;" d="M 4.367188 9.640625 C 4.414062 9.636719 4.453125 9.652344 4.488281 9.679688 C 4.476562 9.695312 4.464844 9.707031 4.445312 9.714844 C 4.464844 9.730469 4.480469 9.730469 4.5 9.714844 C 4.507812 9.75 4.507812 9.78125 4.5 9.8125 C 4.480469 9.828125 4.460938 9.847656 4.441406 9.859375 C 4.433594 9.871094 4.429688 9.886719 4.433594 9.898438 C 4.453125 9.898438 4.472656 9.894531 4.488281 9.886719 C 4.5 9.894531 4.503906 9.90625 4.5 9.921875 C 4.460938 9.9375 4.421875 9.945312 4.378906 9.9375 C 4.386719 9.933594 4.394531 9.925781 4.402344 9.921875 C 4.40625 9.878906 4.414062 9.839844 4.421875 9.800781 C 4.359375 9.800781 4.339844 9.777344 4.367188 9.726562 C 4.355469 9.726562 4.339844 9.726562 4.328125 9.726562 C 4.328125 9.738281 4.328125 9.753906 4.328125 9.765625 C 4.246094 9.757812 4.191406 9.761719 4.167969 9.777344 C 4.167969 9.824219 4.167969 9.871094 4.167969 9.921875 C 4.125 9.929688 4.082031 9.941406 4.039062 9.957031 C 4.019531 9.914062 4.003906 9.871094 3.992188 9.824219 C 3.984375 9.828125 3.980469 9.832031 3.980469 9.835938 C 3.976562 9.835938 3.972656 9.835938 3.964844 9.835938 C 3.910156 9.824219 3.851562 9.804688 3.792969 9.78125 C 3.816406 9.777344 3.824219 9.765625 3.820312 9.753906 C 3.847656 9.769531 3.878906 9.777344 3.914062 9.777344 C 3.910156 9.753906 3.914062 9.734375 3.925781 9.714844 C 3.949219 9.726562 3.96875 9.730469 3.992188 9.726562 C 3.992188 9.699219 3.992188 9.671875 3.992188 9.640625 C 4.117188 9.640625 4.242188 9.640625 4.367188 9.640625 Z M 4.367188 9.640625 "/>
<path style=" stroke:none;fill-rule:evenodd;fill:rgb(89.411765%,15.686275%,31.372549%);fill-opacity:1;" d="M 3.804688 9.640625 C 3.707031 9.632812 3.613281 9.652344 3.527344 9.695312 C 3.566406 9.710938 3.574219 9.734375 3.554688 9.765625 C 3.539062 9.746094 3.523438 9.730469 3.507812 9.714844 C 3.515625 9.761719 3.535156 9.808594 3.566406 9.847656 C 3.5625 9.855469 3.558594 9.863281 3.554688 9.871094 C 3.527344 9.835938 3.503906 9.800781 3.480469 9.765625 C 3.453125 9.789062 3.441406 9.816406 3.453125 9.847656 C 3.492188 9.902344 3.535156 9.953125 3.582031 10.007812 C 3.519531 9.988281 3.476562 9.953125 3.453125 9.898438 C 3.414062 9.769531 3.464844 9.679688 3.605469 9.636719 C 3.675781 9.625 3.742188 9.628906 3.804688 9.640625 Z M 3.804688 9.640625 "/>
<path style=" stroke:none;fill-rule:evenodd;fill:rgb(100%,87.45098%,88.627451%);fill-opacity:1;" d="M 5.605469 9.835938 C 5.535156 9.851562 5.457031 9.851562 5.378906 9.84375 C 5.359375 9.808594 5.328125 9.792969 5.285156 9.808594 C 5.269531 9.820312 5.269531 9.832031 5.285156 9.84375 C 5.351562 9.855469 5.410156 9.875 5.460938 9.910156 C 5.398438 9.894531 5.335938 9.878906 5.273438 9.859375 C 5.238281 9.839844 5.238281 9.816406 5.273438 9.792969 C 5.328125 9.777344 5.371094 9.789062 5.40625 9.832031 C 5.472656 9.835938 5.539062 9.839844 5.605469 9.835938 Z M 5.605469 9.835938 "/>
<path style=" stroke:none;fill-rule:evenodd;fill:rgb(89.019608%,63.529412%,69.019608%);fill-opacity:1;" d="M 5.644531 9.738281 C 5.695312 9.734375 5.722656 9.75 5.726562 9.792969 C 5.707031 9.835938 5.675781 9.847656 5.632812 9.824219 C 5.617188 9.792969 5.621094 9.765625 5.644531 9.738281 Z M 5.644531 9.738281 "/>
<path style=" stroke:none;fill-rule:evenodd;fill:rgb(49.803922%,58.823529%,70.588235%);fill-opacity:1;" d="M 1.285156 9.871094 C 1.351562 9.859375 1.417969 9.855469 1.488281 9.859375 C 1.488281 9.867188 1.492188 9.871094 1.5 9.871094 C 1.5 9.890625 1.492188 9.898438 1.472656 9.898438 C 1.417969 9.875 1.355469 9.863281 1.285156 9.871094 Z M 1.285156 9.871094 "/>
<path style=" stroke:none;fill-rule:evenodd;fill:rgb(72.941176%,83.137255%,90.980392%);fill-opacity:1;" d="M 2.671875 9.824219 C 2.617188 9.820312 2.570312 9.839844 2.527344 9.878906 C 2.554688 9.894531 2.558594 9.914062 2.539062 9.933594 C 2.5 9.875 2.449219 9.820312 2.394531 9.769531 C 2.472656 9.761719 2.554688 9.761719 2.632812 9.769531 C 2.65625 9.792969 2.664062 9.785156 2.660156 9.753906 C 2.554688 9.75 2.445312 9.753906 2.339844 9.757812 C 2.390625 9.8125 2.441406 9.863281 2.488281 9.921875 C 2.476562 9.925781 2.46875 9.933594 2.464844 9.945312 C 2.417969 9.933594 2.375 9.914062 2.339844 9.886719 C 2.332031 9.886719 2.324219 9.890625 2.320312 9.898438 C 2.316406 9.875 2.3125 9.855469 2.304688 9.835938 C 2.292969 9.828125 2.277344 9.828125 2.261719 9.835938 C 2.269531 9.8125 2.277344 9.789062 2.285156 9.765625 C 2.320312 9.707031 2.367188 9.667969 2.433594 9.640625 C 2.480469 9.628906 2.527344 9.621094 2.574219 9.617188 C 2.59375 9.621094 2.613281 9.625 2.632812 9.628906 C 2.597656 9.648438 2.605469 9.65625 2.644531 9.660156 C 2.6875 9.710938 2.699219 9.765625 2.671875 9.824219 Z M 2.671875 9.824219 "/>
<path style=" stroke:none;fill-rule:evenodd;fill:rgb(98.823529%,92.941176%,92.941176%);fill-opacity:1;" d="M 3.964844 9.835938 C 3.972656 9.835938 3.976562 9.835938 3.980469 9.835938 C 3.980469 9.875 3.980469 9.917969 3.972656 9.957031 C 3.933594 9.929688 3.886719 9.914062 3.832031 9.910156 C 3.777344 9.886719 3.722656 9.867188 3.660156 9.855469 C 3.644531 9.835938 3.644531 9.820312 3.660156 9.800781 C 3.710938 9.777344 3.757812 9.785156 3.792969 9.824219 C 3.851562 9.835938 3.910156 9.839844 3.964844 9.835938 Z M 3.964844 9.835938 "/>
<path style=" stroke:none;fill-rule:evenodd;fill:rgb(38.431373%,50.588235%,74.117647%);fill-opacity:1;" d="M 0.460938 9.859375 C 0.5 9.859375 0.539062 9.859375 0.582031 9.859375 C 0.582031 9.871094 0.582031 9.886719 0.582031 9.898438 C 0.539062 9.898438 0.5 9.898438 0.460938 9.898438 C 0.460938 9.886719 0.460938 9.871094 0.460938 9.859375 Z M 0.460938 9.859375 "/>
<path style=" stroke:none;fill-rule:evenodd;fill:rgb(39.607843%,50.196078%,70.980392%);fill-opacity:1;" d="M 0.898438 9.898438 C 0.863281 9.898438 0.828125 9.898438 0.792969 9.898438 C 0.792969 9.886719 0.792969 9.871094 0.792969 9.859375 C 0.832031 9.859375 0.871094 9.859375 0.914062 9.859375 C 0.917969 9.875 0.910156 9.890625 0.898438 9.898438 Z M 0.898438 9.898438 "/>
<path style=" stroke:none;fill-rule:evenodd;fill:rgb(38.431373%,51.372549%,72.54902%);fill-opacity:1;" d="M 1.753906 9.898438 C 1.683594 9.90625 1.621094 9.898438 1.566406 9.871094 C 1.636719 9.859375 1.707031 9.855469 1.78125 9.859375 C 1.78125 9.878906 1.773438 9.894531 1.753906 9.898438 Z M 1.753906 9.898438 "/>
<path style=" stroke:none;fill-rule:evenodd;fill:rgb(92.156863%,9.803922%,28.627451%);fill-opacity:1;" d="M 4.925781 9.640625 C 4.976562 9.664062 5.019531 9.691406 5.058594 9.726562 C 5.175781 9.628906 5.308594 9.605469 5.460938 9.648438 C 5.554688 9.683594 5.601562 9.746094 5.605469 9.835938 C 5.539062 9.839844 5.472656 9.835938 5.40625 9.832031 C 5.371094 9.789062 5.328125 9.777344 5.273438 9.792969 C 5.238281 9.816406 5.238281 9.839844 5.273438 9.859375 C 5.335938 9.878906 5.398438 9.894531 5.460938 9.910156 C 5.636719 9.964844 5.683594 10.070312 5.601562 10.222656 C 5.457031 10.339844 5.296875 10.359375 5.128906 10.277344 C 5.109375 10.265625 5.09375 10.25 5.082031 10.234375 C 4.886719 10.375 4.703125 10.363281 4.53125 10.199219 C 4.519531 10.167969 4.507812 10.136719 4.5 10.101562 C 4.570312 10.097656 4.644531 10.101562 4.714844 10.113281 C 4.730469 10.15625 4.769531 10.175781 4.820312 10.175781 C 4.882812 10.171875 4.90625 10.144531 4.886719 10.089844 C 4.8125 10.058594 4.738281 10.03125 4.660156 10.011719 C 4.636719 10 4.613281 9.984375 4.59375 9.96875 C 4.582031 9.957031 4.566406 9.941406 4.554688 9.925781 C 4.578125 9.910156 4.597656 9.886719 4.605469 9.859375 C 4.585938 9.8125 4.574219 9.757812 4.578125 9.703125 C 4.609375 9.671875 4.644531 9.652344 4.6875 9.636719 C 4.765625 9.628906 4.847656 9.628906 4.925781 9.640625 Z M 4.925781 9.640625 "/>
<path style=" stroke:none;fill-rule:evenodd;fill:rgb(98.431373%,93.333333%,93.333333%);fill-opacity:1;" d="M 4.753906 9.789062 C 4.808594 9.777344 4.851562 9.792969 4.886719 9.832031 C 4.9375 9.832031 4.984375 9.839844 5.035156 9.847656 C 5.050781 9.902344 5.082031 9.949219 5.128906 9.988281 C 5.210938 10.027344 5.300781 10.058594 5.394531 10.085938 C 5.4375 10.140625 5.417969 10.171875 5.339844 10.175781 C 5.285156 10.171875 5.246094 10.148438 5.21875 10.109375 C 5.1875 10.101562 5.160156 10.101562 5.128906 10.101562 C 5.128906 10.042969 5.101562 9.992188 5.046875 9.949219 C 4.949219 9.914062 4.855469 9.882812 4.753906 9.855469 C 4.738281 9.832031 4.738281 9.8125 4.753906 9.789062 Z M 4.753906 9.789062 "/>
<path style=" stroke:none;fill-rule:evenodd;fill:rgb(40%,52.54902%,74.117647%);fill-opacity:1;" d="M 1.621094 9.933594 C 1.671875 9.933594 1.726562 9.933594 1.78125 9.933594 C 1.78125 9.945312 1.78125 9.957031 1.78125 9.96875 C 1.679688 9.96875 1.574219 9.96875 1.472656 9.96875 C 1.410156 9.96875 1.347656 9.96875 1.285156 9.96875 C 1.285156 9.957031 1.285156 9.945312 1.285156 9.933594 C 1.363281 9.929688 1.4375 9.933594 1.511719 9.9375 C 1.519531 9.945312 1.527344 9.949219 1.53125 9.957031 C 1.558594 9.9375 1.585938 9.929688 1.621094 9.933594 Z M 1.621094 9.933594 "/>
<path style=" stroke:none;fill-rule:evenodd;fill:rgb(35.686275%,50.980392%,68.627451%);fill-opacity:1;" d="M 0.460938 9.933594 C 0.5 9.933594 0.539062 9.933594 0.582031 9.933594 C 0.582031 9.945312 0.582031 9.957031 0.582031 9.96875 C 0.539062 9.96875 0.5 9.96875 0.460938 9.96875 C 0.460938 9.957031 0.460938 9.945312 0.460938 9.933594 Z M 0.460938 9.933594 "/>
<path style=" stroke:none;fill-rule:evenodd;fill:rgb(62.745098%,75.686275%,88.235294%);fill-opacity:1;" d="M 2.671875 9.824219 C 2.707031 9.832031 2.707031 9.839844 2.671875 9.855469 C 2.703125 9.878906 2.703125 9.910156 2.671875 9.9375 C 2.625 9.9375 2.597656 9.960938 2.59375 10.007812 C 2.582031 10.003906 2.574219 9.996094 2.566406 9.992188 C 2.515625 10.03125 2.464844 10.058594 2.40625 10.066406 C 2.40625 10.054688 2.410156 10.042969 2.417969 10.03125 C 2.410156 10.019531 2.402344 10.007812 2.394531 9.992188 C 2.429688 9.96875 2.425781 9.949219 2.386719 9.933594 C 2.359375 9.941406 2.328125 9.949219 2.300781 9.957031 C 2.289062 9.921875 2.289062 9.886719 2.300781 9.847656 C 2.28125 9.847656 2.265625 9.851562 2.253906 9.859375 C 2.246094 9.847656 2.246094 9.839844 2.261719 9.835938 C 2.277344 9.828125 2.292969 9.828125 2.304688 9.835938 C 2.3125 9.855469 2.316406 9.875 2.320312 9.898438 C 2.324219 9.890625 2.332031 9.886719 2.339844 9.886719 C 2.375 9.914062 2.417969 9.933594 2.464844 9.945312 C 2.46875 9.933594 2.476562 9.925781 2.488281 9.921875 C 2.5 9.941406 2.5 9.960938 2.492188 9.980469 C 2.503906 9.964844 2.523438 9.945312 2.539062 9.933594 C 2.558594 9.914062 2.554688 9.894531 2.527344 9.878906 C 2.570312 9.839844 2.617188 9.820312 2.671875 9.824219 Z M 2.671875 9.824219 "/>
<path style=" stroke:none;fill-rule:evenodd;fill:rgb(78.823529%,91.764706%,98.823529%);fill-opacity:1;" d="M 2.753906 9.980469 C 2.726562 9.949219 2.722656 9.914062 2.738281 9.871094 C 2.75 9.902344 2.757812 9.929688 2.761719 9.957031 C 2.769531 9.964844 2.777344 9.96875 2.785156 9.96875 C 2.816406 9.949219 2.832031 9.921875 2.832031 9.886719 C 2.839844 9.875 2.851562 9.863281 2.859375 9.847656 C 2.863281 9.851562 2.867188 9.855469 2.875 9.859375 C 2.867188 9.878906 2.863281 9.898438 2.859375 9.914062 C 2.863281 9.945312 2.878906 9.964844 2.894531 9.96875 C 2.871094 9.984375 2.855469 9.980469 2.839844 9.957031 C 2.816406 9.980469 2.785156 9.988281 2.753906 9.980469 Z M 2.753906 9.980469 "/>
<path style=" stroke:none;fill-rule:evenodd;fill:rgb(52.941176%,69.411765%,83.529412%);fill-opacity:1;" d="M 2.285156 9.765625 C 2.277344 9.789062 2.269531 9.8125 2.261719 9.835938 C 2.246094 9.839844 2.246094 9.847656 2.253906 9.859375 C 2.265625 9.851562 2.28125 9.847656 2.300781 9.847656 C 2.289062 9.886719 2.289062 9.921875 2.300781 9.957031 C 2.328125 9.949219 2.359375 9.941406 2.386719 9.933594 C 2.425781 9.949219 2.429688 9.96875 2.394531 9.992188 C 2.402344 10.007812 2.410156 10.019531 2.417969 10.03125 C 2.410156 10.042969 2.40625 10.054688 2.40625 10.066406 C 2.402344 10.066406 2.398438 10.066406 2.394531 10.066406 C 2.394531 10.058594 2.386719 10.054688 2.378906 10.054688 C 2.347656 10.074219 2.3125 10.085938 2.273438 10.089844 C 2.242188 10.042969 2.222656 9.996094 2.207031 9.945312 C 2.210938 9.875 2.238281 9.816406 2.285156 9.765625 Z M 2.285156 9.765625 "/>
<path style=" stroke:none;fill-rule:evenodd;fill:rgb(92.941176%,8.627451%,28.235294%);fill-opacity:1;" d="M 3.804688 9.640625 C 3.8125 9.640625 3.816406 9.640625 3.820312 9.640625 C 3.808594 9.652344 3.792969 9.660156 3.78125 9.667969 C 3.785156 9.671875 3.792969 9.675781 3.800781 9.679688 C 3.835938 9.660156 3.871094 9.664062 3.898438 9.691406 C 3.855469 9.722656 3.808594 9.742188 3.753906 9.746094 C 3.757812 9.75 3.761719 9.753906 3.765625 9.757812 C 3.730469 9.765625 3.695312 9.765625 3.660156 9.753906 C 3.648438 9.765625 3.648438 9.78125 3.660156 9.800781 C 3.644531 9.820312 3.644531 9.835938 3.660156 9.855469 C 3.722656 9.867188 3.777344 9.886719 3.832031 9.910156 C 3.859375 9.925781 3.886719 9.941406 3.914062 9.957031 C 3.886719 9.972656 3.863281 9.972656 3.839844 9.957031 C 3.832031 9.972656 3.835938 9.984375 3.847656 9.992188 C 3.898438 10.003906 3.945312 10.019531 3.988281 10.042969 C 4.066406 10.003906 4.089844 10.023438 4.058594 10.101562 C 4.0625 10.113281 4.074219 10.125 4.085938 10.128906 C 4.097656 10.101562 4.109375 10.078125 4.125 10.0625 C 4.101562 10.046875 4.097656 10.03125 4.113281 10.011719 C 4.199219 9.984375 4.285156 9.980469 4.367188 10.007812 C 4.347656 10.019531 4.328125 10.03125 4.308594 10.042969 C 4.296875 10.054688 4.304688 10.0625 4.320312 10.066406 C 4.351562 10.050781 4.386719 10.042969 4.421875 10.035156 C 4.410156 10.050781 4.402344 10.0625 4.40625 10.078125 C 4.335938 10.082031 4.261719 10.078125 4.191406 10.066406 C 4.179688 10.074219 4.167969 10.078125 4.152344 10.085938 C 4.167969 10.152344 4.171875 10.226562 4.167969 10.296875 C 4.109375 10.308594 4.050781 10.3125 3.992188 10.308594 C 3.992188 10.289062 3.992188 10.269531 3.992188 10.246094 C 3.964844 10.242188 3.949219 10.25 3.941406 10.273438 C 3.933594 10.28125 3.921875 10.289062 3.914062 10.296875 C 3.722656 10.367188 3.566406 10.332031 3.441406 10.1875 C 3.425781 10.160156 3.421875 10.132812 3.417969 10.101562 C 3.492188 10.097656 3.5625 10.101562 3.632812 10.113281 C 3.679688 10.179688 3.738281 10.191406 3.8125 10.152344 C 3.824219 10.136719 3.824219 10.121094 3.8125 10.101562 C 3.734375 10.070312 3.65625 10.035156 3.582031 10.007812 C 3.535156 9.953125 3.492188 9.902344 3.453125 9.847656 C 3.441406 9.816406 3.453125 9.789062 3.480469 9.765625 C 3.503906 9.800781 3.527344 9.835938 3.554688 9.871094 C 3.558594 9.863281 3.5625 9.855469 3.566406 9.847656 C 3.535156 9.808594 3.515625 9.761719 3.507812 9.714844 C 3.523438 9.730469 3.539062 9.746094 3.554688 9.765625 C 3.574219 9.734375 3.566406 9.710938 3.527344 9.695312 C 3.613281 9.652344 3.707031 9.632812 3.804688 9.640625 Z M 3.804688 9.640625 "/>
<path style=" stroke:none;fill-rule:evenodd;fill:rgb(37.647059%,50.980392%,71.764706%);fill-opacity:1;" d="M 0.460938 10.007812 C 0.5 10.007812 0.539062 10.007812 0.582031 10.007812 C 0.582031 10.019531 0.582031 10.03125 0.582031 10.042969 C 0.539062 10.042969 0.5 10.042969 0.460938 10.042969 C 0.460938 10.03125 0.460938 10.019531 0.460938 10.007812 Z M 0.460938 10.007812 "/>
<path style=" stroke:none;fill-rule:evenodd;fill:rgb(37.647059%,52.156863%,70.588235%);fill-opacity:1;" d="M 1.460938 10.007812 C 1.511719 10.007812 1.566406 10.007812 1.621094 10.007812 C 1.621094 10.019531 1.621094 10.03125 1.621094 10.042969 C 1.5625 10.042969 1.503906 10.042969 1.445312 10.042969 C 1.445312 10.027344 1.449219 10.015625 1.460938 10.007812 Z M 1.460938 10.007812 "/>
<path style=" stroke:none;fill-rule:evenodd;fill:rgb(90.196078%,10.196078%,28.235294%);fill-opacity:1;" d="M 4.488281 9.679688 C 4.492188 9.679688 4.496094 9.679688 4.5 9.679688 C 4.519531 9.714844 4.542969 9.722656 4.578125 9.703125 C 4.574219 9.757812 4.585938 9.8125 4.605469 9.859375 C 4.597656 9.886719 4.578125 9.910156 4.554688 9.925781 C 4.566406 9.941406 4.582031 9.957031 4.59375 9.96875 C 4.558594 9.996094 4.519531 10.027344 4.488281 10.0625 C 4.394531 10.097656 4.292969 10.109375 4.191406 10.101562 C 4.183594 10.167969 4.175781 10.230469 4.167969 10.296875 C 4.171875 10.226562 4.167969 10.152344 4.152344 10.085938 C 4.167969 10.078125 4.179688 10.074219 4.191406 10.066406 C 4.261719 10.078125 4.335938 10.082031 4.40625 10.078125 C 4.402344 10.0625 4.410156 10.050781 4.421875 10.035156 C 4.386719 10.042969 4.351562 10.050781 4.320312 10.066406 C 4.304688 10.0625 4.296875 10.054688 4.308594 10.042969 C 4.328125 10.03125 4.347656 10.019531 4.367188 10.007812 C 4.285156 9.980469 4.199219 9.984375 4.113281 10.011719 C 4.097656 10.03125 4.101562 10.046875 4.125 10.0625 C 4.109375 10.078125 4.097656 10.101562 4.085938 10.128906 C 4.074219 10.125 4.0625 10.113281 4.058594 10.101562 C 4.089844 10.023438 4.066406 10.003906 3.988281 10.042969 C 3.945312 10.019531 3.898438 10.003906 3.847656 9.992188 C 3.835938 9.984375 3.832031 9.972656 3.839844 9.957031 C 3.863281 9.972656 3.886719 9.972656 3.914062 9.957031 C 3.886719 9.941406 3.859375 9.925781 3.832031 9.910156 C 3.886719 9.914062 3.933594 9.929688 3.972656 9.957031 C 3.980469 9.917969 3.980469 9.875 3.980469 9.835938 C 3.980469 9.832031 3.984375 9.828125 3.992188 9.824219 C 4.003906 9.871094 4.019531 9.914062 4.039062 9.957031 C 4.082031 9.941406 4.125 9.929688 4.167969 9.921875 C 4.167969 9.871094 4.167969 9.824219 4.167969 9.777344 C 4.191406 9.761719 4.246094 9.757812 4.328125 9.765625 C 4.328125 9.753906 4.328125 9.738281 4.328125 9.726562 C 4.339844 9.726562 4.355469 9.726562 4.367188 9.726562 C 4.339844 9.777344 4.359375 9.800781 4.421875 9.800781 C 4.414062 9.839844 4.40625 9.878906 4.402344 9.921875 C 4.394531 9.925781 4.386719 9.933594 4.378906 9.9375 C 4.421875 9.945312 4.460938 9.9375 4.5 9.921875 C 4.503906 9.90625 4.5 9.894531 4.488281 9.886719 C 4.472656 9.894531 4.453125 9.898438 4.433594 9.898438 C 4.429688 9.886719 4.433594 9.871094 4.441406 9.859375 C 4.460938 9.847656 4.480469 9.828125 4.5 9.8125 C 4.507812 9.78125 4.507812 9.75 4.5 9.714844 C 4.480469 9.730469 4.464844 9.730469 4.445312 9.714844 C 4.464844 9.707031 4.476562 9.695312 4.488281 9.679688 Z M 4.488281 9.679688 "/>
<path style=" stroke:none;fill-rule:evenodd;fill:rgb(100%,88.627451%,92.156863%);fill-opacity:1;" d="M 4.367188 9.910156 C 4.363281 9.925781 4.355469 9.933594 4.339844 9.9375 C 4.292969 9.945312 4.242188 9.945312 4.191406 9.945312 C 4.191406 9.894531 4.191406 9.839844 4.191406 9.789062 C 4.246094 9.785156 4.300781 9.789062 4.355469 9.808594 C 4.398438 9.839844 4.402344 9.871094 4.367188 9.910156 Z M 4.367188 9.910156 "/>
<path style=" stroke:none;fill-rule:evenodd;fill:rgb(95.294118%,98.823529%,97.254902%);fill-opacity:1;" d="M 4.367188 9.910156 C 4.316406 9.925781 4.261719 9.933594 4.207031 9.933594 C 4.207031 9.894531 4.207031 9.851562 4.207031 9.8125 C 4.257812 9.808594 4.308594 9.816406 4.355469 9.835938 C 4.347656 9.84375 4.34375 9.851562 4.339844 9.859375 C 4.359375 9.871094 4.367188 9.890625 4.367188 9.910156 Z M 4.367188 9.910156 "/>
<path style=" stroke:none;fill-rule:evenodd;fill:rgb(37.254902%,50.588235%,74.901961%);fill-opacity:1;" d="M 1.125 10.019531 C 1.128906 10.023438 1.132812 10.03125 1.140625 10.035156 C 1.023438 10.042969 0.910156 10.046875 0.792969 10.042969 C 0.792969 10.03125 0.792969 10.019531 0.792969 10.007812 C 0.90625 10.003906 1.015625 10.007812 1.125 10.019531 Z M 1.125 10.019531 "/>
<path style=" stroke:none;fill-rule:evenodd;fill:rgb(37.647059%,50.196078%,74.901961%);fill-opacity:1;" d="M 1.78125 10.042969 C 1.738281 10.042969 1.699219 10.042969 1.660156 10.042969 C 1.660156 10.03125 1.660156 10.019531 1.660156 10.007812 C 1.699219 10.007812 1.738281 10.007812 1.78125 10.007812 C 1.78125 10.019531 1.78125 10.03125 1.78125 10.042969 Z M 1.78125 10.042969 "/>
<path style=" stroke:none;fill-rule:evenodd;fill:rgb(99.215686%,69.803922%,74.901961%);fill-opacity:1;" d="M 3.417969 10.101562 C 3.453125 10.09375 3.488281 10.089844 3.527344 10.089844 C 3.566406 10.089844 3.605469 10.097656 3.632812 10.113281 C 3.5625 10.101562 3.492188 10.097656 3.417969 10.101562 Z M 3.417969 10.101562 "/>
<path style=" stroke:none;fill-rule:evenodd;fill:rgb(42.745098%,48.235294%,68.627451%);fill-opacity:1;" d="M 0.554688 10.113281 C 0.527344 10.113281 0.5 10.113281 0.472656 10.113281 C 0.460938 10.105469 0.457031 10.09375 0.460938 10.078125 C 0.5 10.078125 0.539062 10.078125 0.582031 10.078125 C 0.582031 10.097656 0.574219 10.109375 0.554688 10.113281 Z M 0.554688 10.113281 "/>
<path style=" stroke:none;fill-rule:evenodd;fill:rgb(38.823529%,50.588235%,70.980392%);fill-opacity:1;" d="M 1.78125 10.078125 C 1.78125 10.089844 1.78125 10.101562 1.78125 10.113281 C 1.738281 10.113281 1.699219 10.113281 1.660156 10.113281 C 1.660156 10.101562 1.660156 10.089844 1.660156 10.078125 C 1.699219 10.078125 1.738281 10.078125 1.78125 10.078125 Z M 1.78125 10.078125 "/>
<path style=" stroke:none;fill-rule:evenodd;fill:rgb(94.509804%,96.862745%,98.039216%);fill-opacity:1;" d="M 1.859375 9.800781 C 1.503906 9.808594 1.503906 9.816406 1.859375 9.824219 C 1.738281 9.839844 1.613281 9.839844 1.488281 9.824219 C 1.488281 9.835938 1.488281 9.847656 1.488281 9.859375 C 1.417969 9.855469 1.351562 9.859375 1.285156 9.871094 C 1.34375 9.898438 1.40625 9.90625 1.472656 9.898438 C 1.492188 9.898438 1.5 9.890625 1.5 9.871094 C 1.523438 9.871094 1.542969 9.871094 1.566406 9.871094 C 1.621094 9.898438 1.683594 9.90625 1.753906 9.898438 C 1.707031 9.902344 1.660156 9.914062 1.621094 9.933594 C 1.585938 9.929688 1.558594 9.9375 1.53125 9.957031 C 1.527344 9.949219 1.519531 9.945312 1.511719 9.9375 C 1.4375 9.933594 1.363281 9.929688 1.285156 9.933594 C 1.285156 9.945312 1.285156 9.957031 1.285156 9.96875 C 1.347656 9.96875 1.410156 9.96875 1.472656 9.96875 C 1.464844 9.980469 1.460938 9.992188 1.460938 10.007812 C 1.449219 10.015625 1.445312 10.027344 1.445312 10.042969 C 1.503906 10.042969 1.5625 10.042969 1.621094 10.042969 C 1.632812 10.042969 1.644531 10.042969 1.660156 10.042969 C 1.699219 10.042969 1.738281 10.042969 1.78125 10.042969 C 1.773438 10.050781 1.765625 10.058594 1.753906 10.0625 C 1.765625 10.0625 1.773438 10.070312 1.78125 10.078125 C 1.738281 10.078125 1.699219 10.078125 1.660156 10.078125 C 1.660156 10.089844 1.660156 10.101562 1.660156 10.113281 C 1.699219 10.113281 1.738281 10.113281 1.78125 10.113281 C 1.800781 10.132812 1.828125 10.144531 1.859375 10.152344 C 1.882812 10.171875 1.894531 10.191406 1.886719 10.21875 C 1.902344 10.21875 1.921875 10.21875 1.941406 10.210938 C 1.992188 10.226562 1.992188 10.242188 1.941406 10.261719 C 1.910156 10.230469 1.882812 10.230469 1.859375 10.261719 C 1.859375 10.246094 1.859375 10.234375 1.859375 10.222656 C 1.792969 10.222656 1.726562 10.222656 1.660156 10.222656 C 1.65625 10.203125 1.640625 10.199219 1.621094 10.207031 C 1.601562 10.21875 1.589844 10.238281 1.578125 10.261719 C 1.566406 10.265625 1.554688 10.269531 1.539062 10.273438 C 1.496094 10.25 1.453125 10.246094 1.40625 10.261719 C 1.40625 10.246094 1.40625 10.234375 1.40625 10.222656 C 1.339844 10.222656 1.273438 10.222656 1.207031 10.222656 C 1.160156 10.238281 1.109375 10.25 1.058594 10.261719 C 1.066406 10.246094 1.082031 10.234375 1.101562 10.230469 C 0.972656 10.222656 0.84375 10.222656 0.714844 10.222656 C 0.714844 10.234375 0.714844 10.246094 0.714844 10.261719 C 0.75 10.261719 0.785156 10.261719 0.820312 10.261719 C 0.777344 10.269531 0.734375 10.277344 0.6875 10.285156 C 0.582031 10.277344 0.480469 10.269531 0.378906 10.261719 C 0.472656 10.261719 0.566406 10.261719 0.660156 10.261719 C 0.660156 10.246094 0.660156 10.234375 0.660156 10.222656 C 0.566406 10.222656 0.472656 10.222656 0.378906 10.222656 C 0.355469 10.210938 0.351562 10.191406 0.367188 10.167969 C 0.355469 10.164062 0.347656 10.160156 0.339844 10.15625 C 0.390625 10.148438 0.433594 10.132812 0.472656 10.113281 C 0.5 10.113281 0.527344 10.113281 0.554688 10.113281 C 0.554688 10.128906 0.554688 10.140625 0.554688 10.152344 C 0.496094 10.152344 0.4375 10.152344 0.378906 10.152344 C 0.378906 10.164062 0.378906 10.175781 0.378906 10.1875 C 0.472656 10.1875 0.566406 10.1875 0.660156 10.1875 C 0.660156 10.175781 0.660156 10.164062 0.660156 10.152344 C 0.675781 10.167969 0.695312 10.167969 0.714844 10.152344 C 0.738281 10.140625 0.746094 10.125 0.726562 10.101562 C 0.75 10.09375 0.769531 10.085938 0.792969 10.078125 C 0.792969 10.089844 0.792969 10.101562 0.792969 10.113281 C 0.832031 10.113281 0.871094 10.113281 0.914062 10.113281 C 0.914062 10.101562 0.914062 10.089844 0.914062 10.078125 C 0.953125 10.078125 0.992188 10.078125 1.035156 10.078125 C 1.039062 10.070312 1.046875 10.0625 1.058594 10.0625 C 1.03125 10.058594 1.003906 10.058594 0.972656 10.054688 C 0.894531 10.066406 0.816406 10.070312 0.738281 10.066406 C 0.726562 10.0625 0.714844 10.058594 0.699219 10.054688 C 0.707031 10.050781 0.714844 10.046875 0.71875 10.042969 C 0.742188 10.035156 0.765625 10.035156 0.792969 10.042969 C 0.910156 10.046875 1.023438 10.042969 1.140625 10.035156 C 1.132812 10.03125 1.128906 10.023438 1.125 10.019531 C 1.152344 10.007812 1.179688 10.003906 1.207031 10.007812 C 1.207031 9.992188 1.207031 9.980469 1.207031 9.96875 C 1.175781 9.96875 1.144531 9.96875 1.113281 9.96875 C 1.121094 9.957031 1.128906 9.949219 1.140625 9.9375 C 1.023438 9.933594 0.910156 9.929688 0.792969 9.933594 C 0.792969 9.945312 0.792969 9.957031 0.792969 9.96875 C 0.773438 9.953125 0.753906 9.941406 0.726562 9.933594 C 0.753906 9.921875 0.777344 9.917969 0.804688 9.914062 C 0.800781 9.910156 0.792969 9.90625 0.792969 9.898438 C 0.828125 9.898438 0.863281 9.898438 0.898438 9.898438 C 0.933594 9.910156 0.96875 9.914062 1.007812 9.910156 C 1.007812 9.890625 1.007812 9.867188 1.007812 9.847656 C 1.042969 9.851562 1.078125 9.847656 1.113281 9.84375 C 0.976562 9.839844 0.84375 9.835938 0.714844 9.824219 C 0.863281 9.832031 1.011719 9.824219 1.152344 9.800781 C 1.125 9.789062 1.09375 9.785156 1.058594 9.789062 C 1.109375 9.777344 1.164062 9.773438 1.21875 9.769531 C 1.214844 9.765625 1.207031 9.757812 1.207031 9.753906 C 1.527344 9.742188 1.527344 9.734375 1.207031 9.726562 C 1.289062 9.71875 1.375 9.710938 1.460938 9.703125 C 1.503906 9.714844 1.527344 9.742188 1.539062 9.78125 C 1.648438 9.777344 1.753906 9.78125 1.859375 9.800781 Z M 1.859375 9.800781 "/>
<path style=" stroke:none;fill-rule:evenodd;fill:rgb(35.686275%,49.803922%,68.235294%);fill-opacity:1;" d="M 1.285156 10.078125 C 1.328125 10.078125 1.367188 10.078125 1.40625 10.078125 C 1.40625 10.089844 1.40625 10.101562 1.40625 10.113281 C 1.367188 10.113281 1.328125 10.113281 1.285156 10.113281 C 1.285156 10.101562 1.285156 10.089844 1.285156 10.078125 Z M 1.285156 10.078125 "/>
<path style=" stroke:none;fill-rule:evenodd;fill:rgb(40%,50.196078%,69.019608%);fill-opacity:1;" d="M 1.035156 10.078125 C 1.078125 10.078125 1.121094 10.078125 1.167969 10.078125 C 1.167969 10.089844 1.167969 10.101562 1.167969 10.113281 C 1.121094 10.113281 1.078125 10.113281 1.035156 10.113281 C 1.035156 10.101562 1.035156 10.089844 1.035156 10.078125 Z M 1.035156 10.078125 "/>
<path style=" stroke:none;fill-rule:evenodd;fill:rgb(37.647059%,48.235294%,63.921569%);fill-opacity:1;" d="M 0.792969 10.078125 C 0.832031 10.078125 0.871094 10.078125 0.914062 10.078125 C 0.914062 10.089844 0.914062 10.101562 0.914062 10.113281 C 0.871094 10.113281 0.832031 10.113281 0.792969 10.113281 C 0.792969 10.101562 0.792969 10.089844 0.792969 10.078125 Z M 0.792969 10.078125 "/>
<path style=" stroke:none;fill-rule:evenodd;fill:rgb(40%,50.196078%,67.843137%);fill-opacity:1;" d="M 1.460938 10.089844 C 1.5 10.078125 1.546875 10.074219 1.59375 10.078125 C 1.59375 10.089844 1.59375 10.101562 1.59375 10.113281 C 1.542969 10.121094 1.5 10.113281 1.460938 10.089844 Z M 1.460938 10.089844 "/>
<path style=" stroke:none;fill-rule:evenodd;fill:rgb(37.647059%,49.411765%,70.588235%);fill-opacity:1;" d="M 1.285156 10.007812 C 1.328125 10.007812 1.367188 10.007812 1.40625 10.007812 C 1.40625 10.019531 1.40625 10.03125 1.40625 10.042969 C 1.367188 10.042969 1.328125 10.042969 1.285156 10.042969 C 1.285156 10.03125 1.285156 10.019531 1.285156 10.007812 Z M 1.285156 10.007812 "/>
<path style=" stroke:none;fill-rule:evenodd;fill:rgb(38.431373%,50.588235%,72.54902%);fill-opacity:1;" d="M 1.113281 9.96875 C 1.007812 9.96875 0.898438 9.96875 0.792969 9.96875 C 0.792969 9.957031 0.792969 9.945312 0.792969 9.933594 C 0.910156 9.929688 1.023438 9.933594 1.140625 9.9375 C 1.128906 9.949219 1.121094 9.957031 1.113281 9.96875 Z M 1.113281 9.96875 "/>
<path style=" stroke:none;fill-rule:evenodd;fill:rgb(31.764706%,50.588235%,75.686275%);fill-opacity:1;" d="M 1.285156 9.871094 C 1.355469 9.863281 1.417969 9.875 1.472656 9.898438 C 1.40625 9.90625 1.34375 9.898438 1.285156 9.871094 Z M 1.285156 9.871094 "/>
<path style=" stroke:none;fill-rule:evenodd;fill:rgb(41.568627%,52.54902%,76.862745%);fill-opacity:1;" d="M 1.035156 9.859375 C 1.078125 9.859375 1.121094 9.859375 1.167969 9.859375 C 1.167969 9.871094 1.167969 9.886719 1.167969 9.898438 C 1.121094 9.898438 1.078125 9.898438 1.035156 9.898438 C 1.035156 9.886719 1.035156 9.871094 1.035156 9.859375 Z M 1.035156 9.859375 "/>
<path style=" stroke:none;fill-rule:evenodd;fill:rgb(35.294118%,48.627451%,74.117647%);fill-opacity:1;" d="M 1.207031 9.800781 C 1.296875 9.796875 1.386719 9.800781 1.472656 9.8125 C 1.429688 9.816406 1.382812 9.820312 1.339844 9.824219 C 1.289062 9.824219 1.246094 9.816406 1.207031 9.800781 Z M 1.207031 9.800781 "/>
<path style=" stroke:none;fill-rule:evenodd;fill:rgb(37.254902%,50.980392%,72.156863%);fill-opacity:1;" d="M 0.714844 10.152344 C 0.863281 10.148438 1.015625 10.152344 1.167969 10.15625 C 1.160156 10.164062 1.15625 10.167969 1.152344 10.175781 C 1.007812 10.1875 0.859375 10.191406 0.714844 10.1875 C 0.714844 10.175781 0.714844 10.164062 0.714844 10.152344 Z M 0.714844 10.152344 "/>
<path style=" stroke:none;fill-rule:evenodd;fill:rgb(37.647059%,58.431373%,76.862745%);fill-opacity:1;" d="M 2.6875 9.605469 C 2.859375 9.636719 2.972656 9.730469 3.027344 9.886719 C 3.050781 10.15625 2.910156 10.3125 2.613281 10.34375 C 2.355469 10.316406 2.21875 10.179688 2.207031 9.945312 C 2.222656 9.996094 2.242188 10.042969 2.273438 10.089844 C 2.3125 10.085938 2.347656 10.074219 2.378906 10.054688 C 2.386719 10.054688 2.394531 10.058594 2.394531 10.066406 C 2.371094 10.085938 2.355469 10.109375 2.339844 10.132812 C 2.453125 10.140625 2.5625 10.140625 2.671875 10.140625 C 2.675781 10.121094 2.671875 10.097656 2.667969 10.078125 C 2.652344 10.089844 2.636719 10.09375 2.621094 10.089844 C 2.582031 10.09375 2.550781 10.089844 2.511719 10.085938 C 2.488281 10.082031 2.484375 10.074219 2.5 10.0625 C 2.570312 10.039062 2.632812 10.007812 2.691406 9.96875 C 2.710938 9.996094 2.730469 10 2.753906 9.980469 C 2.785156 9.988281 2.816406 9.980469 2.839844 9.957031 C 2.855469 9.980469 2.871094 9.984375 2.894531 9.96875 C 2.878906 9.964844 2.863281 9.945312 2.859375 9.914062 C 2.863281 9.898438 2.867188 9.878906 2.875 9.859375 C 2.867188 9.855469 2.863281 9.851562 2.859375 9.847656 C 2.851562 9.863281 2.839844 9.875 2.832031 9.886719 C 2.792969 9.820312 2.769531 9.75 2.753906 9.671875 C 2.761719 9.667969 2.769531 9.664062 2.78125 9.660156 C 2.746094 9.65625 2.71875 9.644531 2.6875 9.636719 C 2.699219 9.632812 2.714844 9.628906 2.726562 9.625 C 2.710938 9.621094 2.695312 9.617188 2.6875 9.605469 Z M 2.6875 9.605469 "/>
<path style=" stroke:none;fill-rule:evenodd;fill:rgb(93.72549%,98.039216%,98.823529%);fill-opacity:1;" d="M 2.394531 10.066406 C 2.398438 10.066406 2.402344 10.066406 2.40625 10.066406 C 2.410156 10.078125 2.402344 10.089844 2.394531 10.097656 C 2.472656 10.105469 2.546875 10.105469 2.621094 10.089844 C 2.636719 10.09375 2.652344 10.089844 2.667969 10.078125 C 2.671875 10.097656 2.675781 10.121094 2.671875 10.140625 C 2.5625 10.140625 2.453125 10.140625 2.339844 10.132812 C 2.355469 10.109375 2.371094 10.085938 2.394531 10.066406 Z M 2.394531 10.066406 "/>
<path style=" stroke:none;fill-rule:evenodd;fill:rgb(98.431373%,92.941176%,93.72549%);fill-opacity:1;" d="M 4.59375 9.96875 C 4.613281 9.984375 4.636719 10 4.660156 10.011719 C 4.738281 10.03125 4.8125 10.058594 4.886719 10.089844 C 4.90625 10.144531 4.882812 10.171875 4.820312 10.175781 C 4.769531 10.175781 4.730469 10.15625 4.714844 10.113281 C 4.644531 10.101562 4.570312 10.097656 4.5 10.101562 C 4.5 10.09375 4.496094 10.085938 4.488281 10.078125 C 4.402344 10.117188 4.316406 10.136719 4.21875 10.140625 C 4.222656 10.207031 4.222656 10.269531 4.21875 10.332031 C 4.152344 10.347656 4.082031 10.347656 4.011719 10.332031 C 3.996094 10.34375 3.988281 10.355469 3.992188 10.371094 C 3.972656 10.363281 3.949219 10.355469 3.925781 10.351562 C 3.949219 10.339844 3.957031 10.320312 3.953125 10.296875 C 3.941406 10.296875 3.925781 10.296875 3.914062 10.296875 C 3.921875 10.289062 3.933594 10.28125 3.941406 10.273438 C 3.949219 10.269531 3.957031 10.265625 3.964844 10.261719 C 3.980469 10.28125 3.984375 10.300781 3.980469 10.320312 C 4.050781 10.320312 4.121094 10.320312 4.191406 10.320312 C 4.191406 10.246094 4.191406 10.175781 4.191406 10.101562 C 4.292969 10.109375 4.394531 10.097656 4.488281 10.0625 C 4.519531 10.027344 4.558594 9.996094 4.59375 9.96875 Z M 4.59375 9.96875 "/>
<path style=" stroke:none;fill-rule:evenodd;fill:rgb(36.470588%,49.411765%,72.54902%);fill-opacity:1;" d="M 0.554688 10.152344 C 0.589844 10.152344 0.625 10.152344 0.660156 10.152344 C 0.660156 10.164062 0.660156 10.175781 0.660156 10.1875 C 0.566406 10.1875 0.472656 10.1875 0.378906 10.1875 C 0.378906 10.175781 0.378906 10.164062 0.378906 10.152344 C 0.4375 10.152344 0.496094 10.152344 0.554688 10.152344 Z M 0.554688 10.152344 "/>
<path style=" stroke:none;fill-rule:evenodd;fill:rgb(36.862745%,50.196078%,72.156863%);fill-opacity:1;" d="M 1.207031 10.152344 C 1.273438 10.152344 1.339844 10.152344 1.40625 10.152344 C 1.40625 10.164062 1.40625 10.175781 1.40625 10.1875 C 1.339844 10.1875 1.273438 10.1875 1.207031 10.1875 C 1.207031 10.175781 1.207031 10.164062 1.207031 10.152344 Z M 1.207031 10.152344 "/>
<path style=" stroke:none;fill-rule:evenodd;fill:rgb(40.392157%,52.156863%,67.843137%);fill-opacity:1;" d="M 1.5 10.152344 C 1.523438 10.152344 1.542969 10.152344 1.566406 10.152344 C 1.566406 10.164062 1.566406 10.175781 1.566406 10.1875 C 1.542969 10.1875 1.523438 10.1875 1.5 10.1875 C 1.5 10.175781 1.5 10.164062 1.5 10.152344 Z M 1.5 10.152344 "/>
<path style=" stroke:none;fill-rule:evenodd;fill:rgb(35.294118%,49.803922%,73.333333%);fill-opacity:1;" d="M 1.859375 10.152344 C 1.859375 10.164062 1.859375 10.175781 1.859375 10.1875 C 1.792969 10.1875 1.726562 10.1875 1.660156 10.1875 C 1.660156 10.175781 1.660156 10.164062 1.660156 10.152344 C 1.726562 10.152344 1.792969 10.152344 1.859375 10.152344 Z M 1.859375 10.152344 "/>
<path style=" stroke:none;fill-rule:evenodd;fill:rgb(41.568627%,50.196078%,72.54902%);fill-opacity:1;" d="M 0.378906 10.222656 C 0.472656 10.222656 0.566406 10.222656 0.660156 10.222656 C 0.660156 10.234375 0.660156 10.246094 0.660156 10.261719 C 0.566406 10.261719 0.472656 10.261719 0.378906 10.261719 C 0.378906 10.246094 0.378906 10.234375 0.378906 10.222656 Z M 0.378906 10.222656 "/>
<path style=" stroke:none;fill-rule:evenodd;fill:rgb(40.784314%,52.54902%,74.117647%);fill-opacity:1;" d="M 1.058594 10.261719 C 0.980469 10.261719 0.898438 10.261719 0.820312 10.261719 C 0.785156 10.261719 0.75 10.261719 0.714844 10.261719 C 0.714844 10.246094 0.714844 10.234375 0.714844 10.222656 C 0.84375 10.222656 0.972656 10.222656 1.101562 10.230469 C 1.082031 10.234375 1.066406 10.246094 1.058594 10.261719 Z M 1.058594 10.261719 "/>
<path style=" stroke:none;fill-rule:evenodd;fill:rgb(38.431373%,52.54902%,72.941176%);fill-opacity:1;" d="M 1.207031 10.222656 C 1.273438 10.222656 1.339844 10.222656 1.40625 10.222656 C 1.40625 10.234375 1.40625 10.246094 1.40625 10.261719 C 1.339844 10.261719 1.273438 10.261719 1.207031 10.261719 C 1.207031 10.246094 1.207031 10.234375 1.207031 10.222656 Z M 1.207031 10.222656 "/>
<path style=" stroke:none;fill-rule:evenodd;fill:rgb(38.823529%,51.372549%,73.72549%);fill-opacity:1;" d="M 1.660156 10.222656 C 1.726562 10.222656 1.792969 10.222656 1.859375 10.222656 C 1.859375 10.234375 1.859375 10.246094 1.859375 10.261719 C 1.792969 10.261719 1.726562 10.261719 1.660156 10.261719 C 1.660156 10.246094 1.660156 10.234375 1.660156 10.222656 Z M 1.660156 10.222656 "/>
<path style=" stroke:none;fill-rule:evenodd;fill:rgb(77.647059%,23.921569%,35.686275%);fill-opacity:1;" d="M 4.191406 10.101562 C 4.191406 10.175781 4.191406 10.246094 4.191406 10.320312 C 4.121094 10.320312 4.050781 10.320312 3.980469 10.320312 C 3.984375 10.300781 3.980469 10.28125 3.964844 10.261719 C 3.957031 10.265625 3.949219 10.269531 3.941406 10.273438 C 3.949219 10.25 3.964844 10.242188 3.992188 10.246094 C 3.992188 10.269531 3.992188 10.289062 3.992188 10.308594 C 4.050781 10.3125 4.109375 10.308594 4.167969 10.296875 C 4.175781 10.230469 4.183594 10.167969 4.191406 10.101562 Z M 4.191406 10.101562 "/>
</g>
</svg>
