<?xml version="1.0" encoding="UTF-8"?>
<svg xmlns="http://www.w3.org/2000/svg" xmlns:xlink="http://www.w3.org/1999/xlink" width="59px" height="20px" viewBox="0 0 6 20" version="1.1">
<g id="surface1">
<path style=" stroke:none;fill-rule:evenodd;fill:rgb(99.607843%,99.607843%,99.607843%);fill-opacity:1;" d="M -0.0078125 8.292969 C 1.992188 8.292969 3.988281 8.292969 5.992188 8.292969 C 5.992188 9.425781 5.992188 10.554688 5.992188 11.683594 C 3.988281 11.683594 1.992188 11.683594 -0.0078125 11.683594 C -0.0078125 10.554688 -0.0078125 9.425781 -0.0078125 8.292969 Z M -0.0078125 8.292969 "/>
<path style=" stroke:none;fill-rule:evenodd;fill:rgb(54.901961%,6.27451%,4.313725%);fill-opacity:1;" d="M 1.933594 9.382812 C 1.933594 9.472656 1.933594 9.566406 1.933594 9.660156 C 1.914062 9.660156 1.894531 9.660156 1.878906 9.660156 C 1.878906 9.628906 1.878906 9.601562 1.878906 9.574219 C 1.765625 9.550781 1.652344 9.539062 1.539062 9.542969 C 1.414062 9.71875 1.292969 9.902344 1.179688 10.085938 C 1.226562 10.191406 1.273438 10.296875 1.320312 10.40625 C 1.347656 10.421875 1.375 10.429688 1.40625 10.425781 C 1.40625 10.453125 1.40625 10.484375 1.40625 10.511719 C 1.246094 10.515625 1.089844 10.511719 0.933594 10.5 C 0.855469 10.472656 0.804688 10.414062 0.792969 10.320312 C 0.789062 10.160156 0.785156 10 0.78125 9.839844 C 0.78125 9.664062 0.789062 9.488281 0.8125 9.316406 C 0.839844 9.277344 0.875 9.246094 0.914062 9.222656 C 1.214844 9.207031 1.519531 9.207031 1.820312 9.222656 C 1.882812 9.253906 1.921875 9.304688 1.933594 9.382812 Z M 1.933594 9.382812 "/>
<path style=" stroke:none;fill-rule:evenodd;fill:rgb(94.117647%,89.019608%,89.019608%);fill-opacity:1;" d="M 0.933594 9.277344 C 1.003906 9.277344 1.074219 9.277344 1.140625 9.277344 C 1.140625 9.308594 1.140625 9.347656 1.140625 9.382812 C 1.058594 9.375 0.976562 9.355469 0.894531 9.328125 C 0.914062 9.3125 0.925781 9.296875 0.933594 9.277344 Z M 0.933594 9.277344 "/>
<path style=" stroke:none;fill-rule:evenodd;fill:rgb(95.686275%,92.156863%,92.156863%);fill-opacity:1;" d="M 1.199219 9.277344 C 1.285156 9.277344 1.375 9.277344 1.460938 9.277344 C 1.460938 9.324219 1.460938 9.375 1.460938 9.425781 C 1.375 9.425781 1.285156 9.417969 1.199219 9.402344 C 1.199219 9.359375 1.199219 9.316406 1.199219 9.277344 Z M 1.199219 9.277344 "/>
<path style=" stroke:none;fill-rule:evenodd;fill:rgb(96.470588%,93.72549%,93.333333%);fill-opacity:1;" d="M 1.519531 9.277344 C 1.605469 9.273438 1.695312 9.277344 1.785156 9.285156 C 1.863281 9.332031 1.894531 9.40625 1.878906 9.511719 C 1.769531 9.492188 1.664062 9.472656 1.554688 9.457031 C 1.527344 9.398438 1.515625 9.339844 1.519531 9.277344 Z M 1.519531 9.277344 "/>
<path style=" stroke:none;fill-rule:evenodd;fill:rgb(96.862745%,93.72549%,93.72549%);fill-opacity:1;" d="M 0.894531 9.402344 C 0.976562 9.410156 1.050781 9.433594 1.121094 9.464844 C 1.082031 9.53125 1.039062 9.59375 1 9.660156 C 0.960938 9.578125 0.925781 9.488281 0.894531 9.402344 Z M 0.894531 9.402344 "/>
<path style=" stroke:none;fill-rule:evenodd;fill:rgb(78.039216%,58.431373%,58.039216%);fill-opacity:1;" d="M 1.933594 9.382812 C 1.953125 9.476562 1.960938 9.578125 1.953125 9.679688 C 1.921875 9.6875 1.898438 9.679688 1.878906 9.660156 C 1.894531 9.660156 1.914062 9.660156 1.933594 9.660156 C 1.933594 9.566406 1.933594 9.472656 1.933594 9.382812 Z M 1.933594 9.382812 "/>
<path style=" stroke:none;fill-rule:evenodd;fill:rgb(98.039216%,96.470588%,96.470588%);fill-opacity:1;" d="M 1.199219 9.464844 C 1.292969 9.472656 1.386719 9.488281 1.480469 9.519531 C 1.363281 9.675781 1.253906 9.835938 1.152344 10 C 1.101562 9.914062 1.0625 9.828125 1.027344 9.734375 C 1.082031 9.640625 1.136719 9.550781 1.199219 9.464844 Z M 1.199219 9.464844 "/>
<path style=" stroke:none;fill-rule:evenodd;fill:rgb(17.647059%,17.647059%,17.647059%);fill-opacity:1;" d="M 3.914062 9.488281 C 3.953125 9.488281 3.988281 9.488281 4.027344 9.488281 C 4.027344 9.824219 4.027344 10.15625 4.027344 10.488281 C 3.589844 10.640625 3.410156 10.460938 3.492188 9.957031 C 3.503906 9.863281 3.550781 9.800781 3.632812 9.777344 C 3.726562 9.765625 3.820312 9.761719 3.914062 9.765625 C 3.914062 9.671875 3.914062 9.582031 3.914062 9.488281 Z M 3.914062 9.488281 "/>
<path style=" stroke:none;fill-rule:evenodd;fill:rgb(96.470588%,92.941176%,92.941176%);fill-opacity:1;" d="M 0.859375 9.511719 C 0.898438 9.5625 0.921875 9.628906 0.933594 9.703125 C 0.910156 9.703125 0.882812 9.703125 0.859375 9.703125 C 0.859375 9.636719 0.859375 9.574219 0.859375 9.511719 Z M 0.859375 9.511719 "/>
<path style=" stroke:none;fill-rule:evenodd;fill:rgb(98.431373%,96.862745%,96.862745%);fill-opacity:1;" d="M 0.859375 9.765625 C 0.902344 9.765625 0.945312 9.765625 0.988281 9.765625 C 1.011719 9.855469 1.042969 9.941406 1.085938 10.019531 C 1.011719 10.058594 0.9375 10.074219 0.859375 10.0625 C 0.859375 9.964844 0.859375 9.863281 0.859375 9.765625 Z M 0.859375 9.765625 "/>
<path style=" stroke:none;fill-rule:evenodd;fill:rgb(18.823529%,18.823529%,18.823529%);fill-opacity:1;" d="M 1.613281 9.765625 C 1.71875 9.765625 1.828125 9.765625 1.933594 9.765625 C 1.933594 9.800781 1.933594 9.835938 1.933594 9.871094 C 1.839844 9.867188 1.746094 9.871094 1.652344 9.882812 C 1.609375 9.925781 1.605469 9.976562 1.632812 10.03125 C 1.71875 10.074219 1.808594 10.117188 1.894531 10.160156 C 1.976562 10.238281 1.992188 10.335938 1.941406 10.449219 C 1.925781 10.472656 1.902344 10.492188 1.878906 10.5 C 1.753906 10.511719 1.625 10.515625 1.5 10.511719 C 1.5 10.476562 1.5 10.441406 1.5 10.40625 C 1.617188 10.410156 1.734375 10.40625 1.847656 10.382812 C 1.867188 10.328125 1.855469 10.285156 1.820312 10.246094 C 1.714844 10.210938 1.617188 10.15625 1.527344 10.085938 C 1.46875 9.945312 1.496094 9.835938 1.613281 9.765625 Z M 1.613281 9.765625 "/>
<path style=" stroke:none;fill-rule:evenodd;fill:rgb(17.647059%,17.647059%,17.647059%);fill-opacity:1;" d="M 2.234375 9.765625 C 2.351562 9.753906 2.464844 9.769531 2.574219 9.820312 C 2.636719 9.902344 2.660156 9.996094 2.652344 10.105469 C 2.675781 10.464844 2.527344 10.601562 2.21875 10.511719 C 2.21875 10.605469 2.21875 10.695312 2.21875 10.789062 C 2.179688 10.789062 2.140625 10.789062 2.105469 10.789062 C 2.105469 10.453125 2.105469 10.121094 2.105469 9.785156 C 2.152344 9.792969 2.195312 9.785156 2.234375 9.765625 Z M 2.234375 9.765625 "/>
<path style=" stroke:none;fill-rule:evenodd;fill:rgb(18.039216%,18.039216%,18.039216%);fill-opacity:1;" d="M 4.332031 9.765625 C 4.441406 9.757812 4.546875 9.773438 4.652344 9.820312 C 4.667969 9.847656 4.683594 9.878906 4.699219 9.914062 C 4.707031 10.007812 4.710938 10.097656 4.707031 10.191406 C 4.570312 10.191406 4.429688 10.191406 4.292969 10.191406 C 4.28125 10.269531 4.300781 10.335938 4.347656 10.394531 C 4.457031 10.40625 4.5625 10.410156 4.667969 10.40625 C 4.667969 10.441406 4.667969 10.476562 4.667969 10.511719 C 4.542969 10.515625 4.417969 10.511719 4.292969 10.5 C 4.222656 10.457031 4.1875 10.390625 4.1875 10.296875 C 4.175781 10.175781 4.175781 10.058594 4.1875 9.9375 C 4.214844 9.855469 4.261719 9.796875 4.332031 9.765625 Z M 4.332031 9.765625 "/>
<path style=" stroke:none;fill-rule:evenodd;fill:rgb(17.254902%,17.254902%,17.254902%);fill-opacity:1;" d="M 4.933594 9.765625 C 5.015625 9.761719 5.097656 9.769531 5.179688 9.785156 C 5.179688 9.816406 5.179688 9.84375 5.179688 9.871094 C 5.117188 9.867188 5.054688 9.871094 4.992188 9.882812 C 4.980469 9.894531 4.972656 9.90625 4.960938 9.914062 C 4.953125 10.113281 4.949219 10.3125 4.953125 10.511719 C 4.921875 10.511719 4.890625 10.511719 4.859375 10.511719 C 4.855469 10.292969 4.859375 10.070312 4.867188 9.851562 C 4.890625 9.820312 4.910156 9.789062 4.933594 9.765625 Z M 4.933594 9.765625 "/>
<path style=" stroke:none;fill-rule:evenodd;fill:rgb(18.039216%,18.039216%,18.039216%);fill-opacity:1;" d="M 3.214844 10.40625 C 3.234375 10.203125 3.242188 9.996094 3.234375 9.785156 C 3.265625 9.785156 3.300781 9.785156 3.332031 9.785156 C 3.332031 10.0625 3.332031 10.339844 3.320312 10.617188 C 3.308594 10.722656 3.253906 10.777344 3.160156 10.777344 C 3.066406 10.792969 2.972656 10.792969 2.878906 10.777344 C 2.859375 10.75 2.855469 10.71875 2.859375 10.683594 C 2.957031 10.6875 3.058594 10.683594 3.160156 10.671875 C 3.207031 10.632812 3.226562 10.578125 3.214844 10.511719 C 3.117188 10.515625 3.015625 10.511719 2.914062 10.5 C 2.839844 10.460938 2.796875 10.394531 2.792969 10.296875 C 2.785156 10.128906 2.78125 9.957031 2.785156 9.785156 C 2.820312 9.785156 2.859375 9.785156 2.894531 9.785156 C 2.894531 9.957031 2.894531 10.128906 2.90625 10.296875 C 2.917969 10.339844 2.9375 10.375 2.972656 10.394531 C 3.050781 10.40625 3.136719 10.410156 3.214844 10.40625 Z M 3.214844 10.40625 "/>
<path style=" stroke:none;fill-rule:evenodd;fill:rgb(42.745098%,42.745098%,42.745098%);fill-opacity:1;" d="M 3.332031 9.785156 C 3.300781 9.785156 3.265625 9.785156 3.234375 9.785156 C 3.242188 9.996094 3.234375 10.203125 3.214844 10.40625 C 3.214844 10.191406 3.214844 9.980469 3.214844 9.765625 C 3.257812 9.757812 3.296875 9.765625 3.332031 9.785156 Z M 3.332031 9.785156 "/>
<path style=" stroke:none;fill-rule:evenodd;fill:rgb(98.039216%,97.647059%,97.647059%);fill-opacity:1;" d="M 2.21875 9.871094 C 2.308594 9.863281 2.394531 9.875 2.480469 9.90625 C 2.527344 9.972656 2.546875 10.050781 2.539062 10.140625 C 2.539062 10.222656 2.527344 10.300781 2.5 10.375 C 2.410156 10.402344 2.3125 10.414062 2.21875 10.40625 C 2.21875 10.226562 2.21875 10.050781 2.21875 9.871094 Z M 2.21875 9.871094 "/>
<path style=" stroke:none;fill-rule:evenodd;fill:rgb(97.647059%,97.647059%,97.647059%);fill-opacity:1;" d="M 3.6875 9.871094 C 3.765625 9.871094 3.839844 9.871094 3.914062 9.871094 C 3.914062 10.050781 3.914062 10.226562 3.914062 10.40625 C 3.832031 10.410156 3.75 10.40625 3.671875 10.394531 C 3.636719 10.382812 3.613281 10.359375 3.605469 10.320312 C 3.589844 10.207031 3.589844 10.09375 3.605469 9.980469 C 3.625 9.933594 3.652344 9.898438 3.6875 9.871094 Z M 3.6875 9.871094 "/>
<path style=" stroke:none;fill-rule:evenodd;fill:rgb(97.254902%,97.254902%,97.254902%);fill-opacity:1;" d="M 4.59375 10 C 4.59375 10.027344 4.59375 10.058594 4.59375 10.085938 C 4.496094 10.085938 4.394531 10.085938 4.292969 10.085938 C 4.292969 9.914062 4.367188 9.84375 4.519531 9.882812 C 4.570312 9.902344 4.59375 9.941406 4.59375 10 Z M 4.59375 10 "/>
<path style=" stroke:none;fill-rule:evenodd;fill:rgb(65.882353%,65.882353%,65.882353%);fill-opacity:1;" d="M 4.59375 10 C 4.613281 10.03125 4.617188 10.066406 4.613281 10.105469 C 4.503906 10.113281 4.394531 10.105469 4.292969 10.085938 C 4.394531 10.085938 4.496094 10.085938 4.59375 10.085938 C 4.59375 10.058594 4.59375 10.027344 4.59375 10 Z M 4.59375 10 "/>
<path style=" stroke:none;fill-rule:evenodd;fill:rgb(98.823529%,97.647059%,97.647059%);fill-opacity:1;" d="M 1.253906 10.40625 C 1.164062 10.425781 1.070312 10.433594 0.972656 10.425781 C 0.921875 10.421875 0.886719 10.394531 0.867188 10.339844 C 0.859375 10.269531 0.855469 10.199219 0.859375 10.128906 C 0.945312 10.125 1.035156 10.121094 1.121094 10.117188 C 1.167969 10.210938 1.214844 10.308594 1.253906 10.40625 Z M 1.253906 10.40625 "/>
<path style=" stroke:none;fill-rule:evenodd;fill:rgb(68.627451%,40.392157%,40%);fill-opacity:1;" d="M 1.253906 10.40625 C 1.265625 10.40625 1.269531 10.414062 1.273438 10.425781 C 1.167969 10.453125 1.070312 10.453125 0.972656 10.425781 C 1.070312 10.433594 1.164062 10.425781 1.253906 10.40625 Z M 1.253906 10.40625 "/>
</g>
</svg>
