<?xml version="1.0" encoding="UTF-8"?>
<svg xmlns="http://www.w3.org/2000/svg" xmlns:xlink="http://www.w3.org/1999/xlink" width="20px" height="59px" viewBox="0 0 20 10" version="1.1">
<g id="surface1">
<path style=" stroke:none;fill-rule:evenodd;fill:rgb(99.607843%,99.607843%,99.607843%);fill-opacity:1;" d="M -0.03125 -0.03125 C 6.636719 -0.03125 13.300781 -0.03125 19.96875 -0.03125 C 19.96875 3.300781 19.96875 6.636719 19.96875 9.96875 C 13.300781 9.96875 6.636719 9.96875 -0.03125 9.96875 C -0.03125 6.636719 -0.03125 3.300781 -0.03125 -0.03125 Z M -0.03125 -0.03125 "/>
<path style=" stroke:none;fill-rule:evenodd;fill:rgb(54.901961%,6.27451%,4.313725%);fill-opacity:1;" d="M 6.445312 3.175781 C 6.445312 3.449219 6.445312 3.722656 6.445312 3.992188 C 6.382812 3.992188 6.320312 3.992188 6.257812 3.992188 C 6.257812 3.910156 6.257812 3.824219 6.257812 3.742188 C 5.882812 3.671875 5.503906 3.640625 5.125 3.648438 C 4.714844 4.171875 4.316406 4.707031 3.929688 5.25 C 4.089844 5.566406 4.246094 5.878906 4.402344 6.195312 C 4.488281 6.25 4.582031 6.269531 4.683594 6.257812 C 4.683594 6.339844 4.683594 6.425781 4.683594 6.507812 C 4.160156 6.519531 3.636719 6.507812 3.113281 6.476562 C 2.847656 6.398438 2.6875 6.222656 2.640625 5.945312 C 2.632812 5.472656 2.621094 5 2.609375 4.527344 C 2.601562 4.007812 2.632812 3.496094 2.703125 2.988281 C 2.800781 2.871094 2.917969 2.773438 3.050781 2.703125 C 4.054688 2.664062 5.0625 2.664062 6.070312 2.703125 C 6.277344 2.796875 6.402344 2.953125 6.445312 3.175781 Z M 6.445312 3.175781 "/>
<path style=" stroke:none;fill-rule:evenodd;fill:rgb(94.117647%,89.019608%,89.019608%);fill-opacity:1;" d="M 3.113281 2.863281 C 3.34375 2.863281 3.574219 2.863281 3.804688 2.863281 C 3.804688 2.964844 3.804688 3.070312 3.804688 3.175781 C 3.523438 3.15625 3.253906 3.101562 2.988281 3.019531 C 3.042969 2.972656 3.085938 2.921875 3.113281 2.863281 Z M 3.113281 2.863281 "/>
<path style=" stroke:none;fill-rule:evenodd;fill:rgb(95.686275%,92.156863%,92.156863%);fill-opacity:1;" d="M 3.992188 2.863281 C 4.289062 2.863281 4.582031 2.863281 4.875 2.863281 C 4.875 3.007812 4.875 3.15625 4.875 3.300781 C 4.578125 3.300781 4.285156 3.277344 3.992188 3.238281 C 3.992188 3.113281 3.992188 2.988281 3.992188 2.863281 Z M 3.992188 2.863281 "/>
<path style=" stroke:none;fill-rule:evenodd;fill:rgb(96.470588%,93.72549%,93.333333%);fill-opacity:1;" d="M 5.0625 2.863281 C 5.355469 2.851562 5.652344 2.863281 5.945312 2.894531 C 6.207031 3.03125 6.3125 3.253906 6.257812 3.554688 C 5.902344 3.5 5.546875 3.449219 5.1875 3.394531 C 5.09375 3.230469 5.054688 3.054688 5.0625 2.863281 Z M 5.0625 2.863281 "/>
<path style=" stroke:none;fill-rule:evenodd;fill:rgb(96.862745%,93.72549%,93.72549%);fill-opacity:1;" d="M 2.988281 3.238281 C 3.25 3.261719 3.5 3.324219 3.742188 3.425781 C 3.605469 3.617188 3.46875 3.804688 3.332031 3.992188 C 3.199219 3.75 3.085938 3.496094 2.988281 3.238281 Z M 2.988281 3.238281 "/>
<path style=" stroke:none;fill-rule:evenodd;fill:rgb(78.039216%,58.431373%,58.039216%);fill-opacity:1;" d="M 6.445312 3.175781 C 6.507812 3.457031 6.53125 3.75 6.507812 4.054688 C 6.410156 4.074219 6.324219 4.050781 6.257812 3.992188 C 6.320312 3.992188 6.382812 3.992188 6.445312 3.992188 C 6.445312 3.722656 6.445312 3.449219 6.445312 3.175781 Z M 6.445312 3.175781 "/>
<path style=" stroke:none;fill-rule:evenodd;fill:rgb(98.039216%,96.470588%,96.470588%);fill-opacity:1;" d="M 3.992188 3.425781 C 4.3125 3.445312 4.628906 3.496094 4.9375 3.585938 C 4.546875 4.039062 4.179688 4.511719 3.835938 5 C 3.675781 4.75 3.539062 4.488281 3.425781 4.214844 C 3.605469 3.941406 3.792969 3.679688 3.992188 3.425781 Z M 3.992188 3.425781 "/>
<path style=" stroke:none;fill-rule:evenodd;fill:rgb(17.647059%,17.647059%,17.647059%);fill-opacity:1;" d="M 13.050781 3.492188 C 13.175781 3.492188 13.300781 3.492188 13.425781 3.492188 C 13.425781 4.476562 13.425781 5.460938 13.425781 6.445312 C 11.96875 6.886719 11.371094 6.363281 11.636719 4.875 C 11.679688 4.597656 11.839844 4.417969 12.105469 4.339844 C 12.421875 4.308594 12.734375 4.296875 13.050781 4.308594 C 13.050781 4.035156 13.050781 3.761719 13.050781 3.492188 Z M 13.050781 3.492188 "/>
<path style=" stroke:none;fill-rule:evenodd;fill:rgb(96.470588%,92.941176%,92.941176%);fill-opacity:1;" d="M 2.863281 3.554688 C 2.996094 3.714844 3.078125 3.90625 3.113281 4.121094 C 3.03125 4.121094 2.945312 4.121094 2.863281 4.121094 C 2.863281 3.929688 2.863281 3.742188 2.863281 3.554688 Z M 2.863281 3.554688 "/>
<path style=" stroke:none;fill-rule:evenodd;fill:rgb(98.431373%,96.862745%,96.862745%);fill-opacity:1;" d="M 2.863281 4.308594 C 3.007812 4.308594 3.15625 4.308594 3.300781 4.308594 C 3.371094 4.570312 3.476562 4.824219 3.617188 5.0625 C 3.378906 5.171875 3.128906 5.214844 2.863281 5.1875 C 2.863281 4.894531 2.863281 4.601562 2.863281 4.308594 Z M 2.863281 4.308594 "/>
<path style=" stroke:none;fill-rule:evenodd;fill:rgb(18.823529%,18.823529%,18.823529%);fill-opacity:1;" d="M 5.378906 4.308594 C 5.734375 4.308594 6.089844 4.308594 6.445312 4.308594 C 6.445312 4.414062 6.445312 4.519531 6.445312 4.621094 C 6.132812 4.613281 5.816406 4.621094 5.503906 4.652344 C 5.367188 4.785156 5.347656 4.929688 5.441406 5.09375 C 5.734375 5.21875 6.027344 5.347656 6.320312 5.472656 C 6.589844 5.707031 6.644531 5.992188 6.476562 6.320312 C 6.421875 6.394531 6.347656 6.449219 6.257812 6.476562 C 5.839844 6.507812 5.417969 6.519531 5 6.507812 C 5 6.40625 5 6.300781 5 6.195312 C 5.394531 6.214844 5.78125 6.195312 6.164062 6.132812 C 6.21875 5.972656 6.1875 5.835938 6.070312 5.722656 C 5.710938 5.625 5.386719 5.464844 5.09375 5.25 C 4.898438 4.835938 4.992188 4.519531 5.378906 4.308594 Z M 5.378906 4.308594 "/>
<path style=" stroke:none;fill-rule:evenodd;fill:rgb(17.647059%,17.647059%,17.647059%);fill-opacity:1;" d="M 7.453125 4.308594 C 7.84375 4.273438 8.222656 4.324219 8.585938 4.464844 C 8.789062 4.710938 8.871094 4.992188 8.835938 5.316406 C 8.914062 6.371094 8.429688 6.769531 7.390625 6.507812 C 7.390625 6.78125 7.390625 7.054688 7.390625 7.328125 C 7.265625 7.328125 7.136719 7.328125 7.011719 7.328125 C 7.011719 6.339844 7.011719 5.355469 7.011719 4.371094 C 7.171875 4.390625 7.320312 4.367188 7.453125 4.308594 Z M 7.453125 4.308594 "/>
<path style=" stroke:none;fill-rule:evenodd;fill:rgb(18.039216%,18.039216%,18.039216%);fill-opacity:1;" d="M 14.433594 4.308594 C 14.804688 4.28125 15.160156 4.332031 15.503906 4.464844 C 15.5625 4.554688 15.617188 4.648438 15.660156 4.75 C 15.691406 5.019531 15.703125 5.292969 15.691406 5.566406 C 15.230469 5.566406 14.769531 5.566406 14.308594 5.566406 C 14.273438 5.796875 14.335938 5.996094 14.496094 6.164062 C 14.851562 6.195312 15.210938 6.207031 15.566406 6.195312 C 15.566406 6.300781 15.566406 6.40625 15.566406 6.507812 C 15.144531 6.519531 14.726562 6.507812 14.308594 6.476562 C 14.074219 6.351562 13.957031 6.152344 13.960938 5.878906 C 13.921875 5.523438 13.921875 5.167969 13.960938 4.8125 C 14.046875 4.570312 14.203125 4.402344 14.433594 4.308594 Z M 14.433594 4.308594 "/>
<path style=" stroke:none;fill-rule:evenodd;fill:rgb(17.254902%,17.254902%,17.254902%);fill-opacity:1;" d="M 16.445312 4.308594 C 16.722656 4.300781 16.996094 4.320312 17.265625 4.371094 C 17.265625 4.453125 17.265625 4.539062 17.265625 4.621094 C 17.054688 4.613281 16.84375 4.621094 16.636719 4.652344 C 16.605469 4.683594 16.574219 4.71875 16.539062 4.75 C 16.507812 5.335938 16.5 5.921875 16.507812 6.507812 C 16.40625 6.507812 16.300781 6.507812 16.195312 6.507812 C 16.183594 5.859375 16.195312 5.210938 16.226562 4.558594 C 16.296875 4.46875 16.367188 4.382812 16.445312 4.308594 Z M 16.445312 4.308594 "/>
<path style=" stroke:none;fill-rule:evenodd;fill:rgb(18.039216%,18.039216%,18.039216%);fill-opacity:1;" d="M 10.722656 6.195312 C 10.785156 5.597656 10.808594 4.992188 10.785156 4.371094 C 10.890625 4.371094 10.996094 4.371094 11.101562 4.371094 C 11.109375 5.1875 11.101562 6.007812 11.070312 6.824219 C 11.027344 7.132812 10.847656 7.289062 10.535156 7.296875 C 10.21875 7.335938 9.90625 7.335938 9.589844 7.296875 C 9.535156 7.210938 9.515625 7.117188 9.527344 7.011719 C 9.863281 7.023438 10.199219 7.011719 10.535156 6.980469 C 10.695312 6.863281 10.757812 6.707031 10.722656 6.507812 C 10.386719 6.519531 10.050781 6.507812 9.71875 6.476562 C 9.464844 6.359375 9.328125 6.160156 9.308594 5.878906 C 9.277344 5.378906 9.265625 4.875 9.277344 4.371094 C 9.402344 4.371094 9.527344 4.371094 9.652344 4.371094 C 9.644531 4.875 9.652344 5.378906 9.683594 5.878906 C 9.722656 6.003906 9.796875 6.101562 9.90625 6.164062 C 10.175781 6.195312 10.449219 6.207031 10.722656 6.195312 Z M 10.722656 6.195312 "/>
<path style=" stroke:none;fill-rule:evenodd;fill:rgb(42.745098%,42.745098%,42.745098%);fill-opacity:1;" d="M 11.101562 4.371094 C 10.996094 4.371094 10.890625 4.371094 10.785156 4.371094 C 10.808594 4.992188 10.785156 5.597656 10.722656 6.195312 C 10.722656 5.566406 10.722656 4.9375 10.722656 4.308594 C 10.863281 4.289062 10.988281 4.3125 11.101562 4.371094 Z M 11.101562 4.371094 "/>
<path style=" stroke:none;fill-rule:evenodd;fill:rgb(98.039216%,97.647059%,97.647059%);fill-opacity:1;" d="M 7.390625 4.621094 C 7.691406 4.597656 7.984375 4.628906 8.269531 4.71875 C 8.425781 4.917969 8.488281 5.148438 8.460938 5.410156 C 8.46875 5.652344 8.429688 5.882812 8.332031 6.101562 C 8.027344 6.1875 7.710938 6.21875 7.390625 6.195312 C 7.390625 5.671875 7.390625 5.148438 7.390625 4.621094 Z M 7.390625 4.621094 "/>
<path style=" stroke:none;fill-rule:evenodd;fill:rgb(97.647059%,97.647059%,97.647059%);fill-opacity:1;" d="M 12.296875 4.621094 C 12.546875 4.621094 12.796875 4.621094 13.050781 4.621094 C 13.050781 5.148438 13.050781 5.671875 13.050781 6.195312 C 12.777344 6.207031 12.503906 6.195312 12.234375 6.164062 C 12.117188 6.132812 12.042969 6.058594 12.011719 5.945312 C 11.96875 5.609375 11.96875 5.273438 12.011719 4.9375 C 12.078125 4.800781 12.171875 4.695312 12.296875 4.621094 Z M 12.296875 4.621094 "/>
<path style=" stroke:none;fill-rule:evenodd;fill:rgb(97.254902%,97.254902%,97.254902%);fill-opacity:1;" d="M 15.316406 5 C 15.316406 5.082031 15.316406 5.167969 15.316406 5.25 C 14.980469 5.25 14.644531 5.25 14.308594 5.25 C 14.304688 4.742188 14.554688 4.542969 15.0625 4.652344 C 15.234375 4.710938 15.316406 4.824219 15.316406 5 Z M 15.316406 5 "/>
<path style=" stroke:none;fill-rule:evenodd;fill:rgb(65.882353%,65.882353%,65.882353%);fill-opacity:1;" d="M 15.316406 5 C 15.375 5.089844 15.394531 5.195312 15.378906 5.316406 C 15.007812 5.335938 14.652344 5.3125 14.308594 5.25 C 14.644531 5.25 14.980469 5.25 15.316406 5.25 C 15.316406 5.167969 15.316406 5.082031 15.316406 5 Z M 15.316406 5 "/>
<path style=" stroke:none;fill-rule:evenodd;fill:rgb(98.823529%,97.647059%,97.647059%);fill-opacity:1;" d="M 4.183594 6.195312 C 3.878906 6.257812 3.566406 6.277344 3.238281 6.257812 C 3.074219 6.242188 2.957031 6.160156 2.894531 6.007812 C 2.863281 5.796875 2.851562 5.589844 2.863281 5.378906 C 3.15625 5.363281 3.449219 5.355469 3.742188 5.347656 C 3.898438 5.625 4.042969 5.910156 4.183594 6.195312 Z M 4.183594 6.195312 "/>
<path style=" stroke:none;fill-rule:evenodd;fill:rgb(68.627451%,40.392157%,40%);fill-opacity:1;" d="M 4.183594 6.195312 C 4.214844 6.199219 4.238281 6.21875 4.246094 6.257812 C 3.898438 6.339844 3.566406 6.339844 3.238281 6.257812 C 3.566406 6.277344 3.878906 6.257812 4.183594 6.195312 Z M 4.183594 6.195312 "/>
</g>
</svg>
