<?xml version="1.0" encoding="UTF-8"?>
<svg xmlns="http://www.w3.org/2000/svg" xmlns:xlink="http://www.w3.org/1999/xlink" width="20px" height="59px" viewBox="0 0 20 20" version="1.1">
<g id="surface1">
<path style=" stroke:none;fill-rule:evenodd;fill:rgb(99.607843%,99.607843%,99.607843%);fill-opacity:1;" d="M -0.0351562 -0.0351562 C 6.632812 -0.0351562 13.296875 -0.0351562 19.964844 -0.0351562 C 19.964844 6.632812 19.964844 13.296875 19.964844 19.964844 C 13.296875 19.964844 6.632812 19.964844 -0.0351562 19.964844 C -0.0351562 13.296875 -0.0351562 6.632812 -0.0351562 -0.0351562 Z M -0.0351562 -0.0351562 "/>
<path style=" stroke:none;fill-rule:evenodd;fill:rgb(71.764706%,78.431373%,91.764706%);fill-opacity:1;" d="M 11.285156 3.160156 C 10.347656 3.136719 9.421875 3.160156 8.507812 3.230469 C 8.390625 3.230469 8.277344 3.230469 8.160156 3.230469 C 8.238281 3.175781 8.328125 3.140625 8.4375 3.125 C 9.398438 3.066406 10.347656 3.078125 11.285156 3.160156 Z M 11.285156 3.160156 "/>
<path style=" stroke:none;fill-rule:evenodd;fill:rgb(43.137255%,56.862745%,83.529412%);fill-opacity:1;" d="M 8.160156 3.230469 C 8.277344 3.230469 8.390625 3.230469 8.507812 3.230469 C 8.128906 3.324219 7.734375 3.371094 7.328125 3.367188 C 7.585938 3.265625 7.863281 3.21875 8.160156 3.230469 Z M 8.160156 3.230469 "/>
<path style=" stroke:none;fill-rule:evenodd;fill:rgb(27.058824%,45.490196%,79.215686%);fill-opacity:1;" d="M 11.285156 3.160156 C 11.921875 3.210938 12.546875 3.328125 13.160156 3.507812 C 13.300781 3.605469 13.460938 3.652344 13.644531 3.644531 C 13.734375 3.628906 13.804688 3.652344 13.855469 3.714844 C 13.953125 3.789062 14.070312 3.832031 14.203125 3.855469 C 14.316406 3.867188 14.410156 3.910156 14.480469 3.992188 C 14.582031 4.171875 14.746094 4.265625 14.964844 4.269531 C 15.054688 4.410156 15.171875 4.523438 15.3125 4.617188 C 15.515625 4.988281 15.480469 5.335938 15.207031 5.660156 C 15.066406 5.816406 14.914062 5.953125 14.757812 6.078125 C 14.597656 6.109375 14.457031 6.179688 14.339844 6.285156 C 14.097656 6.363281 13.867188 6.457031 13.644531 6.5625 C 13.207031 6.703125 12.765625 6.820312 12.328125 6.910156 C 12.164062 6.910156 12.003906 6.910156 11.839844 6.910156 C 11.472656 6.886719 11.128906 6.933594 10.796875 7.046875 C 10.242188 7.046875 9.6875 7.046875 9.132812 7.046875 C 8.730469 6.957031 8.3125 6.910156 7.882812 6.910156 C 7.738281 6.847656 7.601562 6.769531 7.464844 6.667969 C 7.234375 6.640625 7 6.652344 6.769531 6.703125 C 6.5625 6.65625 6.355469 6.609375 6.144531 6.5625 C 5.824219 6.402344 5.5 6.238281 5.171875 6.078125 C 4.992188 5.988281 4.832031 5.875 4.6875 5.730469 C 4.691406 5.625 4.644531 5.554688 4.546875 5.519531 C 4.558594 5.453125 4.539062 5.40625 4.480469 5.382812 C 4.46875 5.144531 4.492188 4.914062 4.546875 4.6875 C 4.710938 4.570312 4.847656 4.433594 4.964844 4.269531 C 4.964844 4.222656 4.988281 4.203125 5.035156 4.203125 C 5.140625 4.207031 5.210938 4.160156 5.242188 4.0625 C 5.425781 4.03125 5.589844 3.960938 5.730469 3.855469 C 5.777344 3.855469 5.796875 3.832031 5.796875 3.785156 C 6.042969 3.789062 6.25 3.71875 6.421875 3.578125 C 6.679688 3.546875 6.933594 3.511719 7.1875 3.472656 C 7.25 3.453125 7.296875 3.417969 7.328125 3.367188 C 7.734375 3.371094 8.128906 3.324219 8.507812 3.230469 C 9.421875 3.160156 10.347656 3.136719 11.285156 3.160156 Z M 11.285156 3.160156 "/>
<path style=" stroke:none;fill-rule:evenodd;fill:rgb(49.803922%,62.352941%,85.490196%);fill-opacity:1;" d="M 7.328125 3.367188 C 7.296875 3.417969 7.25 3.453125 7.1875 3.472656 C 6.933594 3.511719 6.679688 3.546875 6.421875 3.578125 C 6.703125 3.457031 7.003906 3.386719 7.328125 3.367188 Z M 7.328125 3.367188 "/>
<path style=" stroke:none;fill-rule:evenodd;fill:rgb(59.607843%,69.803922%,88.627451%);fill-opacity:1;" d="M 13.160156 3.507812 C 13.34375 3.5 13.507812 3.546875 13.644531 3.644531 C 13.460938 3.652344 13.300781 3.605469 13.160156 3.507812 Z M 13.160156 3.507812 "/>
<path style=" stroke:none;fill-rule:evenodd;fill:rgb(49.803922%,61.960784%,85.490196%);fill-opacity:1;" d="M 6.421875 3.578125 C 6.25 3.71875 6.042969 3.789062 5.796875 3.785156 C 5.984375 3.671875 6.195312 3.601562 6.421875 3.578125 Z M 6.421875 3.578125 "/>
<path style=" stroke:none;fill-rule:evenodd;fill:rgb(71.372549%,78.431373%,91.764706%);fill-opacity:1;" d="M 13.855469 3.714844 C 14.007812 3.6875 14.121094 3.734375 14.203125 3.855469 C 14.070312 3.832031 13.953125 3.789062 13.855469 3.714844 Z M 13.855469 3.714844 "/>
<path style=" stroke:none;fill-rule:evenodd;fill:rgb(55.686275%,66.666667%,87.058824%);fill-opacity:1;" d="M 5.730469 3.855469 C 5.589844 3.960938 5.425781 4.03125 5.242188 4.0625 C 5.359375 3.902344 5.519531 3.832031 5.730469 3.855469 Z M 5.730469 3.855469 "/>
<path style=" stroke:none;fill-rule:evenodd;fill:rgb(54.117647%,65.490196%,87.058824%);fill-opacity:1;" d="M 5.242188 4.0625 C 5.210938 4.160156 5.140625 4.207031 5.035156 4.203125 C 5.066406 4.105469 5.136719 4.058594 5.242188 4.0625 Z M 5.242188 4.0625 "/>
<path style=" stroke:none;fill-rule:evenodd;fill:rgb(52.941176%,63.529412%,86.27451%);fill-opacity:1;" d="M 14.480469 3.992188 C 14.675781 4.035156 14.835938 4.125 14.964844 4.269531 C 14.746094 4.265625 14.582031 4.171875 14.480469 3.992188 Z M 14.480469 3.992188 "/>
<path style=" stroke:none;fill-rule:evenodd;fill:rgb(52.941176%,64.313725%,86.27451%);fill-opacity:1;" d="M 4.964844 4.269531 C 4.847656 4.433594 4.710938 4.570312 4.546875 4.6875 C 4.617188 4.480469 4.757812 4.339844 4.964844 4.269531 Z M 4.964844 4.269531 "/>
<path style=" stroke:none;fill-rule:evenodd;fill:rgb(69.411765%,76.862745%,90.980392%);fill-opacity:1;" d="M 4.546875 4.6875 C 4.492188 4.914062 4.46875 5.144531 4.480469 5.382812 C 4.398438 5.1875 4.386719 4.980469 4.445312 4.757812 C 4.472656 4.71875 4.503906 4.695312 4.546875 4.6875 Z M 4.546875 4.6875 "/>
<path style=" stroke:none;fill-rule:evenodd;fill:rgb(68.235294%,76.078431%,90.980392%);fill-opacity:1;" d="M 4.546875 5.519531 C 4.644531 5.554688 4.691406 5.625 4.6875 5.730469 C 4.589844 5.695312 4.542969 5.625 4.546875 5.519531 Z M 4.546875 5.519531 "/>
<path style=" stroke:none;fill-rule:evenodd;fill:rgb(81.176471%,85.490196%,94.509804%);fill-opacity:1;" d="M 14.757812 6.078125 C 14.679688 6.246094 14.542969 6.316406 14.339844 6.285156 C 14.457031 6.179688 14.597656 6.109375 14.757812 6.078125 Z M 14.757812 6.078125 "/>
<path style=" stroke:none;fill-rule:evenodd;fill:rgb(60.784314%,70.196078%,88.627451%);fill-opacity:1;" d="M 5.171875 6.078125 C 5.5 6.238281 5.824219 6.402344 6.144531 6.5625 C 5.757812 6.507812 5.433594 6.347656 5.171875 6.078125 Z M 5.171875 6.078125 "/>
<path style=" stroke:none;fill-rule:evenodd;fill:rgb(77.254902%,82.745098%,93.72549%);fill-opacity:1;" d="M 14.339844 6.285156 C 14.160156 6.46875 13.925781 6.5625 13.644531 6.5625 C 13.867188 6.457031 14.097656 6.363281 14.339844 6.285156 Z M 14.339844 6.285156 "/>
<path style=" stroke:none;fill-rule:evenodd;fill:rgb(36.862745%,52.156863%,81.568627%);fill-opacity:1;" d="M 7.882812 6.910156 C 7.492188 6.898438 7.121094 6.828125 6.769531 6.703125 C 7 6.652344 7.234375 6.640625 7.464844 6.667969 C 7.601562 6.769531 7.738281 6.847656 7.882812 6.910156 Z M 7.882812 6.910156 "/>
<path style=" stroke:none;fill-rule:evenodd;fill:rgb(82.745098%,87.058824%,94.901961%);fill-opacity:1;" d="M 13.644531 6.5625 C 13.25 6.816406 12.808594 6.933594 12.328125 6.910156 C 12.765625 6.820312 13.207031 6.703125 13.644531 6.5625 Z M 13.644531 6.5625 "/>
<path style=" stroke:none;fill-rule:evenodd;fill:rgb(27.45098%,45.882353%,79.215686%);fill-opacity:1;" d="M 4.617188 6.910156 C 4.6875 6.992188 4.78125 7.039062 4.894531 7.046875 C 4.929688 7.144531 5 7.191406 5.105469 7.1875 C 5.230469 7.253906 5.367188 7.300781 5.519531 7.328125 C 5.574219 7.4375 5.667969 7.484375 5.796875 7.464844 C 5.929688 7.585938 6.09375 7.65625 6.285156 7.671875 C 6.445312 7.707031 6.605469 7.730469 6.769531 7.742188 C 6.933594 7.851562 7.117188 7.894531 7.328125 7.882812 C 7.441406 7.882812 7.558594 7.882812 7.671875 7.882812 C 8.40625 8.046875 9.160156 8.117188 9.929688 8.089844 C 10.492188 8.105469 11.035156 8.058594 11.5625 7.953125 C 12.191406 7.890625 12.816406 7.800781 13.4375 7.671875 C 13.640625 7.628906 13.824219 7.558594 13.992188 7.464844 C 14.40625 7.34375 14.796875 7.179688 15.171875 6.980469 C 15.242188 6.984375 15.300781 6.960938 15.347656 6.910156 C 15.382812 7.417969 15.394531 7.925781 15.382812 8.4375 C 15.390625 8.511719 15.378906 8.578125 15.347656 8.644531 C 15.207031 8.84375 15.058594 9.027344 14.894531 9.203125 C 14.753906 9.273438 14.617188 9.34375 14.480469 9.410156 C 14.375 9.40625 14.304688 9.449219 14.269531 9.546875 C 14.113281 9.554688 13.972656 9.601562 13.855469 9.6875 C 13.5625 9.707031 13.308594 9.800781 13.089844 9.964844 C 12.445312 10.085938 11.796875 10.179688 11.144531 10.242188 C 10.078125 10.257812 9.015625 10.234375 7.953125 10.171875 C 7.738281 10.085938 7.503906 10.039062 7.257812 10.035156 C 7.132812 10.042969 7.015625 10.019531 6.910156 9.964844 C 6.699219 9.84375 6.46875 9.773438 6.214844 9.757812 C 5.90625 9.660156 5.605469 9.542969 5.3125 9.410156 C 5.28125 9.3125 5.210938 9.265625 5.105469 9.269531 C 5.050781 9.148438 4.957031 9.078125 4.828125 9.0625 C 4.683594 8.917969 4.566406 8.757812 4.480469 8.578125 C 4.433594 7.992188 4.480469 7.4375 4.617188 6.910156 Z M 4.617188 6.910156 "/>
<path style=" stroke:none;fill-rule:evenodd;fill:rgb(66.27451%,74.509804%,90.196078%);fill-opacity:1;" d="M 4.617188 6.910156 C 4.480469 7.4375 4.433594 7.992188 4.480469 8.578125 C 4.386719 7.984375 4.386719 7.382812 4.480469 6.769531 C 4.550781 6.796875 4.597656 6.84375 4.617188 6.910156 Z M 4.617188 6.910156 "/>
<path style=" stroke:none;fill-rule:evenodd;fill:rgb(45.882353%,59.215686%,84.313725%);fill-opacity:1;" d="M 7.882812 6.910156 C 8.3125 6.910156 8.730469 6.957031 9.132812 7.046875 C 8.738281 7.046875 8.34375 7.023438 7.953125 6.980469 C 7.90625 6.980469 7.882812 6.957031 7.882812 6.910156 Z M 7.882812 6.910156 "/>
<path style=" stroke:none;fill-rule:evenodd;fill:rgb(43.529412%,57.647059%,83.921569%);fill-opacity:1;" d="M 11.839844 6.910156 C 11.839844 6.933594 11.839844 6.957031 11.839844 6.980469 C 11.492188 7.007812 11.144531 7.03125 10.796875 7.046875 C 11.128906 6.933594 11.472656 6.886719 11.839844 6.910156 Z M 11.839844 6.910156 "/>
<path style=" stroke:none;fill-rule:evenodd;fill:rgb(85.882353%,89.411765%,95.686275%);fill-opacity:1;" d="M 15.3125 6.839844 C 15.363281 6.777344 15.429688 6.753906 15.519531 6.769531 C 15.542969 7.339844 15.519531 7.894531 15.453125 8.4375 C 15.496094 7.875 15.449219 7.34375 15.3125 6.839844 Z M 15.3125 6.839844 "/>
<path style=" stroke:none;fill-rule:evenodd;fill:rgb(84.705882%,88.235294%,95.294118%);fill-opacity:1;" d="M 7.953125 6.980469 C 8.34375 7.023438 8.738281 7.046875 9.132812 7.046875 C 9.132812 7.070312 9.132812 7.09375 9.132812 7.117188 C 8.71875 7.144531 8.328125 7.097656 7.953125 6.980469 Z M 7.953125 6.980469 "/>
<path style=" stroke:none;fill-rule:evenodd;fill:rgb(78.823529%,83.921569%,93.72549%);fill-opacity:1;" d="M 11.839844 6.980469 C 11.714844 7.035156 11.578125 7.070312 11.421875 7.082031 C 10.660156 7.117188 9.894531 7.128906 9.132812 7.117188 C 9.132812 7.09375 9.132812 7.070312 9.132812 7.046875 C 9.6875 7.046875 10.242188 7.046875 10.796875 7.046875 C 11.144531 7.03125 11.492188 7.007812 11.839844 6.980469 Z M 11.839844 6.980469 "/>
<path style=" stroke:none;fill-rule:evenodd;fill:rgb(43.137255%,57.647059%,83.529412%);fill-opacity:1;" d="M 15.3125 6.839844 C 15.449219 7.34375 15.496094 7.875 15.453125 8.4375 C 15.429688 8.4375 15.40625 8.4375 15.382812 8.4375 C 15.394531 7.925781 15.382812 7.417969 15.347656 6.910156 C 15.300781 6.960938 15.242188 6.984375 15.171875 6.980469 C 15.195312 6.910156 15.242188 6.863281 15.3125 6.839844 Z M 15.3125 6.839844 "/>
<path style=" stroke:none;fill-rule:evenodd;fill:rgb(69.019608%,76.862745%,90.980392%);fill-opacity:1;" d="M 4.894531 7.046875 C 5 7.042969 5.070312 7.089844 5.105469 7.1875 C 5 7.191406 4.929688 7.144531 4.894531 7.046875 Z M 4.894531 7.046875 "/>
<path style=" stroke:none;fill-rule:evenodd;fill:rgb(81.176471%,85.490196%,94.509804%);fill-opacity:1;" d="M 5.519531 7.328125 C 5.769531 7.363281 6 7.429688 6.214844 7.535156 C 6.070312 7.535156 5.933594 7.511719 5.796875 7.464844 C 5.667969 7.484375 5.574219 7.4375 5.519531 7.328125 Z M 5.519531 7.328125 "/>
<path style=" stroke:none;fill-rule:evenodd;fill:rgb(47.058824%,60%,84.705882%);fill-opacity:1;" d="M 5.796875 7.464844 C 5.933594 7.511719 6.070312 7.535156 6.214844 7.535156 C 6.214844 7.582031 6.238281 7.605469 6.285156 7.605469 C 6.285156 7.628906 6.285156 7.652344 6.285156 7.671875 C 6.09375 7.65625 5.929688 7.585938 5.796875 7.464844 Z M 5.796875 7.464844 "/>
<path style=" stroke:none;fill-rule:evenodd;fill:rgb(67.058824%,75.294118%,90.588235%);fill-opacity:1;" d="M 13.992188 7.464844 C 13.824219 7.558594 13.640625 7.628906 13.4375 7.671875 C 13.585938 7.523438 13.769531 7.453125 13.992188 7.464844 Z M 13.992188 7.464844 "/>
<path style=" stroke:none;fill-rule:evenodd;fill:rgb(66.27451%,74.509804%,90.196078%);fill-opacity:1;" d="M 6.285156 7.671875 C 6.285156 7.652344 6.285156 7.628906 6.285156 7.605469 C 6.46875 7.597656 6.632812 7.644531 6.769531 7.742188 C 6.605469 7.730469 6.445312 7.707031 6.285156 7.671875 Z M 6.285156 7.671875 "/>
<path style=" stroke:none;fill-rule:evenodd;fill:rgb(56.470588%,67.058824%,87.45098%);fill-opacity:1;" d="M 6.769531 7.742188 C 6.980469 7.730469 7.164062 7.773438 7.328125 7.882812 C 7.117188 7.894531 6.933594 7.851562 6.769531 7.742188 Z M 6.769531 7.742188 "/>
<path style=" stroke:none;fill-rule:evenodd;fill:rgb(69.803922%,77.254902%,91.372549%);fill-opacity:1;" d="M 7.671875 7.882812 C 8.96875 8.03125 10.265625 8.054688 11.5625 7.953125 C 11.035156 8.058594 10.492188 8.105469 9.929688 8.089844 C 9.160156 8.117188 8.40625 8.046875 7.671875 7.882812 Z M 7.671875 7.882812 "/>
<path style=" stroke:none;fill-rule:evenodd;fill:rgb(77.647059%,83.137255%,93.333333%);fill-opacity:1;" d="M 15.382812 8.4375 C 15.40625 8.4375 15.429688 8.4375 15.453125 8.4375 C 15.417969 8.804688 15.234375 9.058594 14.894531 9.203125 C 15.058594 9.027344 15.207031 8.84375 15.347656 8.644531 C 15.378906 8.578125 15.390625 8.511719 15.382812 8.4375 Z M 15.382812 8.4375 "/>
<path style=" stroke:none;fill-rule:evenodd;fill:rgb(54.901961%,65.882353%,87.058824%);fill-opacity:1;" d="M 4.828125 9.0625 C 4.957031 9.078125 5.050781 9.148438 5.105469 9.269531 C 4.972656 9.253906 4.878906 9.183594 4.828125 9.0625 Z M 4.828125 9.0625 "/>
<path style=" stroke:none;fill-rule:evenodd;fill:rgb(63.529412%,72.156863%,89.411765%);fill-opacity:1;" d="M 5.105469 9.269531 C 5.210938 9.265625 5.28125 9.3125 5.3125 9.410156 C 5.207031 9.414062 5.136719 9.367188 5.105469 9.269531 Z M 5.105469 9.269531 "/>
<path style=" stroke:none;fill-rule:evenodd;fill:rgb(63.529412%,72.54902%,89.411765%);fill-opacity:1;" d="M 14.480469 9.410156 C 14.445312 9.507812 14.375 9.554688 14.269531 9.546875 C 14.304688 9.449219 14.375 9.40625 14.480469 9.410156 Z M 14.480469 9.410156 "/>
<path style=" stroke:none;fill-rule:evenodd;fill:rgb(48.627451%,61.176471%,85.098039%);fill-opacity:1;" d="M 6.214844 9.757812 C 6.46875 9.773438 6.699219 9.84375 6.910156 9.964844 C 6.65625 9.949219 6.425781 9.878906 6.214844 9.757812 Z M 6.214844 9.757812 "/>
<path style=" stroke:none;fill-rule:evenodd;fill:rgb(62.745098%,71.764706%,89.019608%);fill-opacity:1;" d="M 13.855469 9.6875 C 13.613281 9.8125 13.359375 9.902344 13.089844 9.964844 C 13.308594 9.800781 13.5625 9.707031 13.855469 9.6875 Z M 13.855469 9.6875 "/>
<path style=" stroke:none;fill-rule:evenodd;fill:rgb(56.862745%,67.843137%,87.45098%);fill-opacity:1;" d="M 7.257812 10.035156 C 7.503906 10.039062 7.738281 10.085938 7.953125 10.171875 C 7.699219 10.1875 7.46875 10.140625 7.257812 10.035156 Z M 7.257812 10.035156 "/>
<path style=" stroke:none;fill-rule:evenodd;fill:rgb(86.666667%,89.803922%,96.078431%);fill-opacity:1;" d="M 15.382812 10.035156 C 15.386719 9.996094 15.410156 9.972656 15.453125 9.964844 C 15.542969 10.554688 15.542969 11.132812 15.453125 11.703125 C 15.472656 11.132812 15.449219 10.578125 15.382812 10.035156 Z M 15.382812 10.035156 "/>
<path style=" stroke:none;fill-rule:evenodd;fill:rgb(66.666667%,74.901961%,90.196078%);fill-opacity:1;" d="M 4.6875 10.171875 C 4.617188 10.179688 4.558594 10.15625 4.515625 10.105469 C 4.480469 10.660156 4.46875 11.214844 4.480469 11.769531 C 4.410156 11.203125 4.386719 10.625 4.410156 10.035156 C 4.539062 10.015625 4.632812 10.0625 4.6875 10.171875 Z M 4.6875 10.171875 "/>
<path style=" stroke:none;fill-rule:evenodd;fill:rgb(27.058824%,45.490196%,79.215686%);fill-opacity:1;" d="M 4.6875 10.171875 C 4.71875 10.269531 4.789062 10.316406 4.894531 10.3125 C 4.964844 10.394531 5.058594 10.441406 5.171875 10.453125 C 5.3125 10.558594 5.476562 10.628906 5.660156 10.660156 C 5.734375 10.722656 5.828125 10.746094 5.9375 10.730469 C 6.234375 10.890625 6.558594 10.984375 6.910156 11.007812 C 6.933594 11.007812 6.957031 11.007812 6.980469 11.007812 C 7.214844 11.117188 7.46875 11.164062 7.742188 11.144531 C 8.050781 11.238281 8.375 11.292969 8.714844 11.320312 C 9.53125 11.375 10.339844 11.363281 11.144531 11.285156 C 11.484375 11.285156 11.820312 11.265625 12.152344 11.214844 C 12.289062 11.210938 12.394531 11.164062 12.464844 11.078125 C 13.054688 10.972656 13.632812 10.832031 14.203125 10.660156 C 14.402344 10.617188 14.585938 10.546875 14.757812 10.453125 C 14.757812 10.40625 14.78125 10.382812 14.828125 10.382812 C 14.933594 10.386719 15 10.339844 15.035156 10.242188 C 15.097656 10.199219 15.167969 10.175781 15.242188 10.171875 C 15.335938 10.390625 15.382812 10.632812 15.382812 10.902344 C 15.375 11.238281 15.351562 11.574219 15.3125 11.910156 C 15.246094 12.066406 15.15625 12.207031 15.035156 12.328125 C 14.847656 12.441406 14.660156 12.558594 14.480469 12.671875 C 14.238281 12.714844 14.03125 12.808594 13.855469 12.953125 C 13.628906 13.042969 13.398438 13.113281 13.160156 13.160156 C 12.90625 13.191406 12.652344 13.226562 12.394531 13.265625 C 12.332031 13.28125 12.285156 13.316406 12.257812 13.367188 C 12.234375 13.367188 12.210938 13.367188 12.1875 13.367188 C 12.09375 13.367188 12.003906 13.367188 11.910156 13.367188 C 10.472656 13.476562 9.035156 13.453125 7.605469 13.296875 C 7.582031 13.296875 7.558594 13.296875 7.535156 13.296875 C 7.226562 13.183594 6.90625 13.117188 6.5625 13.089844 C 6.375 13.050781 6.1875 13.007812 6.007812 12.953125 C 5.890625 12.789062 5.730469 12.71875 5.519531 12.742188 C 5.472656 12.71875 5.429688 12.695312 5.382812 12.671875 C 5.347656 12.574219 5.28125 12.53125 5.171875 12.535156 C 4.84375 12.367188 4.613281 12.113281 4.480469 11.769531 C 4.46875 11.214844 4.480469 10.660156 4.515625 10.105469 C 4.558594 10.15625 4.617188 10.179688 4.6875 10.171875 Z M 4.6875 10.171875 "/>
<path style=" stroke:none;fill-rule:evenodd;fill:rgb(67.45098%,75.294118%,90.588235%);fill-opacity:1;" d="M 7.953125 10.171875 C 9.015625 10.234375 10.078125 10.257812 11.144531 10.242188 C 10.230469 10.324219 9.304688 10.335938 8.367188 10.277344 C 8.214844 10.265625 8.074219 10.230469 7.953125 10.171875 Z M 7.953125 10.171875 "/>
<path style=" stroke:none;fill-rule:evenodd;fill:rgb(65.882353%,74.509804%,90.196078%);fill-opacity:1;" d="M 4.6875 10.171875 C 4.792969 10.167969 4.863281 10.214844 4.894531 10.3125 C 4.789062 10.316406 4.71875 10.269531 4.6875 10.171875 Z M 4.6875 10.171875 "/>
<path style=" stroke:none;fill-rule:evenodd;fill:rgb(63.529412%,72.54902%,89.411765%);fill-opacity:1;" d="M 15.035156 10.242188 C 15 10.339844 14.933594 10.386719 14.828125 10.382812 C 14.859375 10.285156 14.929688 10.238281 15.035156 10.242188 Z M 15.035156 10.242188 "/>
<path style=" stroke:none;fill-rule:evenodd;fill:rgb(43.529412%,57.647059%,83.529412%);fill-opacity:1;" d="M 15.382812 10.035156 C 15.449219 10.578125 15.472656 11.132812 15.453125 11.703125 C 15.40625 11.769531 15.359375 11.839844 15.3125 11.910156 C 15.351562 11.574219 15.375 11.238281 15.382812 10.902344 C 15.382812 10.632812 15.335938 10.390625 15.242188 10.171875 C 15.265625 10.105469 15.3125 10.058594 15.382812 10.035156 Z M 15.382812 10.035156 "/>
<path style=" stroke:none;fill-rule:evenodd;fill:rgb(70.588235%,77.647059%,91.372549%);fill-opacity:1;" d="M 5.171875 10.453125 C 5.382812 10.429688 5.542969 10.496094 5.660156 10.660156 C 5.476562 10.628906 5.3125 10.558594 5.171875 10.453125 Z M 5.171875 10.453125 "/>
<path style=" stroke:none;fill-rule:evenodd;fill:rgb(56.862745%,67.45098%,87.45098%);fill-opacity:1;" d="M 14.757812 10.453125 C 14.585938 10.546875 14.402344 10.617188 14.203125 10.660156 C 14.347656 10.511719 14.535156 10.441406 14.757812 10.453125 Z M 14.757812 10.453125 "/>
<path style=" stroke:none;fill-rule:evenodd;fill:rgb(77.647059%,82.745098%,93.333333%);fill-opacity:1;" d="M 5.9375 10.730469 C 6.292969 10.742188 6.617188 10.835938 6.910156 11.007812 C 6.558594 10.984375 6.234375 10.890625 5.9375 10.730469 Z M 5.9375 10.730469 "/>
<path style=" stroke:none;fill-rule:evenodd;fill:rgb(80%,84.705882%,94.117647%);fill-opacity:1;" d="M 6.980469 11.007812 C 7.210938 10.996094 7.441406 11.007812 7.671875 11.042969 C 7.710938 11.066406 7.734375 11.101562 7.742188 11.144531 C 7.46875 11.164062 7.214844 11.117188 6.980469 11.007812 Z M 6.980469 11.007812 "/>
<path style=" stroke:none;fill-rule:evenodd;fill:rgb(67.45098%,75.294118%,90.588235%);fill-opacity:1;" d="M 7.742188 11.144531 C 8.875 11.203125 10.011719 11.226562 11.144531 11.214844 C 11.144531 11.238281 11.144531 11.261719 11.144531 11.285156 C 10.339844 11.363281 9.53125 11.375 8.714844 11.320312 C 8.375 11.292969 8.050781 11.238281 7.742188 11.144531 Z M 7.742188 11.144531 "/>
<path style=" stroke:none;fill-rule:evenodd;fill:rgb(49.411765%,61.568627%,85.490196%);fill-opacity:1;" d="M 12.464844 11.078125 C 12.394531 11.164062 12.289062 11.210938 12.152344 11.214844 C 11.820312 11.265625 11.484375 11.285156 11.144531 11.285156 C 11.144531 11.261719 11.144531 11.238281 11.144531 11.214844 C 11.589844 11.191406 12.027344 11.144531 12.464844 11.078125 Z M 12.464844 11.078125 "/>
<path style=" stroke:none;fill-rule:evenodd;fill:rgb(78.039216%,83.137255%,93.72549%);fill-opacity:1;" d="M 15.035156 12.328125 C 14.917969 12.542969 14.730469 12.660156 14.480469 12.671875 C 14.660156 12.558594 14.847656 12.441406 15.035156 12.328125 Z M 15.035156 12.328125 "/>
<path style=" stroke:none;fill-rule:evenodd;fill:rgb(58.039216%,68.235294%,87.843137%);fill-opacity:1;" d="M 5.171875 12.535156 C 5.28125 12.53125 5.347656 12.574219 5.382812 12.671875 C 5.277344 12.679688 5.207031 12.632812 5.171875 12.535156 Z M 5.171875 12.535156 "/>
<path style=" stroke:none;fill-rule:evenodd;fill:rgb(52.156863%,63.529412%,86.27451%);fill-opacity:1;" d="M 5.519531 12.742188 C 5.730469 12.71875 5.890625 12.789062 6.007812 12.953125 C 5.824219 12.921875 5.660156 12.851562 5.519531 12.742188 Z M 5.519531 12.742188 "/>
<path style=" stroke:none;fill-rule:evenodd;fill:rgb(65.098039%,73.72549%,89.803922%);fill-opacity:1;" d="M 14.480469 12.671875 C 14.300781 12.816406 14.09375 12.910156 13.855469 12.953125 C 14.03125 12.808594 14.238281 12.714844 14.480469 12.671875 Z M 14.480469 12.671875 "/>
<path style=" stroke:none;fill-rule:evenodd;fill:rgb(46.666667%,59.607843%,84.705882%);fill-opacity:1;" d="M 6.5625 13.089844 C 6.90625 13.117188 7.226562 13.183594 7.535156 13.296875 C 7.441406 13.296875 7.347656 13.296875 7.257812 13.296875 C 7.003906 13.28125 6.769531 13.214844 6.5625 13.089844 Z M 6.5625 13.089844 "/>
<path style=" stroke:none;fill-rule:evenodd;fill:rgb(67.058824%,75.294118%,90.588235%);fill-opacity:1;" d="M 13.160156 13.160156 C 12.878906 13.28125 12.578125 13.351562 12.257812 13.367188 C 12.285156 13.316406 12.332031 13.28125 12.394531 13.265625 C 12.652344 13.226562 12.90625 13.191406 13.160156 13.160156 Z M 13.160156 13.160156 "/>
<path style=" stroke:none;fill-rule:evenodd;fill:rgb(74.509804%,80.784314%,92.54902%);fill-opacity:1;" d="M 7.257812 13.296875 C 7.347656 13.296875 7.441406 13.296875 7.535156 13.296875 C 7.558594 13.296875 7.582031 13.296875 7.605469 13.296875 C 7.695312 13.34375 7.789062 13.390625 7.882812 13.4375 C 7.652344 13.441406 7.445312 13.398438 7.257812 13.296875 Z M 7.257812 13.296875 "/>
<path style=" stroke:none;fill-rule:evenodd;fill:rgb(40.784314%,55.686275%,83.137255%);fill-opacity:1;" d="M 7.605469 13.296875 C 9.035156 13.453125 10.472656 13.476562 11.910156 13.367188 C 10.601562 13.527344 9.285156 13.550781 7.953125 13.4375 C 7.929688 13.4375 7.90625 13.4375 7.882812 13.4375 C 7.789062 13.390625 7.695312 13.34375 7.605469 13.296875 Z M 7.605469 13.296875 "/>
<path style=" stroke:none;fill-rule:evenodd;fill:rgb(65.882353%,74.117647%,90.196078%);fill-opacity:1;" d="M 4.617188 13.367188 C 4.480469 13.894531 4.433594 14.453125 4.480469 15.035156 C 4.410156 14.46875 4.386719 13.890625 4.410156 13.296875 C 4.5 13.28125 4.570312 13.304688 4.617188 13.367188 Z M 4.617188 13.367188 "/>
<path style=" stroke:none;fill-rule:evenodd;fill:rgb(27.058824%,45.882353%,79.215686%);fill-opacity:1;" d="M 4.617188 13.367188 C 4.652344 13.464844 4.71875 13.511719 4.828125 13.507812 C 5.035156 13.640625 5.269531 13.730469 5.519531 13.785156 C 5.554688 13.882812 5.625 13.929688 5.730469 13.921875 C 6.046875 14.023438 6.371094 14.089844 6.703125 14.132812 C 7.039062 14.332031 7.40625 14.425781 7.8125 14.410156 C 7.820312 14.453125 7.84375 14.488281 7.882812 14.515625 C 9.191406 14.664062 10.488281 14.652344 11.769531 14.480469 C 12.3125 14.339844 12.867188 14.226562 13.4375 14.132812 C 13.730469 14.121094 13.984375 14.027344 14.203125 13.855469 C 14.539062 13.746094 14.863281 13.605469 15.171875 13.4375 C 15.242188 13.445312 15.300781 13.421875 15.347656 13.367188 C 15.382812 13.875 15.394531 14.386719 15.382812 14.894531 C 15.382812 14.964844 15.382812 15.035156 15.382812 15.105469 C 15.222656 15.289062 15.058594 15.472656 14.894531 15.660156 C 14.789062 15.65625 14.71875 15.699219 14.6875 15.796875 C 14.535156 15.816406 14.421875 15.886719 14.339844 16.007812 C 14.246094 16.03125 14.15625 16.054688 14.0625 16.078125 C 13.859375 16.121094 13.675781 16.191406 13.507812 16.285156 C 13.277344 16.332031 13.042969 16.378906 12.8125 16.421875 C 12.605469 16.410156 12.417969 16.457031 12.257812 16.5625 C 11.761719 16.6875 11.253906 16.734375 10.730469 16.703125 C 9.941406 16.703125 9.152344 16.679688 8.367188 16.632812 C 8.066406 16.601562 7.765625 16.578125 7.464844 16.5625 C 6.667969 16.445312 5.902344 16.203125 5.171875 15.832031 C 4.898438 15.59375 4.667969 15.328125 4.480469 15.035156 C 4.433594 14.453125 4.480469 13.894531 4.617188 13.367188 Z M 4.617188 13.367188 "/>
<path style=" stroke:none;fill-rule:evenodd;fill:rgb(75.294118%,81.568627%,92.941176%);fill-opacity:1;" d="M 11.910156 13.367188 C 12.003906 13.367188 12.09375 13.367188 12.1875 13.367188 C 12.179688 13.410156 12.15625 13.445312 12.117188 13.472656 C 11.378906 13.542969 10.636719 13.574219 9.894531 13.578125 C 9.230469 13.59375 8.585938 13.546875 7.953125 13.4375 C 9.285156 13.550781 10.601562 13.527344 11.910156 13.367188 Z M 11.910156 13.367188 "/>
<path style=" stroke:none;fill-rule:evenodd;fill:rgb(65.098039%,73.72549%,89.803922%);fill-opacity:1;" d="M 4.617188 13.367188 C 4.722656 13.363281 4.792969 13.410156 4.828125 13.507812 C 4.71875 13.511719 4.652344 13.464844 4.617188 13.367188 Z M 4.617188 13.367188 "/>
<path style=" stroke:none;fill-rule:evenodd;fill:rgb(43.137255%,57.647059%,83.529412%);fill-opacity:1;" d="M 15.3125 13.296875 C 15.449219 13.804688 15.496094 14.335938 15.453125 14.894531 C 15.429688 14.894531 15.40625 14.894531 15.382812 14.894531 C 15.394531 14.386719 15.382812 13.875 15.347656 13.367188 C 15.300781 13.421875 15.242188 13.445312 15.171875 13.4375 C 15.195312 13.367188 15.242188 13.320312 15.3125 13.296875 Z M 15.3125 13.296875 "/>
<path style=" stroke:none;fill-rule:evenodd;fill:rgb(85.882353%,89.411765%,95.686275%);fill-opacity:1;" d="M 15.3125 13.296875 C 15.363281 13.234375 15.429688 13.210938 15.519531 13.230469 C 15.542969 13.796875 15.519531 14.351562 15.453125 14.894531 C 15.496094 14.335938 15.449219 13.804688 15.3125 13.296875 Z M 15.3125 13.296875 "/>
<path style=" stroke:none;fill-rule:evenodd;fill:rgb(65.490196%,73.72549%,89.803922%);fill-opacity:1;" d="M 5.519531 13.785156 C 5.625 13.78125 5.695312 13.824219 5.730469 13.921875 C 5.625 13.929688 5.554688 13.882812 5.519531 13.785156 Z M 5.519531 13.785156 "/>
<path style=" stroke:none;fill-rule:evenodd;fill:rgb(54.117647%,65.490196%,87.058824%);fill-opacity:1;" d="M 14.203125 13.855469 C 13.984375 14.027344 13.730469 14.121094 13.4375 14.132812 C 13.675781 14.011719 13.929688 13.921875 14.203125 13.855469 Z M 14.203125 13.855469 "/>
<path style=" stroke:none;fill-rule:evenodd;fill:rgb(75.294118%,81.176471%,92.941176%);fill-opacity:1;" d="M 6.703125 14.132812 C 7.195312 14.21875 7.679688 14.3125 8.160156 14.410156 C 8.042969 14.410156 7.929688 14.410156 7.8125 14.410156 C 7.40625 14.425781 7.039062 14.332031 6.703125 14.132812 Z M 6.703125 14.132812 "/>
<path style=" stroke:none;fill-rule:evenodd;fill:rgb(69.411765%,76.862745%,90.980392%);fill-opacity:1;" d="M 8.160156 14.410156 C 9.132812 14.464844 10.101562 14.488281 11.078125 14.480469 C 10.695312 14.527344 10.300781 14.546875 9.894531 14.546875 C 9.300781 14.5625 8.722656 14.515625 8.160156 14.410156 Z M 8.160156 14.410156 "/>
<path style=" stroke:none;fill-rule:evenodd;fill:rgb(37.254902%,52.941176%,81.960784%);fill-opacity:1;" d="M 7.8125 14.410156 C 7.929688 14.410156 8.042969 14.410156 8.160156 14.410156 C 8.722656 14.515625 9.300781 14.5625 9.894531 14.546875 C 10.300781 14.546875 10.695312 14.527344 11.078125 14.480469 C 11.308594 14.480469 11.539062 14.480469 11.769531 14.480469 C 10.488281 14.652344 9.191406 14.664062 7.882812 14.515625 C 7.84375 14.488281 7.820312 14.453125 7.8125 14.410156 Z M 7.8125 14.410156 "/>
<path style=" stroke:none;fill-rule:evenodd;fill:rgb(73.333333%,80%,92.54902%);fill-opacity:1;" d="M 15.382812 15.105469 C 15.316406 15.378906 15.15625 15.5625 14.894531 15.660156 C 15.058594 15.472656 15.222656 15.289062 15.382812 15.105469 Z M 15.382812 15.105469 "/>
<path style=" stroke:none;fill-rule:evenodd;fill:rgb(73.72549%,80%,92.54902%);fill-opacity:1;" d="M 14.894531 15.660156 C 14.863281 15.757812 14.792969 15.804688 14.6875 15.796875 C 14.71875 15.699219 14.789062 15.65625 14.894531 15.660156 Z M 14.894531 15.660156 "/>
<path style=" stroke:none;fill-rule:evenodd;fill:rgb(80.392157%,85.098039%,94.117647%);fill-opacity:1;" d="M 14.6875 15.796875 C 14.617188 15.929688 14.503906 16 14.339844 16.007812 C 14.421875 15.886719 14.535156 15.816406 14.6875 15.796875 Z M 14.6875 15.796875 "/>
<path style=" stroke:none;fill-rule:evenodd;fill:rgb(66.27451%,74.509804%,90.196078%);fill-opacity:1;" d="M 14.0625 16.078125 C 13.914062 16.226562 13.730469 16.296875 13.507812 16.285156 C 13.675781 16.191406 13.859375 16.121094 14.0625 16.078125 Z M 14.0625 16.078125 "/>
<path style=" stroke:none;fill-rule:evenodd;fill:rgb(72.941176%,79.215686%,92.156863%);fill-opacity:1;" d="M 13.507812 16.285156 C 13.308594 16.4375 13.074219 16.503906 12.8125 16.492188 C 12.8125 16.46875 12.8125 16.445312 12.8125 16.421875 C 13.042969 16.378906 13.277344 16.332031 13.507812 16.285156 Z M 13.507812 16.285156 "/>
<path style=" stroke:none;fill-rule:evenodd;fill:rgb(50.980392%,63.137255%,85.882353%);fill-opacity:1;" d="M 12.8125 16.421875 C 12.8125 16.445312 12.8125 16.46875 12.8125 16.492188 C 12.628906 16.515625 12.441406 16.539062 12.257812 16.5625 C 12.417969 16.457031 12.605469 16.410156 12.8125 16.421875 Z M 12.8125 16.421875 "/>
<path style=" stroke:none;fill-rule:evenodd;fill:rgb(64.705882%,73.72549%,89.803922%);fill-opacity:1;" d="M 7.464844 16.5625 C 7.765625 16.578125 8.066406 16.601562 8.367188 16.632812 C 8.367188 16.65625 8.367188 16.679688 8.367188 16.703125 C 8.050781 16.707031 7.75 16.660156 7.464844 16.5625 Z M 7.464844 16.5625 "/>
<path style=" stroke:none;fill-rule:evenodd;fill:rgb(50.980392%,63.137255%,85.882353%);fill-opacity:1;" d="M 8.367188 16.632812 C 9.152344 16.679688 9.941406 16.703125 10.730469 16.703125 C 9.941406 16.792969 9.15625 16.792969 8.367188 16.703125 C 8.367188 16.679688 8.367188 16.65625 8.367188 16.632812 Z M 8.367188 16.632812 "/>
</g>
</svg>
