<?xml version="1.0" encoding="UTF-8"?>
<svg xmlns="http://www.w3.org/2000/svg" xmlns:xlink="http://www.w3.org/1999/xlink" width="59px" height="20px" viewBox="0 0 6 20" version="1.1">
<g id="surface1">
<path style=" stroke:none;fill-rule:evenodd;fill:rgb(99.607843%,99.607843%,99.607843%);fill-opacity:1;" d="M -0.0117188 6.597656 C 1.988281 6.597656 3.988281 6.597656 5.988281 6.597656 C 5.988281 8.859375 5.988281 11.117188 5.988281 13.378906 C 3.988281 13.378906 1.988281 13.378906 -0.0117188 13.378906 C -0.0117188 11.117188 -0.0117188 8.859375 -0.0117188 6.597656 Z M -0.0117188 6.597656 "/>
<path style=" stroke:none;fill-rule:evenodd;fill:rgb(71.764706%,78.431373%,91.764706%);fill-opacity:1;" d="M 3.386719 7.679688 C 3.105469 7.671875 2.828125 7.679688 2.550781 7.707031 C 2.515625 7.707031 2.484375 7.707031 2.449219 7.707031 C 2.472656 7.6875 2.5 7.675781 2.53125 7.667969 C 2.820312 7.648438 3.105469 7.652344 3.386719 7.679688 Z M 3.386719 7.679688 "/>
<path style=" stroke:none;fill-rule:evenodd;fill:rgb(43.137255%,56.862745%,83.529412%);fill-opacity:1;" d="M 2.449219 7.707031 C 2.484375 7.707031 2.515625 7.707031 2.550781 7.707031 C 2.4375 7.738281 2.320312 7.753906 2.199219 7.75 C 2.277344 7.71875 2.359375 7.703125 2.449219 7.707031 Z M 2.449219 7.707031 "/>
<path style=" stroke:none;fill-rule:evenodd;fill:rgb(27.058824%,45.490196%,79.215686%);fill-opacity:1;" d="M 3.386719 7.679688 C 3.578125 7.699219 3.765625 7.738281 3.949219 7.800781 C 3.988281 7.832031 4.039062 7.847656 4.09375 7.84375 C 4.121094 7.839844 4.140625 7.847656 4.15625 7.871094 C 4.1875 7.894531 4.222656 7.910156 4.261719 7.917969 C 4.292969 7.921875 4.324219 7.9375 4.34375 7.964844 C 4.375 8.023438 4.425781 8.054688 4.488281 8.058594 C 4.515625 8.105469 4.550781 8.144531 4.59375 8.175781 C 4.65625 8.300781 4.644531 8.417969 4.5625 8.527344 C 4.519531 8.582031 4.472656 8.628906 4.425781 8.671875 C 4.378906 8.679688 4.335938 8.703125 4.300781 8.742188 C 4.230469 8.765625 4.160156 8.800781 4.09375 8.835938 C 3.960938 8.882812 3.828125 8.921875 3.699219 8.953125 C 3.648438 8.953125 3.601562 8.953125 3.550781 8.953125 C 3.441406 8.945312 3.339844 8.960938 3.238281 9 C 3.074219 9 2.90625 9 2.738281 9 C 2.621094 8.96875 2.492188 8.953125 2.363281 8.953125 C 2.320312 8.929688 2.28125 8.90625 2.238281 8.871094 C 2.171875 8.859375 2.101562 8.863281 2.03125 8.882812 C 1.96875 8.867188 1.90625 8.851562 1.84375 8.835938 C 1.746094 8.78125 1.648438 8.726562 1.550781 8.671875 C 1.496094 8.640625 1.449219 8.601562 1.40625 8.550781 C 1.40625 8.515625 1.394531 8.492188 1.363281 8.480469 C 1.367188 8.457031 1.363281 8.441406 1.34375 8.433594 C 1.339844 8.355469 1.347656 8.277344 1.363281 8.199219 C 1.414062 8.160156 1.453125 8.113281 1.488281 8.058594 C 1.488281 8.042969 1.496094 8.035156 1.511719 8.035156 C 1.542969 8.035156 1.5625 8.019531 1.574219 7.988281 C 1.628906 7.976562 1.675781 7.953125 1.71875 7.917969 C 1.734375 7.917969 1.738281 7.910156 1.738281 7.894531 C 1.8125 7.894531 1.875 7.871094 1.925781 7.824219 C 2.003906 7.8125 2.082031 7.800781 2.15625 7.789062 C 2.175781 7.78125 2.1875 7.769531 2.199219 7.75 C 2.320312 7.753906 2.4375 7.738281 2.550781 7.707031 C 2.828125 7.679688 3.105469 7.671875 3.386719 7.679688 Z M 3.386719 7.679688 "/>
<path style=" stroke:none;fill-rule:evenodd;fill:rgb(49.803922%,62.352941%,85.490196%);fill-opacity:1;" d="M 2.199219 7.75 C 2.1875 7.769531 2.175781 7.78125 2.15625 7.789062 C 2.082031 7.800781 2.003906 7.8125 1.925781 7.824219 C 2.011719 7.78125 2.101562 7.757812 2.199219 7.75 Z M 2.199219 7.75 "/>
<path style=" stroke:none;fill-rule:evenodd;fill:rgb(59.607843%,69.803922%,88.627451%);fill-opacity:1;" d="M 3.949219 7.800781 C 4.003906 7.796875 4.050781 7.8125 4.09375 7.84375 C 4.039062 7.847656 3.988281 7.832031 3.949219 7.800781 Z M 3.949219 7.800781 "/>
<path style=" stroke:none;fill-rule:evenodd;fill:rgb(49.803922%,61.960784%,85.490196%);fill-opacity:1;" d="M 1.925781 7.824219 C 1.875 7.871094 1.8125 7.894531 1.738281 7.894531 C 1.796875 7.855469 1.859375 7.832031 1.925781 7.824219 Z M 1.925781 7.824219 "/>
<path style=" stroke:none;fill-rule:evenodd;fill:rgb(71.372549%,78.431373%,91.764706%);fill-opacity:1;" d="M 4.15625 7.871094 C 4.203125 7.859375 4.238281 7.875 4.261719 7.917969 C 4.222656 7.910156 4.1875 7.894531 4.15625 7.871094 Z M 4.15625 7.871094 "/>
<path style=" stroke:none;fill-rule:evenodd;fill:rgb(55.686275%,66.666667%,87.058824%);fill-opacity:1;" d="M 1.71875 7.917969 C 1.675781 7.953125 1.628906 7.976562 1.574219 7.988281 C 1.609375 7.933594 1.65625 7.910156 1.71875 7.917969 Z M 1.71875 7.917969 "/>
<path style=" stroke:none;fill-rule:evenodd;fill:rgb(54.117647%,65.490196%,87.058824%);fill-opacity:1;" d="M 1.574219 7.988281 C 1.5625 8.019531 1.542969 8.035156 1.511719 8.035156 C 1.519531 8 1.542969 7.984375 1.574219 7.988281 Z M 1.574219 7.988281 "/>
<path style=" stroke:none;fill-rule:evenodd;fill:rgb(52.941176%,63.529412%,86.27451%);fill-opacity:1;" d="M 4.34375 7.964844 C 4.402344 7.976562 4.449219 8.007812 4.488281 8.058594 C 4.425781 8.054688 4.375 8.023438 4.34375 7.964844 Z M 4.34375 7.964844 "/>
<path style=" stroke:none;fill-rule:evenodd;fill:rgb(52.941176%,64.313725%,86.27451%);fill-opacity:1;" d="M 1.488281 8.058594 C 1.453125 8.113281 1.414062 8.160156 1.363281 8.199219 C 1.386719 8.128906 1.425781 8.082031 1.488281 8.058594 Z M 1.488281 8.058594 "/>
<path style=" stroke:none;fill-rule:evenodd;fill:rgb(69.411765%,76.862745%,90.980392%);fill-opacity:1;" d="M 1.363281 8.199219 C 1.347656 8.277344 1.339844 8.355469 1.34375 8.433594 C 1.320312 8.367188 1.316406 8.296875 1.332031 8.222656 C 1.339844 8.210938 1.351562 8.203125 1.363281 8.199219 Z M 1.363281 8.199219 "/>
<path style=" stroke:none;fill-rule:evenodd;fill:rgb(68.235294%,76.078431%,90.980392%);fill-opacity:1;" d="M 1.363281 8.480469 C 1.394531 8.492188 1.40625 8.515625 1.40625 8.550781 C 1.378906 8.539062 1.363281 8.515625 1.363281 8.480469 Z M 1.363281 8.480469 "/>
<path style=" stroke:none;fill-rule:evenodd;fill:rgb(81.176471%,85.490196%,94.509804%);fill-opacity:1;" d="M 4.425781 8.671875 C 4.402344 8.726562 4.363281 8.75 4.300781 8.742188 C 4.335938 8.703125 4.378906 8.679688 4.425781 8.671875 Z M 4.425781 8.671875 "/>
<path style=" stroke:none;fill-rule:evenodd;fill:rgb(60.784314%,70.196078%,88.627451%);fill-opacity:1;" d="M 1.550781 8.671875 C 1.648438 8.726562 1.746094 8.78125 1.84375 8.835938 C 1.726562 8.816406 1.628906 8.761719 1.550781 8.671875 Z M 1.550781 8.671875 "/>
<path style=" stroke:none;fill-rule:evenodd;fill:rgb(77.254902%,82.745098%,93.72549%);fill-opacity:1;" d="M 4.300781 8.742188 C 4.246094 8.804688 4.175781 8.835938 4.09375 8.835938 C 4.160156 8.800781 4.230469 8.765625 4.300781 8.742188 Z M 4.300781 8.742188 "/>
<path style=" stroke:none;fill-rule:evenodd;fill:rgb(36.862745%,52.156863%,81.568627%);fill-opacity:1;" d="M 2.363281 8.953125 C 2.246094 8.949219 2.136719 8.925781 2.03125 8.882812 C 2.101562 8.863281 2.171875 8.859375 2.238281 8.871094 C 2.28125 8.90625 2.320312 8.929688 2.363281 8.953125 Z M 2.363281 8.953125 "/>
<path style=" stroke:none;fill-rule:evenodd;fill:rgb(82.745098%,87.058824%,94.901961%);fill-opacity:1;" d="M 4.09375 8.835938 C 3.976562 8.921875 3.84375 8.960938 3.699219 8.953125 C 3.828125 8.921875 3.960938 8.882812 4.09375 8.835938 Z M 4.09375 8.835938 "/>
<path style=" stroke:none;fill-rule:evenodd;fill:rgb(27.45098%,45.882353%,79.215686%);fill-opacity:1;" d="M 1.386719 8.953125 C 1.40625 8.980469 1.433594 8.996094 1.46875 9 C 1.480469 9.03125 1.5 9.046875 1.53125 9.046875 C 1.570312 9.070312 1.609375 9.085938 1.65625 9.09375 C 1.671875 9.132812 1.699219 9.148438 1.738281 9.140625 C 1.777344 9.183594 1.828125 9.207031 1.886719 9.210938 C 1.933594 9.222656 1.980469 9.230469 2.03125 9.234375 C 2.082031 9.273438 2.136719 9.285156 2.199219 9.28125 C 2.230469 9.28125 2.269531 9.28125 2.300781 9.28125 C 2.523438 9.339844 2.746094 9.363281 2.980469 9.351562 C 3.148438 9.359375 3.308594 9.34375 3.46875 9.304688 C 3.65625 9.285156 3.84375 9.253906 4.03125 9.210938 C 4.09375 9.195312 4.148438 9.171875 4.199219 9.140625 C 4.320312 9.097656 4.4375 9.042969 4.550781 8.976562 C 4.574219 8.976562 4.589844 8.96875 4.605469 8.953125 C 4.613281 9.125 4.617188 9.296875 4.613281 9.46875 C 4.617188 9.496094 4.613281 9.519531 4.605469 9.539062 C 4.5625 9.609375 4.519531 9.671875 4.46875 9.730469 C 4.425781 9.753906 4.386719 9.777344 4.34375 9.800781 C 4.3125 9.796875 4.292969 9.8125 4.28125 9.847656 C 4.234375 9.847656 4.191406 9.863281 4.15625 9.894531 C 4.070312 9.902344 3.992188 9.933594 3.925781 9.988281 C 3.734375 10.027344 3.539062 10.0625 3.34375 10.082031 C 3.023438 10.085938 2.703125 10.078125 2.386719 10.058594 C 2.320312 10.027344 2.25 10.011719 2.175781 10.011719 C 2.140625 10.015625 2.105469 10.007812 2.074219 9.988281 C 2.011719 9.945312 1.941406 9.921875 1.863281 9.917969 C 1.773438 9.886719 1.683594 9.84375 1.59375 9.800781 C 1.585938 9.765625 1.5625 9.75 1.53125 9.753906 C 1.515625 9.710938 1.488281 9.6875 1.449219 9.683594 C 1.40625 9.632812 1.371094 9.578125 1.34375 9.519531 C 1.332031 9.320312 1.34375 9.132812 1.386719 8.953125 Z M 1.386719 8.953125 "/>
<path style=" stroke:none;fill-rule:evenodd;fill:rgb(66.27451%,74.509804%,90.196078%);fill-opacity:1;" d="M 1.386719 8.953125 C 1.34375 9.132812 1.332031 9.320312 1.34375 9.519531 C 1.316406 9.316406 1.316406 9.113281 1.34375 8.90625 C 1.363281 8.914062 1.378906 8.929688 1.386719 8.953125 Z M 1.386719 8.953125 "/>
<path style=" stroke:none;fill-rule:evenodd;fill:rgb(45.882353%,59.215686%,84.313725%);fill-opacity:1;" d="M 2.363281 8.953125 C 2.492188 8.953125 2.621094 8.96875 2.738281 9 C 2.621094 9 2.503906 8.992188 2.386719 8.976562 C 2.371094 8.976562 2.363281 8.96875 2.363281 8.953125 Z M 2.363281 8.953125 "/>
<path style=" stroke:none;fill-rule:evenodd;fill:rgb(43.529412%,57.647059%,83.921569%);fill-opacity:1;" d="M 3.550781 8.953125 C 3.550781 8.960938 3.550781 8.96875 3.550781 8.976562 C 3.449219 8.984375 3.34375 8.992188 3.238281 9 C 3.339844 8.960938 3.441406 8.945312 3.550781 8.953125 Z M 3.550781 8.953125 "/>
<path style=" stroke:none;fill-rule:evenodd;fill:rgb(85.882353%,89.411765%,95.686275%);fill-opacity:1;" d="M 4.59375 8.929688 C 4.609375 8.90625 4.628906 8.898438 4.65625 8.90625 C 4.664062 9.097656 4.65625 9.285156 4.636719 9.46875 C 4.648438 9.28125 4.636719 9.097656 4.59375 8.929688 Z M 4.59375 8.929688 "/>
<path style=" stroke:none;fill-rule:evenodd;fill:rgb(84.705882%,88.235294%,95.294118%);fill-opacity:1;" d="M 2.386719 8.976562 C 2.503906 8.992188 2.621094 9 2.738281 9 C 2.738281 9.007812 2.738281 9.015625 2.738281 9.023438 C 2.617188 9.03125 2.5 9.015625 2.386719 8.976562 Z M 2.386719 8.976562 "/>
<path style=" stroke:none;fill-rule:evenodd;fill:rgb(78.823529%,83.921569%,93.72549%);fill-opacity:1;" d="M 3.550781 8.976562 C 3.515625 8.996094 3.472656 9.007812 3.425781 9.011719 C 3.199219 9.023438 2.96875 9.027344 2.738281 9.023438 C 2.738281 9.015625 2.738281 9.007812 2.738281 9 C 2.90625 9 3.074219 9 3.238281 9 C 3.34375 8.992188 3.449219 8.984375 3.550781 8.976562 Z M 3.550781 8.976562 "/>
<path style=" stroke:none;fill-rule:evenodd;fill:rgb(43.137255%,57.647059%,83.529412%);fill-opacity:1;" d="M 4.59375 8.929688 C 4.636719 9.097656 4.648438 9.28125 4.636719 9.46875 C 4.628906 9.46875 4.621094 9.46875 4.613281 9.46875 C 4.617188 9.296875 4.613281 9.125 4.605469 8.953125 C 4.589844 8.96875 4.574219 8.976562 4.550781 8.976562 C 4.558594 8.953125 4.574219 8.9375 4.59375 8.929688 Z M 4.59375 8.929688 "/>
<path style=" stroke:none;fill-rule:evenodd;fill:rgb(69.019608%,76.862745%,90.980392%);fill-opacity:1;" d="M 1.46875 9 C 1.5 8.996094 1.519531 9.011719 1.53125 9.046875 C 1.5 9.046875 1.480469 9.03125 1.46875 9 Z M 1.46875 9 "/>
<path style=" stroke:none;fill-rule:evenodd;fill:rgb(81.176471%,85.490196%,94.509804%);fill-opacity:1;" d="M 1.65625 9.09375 C 1.730469 9.105469 1.800781 9.128906 1.863281 9.164062 C 1.820312 9.164062 1.78125 9.15625 1.738281 9.140625 C 1.699219 9.148438 1.671875 9.132812 1.65625 9.09375 Z M 1.65625 9.09375 "/>
<path style=" stroke:none;fill-rule:evenodd;fill:rgb(47.058824%,60%,84.705882%);fill-opacity:1;" d="M 1.738281 9.140625 C 1.78125 9.15625 1.820312 9.164062 1.863281 9.164062 C 1.863281 9.179688 1.871094 9.1875 1.886719 9.1875 C 1.886719 9.195312 1.886719 9.203125 1.886719 9.210938 C 1.828125 9.207031 1.777344 9.183594 1.738281 9.140625 Z M 1.738281 9.140625 "/>
<path style=" stroke:none;fill-rule:evenodd;fill:rgb(67.058824%,75.294118%,90.588235%);fill-opacity:1;" d="M 4.199219 9.140625 C 4.148438 9.171875 4.09375 9.195312 4.03125 9.210938 C 4.074219 9.160156 4.128906 9.136719 4.199219 9.140625 Z M 4.199219 9.140625 "/>
<path style=" stroke:none;fill-rule:evenodd;fill:rgb(66.27451%,74.509804%,90.196078%);fill-opacity:1;" d="M 1.886719 9.210938 C 1.886719 9.203125 1.886719 9.195312 1.886719 9.1875 C 1.941406 9.1875 1.988281 9.203125 2.03125 9.234375 C 1.980469 9.230469 1.933594 9.222656 1.886719 9.210938 Z M 1.886719 9.210938 "/>
<path style=" stroke:none;fill-rule:evenodd;fill:rgb(56.470588%,67.058824%,87.45098%);fill-opacity:1;" d="M 2.03125 9.234375 C 2.09375 9.230469 2.148438 9.246094 2.199219 9.28125 C 2.136719 9.285156 2.082031 9.273438 2.03125 9.234375 Z M 2.03125 9.234375 "/>
<path style=" stroke:none;fill-rule:evenodd;fill:rgb(69.803922%,77.254902%,91.372549%);fill-opacity:1;" d="M 2.300781 9.28125 C 2.691406 9.332031 3.078125 9.339844 3.46875 9.304688 C 3.308594 9.34375 3.148438 9.359375 2.980469 9.351562 C 2.746094 9.363281 2.523438 9.339844 2.300781 9.28125 Z M 2.300781 9.28125 "/>
<path style=" stroke:none;fill-rule:evenodd;fill:rgb(77.647059%,83.137255%,93.333333%);fill-opacity:1;" d="M 4.613281 9.46875 C 4.621094 9.46875 4.628906 9.46875 4.636719 9.46875 C 4.625 9.59375 4.570312 9.679688 4.46875 9.730469 C 4.519531 9.671875 4.5625 9.609375 4.605469 9.539062 C 4.613281 9.519531 4.617188 9.496094 4.613281 9.46875 Z M 4.613281 9.46875 "/>
<path style=" stroke:none;fill-rule:evenodd;fill:rgb(54.901961%,65.882353%,87.058824%);fill-opacity:1;" d="M 1.449219 9.683594 C 1.488281 9.6875 1.515625 9.710938 1.53125 9.753906 C 1.492188 9.746094 1.464844 9.722656 1.449219 9.683594 Z M 1.449219 9.683594 "/>
<path style=" stroke:none;fill-rule:evenodd;fill:rgb(63.529412%,72.156863%,89.411765%);fill-opacity:1;" d="M 1.53125 9.753906 C 1.5625 9.75 1.585938 9.765625 1.59375 9.800781 C 1.5625 9.800781 1.542969 9.785156 1.53125 9.753906 Z M 1.53125 9.753906 "/>
<path style=" stroke:none;fill-rule:evenodd;fill:rgb(63.529412%,72.54902%,89.411765%);fill-opacity:1;" d="M 4.34375 9.800781 C 4.332031 9.832031 4.3125 9.847656 4.28125 9.847656 C 4.292969 9.8125 4.3125 9.796875 4.34375 9.800781 Z M 4.34375 9.800781 "/>
<path style=" stroke:none;fill-rule:evenodd;fill:rgb(48.627451%,61.176471%,85.098039%);fill-opacity:1;" d="M 1.863281 9.917969 C 1.941406 9.921875 2.011719 9.945312 2.074219 9.988281 C 1.996094 9.984375 1.925781 9.957031 1.863281 9.917969 Z M 1.863281 9.917969 "/>
<path style=" stroke:none;fill-rule:evenodd;fill:rgb(62.745098%,71.764706%,89.019608%);fill-opacity:1;" d="M 4.15625 9.894531 C 4.082031 9.9375 4.007812 9.96875 3.925781 9.988281 C 3.992188 9.933594 4.070312 9.902344 4.15625 9.894531 Z M 4.15625 9.894531 "/>
<path style=" stroke:none;fill-rule:evenodd;fill:rgb(56.862745%,67.843137%,87.45098%);fill-opacity:1;" d="M 2.175781 10.011719 C 2.25 10.011719 2.320312 10.027344 2.386719 10.058594 C 2.308594 10.0625 2.242188 10.046875 2.175781 10.011719 Z M 2.175781 10.011719 "/>
<path style=" stroke:none;fill-rule:evenodd;fill:rgb(86.666667%,89.803922%,96.078431%);fill-opacity:1;" d="M 4.613281 10.011719 C 4.617188 10 4.621094 9.992188 4.636719 9.988281 C 4.664062 10.1875 4.664062 10.382812 4.636719 10.578125 C 4.640625 10.382812 4.636719 10.195312 4.613281 10.011719 Z M 4.613281 10.011719 "/>
<path style=" stroke:none;fill-rule:evenodd;fill:rgb(66.666667%,74.901961%,90.196078%);fill-opacity:1;" d="M 1.40625 10.058594 C 1.386719 10.0625 1.367188 10.054688 1.355469 10.035156 C 1.34375 10.222656 1.339844 10.410156 1.34375 10.601562 C 1.324219 10.40625 1.316406 10.210938 1.324219 10.011719 C 1.363281 10.003906 1.390625 10.019531 1.40625 10.058594 Z M 1.40625 10.058594 "/>
<path style=" stroke:none;fill-rule:evenodd;fill:rgb(27.058824%,45.490196%,79.215686%);fill-opacity:1;" d="M 1.40625 10.058594 C 1.414062 10.089844 1.4375 10.105469 1.46875 10.105469 C 1.488281 10.132812 1.519531 10.148438 1.550781 10.152344 C 1.59375 10.1875 1.644531 10.214844 1.699219 10.222656 C 1.71875 10.246094 1.75 10.253906 1.78125 10.246094 C 1.871094 10.300781 1.96875 10.332031 2.074219 10.339844 C 2.082031 10.339844 2.085938 10.339844 2.09375 10.339844 C 2.164062 10.378906 2.242188 10.394531 2.324219 10.386719 C 2.414062 10.417969 2.511719 10.4375 2.613281 10.449219 C 2.859375 10.464844 3.101562 10.460938 3.34375 10.4375 C 3.445312 10.4375 3.546875 10.429688 3.644531 10.410156 C 3.6875 10.410156 3.71875 10.394531 3.738281 10.367188 C 3.917969 10.328125 4.089844 10.28125 4.261719 10.222656 C 4.320312 10.210938 4.375 10.183594 4.425781 10.152344 C 4.425781 10.136719 4.433594 10.128906 4.449219 10.128906 C 4.480469 10.132812 4.5 10.113281 4.511719 10.082031 C 4.527344 10.066406 4.550781 10.058594 4.574219 10.058594 C 4.601562 10.132812 4.613281 10.214844 4.613281 10.304688 C 4.613281 10.417969 4.605469 10.535156 4.59375 10.648438 C 4.574219 10.699219 4.546875 10.75 4.511719 10.789062 C 4.453125 10.828125 4.398438 10.867188 4.34375 10.90625 C 4.269531 10.921875 4.210938 10.953125 4.15625 11 C 4.089844 11.03125 4.019531 11.054688 3.949219 11.070312 C 3.871094 11.082031 3.796875 11.09375 3.71875 11.105469 C 3.699219 11.113281 3.683594 11.125 3.675781 11.140625 C 3.671875 11.140625 3.664062 11.140625 3.65625 11.140625 C 3.628906 11.140625 3.601562 11.140625 3.574219 11.140625 C 3.140625 11.179688 2.710938 11.171875 2.28125 11.117188 C 2.273438 11.117188 2.269531 11.117188 2.261719 11.117188 C 2.167969 11.078125 2.070312 11.058594 1.96875 11.046875 C 1.914062 11.035156 1.855469 11.019531 1.800781 11 C 1.765625 10.945312 1.71875 10.921875 1.65625 10.929688 C 1.640625 10.921875 1.628906 10.914062 1.613281 10.90625 C 1.605469 10.871094 1.585938 10.859375 1.550781 10.859375 C 1.453125 10.800781 1.382812 10.714844 1.34375 10.601562 C 1.339844 10.410156 1.34375 10.222656 1.355469 10.035156 C 1.367188 10.054688 1.386719 10.0625 1.40625 10.058594 Z M 1.40625 10.058594 "/>
<path style=" stroke:none;fill-rule:evenodd;fill:rgb(67.45098%,75.294118%,90.588235%);fill-opacity:1;" d="M 2.386719 10.058594 C 2.703125 10.078125 3.023438 10.085938 3.34375 10.082031 C 3.070312 10.109375 2.792969 10.113281 2.511719 10.09375 C 2.464844 10.089844 2.421875 10.078125 2.386719 10.058594 Z M 2.386719 10.058594 "/>
<path style=" stroke:none;fill-rule:evenodd;fill:rgb(65.882353%,74.509804%,90.196078%);fill-opacity:1;" d="M 1.40625 10.058594 C 1.4375 10.058594 1.457031 10.074219 1.46875 10.105469 C 1.4375 10.105469 1.414062 10.089844 1.40625 10.058594 Z M 1.40625 10.058594 "/>
<path style=" stroke:none;fill-rule:evenodd;fill:rgb(63.529412%,72.54902%,89.411765%);fill-opacity:1;" d="M 4.511719 10.082031 C 4.5 10.113281 4.480469 10.132812 4.449219 10.128906 C 4.457031 10.097656 4.480469 10.082031 4.511719 10.082031 Z M 4.511719 10.082031 "/>
<path style=" stroke:none;fill-rule:evenodd;fill:rgb(43.529412%,57.647059%,83.529412%);fill-opacity:1;" d="M 4.613281 10.011719 C 4.636719 10.195312 4.640625 10.382812 4.636719 10.578125 C 4.621094 10.601562 4.609375 10.625 4.59375 10.648438 C 4.605469 10.535156 4.613281 10.417969 4.613281 10.304688 C 4.613281 10.214844 4.601562 10.132812 4.574219 10.058594 C 4.578125 10.035156 4.59375 10.019531 4.613281 10.011719 Z M 4.613281 10.011719 "/>
<path style=" stroke:none;fill-rule:evenodd;fill:rgb(70.588235%,77.647059%,91.372549%);fill-opacity:1;" d="M 1.550781 10.152344 C 1.613281 10.144531 1.664062 10.167969 1.699219 10.222656 C 1.644531 10.214844 1.59375 10.1875 1.550781 10.152344 Z M 1.550781 10.152344 "/>
<path style=" stroke:none;fill-rule:evenodd;fill:rgb(56.862745%,67.45098%,87.45098%);fill-opacity:1;" d="M 4.425781 10.152344 C 4.375 10.183594 4.320312 10.210938 4.261719 10.222656 C 4.304688 10.171875 4.359375 10.148438 4.425781 10.152344 Z M 4.425781 10.152344 "/>
<path style=" stroke:none;fill-rule:evenodd;fill:rgb(77.647059%,82.745098%,93.333333%);fill-opacity:1;" d="M 1.78125 10.246094 C 1.886719 10.25 1.984375 10.285156 2.074219 10.339844 C 1.96875 10.332031 1.871094 10.300781 1.78125 10.246094 Z M 1.78125 10.246094 "/>
<path style=" stroke:none;fill-rule:evenodd;fill:rgb(80%,84.705882%,94.117647%);fill-opacity:1;" d="M 2.09375 10.339844 C 2.164062 10.335938 2.230469 10.339844 2.300781 10.355469 C 2.3125 10.363281 2.320312 10.375 2.324219 10.386719 C 2.242188 10.394531 2.164062 10.378906 2.09375 10.339844 Z M 2.09375 10.339844 "/>
<path style=" stroke:none;fill-rule:evenodd;fill:rgb(67.45098%,75.294118%,90.588235%);fill-opacity:1;" d="M 2.324219 10.386719 C 2.664062 10.40625 3.003906 10.414062 3.34375 10.410156 C 3.34375 10.417969 3.34375 10.425781 3.34375 10.4375 C 3.101562 10.460938 2.859375 10.464844 2.613281 10.449219 C 2.511719 10.4375 2.414062 10.417969 2.324219 10.386719 Z M 2.324219 10.386719 "/>
<path style=" stroke:none;fill-rule:evenodd;fill:rgb(49.411765%,61.568627%,85.490196%);fill-opacity:1;" d="M 3.738281 10.367188 C 3.71875 10.394531 3.6875 10.410156 3.644531 10.410156 C 3.546875 10.429688 3.445312 10.4375 3.34375 10.4375 C 3.34375 10.425781 3.34375 10.417969 3.34375 10.410156 C 3.476562 10.402344 3.609375 10.386719 3.738281 10.367188 Z M 3.738281 10.367188 "/>
<path style=" stroke:none;fill-rule:evenodd;fill:rgb(78.039216%,83.137255%,93.72549%);fill-opacity:1;" d="M 4.511719 10.789062 C 4.476562 10.863281 4.417969 10.902344 4.34375 10.90625 C 4.398438 10.867188 4.453125 10.828125 4.511719 10.789062 Z M 4.511719 10.789062 "/>
<path style=" stroke:none;fill-rule:evenodd;fill:rgb(58.039216%,68.235294%,87.843137%);fill-opacity:1;" d="M 1.550781 10.859375 C 1.585938 10.859375 1.605469 10.871094 1.613281 10.90625 C 1.582031 10.910156 1.5625 10.890625 1.550781 10.859375 Z M 1.550781 10.859375 "/>
<path style=" stroke:none;fill-rule:evenodd;fill:rgb(52.156863%,63.529412%,86.27451%);fill-opacity:1;" d="M 1.65625 10.929688 C 1.71875 10.921875 1.765625 10.945312 1.800781 11 C 1.746094 10.992188 1.699219 10.964844 1.65625 10.929688 Z M 1.65625 10.929688 "/>
<path style=" stroke:none;fill-rule:evenodd;fill:rgb(65.098039%,73.72549%,89.803922%);fill-opacity:1;" d="M 4.34375 10.90625 C 4.289062 10.953125 4.226562 10.988281 4.15625 11 C 4.210938 10.953125 4.269531 10.921875 4.34375 10.90625 Z M 4.34375 10.90625 "/>
<path style=" stroke:none;fill-rule:evenodd;fill:rgb(46.666667%,59.607843%,84.705882%);fill-opacity:1;" d="M 1.96875 11.046875 C 2.070312 11.058594 2.167969 11.078125 2.261719 11.117188 C 2.230469 11.117188 2.203125 11.117188 2.175781 11.117188 C 2.101562 11.113281 2.03125 11.089844 1.96875 11.046875 Z M 1.96875 11.046875 "/>
<path style=" stroke:none;fill-rule:evenodd;fill:rgb(67.058824%,75.294118%,90.588235%);fill-opacity:1;" d="M 3.949219 11.070312 C 3.863281 11.113281 3.773438 11.136719 3.675781 11.140625 C 3.683594 11.125 3.699219 11.113281 3.71875 11.105469 C 3.796875 11.09375 3.871094 11.082031 3.949219 11.070312 Z M 3.949219 11.070312 "/>
<path style=" stroke:none;fill-rule:evenodd;fill:rgb(74.509804%,80.784314%,92.54902%);fill-opacity:1;" d="M 2.175781 11.117188 C 2.203125 11.117188 2.230469 11.117188 2.261719 11.117188 C 2.269531 11.117188 2.273438 11.117188 2.28125 11.117188 C 2.308594 11.132812 2.335938 11.148438 2.363281 11.164062 C 2.296875 11.167969 2.234375 11.152344 2.175781 11.117188 Z M 2.175781 11.117188 "/>
<path style=" stroke:none;fill-rule:evenodd;fill:rgb(40.784314%,55.686275%,83.137255%);fill-opacity:1;" d="M 2.28125 11.117188 C 2.710938 11.171875 3.140625 11.179688 3.574219 11.140625 C 3.179688 11.195312 2.785156 11.203125 2.386719 11.164062 C 2.378906 11.164062 2.371094 11.164062 2.363281 11.164062 C 2.335938 11.148438 2.308594 11.132812 2.28125 11.117188 Z M 2.28125 11.117188 "/>
<path style=" stroke:none;fill-rule:evenodd;fill:rgb(65.882353%,74.117647%,90.196078%);fill-opacity:1;" d="M 1.386719 11.140625 C 1.34375 11.320312 1.332031 11.507812 1.34375 11.707031 C 1.324219 11.515625 1.316406 11.320312 1.324219 11.117188 C 1.351562 11.113281 1.371094 11.121094 1.386719 11.140625 Z M 1.386719 11.140625 "/>
<path style=" stroke:none;fill-rule:evenodd;fill:rgb(27.058824%,45.882353%,79.215686%);fill-opacity:1;" d="M 1.386719 11.140625 C 1.394531 11.175781 1.414062 11.191406 1.449219 11.1875 C 1.511719 11.234375 1.582031 11.265625 1.65625 11.28125 C 1.667969 11.316406 1.6875 11.332031 1.71875 11.328125 C 1.8125 11.363281 1.910156 11.386719 2.011719 11.402344 C 2.113281 11.46875 2.222656 11.5 2.34375 11.496094 C 2.347656 11.507812 2.351562 11.519531 2.363281 11.53125 C 2.757812 11.582031 3.144531 11.578125 3.53125 11.519531 C 3.695312 11.472656 3.859375 11.433594 4.03125 11.402344 C 4.121094 11.398438 4.195312 11.363281 4.261719 11.308594 C 4.363281 11.269531 4.457031 11.222656 4.550781 11.164062 C 4.574219 11.167969 4.589844 11.160156 4.605469 11.140625 C 4.613281 11.3125 4.617188 11.488281 4.613281 11.660156 C 4.613281 11.683594 4.613281 11.707031 4.613281 11.730469 C 4.566406 11.792969 4.519531 11.855469 4.46875 11.917969 C 4.4375 11.917969 4.414062 11.933594 4.40625 11.964844 C 4.359375 11.972656 4.328125 11.996094 4.300781 12.035156 C 4.273438 12.042969 4.246094 12.050781 4.21875 12.058594 C 4.15625 12.074219 4.101562 12.097656 4.050781 12.128906 C 3.984375 12.144531 3.914062 12.164062 3.84375 12.175781 C 3.78125 12.171875 3.726562 12.1875 3.675781 12.222656 C 3.527344 12.265625 3.375 12.28125 3.21875 12.273438 C 2.980469 12.273438 2.746094 12.265625 2.511719 12.25 C 2.417969 12.238281 2.328125 12.230469 2.238281 12.222656 C 2 12.183594 1.769531 12.101562 1.550781 11.976562 C 1.46875 11.894531 1.402344 11.804688 1.34375 11.707031 C 1.332031 11.507812 1.34375 11.320312 1.386719 11.140625 Z M 1.386719 11.140625 "/>
<path style=" stroke:none;fill-rule:evenodd;fill:rgb(75.294118%,81.568627%,92.941176%);fill-opacity:1;" d="M 3.574219 11.140625 C 3.601562 11.140625 3.628906 11.140625 3.65625 11.140625 C 3.652344 11.15625 3.648438 11.167969 3.636719 11.175781 C 3.414062 11.199219 3.191406 11.210938 2.96875 11.214844 C 2.769531 11.21875 2.574219 11.203125 2.386719 11.164062 C 2.785156 11.203125 3.179688 11.195312 3.574219 11.140625 Z M 3.574219 11.140625 "/>
<path style=" stroke:none;fill-rule:evenodd;fill:rgb(65.098039%,73.72549%,89.803922%);fill-opacity:1;" d="M 1.386719 11.140625 C 1.417969 11.140625 1.4375 11.15625 1.449219 11.1875 C 1.414062 11.191406 1.394531 11.175781 1.386719 11.140625 Z M 1.386719 11.140625 "/>
<path style=" stroke:none;fill-rule:evenodd;fill:rgb(43.137255%,57.647059%,83.529412%);fill-opacity:1;" d="M 4.59375 11.117188 C 4.636719 11.289062 4.648438 11.46875 4.636719 11.660156 C 4.628906 11.660156 4.621094 11.660156 4.613281 11.660156 C 4.617188 11.488281 4.613281 11.3125 4.605469 11.140625 C 4.589844 11.160156 4.574219 11.167969 4.550781 11.164062 C 4.558594 11.140625 4.574219 11.125 4.59375 11.117188 Z M 4.59375 11.117188 "/>
<path style=" stroke:none;fill-rule:evenodd;fill:rgb(85.882353%,89.411765%,95.686275%);fill-opacity:1;" d="M 4.59375 11.117188 C 4.609375 11.097656 4.628906 11.089844 4.65625 11.09375 C 4.664062 11.285156 4.65625 11.476562 4.636719 11.660156 C 4.648438 11.46875 4.636719 11.289062 4.59375 11.117188 Z M 4.59375 11.117188 "/>
<path style=" stroke:none;fill-rule:evenodd;fill:rgb(65.490196%,73.72549%,89.803922%);fill-opacity:1;" d="M 1.65625 11.28125 C 1.6875 11.28125 1.707031 11.296875 1.71875 11.328125 C 1.6875 11.332031 1.667969 11.316406 1.65625 11.28125 Z M 1.65625 11.28125 "/>
<path style=" stroke:none;fill-rule:evenodd;fill:rgb(54.117647%,65.490196%,87.058824%);fill-opacity:1;" d="M 4.261719 11.308594 C 4.195312 11.363281 4.121094 11.398438 4.03125 11.402344 C 4.101562 11.359375 4.179688 11.328125 4.261719 11.308594 Z M 4.261719 11.308594 "/>
<path style=" stroke:none;fill-rule:evenodd;fill:rgb(75.294118%,81.176471%,92.941176%);fill-opacity:1;" d="M 2.011719 11.402344 C 2.160156 11.429688 2.304688 11.460938 2.449219 11.496094 C 2.414062 11.496094 2.378906 11.496094 2.34375 11.496094 C 2.222656 11.5 2.113281 11.46875 2.011719 11.402344 Z M 2.011719 11.402344 "/>
<path style=" stroke:none;fill-rule:evenodd;fill:rgb(69.411765%,76.862745%,90.980392%);fill-opacity:1;" d="M 2.449219 11.496094 C 2.738281 11.511719 3.03125 11.519531 3.324219 11.519531 C 3.207031 11.535156 3.089844 11.542969 2.96875 11.542969 C 2.789062 11.546875 2.617188 11.53125 2.449219 11.496094 Z M 2.449219 11.496094 "/>
<path style=" stroke:none;fill-rule:evenodd;fill:rgb(37.254902%,52.941176%,81.960784%);fill-opacity:1;" d="M 2.34375 11.496094 C 2.378906 11.496094 2.414062 11.496094 2.449219 11.496094 C 2.617188 11.53125 2.789062 11.546875 2.96875 11.542969 C 3.089844 11.542969 3.207031 11.535156 3.324219 11.519531 C 3.394531 11.519531 3.460938 11.519531 3.53125 11.519531 C 3.144531 11.578125 2.757812 11.582031 2.363281 11.53125 C 2.351562 11.519531 2.347656 11.507812 2.34375 11.496094 Z M 2.34375 11.496094 "/>
<path style=" stroke:none;fill-rule:evenodd;fill:rgb(73.333333%,80%,92.54902%);fill-opacity:1;" d="M 4.613281 11.730469 C 4.59375 11.824219 4.546875 11.886719 4.46875 11.917969 C 4.519531 11.855469 4.566406 11.792969 4.613281 11.730469 Z M 4.613281 11.730469 "/>
<path style=" stroke:none;fill-rule:evenodd;fill:rgb(73.72549%,80%,92.54902%);fill-opacity:1;" d="M 4.46875 11.917969 C 4.457031 11.953125 4.4375 11.96875 4.40625 11.964844 C 4.414062 11.933594 4.4375 11.917969 4.46875 11.917969 Z M 4.46875 11.917969 "/>
<path style=" stroke:none;fill-rule:evenodd;fill:rgb(80.392157%,85.098039%,94.117647%);fill-opacity:1;" d="M 4.40625 11.964844 C 4.386719 12.011719 4.351562 12.035156 4.300781 12.035156 C 4.328125 11.996094 4.359375 11.972656 4.40625 11.964844 Z M 4.40625 11.964844 "/>
<path style=" stroke:none;fill-rule:evenodd;fill:rgb(66.27451%,74.509804%,90.196078%);fill-opacity:1;" d="M 4.21875 12.058594 C 4.175781 12.109375 4.121094 12.132812 4.050781 12.128906 C 4.101562 12.097656 4.15625 12.074219 4.21875 12.058594 Z M 4.21875 12.058594 "/>
<path style=" stroke:none;fill-rule:evenodd;fill:rgb(72.941176%,79.215686%,92.156863%);fill-opacity:1;" d="M 4.050781 12.128906 C 3.992188 12.183594 3.921875 12.203125 3.84375 12.199219 C 3.84375 12.191406 3.84375 12.183594 3.84375 12.175781 C 3.914062 12.164062 3.984375 12.144531 4.050781 12.128906 Z M 4.050781 12.128906 "/>
<path style=" stroke:none;fill-rule:evenodd;fill:rgb(50.980392%,63.137255%,85.882353%);fill-opacity:1;" d="M 3.84375 12.175781 C 3.84375 12.183594 3.84375 12.191406 3.84375 12.199219 C 3.789062 12.207031 3.730469 12.214844 3.675781 12.222656 C 3.726562 12.1875 3.78125 12.171875 3.84375 12.175781 Z M 3.84375 12.175781 "/>
<path style=" stroke:none;fill-rule:evenodd;fill:rgb(64.705882%,73.72549%,89.803922%);fill-opacity:1;" d="M 2.238281 12.222656 C 2.328125 12.230469 2.417969 12.238281 2.511719 12.25 C 2.511719 12.257812 2.511719 12.265625 2.511719 12.273438 C 2.414062 12.273438 2.324219 12.257812 2.238281 12.222656 Z M 2.238281 12.222656 "/>
<path style=" stroke:none;fill-rule:evenodd;fill:rgb(50.980392%,63.137255%,85.882353%);fill-opacity:1;" d="M 2.511719 12.25 C 2.746094 12.265625 2.980469 12.273438 3.21875 12.273438 C 2.980469 12.300781 2.746094 12.300781 2.511719 12.273438 C 2.511719 12.265625 2.511719 12.257812 2.511719 12.25 Z M 2.511719 12.25 "/>
</g>
</svg>
