<?xml version="1.0" encoding="UTF-8"?>
<svg xmlns="http://www.w3.org/2000/svg" xmlns:xlink="http://www.w3.org/1999/xlink" width="20px" height="59px" viewBox="0 0 20 11" version="1.1">
<g id="surface1">
<path style=" stroke:none;fill-rule:evenodd;fill:rgb(96.078431%,96.078431%,96.078431%);fill-opacity:1;" d="M -0.0351562 -0.03125 C 6.632812 -0.03125 13.300781 -0.03125 19.964844 -0.03125 C 19.964844 3.632812 19.964844 7.300781 19.964844 10.96875 C 13.300781 10.96875 6.632812 10.96875 -0.0351562 10.96875 C -0.0351562 7.300781 -0.0351562 3.632812 -0.0351562 -0.03125 Z M -0.0351562 -0.03125 "/>
<path style=" stroke:none;fill-rule:evenodd;fill:rgb(89.019608%,95.686275%,96.862745%);fill-opacity:1;" d="M 3.566406 4.417969 C 3.351562 4.394531 3.152344 4.425781 2.964844 4.519531 C 3.089844 4.53125 3.175781 4.585938 3.234375 4.679688 C 2.90625 4.597656 2.570312 4.53125 2.234375 4.484375 C 2.25 4.304688 2.207031 4.140625 2.101562 3.992188 C 2.191406 3.890625 2.234375 3.769531 2.234375 3.632812 C 2.375 3.613281 2.507812 3.636719 2.632812 3.699219 C 2.691406 3.789062 2.765625 3.851562 2.867188 3.894531 C 2.886719 4 2.917969 4.097656 2.964844 4.191406 C 2.859375 4.222656 2.746094 4.234375 2.632812 4.222656 C 2.632812 4.289062 2.632812 4.355469 2.632812 4.417969 C 2.832031 4.390625 3.03125 4.367188 3.234375 4.355469 C 3.171875 4.109375 3.261719 3.976562 3.5 3.960938 C 3.488281 4.121094 3.507812 4.273438 3.566406 4.417969 Z M 3.566406 4.417969 "/>
<path style=" stroke:none;fill-rule:evenodd;fill:rgb(97.254902%,95.686275%,75.686275%);fill-opacity:1;" d="M 1.566406 4.027344 C 1.480469 4.011719 1.414062 4.03125 1.367188 4.09375 C 1.367188 4.203125 1.367188 4.308594 1.367188 4.417969 C 0.960938 4.429688 0.941406 4.496094 1.300781 4.617188 C 1.144531 4.617188 0.988281 4.617188 0.832031 4.617188 C 0.832031 4.527344 0.832031 4.441406 0.832031 4.355469 C 0.988281 4.355469 1.144531 4.355469 1.300781 4.355469 C 1.300781 4.203125 1.300781 4.046875 1.300781 3.894531 C 1.433594 3.875 1.519531 3.917969 1.566406 4.027344 Z M 1.566406 4.027344 "/>
<path style=" stroke:none;fill-rule:evenodd;fill:rgb(71.372549%,89.411765%,95.686275%);fill-opacity:1;" d="M 3.566406 4.417969 C 3.679688 4.417969 3.789062 4.417969 3.898438 4.417969 C 3.898438 4.507812 3.898438 4.59375 3.898438 4.679688 C 3.765625 4.679688 3.632812 4.679688 3.5 4.679688 C 3.445312 5.09375 3.359375 5.09375 3.234375 4.679688 C 3.175781 4.585938 3.089844 4.53125 2.964844 4.519531 C 3.152344 4.425781 3.351562 4.394531 3.566406 4.417969 Z M 3.566406 4.417969 "/>
<path style=" stroke:none;fill-rule:evenodd;fill:rgb(98.431373%,93.72549%,59.215686%);fill-opacity:1;" d="M 1.367188 4.09375 C 1.414062 4.03125 1.480469 4.011719 1.566406 4.027344 C 1.566406 4.136719 1.566406 4.246094 1.566406 4.355469 C 1.699219 4.355469 1.832031 4.355469 1.964844 4.355469 C 1.964844 4.441406 1.964844 4.527344 1.964844 4.617188 C 1.832031 4.617188 1.699219 4.617188 1.566406 4.617188 C 1.566406 4.769531 1.566406 4.921875 1.566406 5.074219 C 1.480469 5.085938 1.402344 5.0625 1.332031 5.007812 C 1.300781 4.878906 1.289062 4.75 1.300781 4.617188 C 1.34375 4.71875 1.390625 4.824219 1.433594 4.945312 C 1.457031 4.800781 1.476562 4.660156 1.5 4.519531 C 1.496094 4.347656 1.453125 4.203125 1.367188 4.09375 Z M 1.367188 4.09375 "/>
<path style=" stroke:none;fill-rule:evenodd;fill:rgb(55.294118%,68.627451%,87.058824%);fill-opacity:1;" d="M 6.234375 4.550781 C 6.234375 4.789062 6.234375 5.03125 6.234375 5.269531 C 6.476562 5.269531 6.722656 5.269531 6.964844 5.269531 C 6.964844 5.359375 6.964844 5.445312 6.964844 5.53125 C 6.746094 5.53125 6.523438 5.53125 6.300781 5.53125 C 6.320312 5.785156 6.296875 6.027344 6.234375 6.253906 C 6.234375 6.011719 6.234375 5.773438 6.234375 5.53125 C 6.445312 5.488281 6.667969 5.445312 6.898438 5.402344 C 6.660156 5.335938 6.414062 5.316406 6.167969 5.335938 C 6.1875 5.09375 6.164062 4.851562 6.101562 4.617188 C 6.054688 4.640625 6.011719 4.660156 5.964844 4.679688 C 6.011719 4.570312 6.101562 4.527344 6.234375 4.550781 Z M 6.234375 4.550781 "/>
<path style=" stroke:none;fill-rule:evenodd;fill:rgb(83.921569%,85.490196%,91.764706%);fill-opacity:1;" d="M 10.566406 4.484375 C 10.476562 4.484375 10.390625 4.484375 10.300781 4.484375 C 10.300781 5.050781 10.300781 5.621094 10.300781 6.1875 C 10.234375 5.609375 10.210938 5.019531 10.234375 4.417969 C 10.359375 4.402344 10.472656 4.421875 10.566406 4.484375 Z M 10.566406 4.484375 "/>
<path style=" stroke:none;fill-rule:evenodd;fill:rgb(63.137255%,73.72549%,87.058824%);fill-opacity:1;" d="M 12.832031 6.449219 C 12.738281 6.511719 12.628906 6.535156 12.5 6.515625 C 12.5 5.75 12.5 4.988281 12.5 4.222656 C 12.632812 4.222656 12.765625 4.222656 12.898438 4.222656 C 12.921875 4.976562 12.898438 5.71875 12.832031 6.449219 Z M 12.832031 6.449219 "/>
<path style=" stroke:none;fill-rule:evenodd;fill:rgb(39.607843%,56.078431%,77.254902%);fill-opacity:1;" d="M 12.765625 4.355469 C 12.832031 5.039062 12.855469 5.738281 12.832031 6.449219 C 12.726562 6.46875 12.636719 6.445312 12.566406 6.382812 C 12.632812 6.382812 12.699219 6.382812 12.765625 6.382812 C 12.765625 5.707031 12.765625 5.03125 12.765625 4.355469 Z M 12.765625 4.355469 "/>
<path style=" stroke:none;fill-rule:evenodd;fill:rgb(23.529412%,46.666667%,80.392157%);fill-opacity:1;" d="M 12.765625 4.355469 C 12.765625 5.03125 12.765625 5.707031 12.765625 6.382812 C 12.699219 6.382812 12.632812 6.382812 12.566406 6.382812 C 12.566406 5.683594 12.566406 4.988281 12.566406 4.289062 C 12.652344 4.273438 12.71875 4.296875 12.765625 4.355469 Z M 12.765625 4.355469 "/>
<path style=" stroke:none;fill-rule:evenodd;fill:rgb(96.470588%,92.156863%,44.313725%);fill-opacity:1;" d="M 1.367188 4.09375 C 1.453125 4.203125 1.496094 4.347656 1.5 4.519531 C 1.476562 4.660156 1.457031 4.800781 1.433594 4.945312 C 1.390625 4.824219 1.34375 4.71875 1.300781 4.617188 C 0.941406 4.496094 0.960938 4.429688 1.367188 4.417969 C 1.367188 4.308594 1.367188 4.203125 1.367188 4.09375 Z M 1.367188 4.09375 "/>
<path style=" stroke:none;fill-rule:evenodd;fill:rgb(29.411765%,49.803922%,79.215686%);fill-opacity:1;" d="M 9.035156 5.074219 C 9.054688 5.449219 9.03125 5.820312 8.964844 6.1875 C 8.644531 6.300781 8.355469 6.257812 8.101562 6.054688 C 7.800781 5.710938 7.84375 5.394531 8.234375 5.105469 C 8.5 5.074219 8.765625 5.0625 9.035156 5.074219 Z M 9.035156 5.074219 "/>
<path style=" stroke:none;fill-rule:evenodd;fill:rgb(63.921569%,74.117647%,92.156863%);fill-opacity:1;" d="M 10.566406 4.484375 C 10.632812 4.667969 10.652344 4.863281 10.632812 5.074219 C 10.570312 4.914062 10.546875 4.738281 10.566406 4.550781 C 10.5 4.550781 10.433594 4.550781 10.367188 4.550781 C 10.367188 5.097656 10.367188 5.640625 10.367188 6.1875 C 10.34375 6.1875 10.320312 6.1875 10.300781 6.1875 C 10.300781 5.621094 10.300781 5.050781 10.300781 4.484375 C 10.390625 4.484375 10.476562 4.484375 10.566406 4.484375 Z M 10.566406 4.484375 "/>
<path style=" stroke:none;fill-rule:evenodd;fill:rgb(98.039216%,92.54902%,83.529412%);fill-opacity:1;" d="M 2.566406 5.53125 C 2.691406 5.488281 2.824219 5.445312 2.964844 5.402344 C 2.820312 5.355469 2.675781 5.3125 2.535156 5.269531 C 2.519531 5.113281 2.488281 4.960938 2.433594 4.8125 C 2.394531 4.828125 2.359375 4.847656 2.332031 4.878906 C 2.300781 5.007812 2.289062 5.136719 2.300781 5.269531 C 2.234375 5.269531 2.167969 5.269531 2.101562 5.269531 C 2.199219 5.140625 2.253906 4.988281 2.265625 4.8125 C 2.378906 4.636719 2.488281 4.636719 2.601562 4.8125 C 2.632812 4.941406 2.644531 5.074219 2.632812 5.207031 C 2.855469 5.195312 3.078125 5.207031 3.300781 5.238281 C 3.179688 5.320312 3.089844 5.429688 3.035156 5.566406 C 2.875 5.585938 2.722656 5.578125 2.566406 5.53125 Z M 2.566406 5.53125 "/>
<path style=" stroke:none;fill-rule:evenodd;fill:rgb(76.470588%,83.921569%,91.764706%);fill-opacity:1;" d="M 6.234375 4.550781 C 6.296875 4.753906 6.320312 4.972656 6.300781 5.207031 C 6.535156 5.183594 6.757812 5.207031 6.964844 5.269531 C 6.722656 5.269531 6.476562 5.269531 6.234375 5.269531 C 6.234375 5.03125 6.234375 4.789062 6.234375 4.550781 Z M 6.234375 4.550781 "/>
<path style=" stroke:none;fill-rule:evenodd;fill:rgb(42.745098%,57.647059%,80.392157%);fill-opacity:1;" d="M 18.632812 5.074219 C 18.632812 5.097656 18.632812 5.117188 18.632812 5.140625 C 18.546875 5.253906 18.503906 5.394531 18.5 5.566406 C 18.523438 5.707031 18.542969 5.847656 18.566406 5.992188 C 18.632812 5.734375 18.65625 5.472656 18.632812 5.207031 C 18.679688 5.445312 18.722656 5.683594 18.765625 5.925781 C 18.765625 5.96875 18.765625 6.011719 18.765625 6.054688 C 18.679688 6.054688 18.632812 6.101562 18.632812 6.1875 C 18.550781 6.183594 18.496094 6.140625 18.464844 6.054688 C 18.433594 5.730469 18.421875 5.402344 18.433594 5.074219 C 18.5 5.074219 18.566406 5.074219 18.632812 5.074219 Z M 18.632812 5.074219 "/>
<path style=" stroke:none;fill-rule:evenodd;fill:rgb(21.568627%,46.666667%,78.823529%);fill-opacity:1;" d="M 18.632812 5.140625 C 18.632812 5.160156 18.632812 5.183594 18.632812 5.207031 C 18.65625 5.472656 18.632812 5.734375 18.566406 5.992188 C 18.542969 5.847656 18.523438 5.707031 18.5 5.566406 C 18.503906 5.394531 18.546875 5.253906 18.632812 5.140625 Z M 18.632812 5.140625 "/>
<path style=" stroke:none;fill-rule:evenodd;fill:rgb(71.372549%,80.392157%,91.764706%);fill-opacity:1;" d="M 18.632812 5.074219 C 18.761719 5.328125 18.804688 5.613281 18.765625 5.925781 C 18.722656 5.683594 18.679688 5.445312 18.632812 5.207031 C 18.632812 5.183594 18.632812 5.160156 18.632812 5.140625 C 18.632812 5.117188 18.632812 5.097656 18.632812 5.074219 Z M 18.632812 5.074219 "/>
<path style=" stroke:none;fill-rule:evenodd;fill:rgb(50.196078%,63.529412%,81.960784%);fill-opacity:1;" d="M 19.5 6.054688 C 19.476562 6.054688 19.457031 6.054688 19.433594 6.054688 C 19.457031 5.746094 19.433594 5.441406 19.367188 5.140625 C 19.320312 5.410156 19.277344 5.671875 19.234375 5.925781 C 19.234375 5.640625 19.234375 5.359375 19.234375 5.074219 C 19.34375 5.074219 19.457031 5.074219 19.566406 5.074219 C 19.585938 5.40625 19.5625 5.734375 19.5 6.054688 Z M 19.5 6.054688 "/>
<path style=" stroke:none;fill-rule:evenodd;fill:rgb(25.882353%,47.45098%,79.215686%);fill-opacity:1;" d="M 6.234375 5.53125 C 6.179688 5.738281 6.144531 5.957031 6.132812 6.1875 C 6.140625 5.9375 6.082031 5.71875 5.964844 5.53125 C 5.757812 5.46875 5.535156 5.445312 5.300781 5.46875 C 5.300781 5.402344 5.300781 5.335938 5.300781 5.269531 C 5.523438 5.269531 5.746094 5.269531 5.964844 5.269531 C 5.964844 5.074219 5.964844 4.878906 5.964844 4.679688 C 6.011719 4.660156 6.054688 4.640625 6.101562 4.617188 C 6.164062 4.851562 6.1875 5.09375 6.167969 5.335938 C 6.414062 5.316406 6.660156 5.335938 6.898438 5.402344 C 6.667969 5.445312 6.445312 5.488281 6.234375 5.53125 Z M 6.234375 5.53125 "/>
<path style=" stroke:none;fill-rule:evenodd;fill:rgb(38.431373%,55.686275%,80.784314%);fill-opacity:1;" d="M 14.367188 5.730469 C 14.558594 5.679688 14.757812 5.636719 14.964844 5.597656 C 15.027344 5.515625 15.015625 5.425781 14.933594 5.335938 C 14.917969 5.417969 14.882812 5.484375 14.832031 5.53125 C 14.832031 5.46875 14.832031 5.402344 14.832031 5.335938 C 14.648438 5.320312 14.46875 5.34375 14.300781 5.402344 C 14.316406 5.316406 14.292969 5.25 14.234375 5.207031 C 14.242188 5.164062 14.261719 5.132812 14.300781 5.105469 C 14.847656 4.980469 15.136719 5.1875 15.167969 5.730469 C 14.898438 5.730469 14.632812 5.730469 14.367188 5.730469 Z M 14.367188 5.730469 "/>
<path style=" stroke:none;fill-rule:evenodd;fill:rgb(70.980392%,73.333333%,90.980392%);fill-opacity:1;" d="M 3.898438 5.007812 C 4.011719 5.054688 4.054688 5.140625 4.035156 5.269531 C 4.101562 5.269531 4.167969 5.269531 4.234375 5.269531 C 4.234375 5.335938 4.234375 5.402344 4.234375 5.46875 C 4.167969 5.46875 4.101562 5.46875 4.035156 5.46875 C 4.035156 5.554688 4.035156 5.640625 4.035156 5.730469 C 3.964844 5.730469 3.898438 5.730469 3.832031 5.730469 C 3.726562 5.476562 3.75 5.238281 3.898438 5.007812 Z M 3.898438 5.007812 "/>
<path style=" stroke:none;fill-rule:evenodd;fill:rgb(97.647059%,78.823529%,44.313725%);fill-opacity:1;" d="M 2.566406 5.53125 C 2.503906 5.648438 2.480469 5.777344 2.5 5.925781 C 2.433594 5.925781 2.367188 5.925781 2.300781 5.925781 C 2.300781 5.773438 2.300781 5.621094 2.300781 5.46875 C 2.136719 5.488281 1.984375 5.464844 1.832031 5.402344 C 1.859375 5.355469 1.878906 5.3125 1.898438 5.269531 C 1.964844 5.269531 2.035156 5.269531 2.101562 5.269531 C 2.167969 5.269531 2.234375 5.269531 2.300781 5.269531 C 2.289062 5.136719 2.300781 5.007812 2.332031 4.878906 C 2.359375 4.847656 2.394531 4.828125 2.433594 4.8125 C 2.488281 4.960938 2.519531 5.113281 2.535156 5.269531 C 2.675781 5.3125 2.820312 5.355469 2.964844 5.402344 C 2.824219 5.445312 2.691406 5.488281 2.566406 5.53125 Z M 2.566406 5.53125 "/>
<path style=" stroke:none;fill-rule:evenodd;fill:rgb(60.392157%,73.333333%,90.196078%);fill-opacity:1;" d="M 8.765625 5.402344 C 8.574219 5.304688 8.394531 5.328125 8.234375 5.46875 C 8.257812 5.308594 8.359375 5.242188 8.535156 5.269531 C 8.644531 5.277344 8.722656 5.320312 8.765625 5.402344 Z M 8.765625 5.402344 "/>
<path style=" stroke:none;fill-rule:evenodd;fill:rgb(29.019608%,49.411765%,80.392157%);fill-opacity:1;" d="M 10.632812 5.074219 C 10.816406 5.054688 10.996094 5.074219 11.167969 5.140625 C 11.265625 5.183594 11.332031 5.246094 11.367188 5.335938 C 11.421875 5.527344 11.441406 5.722656 11.433594 5.925781 C 11.324219 5.996094 11.234375 6.082031 11.167969 6.1875 C 10.890625 6.261719 10.625 6.261719 10.367188 6.1875 C 10.367188 5.640625 10.367188 5.097656 10.367188 4.550781 C 10.433594 4.550781 10.5 4.550781 10.566406 4.550781 C 10.546875 4.738281 10.570312 4.914062 10.632812 5.074219 Z M 10.632812 5.074219 "/>
<path style=" stroke:none;fill-rule:evenodd;fill:rgb(56.470588%,69.411765%,86.666667%);fill-opacity:1;" d="M 10.632812 5.335938 C 10.707031 5.292969 10.796875 5.273438 10.898438 5.269531 C 11.023438 5.277344 11.109375 5.320312 11.167969 5.402344 C 10.992188 5.351562 10.816406 5.328125 10.632812 5.335938 Z M 10.632812 5.335938 "/>
<path style=" stroke:none;fill-rule:evenodd;fill:rgb(57.647059%,69.019608%,85.490196%);fill-opacity:1;" d="M 11.367188 5.335938 C 11.40625 5.34375 11.441406 5.367188 11.464844 5.402344 C 11.519531 5.589844 11.507812 5.765625 11.433594 5.925781 C 11.441406 5.722656 11.421875 5.527344 11.367188 5.335938 Z M 11.367188 5.335938 "/>
<path style=" stroke:none;fill-rule:evenodd;fill:rgb(81.960784%,87.843137%,94.509804%);fill-opacity:1;" d="M 6.234375 4.550781 C 6.101562 4.527344 6.011719 4.570312 5.964844 4.679688 C 5.964844 4.878906 5.964844 5.074219 5.964844 5.269531 C 5.746094 5.269531 5.523438 5.269531 5.300781 5.269531 C 5.300781 5.335938 5.300781 5.402344 5.300781 5.46875 C 5.535156 5.445312 5.757812 5.46875 5.964844 5.53125 C 5.964844 5.773438 5.964844 6.011719 5.964844 6.253906 C 5.902344 6.046875 5.878906 5.832031 5.898438 5.597656 C 5.664062 5.566406 5.453125 5.609375 5.265625 5.730469 C 5.15625 5.570312 5.148438 5.40625 5.234375 5.238281 C 5.453125 5.207031 5.675781 5.195312 5.898438 5.207031 C 5.898438 4.964844 5.898438 4.726562 5.898438 4.484375 C 6.027344 4.464844 6.140625 4.488281 6.234375 4.550781 Z M 6.234375 4.550781 "/>
<path style=" stroke:none;fill-rule:evenodd;fill:rgb(95.686275%,96.078431%,95.686275%);fill-opacity:1;" d="M 8.765625 5.402344 C 8.765625 5.578125 8.765625 5.75 8.765625 5.925781 C 8.535156 5.96875 8.355469 5.902344 8.234375 5.730469 C 8.234375 5.640625 8.234375 5.554688 8.234375 5.46875 C 8.394531 5.328125 8.574219 5.304688 8.765625 5.402344 Z M 8.765625 5.402344 "/>
<path style=" stroke:none;fill-rule:evenodd;fill:rgb(95.294118%,96.078431%,96.078431%);fill-opacity:1;" d="M 10.632812 5.335938 C 10.816406 5.328125 10.992188 5.351562 11.167969 5.402344 C 11.167969 5.554688 11.167969 5.707031 11.167969 5.859375 C 10.992188 5.910156 10.816406 5.933594 10.632812 5.925781 C 10.632812 5.730469 10.632812 5.53125 10.632812 5.335938 Z M 10.632812 5.335938 "/>
<path style=" stroke:none;fill-rule:evenodd;fill:rgb(98.039216%,89.411765%,74.509804%);fill-opacity:1;" d="M 1.898438 5.269531 C 1.878906 5.3125 1.859375 5.355469 1.832031 5.402344 C 1.984375 5.464844 2.136719 5.488281 2.300781 5.46875 C 2.300781 5.621094 2.300781 5.773438 2.300781 5.925781 C 2.367188 5.925781 2.433594 5.925781 2.5 5.925781 C 2.480469 5.777344 2.503906 5.648438 2.566406 5.53125 C 2.578125 5.6875 2.566406 5.839844 2.535156 5.992188 C 2.445312 6.078125 2.355469 6.078125 2.265625 5.992188 C 2.300781 5.621094 2.136719 5.46875 1.765625 5.53125 C 1.742188 5.402344 1.789062 5.316406 1.898438 5.269531 Z M 1.898438 5.269531 "/>
<path style=" stroke:none;fill-rule:evenodd;fill:rgb(70.588235%,79.215686%,92.941176%);fill-opacity:1;" d="M 14.035156 5.335938 C 14.035156 5.511719 14.035156 5.683594 14.035156 5.859375 C 13.953125 5.816406 13.90625 5.742188 13.898438 5.632812 C 13.886719 5.5 13.929688 5.402344 14.035156 5.335938 Z M 14.035156 5.335938 "/>
<path style=" stroke:none;fill-rule:evenodd;fill:rgb(28.627451%,49.019608%,78.823529%);fill-opacity:1;" d="M 14.234375 5.207031 C 14.292969 5.25 14.316406 5.316406 14.300781 5.402344 C 14.441406 5.523438 14.621094 5.566406 14.832031 5.53125 C 14.882812 5.484375 14.917969 5.417969 14.933594 5.335938 C 15.015625 5.425781 15.027344 5.515625 14.964844 5.597656 C 14.757812 5.636719 14.558594 5.679688 14.367188 5.730469 C 14.199219 5.796875 14.199219 5.882812 14.367188 5.992188 C 14.566406 6.074219 14.765625 6.074219 14.964844 5.992188 C 14.988281 6.023438 15.011719 6.054688 15.035156 6.089844 C 14.996094 6.15625 14.953125 6.210938 14.898438 6.253906 C 14.675781 6.246094 14.453125 6.222656 14.234375 6.1875 C 14.113281 6.109375 14.046875 6 14.035156 5.859375 C 14.035156 5.683594 14.035156 5.511719 14.035156 5.335938 C 14.082031 5.265625 14.148438 5.222656 14.234375 5.207031 Z M 14.234375 5.207031 "/>
<path style=" stroke:none;fill-rule:evenodd;fill:rgb(76.078431%,84.705882%,94.117647%);fill-opacity:1;" d="M 14.832031 5.53125 C 14.621094 5.566406 14.441406 5.523438 14.300781 5.402344 C 14.46875 5.34375 14.648438 5.320312 14.832031 5.335938 C 14.832031 5.402344 14.832031 5.46875 14.832031 5.53125 Z M 14.832031 5.53125 "/>
<path style=" stroke:none;fill-rule:evenodd;fill:rgb(45.882353%,60%,76.862745%);fill-opacity:1;" d="M 16.300781 5.335938 C 16.25 5.507812 16.226562 5.679688 16.234375 5.859375 C 16.191406 5.796875 16.167969 5.722656 16.167969 5.632812 C 16.152344 5.5 16.199219 5.402344 16.300781 5.335938 Z M 16.300781 5.335938 "/>
<path style=" stroke:none;fill-rule:evenodd;fill:rgb(94.509804%,70.196078%,74.509804%);fill-opacity:1;" d="M 1.964844 6.1875 C 1.8125 6.1875 1.65625 6.1875 1.5 6.1875 C 1.519531 6.027344 1.5 5.875 1.433594 5.730469 C 1.390625 5.890625 1.34375 6.042969 1.300781 6.1875 C 1.300781 6.011719 1.300781 5.839844 1.300781 5.664062 C 1.390625 5.664062 1.476562 5.664062 1.566406 5.664062 C 1.566406 5.816406 1.566406 5.96875 1.566406 6.121094 C 1.714844 6.101562 1.847656 6.125 1.964844 6.1875 Z M 1.964844 6.1875 "/>
<path style=" stroke:none;fill-rule:evenodd;fill:rgb(28.627451%,49.019608%,79.607843%);fill-opacity:1;" d="M 17.300781 6.1875 C 17.035156 6.269531 16.769531 6.269531 16.5 6.1875 C 16.363281 6.117188 16.273438 6.007812 16.234375 5.859375 C 16.226562 5.679688 16.25 5.507812 16.300781 5.335938 C 16.332031 5.246094 16.402344 5.183594 16.5 5.140625 C 16.761719 5.074219 17.03125 5.054688 17.300781 5.074219 C 17.300781 5.445312 17.300781 5.816406 17.300781 6.1875 Z M 17.300781 6.1875 "/>
<path style=" stroke:none;fill-rule:evenodd;fill:rgb(91.372549%,93.333333%,95.686275%);fill-opacity:1;" d="M 16.964844 5.335938 C 17.007812 5.34375 17.042969 5.367188 17.066406 5.402344 C 17.121094 5.589844 17.109375 5.765625 17.035156 5.925781 C 16.839844 5.933594 16.660156 5.890625 16.5 5.792969 C 16.5 5.664062 16.5 5.53125 16.5 5.402344 C 16.652344 5.355469 16.804688 5.332031 16.964844 5.335938 Z M 16.964844 5.335938 "/>
<path style=" stroke:none;fill-rule:evenodd;fill:rgb(60.392157%,73.333333%,89.803922%);fill-opacity:1;" d="M 16.964844 5.335938 C 16.804688 5.332031 16.652344 5.355469 16.5 5.402344 C 16.554688 5.304688 16.644531 5.261719 16.765625 5.269531 C 16.847656 5.273438 16.914062 5.292969 16.964844 5.335938 Z M 16.964844 5.335938 "/>
<path style=" stroke:none;fill-rule:evenodd;fill:rgb(66.666667%,77.254902%,91.764706%);fill-opacity:1;" d="M 3.566406 5.730469 C 3.566406 5.859375 3.566406 5.992188 3.566406 6.121094 C 3.730469 6.09375 3.863281 6.136719 3.964844 6.253906 C 3.863281 6.371094 3.730469 6.414062 3.566406 6.382812 C 3.566406 6.535156 3.566406 6.691406 3.566406 6.84375 C 3.460938 6.859375 3.371094 6.839844 3.300781 6.777344 C 3.320312 6.777344 3.34375 6.777344 3.367188 6.777344 C 3.429688 6.617188 3.453125 6.441406 3.433594 6.253906 C 3.964844 6.230469 3.964844 6.210938 3.433594 6.1875 C 3.445312 6.03125 3.433594 5.878906 3.398438 5.730469 C 3.386719 5.894531 3.355469 6.046875 3.300781 6.1875 C 3.300781 6.011719 3.300781 5.839844 3.300781 5.664062 C 3.398438 5.660156 3.484375 5.679688 3.566406 5.730469 Z M 3.566406 5.730469 "/>
<path style=" stroke:none;fill-rule:evenodd;fill:rgb(38.823529%,58.823529%,85.490196%);fill-opacity:1;" d="M 5.964844 5.53125 C 6.082031 5.71875 6.140625 5.9375 6.132812 6.1875 C 6.144531 5.957031 6.179688 5.738281 6.234375 5.53125 C 6.234375 5.773438 6.234375 6.011719 6.234375 6.253906 C 6.144531 6.253906 6.054688 6.253906 5.964844 6.253906 C 5.964844 6.011719 5.964844 5.773438 5.964844 5.53125 Z M 5.964844 5.53125 "/>
<path style=" stroke:none;fill-rule:evenodd;fill:rgb(71.764706%,80.392157%,92.941176%);fill-opacity:1;" d="M 8.765625 5.402344 C 8.855469 5.601562 8.855469 5.808594 8.765625 6.023438 C 8.457031 6.132812 8.277344 6.035156 8.234375 5.730469 C 8.355469 5.902344 8.535156 5.96875 8.765625 5.925781 C 8.765625 5.75 8.765625 5.578125 8.765625 5.402344 Z M 8.765625 5.402344 "/>
<path style=" stroke:none;fill-rule:evenodd;fill:rgb(73.72549%,82.352941%,89.019608%);fill-opacity:1;" d="M 11.167969 5.859375 C 11.09375 5.992188 10.96875 6.058594 10.800781 6.054688 C 10.707031 6.042969 10.652344 6 10.632812 5.925781 C 10.816406 5.933594 10.992188 5.910156 11.167969 5.859375 Z M 11.167969 5.859375 "/>
<path style=" stroke:none;fill-rule:evenodd;fill:rgb(74.509804%,83.921569%,90.196078%);fill-opacity:1;" d="M 16.5 5.792969 C 16.660156 5.890625 16.839844 5.933594 17.035156 5.925781 C 17.003906 6.003906 16.933594 6.046875 16.832031 6.054688 C 16.625 6.074219 16.515625 5.988281 16.5 5.792969 Z M 16.5 5.792969 "/>
<path style=" stroke:none;fill-rule:evenodd;fill:rgb(70.588235%,78.039216%,89.803922%);fill-opacity:1;" d="M 11.433594 5.925781 C 11.457031 6.121094 11.367188 6.210938 11.167969 6.1875 C 11.234375 6.082031 11.324219 5.996094 11.433594 5.925781 Z M 11.433594 5.925781 "/>
<path style=" stroke:none;fill-rule:evenodd;fill:rgb(27.843137%,47.058824%,79.607843%);fill-opacity:1;" d="M 19.433594 6.054688 C 19.234375 6.167969 19.011719 6.210938 18.765625 6.1875 C 18.722656 6.1875 18.679688 6.1875 18.632812 6.1875 C 18.632812 6.101562 18.679688 6.054688 18.765625 6.054688 C 18.902344 6.066406 19.035156 6.054688 19.167969 6.023438 C 19.203125 6 19.226562 5.964844 19.234375 5.925781 C 19.277344 5.671875 19.320312 5.410156 19.367188 5.140625 C 19.433594 5.441406 19.457031 5.746094 19.433594 6.054688 Z M 19.433594 6.054688 "/>
<path style=" stroke:none;fill-rule:evenodd;fill:rgb(92.941176%,29.411765%,43.529412%);fill-opacity:1;" d="M 1.964844 6.1875 C 1.964844 6.210938 1.964844 6.230469 1.964844 6.253906 C 1.8125 6.253906 1.65625 6.253906 1.5 6.253906 C 1.5 6.40625 1.5 6.558594 1.5 6.710938 C 1.460938 6.53125 1.394531 6.355469 1.300781 6.1875 C 1.34375 6.042969 1.390625 5.890625 1.433594 5.730469 C 1.5 5.875 1.519531 6.027344 1.5 6.1875 C 1.65625 6.1875 1.8125 6.1875 1.964844 6.1875 Z M 1.964844 6.1875 "/>
<path style=" stroke:none;fill-rule:evenodd;fill:rgb(93.333333%,60.784314%,67.45098%);fill-opacity:1;" d="M 1.964844 6.253906 C 1.871094 6.371094 1.738281 6.414062 1.566406 6.382812 C 1.566406 6.535156 1.566406 6.691406 1.566406 6.84375 C 1.476562 6.84375 1.390625 6.84375 1.300781 6.84375 C 1.300781 6.691406 1.300781 6.535156 1.300781 6.382812 C 1.34375 6.507812 1.390625 6.636719 1.433594 6.777344 C 1.472656 6.769531 1.496094 6.746094 1.5 6.710938 C 1.5 6.558594 1.5 6.40625 1.5 6.253906 C 1.65625 6.253906 1.8125 6.253906 1.964844 6.253906 Z M 1.964844 6.253906 "/>
<path style=" stroke:none;fill-rule:evenodd;fill:rgb(25.098039%,44.705882%,70.588235%);fill-opacity:1;" d="M 3.367188 6.777344 C 3.367188 6.601562 3.367188 6.425781 3.367188 6.253906 C 3.210938 6.253906 3.054688 6.253906 2.898438 6.253906 C 3.019531 6.191406 3.152344 6.167969 3.300781 6.1875 C 3.355469 6.046875 3.386719 5.894531 3.398438 5.730469 C 3.433594 5.878906 3.445312 6.03125 3.433594 6.1875 C 3.964844 6.210938 3.964844 6.230469 3.433594 6.253906 C 3.453125 6.441406 3.429688 6.617188 3.367188 6.777344 Z M 3.367188 6.777344 "/>
<path style=" stroke:none;fill-rule:evenodd;fill:rgb(73.72549%,80%,89.803922%);fill-opacity:1;" d="M 9.035156 5.074219 C 9.121094 5.222656 9.164062 5.394531 9.167969 5.597656 C 9.171875 5.824219 9.136719 6.042969 9.066406 6.253906 C 8.769531 6.339844 8.46875 6.339844 8.167969 6.253906 C 8.125 6.191406 8.101562 6.128906 8.101562 6.054688 C 8.355469 6.257812 8.644531 6.300781 8.964844 6.1875 C 9.03125 5.820312 9.054688 5.449219 9.035156 5.074219 Z M 9.035156 5.074219 "/>
<path style=" stroke:none;fill-rule:evenodd;fill:rgb(64.705882%,74.901961%,87.45098%);fill-opacity:1;" d="M 14.234375 6.1875 C 14.453125 6.222656 14.675781 6.246094 14.898438 6.253906 C 14.824219 6.296875 14.738281 6.316406 14.632812 6.320312 C 14.472656 6.328125 14.339844 6.285156 14.234375 6.1875 Z M 14.234375 6.1875 "/>
<path style=" stroke:none;fill-rule:evenodd;fill:rgb(74.509804%,80.392157%,88.235294%);fill-opacity:1;" d="M 16.5 6.1875 C 16.769531 6.269531 17.035156 6.269531 17.300781 6.1875 C 17.195312 6.273438 17.0625 6.316406 16.898438 6.320312 C 16.738281 6.316406 16.601562 6.273438 16.5 6.1875 Z M 16.5 6.1875 "/>
<path style=" stroke:none;fill-rule:evenodd;fill:rgb(76.078431%,82.352941%,88.235294%);fill-opacity:1;" d="M 19.433594 6.054688 C 19.457031 6.054688 19.476562 6.054688 19.5 6.054688 C 19.425781 6.242188 19.28125 6.328125 19.066406 6.320312 C 18.933594 6.3125 18.835938 6.269531 18.765625 6.1875 C 19.011719 6.210938 19.234375 6.167969 19.433594 6.054688 Z M 19.433594 6.054688 "/>
<path style=" stroke:none;fill-rule:evenodd;fill:rgb(49.019608%,65.882353%,87.843137%);fill-opacity:1;" d="M 2.898438 6.253906 C 3.054688 6.253906 3.210938 6.253906 3.367188 6.253906 C 3.367188 6.425781 3.367188 6.601562 3.367188 6.777344 C 3.34375 6.777344 3.320312 6.777344 3.300781 6.777344 C 3.3125 6.644531 3.300781 6.511719 3.265625 6.382812 C 3.136719 6.34375 3.015625 6.300781 2.898438 6.253906 Z M 2.898438 6.253906 "/>
<path style=" stroke:none;fill-rule:evenodd;fill:rgb(98.823529%,81.960784%,87.058824%);fill-opacity:1;" d="M 0.898438 6.1875 C 1.023438 6.273438 1.15625 6.339844 1.300781 6.382812 C 1.144531 6.425781 0.988281 6.4375 0.832031 6.417969 C 0.734375 6.300781 0.757812 6.226562 0.898438 6.1875 Z M 0.898438 6.1875 "/>
<path style=" stroke:none;fill-rule:evenodd;fill:rgb(80%,87.058824%,95.686275%);fill-opacity:1;" d="M 3.566406 5.730469 C 3.484375 5.679688 3.398438 5.660156 3.300781 5.664062 C 3.300781 5.839844 3.300781 6.011719 3.300781 6.1875 C 3.152344 6.167969 3.019531 6.191406 2.898438 6.253906 C 3.015625 6.300781 3.136719 6.34375 3.265625 6.382812 C 3.300781 6.511719 3.3125 6.644531 3.300781 6.777344 C 3.238281 6.683594 3.214844 6.574219 3.234375 6.449219 C 3.101562 6.449219 2.964844 6.449219 2.832031 6.449219 C 2.832031 6.339844 2.832031 6.230469 2.832031 6.121094 C 2.964844 6.121094 3.101562 6.121094 3.234375 6.121094 C 3.234375 5.949219 3.234375 5.773438 3.234375 5.597656 C 3.386719 5.570312 3.496094 5.613281 3.566406 5.730469 Z M 3.566406 5.730469 "/>
<path style=" stroke:none;fill-rule:evenodd;fill:rgb(95.686275%,46.666667%,58.039216%);fill-opacity:1;" d="M 0.898438 6.1875 C 1.035156 6.1875 1.167969 6.1875 1.300781 6.1875 C 1.394531 6.355469 1.460938 6.53125 1.5 6.710938 C 1.496094 6.746094 1.472656 6.769531 1.433594 6.777344 C 1.390625 6.636719 1.34375 6.507812 1.300781 6.382812 C 1.15625 6.339844 1.023438 6.273438 0.898438 6.1875 Z M 0.898438 6.1875 "/>
<path style=" stroke:none;fill-rule:evenodd;fill:rgb(68.627451%,71.372549%,92.156863%);fill-opacity:1;" d="M 2.300781 6.644531 C 2.367188 6.644531 2.433594 6.644531 2.5 6.644531 C 2.519531 6.761719 2.496094 6.871094 2.433594 6.972656 C 2.386719 6.949219 2.34375 6.925781 2.300781 6.90625 C 2.238281 6.863281 2.171875 6.820312 2.101562 6.777344 C 2.171875 6.734375 2.238281 6.6875 2.300781 6.644531 Z M 2.300781 6.644531 "/>
<path style=" stroke:none;fill-rule:evenodd;fill:rgb(80%,81.568627%,92.156863%);fill-opacity:1;" d="M 2.300781 6.90625 C 2.34375 6.925781 2.386719 6.949219 2.433594 6.972656 C 2.496094 6.871094 2.519531 6.761719 2.5 6.644531 C 2.433594 6.644531 2.367188 6.644531 2.300781 6.644531 C 2.300781 6.558594 2.300781 6.472656 2.300781 6.382812 C 2.390625 6.382812 2.476562 6.382812 2.566406 6.382812 C 2.566406 6.492188 2.566406 6.601562 2.566406 6.710938 C 2.910156 6.785156 2.910156 6.828125 2.566406 6.84375 C 2.566406 6.972656 2.566406 7.105469 2.566406 7.234375 C 2.339844 7.242188 2.25 7.132812 2.300781 6.90625 Z M 2.300781 6.90625 "/>
<path style=" stroke:none;fill-rule:evenodd;fill:rgb(81.176471%,92.156863%,94.509804%);fill-opacity:1;" d="M 13.300781 6.972656 C 13.476562 6.972656 13.65625 6.972656 13.832031 6.972656 C 13.8125 7.277344 13.65625 7.367188 13.367188 7.234375 C 13.304688 7.15625 13.28125 7.070312 13.300781 6.972656 Z M 13.300781 6.972656 "/>
</g>
</svg>
