<?xml version="1.0" encoding="UTF-8"?>
<svg xmlns="http://www.w3.org/2000/svg" xmlns:xlink="http://www.w3.org/1999/xlink" width="59px" height="20px" viewBox="0 0 6 20" version="1.1">
<g id="surface1">
<path style=" stroke:none;fill-rule:evenodd;fill:rgb(96.078431%,96.078431%,96.078431%);fill-opacity:1;" d="M -0.0117188 8.125 C 1.988281 8.125 3.988281 8.125 5.988281 8.125 C 5.988281 9.367188 5.988281 10.609375 5.988281 11.855469 C 3.988281 11.855469 1.988281 11.855469 -0.0117188 11.855469 C -0.0117188 10.609375 -0.0117188 9.367188 -0.0117188 8.125 Z M -0.0117188 8.125 "/>
<path style=" stroke:none;fill-rule:evenodd;fill:rgb(89.019608%,95.686275%,96.862745%);fill-opacity:1;" d="M 1.070312 9.632812 C 1.003906 9.625 0.945312 9.636719 0.890625 9.667969 C 0.925781 9.671875 0.953125 9.691406 0.96875 9.722656 C 0.871094 9.695312 0.769531 9.671875 0.671875 9.65625 C 0.675781 9.59375 0.660156 9.539062 0.628906 9.488281 C 0.65625 9.453125 0.671875 9.414062 0.671875 9.367188 C 0.710938 9.359375 0.753906 9.367188 0.789062 9.390625 C 0.808594 9.421875 0.828125 9.441406 0.859375 9.457031 C 0.867188 9.492188 0.875 9.523438 0.890625 9.554688 C 0.859375 9.566406 0.824219 9.570312 0.789062 9.566406 C 0.789062 9.589844 0.789062 9.613281 0.789062 9.632812 C 0.847656 9.625 0.910156 9.617188 0.96875 9.613281 C 0.953125 9.527344 0.980469 9.484375 1.050781 9.476562 C 1.046875 9.53125 1.050781 9.585938 1.070312 9.632812 Z M 1.070312 9.632812 "/>
<path style=" stroke:none;fill-rule:evenodd;fill:rgb(97.254902%,95.686275%,75.686275%);fill-opacity:1;" d="M 0.46875 9.5 C 0.445312 9.496094 0.425781 9.503906 0.410156 9.523438 C 0.410156 9.558594 0.410156 9.597656 0.410156 9.632812 C 0.289062 9.636719 0.28125 9.660156 0.390625 9.699219 C 0.34375 9.699219 0.296875 9.699219 0.25 9.699219 C 0.25 9.671875 0.25 9.640625 0.25 9.613281 C 0.296875 9.613281 0.34375 9.613281 0.390625 9.613281 C 0.390625 9.558594 0.390625 9.507812 0.390625 9.457031 C 0.429688 9.449219 0.457031 9.464844 0.46875 9.5 Z M 0.46875 9.5 "/>
<path style=" stroke:none;fill-rule:evenodd;fill:rgb(71.372549%,89.411765%,95.686275%);fill-opacity:1;" d="M 1.070312 9.632812 C 1.105469 9.632812 1.136719 9.632812 1.167969 9.632812 C 1.167969 9.664062 1.167969 9.691406 1.167969 9.722656 C 1.128906 9.722656 1.089844 9.722656 1.050781 9.722656 C 1.035156 9.863281 1.007812 9.863281 0.96875 9.722656 C 0.953125 9.691406 0.925781 9.671875 0.890625 9.667969 C 0.945312 9.636719 1.003906 9.625 1.070312 9.632812 Z M 1.070312 9.632812 "/>
<path style=" stroke:none;fill-rule:evenodd;fill:rgb(98.431373%,93.72549%,59.215686%);fill-opacity:1;" d="M 0.410156 9.523438 C 0.425781 9.503906 0.445312 9.496094 0.46875 9.5 C 0.46875 9.539062 0.46875 9.574219 0.46875 9.613281 C 0.511719 9.613281 0.550781 9.613281 0.589844 9.613281 C 0.589844 9.640625 0.589844 9.671875 0.589844 9.699219 C 0.550781 9.699219 0.511719 9.699219 0.46875 9.699219 C 0.46875 9.753906 0.46875 9.804688 0.46875 9.855469 C 0.445312 9.859375 0.421875 9.851562 0.398438 9.832031 C 0.390625 9.789062 0.386719 9.746094 0.390625 9.699219 C 0.402344 9.734375 0.417969 9.769531 0.429688 9.8125 C 0.4375 9.761719 0.441406 9.714844 0.449219 9.667969 C 0.449219 9.609375 0.4375 9.558594 0.410156 9.523438 Z M 0.410156 9.523438 "/>
<path style=" stroke:none;fill-rule:evenodd;fill:rgb(55.294118%,68.627451%,87.058824%);fill-opacity:1;" d="M 1.871094 9.679688 C 1.871094 9.757812 1.871094 9.839844 1.871094 9.921875 C 1.941406 9.921875 2.015625 9.921875 2.089844 9.921875 C 2.089844 9.953125 2.089844 9.980469 2.089844 10.011719 C 2.023438 10.011719 1.957031 10.011719 1.890625 10.011719 C 1.894531 10.097656 1.890625 10.179688 1.871094 10.253906 C 1.871094 10.171875 1.871094 10.09375 1.871094 10.011719 C 1.933594 9.996094 2 9.980469 2.070312 9.96875 C 1.996094 9.945312 1.925781 9.9375 1.851562 9.945312 C 1.855469 9.863281 1.847656 9.78125 1.832031 9.699219 C 1.816406 9.707031 1.804688 9.714844 1.789062 9.722656 C 1.804688 9.683594 1.832031 9.671875 1.871094 9.679688 Z M 1.871094 9.679688 "/>
<path style=" stroke:none;fill-rule:evenodd;fill:rgb(83.921569%,85.490196%,91.764706%);fill-opacity:1;" d="M 3.167969 9.65625 C 3.144531 9.65625 3.117188 9.65625 3.089844 9.65625 C 3.089844 9.847656 3.089844 10.042969 3.089844 10.234375 C 3.070312 10.035156 3.0625 9.835938 3.070312 9.632812 C 3.109375 9.628906 3.140625 9.632812 3.167969 9.65625 Z M 3.167969 9.65625 "/>
<path style=" stroke:none;fill-rule:evenodd;fill:rgb(63.137255%,73.72549%,87.058824%);fill-opacity:1;" d="M 3.847656 10.320312 C 3.820312 10.34375 3.789062 10.351562 3.75 10.34375 C 3.75 10.085938 3.75 9.828125 3.75 9.566406 C 3.789062 9.566406 3.828125 9.566406 3.871094 9.566406 C 3.875 9.824219 3.871094 10.074219 3.847656 10.320312 Z M 3.847656 10.320312 "/>
<path style=" stroke:none;fill-rule:evenodd;fill:rgb(39.607843%,56.078431%,77.254902%);fill-opacity:1;" d="M 3.828125 9.613281 C 3.847656 9.84375 3.855469 10.082031 3.847656 10.320312 C 3.816406 10.328125 3.792969 10.320312 3.769531 10.300781 C 3.789062 10.300781 3.808594 10.300781 3.828125 10.300781 C 3.828125 10.070312 3.828125 9.839844 3.828125 9.613281 Z M 3.828125 9.613281 "/>
<path style=" stroke:none;fill-rule:evenodd;fill:rgb(23.529412%,46.666667%,80.392157%);fill-opacity:1;" d="M 3.828125 9.613281 C 3.828125 9.839844 3.828125 10.070312 3.828125 10.300781 C 3.808594 10.300781 3.789062 10.300781 3.769531 10.300781 C 3.769531 10.0625 3.769531 9.828125 3.769531 9.589844 C 3.796875 9.585938 3.816406 9.59375 3.828125 9.613281 Z M 3.828125 9.613281 "/>
<path style=" stroke:none;fill-rule:evenodd;fill:rgb(96.470588%,92.156863%,44.313725%);fill-opacity:1;" d="M 0.410156 9.523438 C 0.4375 9.558594 0.449219 9.609375 0.449219 9.667969 C 0.441406 9.714844 0.4375 9.761719 0.429688 9.8125 C 0.417969 9.769531 0.402344 9.734375 0.390625 9.699219 C 0.28125 9.660156 0.289062 9.636719 0.410156 9.632812 C 0.410156 9.597656 0.410156 9.558594 0.410156 9.523438 Z M 0.410156 9.523438 "/>
<path style=" stroke:none;fill-rule:evenodd;fill:rgb(29.411765%,49.803922%,79.215686%);fill-opacity:1;" d="M 2.710938 9.855469 C 2.714844 9.984375 2.710938 10.109375 2.691406 10.234375 C 2.59375 10.269531 2.507812 10.257812 2.429688 10.1875 C 2.339844 10.070312 2.351562 9.964844 2.46875 9.867188 C 2.550781 9.855469 2.628906 9.851562 2.710938 9.855469 Z M 2.710938 9.855469 "/>
<path style=" stroke:none;fill-rule:evenodd;fill:rgb(63.921569%,74.117647%,92.156863%);fill-opacity:1;" d="M 3.167969 9.65625 C 3.191406 9.71875 3.195312 9.785156 3.191406 9.855469 C 3.171875 9.800781 3.164062 9.742188 3.167969 9.679688 C 3.148438 9.679688 3.128906 9.679688 3.109375 9.679688 C 3.109375 9.863281 3.109375 10.046875 3.109375 10.234375 C 3.101562 10.234375 3.097656 10.234375 3.089844 10.234375 C 3.089844 10.042969 3.089844 9.847656 3.089844 9.65625 C 3.117188 9.65625 3.144531 9.65625 3.167969 9.65625 Z M 3.167969 9.65625 "/>
<path style=" stroke:none;fill-rule:evenodd;fill:rgb(98.039216%,92.54902%,83.529412%);fill-opacity:1;" d="M 0.769531 10.011719 C 0.808594 9.996094 0.847656 9.980469 0.890625 9.96875 C 0.847656 9.949219 0.800781 9.9375 0.761719 9.921875 C 0.753906 9.867188 0.746094 9.816406 0.730469 9.765625 C 0.71875 9.773438 0.707031 9.777344 0.699219 9.789062 C 0.691406 9.832031 0.6875 9.875 0.691406 9.921875 C 0.671875 9.921875 0.652344 9.921875 0.628906 9.921875 C 0.660156 9.878906 0.675781 9.828125 0.679688 9.765625 C 0.714844 9.707031 0.746094 9.707031 0.78125 9.765625 C 0.789062 9.8125 0.792969 9.855469 0.789062 9.902344 C 0.855469 9.898438 0.921875 9.902344 0.988281 9.910156 C 0.953125 9.9375 0.925781 9.976562 0.910156 10.023438 C 0.863281 10.027344 0.816406 10.027344 0.769531 10.011719 Z M 0.769531 10.011719 "/>
<path style=" stroke:none;fill-rule:evenodd;fill:rgb(76.470588%,83.921569%,91.764706%);fill-opacity:1;" d="M 1.871094 9.679688 C 1.890625 9.746094 1.894531 9.820312 1.890625 9.902344 C 1.960938 9.894531 2.027344 9.902344 2.089844 9.921875 C 2.015625 9.921875 1.941406 9.921875 1.871094 9.921875 C 1.871094 9.839844 1.871094 9.757812 1.871094 9.679688 Z M 1.871094 9.679688 "/>
<path style=" stroke:none;fill-rule:evenodd;fill:rgb(42.745098%,57.647059%,80.392157%);fill-opacity:1;" d="M 5.589844 9.855469 C 5.589844 9.863281 5.589844 9.871094 5.589844 9.878906 C 5.5625 9.917969 5.550781 9.964844 5.550781 10.023438 C 5.558594 10.070312 5.5625 10.117188 5.570312 10.167969 C 5.589844 10.078125 5.597656 9.992188 5.589844 9.902344 C 5.605469 9.980469 5.617188 10.0625 5.628906 10.144531 C 5.628906 10.160156 5.628906 10.171875 5.628906 10.1875 C 5.605469 10.1875 5.589844 10.203125 5.589844 10.234375 C 5.566406 10.230469 5.550781 10.21875 5.539062 10.1875 C 5.53125 10.078125 5.527344 9.96875 5.53125 9.855469 C 5.550781 9.855469 5.570312 9.855469 5.589844 9.855469 Z M 5.589844 9.855469 "/>
<path style=" stroke:none;fill-rule:evenodd;fill:rgb(21.568627%,46.666667%,78.823529%);fill-opacity:1;" d="M 5.589844 9.878906 C 5.589844 9.886719 5.589844 9.894531 5.589844 9.902344 C 5.597656 9.992188 5.589844 10.078125 5.570312 10.167969 C 5.5625 10.117188 5.558594 10.070312 5.550781 10.023438 C 5.550781 9.964844 5.5625 9.917969 5.589844 9.878906 Z M 5.589844 9.878906 "/>
<path style=" stroke:none;fill-rule:evenodd;fill:rgb(71.372549%,80.392157%,91.764706%);fill-opacity:1;" d="M 5.589844 9.855469 C 5.628906 9.941406 5.640625 10.039062 5.628906 10.144531 C 5.617188 10.0625 5.605469 9.980469 5.589844 9.902344 C 5.589844 9.894531 5.589844 9.886719 5.589844 9.878906 C 5.589844 9.871094 5.589844 9.863281 5.589844 9.855469 Z M 5.589844 9.855469 "/>
<path style=" stroke:none;fill-rule:evenodd;fill:rgb(50.196078%,63.529412%,81.960784%);fill-opacity:1;" d="M 5.851562 10.1875 C 5.84375 10.1875 5.835938 10.1875 5.832031 10.1875 C 5.835938 10.082031 5.832031 9.980469 5.808594 9.878906 C 5.796875 9.96875 5.785156 10.058594 5.769531 10.144531 C 5.769531 10.046875 5.769531 9.953125 5.769531 9.855469 C 5.804688 9.855469 5.835938 9.855469 5.871094 9.855469 C 5.875 9.96875 5.867188 10.078125 5.851562 10.1875 Z M 5.851562 10.1875 "/>
<path style=" stroke:none;fill-rule:evenodd;fill:rgb(25.882353%,47.45098%,79.215686%);fill-opacity:1;" d="M 1.871094 10.011719 C 1.855469 10.082031 1.84375 10.15625 1.839844 10.234375 C 1.84375 10.148438 1.824219 10.074219 1.789062 10.011719 C 1.726562 9.988281 1.660156 9.980469 1.589844 9.988281 C 1.589844 9.96875 1.589844 9.945312 1.589844 9.921875 C 1.65625 9.921875 1.722656 9.921875 1.789062 9.921875 C 1.789062 9.855469 1.789062 9.789062 1.789062 9.722656 C 1.804688 9.714844 1.816406 9.707031 1.832031 9.699219 C 1.847656 9.78125 1.855469 9.863281 1.851562 9.945312 C 1.925781 9.9375 1.996094 9.945312 2.070312 9.96875 C 2 9.980469 1.933594 9.996094 1.871094 10.011719 Z M 1.871094 10.011719 "/>
<path style=" stroke:none;fill-rule:evenodd;fill:rgb(38.431373%,55.686275%,80.784314%);fill-opacity:1;" d="M 4.308594 10.078125 C 4.367188 10.0625 4.425781 10.046875 4.488281 10.03125 C 4.507812 10.003906 4.503906 9.976562 4.480469 9.945312 C 4.476562 9.972656 4.464844 9.996094 4.449219 10.011719 C 4.449219 9.988281 4.449219 9.96875 4.449219 9.945312 C 4.394531 9.9375 4.339844 9.945312 4.289062 9.96875 C 4.292969 9.9375 4.289062 9.914062 4.269531 9.902344 C 4.273438 9.886719 4.277344 9.875 4.289062 9.867188 C 4.453125 9.824219 4.542969 9.894531 4.550781 10.078125 C 4.46875 10.078125 4.390625 10.078125 4.308594 10.078125 Z M 4.308594 10.078125 "/>
<path style=" stroke:none;fill-rule:evenodd;fill:rgb(70.980392%,73.333333%,90.980392%);fill-opacity:1;" d="M 1.167969 9.832031 C 1.203125 9.847656 1.214844 9.878906 1.210938 9.921875 C 1.230469 9.921875 1.25 9.921875 1.269531 9.921875 C 1.269531 9.945312 1.269531 9.96875 1.269531 9.988281 C 1.25 9.988281 1.230469 9.988281 1.210938 9.988281 C 1.210938 10.019531 1.210938 10.046875 1.210938 10.078125 C 1.191406 10.078125 1.167969 10.078125 1.148438 10.078125 C 1.117188 9.992188 1.125 9.910156 1.167969 9.832031 Z M 1.167969 9.832031 "/>
<path style=" stroke:none;fill-rule:evenodd;fill:rgb(97.647059%,78.823529%,44.313725%);fill-opacity:1;" d="M 0.769531 10.011719 C 0.75 10.050781 0.746094 10.09375 0.75 10.144531 C 0.730469 10.144531 0.710938 10.144531 0.691406 10.144531 C 0.691406 10.09375 0.691406 10.042969 0.691406 9.988281 C 0.640625 9.996094 0.59375 9.988281 0.550781 9.96875 C 0.558594 9.949219 0.5625 9.9375 0.570312 9.921875 C 0.589844 9.921875 0.609375 9.921875 0.628906 9.921875 C 0.652344 9.921875 0.671875 9.921875 0.691406 9.921875 C 0.6875 9.875 0.691406 9.832031 0.699219 9.789062 C 0.707031 9.777344 0.71875 9.773438 0.730469 9.765625 C 0.746094 9.816406 0.753906 9.867188 0.761719 9.921875 C 0.800781 9.9375 0.847656 9.949219 0.890625 9.96875 C 0.847656 9.980469 0.808594 9.996094 0.769531 10.011719 Z M 0.769531 10.011719 "/>
<path style=" stroke:none;fill-rule:evenodd;fill:rgb(60.392157%,73.333333%,90.196078%);fill-opacity:1;" d="M 2.628906 9.96875 C 2.574219 9.933594 2.519531 9.941406 2.46875 9.988281 C 2.476562 9.933594 2.507812 9.914062 2.558594 9.921875 C 2.59375 9.925781 2.617188 9.9375 2.628906 9.96875 Z M 2.628906 9.96875 "/>
<path style=" stroke:none;fill-rule:evenodd;fill:rgb(29.019608%,49.411765%,80.392157%);fill-opacity:1;" d="M 3.191406 9.855469 C 3.246094 9.847656 3.300781 9.855469 3.351562 9.878906 C 3.378906 9.894531 3.398438 9.914062 3.410156 9.945312 C 3.425781 10.007812 3.433594 10.074219 3.429688 10.144531 C 3.398438 10.167969 3.371094 10.199219 3.351562 10.234375 C 3.265625 10.257812 3.1875 10.257812 3.109375 10.234375 C 3.109375 10.046875 3.109375 9.863281 3.109375 9.679688 C 3.128906 9.679688 3.148438 9.679688 3.167969 9.679688 C 3.164062 9.742188 3.171875 9.800781 3.191406 9.855469 Z M 3.191406 9.855469 "/>
<path style=" stroke:none;fill-rule:evenodd;fill:rgb(56.470588%,69.411765%,86.666667%);fill-opacity:1;" d="M 3.191406 9.945312 C 3.210938 9.929688 3.238281 9.921875 3.269531 9.921875 C 3.308594 9.925781 3.332031 9.9375 3.351562 9.96875 C 3.296875 9.949219 3.246094 9.941406 3.191406 9.945312 Z M 3.191406 9.945312 "/>
<path style=" stroke:none;fill-rule:evenodd;fill:rgb(57.647059%,69.019608%,85.490196%);fill-opacity:1;" d="M 3.410156 9.945312 C 3.421875 9.945312 3.433594 9.953125 3.441406 9.96875 C 3.457031 10.03125 3.453125 10.089844 3.429688 10.144531 C 3.433594 10.074219 3.425781 10.007812 3.410156 9.945312 Z M 3.410156 9.945312 "/>
<path style=" stroke:none;fill-rule:evenodd;fill:rgb(81.960784%,87.843137%,94.509804%);fill-opacity:1;" d="M 1.871094 9.679688 C 1.832031 9.671875 1.804688 9.683594 1.789062 9.722656 C 1.789062 9.789062 1.789062 9.855469 1.789062 9.921875 C 1.722656 9.921875 1.65625 9.921875 1.589844 9.921875 C 1.589844 9.945312 1.589844 9.96875 1.589844 9.988281 C 1.660156 9.980469 1.726562 9.988281 1.789062 10.011719 C 1.789062 10.09375 1.789062 10.171875 1.789062 10.253906 C 1.769531 10.183594 1.761719 10.113281 1.769531 10.03125 C 1.699219 10.023438 1.636719 10.035156 1.578125 10.078125 C 1.546875 10.023438 1.542969 9.96875 1.570312 9.910156 C 1.636719 9.902344 1.703125 9.898438 1.769531 9.902344 C 1.769531 9.820312 1.769531 9.738281 1.769531 9.65625 C 1.808594 9.648438 1.84375 9.65625 1.871094 9.679688 Z M 1.871094 9.679688 "/>
<path style=" stroke:none;fill-rule:evenodd;fill:rgb(95.686275%,96.078431%,95.686275%);fill-opacity:1;" d="M 2.628906 9.96875 C 2.628906 10.027344 2.628906 10.085938 2.628906 10.144531 C 2.558594 10.160156 2.507812 10.136719 2.46875 10.078125 C 2.46875 10.046875 2.46875 10.019531 2.46875 9.988281 C 2.519531 9.941406 2.574219 9.933594 2.628906 9.96875 Z M 2.628906 9.96875 "/>
<path style=" stroke:none;fill-rule:evenodd;fill:rgb(95.294118%,96.078431%,96.078431%);fill-opacity:1;" d="M 3.191406 9.945312 C 3.246094 9.941406 3.296875 9.949219 3.351562 9.96875 C 3.351562 10.019531 3.351562 10.070312 3.351562 10.121094 C 3.296875 10.140625 3.246094 10.148438 3.191406 10.144531 C 3.191406 10.078125 3.191406 10.011719 3.191406 9.945312 Z M 3.191406 9.945312 "/>
<path style=" stroke:none;fill-rule:evenodd;fill:rgb(98.039216%,89.411765%,74.509804%);fill-opacity:1;" d="M 0.570312 9.921875 C 0.5625 9.9375 0.558594 9.949219 0.550781 9.96875 C 0.59375 9.988281 0.640625 9.996094 0.691406 9.988281 C 0.691406 10.042969 0.691406 10.09375 0.691406 10.144531 C 0.710938 10.144531 0.730469 10.144531 0.75 10.144531 C 0.746094 10.09375 0.75 10.050781 0.769531 10.011719 C 0.773438 10.0625 0.769531 10.113281 0.761719 10.167969 C 0.734375 10.195312 0.707031 10.195312 0.679688 10.167969 C 0.691406 10.042969 0.640625 9.988281 0.53125 10.011719 C 0.523438 9.96875 0.535156 9.9375 0.570312 9.921875 Z M 0.570312 9.921875 "/>
<path style=" stroke:none;fill-rule:evenodd;fill:rgb(70.588235%,79.215686%,92.941176%);fill-opacity:1;" d="M 4.210938 9.945312 C 4.210938 10.003906 4.210938 10.0625 4.210938 10.121094 C 4.1875 10.105469 4.171875 10.082031 4.167969 10.046875 C 4.167969 10 4.179688 9.96875 4.210938 9.945312 Z M 4.210938 9.945312 "/>
<path style=" stroke:none;fill-rule:evenodd;fill:rgb(28.627451%,49.019608%,78.823529%);fill-opacity:1;" d="M 4.269531 9.902344 C 4.289062 9.914062 4.292969 9.9375 4.289062 9.96875 C 4.332031 10.007812 4.386719 10.023438 4.449219 10.011719 C 4.464844 9.996094 4.476562 9.972656 4.480469 9.945312 C 4.503906 9.976562 4.507812 10.003906 4.488281 10.03125 C 4.425781 10.046875 4.367188 10.0625 4.308594 10.078125 C 4.261719 10.101562 4.261719 10.128906 4.308594 10.167969 C 4.371094 10.195312 4.429688 10.195312 4.488281 10.167969 C 4.496094 10.175781 4.503906 10.1875 4.511719 10.199219 C 4.5 10.222656 4.484375 10.242188 4.46875 10.253906 C 4.402344 10.253906 4.335938 10.246094 4.269531 10.234375 C 4.234375 10.207031 4.214844 10.167969 4.210938 10.121094 C 4.210938 10.0625 4.210938 10.003906 4.210938 9.945312 C 4.222656 9.921875 4.246094 9.90625 4.269531 9.902344 Z M 4.269531 9.902344 "/>
<path style=" stroke:none;fill-rule:evenodd;fill:rgb(76.078431%,84.705882%,94.117647%);fill-opacity:1;" d="M 4.449219 10.011719 C 4.386719 10.023438 4.332031 10.007812 4.289062 9.96875 C 4.339844 9.945312 4.394531 9.9375 4.449219 9.945312 C 4.449219 9.96875 4.449219 9.988281 4.449219 10.011719 Z M 4.449219 10.011719 "/>
<path style=" stroke:none;fill-rule:evenodd;fill:rgb(45.882353%,60%,76.862745%);fill-opacity:1;" d="M 4.890625 9.945312 C 4.875 10.003906 4.867188 10.0625 4.871094 10.121094 C 4.855469 10.101562 4.851562 10.074219 4.851562 10.046875 C 4.847656 10 4.859375 9.96875 4.890625 9.945312 Z M 4.890625 9.945312 "/>
<path style=" stroke:none;fill-rule:evenodd;fill:rgb(94.509804%,70.196078%,74.509804%);fill-opacity:1;" d="M 0.589844 10.234375 C 0.542969 10.234375 0.496094 10.234375 0.449219 10.234375 C 0.457031 10.179688 0.449219 10.128906 0.429688 10.078125 C 0.417969 10.132812 0.402344 10.183594 0.390625 10.234375 C 0.390625 10.171875 0.390625 10.113281 0.390625 10.054688 C 0.417969 10.054688 0.441406 10.054688 0.46875 10.054688 C 0.46875 10.105469 0.46875 10.160156 0.46875 10.210938 C 0.515625 10.203125 0.554688 10.210938 0.589844 10.234375 Z M 0.589844 10.234375 "/>
<path style=" stroke:none;fill-rule:evenodd;fill:rgb(28.627451%,49.019608%,79.607843%);fill-opacity:1;" d="M 5.191406 10.234375 C 5.109375 10.261719 5.03125 10.261719 4.949219 10.234375 C 4.910156 10.210938 4.882812 10.171875 4.871094 10.121094 C 4.867188 10.0625 4.875 10.003906 4.890625 9.945312 C 4.898438 9.914062 4.921875 9.894531 4.949219 9.878906 C 5.027344 9.855469 5.109375 9.847656 5.191406 9.855469 C 5.191406 9.980469 5.191406 10.105469 5.191406 10.234375 Z M 5.191406 10.234375 "/>
<path style=" stroke:none;fill-rule:evenodd;fill:rgb(91.372549%,93.333333%,95.686275%);fill-opacity:1;" d="M 5.089844 9.945312 C 5.101562 9.945312 5.113281 9.953125 5.121094 9.96875 C 5.136719 10.03125 5.132812 10.089844 5.109375 10.144531 C 5.050781 10.148438 4.996094 10.132812 4.949219 10.097656 C 4.949219 10.054688 4.949219 10.011719 4.949219 9.96875 C 4.996094 9.949219 5.042969 9.941406 5.089844 9.945312 Z M 5.089844 9.945312 "/>
<path style=" stroke:none;fill-rule:evenodd;fill:rgb(60.392157%,73.333333%,89.803922%);fill-opacity:1;" d="M 5.089844 9.945312 C 5.042969 9.941406 4.996094 9.949219 4.949219 9.96875 C 4.964844 9.933594 4.992188 9.917969 5.03125 9.921875 C 5.054688 9.921875 5.074219 9.929688 5.089844 9.945312 Z M 5.089844 9.945312 "/>
<path style=" stroke:none;fill-rule:evenodd;fill:rgb(66.666667%,77.254902%,91.764706%);fill-opacity:1;" d="M 1.070312 10.078125 C 1.070312 10.121094 1.070312 10.167969 1.070312 10.210938 C 1.121094 10.203125 1.160156 10.214844 1.191406 10.253906 C 1.160156 10.296875 1.121094 10.308594 1.070312 10.300781 C 1.070312 10.351562 1.070312 10.402344 1.070312 10.457031 C 1.039062 10.460938 1.011719 10.453125 0.988281 10.433594 C 0.996094 10.433594 1.003906 10.433594 1.011719 10.433594 C 1.027344 10.378906 1.035156 10.320312 1.03125 10.253906 C 1.191406 10.246094 1.191406 10.242188 1.03125 10.234375 C 1.035156 10.179688 1.03125 10.128906 1.019531 10.078125 C 1.015625 10.132812 1.007812 10.183594 0.988281 10.234375 C 0.988281 10.171875 0.988281 10.113281 0.988281 10.054688 C 1.019531 10.054688 1.046875 10.0625 1.070312 10.078125 Z M 1.070312 10.078125 "/>
<path style=" stroke:none;fill-rule:evenodd;fill:rgb(38.823529%,58.823529%,85.490196%);fill-opacity:1;" d="M 1.789062 10.011719 C 1.824219 10.074219 1.84375 10.148438 1.839844 10.234375 C 1.84375 10.15625 1.855469 10.082031 1.871094 10.011719 C 1.871094 10.09375 1.871094 10.171875 1.871094 10.253906 C 1.84375 10.253906 1.816406 10.253906 1.789062 10.253906 C 1.789062 10.171875 1.789062 10.09375 1.789062 10.011719 Z M 1.789062 10.011719 "/>
<path style=" stroke:none;fill-rule:evenodd;fill:rgb(71.764706%,80.392157%,92.941176%);fill-opacity:1;" d="M 2.628906 9.96875 C 2.65625 10.035156 2.65625 10.105469 2.628906 10.175781 C 2.535156 10.214844 2.484375 10.179688 2.46875 10.078125 C 2.507812 10.136719 2.558594 10.160156 2.628906 10.144531 C 2.628906 10.085938 2.628906 10.027344 2.628906 9.96875 Z M 2.628906 9.96875 "/>
<path style=" stroke:none;fill-rule:evenodd;fill:rgb(73.72549%,82.352941%,89.019608%);fill-opacity:1;" d="M 3.351562 10.121094 C 3.328125 10.167969 3.289062 10.1875 3.238281 10.1875 C 3.210938 10.183594 3.195312 10.167969 3.191406 10.144531 C 3.246094 10.148438 3.296875 10.140625 3.351562 10.121094 Z M 3.351562 10.121094 "/>
<path style=" stroke:none;fill-rule:evenodd;fill:rgb(74.509804%,83.921569%,90.196078%);fill-opacity:1;" d="M 4.949219 10.097656 C 4.996094 10.132812 5.050781 10.148438 5.109375 10.144531 C 5.101562 10.171875 5.082031 10.183594 5.050781 10.1875 C 4.988281 10.195312 4.953125 10.164062 4.949219 10.097656 Z M 4.949219 10.097656 "/>
<path style=" stroke:none;fill-rule:evenodd;fill:rgb(70.588235%,78.039216%,89.803922%);fill-opacity:1;" d="M 3.429688 10.144531 C 3.4375 10.210938 3.410156 10.242188 3.351562 10.234375 C 3.371094 10.199219 3.398438 10.167969 3.429688 10.144531 Z M 3.429688 10.144531 "/>
<path style=" stroke:none;fill-rule:evenodd;fill:rgb(27.843137%,47.058824%,79.607843%);fill-opacity:1;" d="M 5.832031 10.1875 C 5.769531 10.226562 5.703125 10.242188 5.628906 10.234375 C 5.617188 10.234375 5.605469 10.234375 5.589844 10.234375 C 5.589844 10.203125 5.605469 10.1875 5.628906 10.1875 C 5.671875 10.191406 5.710938 10.1875 5.75 10.175781 C 5.761719 10.167969 5.769531 10.15625 5.769531 10.144531 C 5.785156 10.058594 5.796875 9.96875 5.808594 9.878906 C 5.832031 9.980469 5.835938 10.082031 5.832031 10.1875 Z M 5.832031 10.1875 "/>
<path style=" stroke:none;fill-rule:evenodd;fill:rgb(92.941176%,29.411765%,43.529412%);fill-opacity:1;" d="M 0.589844 10.234375 C 0.589844 10.242188 0.589844 10.246094 0.589844 10.253906 C 0.542969 10.253906 0.496094 10.253906 0.449219 10.253906 C 0.449219 10.308594 0.449219 10.359375 0.449219 10.410156 C 0.4375 10.347656 0.417969 10.289062 0.390625 10.234375 C 0.402344 10.183594 0.417969 10.132812 0.429688 10.078125 C 0.449219 10.128906 0.457031 10.179688 0.449219 10.234375 C 0.496094 10.234375 0.542969 10.234375 0.589844 10.234375 Z M 0.589844 10.234375 "/>
<path style=" stroke:none;fill-rule:evenodd;fill:rgb(93.333333%,60.784314%,67.45098%);fill-opacity:1;" d="M 0.589844 10.253906 C 0.5625 10.296875 0.519531 10.308594 0.46875 10.300781 C 0.46875 10.351562 0.46875 10.402344 0.46875 10.457031 C 0.441406 10.457031 0.417969 10.457031 0.390625 10.457031 C 0.390625 10.402344 0.390625 10.351562 0.390625 10.300781 C 0.402344 10.339844 0.417969 10.386719 0.429688 10.433594 C 0.441406 10.429688 0.449219 10.421875 0.449219 10.410156 C 0.449219 10.359375 0.449219 10.308594 0.449219 10.253906 C 0.496094 10.253906 0.542969 10.253906 0.589844 10.253906 Z M 0.589844 10.253906 "/>
<path style=" stroke:none;fill-rule:evenodd;fill:rgb(25.098039%,44.705882%,70.588235%);fill-opacity:1;" d="M 1.011719 10.433594 C 1.011719 10.375 1.011719 10.3125 1.011719 10.253906 C 0.964844 10.253906 0.917969 10.253906 0.871094 10.253906 C 0.90625 10.234375 0.945312 10.226562 0.988281 10.234375 C 1.007812 10.183594 1.015625 10.132812 1.019531 10.078125 C 1.03125 10.128906 1.035156 10.179688 1.03125 10.234375 C 1.191406 10.242188 1.191406 10.246094 1.03125 10.253906 C 1.035156 10.320312 1.027344 10.378906 1.011719 10.433594 Z M 1.011719 10.433594 "/>
<path style=" stroke:none;fill-rule:evenodd;fill:rgb(73.72549%,80%,89.803922%);fill-opacity:1;" d="M 2.710938 9.855469 C 2.738281 9.90625 2.75 9.964844 2.75 10.03125 C 2.75 10.109375 2.742188 10.183594 2.71875 10.253906 C 2.628906 10.285156 2.539062 10.285156 2.449219 10.253906 C 2.4375 10.234375 2.429688 10.214844 2.429688 10.1875 C 2.507812 10.257812 2.59375 10.269531 2.691406 10.234375 C 2.710938 10.109375 2.714844 9.984375 2.710938 9.855469 Z M 2.710938 9.855469 "/>
<path style=" stroke:none;fill-rule:evenodd;fill:rgb(64.705882%,74.901961%,87.45098%);fill-opacity:1;" d="M 4.269531 10.234375 C 4.335938 10.246094 4.402344 10.253906 4.46875 10.253906 C 4.449219 10.269531 4.421875 10.277344 4.390625 10.277344 C 4.339844 10.28125 4.300781 10.265625 4.269531 10.234375 Z M 4.269531 10.234375 "/>
<path style=" stroke:none;fill-rule:evenodd;fill:rgb(74.509804%,80.392157%,88.235294%);fill-opacity:1;" d="M 4.949219 10.234375 C 5.03125 10.261719 5.109375 10.261719 5.191406 10.234375 C 5.160156 10.261719 5.117188 10.277344 5.070312 10.277344 C 5.019531 10.277344 4.980469 10.261719 4.949219 10.234375 Z M 4.949219 10.234375 "/>
<path style=" stroke:none;fill-rule:evenodd;fill:rgb(76.078431%,82.352941%,88.235294%);fill-opacity:1;" d="M 5.832031 10.1875 C 5.835938 10.1875 5.84375 10.1875 5.851562 10.1875 C 5.828125 10.25 5.785156 10.28125 5.71875 10.277344 C 5.679688 10.277344 5.652344 10.261719 5.628906 10.234375 C 5.703125 10.242188 5.769531 10.226562 5.832031 10.1875 Z M 5.832031 10.1875 "/>
<path style=" stroke:none;fill-rule:evenodd;fill:rgb(49.019608%,65.882353%,87.843137%);fill-opacity:1;" d="M 0.871094 10.253906 C 0.917969 10.253906 0.964844 10.253906 1.011719 10.253906 C 1.011719 10.3125 1.011719 10.375 1.011719 10.433594 C 1.003906 10.433594 0.996094 10.433594 0.988281 10.433594 C 0.992188 10.386719 0.988281 10.34375 0.980469 10.300781 C 0.941406 10.285156 0.90625 10.269531 0.871094 10.253906 Z M 0.871094 10.253906 "/>
<path style=" stroke:none;fill-rule:evenodd;fill:rgb(98.823529%,81.960784%,87.058824%);fill-opacity:1;" d="M 0.269531 10.234375 C 0.308594 10.261719 0.347656 10.285156 0.390625 10.300781 C 0.34375 10.3125 0.296875 10.316406 0.25 10.3125 C 0.21875 10.269531 0.226562 10.246094 0.269531 10.234375 Z M 0.269531 10.234375 "/>
<path style=" stroke:none;fill-rule:evenodd;fill:rgb(80%,87.058824%,95.686275%);fill-opacity:1;" d="M 1.070312 10.078125 C 1.046875 10.0625 1.019531 10.054688 0.988281 10.054688 C 0.988281 10.113281 0.988281 10.171875 0.988281 10.234375 C 0.945312 10.226562 0.90625 10.234375 0.871094 10.253906 C 0.90625 10.269531 0.941406 10.285156 0.980469 10.300781 C 0.988281 10.34375 0.992188 10.386719 0.988281 10.433594 C 0.972656 10.402344 0.964844 10.363281 0.96875 10.320312 C 0.929688 10.320312 0.890625 10.320312 0.847656 10.320312 C 0.847656 10.285156 0.847656 10.246094 0.847656 10.210938 C 0.890625 10.210938 0.929688 10.210938 0.96875 10.210938 C 0.96875 10.152344 0.96875 10.09375 0.96875 10.03125 C 1.015625 10.023438 1.050781 10.039062 1.070312 10.078125 Z M 1.070312 10.078125 "/>
<path style=" stroke:none;fill-rule:evenodd;fill:rgb(95.686275%,46.666667%,58.039216%);fill-opacity:1;" d="M 0.269531 10.234375 C 0.308594 10.234375 0.351562 10.234375 0.390625 10.234375 C 0.417969 10.289062 0.4375 10.347656 0.449219 10.410156 C 0.449219 10.421875 0.441406 10.429688 0.429688 10.433594 C 0.417969 10.386719 0.402344 10.339844 0.390625 10.300781 C 0.347656 10.285156 0.308594 10.261719 0.269531 10.234375 Z M 0.269531 10.234375 "/>
<path style=" stroke:none;fill-rule:evenodd;fill:rgb(68.627451%,71.372549%,92.156863%);fill-opacity:1;" d="M 0.691406 10.386719 C 0.710938 10.386719 0.730469 10.386719 0.75 10.386719 C 0.753906 10.425781 0.75 10.464844 0.730469 10.5 C 0.714844 10.492188 0.703125 10.484375 0.691406 10.476562 C 0.671875 10.460938 0.652344 10.449219 0.628906 10.433594 C 0.652344 10.417969 0.671875 10.402344 0.691406 10.386719 Z M 0.691406 10.386719 "/>
<path style=" stroke:none;fill-rule:evenodd;fill:rgb(80%,81.568627%,92.156863%);fill-opacity:1;" d="M 0.691406 10.476562 C 0.703125 10.484375 0.714844 10.492188 0.730469 10.5 C 0.75 10.464844 0.753906 10.425781 0.75 10.386719 C 0.730469 10.386719 0.710938 10.386719 0.691406 10.386719 C 0.691406 10.359375 0.691406 10.328125 0.691406 10.300781 C 0.71875 10.300781 0.742188 10.300781 0.769531 10.300781 C 0.769531 10.335938 0.769531 10.375 0.769531 10.410156 C 0.871094 10.4375 0.871094 10.449219 0.769531 10.457031 C 0.769531 10.5 0.769531 10.542969 0.769531 10.589844 C 0.703125 10.589844 0.675781 10.554688 0.691406 10.476562 Z M 0.691406 10.476562 "/>
<path style=" stroke:none;fill-rule:evenodd;fill:rgb(81.176471%,92.156863%,94.509804%);fill-opacity:1;" d="M 3.988281 10.5 C 4.042969 10.5 4.097656 10.5 4.148438 10.5 C 4.144531 10.601562 4.097656 10.632812 4.011719 10.589844 C 3.992188 10.5625 3.984375 10.53125 3.988281 10.5 Z M 3.988281 10.5 "/>
</g>
</svg>
