<?xml version="1.0" encoding="UTF-8"?>
<svg xmlns="http://www.w3.org/2000/svg" xmlns:xlink="http://www.w3.org/1999/xlink" width="20px" height="59px" viewBox="0 0 20 20" version="1.1">
<defs>
<filter id="alpha" filterUnits="objectBoundingBox" x="0%" y="0%" width="100%" height="100%">
  <feColorMatrix type="matrix" in="SourceGraphic" values="0 0 0 0 1 0 0 0 0 1 0 0 0 0 1 0 0 0 1 0"/>
</filter>
<mask id="mask0">
  <g filter="url(#alpha)">
<rect x="0" y="0" width="20" height="20" style="fill:rgb(0%,0%,0%);fill-opacity:0.952941;stroke:none;"/>
  </g>
</mask>
<clipPath id="clip1">
  <rect x="0" y="0" width="20" height="20"/>
</clipPath>
<g id="surface5" clip-path="url(#clip1)">
<path style=" stroke:none;fill-rule:evenodd;fill:rgb(0%,47.843137%,80%);fill-opacity:1;" d="M 14.757812 -0.0351562 C 14.78125 -0.0351562 14.804688 -0.0351562 14.828125 -0.0351562 C 14.847656 22.835938 14.871094 22.835938 14.894531 -0.0351562 C 14.988281 -0.0351562 15.082031 -0.0351562 15.171875 -0.0351562 C 15.195312 0.0585938 15.21875 0.0585938 15.242188 -0.0351562 C 15.335938 -0.0351562 15.429688 -0.0351562 15.519531 -0.0351562 C 15.550781 0.015625 15.597656 0.0507812 15.660156 0.0703125 C 15.5 0.136719 15.523438 0.195312 15.730469 0.242188 C 15.992188 0.210938 16.25 0.269531 16.492188 0.417969 C 16.421875 0.441406 16.355469 0.464844 16.285156 0.484375 C 16.464844 0.601562 16.648438 0.625 16.839844 0.554688 C 17.027344 0.601562 17.027344 0.648438 16.839844 0.695312 C 17.011719 0.839844 17.195312 0.875 17.394531 0.796875 C 17.539062 0.851562 17.675781 0.90625 17.8125 0.972656 C 17.652344 1.039062 17.675781 1.097656 17.882812 1.144531 C 17.9375 1.117188 17.996094 1.09375 18.054688 1.078125 C 18.417969 1.21875 18.777344 1.367188 19.132812 1.527344 C 18.972656 1.597656 18.996094 1.652344 19.203125 1.703125 C 19.257812 1.671875 19.3125 1.648438 19.375 1.632812 C 19.566406 1.722656 19.761719 1.792969 19.964844 1.839844 C 19.964844 1.863281 19.964844 1.886719 19.964844 1.910156 C 19.78125 1.933594 19.78125 1.957031 19.964844 1.980469 C 19.964844 7.304688 19.964844 12.628906 19.964844 17.953125 C 19.78125 17.972656 19.78125 17.996094 19.964844 18.019531 C 19.964844 18.042969 19.964844 18.066406 19.964844 18.089844 C 19.734375 18.160156 19.5 18.230469 19.269531 18.296875 C 19.222656 18.207031 19.179688 18.207031 19.132812 18.296875 C 18.945312 18.320312 18.945312 18.34375 19.132812 18.367188 C 18.765625 18.585938 18.371094 18.746094 17.953125 18.855469 C 17.90625 18.761719 17.859375 18.761719 17.8125 18.855469 C 17.628906 18.878906 17.628906 18.902344 17.8125 18.921875 C 17.671875 19.03125 17.511719 19.101562 17.328125 19.132812 C 17.257812 19.039062 17.1875 19.039062 17.117188 19.132812 C 17.050781 19.121094 17.003906 19.144531 16.980469 19.203125 C 16.792969 19.222656 16.792969 19.246094 16.980469 19.269531 C 16.890625 19.371094 16.773438 19.417969 16.632812 19.410156 C 16.585938 19.316406 16.539062 19.316406 16.492188 19.410156 C 16.308594 19.433594 16.308594 19.457031 16.492188 19.480469 C 16.285156 19.609375 16.050781 19.703125 15.796875 19.757812 C 15.753906 19.664062 15.707031 19.664062 15.660156 19.757812 C 15.472656 19.78125 15.472656 19.804688 15.660156 19.828125 C 15.613281 19.871094 15.566406 19.917969 15.519531 19.964844 C 15.429688 19.964844 15.335938 19.964844 15.242188 19.964844 C 15.21875 19.871094 15.195312 19.871094 15.171875 19.964844 C 15.011719 19.964844 14.847656 19.964844 14.6875 19.964844 C 14.640625 19.871094 14.59375 19.871094 14.546875 19.964844 C 14.457031 19.964844 14.363281 19.964844 14.269531 19.964844 C 14.324219 19.910156 14.394531 19.878906 14.480469 19.859375 C 14.277344 19.78125 14.066406 19.722656 13.855469 19.6875 C 13.808594 19.59375 13.761719 19.59375 13.714844 19.6875 C 13.492188 19.679688 13.285156 19.621094 13.089844 19.515625 C 13.136719 19.492188 13.183594 19.46875 13.230469 19.445312 C 13.125 19.375 13.007812 19.339844 12.882812 19.339844 C 12.8125 19.246094 12.742188 19.246094 12.671875 19.339844 C 12.523438 19.347656 12.386719 19.3125 12.257812 19.234375 C 12.304688 19.214844 12.347656 19.191406 12.394531 19.167969 C 12.320312 19.121094 12.238281 19.085938 12.152344 19.0625 C 12.050781 19.121094 11.945312 19.132812 11.839844 19.097656 C 11.933594 19.050781 11.933594 19.003906 11.839844 18.957031 C 11.105469 18.710938 10.304688 18.445312 9.445312 18.160156 C 9.195312 18.214844 8.953125 18.183594 8.714844 18.054688 C 8.785156 18.03125 8.855469 18.007812 8.921875 17.984375 C 8.789062 17.929688 8.648438 17.894531 8.507812 17.882812 C 8.460938 17.789062 8.414062 17.789062 8.367188 17.882812 C 8.148438 17.875 7.9375 17.816406 7.742188 17.707031 C 7.789062 17.683594 7.835938 17.660156 7.882812 17.640625 C 7.804688 17.59375 7.722656 17.558594 7.640625 17.535156 C 7.539062 17.59375 7.433594 17.605469 7.328125 17.570312 C 7.417969 17.523438 7.417969 17.476562 7.328125 17.429688 C 7.054688 17.292969 6.777344 17.246094 6.492188 17.292969 C 6.585938 17.246094 6.585938 17.199219 6.492188 17.152344 C 6.25 17.070312 6.007812 16.992188 5.765625 16.910156 C 5.585938 16.992188 5.414062 16.980469 5.242188 16.875 C 5.335938 16.828125 5.335938 16.78125 5.242188 16.734375 C 5.074219 16.632812 4.898438 16.621094 4.722656 16.703125 C 4.617188 16.667969 4.515625 16.632812 4.410156 16.597656 C 4.480469 16.574219 4.546875 16.550781 4.617188 16.527344 C 4.414062 16.449219 4.207031 16.390625 3.992188 16.355469 C 3.945312 16.261719 3.902344 16.261719 3.855469 16.355469 C 3.632812 16.347656 3.425781 16.289062 3.230469 16.179688 C 3.414062 16.132812 3.414062 16.089844 3.230469 16.042969 C 3.140625 15.992188 3.074219 16 3.019531 16.078125 C 2.804688 16.050781 2.59375 15.992188 2.394531 15.902344 C 2.441406 15.878906 2.488281 15.855469 2.535156 15.832031 C 2.390625 15.714844 2.242188 15.703125 2.082031 15.796875 C 1.980469 15.765625 1.875 15.730469 1.769531 15.695312 C 1.863281 15.648438 1.863281 15.601562 1.769531 15.554688 C 1.601562 15.453125 1.425781 15.441406 1.25 15.519531 C 1.144531 15.484375 1.042969 15.453125 0.9375 15.417969 C 1.03125 15.371094 1.03125 15.324219 0.9375 15.277344 C 0.667969 15.140625 0.390625 15.09375 0.105469 15.140625 C 0.15625 14.992188 0.109375 14.957031 -0.0351562 15.035156 C -0.0351562 14.988281 -0.0351562 14.941406 -0.0351562 14.894531 C 0.105469 14.769531 0.265625 14.734375 0.453125 14.792969 C 0.0820312 14.839844 0.0820312 14.882812 0.453125 14.929688 C 0.773438 14.988281 1.097656 15.023438 1.421875 15.035156 C 2.046875 15.085938 2.671875 15.15625 3.296875 15.242188 C 2.652344 15.265625 2.652344 15.289062 3.296875 15.3125 C 3.71875 15.4375 4.160156 15.507812 4.617188 15.519531 C 4.765625 15.589844 4.925781 15.609375 5.105469 15.589844 C 5.875 15.757812 6.660156 15.871094 7.464844 15.9375 C 8.074219 16.082031 8.699219 16.171875 9.339844 16.214844 C 9.613281 16.332031 9.890625 16.355469 10.171875 16.285156 C 11 16.515625 12.109375 16.703125 13.507812 16.839844 C 13.804688 16.960938 14.105469 16.984375 14.410156 16.910156 C 14.527344 16.910156 14.640625 16.910156 14.757812 16.910156 C 14.757812 11.261719 14.757812 5.613281 14.757812 -0.0351562 Z M 14.757812 -0.0351562 "/>
</g>
<mask id="mask1">
  <g filter="url(#alpha)">
<rect x="0" y="0" width="20" height="20" style="fill:rgb(0%,0%,0%);fill-opacity:0.945098;stroke:none;"/>
  </g>
</mask>
<clipPath id="clip2">
  <rect x="0" y="0" width="20" height="20"/>
</clipPath>
<g id="surface8" clip-path="url(#clip2)">
<path style=" stroke:none;fill-rule:evenodd;fill:rgb(0%,47.843137%,79.607843%);fill-opacity:1;" d="M 12.328125 13.089844 C 12.257812 13.078125 12.210938 13.101562 12.1875 13.160156 C 12.003906 13.183594 12.003906 13.207031 12.1875 13.230469 C 11.855469 13.40625 11.507812 13.570312 11.144531 13.714844 C 11.097656 13.691406 11.054688 13.667969 11.007812 13.644531 C 10.882812 13.835938 10.675781 13.953125 10.382812 13.992188 C 10.335938 13.902344 10.289062 13.902344 10.242188 13.992188 C 10.058594 14.015625 10.058594 14.039062 10.242188 14.0625 C 10.0625 14.210938 9.855469 14.269531 9.617188 14.234375 C 9.640625 14.214844 9.664062 14.191406 9.6875 14.167969 C 8.792969 13.261719 7.890625 12.371094 6.980469 11.492188 C 6.980469 11.445312 6.957031 11.421875 6.910156 11.421875 C 6.863281 11.332031 6.792969 11.261719 6.703125 11.214844 C 6.703125 11.167969 6.679688 11.144531 6.632812 11.144531 C 6.632812 11.097656 6.609375 11.078125 6.5625 11.078125 C 6.539062 11.007812 6.492188 10.960938 6.421875 10.9375 C 6.421875 10.890625 6.402344 10.867188 6.355469 10.867188 C 6.355469 10.820312 6.332031 10.796875 6.285156 10.796875 C 6.285156 10.753906 6.261719 10.730469 6.214844 10.730469 C 6.214844 10.683594 6.191406 10.660156 6.144531 10.660156 C 6.144531 10.613281 6.121094 10.589844 6.078125 10.589844 C 6.078125 10.542969 6.054688 10.519531 6.007812 10.519531 C 6.007812 10.472656 5.984375 10.453125 5.9375 10.453125 C 5.9375 10.40625 5.914062 10.382812 5.867188 10.382812 C 5.867188 10.335938 5.84375 10.3125 5.796875 10.3125 C 5.796875 10.265625 5.777344 10.242188 5.730469 10.242188 C 5.730469 10.195312 5.707031 10.171875 5.660156 10.171875 C 5.660156 10.128906 5.636719 10.105469 5.589844 10.105469 C 5.589844 10.058594 5.566406 10.035156 5.519531 10.035156 C 5.519531 9.988281 5.496094 9.964844 5.453125 9.964844 C 5.453125 9.917969 5.429688 9.894531 5.382812 9.894531 C 5.382812 9.847656 5.359375 9.828125 5.3125 9.828125 C 5.3125 9.78125 5.289062 9.757812 5.242188 9.757812 C 5.242188 9.710938 5.21875 9.6875 5.171875 9.6875 C 5.152344 9.59375 5.128906 9.59375 5.105469 9.6875 C 5.058594 9.6875 5.035156 9.710938 5.035156 9.757812 C 4.941406 9.78125 4.941406 9.804688 5.035156 9.828125 C 4.691406 10.136719 4.320312 10.414062 3.921875 10.660156 C 3.902344 10.566406 3.878906 10.566406 3.855469 10.660156 C 3.761719 10.683594 3.761719 10.707031 3.855469 10.730469 C 3.820312 10.828125 3.75 10.875 3.644531 10.867188 C 3.621094 10.777344 3.597656 10.777344 3.578125 10.867188 C 3.484375 10.890625 3.484375 10.914062 3.578125 10.9375 C 3.542969 11.035156 3.472656 11.082031 3.367188 11.078125 C 3.34375 10.984375 3.320312 10.984375 3.296875 11.078125 C 3.207031 11.097656 3.207031 11.121094 3.296875 11.144531 C 3.265625 11.242188 3.195312 11.289062 3.089844 11.285156 C 3.066406 11.191406 3.042969 11.191406 3.019531 11.285156 C 2.929688 11.308594 2.929688 11.332031 3.019531 11.355469 C 2.988281 11.453125 2.917969 11.5 2.8125 11.492188 C 2.789062 11.402344 2.765625 11.402344 2.742188 11.492188 C 2.652344 11.515625 2.652344 11.539062 2.742188 11.5625 C 2.710938 11.660156 2.640625 11.707031 2.535156 11.703125 C 2.511719 11.609375 2.488281 11.609375 2.464844 11.703125 C 2.1875 11.722656 2.1875 11.746094 2.464844 11.769531 C 2.183594 11.8125 1.90625 11.757812 1.632812 11.597656 C 1.679688 11.574219 1.722656 11.550781 1.769531 11.527344 C 1.695312 11.484375 1.613281 11.449219 1.527344 11.421875 C 1.425781 11.480469 1.320312 11.492188 1.214844 11.457031 C 1.386719 11.414062 1.386719 11.355469 1.214844 11.285156 C 1.804688 10.660156 2.40625 10.046875 3.019531 9.445312 C 2.996094 9.421875 2.972656 9.398438 2.953125 9.375 C 3.277344 9.070312 3.578125 8.746094 3.855469 8.402344 C 2.960938 7.523438 2.082031 6.632812 1.214844 5.730469 C 1.3125 5.675781 1.40625 5.621094 1.492188 5.554688 C 1.46875 5.53125 1.445312 5.507812 1.421875 5.484375 C 1.667969 5.40625 1.910156 5.324219 2.152344 5.242188 C 2.273438 5.277344 2.390625 5.324219 2.5 5.382812 C 2.527344 5.351562 2.5625 5.328125 2.605469 5.3125 C 2.695312 5.386719 2.753906 5.480469 2.777344 5.589844 C 2.804688 5.558594 2.839844 5.535156 2.882812 5.519531 C 2.988281 5.617188 3.105469 5.695312 3.230469 5.765625 C 3.328125 5.859375 3.386719 5.960938 3.402344 6.078125 C 3.453125 6.011719 3.511719 6 3.578125 6.042969 C 3.566406 6.128906 3.601562 6.210938 3.679688 6.285156 C 3.730469 6.21875 3.789062 6.207031 3.855469 6.25 C 3.847656 6.339844 3.878906 6.421875 3.957031 6.492188 C 4.007812 6.425781 4.066406 6.414062 4.132812 6.457031 C 4.125 6.546875 4.160156 6.628906 4.234375 6.703125 C 4.285156 6.636719 4.34375 6.625 4.410156 6.667969 C 4.402344 6.753906 4.4375 6.835938 4.515625 6.910156 C 4.5625 6.84375 4.621094 6.832031 4.6875 6.875 C 4.679688 6.964844 4.714844 7.046875 4.792969 7.117188 C 4.902344 7.027344 4.980469 7.050781 5.035156 7.1875 C 4.941406 7.210938 4.941406 7.234375 5.035156 7.257812 C 5.035156 7.304688 5.058594 7.328125 5.105469 7.328125 C 5.128906 7.417969 5.152344 7.417969 5.171875 7.328125 C 5.21875 7.328125 5.242188 7.304688 5.242188 7.257812 C 5.289062 7.257812 5.3125 7.234375 5.3125 7.1875 C 5.359375 7.1875 5.382812 7.164062 5.382812 7.117188 C 5.429688 7.117188 5.453125 7.09375 5.453125 7.046875 C 5.496094 7.046875 5.519531 7.027344 5.519531 6.980469 C 5.566406 6.980469 5.589844 6.957031 5.589844 6.910156 C 5.636719 6.910156 5.660156 6.886719 5.660156 6.839844 C 5.707031 6.839844 5.730469 6.816406 5.730469 6.769531 C 5.777344 6.769531 5.796875 6.746094 5.796875 6.703125 C 5.890625 6.65625 5.960938 6.585938 6.007812 6.492188 C 6.054688 6.492188 6.078125 6.46875 6.078125 6.421875 C 7.429688 5.101562 8.632812 3.910156 9.6875 2.847656 C 9.867188 2.960938 10.050781 2.984375 10.242188 2.917969 C 10.429688 2.964844 10.429688 3.007812 10.242188 3.054688 C 10.3125 3.089844 10.382812 3.125 10.453125 3.160156 C 10.539062 3.09375 10.632812 3.082031 10.730469 3.125 C 10.683594 3.148438 10.636719 3.171875 10.589844 3.195312 C 10.796875 3.222656 11.003906 3.269531 11.214844 3.332031 C 11.402344 3.378906 11.402344 3.425781 11.214844 3.472656 C 11.621094 3.511719 12.015625 3.636719 12.394531 3.855469 C 12.449219 3.914062 12.484375 3.984375 12.5 4.0625 C 12.546875 7.027344 12.546875 9.988281 12.5 12.953125 C 12.429688 12.992188 12.375 13.035156 12.328125 13.089844 Z M 9.546875 6.355469 C 9.566406 6.300781 9.601562 6.253906 9.652344 6.214844 C 9.699219 7.742188 9.699219 9.269531 9.652344 10.796875 C 9.640625 9.304688 9.605469 7.824219 9.546875 6.355469 Z M 9.410156 10.519531 C 9.410156 10.472656 9.386719 10.453125 9.339844 10.453125 C 9.289062 10.328125 9.195312 10.257812 9.0625 10.242188 C 9.007812 10.121094 8.917969 10.050781 8.785156 10.035156 C 8.730469 9.914062 8.640625 9.84375 8.507812 9.828125 C 8.507812 9.78125 8.484375 9.757812 8.4375 9.757812 C 8.40625 9.660156 8.335938 9.613281 8.230469 9.617188 C 8.230469 9.570312 8.207031 9.546875 8.160156 9.546875 C 8.125 9.449219 8.058594 9.40625 7.953125 9.410156 C 7.953125 9.363281 7.929688 9.339844 7.882812 9.339844 C 7.847656 9.242188 7.78125 9.195312 7.671875 9.203125 C 7.671875 9.15625 7.652344 9.132812 7.605469 9.132812 C 7.570312 9.035156 7.5 8.988281 7.394531 8.992188 C 7.394531 8.945312 7.371094 8.921875 7.328125 8.921875 C 7.292969 8.824219 7.222656 8.78125 7.117188 8.785156 C 7.117188 8.738281 7.09375 8.714844 7.046875 8.714844 C 7.015625 8.617188 6.945312 8.570312 6.839844 8.578125 C 6.910156 8.484375 6.980469 8.390625 7.046875 8.296875 C 7.179688 8.28125 7.273438 8.210938 7.328125 8.089844 C 7.457031 8.074219 7.550781 8.003906 7.605469 7.882812 C 7.738281 7.867188 7.828125 7.796875 7.882812 7.671875 C 7.929688 7.671875 7.953125 7.652344 7.953125 7.605469 C 8.058594 7.609375 8.125 7.5625 8.160156 7.464844 C 8.207031 7.464844 8.230469 7.441406 8.230469 7.394531 C 8.335938 7.402344 8.40625 7.355469 8.4375 7.257812 C 8.484375 7.257812 8.507812 7.234375 8.507812 7.1875 C 8.613281 7.191406 8.683594 7.144531 8.714844 7.046875 C 8.761719 7.046875 8.785156 7.027344 8.785156 6.980469 C 8.890625 6.984375 8.960938 6.9375 8.992188 6.839844 C 9.039062 6.839844 9.0625 6.816406 9.0625 6.769531 C 9.167969 6.777344 9.238281 6.730469 9.269531 6.632812 C 9.316406 6.632812 9.339844 6.609375 9.339844 6.5625 C 9.410156 6.570312 9.46875 6.546875 9.515625 6.492188 C 9.527344 7.164062 9.535156 7.835938 9.546875 8.507812 C 9.546875 9.203125 9.503906 9.875 9.410156 10.519531 Z M 9.410156 10.519531 "/>
</g>
<mask id="mask2">
  <g filter="url(#alpha)">
<rect x="0" y="0" width="20" height="20" style="fill:rgb(0%,0%,0%);fill-opacity:0.00392157;stroke:none;"/>
  </g>
</mask>
<clipPath id="clip3">
  <rect x="0" y="0" width="20" height="20"/>
</clipPath>
<g id="surface11" clip-path="url(#clip3)">
<path style=" stroke:none;fill-rule:evenodd;fill:rgb(0%,47.45098%,80%);fill-opacity:1;" d="M 12.605469 4.0625 C 12.683594 7.015625 12.695312 9.976562 12.640625 12.953125 C 12.605469 9.988281 12.59375 7.027344 12.605469 4.0625 Z M 12.605469 4.0625 "/>
</g>
<mask id="mask3">
  <g filter="url(#alpha)">
<rect x="0" y="0" width="20" height="20" style="fill:rgb(0%,0%,0%);fill-opacity:0.00784314;stroke:none;"/>
  </g>
</mask>
<clipPath id="clip4">
  <rect x="0" y="0" width="20" height="20"/>
</clipPath>
<g id="surface14" clip-path="url(#clip4)">
<path style=" stroke:none;fill-rule:evenodd;fill:rgb(0%,47.843137%,79.215686%);fill-opacity:1;" d="M 1.078125 5.660156 C 1.148438 5.6875 1.160156 5.734375 1.109375 5.796875 C 1.078125 5.757812 1.066406 5.710938 1.078125 5.660156 Z M 1.078125 5.660156 "/>
</g>
<mask id="mask4">
  <g filter="url(#alpha)">
<rect x="0" y="0" width="20" height="20" style="fill:rgb(0%,0%,0%);fill-opacity:0.00784314;stroke:none;"/>
  </g>
</mask>
<clipPath id="clip5">
  <rect x="0" y="0" width="20" height="20"/>
</clipPath>
<g id="surface17" clip-path="url(#clip5)">
<path style=" stroke:none;fill-rule:evenodd;fill:rgb(0%,47.843137%,79.607843%);fill-opacity:1;" d="M 6.078125 6.421875 C 6.03125 6.421875 6.007812 6.445312 6.007812 6.492188 C 5.96875 6.488281 5.945312 6.464844 5.9375 6.421875 C 5.988281 6.335938 6.035156 6.335938 6.078125 6.421875 Z M 6.078125 6.421875 "/>
</g>
<mask id="mask5">
  <g filter="url(#alpha)">
<rect x="0" y="0" width="20" height="20" style="fill:rgb(0%,0%,0%);fill-opacity:0.00784314;stroke:none;"/>
  </g>
</mask>
<clipPath id="clip6">
  <rect x="0" y="0" width="20" height="20"/>
</clipPath>
<g id="surface20" clip-path="url(#clip6)">
<path style=" stroke:none;fill-rule:evenodd;fill:rgb(0%,47.45098%,80%);fill-opacity:1;" d="M 5.796875 6.703125 C 5.753906 6.703125 5.730469 6.722656 5.730469 6.769531 C 5.683594 6.769531 5.660156 6.792969 5.660156 6.839844 C 5.613281 6.839844 5.589844 6.863281 5.589844 6.910156 C 5.566406 6.910156 5.542969 6.910156 5.519531 6.910156 C 5.550781 6.714844 5.644531 6.644531 5.796875 6.703125 Z M 5.796875 6.703125 "/>
</g>
<mask id="mask6">
  <g filter="url(#alpha)">
<rect x="0" y="0" width="20" height="20" style="fill:rgb(0%,0%,0%);fill-opacity:0.0117647;stroke:none;"/>
  </g>
</mask>
<clipPath id="clip7">
  <rect x="0" y="0" width="20" height="20"/>
</clipPath>
<g id="surface23" clip-path="url(#clip7)">
<path style=" stroke:none;fill-rule:evenodd;fill:rgb(0%,47.45098%,79.607843%);fill-opacity:1;" d="M 5.519531 6.910156 C 5.519531 6.933594 5.519531 6.957031 5.519531 6.980469 C 5.472656 6.980469 5.453125 7.003906 5.453125 7.046875 C 5.40625 7.046875 5.382812 7.070312 5.382812 7.117188 C 5.335938 7.117188 5.3125 7.140625 5.3125 7.1875 C 5.265625 7.1875 5.242188 7.210938 5.242188 7.257812 C 5.195312 7.257812 5.171875 7.28125 5.171875 7.328125 C 5.152344 7.328125 5.128906 7.328125 5.105469 7.328125 C 5.058594 7.328125 5.035156 7.304688 5.035156 7.257812 C 5.035156 7.234375 5.035156 7.210938 5.035156 7.1875 C 5.195312 7.09375 5.359375 7.003906 5.519531 6.910156 Z M 5.519531 6.910156 "/>
</g>
<mask id="mask7">
  <g filter="url(#alpha)">
<rect x="0" y="0" width="20" height="20" style="fill:rgb(0%,0%,0%);fill-opacity:0.00784314;stroke:none;"/>
  </g>
</mask>
<clipPath id="clip8">
  <rect x="0" y="0" width="20" height="20"/>
</clipPath>
<g id="surface26" clip-path="url(#clip8)">
<path style=" stroke:none;fill-rule:evenodd;fill:rgb(0%,47.843137%,79.607843%);fill-opacity:1;" d="M 5.105469 9.6875 C 5.128906 9.6875 5.152344 9.6875 5.171875 9.6875 C 5.21875 9.6875 5.242188 9.710938 5.242188 9.757812 C 5.289062 9.757812 5.3125 9.78125 5.3125 9.828125 C 5.359375 9.828125 5.382812 9.847656 5.382812 9.894531 C 5.429688 9.894531 5.453125 9.917969 5.453125 9.964844 C 5.496094 9.964844 5.519531 9.988281 5.519531 10.035156 C 5.566406 10.035156 5.589844 10.058594 5.589844 10.105469 C 5.636719 10.105469 5.660156 10.128906 5.660156 10.171875 C 5.707031 10.171875 5.730469 10.195312 5.730469 10.242188 C 5.777344 10.242188 5.796875 10.265625 5.796875 10.3125 C 5.84375 10.3125 5.867188 10.335938 5.867188 10.382812 C 5.914062 10.382812 5.9375 10.40625 5.9375 10.453125 C 5.984375 10.453125 6.007812 10.472656 6.007812 10.519531 C 6.054688 10.519531 6.078125 10.542969 6.078125 10.589844 C 6.121094 10.589844 6.144531 10.613281 6.144531 10.660156 C 6.191406 10.660156 6.214844 10.683594 6.214844 10.730469 C 6.261719 10.730469 6.285156 10.753906 6.285156 10.796875 C 6.332031 10.796875 6.355469 10.820312 6.355469 10.867188 C 6.402344 10.867188 6.421875 10.890625 6.421875 10.9375 C 6.394531 11.007812 6.351562 11.019531 6.285156 10.972656 C 5.898438 10.546875 5.480469 10.167969 5.035156 9.828125 C 5.035156 9.804688 5.035156 9.78125 5.035156 9.757812 C 5.082031 9.757812 5.105469 9.734375 5.105469 9.6875 Z M 5.105469 9.6875 "/>
</g>
<mask id="mask8">
  <g filter="url(#alpha)">
<rect x="0" y="0" width="20" height="20" style="fill:rgb(0%,0%,0%);fill-opacity:0.0117647;stroke:none;"/>
  </g>
</mask>
<clipPath id="clip9">
  <rect x="0" y="0" width="20" height="20"/>
</clipPath>
<g id="surface29" clip-path="url(#clip9)">
<path style=" stroke:none;fill-rule:evenodd;fill:rgb(0%,47.058824%,80%);fill-opacity:1;" d="M 3.855469 10.660156 C 3.878906 10.660156 3.902344 10.660156 3.921875 10.660156 C 3.910156 10.707031 3.886719 10.707031 3.855469 10.660156 Z M 3.855469 10.660156 "/>
</g>
<mask id="mask9">
  <g filter="url(#alpha)">
<rect x="0" y="0" width="20" height="20" style="fill:rgb(0%,0%,0%);fill-opacity:0.0117647;stroke:none;"/>
  </g>
</mask>
<clipPath id="clip10">
  <rect x="0" y="0" width="20" height="20"/>
</clipPath>
<g id="surface32" clip-path="url(#clip10)">
<path style=" stroke:none;fill-rule:evenodd;fill:rgb(0%,47.45098%,80.392157%);fill-opacity:1;" d="M 3.578125 10.867188 C 3.597656 10.867188 3.621094 10.867188 3.644531 10.867188 C 3.632812 10.914062 3.609375 10.914062 3.578125 10.867188 Z M 3.578125 10.867188 "/>
</g>
<mask id="mask10">
  <g filter="url(#alpha)">
<rect x="0" y="0" width="20" height="20" style="fill:rgb(0%,0%,0%);fill-opacity:0.0117647;stroke:none;"/>
  </g>
</mask>
<clipPath id="clip11">
  <rect x="0" y="0" width="20" height="20"/>
</clipPath>
<g id="surface35" clip-path="url(#clip11)">
<path style=" stroke:none;fill-rule:evenodd;fill:rgb(0%,47.45098%,80%);fill-opacity:1;" d="M 3.296875 11.078125 C 3.320312 11.078125 3.34375 11.078125 3.367188 11.078125 C 3.355469 11.121094 3.332031 11.121094 3.296875 11.078125 Z M 3.296875 11.078125 "/>
</g>
<mask id="mask11">
  <g filter="url(#alpha)">
<rect x="0" y="0" width="20" height="20" style="fill:rgb(0%,0%,0%);fill-opacity:0.00784314;stroke:none;"/>
  </g>
</mask>
<clipPath id="clip12">
  <rect x="0" y="0" width="20" height="20"/>
</clipPath>
<g id="surface38" clip-path="url(#clip12)">
<path style=" stroke:none;fill-rule:evenodd;fill:rgb(0%,47.843137%,79.607843%);fill-opacity:1;" d="M 6.5625 11.078125 C 6.609375 11.078125 6.632812 11.097656 6.632812 11.144531 C 6.679688 11.144531 6.703125 11.167969 6.703125 11.214844 C 6.675781 11.285156 6.628906 11.296875 6.5625 11.25 C 6.472656 11.183594 6.472656 11.125 6.5625 11.078125 Z M 6.5625 11.078125 "/>
</g>
<mask id="mask12">
  <g filter="url(#alpha)">
<rect x="0" y="0" width="20" height="20" style="fill:rgb(0%,0%,0%);fill-opacity:0.00392157;stroke:none;"/>
  </g>
</mask>
<clipPath id="clip13">
  <rect x="0" y="0" width="20" height="20"/>
</clipPath>
<g id="surface41" clip-path="url(#clip13)">
<path style=" stroke:none;fill-rule:evenodd;fill:rgb(0%,48.235294%,80%);fill-opacity:1;" d="M 1.078125 11.214844 C 1.148438 11.242188 1.160156 11.289062 1.109375 11.355469 C 1.078125 11.3125 1.066406 11.265625 1.078125 11.214844 Z M 1.078125 11.214844 "/>
</g>
<mask id="mask13">
  <g filter="url(#alpha)">
<rect x="0" y="0" width="20" height="20" style="fill:rgb(0%,0%,0%);fill-opacity:0.0117647;stroke:none;"/>
  </g>
</mask>
<clipPath id="clip14">
  <rect x="0" y="0" width="20" height="20"/>
</clipPath>
<g id="surface44" clip-path="url(#clip14)">
<path style=" stroke:none;fill-rule:evenodd;fill:rgb(0%,47.843137%,80%);fill-opacity:1;" d="M 3.019531 11.285156 C 3.042969 11.285156 3.066406 11.285156 3.089844 11.285156 C 3.078125 11.332031 3.054688 11.332031 3.019531 11.285156 Z M 3.019531 11.285156 "/>
</g>
<mask id="mask14">
  <g filter="url(#alpha)">
<rect x="0" y="0" width="20" height="20" style="fill:rgb(0%,0%,0%);fill-opacity:0.0117647;stroke:none;"/>
  </g>
</mask>
<clipPath id="clip15">
  <rect x="0" y="0" width="20" height="20"/>
</clipPath>
<g id="surface47" clip-path="url(#clip15)">
<path style=" stroke:none;fill-rule:evenodd;fill:rgb(0%,47.45098%,80%);fill-opacity:1;" d="M 6.910156 11.421875 C 6.957031 11.421875 6.980469 11.445312 6.980469 11.492188 C 6.976562 11.53125 6.953125 11.554688 6.910156 11.5625 C 6.820312 11.511719 6.820312 11.464844 6.910156 11.421875 Z M 6.910156 11.421875 "/>
</g>
<mask id="mask15">
  <g filter="url(#alpha)">
<rect x="0" y="0" width="20" height="20" style="fill:rgb(0%,0%,0%);fill-opacity:0.0117647;stroke:none;"/>
  </g>
</mask>
<clipPath id="clip16">
  <rect x="0" y="0" width="20" height="20"/>
</clipPath>
<g id="surface50" clip-path="url(#clip16)">
<path style=" stroke:none;fill-rule:evenodd;fill:rgb(0%,47.45098%,80%);fill-opacity:1;" d="M 2.742188 11.492188 C 2.765625 11.492188 2.789062 11.492188 2.8125 11.492188 C 2.800781 11.539062 2.777344 11.539062 2.742188 11.492188 Z M 2.742188 11.492188 "/>
</g>
<mask id="mask16">
  <g filter="url(#alpha)">
<rect x="0" y="0" width="20" height="20" style="fill:rgb(0%,0%,0%);fill-opacity:0.0117647;stroke:none;"/>
  </g>
</mask>
<clipPath id="clip17">
  <rect x="0" y="0" width="20" height="20"/>
</clipPath>
<g id="surface53" clip-path="url(#clip17)">
<path style=" stroke:none;fill-rule:evenodd;fill:rgb(0%,47.45098%,80%);fill-opacity:1;" d="M 2.464844 11.703125 C 2.488281 11.703125 2.511719 11.703125 2.535156 11.703125 C 2.523438 11.746094 2.5 11.746094 2.464844 11.703125 Z M 2.464844 11.703125 "/>
</g>
<mask id="mask17">
  <g filter="url(#alpha)">
<rect x="0" y="0" width="20" height="20" style="fill:rgb(0%,0%,0%);fill-opacity:0.00784314;stroke:none;"/>
  </g>
</mask>
<clipPath id="clip18">
  <rect x="0" y="0" width="20" height="20"/>
</clipPath>
<g id="surface56" clip-path="url(#clip18)">
<path style=" stroke:none;fill-rule:evenodd;fill:rgb(0%,47.843137%,79.607843%);fill-opacity:1;" d="M 12.328125 13.160156 C 12.328125 13.136719 12.328125 13.113281 12.328125 13.089844 C 12.511719 13.113281 12.511719 13.136719 12.328125 13.160156 Z M 12.328125 13.160156 "/>
</g>
<mask id="mask18">
  <g filter="url(#alpha)">
<rect x="0" y="0" width="20" height="20" style="fill:rgb(0%,0%,0%);fill-opacity:0.0117647;stroke:none;"/>
  </g>
</mask>
<clipPath id="clip19">
  <rect x="0" y="0" width="20" height="20"/>
</clipPath>
<g id="surface59" clip-path="url(#clip19)">
<path style=" stroke:none;fill-rule:evenodd;fill:rgb(0%,47.843137%,80%);fill-opacity:1;" d="M 12.1875 13.230469 C 12.1875 13.207031 12.1875 13.183594 12.1875 13.160156 C 12.234375 13.160156 12.28125 13.160156 12.328125 13.160156 C 12.300781 13.21875 12.257812 13.242188 12.1875 13.230469 Z M 12.1875 13.230469 "/>
</g>
<mask id="mask19">
  <g filter="url(#alpha)">
<rect x="0" y="0" width="20" height="20" style="fill:rgb(0%,0%,0%);fill-opacity:0.0117647;stroke:none;"/>
  </g>
</mask>
<clipPath id="clip20">
  <rect x="0" y="0" width="20" height="20"/>
</clipPath>
<g id="surface62" clip-path="url(#clip20)">
<path style=" stroke:none;fill-rule:evenodd;fill:rgb(0%,48.235294%,80%);fill-opacity:1;" d="M 10.242188 14.0625 C 10.242188 14.039062 10.242188 14.015625 10.242188 13.992188 C 10.289062 13.992188 10.335938 13.992188 10.382812 13.992188 C 10.359375 14.050781 10.3125 14.074219 10.242188 14.0625 Z M 10.242188 14.0625 "/>
</g>
<mask id="mask20">
  <g filter="url(#alpha)">
<rect x="0" y="0" width="20" height="20" style="fill:rgb(0%,0%,0%);fill-opacity:0.0117647;stroke:none;"/>
  </g>
</mask>
<clipPath id="clip21">
  <rect x="0" y="0" width="20" height="20"/>
</clipPath>
<g id="surface65" clip-path="url(#clip21)">
<path style=" stroke:none;fill-rule:evenodd;fill:rgb(0%,47.45098%,80%);fill-opacity:1;" d="M 1.421875 15.035156 C 1.523438 14.957031 1.640625 14.945312 1.769531 15 C 1.65625 15.035156 1.542969 15.046875 1.421875 15.035156 Z M 1.421875 15.035156 "/>
</g>
<mask id="mask21">
  <g filter="url(#alpha)">
<rect x="0" y="0" width="20" height="20" style="fill:rgb(0%,0%,0%);fill-opacity:0.0117647;stroke:none;"/>
  </g>
</mask>
<clipPath id="clip22">
  <rect x="0" y="0" width="20" height="20"/>
</clipPath>
<g id="surface68" clip-path="url(#clip22)">
<path style=" stroke:none;fill-rule:evenodd;fill:rgb(0%,47.843137%,80%);fill-opacity:1;" d="M 3.296875 15.3125 C 3.296875 15.289062 3.296875 15.265625 3.296875 15.242188 C 3.761719 15.265625 3.761719 15.289062 3.296875 15.3125 Z M 3.296875 15.3125 "/>
</g>
<mask id="mask22">
  <g filter="url(#alpha)">
<rect x="0" y="0" width="20" height="20" style="fill:rgb(0%,0%,0%);fill-opacity:0.00784314;stroke:none;"/>
  </g>
</mask>
<clipPath id="clip23">
  <rect x="0" y="0" width="20" height="20"/>
</clipPath>
<g id="surface71" clip-path="url(#clip23)">
<path style=" stroke:none;fill-rule:evenodd;fill:rgb(0%,47.45098%,80%);fill-opacity:1;" d="M 3.714844 15.382812 C 3.839844 15.304688 3.976562 15.292969 4.132812 15.347656 C 3.996094 15.382812 3.855469 15.394531 3.714844 15.382812 Z M 3.714844 15.382812 "/>
</g>
<mask id="mask23">
  <g filter="url(#alpha)">
<rect x="0" y="0" width="20" height="20" style="fill:rgb(0%,0%,0%);fill-opacity:0.00784314;stroke:none;"/>
  </g>
</mask>
<clipPath id="clip24">
  <rect x="0" y="0" width="20" height="20"/>
</clipPath>
<g id="surface74" clip-path="url(#clip24)">
<path style=" stroke:none;fill-rule:evenodd;fill:rgb(0%,47.843137%,79.607843%);fill-opacity:1;" d="M 4.617188 15.519531 C 4.910156 15.445312 5.210938 15.453125 5.519531 15.554688 C 5.382812 15.589844 5.246094 15.601562 5.105469 15.589844 C 4.957031 15.523438 4.796875 15.5 4.617188 15.519531 Z M 4.617188 15.519531 "/>
</g>
<mask id="mask24">
  <g filter="url(#alpha)">
<rect x="0" y="0" width="20" height="20" style="fill:rgb(0%,0%,0%);fill-opacity:0.0117647;stroke:none;"/>
  </g>
</mask>
<clipPath id="clip25">
  <rect x="0" y="0" width="20" height="20"/>
</clipPath>
<g id="surface77" clip-path="url(#clip25)">
<path style=" stroke:none;fill-rule:evenodd;fill:rgb(0%,47.45098%,79.607843%);fill-opacity:1;" d="M 7.464844 15.9375 C 7.566406 15.859375 7.679688 15.847656 7.8125 15.902344 C 7.699219 15.9375 7.582031 15.949219 7.464844 15.9375 Z M 7.464844 15.9375 "/>
</g>
<mask id="mask25">
  <g filter="url(#alpha)">
<rect x="0" y="0" width="20" height="20" style="fill:rgb(0%,0%,0%);fill-opacity:0.0117647;stroke:none;"/>
  </g>
</mask>
<clipPath id="clip26">
  <rect x="0" y="0" width="20" height="20"/>
</clipPath>
<g id="surface80" clip-path="url(#clip26)">
<path style=" stroke:none;fill-rule:evenodd;fill:rgb(0%,47.843137%,80%);fill-opacity:1;" d="M 3.019531 16.078125 C 3.070312 16.066406 3.117188 16.078125 3.160156 16.109375 C 3.09375 16.160156 3.046875 16.148438 3.019531 16.078125 Z M 3.019531 16.078125 "/>
</g>
<mask id="mask26">
  <g filter="url(#alpha)">
<rect x="0" y="0" width="20" height="20" style="fill:rgb(0%,0%,0%);fill-opacity:0.0117647;stroke:none;"/>
  </g>
</mask>
<clipPath id="clip27">
  <rect x="0" y="0" width="20" height="20"/>
</clipPath>
<g id="surface83" clip-path="url(#clip27)">
<path style=" stroke:none;fill-rule:evenodd;fill:rgb(0%,47.45098%,80%);fill-opacity:1;" d="M 9.339844 16.214844 C 9.441406 16.136719 9.554688 16.125 9.6875 16.179688 C 9.574219 16.214844 9.457031 16.226562 9.339844 16.214844 Z M 9.339844 16.214844 "/>
</g>
<mask id="mask27">
  <g filter="url(#alpha)">
<rect x="0" y="0" width="20" height="20" style="fill:rgb(0%,0%,0%);fill-opacity:0.0117647;stroke:none;"/>
  </g>
</mask>
<clipPath id="clip28">
  <rect x="0" y="0" width="20" height="20"/>
</clipPath>
<g id="surface86" clip-path="url(#clip28)">
<path style=" stroke:none;fill-rule:evenodd;fill:rgb(0%,47.843137%,79.607843%);fill-opacity:1;" d="M 10.171875 16.285156 C 10.054688 16.296875 9.941406 16.285156 9.828125 16.25 C 9.957031 16.195312 10.074219 16.207031 10.171875 16.285156 Z M 10.171875 16.285156 "/>
</g>
<mask id="mask28">
  <g filter="url(#alpha)">
<rect x="0" y="0" width="20" height="20" style="fill:rgb(0%,0%,0%);fill-opacity:0.0117647;stroke:none;"/>
  </g>
</mask>
<clipPath id="clip29">
  <rect x="0" y="0" width="20" height="20"/>
</clipPath>
<g id="surface89" clip-path="url(#clip29)">
<path style=" stroke:none;fill-rule:evenodd;fill:rgb(0%,47.843137%,80%);fill-opacity:1;" d="M 3.855469 16.355469 C 3.902344 16.355469 3.945312 16.355469 3.992188 16.355469 C 3.945312 16.445312 3.902344 16.445312 3.855469 16.355469 Z M 3.855469 16.355469 "/>
</g>
<mask id="mask29">
  <g filter="url(#alpha)">
<rect x="0" y="0" width="20" height="20" style="fill:rgb(0%,0%,0%);fill-opacity:0.0117647;stroke:none;"/>
  </g>
</mask>
<clipPath id="clip30">
  <rect x="0" y="0" width="20" height="20"/>
</clipPath>
<g id="surface92" clip-path="url(#clip30)">
<path style=" stroke:none;fill-rule:evenodd;fill:rgb(0%,47.843137%,79.607843%);fill-opacity:1;" d="M 13.507812 16.839844 C 13.632812 16.761719 13.769531 16.75 13.921875 16.804688 C 13.785156 16.839844 13.648438 16.851562 13.507812 16.839844 Z M 13.507812 16.839844 "/>
</g>
<mask id="mask30">
  <g filter="url(#alpha)">
<rect x="0" y="0" width="20" height="20" style="fill:rgb(0%,0%,0%);fill-opacity:0.0117647;stroke:none;"/>
  </g>
</mask>
<clipPath id="clip31">
  <rect x="0" y="0" width="20" height="20"/>
</clipPath>
<g id="surface95" clip-path="url(#clip31)">
<path style=" stroke:none;fill-rule:evenodd;fill:rgb(0%,47.843137%,80%);fill-opacity:1;" d="M 14.410156 16.910156 C 14.269531 16.921875 14.128906 16.910156 13.992188 16.875 C 14.148438 16.820312 14.285156 16.832031 14.410156 16.910156 Z M 14.410156 16.910156 "/>
</g>
<mask id="mask31">
  <g filter="url(#alpha)">
<rect x="0" y="0" width="20" height="20" style="fill:rgb(0%,0%,0%);fill-opacity:0.0117647;stroke:none;"/>
  </g>
</mask>
<clipPath id="clip32">
  <rect x="0" y="0" width="20" height="20"/>
</clipPath>
<g id="surface98" clip-path="url(#clip32)">
<path style=" stroke:none;fill-rule:evenodd;fill:rgb(0%,47.45098%,80%);fill-opacity:1;" d="M 8.367188 17.882812 C 8.414062 17.882812 8.460938 17.882812 8.507812 17.882812 C 8.460938 17.972656 8.414062 17.972656 8.367188 17.882812 Z M 8.367188 17.882812 "/>
</g>
<mask id="mask32">
  <g filter="url(#alpha)">
<rect x="0" y="0" width="20" height="20" style="fill:rgb(0%,0%,0%);fill-opacity:0.0117647;stroke:none;"/>
  </g>
</mask>
<clipPath id="clip33">
  <rect x="0" y="0" width="20" height="20"/>
</clipPath>
<g id="surface101" clip-path="url(#clip33)">
<path style=" stroke:none;fill-rule:evenodd;fill:rgb(0%,47.45098%,80%);fill-opacity:1;" d="M 19.132812 18.367188 C 19.132812 18.34375 19.132812 18.320312 19.132812 18.296875 C 19.179688 18.296875 19.222656 18.296875 19.269531 18.296875 C 19.246094 18.355469 19.199219 18.378906 19.132812 18.367188 Z M 19.132812 18.367188 "/>
</g>
<mask id="mask33">
  <g filter="url(#alpha)">
<rect x="0" y="0" width="20" height="20" style="fill:rgb(0%,0%,0%);fill-opacity:0.0117647;stroke:none;"/>
  </g>
</mask>
<clipPath id="clip34">
  <rect x="0" y="0" width="20" height="20"/>
</clipPath>
<g id="surface104" clip-path="url(#clip34)">
<path style=" stroke:none;fill-rule:evenodd;fill:rgb(0%,48.235294%,80%);fill-opacity:1;" d="M 17.8125 18.921875 C 17.8125 18.902344 17.8125 18.878906 17.8125 18.855469 C 17.859375 18.855469 17.90625 18.855469 17.953125 18.855469 C 17.925781 18.914062 17.882812 18.9375 17.8125 18.921875 Z M 17.8125 18.921875 "/>
</g>
<mask id="mask34">
  <g filter="url(#alpha)">
<rect x="0" y="0" width="20" height="20" style="fill:rgb(0%,0%,0%);fill-opacity:0.00784314;stroke:none;"/>
  </g>
</mask>
<clipPath id="clip35">
  <rect x="0" y="0" width="20" height="20"/>
</clipPath>
<g id="surface107" clip-path="url(#clip35)">
<path style=" stroke:none;fill-rule:evenodd;fill:rgb(0%,47.843137%,79.607843%);fill-opacity:1;" d="M 17.117188 19.203125 C 17.117188 19.179688 17.117188 19.15625 17.117188 19.132812 C 17.1875 19.132812 17.257812 19.132812 17.328125 19.132812 C 17.277344 19.195312 17.207031 19.21875 17.117188 19.203125 Z M 17.117188 19.203125 "/>
</g>
<mask id="mask35">
  <g filter="url(#alpha)">
<rect x="0" y="0" width="20" height="20" style="fill:rgb(0%,0%,0%);fill-opacity:0.0117647;stroke:none;"/>
  </g>
</mask>
<clipPath id="clip36">
  <rect x="0" y="0" width="20" height="20"/>
</clipPath>
<g id="surface110" clip-path="url(#clip36)">
<path style=" stroke:none;fill-rule:evenodd;fill:rgb(0%,47.843137%,80%);fill-opacity:1;" d="M 16.980469 19.269531 C 16.980469 19.246094 16.980469 19.222656 16.980469 19.203125 C 17.027344 19.203125 17.070312 19.203125 17.117188 19.203125 C 17.09375 19.257812 17.046875 19.28125 16.980469 19.269531 Z M 16.980469 19.269531 "/>
</g>
<mask id="mask36">
  <g filter="url(#alpha)">
<rect x="0" y="0" width="20" height="20" style="fill:rgb(0%,0%,0%);fill-opacity:0.00784314;stroke:none;"/>
  </g>
</mask>
<clipPath id="clip37">
  <rect x="0" y="0" width="20" height="20"/>
</clipPath>
<g id="surface113" clip-path="url(#clip37)">
<path style=" stroke:none;fill-rule:evenodd;fill:rgb(0%,47.45098%,80%);fill-opacity:1;" d="M 12.671875 19.339844 C 12.742188 19.339844 12.8125 19.339844 12.882812 19.339844 C 12.882812 19.363281 12.882812 19.386719 12.882812 19.410156 C 12.792969 19.425781 12.722656 19.402344 12.671875 19.339844 Z M 12.671875 19.339844 "/>
</g>
<mask id="mask37">
  <g filter="url(#alpha)">
<rect x="0" y="0" width="20" height="20" style="fill:rgb(0%,0%,0%);fill-opacity:0.0117647;stroke:none;"/>
  </g>
</mask>
<clipPath id="clip38">
  <rect x="0" y="0" width="20" height="20"/>
</clipPath>
<g id="surface116" clip-path="url(#clip38)">
<path style=" stroke:none;fill-rule:evenodd;fill:rgb(0%,47.45098%,80%);fill-opacity:1;" d="M 12.882812 19.410156 C 12.933594 19.402344 12.980469 19.414062 13.019531 19.445312 C 12.957031 19.492188 12.910156 19.480469 12.882812 19.410156 Z M 12.882812 19.410156 "/>
</g>
<mask id="mask38">
  <g filter="url(#alpha)">
<rect x="0" y="0" width="20" height="20" style="fill:rgb(0%,0%,0%);fill-opacity:0.0117647;stroke:none;"/>
  </g>
</mask>
<clipPath id="clip39">
  <rect x="0" y="0" width="20" height="20"/>
</clipPath>
<g id="surface119" clip-path="url(#clip39)">
<path style=" stroke:none;fill-rule:evenodd;fill:rgb(0%,47.843137%,80%);fill-opacity:1;" d="M 16.492188 19.480469 C 16.492188 19.457031 16.492188 19.433594 16.492188 19.410156 C 16.539062 19.410156 16.585938 19.410156 16.632812 19.410156 C 16.609375 19.46875 16.5625 19.492188 16.492188 19.480469 Z M 16.492188 19.480469 "/>
</g>
<mask id="mask39">
  <g filter="url(#alpha)">
<rect x="0" y="0" width="20" height="20" style="fill:rgb(0%,0%,0%);fill-opacity:0.0117647;stroke:none;"/>
  </g>
</mask>
<clipPath id="clip40">
  <rect x="0" y="0" width="20" height="20"/>
</clipPath>
<g id="surface122" clip-path="url(#clip40)">
<path style=" stroke:none;fill-rule:evenodd;fill:rgb(0%,47.843137%,80%);fill-opacity:1;" d="M 13.714844 19.6875 C 13.761719 19.6875 13.808594 19.6875 13.855469 19.6875 C 13.808594 19.78125 13.761719 19.78125 13.714844 19.6875 Z M 13.714844 19.6875 "/>
</g>
<mask id="mask40">
  <g filter="url(#alpha)">
<rect x="0" y="0" width="20" height="20" style="fill:rgb(0%,0%,0%);fill-opacity:0.0117647;stroke:none;"/>
  </g>
</mask>
<clipPath id="clip41">
  <rect x="0" y="0" width="20" height="20"/>
</clipPath>
<g id="surface125" clip-path="url(#clip41)">
<path style=" stroke:none;fill-rule:evenodd;fill:rgb(0%,48.235294%,80%);fill-opacity:1;" d="M 15.660156 19.828125 C 15.660156 19.804688 15.660156 19.78125 15.660156 19.757812 C 15.707031 19.757812 15.753906 19.757812 15.796875 19.757812 C 15.773438 19.816406 15.730469 19.839844 15.660156 19.828125 Z M 15.660156 19.828125 "/>
</g>
</defs>
<g id="surface1">
<use xlink:href="#surface5" mask="url(#mask0)"/>
<use xlink:href="#surface8" mask="url(#mask1)"/>
<use xlink:href="#surface11" mask="url(#mask2)"/>
<use xlink:href="#surface14" mask="url(#mask3)"/>
<use xlink:href="#surface17" mask="url(#mask4)"/>
<use xlink:href="#surface20" mask="url(#mask5)"/>
<use xlink:href="#surface23" mask="url(#mask6)"/>
<use xlink:href="#surface26" mask="url(#mask7)"/>
<use xlink:href="#surface29" mask="url(#mask8)"/>
<use xlink:href="#surface32" mask="url(#mask9)"/>
<use xlink:href="#surface35" mask="url(#mask10)"/>
<use xlink:href="#surface38" mask="url(#mask11)"/>
<use xlink:href="#surface41" mask="url(#mask12)"/>
<use xlink:href="#surface44" mask="url(#mask13)"/>
<use xlink:href="#surface47" mask="url(#mask14)"/>
<use xlink:href="#surface50" mask="url(#mask15)"/>
<use xlink:href="#surface53" mask="url(#mask16)"/>
<use xlink:href="#surface56" mask="url(#mask17)"/>
<use xlink:href="#surface59" mask="url(#mask18)"/>
<use xlink:href="#surface62" mask="url(#mask19)"/>
<use xlink:href="#surface65" mask="url(#mask20)"/>
<use xlink:href="#surface68" mask="url(#mask21)"/>
<use xlink:href="#surface71" mask="url(#mask22)"/>
<use xlink:href="#surface74" mask="url(#mask23)"/>
<use xlink:href="#surface77" mask="url(#mask24)"/>
<use xlink:href="#surface80" mask="url(#mask25)"/>
<use xlink:href="#surface83" mask="url(#mask26)"/>
<use xlink:href="#surface86" mask="url(#mask27)"/>
<use xlink:href="#surface89" mask="url(#mask28)"/>
<use xlink:href="#surface92" mask="url(#mask29)"/>
<use xlink:href="#surface95" mask="url(#mask30)"/>
<use xlink:href="#surface98" mask="url(#mask31)"/>
<use xlink:href="#surface101" mask="url(#mask32)"/>
<use xlink:href="#surface104" mask="url(#mask33)"/>
<use xlink:href="#surface107" mask="url(#mask34)"/>
<use xlink:href="#surface110" mask="url(#mask35)"/>
<use xlink:href="#surface113" mask="url(#mask36)"/>
<use xlink:href="#surface116" mask="url(#mask37)"/>
<use xlink:href="#surface119" mask="url(#mask38)"/>
<use xlink:href="#surface122" mask="url(#mask39)"/>
<use xlink:href="#surface125" mask="url(#mask40)"/>
</g>
</svg>
