<?xml version="1.0" encoding="UTF-8"?>
<svg xmlns="http://www.w3.org/2000/svg" xmlns:xlink="http://www.w3.org/1999/xlink" width="59px" height="20px" viewBox="0 0 49 20" version="1.1">
<g id="surface1">
<path style=" stroke:none;fill-rule:nonzero;fill:rgb(100%,100%,100%);fill-opacity:1;" d="M 34.605469 20.140625 C 23.253906 20.140625 11.972656 20.136719 0.691406 20.15625 C 0.21875 20.15625 0.125 20.058594 0.125 19.578125 C 0.144531 13.261719 0.144531 6.949219 0.125 0.632812 C 0.125 0.214844 0.210938 0.128906 0.621094 0.128906 C 16.632812 0.144531 32.644531 0.144531 48.652344 0.128906 C 49.066406 0.128906 49.152344 0.214844 49.148438 0.632812 C 49.132812 6.972656 49.132812 13.308594 49.148438 19.648438 C 49.152344 20.066406 49.066406 20.15625 48.652344 20.152344 C 43.992188 20.132812 39.332031 20.140625 34.605469 20.140625 Z M 34.605469 20.140625 "/>
<path style=" stroke:none;fill-rule:nonzero;fill:rgb(95.686275%,47.45098%,12.941176%);fill-opacity:1;" d="M 30.558594 8.976562 C 30.589844 9.078125 30.59375 9.140625 30.585938 9.253906 C 30.558594 9.320312 30.546875 9.339844 30.542969 9.394531 C 30.042969 11.140625 28.867188 12.109375 27.285156 12.125 C 25.621094 12.140625 24.417969 11.226562 23.851562 9.472656 C 23.917969 8.949219 23.867188 8.476562 23.859375 7.953125 C 24.203125 6.527344 25.382812 5.335938 26.394531 5.230469 C 29.050781 4.964844 30.097656 6.28125 30.558594 7.84375 C 30.550781 7.917969 30.542969 7.941406 30.554688 7.996094 C 30.585938 8.089844 30.597656 8.152344 30.597656 8.261719 C 30.457031 8.511719 30.539062 8.730469 30.558594 8.976562 Z M 30.558594 8.976562 "/>
<path style=" stroke:none;fill-rule:nonzero;fill:rgb(95.686275%,47.45098%,13.333333%);fill-opacity:1;" d="M 22.78125 5.253906 C 22.941406 5.253906 23.058594 5.265625 23.164062 5.300781 C 23.550781 5.445312 24.113281 5.542969 24.171875 5.925781 C 24.234375 6.328125 23.703125 6.617188 23.464844 6.976562 C 23.300781 7.222656 23.148438 7.03125 22.992188 6.964844 C 21.882812 6.496094 20.828125 6.863281 20.363281 7.875 C 19.933594 8.816406 20.394531 9.8125 21.414062 10.441406 C 22.023438 10.816406 22.476562 10.480469 22.984375 10.320312 C 23.3125 10.214844 23.960938 10.660156 24.148438 11.1875 C 24.300781 11.613281 23.875 11.613281 23.683594 11.714844 C 21.902344 12.667969 19.726562 11.878906 18.9375 10.015625 C 18.148438 8.164062 19.03125 6.070312 20.898438 5.351562 C 21.007812 5.3125 21.117188 5.277344 21.277344 5.238281 C 21.792969 5.332031 22.261719 5.269531 22.78125 5.253906 Z M 22.78125 5.253906 "/>
<path style=" stroke:none;fill-rule:nonzero;fill:rgb(35.294118%,35.294118%,36.078431%);fill-opacity:1;" d="M 27.375 14.054688 C 27.351562 14.542969 27.027344 14.386719 26.820312 14.300781 C 26.558594 14.191406 26.367188 13.933594 26.449219 13.628906 C 26.515625 13.382812 26.601562 13.066406 26.980469 13.101562 C 27.289062 13.128906 27.558594 13.226562 27.65625 13.570312 C 27.71875 13.785156 27.671875 13.984375 27.457031 14.117188 C 27.273438 13.976562 27.246094 13.773438 27.074219 13.667969 C 26.992188 13.945312 27.265625 13.902344 27.375 14.054688 Z M 27.375 14.054688 "/>
<path style=" stroke:none;fill-rule:nonzero;fill:rgb(40.392157%,40.392157%,41.176471%);fill-opacity:1;" d="M 24.152344 14.109375 C 23.59375 13.492188 24.417969 13.734375 24.476562 13.488281 C 24.417969 13.320312 24.105469 13.394531 24.152344 13.125 C 24.460938 13.035156 24.761719 13.09375 24.859375 13.441406 C 24.929688 13.695312 24.957031 14.054688 24.832031 14.246094 C 24.714844 14.417969 24.402344 14.246094 24.152344 14.109375 Z M 24.152344 14.109375 "/>
<path style=" stroke:none;fill-rule:nonzero;fill:rgb(36.862745%,36.862745%,37.647059%);fill-opacity:1;" d="M 24.101562 14.089844 C 23.140625 14.605469 23.074219 14.515625 23.136719 12.722656 C 23.609375 12.90625 23.410156 13.3125 23.410156 13.601562 C 23.40625 14.039062 23.574219 14.207031 24.046875 14.125 C 24.113281 14.09375 24.105469 14.089844 24.101562 14.089844 Z M 24.101562 14.089844 "/>
<path style=" stroke:none;fill-rule:nonzero;fill:rgb(40.392157%,40.392157%,41.176471%);fill-opacity:1;" d="M 22.945312 14.230469 C 22.640625 14.472656 22.453125 14.355469 22.371094 14.011719 C 22.351562 13.921875 22.335938 13.820312 22.355469 13.734375 C 22.429688 13.402344 22.136719 12.851562 22.542969 12.789062 C 22.792969 12.75 22.632812 13.351562 22.671875 13.664062 C 22.695312 13.882812 22.695312 14.078125 22.945312 14.230469 Z M 22.945312 14.230469 "/>
<path style=" stroke:none;fill-rule:nonzero;fill:rgb(44.313725%,44.313725%,45.098039%);fill-opacity:1;" d="M 20.523438 14.125 C 20.609375 14.210938 20.820312 14.300781 20.582031 14.359375 C 20.320312 14.425781 20.078125 14.355469 19.925781 14.105469 C 19.769531 13.84375 19.773438 13.554688 19.957031 13.320312 C 20.164062 13.058594 20.4375 13.011719 20.773438 13.199219 C 20.628906 13.476562 20.113281 13.277344 20.171875 13.726562 C 20.195312 13.925781 20.230469 14.097656 20.523438 14.125 Z M 20.523438 14.125 "/>
<path style=" stroke:none;fill-rule:nonzero;fill:rgb(34.117647%,34.117647%,34.901961%);fill-opacity:1;" d="M 33.816406 14.082031 C 33.734375 14.460938 33.664062 14.785156 33.144531 14.832031 C 33.515625 14.472656 33.40625 14.144531 33.253906 13.785156 C 33.191406 13.636719 32.90625 13.382812 33.175781 13.269531 C 33.445312 13.160156 33.386719 13.546875 33.496094 13.742188 C 33.613281 13.867188 33.785156 13.851562 33.816406 14.082031 Z M 33.816406 14.082031 "/>
<path style=" stroke:none;fill-rule:nonzero;fill:rgb(40.392157%,40.392157%,41.176471%);fill-opacity:1;" d="M 29.058594 13.730469 C 29.828125 13.316406 28.738281 13.421875 28.957031 13.195312 C 29.703125 13.023438 29.761719 13.089844 29.746094 14.160156 C 29.296875 14.417969 29.152344 14.132812 29.058594 13.730469 Z M 29.058594 13.730469 "/>
<path style=" stroke:none;fill-rule:nonzero;fill:rgb(36.862745%,36.862745%,37.647059%);fill-opacity:1;" d="M 31.136719 13.277344 C 31.386719 12.988281 31.640625 13.0625 31.859375 13.277344 C 32.085938 13.5 32.085938 13.796875 31.957031 14.058594 C 31.796875 14.375 31.507812 14.4375 31.152344 14.28125 C 31.132812 14.175781 31.160156 14.117188 31.230469 14.035156 C 31.4375 13.867188 31.554688 13.722656 31.304688 13.496094 C 31.222656 13.425781 31.183594 13.378906 31.136719 13.277344 Z M 31.136719 13.277344 "/>
<path style=" stroke:none;fill-rule:nonzero;fill:rgb(36.078431%,36.078431%,36.862745%);fill-opacity:1;" d="M 16.433594 14.246094 C 16.199219 14.4375 15.964844 14.390625 15.875 14.136719 C 15.765625 13.824219 15.710938 13.480469 15.707031 13.148438 C 15.703125 13.066406 15.953125 12.964844 16.164062 13.078125 C 16.457031 13.238281 16.222656 13.265625 16.152344 13.394531 C 15.96875 13.734375 15.96875 14.054688 16.433594 14.246094 Z M 16.433594 14.246094 "/>
<path style=" stroke:none;fill-rule:nonzero;fill:rgb(35.294118%,35.294118%,36.078431%);fill-opacity:1;" d="M 21.765625 14.203125 C 21.476562 14.460938 21.21875 14.433594 21.050781 14.152344 C 20.875 13.851562 20.875 13.507812 21.132812 13.242188 C 21.316406 13.050781 21.542969 12.976562 21.699219 13.367188 C 21.40625 13.65625 21.40625 13.835938 21.730469 14.035156 C 21.773438 14.101562 21.78125 14.132812 21.765625 14.203125 Z M 21.765625 14.203125 "/>
<path style=" stroke:none;fill-rule:nonzero;fill:rgb(38.431373%,38.431373%,39.215686%);fill-opacity:1;" d="M 27.894531 13.570312 C 27.933594 13.378906 27.796875 13.144531 28.054688 13.136719 C 28.210938 13.132812 28.277344 13.273438 28.261719 13.433594 C 28.253906 13.503906 28.246094 13.574219 28.222656 13.640625 C 28.144531 13.867188 28.347656 14.308594 28.078125 14.300781 C 27.699219 14.292969 27.984375 13.855469 27.894531 13.570312 Z M 27.894531 13.570312 "/>
<path style=" stroke:none;fill-rule:nonzero;fill:rgb(32.156863%,32.156863%,32.941176%);fill-opacity:1;" d="M 30.339844 14 C 30.371094 14.15625 30.714844 14.273438 30.410156 14.339844 C 30.070312 14.414062 29.992188 14.023438 30.054688 13.824219 C 30.136719 13.578125 29.675781 13.207031 30.230469 13.066406 C 30.378906 13.027344 30.480469 13.050781 30.554688 13.121094 C 30.777344 13.328125 30.476562 13.304688 30.421875 13.355469 C 30.234375 13.539062 30.351562 13.753906 30.339844 14 Z M 30.339844 14 "/>
<path style=" stroke:none;fill-rule:nonzero;fill:rgb(35.294118%,35.294118%,36.078431%);fill-opacity:1;" d="M 18.378906 14.125 C 18.011719 14.0625 17.871094 13.800781 18.019531 13.460938 C 18.144531 13.167969 18.382812 13.039062 18.6875 13.121094 C 18.867188 13.171875 18.84375 13.355469 18.746094 13.449219 C 18.386719 13.773438 18.378906 13.765625 18.378906 14.125 Z M 18.378906 14.125 "/>
<path style=" stroke:none;fill-rule:nonzero;fill:rgb(29.803922%,29.803922%,30.980392%);fill-opacity:1;" d="M 25.511719 14.003906 C 25.660156 14.273438 25.460938 14.269531 25.355469 14.3125 C 25.242188 14.351562 25.183594 14.285156 25.179688 14.171875 C 25.179688 13.679688 25.179688 13.183594 25.261719 12.6875 C 25.625 13.074219 25.398438 13.542969 25.511719 14.003906 Z M 25.511719 14.003906 "/>
<path style=" stroke:none;fill-rule:nonzero;fill:rgb(47.843137%,47.843137%,48.235294%);fill-opacity:1;" d="M 29.023438 13.671875 C 29.253906 13.867188 29.292969 14.214844 29.691406 14.222656 C 29.5625 14.457031 29.300781 14.304688 29.085938 14.371094 C 28.921875 14.417969 28.777344 14.300781 28.722656 14.132812 C 28.652344 13.902344 28.730469 13.734375 29.023438 13.671875 Z M 29.023438 13.671875 "/>
<path style=" stroke:none;fill-rule:nonzero;fill:rgb(35.294118%,35.294118%,36.078431%);fill-opacity:1;" d="M 17.457031 14.140625 C 17.453125 13.835938 17.453125 13.589844 17.453125 13.25 C 17.898438 13.585938 17.753906 13.964844 17.695312 14.292969 C 17.675781 14.386719 17.5 14.347656 17.457031 14.140625 Z M 17.457031 14.140625 "/>
<path style=" stroke:none;fill-rule:nonzero;fill:rgb(40.392157%,40.392157%,41.176471%);fill-opacity:1;" d="M 33.839844 14.097656 C 33.714844 14.050781 33.625 13.964844 33.519531 13.835938 C 33.914062 13.761719 33.644531 13.101562 34.144531 13.113281 C 34.203125 13.476562 33.9375 13.746094 33.839844 14.097656 Z M 33.839844 14.097656 "/>
<path style=" stroke:none;fill-rule:nonzero;fill:rgb(29.803922%,29.803922%,30.980392%);fill-opacity:1;" d="M 32.25 13.800781 C 32.222656 13.394531 32.261719 13.121094 32.746094 13.285156 C 32.359375 13.558594 32.683594 14.007812 32.457031 14.347656 C 32.152344 14.28125 32.292969 14.027344 32.25 13.800781 Z M 32.25 13.800781 "/>
<path style=" stroke:none;fill-rule:nonzero;fill:rgb(58.039216%,58.039216%,58.431373%);fill-opacity:1;" d="M 16.960938 13.476562 C 17 13.554688 17.015625 13.605469 17.003906 13.648438 C 16.941406 13.886719 17.164062 14.335938 16.792969 14.324219 C 16.460938 14.3125 16.660156 13.871094 16.632812 13.5625 C 16.730469 13.429688 16.824219 13.421875 16.960938 13.476562 Z M 16.960938 13.476562 "/>
<path style=" stroke:none;fill-rule:nonzero;fill:rgb(29.803922%,29.803922%,30.980392%);fill-opacity:1;" d="M 26.300781 13.789062 C 26.261719 14.0625 26.183594 14.324219 25.925781 14.210938 C 25.617188 14.074219 26.042969 14.019531 26.03125 13.851562 C 26.011719 13.625 25.953125 13.445312 25.765625 13.28125 C 26.25 13.148438 26.285156 13.429688 26.300781 13.789062 Z M 26.300781 13.789062 "/>
<path style=" stroke:none;fill-rule:nonzero;fill:rgb(29.803922%,29.803922%,30.980392%);fill-opacity:1;" d="M 31.285156 14.0625 C 31.246094 14.144531 31.214844 14.175781 31.148438 14.222656 C 30.753906 13.945312 30.785156 13.617188 31.078125 13.25 C 31.167969 13.246094 31.207031 13.269531 31.261719 13.332031 C 31.316406 13.578125 31.332031 13.796875 31.285156 14.0625 Z M 31.285156 14.0625 "/>
<path style=" stroke:none;fill-rule:nonzero;fill:rgb(34.117647%,34.117647%,34.901961%);fill-opacity:1;" d="M 21.789062 14.234375 C 21.738281 14.214844 21.734375 14.1875 21.730469 14.121094 C 21.628906 13.878906 21.683594 13.664062 21.710938 13.414062 C 21.738281 13.375 21.730469 13.378906 21.726562 13.382812 C 22.257812 13.550781 22.28125 13.722656 21.789062 14.234375 Z M 21.789062 14.234375 "/>
<path style=" stroke:none;fill-rule:nonzero;fill:rgb(35.294118%,35.294118%,36.078431%);fill-opacity:1;" d="M 17.03125 13.460938 C 16.910156 13.507812 16.824219 13.507812 16.695312 13.503906 C 16.648438 13.40625 16.644531 13.308594 16.648438 13.164062 C 16.691406 13.058594 16.746094 13.03125 16.863281 13.058594 C 17.058594 13.148438 17.308594 12.988281 17.363281 13.21875 C 17.402344 13.382812 17.164062 13.339844 17.03125 13.460938 Z M 17.03125 13.460938 "/>
<path style=" stroke:none;fill-rule:nonzero;fill:rgb(95.294118%,41.960784%,0%);fill-opacity:1;" d="M 22.769531 5.21875 C 22.367188 5.464844 21.886719 5.335938 21.367188 5.273438 C 21.785156 5.128906 22.246094 5.140625 22.769531 5.21875 Z M 22.769531 5.21875 "/>
<path style=" stroke:none;fill-rule:nonzero;fill:rgb(95.294118%,41.960784%,0%);fill-opacity:1;" d="M 23.824219 7.960938 C 24.046875 8.367188 23.933594 8.855469 23.878906 9.378906 C 23.742188 8.957031 23.777344 8.492188 23.824219 7.960938 Z M 23.824219 7.960938 "/>
<path style=" stroke:none;fill-rule:nonzero;fill:rgb(58.039216%,58.039216%,58.431373%);fill-opacity:1;" d="M 16.902344 13.027344 C 16.851562 13.089844 16.792969 13.097656 16.695312 13.113281 C 16.621094 12.972656 16.527344 12.773438 16.714844 12.710938 C 16.90625 12.648438 16.875 12.851562 16.902344 13.027344 Z M 16.902344 13.027344 "/>
<path style=" stroke:none;fill-rule:nonzero;fill:rgb(95.294118%,41.960784%,0%);fill-opacity:1;" d="M 30.601562 8.957031 C 30.382812 8.820312 30.433594 8.601562 30.550781 8.34375 C 30.597656 8.507812 30.605469 8.703125 30.601562 8.957031 Z M 30.601562 8.957031 "/>
<path style=" stroke:none;fill-rule:nonzero;fill:rgb(95.294118%,41.960784%,0%);fill-opacity:1;" d="M 30.570312 9.398438 C 30.503906 9.394531 30.5 9.359375 30.554688 9.308594 C 30.574219 9.300781 30.582031 9.367188 30.570312 9.398438 Z M 30.570312 9.398438 "/>
<path style=" stroke:none;fill-rule:nonzero;fill:rgb(95.294118%,41.960784%,0%);fill-opacity:1;" d="M 30.578125 7.992188 C 30.519531 8.007812 30.5 7.972656 30.542969 7.910156 C 30.558594 7.894531 30.585938 7.957031 30.578125 7.992188 Z M 30.578125 7.992188 "/>
<path style=" stroke:none;fill-rule:nonzero;fill:rgb(100%,98.823529%,98.431373%);fill-opacity:1;" d="M 25.878906 10.003906 C 25.253906 9.277344 25.128906 8.515625 25.570312 7.710938 C 25.96875 6.988281 26.609375 6.675781 27.417969 6.761719 C 28.171875 6.839844 28.679688 7.265625 28.957031 7.976562 C 29.328125 8.921875 28.851562 9.980469 27.929688 10.421875 C 27.144531 10.796875 26.511719 10.574219 25.878906 10.003906 Z M 25.878906 10.003906 "/>
<path style=" stroke:none;fill-rule:nonzero;fill:rgb(100%,98.823529%,98.431373%);fill-opacity:1;" d="M 27.40625 14.085938 C 27.386719 14.078125 27.363281 14.058594 27.347656 14.0625 C 27.058594 14.140625 26.792969 14.144531 26.730469 13.765625 C 26.695312 13.550781 26.816406 13.390625 27.03125 13.390625 C 27.46875 13.398438 27.375 13.714844 27.375 14.039062 C 27.410156 14.085938 27.40625 14.085938 27.40625 14.085938 Z M 27.40625 14.085938 "/>
<path style=" stroke:none;fill-rule:nonzero;fill:rgb(94.509804%,94.509804%,94.509804%);fill-opacity:1;" d="M 31.335938 14.113281 C 31.101562 13.902344 31.109375 13.675781 31.246094 13.398438 C 31.488281 13.351562 31.699219 13.339844 31.707031 13.640625 C 31.714844 13.875 31.730469 14.117188 31.335938 14.113281 Z M 31.335938 14.113281 "/>
<path style=" stroke:none;fill-rule:nonzero;fill:rgb(92.941176%,92.941176%,92.941176%);fill-opacity:1;" d="M 21.683594 13.375 C 21.789062 13.578125 21.929688 13.78125 21.75 14.039062 C 21.492188 14.109375 21.257812 14.113281 21.230469 13.785156 C 21.210938 13.503906 21.332031 13.34375 21.683594 13.375 Z M 21.683594 13.375 "/>
</g>
</svg>
