<svg version="1.1" id="Layer_1" xmlns="http://www.w3.org/2000/svg" xmlns:xlink="http://www.w3.org/1999/xlink" x="0px" y="0px"
	 width="100%" viewBox="0 0 354 142" enable-background="new 0 0 354 142" xml:space="preserve">
<path fill="#FFFFFF" opacity="1.000000" stroke="none" 
	d="
M250.000000,143.000000 
	C168.000015,143.000000 86.499985,142.972473 5.000175,143.096024 
	C1.575894,143.101212 0.890748,142.425430 0.902015,138.999710 
	C1.049463,94.166862 1.037031,49.333275 0.916530,4.500270 
	C0.908512,1.517243 1.517915,0.916124 4.500021,0.918598 
	C120.166588,1.014549 235.833267,1.014542 351.499847,0.918628 
	C354.481537,0.916156 355.091461,1.516727 355.083466,4.500134 
	C354.963074,49.499805 354.963135,94.500000 355.083466,139.499664 
	C355.091461,142.482559 354.484009,143.096313 351.499756,143.084503 
	C317.833588,142.951065 284.166687,143.000000 250.000000,143.000000 
z"/>
<path fill="#F47921" opacity="1.000000" stroke="none" 
	d="
M220.773056,63.733589 
	C221.008636,64.448425 221.037872,64.905952 220.973969,65.697746 
	C220.780060,66.169693 220.679306,66.307365 220.659485,66.687798 
	C217.034836,79.092133 208.547424,85.974571 197.116470,86.087181 
	C185.088745,86.205673 176.401321,79.718666 172.318085,67.252274 
	C172.792725,63.549641 172.418488,60.183258 172.361191,56.455612 
	C174.862808,46.334759 183.366104,37.871769 190.690750,37.146965 
	C209.876923,35.248425 217.451447,44.603756 220.772141,55.698936 
	C220.714630,56.226360 220.646088,56.388073 220.735413,56.760696 
	C220.970139,57.424778 221.046982,57.877945 221.051605,58.670563 
	C220.025131,60.423317 220.619446,61.979687 220.773056,63.733589 
z"/>
<path fill="#F47922" opacity="1.000000" stroke="none" 
	d="
M164.583893,37.314034 
	C165.747635,37.316158 166.586609,37.374184 167.348465,37.647350 
	C170.143906,38.649670 174.213272,39.361568 174.634048,42.082474 
	C175.073654,44.925182 171.247833,46.977779 169.507904,49.536121 
	C168.326813,51.272762 167.244629,49.931328 166.114426,49.462818 
	C158.079208,46.131912 150.465225,48.721161 147.121521,55.911854 
	C144.018829,62.584301 147.353439,69.667809 154.702576,74.130325 
	C159.094330,76.797081 162.384476,74.411339 166.051498,73.266014 
	C168.427887,72.523804 173.116302,75.673309 174.471451,79.437599 
	C175.553604,82.443558 172.473953,82.459572 171.098694,83.180267 
	C158.220123,89.929329 142.523117,84.327530 136.813065,71.114868 
	C131.125626,57.954483 137.479080,43.106323 150.987381,37.999676 
	C151.763351,37.706326 152.555634,37.456093 153.708252,37.190277 
	C157.443268,37.857487 160.840576,37.400764 164.583893,37.314034 
z"/>
<path fill="#5A5A5C" opacity="1.000000" stroke="none" 
	d="
M197.773575,99.786255 
	C197.611862,103.264175 195.250366,102.140785 193.772171,101.536728 
	C191.882492,100.764526 190.489517,98.915932 191.086365,96.774750 
	C191.572968,95.029030 192.193939,92.766487 194.913208,93.018204 
	C197.150467,93.225311 199.108566,93.909966 199.802139,96.343414 
	C200.241714,97.885635 199.901199,99.295425 198.373138,100.232452 
	C197.028839,99.241737 196.838135,97.786247 195.608002,97.049408 
	C195.005096,99.019356 196.986099,98.701813 197.773575,99.786255 
z"/>
<path fill="#676769" opacity="1.000000" stroke="none" 
	d="
M174.490692,100.180260 
	C170.451965,95.800774 176.419296,97.520256 176.843582,95.771210 
	C176.420914,94.566353 174.160797,95.114487 174.492386,93.198494 
	C176.712799,92.560959 178.889801,92.972870 179.583420,95.422157 
	C180.095657,97.231003 180.306595,99.778206 179.386765,101.145287 
	C178.562149,102.370857 176.280655,101.137123 174.490692,100.180260 
z"/>
<path fill="#5E5E60" opacity="1.000000" stroke="none" 
	d="
M174.132874,100.032204 
	C167.167450,103.690697 166.705688,103.063866 167.149170,90.327988 
	C170.564545,91.627365 169.120697,94.522385 169.117188,96.578629 
	C169.111893,99.689743 170.298325,100.856125 173.728149,100.278511 
	C174.192352,100.078491 174.158203,100.038818 174.132874,100.032204 
z"/>
<path fill="#676769" opacity="1.000000" stroke="none" 
	d="
M165.776154,101.024734 
	C163.563614,102.766624 162.202835,101.922455 161.626709,99.473099 
	C161.478378,98.842491 161.376602,98.131706 161.513474,97.515518 
	C162.038086,95.154076 159.913452,91.241302 162.853973,90.791100 
	C164.657227,90.515015 163.514114,94.809822 163.785202,97.025215 
	C163.972656,98.557159 163.968613,99.967476 165.776154,101.024734 
z"/>
<path fill="#717173" opacity="1.000000" stroke="none" 
	d="
M148.271332,100.274734 
	C148.890915,100.905586 150.420120,101.525162 148.696732,101.952782 
	C146.799789,102.423462 145.047668,101.928757 143.964249,100.151169 
	C142.823273,98.279175 142.841629,96.248299 144.180038,94.570953 
	C145.663162,92.712250 147.652069,92.393730 150.068848,93.709068 
	C149.035553,95.673073 145.316269,94.262054 145.722824,97.455688 
	C145.902496,98.866928 146.145325,100.088455 148.271332,100.274734 
z"/>
<path fill="#575759" opacity="1.000000" stroke="none" 
	d="
M244.301422,99.976837 
	C243.715027,102.671776 243.205887,104.975914 239.458298,105.299835 
	C242.128769,102.769508 241.332230,100.439301 240.250519,97.876175 
	C239.801636,96.812546 237.728149,95.014488 239.667664,94.225563 
	C241.626938,93.428612 241.194366,96.172539 242.004608,97.580666 
	C242.830658,98.464775 244.090683,98.358620 244.301422,99.976837 
z"/>
<path fill="#676769" opacity="1.000000" stroke="none" 
	d="
M209.944321,97.478088 
	C215.500427,94.539703 207.615143,95.290596 209.204224,93.691536 
	C214.586029,92.468033 215.018997,92.950172 214.909241,100.547348 
	C211.656586,102.370758 210.614349,100.330170 209.944321,97.478088 
z"/>
<path fill="#5E5E60" opacity="1.000000" stroke="none" 
	d="
M224.954529,94.269341 
	C226.741043,92.220879 228.578308,92.748444 230.158539,94.258575 
	C231.811783,95.838486 231.813644,97.949020 230.860397,99.814011 
	C229.706024,102.072441 227.641144,102.507286 225.052048,101.386436 
	C224.916046,100.649139 225.105743,100.237335 225.633743,99.642540 
	C227.127518,98.456284 227.969406,97.435043 226.153778,95.826843 
	C225.559494,95.324783 225.276535,94.981674 224.954529,94.269341 
z"/>
<path fill="#5C5C5E" opacity="1.000000" stroke="none" 
	d="
M118.730263,101.156357 
	C117.038712,102.519264 115.333832,102.181374 114.691811,100.363708 
	C113.907837,98.144127 113.505280,95.712387 113.463440,93.363037 
	C113.453087,92.782013 115.243774,92.045761 116.772598,92.864845 
	C118.889015,93.998734 117.193184,94.190018 116.698227,95.094704 
	C115.373550,97.515938 115.368347,99.789787 118.730263,101.156357 
z"/>
<path fill="#5A5A5C" opacity="1.000000" stroke="none" 
	d="
M157.240509,100.840240 
	C155.158478,102.669312 153.288834,102.488159 152.090714,100.472206 
	C150.822296,98.337975 150.816208,95.912781 152.671204,94.016380 
	C154.009903,92.647797 155.646286,92.131699 156.754196,94.919495 
	C154.653778,96.965012 154.661621,98.238647 156.999649,99.642578 
	C157.309448,100.108246 157.372208,100.330704 157.240509,100.840240 
z"/>
<path fill="#626264" opacity="1.000000" stroke="none" 
	d="
M201.518814,96.337479 
	C201.808731,94.988686 200.821869,93.338409 202.685394,93.275124 
	C203.817642,93.236671 204.293991,94.248466 204.168228,95.386398 
	C204.114120,95.876030 204.072845,96.384544 203.906693,96.841164 
	C203.322021,98.447914 204.803818,101.582420 202.839539,101.537766 
	C200.118179,101.475899 202.160141,98.370949 201.518814,96.337479 
z"/>
<path fill="#525254" opacity="1.000000" stroke="none" 
	d="
M219.182266,99.396790 
	C219.406677,100.499199 221.900192,101.335587 219.684250,101.809029 
	C217.253738,102.328323 216.681091,99.571236 217.142899,98.158234 
	C217.717545,96.399994 214.406448,93.758408 218.409851,92.758995 
	C219.467407,92.494980 220.196579,92.655609 220.746231,93.159554 
	C222.338501,94.619453 220.191559,94.450043 219.785690,94.835068 
	C218.431992,96.119255 219.276443,97.639793 219.182266,99.396790 
z"/>
<path fill="#5A5A5C" opacity="1.000000" stroke="none" 
	d="
M132.773132,100.286880 
	C130.125366,99.847908 129.114151,97.980125 130.174225,95.579865 
	C131.095901,93.492981 132.812897,92.570755 135.016190,93.160698 
	C136.309052,93.506874 136.147125,94.832291 135.431351,95.475914 
	C132.844498,97.802010 132.787384,97.738495 132.773132,100.286880 
z"/>
<path fill="#4C4C4F" opacity="1.000000" stroke="none" 
	d="
M184.316925,99.441483 
	C185.376709,101.346512 183.954575,101.325180 183.166321,101.610649 
	C182.373856,101.897636 181.926865,101.424484 181.923218,100.627724 
	C181.907135,97.119804 181.916275,93.611778 182.490311,90.090355 
	C185.120087,92.822258 183.483795,96.142616 184.316925,99.441483 
z"/>
<path fill="#7A7A7B" opacity="1.000000" stroke="none" 
	d="
M209.685333,97.069489 
	C211.349884,98.466377 211.626633,100.919571 214.500519,100.978806 
	C213.584045,102.652596 211.682755,101.571564 210.121887,102.025726 
	C208.934052,102.371346 207.889175,101.532578 207.511841,100.343643 
	C206.991852,98.705177 207.552750,97.503349 209.685333,97.069489 
z"/>
<path fill="#5A5A5C" opacity="1.000000" stroke="none" 
	d="
M126.109955,100.390930 
	C126.078484,98.235161 126.078484,96.494125 126.078484,94.068398 
	C129.316330,96.472473 128.250275,99.143921 127.830498,101.472984 
	C127.711365,102.133987 126.428238,101.862915 126.109955,100.390930 
z"/>
<path fill="#676769" opacity="1.000000" stroke="none" 
	d="
M244.470108,100.105560 
	C243.564301,99.747208 242.927750,99.146004 242.154510,98.239021 
	C245.002213,97.715851 243.077850,93.013390 246.688232,93.106232 
	C247.088531,95.673363 245.180969,97.585770 244.470108,100.105560 
z"/>
<path fill="#4C4C4F" opacity="1.000000" stroke="none" 
	d="
M232.999115,97.976639 
	C232.790253,95.096786 233.084778,93.160019 236.561798,94.321663 
	C233.788223,96.254524 236.122925,99.465332 234.484909,101.857063 
	C232.289337,101.396988 233.290680,99.604652 232.999115,97.976639 
z"/>
<path fill="#949495" opacity="1.000000" stroke="none" 
	d="
M122.531174,95.690933 
	C122.827911,96.237175 122.934380,96.588921 122.853394,96.890282 
	C122.395096,98.595795 124.004059,101.794937 121.326767,101.707710 
	C118.921318,101.629326 120.357651,98.491653 120.173141,96.292900 
	C120.867447,95.340820 121.535530,95.281990 122.531174,95.690933 
z"/>
<path fill="#4C4C4F" opacity="1.000000" stroke="none" 
	d="
M189.996399,97.891167 
	C189.728226,99.851387 189.161087,101.701904 187.313492,100.896629 
	C185.062668,99.915627 188.151642,99.533508 188.048981,98.345467 
	C187.910919,96.747772 187.484207,95.455246 186.151855,94.290642 
	C189.642975,93.344963 189.890396,95.350441 189.996399,97.891167 
z"/>
<path fill="#4C4C4F" opacity="1.000000" stroke="none" 
	d="
M226.012604,99.855431 
	C225.736572,100.420135 225.499847,100.653000 225.034561,100.992523 
	C222.186935,99.017128 222.418549,96.685493 224.536469,94.078354 
	C225.184814,94.051109 225.463791,94.222610 225.842865,94.659058 
	C226.237625,96.414070 226.346100,97.965698 226.012604,99.855431 
z"/>
<path fill="#575759" opacity="1.000000" stroke="none" 
	d="
M157.418716,101.075562 
	C157.035828,100.935600 157.025574,100.743889 157.004349,100.264420 
	C156.268661,98.529915 156.640381,97.006477 156.860016,95.233276 
	C157.039413,94.960327 156.984131,94.987320 156.963104,95.009689 
	C160.791428,96.201836 160.963837,97.418198 157.418716,101.075562 
z"/>
<path fill="#5A5A5C" opacity="1.000000" stroke="none" 
	d="
M123.055794,95.577446 
	C122.179909,95.900192 121.551811,95.891678 120.609322,95.876953 
	C120.273666,95.185722 120.252403,94.500725 120.263016,93.474136 
	C120.591377,92.714714 120.995682,92.513611 121.826126,92.703896 
	C123.238701,93.340523 125.054398,92.206650 125.447052,93.866028 
	C125.717110,95.007332 124.002083,94.699654 123.055794,95.577446 
z"/>
<path fill="#F36B00" opacity="1.000000" stroke="none" 
	d="
M164.499878,37.055016 
	C161.600723,38.807087 158.120941,37.891476 154.378113,37.450279 
	C157.385956,36.429062 160.716324,36.505833 164.499878,37.055016 
z"/>
<path fill="#F36B00" opacity="1.000000" stroke="none" 
	d="
M172.124344,56.522781 
	C173.712906,59.418362 172.895248,62.863503 172.506027,66.586624 
	C171.534210,63.602085 171.782623,60.280815 172.124344,56.522781 
z"/>
<path fill="#949495" opacity="1.000000" stroke="none" 
	d="
M122.096733,92.497849 
	C121.734390,92.941856 121.324310,93.005096 120.604568,93.100449 
	C120.080490,92.094986 119.413513,90.701050 120.746155,90.256622 
	C122.135132,89.793411 121.910637,91.259872 122.096733,92.497849 
z"/>
<path fill="#F36B00" opacity="1.000000" stroke="none" 
	d="
M221.068176,63.581863 
	C219.495926,62.636757 219.873520,61.060337 220.708893,59.235779 
	C221.038559,60.397621 221.097763,61.785225 221.068176,63.581863 
z"/>
<path fill="#F36B00" opacity="1.000000" stroke="none" 
	d="
M220.842712,66.716431 
	C220.388596,66.706192 220.335449,66.449997 220.730911,66.096985 
	C220.880829,66.032013 220.945038,66.502304 220.842712,66.716431 
z"/>
<path fill="#F36B00" opacity="1.000000" stroke="none" 
	d="
M220.925385,56.737633 
	C220.482040,56.849945 220.355179,56.612957 220.647919,56.162651 
	C220.783157,56.064651 220.957504,56.503651 220.925385,56.737633 
z"/>
<path fill="#FFFCFB" opacity="1.000000" stroke="none" 
	d="
M186.950211,71.034622 
	C182.452515,65.860909 181.539566,60.450706 184.742798,54.734074 
	C187.617737,49.603279 192.230453,47.402870 198.074371,48.006924 
	C203.532425,48.571091 207.202591,51.598835 209.205307,56.633327 
	C211.876419,63.348038 208.427612,70.862267 201.789780,73.982368 
	C196.109665,76.652313 191.542343,75.069572 186.950211,71.034622 
z"/>
<path fill="#FFFCFB" opacity="1.000000" stroke="none" 
	d="
M198.007202,100.007294 
	C197.861816,99.952705 197.687393,99.807770 197.559845,99.841293 
	C195.477478,100.388374 193.563644,100.426422 193.109924,97.742905 
	C192.852097,96.218010 193.748047,95.061584 195.289337,95.079758 
	C198.438202,95.116867 197.778290,97.388580 197.770874,99.677658 
	C198.017181,100.012505 197.999954,99.999969 198.007202,100.007294 
z"/>
<path fill="#F1F1F1" opacity="1.000000" stroke="none" 
	d="
M226.392242,100.212692 
	C224.682785,98.709549 224.740952,97.098152 225.739975,95.141006 
	C227.487076,94.790001 229.001053,94.714714 229.075394,96.856819 
	C229.133194,98.522034 229.229843,100.225723 226.392242,100.212692 
z"/>
<path fill="#EDEDED" opacity="1.000000" stroke="none" 
	d="
M156.656845,94.954315 
	C157.407120,96.414375 158.430023,97.834282 157.131210,99.672318 
	C155.266281,100.165100 153.565613,100.209633 153.385712,97.866386 
	C153.232529,95.871056 154.119858,94.741127 156.656845,94.954315 
z"/>
</svg>