<svg version="1.1" id="Layer_1" xmlns="http://www.w3.org/2000/svg" xmlns:xlink="http://www.w3.org/1999/xlink" x="0px" y="0px"
	 width="100%" viewBox="0 0 318 159" enable-background="new 0 0 318 159" xml:space="preserve">
<path fill="#FEFEFE" opacity="1.000000" stroke="none" 
	d="
M255.000000,160.000000 
	C170.000015,160.000000 85.500038,160.000000 1.000045,160.000000 
	C1.000030,107.000031 1.000030,54.000065 1.000015,1.000074 
	C106.999939,1.000049 212.999878,1.000049 318.999878,1.000025 
	C318.999908,53.999928 318.999908,106.999855 318.999939,159.999893 
	C297.833344,160.000000 276.666656,160.000000 255.000000,160.000000 
M99.198738,112.853424 
	C105.427155,116.101349 111.013466,114.449211 111.885292,107.327393 
	C113.281967,95.918175 113.532684,84.220619 112.750191,72.748451 
	C112.284172,65.916084 104.520821,63.752560 98.238503,68.243752 
	C97.908554,69.511749 97.300667,70.777832 97.291893,72.048050 
	C97.209602,83.954811 97.171913,95.862877 97.293472,107.768799 
	C97.308746,109.264915 98.319267,110.750862 99.198738,112.853424 
M9.721184,74.766853 
	C9.799690,83.516060 9.878196,92.265274 9.887589,101.827522 
	C10.782076,104.812843 11.261694,108.014145 12.675158,110.729301 
	C14.477033,114.190559 17.825294,115.246101 21.643982,114.225388 
	C25.262568,113.258148 25.856712,110.357140 25.863890,107.212387 
	C25.889637,95.928665 25.962971,84.643860 25.838394,73.361450 
	C25.766951,66.890968 21.072252,63.530273 15.557964,66.511002 
	C13.082006,67.849373 11.821407,71.436142 9.721184,74.766853 
M52.500206,46.130165 
	C46.671963,46.138641 40.766220,45.547630 35.032703,46.288845 
	C25.159792,47.565205 19.954842,49.390621 19.362862,61.959187 
	C26.234457,62.745949 29.189375,66.671135 29.202627,73.701637 
	C29.212242,78.802063 32.371422,81.757156 37.554943,81.825005 
	C53.702747,82.036324 69.856590,82.013947 86.004890,81.818199 
	C90.741852,81.760773 93.909477,79.023300 94.040642,74.016113 
	C94.214012,67.397690 96.243629,62.515724 103.728050,62.239784 
	C103.667259,51.593910 98.654182,46.412552 87.969414,46.197479 
	C76.483849,45.966293 64.990211,46.135632 52.500206,46.130165 
M62.500015,85.143539 
	C53.838219,85.146828 45.174629,85.044624 36.515266,85.191498 
	C30.996405,85.285110 28.785545,87.515053 28.932041,92.224808 
	C29.070648,96.680824 31.059549,98.287659 36.733021,98.298058 
	C53.057156,98.327942 69.381424,98.331474 85.705544,98.296898 
	C91.917610,98.283745 94.061531,96.514069 94.041069,91.662392 
	C94.021095,86.925423 91.836105,85.208214 85.487595,85.157539 
	C78.158829,85.099022 70.829247,85.143707 62.500015,85.143539 
M65.499992,114.914772 
	C73.153084,114.891510 80.808350,114.969086 88.458405,114.804642 
	C92.606110,114.715477 94.222084,112.054642 94.187515,108.158508 
	C94.151863,104.141144 92.035896,101.855133 88.120453,101.834381 
	C70.317787,101.739998 52.514065,101.757042 34.711258,101.843925 
	C30.917877,101.862434 29.022938,104.093445 28.938040,107.908272 
	C28.832932,112.631271 30.989843,114.801727 36.547401,114.876709 
	C45.863407,115.002411 55.182316,114.913391 65.499992,114.914772 
M285.753632,73.617767 
	C285.753632,81.064331 285.753632,88.510887 285.753632,96.310783 
	C290.821747,96.310783 295.450043,96.271202 300.077332,96.321770 
	C304.825012,96.373657 308.577454,94.911812 310.132202,89.973785 
	C311.670685,85.087479 309.610474,81.743591 306.746399,80.245453 
	C307.575897,76.457458 309.200195,73.121033 308.639801,70.204353 
	C308.247803,68.163971 305.025940,65.502380 302.794342,65.210548 
	C297.286469,64.490280 291.621094,64.974419 285.753662,64.974419 
	C285.753662,67.718643 285.753662,70.191216 285.753632,73.617767 
M267.651337,96.179489 
	C277.483429,94.700905 281.332306,88.764175 280.245117,76.754211 
	C279.670441,70.405869 275.559753,65.675804 269.279724,65.063530 
	C264.535980,64.601044 259.710968,64.971970 254.514069,64.971970 
	C254.514069,73.930267 254.514084,82.706306 254.514084,91.482338 
	C254.514084,92.937767 254.514069,94.393196 254.514069,96.236893 
	C258.887604,96.236893 262.841125,96.236893 267.651337,96.179489 
M148.259430,74.113991 
	C148.684998,73.641769 149.519821,72.796974 149.477600,72.750603 
	C147.018082,70.048889 144.952606,66.383713 141.864441,64.984070 
	C135.297775,62.007866 127.810486,64.867844 124.391373,70.514572 
	C120.326096,77.228447 121.078194,87.866089 126.064629,92.922127 
	C130.551376,97.471504 136.020935,98.009422 141.783142,96.183372 
	C147.179825,94.473160 149.357956,90.240005 149.325806,84.403809 
	C147.638870,85.051582 146.553452,86.289734 145.319595,87.356140 
	C142.828735,89.508980 140.430435,92.938408 137.671021,93.287315 
	C134.821045,93.647682 130.906876,91.668777 128.675156,89.475182 
	C124.948387,85.812065 125.144646,76.673264 128.096283,72.062325 
	C132.197052,65.656242 140.700317,65.771217 145.007492,72.220245 
	C145.555588,73.040901 146.650177,73.496536 148.259430,74.113991 
M247.969650,95.651855 
	C247.995407,90.667290 248.230972,85.672768 247.995148,80.700607 
	C247.683289,74.125702 242.578003,71.116600 236.471085,73.656197 
	C235.343781,74.124985 234.251450,74.677887 232.662476,75.414803 
	C232.662476,71.602455 232.662476,68.343536 232.662476,65.084610 
	C232.306793,64.816826 231.951111,64.549049 231.595428,64.281265 
	C230.719421,65.109459 229.096924,65.923981 229.081467,66.767937 
	C228.902786,76.517265 228.967422,86.271049 228.967422,96.023651 
	C229.477219,96.280968 229.987015,96.538284 230.496796,96.795593 
	C231.261917,95.742905 232.597778,94.736954 232.688522,93.629028 
	C232.999725,89.829338 232.685211,85.979828 232.968048,82.175995 
	C233.258484,78.269524 235.738678,76.133606 239.588181,76.175171 
	C243.549484,76.217934 244.332336,79.037766 244.268829,82.388603 
	C244.199539,86.044411 244.398193,89.710213 244.204819,93.357063 
	C244.070709,95.886414 245.046524,96.682281 247.969650,95.651855 
M175.054611,79.758675 
	C171.481857,73.360283 166.153336,71.204643 160.307312,73.792686 
	C154.592590,76.322594 152.135406,83.134048 154.507904,89.869064 
	C156.483749,95.478088 162.040253,98.093552 168.268997,96.346443 
	C174.423294,94.620216 176.997803,88.802116 175.054611,79.758675 
M180.567215,74.405464 
	C180.590759,79.563339 180.451248,84.728592 180.684494,89.876968 
	C180.909897,94.852905 183.475021,97.233864 188.426529,96.789139 
	C190.889984,96.567871 193.252579,95.223877 195.240738,94.533607 
	C196.333191,95.214661 197.442505,95.906204 199.319519,97.076347 
	C199.319519,89.155670 199.407303,82.361946 199.209717,75.576530 
	C199.184692,74.717056 197.663757,73.901146 196.835876,73.065048 
	C196.427368,73.347237 196.018845,73.629425 195.610336,73.911613 
	C195.610336,78.551033 195.888046,83.212364 195.524445,87.823105 
	C195.221313,91.666946 192.510406,93.821373 188.715912,93.658623 
	C184.933548,93.496384 183.940292,90.767548 184.056763,87.327126 
	C184.186203,83.503487 184.015579,79.670326 184.109879,75.844620 
	C184.169830,73.412445 183.113098,72.932755 180.567215,74.405464 
M214.509018,93.731308 
	C208.511581,91.856239 206.286530,87.031761 208.571579,80.857536 
	C210.521667,75.588493 216.253983,74.610893 220.022400,78.795853 
	C220.954315,79.830788 222.375504,80.425140 224.558289,81.879150 
	C222.974594,74.760330 219.243927,72.283012 213.225479,72.948082 
	C207.568741,73.573181 203.964233,78.311607 203.941238,85.153000 
	C203.918655,91.869728 207.182144,96.025177 213.081558,96.791550 
	C219.264404,97.594742 222.950043,94.910461 224.762085,87.257332 
	C222.870789,88.319778 221.645981,88.870689 220.577393,89.638924 
	C218.788956,90.924675 217.100204,92.349083 214.509018,93.731308 
z"/>
<path fill="#E4272A" opacity="1.000000" stroke="none" 
	d="
M53.000153,46.130188 
	C64.990211,46.135632 76.483849,45.966293 87.969414,46.197479 
	C98.654182,46.412552 103.667259,51.593910 103.728050,62.239784 
	C96.243629,62.515724 94.214012,67.397690 94.040642,74.016113 
	C93.909477,79.023300 90.741852,81.760773 86.004890,81.818199 
	C69.856590,82.013947 53.702747,82.036324 37.554943,81.825005 
	C32.371422,81.757156 29.212242,78.802063 29.202627,73.701637 
	C29.189375,66.671135 26.234457,62.745949 19.362862,61.959187 
	C19.954842,49.390621 25.159792,47.565205 35.032703,46.288845 
	C40.766220,45.547630 46.671963,46.138641 53.000153,46.130188 
z"/>
<path fill="#E4292C" opacity="1.000000" stroke="none" 
	d="
M63.000015,85.143555 
	C70.829247,85.143707 78.158829,85.099022 85.487595,85.157539 
	C91.836105,85.208214 94.021095,86.925423 94.041069,91.662392 
	C94.061531,96.514069 91.917610,98.283745 85.705544,98.296898 
	C69.381424,98.331474 53.057156,98.327942 36.733021,98.298058 
	C31.059549,98.287659 29.070648,96.680824 28.932041,92.224808 
	C28.785545,87.515053 30.996405,85.285110 36.515266,85.191498 
	C45.174629,85.044624 53.838219,85.146828 63.000015,85.143555 
z"/>
<path fill="#E4292C" opacity="1.000000" stroke="none" 
	d="
M65.000000,114.914749 
	C55.182316,114.913391 45.863407,115.002411 36.547401,114.876709 
	C30.989843,114.801727 28.832932,112.631271 28.938040,107.908272 
	C29.022938,104.093445 30.917877,101.862434 34.711258,101.843925 
	C52.514065,101.757042 70.317787,101.739998 88.120453,101.834381 
	C92.035896,101.855133 94.151863,104.141144 94.187515,108.158508 
	C94.222084,112.054642 92.606110,114.715477 88.458405,114.804642 
	C80.808350,114.969086 73.153084,114.891510 65.000000,114.914749 
z"/>
<path fill="#E4282B" opacity="1.000000" stroke="none" 
	d="
M10.009317,74.002655 
	C11.821407,71.436142 13.082006,67.849373 15.557964,66.511002 
	C21.072252,63.530273 25.766951,66.890968 25.838394,73.361450 
	C25.962971,84.643860 25.889637,95.928665 25.863890,107.212387 
	C25.856712,110.357140 25.262568,113.258148 21.643982,114.225388 
	C17.825294,115.246101 14.477033,114.190559 12.675158,110.729301 
	C11.261694,108.014145 10.782076,104.812843 10.206575,101.116013 
	C10.668983,96.301056 10.998179,92.193474 10.906934,88.095245 
	C10.802248,83.393379 10.324821,78.699821 10.009317,74.002655 
z"/>
<path fill="#E4272A" opacity="1.000000" stroke="none" 
	d="
M98.886124,67.791855 
	C104.520821,63.752560 112.284172,65.916084 112.750191,72.748451 
	C113.532684,84.220619 113.281967,95.918175 111.885292,107.327393 
	C111.013466,114.449211 105.427155,116.101349 99.049988,112.062653 
	C98.896202,96.778534 98.891167,82.285194 98.886124,67.791855 
z"/>
<path fill="#0D0D0D" opacity="1.000000" stroke="none" 
	d="
M285.753662,73.140778 
	C285.753662,70.191216 285.753662,67.718643 285.753662,64.974419 
	C291.621094,64.974419 297.286469,64.490280 302.794342,65.210548 
	C305.025940,65.502380 308.247803,68.163971 308.639801,70.204353 
	C309.200195,73.121033 307.575897,76.457458 306.746399,80.245453 
	C309.610474,81.743591 311.670685,85.087479 310.132202,89.973785 
	C308.577454,94.911812 304.825012,96.373657 300.077332,96.321770 
	C295.450043,96.271202 290.821747,96.310783 285.753632,96.310783 
	C285.753632,88.510887 285.753632,81.064331 285.753662,73.140778 
M289.872833,88.430893 
	C289.960205,89.855583 290.047546,91.280273 290.143890,92.850899 
	C294.136963,92.850899 297.918945,93.454758 301.349915,92.618538 
	C303.326019,92.136902 305.589264,89.575035 306.192688,87.503654 
	C307.040985,84.591652 304.863922,82.345657 301.788055,82.117638 
	C297.904083,81.829712 293.982513,82.048134 289.872833,82.048134 
	C289.872833,84.172470 289.872833,85.819641 289.872833,88.430893 
M291.581024,78.187447 
	C294.397156,78.154770 297.213501,78.134186 300.029358,78.086212 
	C303.195526,78.032280 305.012482,76.509941 305.066681,73.246841 
	C305.121796,69.928513 303.156738,68.406372 300.109802,68.264557 
	C296.846527,68.112671 293.570740,68.230301 289.583344,68.230301 
	C289.955444,71.792282 290.285370,74.950470 291.581024,78.187447 
z"/>
<path fill="#0F0F0F" opacity="1.000000" stroke="none" 
	d="
M267.222992,96.208191 
	C262.841125,96.236893 258.887604,96.236893 254.514069,96.236893 
	C254.514069,94.393196 254.514084,92.937767 254.514084,91.482338 
	C254.514084,82.706306 254.514069,73.930267 254.514069,64.971970 
	C259.710968,64.971970 264.535980,64.601044 269.279724,65.063530 
	C275.559753,65.675804 279.670441,70.405869 280.245117,76.754211 
	C281.332306,88.764175 277.483429,94.700905 267.222992,96.208191 
M272.167908,90.879089 
	C276.301453,86.343567 277.561340,77.955765 274.867401,72.906975 
	C272.520874,68.509300 267.114716,67.085312 259.028259,68.675453 
	C259.028259,76.714554 259.028259,84.722664 259.028259,93.646118 
	C263.544220,92.782722 267.509949,92.024521 272.167908,90.879089 
z"/>
<path fill="#101010" opacity="1.000000" stroke="none" 
	d="
M147.875519,74.117630 
	C146.650177,73.496536 145.555588,73.040901 145.007492,72.220245 
	C140.700317,65.771217 132.197052,65.656242 128.096283,72.062325 
	C125.144646,76.673264 124.948387,85.812065 128.675156,89.475182 
	C130.906876,91.668777 134.821045,93.647682 137.671021,93.287315 
	C140.430435,92.938408 142.828735,89.508980 145.319595,87.356140 
	C146.553452,86.289734 147.638870,85.051582 149.325806,84.403809 
	C149.357956,90.240005 147.179825,94.473160 141.783142,96.183372 
	C136.020935,98.009422 130.551376,97.471504 126.064629,92.922127 
	C121.078194,87.866089 120.326096,77.228447 124.391373,70.514572 
	C127.810486,64.867844 135.297775,62.007866 141.864441,64.984070 
	C144.952606,66.383713 147.018082,70.048889 149.477600,72.750603 
	C149.519821,72.796974 148.684998,73.641769 147.875519,74.117630 
z"/>
<path fill="#131313" opacity="1.000000" stroke="none" 
	d="
M247.675018,95.946861 
	C245.046524,96.682281 244.070709,95.886414 244.204819,93.357063 
	C244.398193,89.710213 244.199539,86.044411 244.268829,82.388603 
	C244.332336,79.037766 243.549484,76.217934 239.588181,76.175171 
	C235.738678,76.133606 233.258484,78.269524 232.968048,82.175995 
	C232.685211,85.979828 232.999725,89.829338 232.688522,93.629028 
	C232.597778,94.736954 231.261917,95.742905 230.496796,96.795593 
	C229.987015,96.538284 229.477219,96.280968 228.967422,96.023651 
	C228.967422,86.271049 228.902786,76.517265 229.081467,66.767937 
	C229.096924,65.923981 230.719421,65.109459 231.595428,64.281265 
	C231.951111,64.549049 232.306793,64.816826 232.662476,65.084610 
	C232.662476,68.343536 232.662476,71.602455 232.662476,75.414803 
	C234.251450,74.677887 235.343781,74.124985 236.471085,73.656197 
	C242.578003,71.116600 247.683289,74.125702 247.995148,80.700607 
	C248.230972,85.672768 247.995407,90.667290 247.675018,95.946861 
z"/>
<path fill="#121212" opacity="1.000000" stroke="none" 
	d="
M175.159317,80.148590 
	C176.997803,88.802116 174.423294,94.620216 168.268997,96.346443 
	C162.040253,98.093552 156.483749,95.478088 154.507904,89.869064 
	C152.135406,83.134048 154.592590,76.322594 160.307312,73.792686 
	C166.153336,71.204643 171.481857,73.360283 175.159317,80.148590 
M171.073349,89.233841 
	C171.249115,86.805748 171.961624,84.267052 171.488800,81.972610 
	C170.508148,77.213676 166.033585,74.986015 162.076859,76.829582 
	C158.347321,78.567291 157.517441,81.901901 157.655106,85.534523 
	C157.788010,89.041893 159.040421,91.991867 162.785614,93.211304 
	C166.391327,94.385323 168.821075,92.774757 171.073349,89.233841 
z"/>
<path fill="#0B0B0B" opacity="1.000000" stroke="none" 
	d="
M180.811157,74.065468 
	C183.113098,72.932755 184.169830,73.412445 184.109879,75.844620 
	C184.015579,79.670326 184.186203,83.503487 184.056763,87.327126 
	C183.940292,90.767548 184.933548,93.496384 188.715912,93.658623 
	C192.510406,93.821373 195.221313,91.666946 195.524445,87.823105 
	C195.888046,83.212364 195.610336,78.551033 195.610336,73.911613 
	C196.018845,73.629425 196.427368,73.347237 196.835876,73.065048 
	C197.663757,73.901146 199.184692,74.717056 199.209717,75.576530 
	C199.407303,82.361946 199.319519,89.155670 199.319519,97.076347 
	C197.442505,95.906204 196.333191,95.214661 195.240738,94.533607 
	C193.252579,95.223877 190.889984,96.567871 188.426529,96.789139 
	C183.475021,97.233864 180.909897,94.852905 180.684494,89.876968 
	C180.451248,84.728592 180.590759,79.563339 180.811157,74.065468 
z"/>
<path fill="#121212" opacity="1.000000" stroke="none" 
	d="
M214.939270,93.723221 
	C217.100204,92.349083 218.788956,90.924675 220.577393,89.638924 
	C221.645981,88.870689 222.870789,88.319778 224.762085,87.257332 
	C222.950043,94.910461 219.264404,97.594742 213.081558,96.791550 
	C207.182144,96.025177 203.918655,91.869728 203.941238,85.153000 
	C203.964233,78.311607 207.568741,73.573181 213.225479,72.948082 
	C219.243927,72.283012 222.974594,74.760330 224.558289,81.879150 
	C222.375504,80.425140 220.954315,79.830788 220.022400,78.795853 
	C216.253983,74.610893 210.521667,75.588493 208.571579,80.857536 
	C206.286530,87.031761 208.511581,91.856239 214.939270,93.723221 
z"/>
<path fill="#E8484B" opacity="1.000000" stroke="none" 
	d="
M98.562317,68.017807 
	C98.891167,82.285194 98.896202,96.778534 98.884949,111.756699 
	C98.319267,110.750862 97.308746,109.264915 97.293472,107.768799 
	C97.171913,95.862877 97.209602,83.954811 97.291893,72.048050 
	C97.300667,70.777832 97.908554,69.511749 98.562317,68.017807 
z"/>
<path fill="#E73D40" opacity="1.000000" stroke="none" 
	d="
M9.865251,74.384750 
	C10.324821,78.699821 10.802248,83.393379 10.906934,88.095245 
	C10.998179,92.193474 10.668983,96.301056 10.241131,100.709496 
	C9.878196,92.265274 9.799690,83.516060 9.865251,74.384750 
z"/>
<path fill="#F9F9F9" opacity="1.000000" stroke="none" 
	d="
M289.872833,87.948853 
	C289.872833,85.819641 289.872833,84.172470 289.872833,82.048134 
	C293.982513,82.048134 297.904083,81.829712 301.788055,82.117638 
	C304.863922,82.345657 307.040985,84.591652 306.192688,87.503654 
	C305.589264,89.575035 303.326019,92.136902 301.349915,92.618538 
	C297.918945,93.454758 294.136963,92.850899 290.143890,92.850899 
	C290.047546,91.280273 289.960205,89.855583 289.872833,87.948853 
z"/>
<path fill="#F6F6F6" opacity="1.000000" stroke="none" 
	d="
M291.098145,78.148056 
	C290.285370,74.950470 289.955444,71.792282 289.583344,68.230301 
	C293.570740,68.230301 296.846527,68.112671 300.109802,68.264557 
	C303.156738,68.406372 305.121796,69.928513 305.066681,73.246841 
	C305.012482,76.509941 303.195526,78.032280 300.029358,78.086212 
	C297.213501,78.134186 294.397156,78.154770 291.098145,78.148056 
z"/>
<path fill="#FBFBFB" opacity="1.000000" stroke="none" 
	d="
M271.821808,91.072701 
	C267.509949,92.024521 263.544220,92.782722 259.028259,93.646118 
	C259.028259,84.722664 259.028259,76.714554 259.028259,68.675453 
	C267.114716,67.085312 272.520874,68.509300 274.867401,72.906975 
	C277.561340,77.955765 276.301453,86.343567 271.821808,91.072701 
z"/>
<path fill="#F7F7F7" opacity="1.000000" stroke="none" 
	d="
M170.928345,89.597427 
	C168.821075,92.774757 166.391327,94.385323 162.785614,93.211304 
	C159.040421,91.991867 157.788010,89.041893 157.655106,85.534523 
	C157.517441,81.901901 158.347321,78.567291 162.076859,76.829582 
	C166.033585,74.986015 170.508148,77.213676 171.488800,81.972610 
	C171.961624,84.267052 171.249115,86.805748 170.928345,89.597427 
z"/>
</svg>