<?xml version="1.0" encoding="UTF-8"?>
<svg xmlns="http://www.w3.org/2000/svg" xmlns:xlink="http://www.w3.org/1999/xlink" width="59px" height="20px" viewBox="0 0 20 20" version="1.1">
<g id="surface1">
<path style=" stroke:none;fill-rule:nonzero;fill:rgb(0%,0%,0%);fill-opacity:1;" d="M 9.738281 20.050781 C 6.589844 20.070312 3.453125 20.066406 0.320312 20.074219 C 0.136719 20.074219 0.0625 20.066406 0.0625 19.835938 C 0.0703125 13.324219 0.0703125 6.8125 0.0625 0.304688 C 0.0625 0.0703125 0.140625 0.0664062 0.320312 0.0664062 C 2.253906 0.0703125 4.183594 0.0703125 6.148438 0.0703125 C 6.207031 0.101562 6.226562 0.140625 6.238281 0.210938 C 6.183594 1.046875 6.222656 1.851562 6.21875 2.65625 C 6.21875 2.714844 6.242188 2.769531 6.304688 2.832031 C 7 2.898438 7.671875 2.921875 8.359375 2.8125 C 8.441406 2.632812 8.445312 2.472656 8.375 2.289062 C 8.039062 2.082031 7.683594 2.242188 7.324219 2.164062 C 7.277344 2.148438 7.261719 2.136719 7.226562 2.105469 C 7.207031 2.0625 7.207031 2.042969 7.230469 2.003906 C 7.628906 1.976562 8.003906 1.976562 8.4375 1.984375 C 8.425781 1.984375 8.363281 1.910156 8.378906 1.953125 C 8.007812 2.007812 7.636719 1.972656 7.238281 1.957031 C 7.042969 1.707031 7.082031 1.449219 7.160156 1.160156 C 7.203125 1.097656 7.234375 1.070312 7.296875 1.039062 C 7.671875 0.957031 8.027344 1.085938 8.378906 0.925781 C 8.445312 0.730469 8.417969 0.550781 8.433594 0.347656 C 8.441406 0.285156 8.445312 0.246094 8.460938 0.183594 C 8.484375 0.144531 8.496094 0.128906 8.523438 0.0898438 C 8.59375 0.0703125 8.644531 0.0703125 8.722656 0.0703125 C 8.773438 0.0976562 8.796875 0.125 8.828125 0.179688 C 8.894531 0.441406 8.820312 0.691406 8.929688 0.941406 C 9 1.144531 9.136719 1.257812 9.289062 1.394531 C 9.503906 1.550781 9.734375 1.667969 9.753906 1.972656 C 9.636719 2.144531 9.480469 2.101562 9.335938 2.117188 C 9.195312 2.132812 9.039062 2.066406 8.902344 2.207031 C 8.859375 2.398438 8.855469 2.566406 8.894531 2.757812 C 8.980469 2.929688 9.125 2.882812 9.242188 2.882812 C 9.808594 2.886719 10.375 2.886719 10.9375 2.882812 C 11.082031 2.882812 11.285156 2.9375 11.324219 2.75 C 11.375 2.523438 11.441406 2.261719 11.230469 2.066406 C 11.132812 1.976562 11.03125 1.875 10.871094 1.8125 C 10.835938 1.789062 10.820312 1.777344 10.792969 1.742188 C 10.761719 1.503906 10.542969 1.382812 10.523438 1.144531 C 10.699219 0.824219 10.996094 1.007812 11.238281 0.921875 C 11.253906 0.878906 11.265625 0.851562 11.285156 0.800781 C 11.402344 0.617188 11.339844 0.425781 11.367188 0.226562 C 11.382812 0.167969 11.402344 0.136719 11.441406 0.0898438 C 11.554688 0.0703125 11.652344 0.0703125 11.777344 0.0703125 C 11.828125 0.09375 11.84375 0.121094 11.847656 0.175781 C 11.84375 0.214844 11.839844 0.226562 11.824219 0.265625 C 11.734375 0.460938 11.761719 0.644531 11.796875 0.847656 C 11.824219 0.972656 11.882812 1.054688 11.984375 1.136719 C 12.015625 1.15625 12.027344 1.164062 12.058594 1.1875 C 12.230469 1.359375 12.320312 1.574219 12.53125 1.710938 C 12.660156 1.769531 12.78125 1.804688 12.738281 1.988281 C 12.59375 2.160156 12.414062 2.097656 12.25 2.117188 C 12.101562 2.132812 11.929688 2.0625 11.796875 2.226562 C 11.800781 2.464844 11.648438 2.710938 11.941406 2.875 C 12.703125 2.867188 13.4375 2.925781 14.1875 2.828125 C 14.40625 2.367188 14.128906 2.066406 13.867188 1.742188 C 13.796875 1.472656 13.484375 1.425781 13.421875 1.15625 C 13.421875 1.09375 13.433594 1.0625 13.472656 1.011719 C 13.679688 0.902344 13.878906 0.953125 14.097656 0.941406 C 14.183594 0.941406 14.25 0.949219 14.265625 0.84375 C 14.265625 0.648438 14.257812 0.480469 14.273438 0.285156 C 14.28125 0.242188 14.285156 0.222656 14.296875 0.179688 C 14.320312 0.140625 14.328125 0.125 14.355469 0.0898438 C 16.203125 0.0703125 18.027344 0.0703125 19.855469 0.0664062 C 20.019531 0.0664062 20.074219 0.0859375 20.074219 0.273438 C 20.070312 6.804688 20.066406 13.339844 20.078125 19.875 C 20.078125 20.125 19.945312 20.070312 19.8125 20.070312 C 16.796875 20.070312 13.777344 20.070312 10.726562 20.070312 C 10.625 19.972656 10.683594 19.90625 10.765625 19.882812 C 11 19.820312 11.214844 19.699219 11.449219 19.640625 C 12.859375 19.285156 14.257812 18.882812 15.667969 18.523438 C 15.886719 18.46875 16.011719 18.34375 16.019531 18.113281 C 16.035156 17.582031 16.089844 17.050781 16.140625 16.527344 C 16.210938 15.839844 16.265625 15.148438 16.324219 14.460938 C 16.40625 13.53125 16.570312 12.605469 16.582031 11.671875 C 16.585938 11.449219 16.632812 11.234375 16.660156 11.015625 C 16.765625 10.203125 16.777344 9.382812 16.910156 8.546875 C 16.914062 8.433594 16.914062 8.347656 16.914062 8.238281 C 16.996094 7.363281 17.066406 6.511719 17.15625 5.664062 C 17.199219 5.238281 17.171875 4.808594 17.261719 4.386719 C 17.277344 4.304688 17.253906 4.226562 17.183594 4.136719 C 17.046875 4.046875 16.917969 4.0625 16.792969 4.0625 C 12.421875 4.0625 8.050781 4.0625 3.683594 4.0625 C 3.578125 4.0625 3.472656 4.054688 3.351562 4.101562 C 3.199219 4.304688 3.277344 4.5 3.304688 4.691406 C 3.429688 5.582031 3.476562 6.480469 3.539062 7.378906 C 3.554688 7.609375 3.570312 7.839844 3.621094 8.066406 C 3.804688 8.867188 3.796875 9.695312 3.863281 10.507812 C 4.027344 12.390625 4.171875 14.277344 4.335938 16.160156 C 4.394531 16.816406 4.40625 17.476562 4.519531 18.128906 C 4.558594 18.355469 4.652344 18.476562 4.878906 18.523438 C 5.929688 18.742188 6.953125 19.082031 7.992188 19.347656 C 8.503906 19.476562 8.996094 19.683594 9.523438 19.777344 C 9.652344 19.800781 9.769531 19.859375 9.738281 20.050781 Z M 9.738281 20.050781 "/>
<path style=" stroke:none;fill-rule:nonzero;fill:rgb(9.019608%,45.098039%,71.764706%);fill-opacity:1;" d="M 17.324219 4.085938 C 17.484375 4.382812 17.300781 4.636719 17.292969 4.90625 C 17.273438 5.511719 17.199219 6.113281 17.136719 6.714844 C 17.085938 7.183594 17.023438 7.667969 17.007812 8.167969 C 16.929688 8.289062 16.929688 8.390625 16.988281 8.515625 C 17.019531 8.9375 16.910156 9.332031 16.878906 9.730469 C 16.84375 10.214844 16.824219 10.699219 16.761719 11.179688 C 16.679688 11.804688 16.726562 12.445312 16.5625 13.0625 C 16.457031 13.449219 16.554688 13.84375 16.46875 14.238281 C 16.320312 14.957031 16.425781 15.707031 16.242188 16.429688 C 16.160156 16.738281 16.289062 17.046875 16.199219 17.371094 C 16.109375 17.6875 16.152344 18.039062 16.097656 18.371094 C 16.074219 18.515625 15.914062 18.578125 15.765625 18.617188 C 15.027344 18.796875 14.273438 18.9375 13.558594 19.183594 C 12.9375 19.398438 12.289062 19.496094 11.667969 19.71875 C 11.34375 19.832031 11 19.945312 10.675781 20.054688 C 10.390625 20.070312 10.089844 20.070312 9.753906 20.070312 C 9.648438 19.703125 9.3125 19.875 9.117188 19.816406 C 8.808594 19.730469 8.5 19.644531 8.214844 19.511719 C 7.957031 19.394531 7.679688 19.386719 7.414062 19.300781 C 7 19.160156 6.566406 19.058594 6.144531 18.929688 C 5.703125 18.792969 5.230469 18.703125 4.769531 18.621094 C 4.523438 18.574219 4.464844 18.464844 4.417969 18.222656 C 4.296875 17.59375 4.347656 16.953125 4.238281 16.324219 C 4.171875 15.964844 4.195312 15.585938 4.160156 15.21875 C 4.109375 14.675781 4.03125 14.136719 3.988281 13.597656 C 3.941406 13 3.980469 12.386719 3.875 11.800781 C 3.734375 11.023438 3.710938 10.234375 3.640625 9.457031 C 3.582031 8.765625 3.40625 8.082031 3.421875 7.394531 C 3.433594 6.878906 3.339844 6.375 3.339844 5.859375 C 3.335938 5.304688 3.238281 4.71875 3.128906 4.132812 C 3.238281 4.003906 3.371094 4.027344 3.496094 4.027344 C 7.992188 4.027344 12.492188 4.027344 16.988281 4.027344 C 17.09375 4.027344 17.199219 4.019531 17.324219 4.085938 Z M 17.324219 4.085938 "/>
<path style=" stroke:none;fill-rule:nonzero;fill:rgb(21.176471%,21.176471%,21.176471%);fill-opacity:1;" d="M 8.519531 0.117188 C 8.535156 0.167969 8.535156 0.195312 8.535156 0.246094 C 8.449219 0.359375 8.34375 0.398438 8.222656 0.402344 C 7.601562 0.402344 6.976562 0.445312 6.324219 0.363281 C 6.25 0.328125 6.21875 0.296875 6.183594 0.226562 C 6.175781 0.164062 6.175781 0.136719 6.179688 0.0898438 C 6.921875 0.0703125 7.664062 0.0703125 8.441406 0.0703125 C 8.484375 0.078125 8.496094 0.0898438 8.519531 0.117188 Z M 8.519531 0.117188 "/>
<path style=" stroke:none;fill-rule:nonzero;fill:rgb(25.098039%,25.098039%,25.098039%);fill-opacity:1;" d="M 11.425781 0.0703125 C 11.457031 0.101562 11.457031 0.136719 11.445312 0.195312 C 11.40625 0.253906 11.371094 0.277344 11.292969 0.300781 C 10.527344 0.375 9.796875 0.335938 9.0625 0.332031 C 8.96875 0.332031 8.878906 0.304688 8.777344 0.226562 C 8.753906 0.171875 8.753906 0.144531 8.75 0.0898438 C 9.632812 0.0703125 10.511719 0.0703125 11.425781 0.0703125 Z M 11.425781 0.0703125 "/>
<path style=" stroke:none;fill-rule:nonzero;fill:rgb(24.705882%,24.705882%,24.705882%);fill-opacity:1;" d="M 14.351562 0.121094 C 14.367188 0.140625 14.371094 0.171875 14.371094 0.1875 C 14.277344 0.300781 14.15625 0.332031 14.027344 0.332031 C 13.363281 0.335938 12.695312 0.367188 12 0.304688 C 11.949219 0.285156 11.929688 0.273438 11.886719 0.242188 C 11.847656 0.175781 11.855469 0.136719 11.917969 0.0859375 C 12.710938 0.0703125 13.476562 0.0703125 14.273438 0.0703125 C 14.316406 0.078125 14.328125 0.0898438 14.351562 0.121094 Z M 14.351562 0.121094 "/>
<path style=" stroke:none;fill-rule:nonzero;fill:rgb(32.54902%,32.54902%,32.54902%);fill-opacity:1;" d="M 11.867188 0.0898438 C 11.886719 0.128906 11.886719 0.144531 11.878906 0.183594 C 11.863281 0.214844 11.851562 0.222656 11.820312 0.214844 C 11.796875 0.175781 11.789062 0.144531 11.796875 0.0898438 C 11.804688 0.0703125 11.839844 0.0703125 11.867188 0.0898438 Z M 11.867188 0.0898438 "/>
<path style=" stroke:none;fill-rule:nonzero;fill:rgb(0%,0%,0%);fill-opacity:1;" d="M 11.902344 0.105469 C 11.890625 0.113281 11.886719 0.0898438 11.878906 0.078125 C 11.875 0.0703125 11.910156 0.0703125 11.925781 0.0703125 C 11.933594 0.0820312 11.921875 0.0898438 11.902344 0.105469 Z M 11.902344 0.105469 "/>
<path style=" stroke:none;fill-rule:nonzero;fill:rgb(18.823529%,18.823529%,18.823529%);fill-opacity:1;" d="M 14.367188 0.121094 C 14.347656 0.128906 14.332031 0.117188 14.3125 0.0820312 C 14.304688 0.0703125 14.339844 0.0703125 14.359375 0.0703125 C 14.375 0.0820312 14.375 0.09375 14.367188 0.121094 Z M 14.367188 0.121094 "/>
<path style=" stroke:none;fill-rule:nonzero;fill:rgb(18.823529%,18.823529%,18.823529%);fill-opacity:1;" d="M 8.539062 0.121094 C 8.515625 0.128906 8.5 0.117188 8.480469 0.0820312 C 8.472656 0.0703125 8.507812 0.0703125 8.523438 0.0703125 C 8.542969 0.0703125 8.539062 0.105469 8.539062 0.121094 Z M 8.539062 0.121094 "/>
<path style=" stroke:none;fill-rule:nonzero;fill:rgb(9.411765%,9.411765%,9.411765%);fill-opacity:1;" d="M 11.804688 0.207031 C 11.8125 0.207031 11.828125 0.210938 11.855469 0.210938 C 12.6875 0.210938 13.496094 0.207031 14.339844 0.207031 C 14.367188 0.425781 14.367188 0.644531 14.359375 0.898438 C 14.316406 0.964844 14.273438 0.996094 14.195312 1.003906 C 13.945312 1.007812 13.722656 1.003906 13.5 1.007812 C 13.460938 1.007812 13.417969 1 13.378906 1.003906 C 13.410156 1.011719 13.445312 1.015625 13.472656 1.054688 C 13.484375 1.097656 13.488281 1.117188 13.476562 1.152344 C 13.515625 1.40625 13.703125 1.515625 13.894531 1.65625 C 14.28125 1.953125 14.453125 2.320312 14.371094 2.820312 C 14.273438 2.929688 14.152344 2.914062 14.039062 2.914062 C 13.347656 2.914062 12.652344 2.921875 11.929688 2.910156 C 11.621094 2.785156 11.78125 2.539062 11.738281 2.324219 C 11.746094 2.132812 11.847656 2.082031 11.996094 2.082031 C 12.179688 2.085938 12.363281 2.085938 12.550781 2.082031 C 12.621094 2.078125 12.722656 2.117188 12.722656 1.96875 C 12.71875 1.800781 12.5625 1.890625 12.507812 1.800781 C 12.398438 1.574219 12.234375 1.414062 12.0625 1.242188 C 12.019531 1.238281 12.003906 1.238281 11.960938 1.238281 C 11.925781 1.085938 11.808594 0.984375 11.75 0.828125 C 11.742188 0.621094 11.707031 0.433594 11.789062 0.230469 C 11.804688 0.207031 11.804688 0.207031 11.804688 0.207031 Z M 11.804688 0.207031 "/>
<path style=" stroke:none;fill-rule:nonzero;fill:rgb(8.627451%,8.627451%,8.627451%);fill-opacity:1;" d="M 8.753906 0.234375 C 9.582031 0.207031 10.410156 0.207031 11.269531 0.210938 C 11.449219 0.398438 11.390625 0.605469 11.335938 0.839844 C 11.335938 0.882812 11.34375 0.898438 11.332031 0.925781 C 11.226562 1.101562 11.078125 0.980469 10.953125 1 C 10.820312 1.023438 10.683594 0.996094 10.523438 1.046875 C 10.324219 1.242188 10.5625 1.304688 10.628906 1.359375 C 10.730469 1.441406 10.8125 1.507812 10.824219 1.667969 C 10.839844 1.6875 10.839844 1.703125 10.835938 1.710938 C 10.957031 1.816406 11.078125 1.925781 11.210938 2.011719 C 11.332031 2.085938 11.378906 2.183594 11.390625 2.324219 C 11.429688 2.878906 11.402344 2.921875 10.847656 2.914062 C 10.167969 2.90625 9.488281 2.953125 8.78125 2.871094 C 8.753906 2.640625 8.75 2.425781 8.75 2.183594 C 8.984375 2.011719 9.238281 2.121094 9.476562 2.082031 C 9.570312 2.066406 9.714844 2.164062 9.738281 1.964844 C 9.613281 1.753906 9.441406 1.621094 9.246094 1.480469 C 9.214844 1.261719 9.050781 1.183594 8.90625 1.058594 C 8.613281 0.824219 8.808594 0.523438 8.753906 0.234375 Z M 8.753906 0.234375 "/>
<path style=" stroke:none;fill-rule:nonzero;fill:rgb(7.843137%,7.843137%,7.843137%);fill-opacity:1;" d="M 6.246094 0.304688 C 7.003906 0.277344 7.738281 0.273438 8.5 0.269531 C 8.535156 0.484375 8.535156 0.703125 8.535156 0.953125 C 8.210938 1.097656 7.878906 1.015625 7.523438 1.042969 C 7.464844 1.042969 7.433594 1.042969 7.378906 1.042969 C 7.328125 1.042969 7.300781 1.046875 7.257812 1.066406 C 7.238281 1.085938 7.234375 1.097656 7.226562 1.128906 C 7.296875 1.382812 7.257812 1.621094 7.242188 1.882812 C 7.230469 1.921875 7.230469 1.9375 7.222656 1.96875 C 7.199219 2.007812 7.195312 2.03125 7.222656 2.074219 C 7.238281 2.085938 7.257812 2.082031 7.269531 2.082031 C 7.679688 2.167969 8.082031 2.089844 8.507812 2.136719 C 8.539062 2.359375 8.539062 2.574219 8.539062 2.816406 C 8.472656 2.90625 8.394531 2.914062 8.3125 2.914062 C 7.640625 2.90625 6.96875 2.9375 6.265625 2.882812 C 6.148438 2.726562 6.179688 2.574219 6.183594 2.425781 C 6.199219 1.726562 6.136719 1.027344 6.246094 0.304688 Z M 6.246094 0.304688 "/>
<path style=" stroke:none;fill-rule:nonzero;fill:rgb(65.882353%,79.607843%,89.803922%);fill-opacity:1;" d="M 17.347656 4.078125 C 12.632812 4.109375 7.917969 4.109375 3.167969 4.109375 C 3.125 4.035156 3.117188 3.960938 3.222656 3.960938 C 3.300781 3.957031 3.382812 3.957031 3.464844 3.957031 C 7.964844 3.957031 12.464844 3.957031 16.964844 3.960938 C 17.097656 3.960938 17.246094 3.90625 17.347656 4.078125 Z M 17.347656 4.078125 "/>
<path style=" stroke:none;fill-rule:nonzero;fill:rgb(24.313725%,24.313725%,24.313725%);fill-opacity:1;" d="M 8.757812 2.878906 C 9.480469 2.851562 10.207031 2.851562 10.933594 2.84375 C 11.058594 2.839844 11.257812 2.921875 11.292969 2.742188 C 11.332031 2.53125 11.414062 2.277344 11.195312 2.097656 C 11.070312 1.996094 10.949219 1.890625 10.839844 1.738281 C 11.363281 1.882812 11.605469 2.3125 11.453125 2.820312 C 11.421875 2.925781 11.355469 2.980469 11.253906 2.980469 C 10.449219 2.976562 9.644531 2.976562 8.835938 2.96875 C 8.8125 2.96875 8.789062 2.929688 8.757812 2.878906 Z M 8.757812 2.878906 "/>
<path style=" stroke:none;fill-rule:nonzero;fill:rgb(60.392157%,60.392157%,60.392157%);fill-opacity:1;" d="M 6.261719 0.261719 C 6.269531 1.113281 6.265625 1.945312 6.269531 2.808594 C 6.292969 2.871094 6.292969 2.90625 6.265625 2.960938 C 6.101562 3 6.113281 2.90625 6.113281 2.808594 C 6.117188 1.949219 6.125 1.089844 6.152344 0.210938 C 6.199219 0.207031 6.222656 0.226562 6.261719 0.261719 Z M 6.261719 0.261719 "/>
<path style=" stroke:none;fill-rule:nonzero;fill:rgb(23.137255%,23.137255%,23.137255%);fill-opacity:1;" d="M 11.859375 2.867188 C 12.683594 2.847656 13.496094 2.847656 14.339844 2.847656 C 14.347656 3.027344 14.207031 2.980469 14.105469 2.980469 C 13.378906 2.984375 12.65625 2.980469 11.902344 2.972656 C 11.847656 2.945312 11.839844 2.914062 11.859375 2.867188 Z M 11.859375 2.867188 "/>
<path style=" stroke:none;fill-rule:nonzero;fill:rgb(23.137255%,23.137255%,23.137255%);fill-opacity:1;" d="M 6.28125 2.984375 C 6.253906 2.953125 6.261719 2.917969 6.273438 2.863281 C 7.007812 2.839844 7.742188 2.84375 8.507812 2.847656 C 8.507812 3.046875 8.347656 2.980469 8.238281 2.980469 C 7.597656 2.988281 6.953125 2.984375 6.28125 2.984375 Z M 6.28125 2.984375 "/>
<path style=" stroke:none;fill-rule:nonzero;fill:rgb(33.72549%,33.72549%,33.72549%);fill-opacity:1;" d="M 12.691406 1.972656 C 12.847656 1.929688 12.875 2.035156 12.949219 2.1875 C 12.558594 2.1875 12.207031 2.1875 11.832031 2.203125 C 11.785156 2.246094 11.753906 2.257812 11.695312 2.238281 C 11.660156 2.011719 11.804688 2.015625 11.949219 2.015625 C 12.191406 2.011719 12.433594 2 12.691406 1.972656 Z M 12.691406 1.972656 "/>
<path style=" stroke:none;fill-rule:nonzero;fill:rgb(32.54902%,32.54902%,32.54902%);fill-opacity:1;" d="M 9.707031 1.972656 C 9.902344 1.855469 9.890625 2.039062 10.023438 2.15625 C 9.578125 2.15625 9.199219 2.15625 8.785156 2.152344 C 8.765625 1.96875 8.90625 2.023438 9.007812 2.015625 C 9.234375 2.003906 9.460938 2 9.707031 1.972656 Z M 9.707031 1.972656 "/>
<path style=" stroke:none;fill-rule:nonzero;fill:rgb(69.019608%,69.019608%,69.019608%);fill-opacity:1;" d="M 7.351562 1.011719 C 7.734375 0.992188 8.101562 0.988281 8.503906 0.984375 C 8.550781 1.140625 8.441406 1.109375 8.355469 1.109375 C 8.046875 1.113281 7.734375 1.109375 7.394531 1.105469 C 7.335938 1.082031 7.328125 1.058594 7.351562 1.011719 Z M 7.351562 1.011719 "/>
<path style=" stroke:none;fill-rule:nonzero;fill:rgb(33.72549%,33.72549%,33.72549%);fill-opacity:1;" d="M 10.835938 1.660156 C 10.742188 1.429688 10.4375 1.382812 10.308594 1.160156 C 10.269531 1.089844 10.09375 1 10.335938 0.957031 C 10.390625 1.019531 10.460938 1.003906 10.519531 1.058594 C 10.609375 1.273438 10.824219 1.398438 10.835938 1.660156 Z M 10.835938 1.660156 "/>
<path style=" stroke:none;fill-rule:nonzero;fill:rgb(34.901961%,34.901961%,34.901961%);fill-opacity:1;" d="M 12.054688 1.253906 C 12.332031 1.285156 12.464844 1.476562 12.507812 1.765625 C 12.296875 1.664062 12.121094 1.519531 12.054688 1.253906 Z M 12.054688 1.253906 "/>
<path style=" stroke:none;fill-rule:nonzero;fill:rgb(32.941176%,32.941176%,32.941176%);fill-opacity:1;" d="M 11.671875 2.253906 C 11.707031 2.222656 11.734375 2.222656 11.789062 2.222656 C 11.820312 2.417969 11.828125 2.613281 11.855469 2.828125 C 11.871094 2.875 11.871094 2.902344 11.871094 2.949219 C 11.691406 2.976562 11.667969 2.863281 11.667969 2.726562 C 11.671875 2.578125 11.667969 2.429688 11.671875 2.253906 Z M 11.671875 2.253906 "/>
<path style=" stroke:none;fill-rule:nonzero;fill:rgb(93.72549%,93.72549%,93.72549%);fill-opacity:1;" d="M 10.5625 1.074219 C 10.46875 1.070312 10.394531 1.085938 10.351562 0.992188 C 10.652344 0.96875 10.957031 0.960938 11.292969 0.945312 C 11.390625 0.90625 11.445312 0.9375 11.449219 1 C 11.460938 1.089844 11.394531 1.101562 11.3125 1.097656 C 11.074219 1.082031 10.832031 1.078125 10.5625 1.074219 Z M 10.5625 1.074219 "/>
<path style=" stroke:none;fill-rule:nonzero;fill:rgb(32.54902%,32.54902%,32.54902%);fill-opacity:1;" d="M 11.773438 0.207031 C 11.808594 0.417969 11.8125 0.625 11.820312 0.867188 C 11.808594 0.910156 11.792969 0.921875 11.75 0.921875 C 11.648438 0.675781 11.609375 0.4375 11.773438 0.207031 Z M 11.773438 0.207031 "/>
<path style=" stroke:none;fill-rule:nonzero;fill:rgb(50.196078%,50.196078%,50.196078%);fill-opacity:1;" d="M 8.886719 1.066406 C 9.125 1.0625 9.265625 1.175781 9.253906 1.441406 C 9.105469 1.347656 8.945312 1.269531 8.886719 1.066406 Z M 8.886719 1.066406 "/>
<path style=" stroke:none;fill-rule:nonzero;fill:rgb(52.156863%,52.156863%,52.156863%);fill-opacity:1;" d="M 13.902344 1.648438 C 13.625 1.648438 13.496094 1.464844 13.460938 1.1875 C 13.566406 1.367188 13.839844 1.394531 13.902344 1.648438 Z M 13.902344 1.648438 "/>
<path style=" stroke:none;fill-rule:nonzero;fill:rgb(59.607843%,59.607843%,59.607843%);fill-opacity:1;" d="M 7.21875 1.914062 C 7.648438 1.910156 8.070312 1.910156 8.492188 1.910156 C 8.492188 1.945312 8.492188 1.980469 8.492188 2.019531 C 8.09375 2.019531 7.691406 2.019531 7.261719 2.023438 C 7.21875 2.011719 7.203125 2 7.203125 1.960938 C 7.214844 1.9375 7.210938 1.917969 7.21875 1.914062 Z M 7.21875 1.914062 "/>
<path style=" stroke:none;fill-rule:nonzero;fill:rgb(29.803922%,29.803922%,29.803922%);fill-opacity:1;" d="M 8.519531 2.125 C 8.132812 2.140625 7.726562 2.183594 7.304688 2.101562 C 7.6875 2.085938 8.09375 2.09375 8.519531 2.125 Z M 8.519531 2.125 "/>
<path style=" stroke:none;fill-rule:nonzero;fill:rgb(47.058824%,47.058824%,47.058824%);fill-opacity:1;" d="M 11.351562 0.875 C 11.316406 0.671875 11.3125 0.472656 11.304688 0.242188 C 11.332031 0.210938 11.363281 0.214844 11.417969 0.21875 C 11.417969 0.4375 11.5 0.664062 11.351562 0.875 Z M 11.351562 0.875 "/>
<path style=" stroke:none;fill-rule:nonzero;fill:rgb(100%,100%,100%);fill-opacity:1;" d="M 13.503906 1.074219 C 13.390625 1.058594 13.304688 1.042969 13.222656 1.023438 C 13.222656 1.003906 13.222656 0.984375 13.222656 0.964844 C 13.539062 0.964844 13.855469 0.964844 14.203125 0.976562 C 14.242188 0.996094 14.246094 1.007812 14.246094 1.03125 C 14.003906 1.054688 13.769531 1.0625 13.503906 1.074219 Z M 13.503906 1.074219 "/>
<path style=" stroke:none;fill-rule:nonzero;fill:rgb(24.705882%,24.705882%,24.705882%);fill-opacity:1;" d="M 11.722656 0.9375 C 11.738281 0.910156 11.753906 0.910156 11.796875 0.902344 C 11.980469 0.949219 11.996094 1.058594 11.9375 1.21875 C 11.878906 1.136719 11.71875 1.109375 11.722656 0.9375 Z M 11.722656 0.9375 "/>
<path style=" stroke:none;fill-rule:nonzero;fill:rgb(40%,63.921569%,81.176471%);fill-opacity:1;" d="M 17.007812 8.503906 C 16.804688 8.449219 16.832031 8.332031 16.980469 8.199219 C 17.007812 8.289062 17.007812 8.382812 17.007812 8.503906 Z M 17.007812 8.503906 "/>
<path style=" stroke:none;fill-rule:nonzero;fill:rgb(52.156863%,52.156863%,52.156863%);fill-opacity:1;" d="M 14.246094 1.070312 C 14.238281 1.046875 14.226562 1.015625 14.230469 1 C 14.261719 0.96875 14.292969 0.953125 14.339844 0.933594 C 14.351562 1.003906 14.414062 1.121094 14.246094 1.070312 Z M 14.246094 1.070312 "/>
<path style=" stroke:none;fill-rule:nonzero;fill:rgb(59.607843%,59.607843%,59.607843%);fill-opacity:1;" d="M 7.339844 0.992188 C 7.367188 1.023438 7.367188 1.042969 7.363281 1.085938 C 7.335938 1.125 7.304688 1.144531 7.253906 1.15625 C 7.226562 1.148438 7.210938 1.140625 7.210938 1.132812 C 7.199219 1.09375 7.191406 1.066406 7.203125 1.015625 C 7.25 0.992188 7.28125 0.988281 7.339844 0.992188 Z M 7.339844 0.992188 "/>
<path style=" stroke:none;fill-rule:nonzero;fill:rgb(75.686275%,75.686275%,75.686275%);fill-opacity:1;" d="M 7.1875 1.941406 C 7.214844 1.953125 7.21875 1.96875 7.226562 2.003906 C 7.230469 2.027344 7.226562 2.058594 7.230469 2.070312 C 7.105469 2.09375 7.15625 2.007812 7.1875 1.941406 Z M 7.1875 1.941406 "/>
<path style=" stroke:none;fill-rule:nonzero;fill:rgb(20.392157%,66.27451%,86.27451%);fill-opacity:1;" d="M 10.324219 6.910156 C 10.277344 6.429688 10.285156 5.992188 10.273438 5.550781 C 10.269531 5.339844 10.351562 5.273438 10.558594 5.273438 C 12.269531 5.277344 13.980469 5.28125 15.695312 5.273438 C 15.941406 5.269531 15.992188 5.378906 15.972656 5.589844 C 15.894531 6.4375 15.824219 7.285156 15.746094 8.136719 C 15.6875 8.765625 15.617188 9.394531 15.558594 10.027344 C 15.441406 11.277344 15.332031 12.527344 15.222656 13.777344 C 15.144531 14.671875 15.074219 15.566406 15 16.460938 C 14.976562 16.738281 14.945312 17.011719 14.925781 17.289062 C 14.914062 17.496094 14.746094 17.511719 14.609375 17.550781 C 13.433594 17.882812 12.253906 18.207031 11.074219 18.535156 C 11.050781 18.542969 11.027344 18.542969 11.003906 18.546875 C 10.277344 18.738281 10.277344 18.738281 10.277344 17.96875 C 10.277344 17.609375 10.277344 17.25 10.277344 16.863281 C 10.285156 16.8125 10.292969 16.792969 10.320312 16.75 C 10.640625 16.535156 10.992188 16.496094 11.320312 16.402344 C 12.011719 16.207031 12.703125 16.015625 13.394531 15.832031 C 13.640625 15.765625 13.753906 15.644531 13.777344 15.382812 C 13.898438 14.140625 14 12.898438 14.113281 11.65625 C 14.238281 10.265625 14.367188 8.875 14.484375 7.484375 C 14.527344 7.015625 14.527344 7.003906 14.039062 7 C 12.976562 7 11.914062 7 10.847656 7 C 10.6875 7 10.523438 7.011719 10.324219 6.910156 Z M 10.324219 6.910156 "/>
<path style=" stroke:none;fill-rule:nonzero;fill:rgb(90.588235%,91.372549%,91.764706%);fill-opacity:1;" d="M 10.277344 16.820312 C 9.179688 16.523438 8.078125 16.207031 6.976562 15.914062 C 6.742188 15.851562 6.667969 15.746094 6.652344 15.511719 C 6.609375 14.832031 6.542969 14.15625 6.464844 13.476562 C 6.433594 13.179688 6.480469 13.03125 6.832031 13.0625 C 7.195312 13.09375 7.570312 13.078125 7.9375 13.066406 C 8.125 13.0625 8.210938 13.113281 8.21875 13.3125 C 8.234375 13.613281 8.285156 13.910156 8.296875 14.207031 C 8.308594 14.398438 8.375 14.492188 8.570312 14.539062 C 9.117188 14.671875 9.664062 14.828125 10.238281 14.972656 C 10.285156 14.984375 10.300781 15 10.335938 15.039062 C 10.421875 15.628906 10.476562 16.1875 10.296875 16.765625 C 10.277344 16.792969 10.277344 16.8125 10.277344 16.820312 Z M 10.277344 16.820312 "/>
<path style=" stroke:none;fill-rule:nonzero;fill:rgb(88.235294%,90.588235%,91.764706%);fill-opacity:1;" d="M 10.316406 8.628906 C 8.996094 8.671875 7.714844 8.652344 6.433594 8.667969 C 6.121094 8.667969 6.007812 8.582031 6 8.273438 C 5.992188 7.925781 5.957031 7.582031 5.90625 7.238281 C 5.867188 6.96875 5.949219 6.882812 6.230469 6.882812 C 7.558594 6.898438 8.886719 6.886719 10.246094 6.878906 C 10.277344 6.871094 10.277344 6.894531 10.277344 6.90625 C 10.355469 6.976562 10.386719 7.0625 10.390625 7.152344 C 10.402344 7.628906 10.449219 8.105469 10.316406 8.628906 Z M 10.316406 8.628906 "/>
<path style=" stroke:none;fill-rule:nonzero;fill:rgb(20.784314%,66.666667%,86.27451%);fill-opacity:1;" d="M 10.304688 15.023438 C 10.277344 15.007812 10.269531 14.988281 10.269531 14.980469 C 10.269531 14.078125 10.273438 13.183594 10.296875 12.234375 C 10.570312 12.042969 10.839844 12.105469 11.101562 12.097656 C 11.449219 12.089844 11.796875 12.085938 12.144531 12.105469 C 12.410156 12.117188 12.550781 12.253906 12.53125 12.527344 C 12.488281 13.054688 12.4375 13.585938 12.394531 14.113281 C 12.378906 14.316406 12.304688 14.519531 12.101562 14.59375 C 11.53125 14.808594 10.949219 15.003906 10.304688 15.023438 Z M 10.304688 15.023438 "/>
<path style=" stroke:none;fill-rule:nonzero;fill:rgb(20.392157%,66.27451%,86.27451%);fill-opacity:1;" d="M 10.332031 10.460938 C 10.277344 9.859375 10.277344 9.300781 10.277344 8.710938 C 10.277344 8.679688 10.277344 8.652344 10.273438 8.640625 C 10.378906 8.574219 10.492188 8.546875 10.609375 8.546875 C 11.183594 8.546875 11.761719 8.53125 12.339844 8.554688 C 12.71875 8.566406 12.828125 8.683594 12.835938 9.066406 C 12.847656 9.421875 12.773438 9.777344 12.753906 10.132812 C 12.738281 10.371094 12.589844 10.523438 12.351562 10.53125 C 11.695312 10.554688 11.039062 10.601562 10.332031 10.460938 Z M 10.332031 10.460938 "/>
<path style=" stroke:none;fill-rule:nonzero;fill:rgb(87.45098%,90.196078%,91.764706%);fill-opacity:1;" d="M 10.277344 12.214844 C 9.722656 12.21875 9.167969 12.203125 8.613281 12.210938 C 8.410156 12.214844 8.328125 12.15625 8.316406 11.941406 C 8.296875 11.539062 8.253906 11.136719 8.203125 10.734375 C 8.171875 10.507812 8.246094 10.429688 8.480469 10.433594 C 9.054688 10.445312 9.636719 10.433594 10.246094 10.425781 C 10.277344 10.417969 10.277344 10.441406 10.277344 10.457031 C 10.320312 10.503906 10.363281 10.550781 10.367188 10.609375 C 10.410156 11.121094 10.476562 11.632812 10.300781 12.15625 C 10.273438 12.179688 10.277344 12.203125 10.277344 12.214844 Z M 10.277344 12.214844 "/>
<path style=" stroke:none;fill-rule:nonzero;fill:rgb(75.686275%,75.686275%,75.686275%);fill-opacity:1;" d="M 7.195312 1.003906 C 7.214844 1.027344 7.21875 1.054688 7.214844 1.101562 C 7.105469 1.117188 7.171875 1.050781 7.195312 1.003906 Z M 7.195312 1.003906 "/>
<path style=" stroke:none;fill-rule:nonzero;fill:rgb(99.215686%,99.607843%,100%);fill-opacity:1;" d="M 10.308594 12.1875 C 10.277344 11.628906 10.277344 11.078125 10.277344 10.5 C 10.933594 10.402344 11.589844 10.445312 12.25 10.445312 C 12.511719 10.445312 12.621094 10.375 12.628906 10.105469 C 12.640625 9.734375 12.671875 9.363281 12.722656 9 C 12.761719 8.710938 12.652344 8.648438 12.382812 8.652344 C 11.703125 8.664062 11.019531 8.652344 10.304688 8.636719 C 10.277344 8.074219 10.277344 7.527344 10.277344 6.945312 C 11.476562 6.910156 12.675781 6.898438 13.875 6.890625 C 14.65625 6.886719 14.660156 6.890625 14.59375 7.65625 C 14.359375 10.289062 14.121094 12.921875 13.894531 15.554688 C 13.878906 15.769531 13.792969 15.851562 13.601562 15.902344 C 12.507812 16.195312 11.417969 16.5 10.300781 16.796875 C 10.277344 16.21875 10.277344 15.644531 10.277344 15.039062 C 10.84375 14.851562 11.410156 14.6875 11.976562 14.542969 C 12.167969 14.496094 12.246094 14.402344 12.257812 14.214844 C 12.304688 13.628906 12.359375 13.042969 12.417969 12.460938 C 12.441406 12.253906 12.363281 12.199219 12.171875 12.203125 C 11.558594 12.207031 10.949219 12.199219 10.308594 12.1875 Z M 10.308594 12.1875 "/>
</g>
</svg>
