<svg version="1.1" id="Layer_1" xmlns="http://www.w3.org/2000/svg" xmlns:xlink="http://www.w3.org/1999/xlink" x="0px" y="0px"
	 width="100%" viewBox="0 0 288 288" enable-background="new 0 0 288 288" xml:space="preserve">
<path fill="#000000" opacity="1.000000" stroke="none" 
	d="
M140.220184,288.704987 
	C94.871719,289.000000 49.743401,288.978668 4.615244,289.054047 
	C1.962865,289.058502 0.889145,288.936646 0.893813,285.620941 
	C1.025790,191.867538 1.027048,98.113884 0.890333,4.360493 
	C0.885420,0.991389 2.031532,0.942426 4.633862,0.949958 
	C32.443287,1.030450 60.253029,1.000000 88.531342,1.000000 
	C89.374107,1.472714 89.643791,1.998883 89.834953,3.021700 
	C89.035912,15.057583 89.609718,26.663544 89.555412,38.263622 
	C89.551483,39.102657 89.895218,39.877205 90.802353,40.759727 
	C100.819359,41.763618 110.494751,42.098881 120.371017,40.519047 
	C121.534554,37.924923 121.593910,35.604942 120.575607,32.984985 
	C115.737465,30.006262 110.642929,32.277985 105.465317,31.177299 
	C104.816994,30.921755 104.572151,30.778803 104.050110,30.308311 
	C103.778679,29.693441 103.784447,29.406111 104.128922,28.850880 
	C109.861420,28.439823 115.254974,28.487560 121.505676,28.571903 
	C121.314659,28.578905 120.414017,27.483398 120.646736,28.108128 
	C115.325470,28.904388 109.981071,28.384680 104.232422,28.198690 
	C101.408989,24.559206 102.009354,20.857620 103.122139,16.717014 
	C103.712227,15.816290 104.163635,15.419003 105.100914,14.959625 
	C110.450005,13.788445 115.617790,15.658319 120.645416,13.314978 
	C121.595535,10.494856 121.218330,7.920219 121.465759,5.000775 
	C121.564545,4.080364 121.629738,3.553053 121.864380,2.652251 
	C122.166656,2.056393 122.322723,1.836891 122.739395,1.308695 
	C123.750000,1.000000 124.500000,1.000000 125.625000,1.000000 
	C126.342491,1.394407 126.661369,1.807054 127.101990,2.595786 
	C128.055939,6.340168 127.003860,9.938863 128.577332,13.580944 
	C129.580002,16.478628 131.569626,18.137945 133.768341,20.083317 
	C136.871094,22.348471 140.163361,23.990868 140.432892,28.433601 
	C138.792831,30.882048 136.509964,30.252136 134.446259,30.469709 
	C132.393372,30.686144 130.149826,29.764782 128.216156,31.784306 
	C127.556557,34.525894 127.542625,36.938030 128.092316,39.702065 
	C129.346786,42.166576 131.386490,41.491253 133.104156,41.505840 
	C141.240891,41.574951 149.378876,41.579369 157.515579,41.506859 
	C159.564651,41.488602 162.487411,42.310150 163.091049,39.592392 
	C163.816727,36.325111 164.753265,32.563774 161.743286,29.772955 
	C160.315262,28.448927 158.848831,27.007246 156.571579,26.121626 
	C156.033524,25.759123 155.838364,25.587618 155.418808,25.100796 
	C154.962494,21.662252 151.821640,19.894339 151.512375,16.466949 
	C154.060104,11.878054 158.323669,14.518378 161.810608,13.285984 
	C162.083969,12.636841 162.218246,12.245397 162.482727,11.544485 
	C164.181290,8.862371 163.275223,6.154495 163.705780,3.250789 
	C163.927399,2.398659 164.173782,1.964246 164.752808,1.289099 
	C166.388885,1.000000 167.777786,1.000000 169.583344,1.000000 
	C170.335617,1.322983 170.544724,1.715941 170.632233,2.510762 
	C170.552216,3.070769 170.486206,3.288422 170.265289,3.806432 
	C168.964172,6.659438 169.359253,9.286632 169.857971,12.212416 
	C170.269379,14.034213 171.094208,15.215395 172.553650,16.354202 
	C173.005692,16.659431 173.196854,16.770412 173.658813,17.080482 
	C176.126144,19.566221 177.395767,22.649731 180.430893,24.644075 
	C182.281616,25.490650 184.064102,25.977245 183.445129,28.639177 
	C181.343491,31.084896 178.758057,30.203939 176.410568,30.465136 
	C174.240524,30.706585 171.806854,29.685198 169.862488,32.084427 
	C169.908905,35.484219 167.741989,39.050358 171.979843,41.406006 
	C182.914978,41.299393 193.481659,42.136116 204.291367,40.752151 
	C207.426453,34.081409 203.460693,29.777479 199.659973,25.071970 
	C198.672333,21.210302 194.196075,20.549635 193.296524,16.663105 
	C193.286270,15.777793 193.435104,15.298162 193.979492,14.585094 
	C196.967728,12.992714 199.853928,13.739920 203.021759,13.581757 
	C204.247787,13.559386 205.181412,13.660977 205.407211,12.135850 
	C205.413132,9.351521 205.337387,6.911902 205.524765,4.094626 
	C205.633163,3.460953 205.682999,3.206959 205.882599,2.592050 
	C206.185593,2.019610 206.338791,1.808085 206.746002,1.298280 
	C233.310501,1.000000 259.621094,1.029313 285.931366,0.949243 
	C288.257019,0.942165 289.077515,1.253007 289.074951,3.926401 
	C288.985260,98.011368 288.972687,192.096466 289.103973,286.181335 
	C289.109009,289.790649 287.219482,288.991180 285.324158,288.991669 
	C241.861877,289.002472 198.399597,289.000000 154.468658,289.000000 
	C152.973404,287.601257 153.825653,286.667542 155.003540,286.340240 
	C158.380463,285.401886 161.466385,283.662720 164.852036,282.811188 
	C185.165359,277.702209 205.293396,271.895203 225.591858,266.732971 
	C228.742401,265.931732 230.546173,264.121948 230.661118,260.824677 
	C230.927139,253.193192 231.691879,245.532196 232.451813,238.007523 
	C233.451889,228.104950 234.241806,218.157257 235.088669,208.243820 
	C236.233948,194.837082 238.591354,181.541107 238.808548,168.057510 
	C238.859802,164.874756 239.494843,161.765839 239.895874,158.650253 
	C241.403931,146.934280 241.602127,135.090103 243.506699,123.053543 
	C243.545868,121.451813 243.552231,120.216057 243.565002,118.608719 
	C244.727829,106.004234 245.772812,93.761421 247.052490,81.538544 
	C247.691559,75.434402 247.253128,69.232185 248.543167,63.165707 
	C248.794571,61.983444 248.437897,60.854050 247.417938,59.578396 
	C245.473145,58.251682 243.604218,58.488693 241.790955,58.488274 
	C178.871582,58.473770 115.952209,58.475239 53.032841,58.483513 
	C51.539864,58.483707 50.031471,58.375214 48.242809,59.083733 
	C46.082867,61.969467 47.183510,64.808983 47.564976,67.538643 
	C49.359917,80.382713 50.053120,93.319176 50.945522,106.238655 
	C51.175400,109.566673 51.411888,112.885048 52.149509,116.143562 
	C54.768085,127.711464 54.649170,139.624527 55.652313,151.315292 
	C57.979401,178.435577 60.062820,205.594894 62.457706,232.715088 
	C63.290592,242.146790 63.444096,251.659851 65.081093,261.038025 
	C65.649208,264.292603 66.995506,266.045471 70.272293,266.728699 
	C85.411354,269.885101 100.105797,274.763000 115.076546,278.594604 
	C122.440796,280.479401 129.550110,283.468292 137.118805,284.814575 
	C138.972839,285.144348 140.683060,285.968994 140.220184,288.704987 
z"/>
<path fill="#1773B7" opacity="1.000000" stroke="none" 
	d="
M249.469025,58.852444 
	C251.762390,63.121635 249.134552,66.790352 249.014389,70.661774 
	C248.744095,79.369453 247.684082,88.058655 246.760178,96.713837 
	C246.042130,103.440689 245.110260,110.395393 244.933411,117.638046 
	C243.773560,119.342415 243.810913,120.810997 244.617905,122.602158 
	C245.074081,128.709839 243.498062,134.365341 243.061157,140.137314 
	C242.535172,147.086380 242.246719,154.068314 241.353210,160.970993 
	C240.185669,169.990616 240.867386,179.216049 238.485001,188.072891 
	C236.980179,193.667343 238.363098,199.377197 237.177231,205.019623 
	C234.997314,215.391724 236.545029,226.201523 233.867844,236.561279 
	C232.719696,241.004257 234.586594,245.482452 233.278687,250.125885 
	C231.989944,254.701263 232.579300,259.773926 231.800919,264.539612 
	C231.464767,266.597626 229.174423,267.532990 227.031052,268.062286 
	C216.402588,270.686951 205.555603,272.695587 195.242874,276.248505 
	C186.304504,279.327850 176.975113,280.748779 168.045593,283.924286 
	C163.332642,285.600250 158.373154,287.214111 153.717041,288.771576 
	C149.643097,289.000000 145.286194,289.000000 140.464645,289.000000 
	C138.912354,283.750610 134.099152,286.189331 131.270767,285.378723 
	C126.855331,284.113342 122.413277,282.880737 118.276085,280.983704 
	C114.583519,279.290558 110.574730,279.178223 106.779686,277.919952 
	C100.783951,275.932068 94.581421,274.456848 88.489281,272.570557 
	C82.096901,270.591370 75.334717,269.319397 68.667282,268.120239 
	C65.116753,267.481628 64.303253,265.867065 63.637600,262.430481 
	C61.883629,253.375137 62.629318,244.149185 61.011780,235.096115 
	C60.078796,229.874390 60.393208,224.441589 59.902668,219.126251 
	C59.184315,211.342422 58.066578,203.593018 57.452343,195.802673 
	C56.773293,187.190262 57.327236,178.392181 55.791889,169.957535 
	C53.754097,158.762619 53.415543,147.402710 52.439346,136.202759 
	C51.571182,126.242310 49.066921,116.377434 49.286053,106.508125 
	C49.451424,99.060089 48.081268,91.774529 48.071911,84.357231 
	C48.061844,76.379051 46.605438,67.972626 45.054840,59.495811 
	C46.637451,57.642551 48.555954,58.018295 50.346886,58.017708 
	C115.113785,57.996475 179.880676,57.996746 244.647583,58.008755 
	C246.139374,58.009029 247.654846,57.893669 249.469025,58.852444 
z"/>
<path fill="#363636" opacity="1.000000" stroke="none" 
	d="
M122.706161,1.715538 
	C122.906563,2.402619 122.909492,2.816530 122.890404,3.540615 
	C121.691658,5.198682 120.123528,5.758720 118.420670,5.767934 
	C109.458046,5.816428 100.485970,6.422508 91.082069,5.208753 
	C90.024712,4.725031 89.547432,4.288267 89.051399,3.244599 
	C88.919365,2.378066 88.929420,1.983571 88.969742,1.294538 
	C99.687561,1.000000 110.375122,1.000000 121.531342,1.000000 
	C122.169571,1.147456 122.339134,1.294912 122.706161,1.715538 
z"/>
<path fill="#404040" opacity="1.000000" stroke="none" 
	d="
M164.531342,1.000000 
	C164.980469,1.489373 164.960938,1.978747 164.833771,2.819882 
	C164.260071,3.635375 163.719208,3.982572 162.633026,4.333364 
	C151.614059,5.408658 141.048782,4.821791 130.489975,4.774953 
	C129.162048,4.769063 127.872162,4.409805 126.415115,3.249447 
	C126.049988,2.501239 126.047447,2.071877 126.022453,1.321257 
	C138.687561,1.000000 151.375122,1.000000 164.531342,1.000000 
z"/>
<path fill="#3F3F3F" opacity="1.000000" stroke="none" 
	d="
M206.684341,1.723152 
	C206.861877,2.007468 206.920700,2.467837 206.931519,2.699640 
	C205.590988,4.355297 203.836105,4.801649 201.981308,4.804096 
	C192.406509,4.816733 182.826416,5.296861 172.807251,4.388888 
	C172.079239,4.105321 171.803268,3.958033 171.192810,3.485390 
	C170.597839,2.522034 170.718567,1.967955 171.612045,1.249291 
	C183.020889,1.000000 194.041794,1.000000 205.531342,1.000000 
	C206.168930,1.146279 206.337875,1.292557 206.684341,1.723152 
z"/>
<path fill="#535353" opacity="1.000000" stroke="none" 
	d="
M170.871002,1.303097 
	C171.196823,1.840679 171.151627,2.075165 171.059540,2.664767 
	C170.830872,3.100571 170.649139,3.181258 170.207214,3.116098 
	C169.866058,2.525866 169.785110,2.081482 169.852081,1.318549 
	C170.000000,1.000000 170.500000,1.000000 170.871002,1.303097 
z"/>
<path fill="#000000" opacity="1.000000" stroke="none" 
	d="
M171.384552,1.530378 
	C171.242004,1.606193 171.153137,1.290265 171.076569,1.145133 
	C171.000000,1.000000 171.500000,1.000000 171.750000,1.000000 
	C171.846939,1.156287 171.689316,1.307808 171.384552,1.530378 
z"/>
<path fill="#303030" opacity="1.000000" stroke="none" 
	d="
M206.910049,1.757471 
	C206.591110,1.861863 206.369019,1.662129 206.097809,1.204133 
	C206.000000,1.000000 206.500000,1.000000 206.750000,1.000000 
	C206.986069,1.169158 206.972153,1.338316 206.910049,1.757471 
z"/>
<path fill="#303030" opacity="1.000000" stroke="none" 
	d="
M122.937469,1.742481 
	C122.622726,1.853958 122.392036,1.659598 122.105782,1.202814 
	C122.000000,1.000000 122.500000,1.000000 122.750000,1.000000 
	C123.000000,1.000000 122.971298,1.496253 122.937469,1.742481 
z"/>
<path fill="#181818" opacity="1.000000" stroke="none" 
	d="
M169.963638,2.985061 
	C170.123642,2.998673 170.300278,3.027097 170.744751,3.037702 
	C182.681122,3.012654 194.349640,3.005425 206.480225,2.964820 
	C206.915268,6.105580 206.888214,9.279716 206.790558,12.929808 
	C206.157761,13.915784 205.563095,14.365312 204.406372,14.469342 
	C200.824188,14.500651 197.608414,14.482142 194.392807,14.502109 
	C193.812073,14.505714 193.234604,14.400663 192.654083,14.472938 
	C193.127533,14.551704 193.603897,14.619626 194.026840,15.190431 
	C194.171097,15.808904 194.204071,16.094364 194.071350,16.610062 
	C194.613190,20.229507 197.337570,21.828245 200.059341,23.851421 
	C205.653107,28.129257 208.105438,33.397560 206.961761,40.599533 
	C205.522659,42.213955 203.809982,41.987255 202.167328,41.986866 
	C192.191574,41.984493 182.215668,42.056236 171.772095,41.902496 
	C167.353119,40.103241 169.632095,36.567848 169.024078,33.467377 
	C169.144882,30.697578 170.615921,30.002409 172.727325,30.006378 
	C175.390335,30.011385 178.055420,30.063257 180.715744,29.970875 
	C181.734268,29.935503 183.217285,30.510460 183.200043,28.349873 
	C183.129593,25.909580 180.906693,27.224829 180.106903,25.951672 
	C178.524323,22.692320 176.167999,20.378958 173.683624,17.862680 
	C173.107666,17.819191 172.855621,17.828293 172.225372,17.828156 
	C171.741501,15.636734 170.070526,14.177146 169.198013,11.941184 
	C169.105499,8.922385 168.582886,6.237050 169.738052,3.293371 
	C169.975342,2.961690 169.980255,2.999873 169.963638,2.985061 
z"/>
<path fill="#161616" opacity="1.000000" stroke="none" 
	d="
M126.032173,3.390322 
	C137.971191,2.969558 149.889862,3.008514 162.258209,3.020423 
	C164.853333,5.716014 164.024841,8.701091 163.234131,12.108355 
	C163.263046,12.692383 163.371826,12.909559 163.186935,13.346224 
	C161.675293,15.852317 159.513855,14.131090 157.749741,14.426781 
	C155.839066,14.747039 153.822327,14.329635 151.564117,15.081641 
	C148.643967,17.861118 152.084030,18.792711 153.036209,19.570858 
	C154.516830,20.780878 155.720993,21.736309 155.895630,24.017094 
	C156.076813,24.302134 156.069504,24.516623 156.017517,24.610500 
	C157.776657,26.145100 159.509933,27.708418 161.452484,28.951208 
	C163.176163,30.053972 163.864258,31.441353 164.012619,33.448498 
	C164.604736,41.459160 164.169937,42.091614 156.218750,41.973171 
	C146.426697,41.827309 136.622742,42.525352 126.446091,41.321606 
	C126.033676,38.000507 126.017265,34.939247 126.012558,31.419785 
	C129.357544,28.979311 133.022354,30.540710 136.475769,29.961853 
	C137.836014,29.733849 139.878265,31.147058 140.236069,28.317039 
	C138.427658,25.255890 135.945175,23.352154 133.144257,21.319637 
	C132.709808,18.167387 130.329285,17.032158 128.232635,15.232838 
	C124.055954,11.863329 126.852730,7.533848 126.032173,3.390322 
z"/>
<path fill="#141414" opacity="1.000000" stroke="none" 
	d="
M89.916397,4.388434 
	C100.849342,4.014845 111.404526,3.964581 122.414047,3.882553 
	C122.896828,6.991924 122.925285,10.133060 122.921951,13.742632 
	C118.243172,15.828364 113.439438,14.629338 108.344284,14.999660 
	C107.494820,14.999955 107.024124,15.000786 106.239105,15.006954 
	C105.528488,15.024679 105.136726,15.072083 104.530838,15.328405 
	C104.236847,15.654174 104.163383,15.819178 104.083984,16.255047 
	C105.083641,19.894779 104.502571,23.322369 104.268845,27.119698 
	C104.109108,27.699261 104.136223,27.889313 104.017715,28.326405 
	C103.671951,28.917980 103.636993,29.274782 103.998848,29.843349 
	C104.205223,30.040972 104.529915,29.957014 104.697586,29.955410 
	C110.573799,31.226913 116.366196,30.111315 122.523361,30.741905 
	C122.957870,33.991192 122.972740,37.057606 122.977982,40.582874 
	C122.021599,41.822254 120.893532,41.984917 119.723167,41.972649 
	C110.031136,41.871052 100.334625,42.314999 90.216438,41.487953 
	C88.509483,39.268276 88.987030,37.046570 89.035744,34.944195 
	C89.269218,24.867533 88.347298,14.770966 89.916397,4.388434 
z"/>
<path fill="#A8CBE5" opacity="1.000000" stroke="none" 
	d="
M249.833221,58.725029 
	C181.930038,59.162319 113.991158,59.174770 45.594707,59.152637 
	C45.021107,58.106529 44.868996,57.063568 46.378685,57.030704 
	C47.544361,57.005325 48.710686,57.001698 49.876720,57.001675 
	C114.682358,57.000305 179.488007,56.994812 244.293625,57.027706 
	C246.179138,57.028664 248.343124,56.257034 249.833221,58.725029 
z"/>
<path fill="#3E3E3E" opacity="1.000000" stroke="none" 
	d="
M126.122726,41.455803 
	C136.512695,41.037304 146.975937,41.065754 157.437302,40.937931 
	C159.247330,40.915810 162.121658,42.062405 162.610992,39.501247 
	C163.195175,36.443459 164.340256,32.782558 161.224991,30.228912 
	C159.413101,28.743683 157.685471,27.237867 156.117981,25.040850 
	C163.646530,27.101286 167.103867,33.317997 164.906921,40.639370 
	C164.452209,42.154694 163.505737,42.892696 162.055496,42.891644 
	C150.457947,42.883224 138.860382,42.837505 127.263229,42.749741 
	C126.905029,42.747032 126.551224,42.162907 126.122726,41.455803 
z"/>
<path fill="#9A9A9A" opacity="1.000000" stroke="none" 
	d="
M90.144745,3.766630 
	C90.263573,16.031849 90.232994,27.998589 90.284973,40.418697 
	C90.598930,41.359142 90.624794,41.856895 90.197769,42.662064 
	C87.882545,43.214203 88.022095,41.825417 88.031204,40.452030 
	C88.113266,28.085085 88.176163,15.718012 88.576996,3.061769 
	C89.271317,3.004425 89.633331,3.236289 90.144745,3.766630 
z"/>
<path fill="#3B3B3B" opacity="1.000000" stroke="none" 
	d="
M170.752838,41.293499 
	C182.652008,41.031654 194.337875,41.016525 206.487015,41.027657 
	C206.623856,43.621433 204.598022,42.928577 203.101028,42.931786 
	C192.681320,42.954124 182.261444,42.898960 171.371841,42.798401 
	C170.606216,42.385586 170.485382,41.989597 170.752838,41.293499 
z"/>
<path fill="#3B3B3B" opacity="1.000000" stroke="none" 
	d="
M90.422211,42.972343 
	C90.055069,42.497547 90.159676,42.036297 90.315903,41.223553 
	C100.924530,40.909649 111.481529,40.947235 122.503448,41.013275 
	C122.498672,43.882000 120.230385,42.902699 118.635704,42.918674 
	C109.389153,43.011311 100.141335,42.977150 90.422211,42.972343 
z"/>
<path fill="#565656" opacity="1.000000" stroke="none" 
	d="
M182.767197,28.393410 
	C185.028214,27.797365 185.397110,29.328516 186.473938,31.489012 
	C180.871140,31.489012 175.791931,31.489012 170.396454,31.746563 
	C169.696396,32.355145 169.242828,32.490845 168.430313,32.218998 
	C167.925125,28.976349 169.990524,29.047768 172.084305,29.016382 
	C175.554153,28.964367 179.022629,28.820005 182.767197,28.393410 
z"/>
<path fill="#535353" opacity="1.000000" stroke="none" 
	d="
M139.765076,28.387096 
	C142.579788,26.733543 142.426376,29.366428 144.314423,31.066971 
	C137.933044,31.066971 132.442032,31.066971 126.487640,31.014277 
	C126.219330,28.337013 128.255035,29.128822 129.720901,29.048376 
	C132.972733,28.869921 136.231186,28.812338 139.765076,28.387096 
z"/>
<path fill="#B0B0B0" opacity="1.000000" stroke="none" 
	d="
M105.835381,14.591284 
	C111.366051,14.300935 116.668816,14.224426 122.430878,14.179493 
	C123.136383,16.406424 121.542839,15.990863 120.305611,15.994514 
	C115.853157,16.007648 111.400597,15.988628 106.484528,15.928198 
	C105.663841,15.602919 105.536896,15.242206 105.835381,14.591284 
z"/>
<path fill="#565656" opacity="1.000000" stroke="none" 
	d="
M156.041840,23.896111 
	C154.689850,20.612213 150.317688,19.921133 148.462799,16.728813 
	C147.870972,15.710259 145.360245,14.411744 148.820068,13.778199 
	C149.639999,14.662741 150.647980,14.431870 151.495743,15.263388 
	C152.786087,18.365208 155.850784,20.134991 156.041840,23.896111 
z"/>
<path fill="#595959" opacity="1.000000" stroke="none" 
	d="
M173.576416,18.064308 
	C177.561646,18.484482 179.489090,21.266947 180.086823,25.439926 
	C177.053864,23.961910 174.570358,21.855640 173.576416,18.064308 
z"/>
<path fill="#545454" opacity="1.000000" stroke="none" 
	d="
M168.094101,32.444363 
	C168.563828,31.998493 168.996399,32.000648 169.754593,32.003460 
	C170.197113,34.815994 170.314026,37.627869 170.698532,40.743267 
	C170.958206,41.421268 170.950272,41.795750 170.922211,42.449196 
	C168.351028,42.881664 167.994339,41.234310 168.020462,39.244171 
	C168.048264,37.127113 168.046066,35.009666 168.094101,32.444363 
z"/>
<path fill="#EFEFEF" opacity="1.000000" stroke="none" 
	d="
M152.084671,15.484295 
	C150.755539,15.385397 149.699478,15.627350 149.053284,14.308228 
	C153.384277,13.924152 157.765503,13.833577 162.599396,13.614487 
	C164.037003,13.028364 164.800949,13.496245 164.886703,14.381185 
	C165.013489,15.689683 164.080231,15.850330 162.918549,15.788218 
	C159.449066,15.602708 155.972839,15.543704 152.084671,15.484295 
z"/>
<path fill="#535353" opacity="1.000000" stroke="none" 
	d="
M169.565018,2.967526 
	C170.035309,5.991902 170.095276,9.022114 170.204773,12.501662 
	C170.024628,13.105584 169.794952,13.260169 169.172150,13.280918 
	C167.763199,9.713710 167.202225,6.297132 169.565018,2.967526 
z"/>
<path fill="#808080" opacity="1.000000" stroke="none" 
	d="
M127.954842,15.349235 
	C131.405609,15.278159 133.436844,16.923765 133.231506,20.778067 
	C131.111160,19.425781 128.791077,18.255726 127.954842,15.349235 
z"/>
<path fill="#858585" opacity="1.000000" stroke="none" 
	d="
M200.215637,23.718391 
	C196.180573,23.719645 194.344833,21.081724 193.824646,17.079575 
	C195.329742,19.683575 199.318848,20.054213 200.215637,23.718391 
z"/>
<path fill="#989898" opacity="1.000000" stroke="none" 
	d="
M103.958153,27.568481 
	C110.145760,27.509209 116.209526,27.509209 122.273293,27.509209 
	C122.277779,28.026125 122.282272,28.543043 122.286758,29.059959 
	C116.534790,29.059959 110.782822,29.059959 104.573006,29.117348 
	C103.926643,28.990002 103.738121,28.805267 103.712845,28.259834 
	C103.876083,27.899139 103.834312,27.627752 103.958153,27.568481 
z"/>
<path fill="#4C4C4C" opacity="1.000000" stroke="none" 
	d="
M122.683701,30.597996 
	C117.115219,30.841846 111.273895,31.451357 105.163368,30.268326 
	C110.718307,30.059608 116.571358,30.165413 122.683701,30.597996 
z"/>
<path fill="#787878" opacity="1.000000" stroke="none" 
	d="
M163.445923,12.580354 
	C162.936920,9.679178 162.878418,6.803412 162.763916,3.460511 
	C163.157425,3.032259 163.606949,3.071144 164.391312,3.140836 
	C164.441879,6.315673 165.612289,9.587639 163.445923,12.580354 
z"/>
<path fill="#FFFFFF" opacity="1.000000" stroke="none" 
	d="
M194.467041,15.462022 
	C192.805237,15.265753 191.595398,14.993855 190.385574,14.721957 
	C190.396225,14.451757 190.406891,14.181558 190.417542,13.911358 
	C194.972595,13.911358 199.527664,13.911358 204.529572,14.049585 
	C205.067352,14.337260 205.158295,14.486708 205.129242,14.869522 
	C201.645844,15.197391 198.282440,15.291892 194.467041,15.462022 
z"/>
<path fill="#3F3F3F" opacity="1.000000" stroke="none" 
	d="
M168.812836,13.489428 
	C169.025742,13.123893 169.272476,13.100701 169.886780,13.014254 
	C172.546188,13.682774 172.766006,15.250877 171.913315,17.522041 
	C171.032822,16.350018 168.759186,15.979315 168.812836,13.489428 
z"/>
<path fill="#66A3CF" opacity="1.000000" stroke="none" 
	d="
M244.892303,122.469498 
	C241.979416,121.649139 242.402420,119.981461 244.506836,118.056976 
	C244.891495,119.346489 244.930908,120.708740 244.892303,122.469498 
z"/>
<path fill="#858585" opacity="1.000000" stroke="none" 
	d="
M205.117035,15.388515 
	C205.009247,15.102889 204.838593,14.650883 204.907501,14.419347 
	C205.389313,13.948733 205.802216,13.709656 206.467529,13.438171 
	C206.663483,14.453151 207.576202,16.139353 205.117035,15.388515 
z"/>
<path fill="#989898" opacity="1.000000" stroke="none" 
	d="
M105.708626,14.274321 
	C106.079826,14.711255 106.065720,15.043765 106.020966,15.624807 
	C105.616791,16.179617 105.212601,16.484594 104.443237,16.657742 
	C104.078049,16.525909 103.851357,16.416658 103.856331,16.290936 
	C103.681053,15.771606 103.583008,15.358490 103.736801,14.652593 
	C104.388954,14.309946 104.871460,14.240572 105.708626,14.274321 
z"/>
<path fill="#C1C1C1" opacity="1.000000" stroke="none" 
	d="
M103.504593,27.963608 
	C103.919800,28.111013 103.963509,28.322886 104.061188,28.854748 
	C104.115158,29.174736 104.078644,29.616320 104.141937,29.828646 
	C102.344383,30.170790 103.071320,28.922297 103.504593,27.963608 
z"/>
<path fill="#34A9DC" opacity="1.000000" stroke="none" 
	d="
M148.652191,99.513054 
	C147.984146,92.614204 148.099701,86.281212 147.934525,79.955566 
	C147.853989,76.871117 149.056610,75.929062 152.036819,75.938599 
	C176.690140,76.017509 201.344070,76.038338 225.997086,75.921013 
	C229.540543,75.904144 230.262161,77.464088 229.988098,80.476967 
	C228.876221,92.700447 227.863327,104.932999 226.734344,117.154854 
	C225.895844,126.232018 224.877579,135.292587 224.040207,144.369843 
	C222.379944,162.367188 220.753647,180.367844 219.182022,198.373123 
	C218.056854,211.263718 217.048782,224.164520 215.977173,237.059814 
	C215.647476,241.027252 215.206757,244.986923 214.954849,248.958893 
	C214.765030,251.951782 212.334381,252.167923 210.371384,252.722107 
	C193.416306,257.508759 176.435837,262.205414 159.461548,266.923889 
	C159.142273,267.012634 158.800095,267.017181 158.478638,267.099976 
	C147.980942,269.804596 147.982132,269.805298 147.980698,258.746704 
	C147.980026,253.582809 147.974625,248.418915 147.989639,242.809479 
	C148.116425,242.086395 148.224976,241.808838 148.612366,241.182175 
	C153.212875,238.097977 158.272873,237.555115 163.038712,236.206406 
	C172.963104,233.397842 182.898575,230.617477 192.868149,227.975037 
	C196.422729,227.032883 198.047318,225.304993 198.414291,221.519333 
	C200.146637,203.649017 201.611542,185.755844 203.233231,167.876404 
	C205.050262,147.843430 206.863510,127.810310 208.596420,107.769714 
	C209.178970,101.032898 209.178482,100.831734 202.149689,100.813911 
	C186.842514,100.775101 171.535156,100.814499 156.227921,100.790855 
	C153.906982,100.787270 151.557800,100.947098 148.652191,99.513054 
z"/>
<path fill="#E7E9EA" opacity="1.000000" stroke="none" 
	d="
M147.997772,242.221298 
	C132.161270,237.924271 116.345146,233.370041 100.443497,229.137100 
	C97.080208,228.241806 96.016388,226.755569 95.794312,223.393997 
	C95.147720,213.606659 94.243294,203.828705 93.119339,194.084045 
	C92.620728,189.761108 93.293968,187.644699 98.356590,188.096893 
	C103.638268,188.568649 108.997993,188.313126 114.317169,188.156754 
	C116.975769,188.078613 118.234161,188.817917 118.361580,191.692520 
	C118.552795,196.006134 119.285904,200.294846 119.503082,204.608536 
	C119.640198,207.331970 120.572327,208.699738 123.385620,209.372070 
	C131.305664,211.264801 139.144241,213.498428 147.429901,215.596985 
	C148.094513,215.791931 148.344131,215.987534 148.846802,216.586273 
	C150.062714,225.051117 150.863297,233.109528 148.290588,241.449585 
	C147.970093,241.793121 147.987640,242.078629 147.997772,242.221298 
z"/>
<path fill="#E1E7EA" opacity="1.000000" stroke="none" 
	d="
M148.558838,124.257858 
	C129.532791,124.884903 111.093315,124.615509 92.658279,124.796936 
	C88.167023,124.841133 86.520523,123.557335 86.423393,119.126503 
	C86.314423,114.155602 85.777153,109.171097 85.070114,104.243607 
	C84.508446,100.329185 85.650459,99.097244 89.736069,99.136131 
	C108.845917,99.318016 127.958839,99.176559 147.527405,99.047409 
	C147.984146,98.944168 147.980347,99.273140 147.968842,99.437241 
	C149.122620,100.441383 149.580963,101.706421 149.614975,103.015999 
	C149.792664,109.858681 150.471619,116.717957 148.558838,124.257858 
z"/>
<path fill="#35AADC" opacity="1.000000" stroke="none" 
	d="
M148.394440,216.334229 
	C147.998016,216.098297 147.900146,215.853622 147.872513,215.724976 
	C147.890167,202.726807 147.935471,189.857300 148.286545,176.172241 
	C152.195175,173.441208 156.100800,174.294617 159.879211,174.215485 
	C164.870880,174.110947 169.870285,174.053406 174.863724,174.298523 
	C178.717728,174.487701 180.740631,176.444916 180.438522,180.366623 
	C179.850586,187.998016 179.077988,195.614014 178.485779,203.246277 
	C178.259598,206.161209 177.185745,209.083420 174.275497,210.174454 
	C166.039673,213.262024 157.689529,216.054611 148.394440,216.334229 
z"/>
<path fill="#34A9DC" opacity="1.000000" stroke="none" 
	d="
M148.758575,150.612167 
	C147.974854,141.978531 147.975311,133.953339 147.973206,125.458282 
	C147.970642,124.988426 147.971771,124.601372 147.963623,124.408012 
	C149.471390,123.472710 151.067886,123.090355 152.760925,123.083168 
	C161.065948,123.047935 169.374832,122.872482 177.674316,123.159943 
	C183.150513,123.349602 184.717316,125.053230 184.859940,130.533844 
	C184.994095,135.689346 183.926575,140.768463 183.638641,145.906540 
	C183.445694,149.349854 181.292572,151.528519 177.856949,151.645096 
	C168.417816,151.965408 158.960251,152.637772 148.758575,150.612167 
z"/>
<path fill="#DFE6EA" opacity="1.000000" stroke="none" 
	d="
M147.984131,175.891830 
	C140.002106,175.963806 132.017639,175.753067 124.036285,175.837189 
	C121.105659,175.868057 119.926758,175.035904 119.764282,171.966629 
	C119.456711,166.156082 118.828369,160.354172 118.105530,154.577194 
	C117.695442,151.299820 118.723633,150.174118 122.095161,150.244965 
	C130.414368,150.419785 138.740738,150.253098 147.519318,150.113708 
	C147.974396,150.003723 147.979172,150.383987 147.970154,150.573914 
	C148.640106,151.279144 149.225174,151.944244 149.294525,152.771820 
	C149.910446,160.120529 150.847519,167.485016 148.314423,175.075226 
	C147.961166,175.394897 147.982925,175.725952 147.984131,175.891830 
z"/>
<path fill="#C1C1C1" opacity="1.000000" stroke="none" 
	d="
M103.611420,14.451477 
	C103.915779,14.775825 103.925117,15.172328 103.897873,15.867022 
	C102.296608,16.077114 103.257919,15.150529 103.611420,14.451477 
z"/>
<path fill="#FDFEFF" opacity="1.000000" stroke="none" 
	d="
M148.415924,175.526001 
	C147.968155,167.459686 147.975128,159.524490 147.971619,151.176559 
	C157.421539,149.782333 166.910217,150.392441 176.380768,150.421600 
	C180.157059,150.433228 181.761627,149.426010 181.869659,145.503448 
	C182.016068,140.187180 182.459305,134.854568 183.190994,129.586746 
	C183.768539,125.428513 182.166061,124.522247 178.317444,124.597763 
	C168.498550,124.790443 158.671875,124.585838 148.401886,124.377426 
	C147.966431,116.293282 147.977386,108.371918 147.972839,100.025940 
	C165.243195,99.479576 182.528915,99.329430 199.814972,99.246223 
	C211.025238,99.192268 211.091339,99.241875 210.122299,110.242874 
	C206.782028,148.163879 203.345245,186.076523 200.106735,224.006134 
	C199.843002,227.095032 198.646805,228.273010 195.872787,229.016617 
	C180.140213,233.233948 164.445526,237.592606 148.354004,241.848145 
	C147.977829,233.536270 147.985580,225.279419 147.995667,216.560425 
	C156.153610,213.846619 164.278763,211.473755 172.481995,209.411591 
	C175.207230,208.726517 176.319153,207.400681 176.534561,204.705353 
	C177.208817,196.269119 177.948029,187.835999 178.835587,179.419968 
	C179.145844,176.478043 178.044556,175.684647 175.268646,175.712982 
	C166.470428,175.802826 157.670151,175.690964 148.415924,175.526001 
z"/>
</svg>