<svg version="1.1" id="Layer_1" xmlns="http://www.w3.org/2000/svg" xmlns:xlink="http://www.w3.org/1999/xlink" x="0px" y="0px"
	 width="100%" viewBox="0 0 379 133" enable-background="new 0 0 379 133" xml:space="preserve">
<path fill="#FFFFFF" opacity="1.000000" stroke="none" 
	d="
M295.000000,134.000000 
	C196.666687,134.000000 98.833382,134.000000 1.000052,134.000000 
	C1.000035,89.666702 1.000035,45.333401 1.000018,1.000076 
	C127.333275,1.000051 253.666550,1.000051 379.999878,1.000025 
	C379.999908,45.333256 379.999908,89.666512 379.999939,133.999878 
	C351.833344,134.000000 323.666656,134.000000 295.000000,134.000000 
M317.651917,116.461960 
	C317.767883,114.650734 317.975372,112.840057 317.986084,111.028206 
	C318.143951,84.288445 318.340668,57.548542 318.347260,30.808626 
	C318.348297,26.535183 317.469574,22.261520 316.443085,17.780413 
	C307.688232,17.853695 298.933380,17.988520 290.178528,17.990601 
	C214.785477,18.008526 139.392410,18.002497 63.348362,18.537840 
	C63.234364,19.186934 63.021011,19.835972 63.020630,20.485130 
	C63.002510,51.443333 62.991520,82.401558 63.043217,113.359688 
	C63.045242,114.572502 63.666512,115.784279 64.936653,116.999664 
	C148.958176,116.998634 232.979706,116.997604 317.651917,116.461960 
z"/>
<path fill="#FDE0CE" opacity="1.000000" stroke="none" 
	d="
M63.999359,18.003616 
	C139.392410,18.002497 214.785477,18.008526 290.178528,17.990601 
	C298.933380,17.988520 307.688232,17.853695 316.711426,18.157162 
	C316.972656,18.715775 316.965515,18.897642 316.494812,19.048851 
	C284.865997,19.010767 253.700745,18.988726 222.535507,18.999184 
	C169.705322,19.016912 116.875145,19.055151 64.032974,18.814507 
	C64.013786,18.364035 64.006569,18.183825 63.999359,18.003616 
z"/>
<path fill="#FEE0CE" opacity="1.000000" stroke="none" 
	d="
M317.001221,116.996567 
	C232.979706,116.997604 148.958176,116.998634 64.478821,116.727722 
	C64.028969,116.275536 64.036949,116.095299 64.508423,115.947319 
	C96.136734,115.987694 127.301567,116.010811 158.466385,116.000542 
	C211.295914,115.983147 264.125458,115.944679 316.967041,116.185417 
	C316.986481,116.636040 316.993866,116.816307 317.001221,116.996567 
z"/>
<path fill="#FDDDC9" opacity="1.000000" stroke="none" 
	d="
M317.326569,116.729263 
	C316.993866,116.816307 316.986481,116.636040 316.986206,115.725929 
	C316.981659,83.023895 316.970032,51.051704 316.958405,19.079512 
	C316.965515,18.897642 316.972656,18.715775 316.988647,18.260933 
	C317.469574,22.261520 318.348297,26.535183 318.347260,30.808626 
	C318.340668,57.548542 318.143951,84.288445 317.986084,111.028206 
	C317.975372,112.840057 317.767883,114.650734 317.326569,116.729263 
z"/>
<path fill="#FDDDC9" opacity="1.000000" stroke="none" 
	d="
M64.044922,115.915054 
	C64.036949,116.095299 64.028969,116.275536 64.010117,116.726166 
	C63.666512,115.784279 63.045242,114.572502 63.043217,113.359688 
	C62.991520,82.401558 63.002510,51.443333 63.020630,20.485130 
	C63.021011,19.835972 63.234364,19.186934 63.673859,18.270729 
	C64.006569,18.183825 64.013786,18.364035 64.013847,19.274017 
	C64.019440,51.974213 64.032181,83.944633 64.044922,115.915054 
z"/>
<path fill="#FDFDFD" opacity="1.000000" stroke="none" 
	d="
M64.508415,115.947319 
	C64.032181,83.944633 64.019440,51.974213 64.025833,19.544281 
	C116.875145,19.055151 169.705322,19.016912 222.535507,18.999184 
	C253.700745,18.988726 284.865997,19.010767 316.494812,19.048851 
	C316.970032,51.051704 316.981659,83.023895 316.974121,115.455574 
	C264.125458,115.944679 211.295914,115.983147 158.466385,116.000542 
	C127.301567,116.010811 96.136734,115.987694 64.508415,115.947319 
M90.408173,28.079859 
	C90.583916,28.437941 90.759651,28.796022 91.253006,29.909670 
	C93.948059,34.142891 89.298485,36.592731 88.444107,39.942944 
	C87.687737,42.908878 83.870232,44.994972 81.764854,47.745583 
	C79.878395,50.210186 84.852722,65.513817 87.968269,67.698250 
	C87.942093,68.117607 87.915916,68.536964 87.275764,69.113945 
	C87.541130,70.036949 87.806488,70.959946 87.901749,72.391502 
	C88.575775,73.601898 89.249802,74.812294 90.162628,76.748337 
	C91.113434,78.752281 92.064247,80.756226 93.632225,83.173416 
	C95.677322,86.147964 97.722427,89.122520 100.063202,92.715645 
	C101.050720,93.459671 102.038246,94.203697 102.947792,94.969162 
	C102.947792,94.969162 102.950447,95.049995 103.036171,95.566116 
	C103.077934,95.735435 103.119698,95.904762 103.115730,96.783524 
	C104.451653,97.519753 105.787575,98.255974 107.079468,99.535278 
	C107.544464,100.080330 108.009453,100.625374 108.862663,101.836800 
	C112.931992,103.565445 117.001312,105.294090 121.622650,107.020546 
	C123.750656,107.642494 125.878662,108.264435 128.545044,109.094215 
	C129.627686,109.139282 130.710312,109.184341 131.874741,110.018814 
	C133.570312,109.905098 135.265900,109.791382 137.609863,109.780388 
	C138.727676,110.149178 139.845474,110.517967 141.492996,110.936661 
	C141.665375,110.894897 141.837738,110.853134 142.660767,110.989632 
	C143.104126,110.936890 143.547470,110.884148 144.788513,110.958282 
	C145.862595,110.905922 146.936691,110.853569 148.915649,110.989433 
	C157.534348,109.831680 166.160583,108.724136 174.758957,107.431198 
	C175.538284,107.314011 176.138214,106.003799 176.821442,105.247612 
	C175.882324,104.856544 174.943207,104.465477 173.340149,103.904640 
	C172.891342,103.975807 172.442551,104.046967 171.279602,103.947189 
	C170.551086,103.864182 169.822556,103.781174 168.898590,103.271286 
	C168.585617,103.470146 168.272659,103.669006 167.088669,103.968887 
	C165.070862,103.935951 163.053070,103.903015 160.449585,103.654869 
	C159.861099,103.471771 159.272629,103.288666 158.801178,102.421417 
	C159.268845,101.637329 159.736496,100.853249 160.685394,99.843513 
	C160.086456,99.455093 159.487503,99.066673 158.163925,98.761818 
	C154.955353,103.118935 150.629944,103.061745 145.912827,101.271034 
	C143.463242,100.263519 141.013641,99.256012 137.867447,97.961998 
	C138.853378,100.247337 139.423584,101.569069 139.200241,102.926521 
	C137.418594,103.124557 135.636948,103.322594 133.119080,103.594185 
	C131.093384,102.685066 129.067703,101.775948 127.028870,100.471748 
	C127.028870,100.471748 127.026993,100.076454 127.150909,99.499336 
	C127.109528,99.306976 127.068146,99.114624 126.998672,98.353905 
	C126.492714,97.894058 125.986755,97.434212 125.163231,96.376839 
	C124.296112,95.835663 123.428986,95.294487 122.490677,94.709305 
	C122.490677,94.709305 122.474365,94.627228 122.352226,93.805557 
	C120.904633,93.148460 119.457031,92.491371 117.943138,91.235390 
	C117.329773,90.501953 116.716408,89.768517 116.343475,88.228188 
	C114.434113,86.625923 112.524757,85.023666 111.192299,82.819023 
	C111.129379,81.527397 111.066460,80.235779 110.946938,78.310669 
	C110.492905,77.467194 110.038879,76.623726 109.023071,74.736626 
	C109.023071,76.662346 109.023071,77.288284 108.202415,77.710785 
	C107.140305,77.902939 106.078186,78.095093 104.236694,78.254845 
	C103.158546,77.167900 102.080399,76.080956 101.016548,74.490417 
	C101.066307,74.330040 101.116074,74.169655 101.763474,73.912102 
	C102.184456,73.302452 102.605438,72.692802 103.503220,71.524925 
	C103.397354,71.047493 103.291489,70.570068 103.569939,70.233444 
	C103.569939,70.233444 103.933540,70.045486 104.735519,70.278831 
	C105.270660,69.873840 105.805801,69.468842 106.340942,69.063850 
	C105.939949,68.663681 105.538948,68.263512 105.065529,67.144417 
	C104.089211,67.274803 103.112885,67.405182 101.745148,67.693108 
	C101.481735,67.804047 101.212250,67.897507 100.476845,67.987694 
	C100.476845,67.987694 100.016792,67.983437 100.032242,67.622604 
	C100.032242,67.622604 100.019867,67.261650 100.418045,66.942108 
	C100.590263,66.657333 100.762489,66.372559 100.979309,65.328369 
	C101.706627,64.090645 102.461464,62.868130 103.155640,61.612091 
	C104.693153,58.830097 104.109680,57.007465 100.230812,56.118256 
	C100.822189,57.512985 101.200111,58.404293 101.578033,59.295601 
	C101.053787,59.205746 100.529541,59.115891 100.005295,59.026031 
	C99.343811,60.235214 98.682327,61.444397 97.192467,62.838020 
	C96.077827,62.956955 94.963188,63.075890 93.250923,62.953968 
	C91.026344,60.396317 93.982979,60.040089 95.847092,58.989620 
	C96.128868,57.957916 96.328094,56.893616 96.718559,55.904839 
	C97.029976,55.116253 97.574539,54.419739 98.712234,53.804768 
	C101.107605,52.855656 103.502975,51.906548 106.542282,50.923550 
	C106.912498,50.504395 107.282715,50.085243 107.652931,49.666088 
	C107.090385,49.448753 106.527847,49.231422 105.090141,48.991173 
	C102.560097,49.311516 100.030060,49.631863 97.372475,49.357140 
	C97.591476,47.941757 97.810478,46.526375 98.771324,45.020752 
	C99.508095,44.939137 100.244858,44.857521 101.559647,44.782288 
	C102.016716,44.453045 102.473785,44.123802 103.222115,44.302719 
	C103.817619,43.899868 104.413124,43.497017 106.137299,42.827366 
	C107.009872,43.359592 107.882439,43.891823 109.112732,44.728477 
	C110.413620,43.887714 111.714508,43.046951 113.623840,42.045822 
	C114.213303,41.921719 114.802765,41.797615 115.728722,41.602669 
	C114.265564,40.991867 113.130035,40.517834 111.513565,39.525768 
	C108.805321,38.228130 105.658928,37.421410 103.506813,35.500652 
	C101.154716,33.401417 99.056602,31.510303 95.774635,31.356415 
	C95.571510,31.346891 95.422089,30.192093 95.713043,29.203455 
	C95.472023,28.859098 95.231010,28.514742 94.287727,27.996773 
	C93.564713,27.981482 92.841705,27.966190 91.934868,27.423817 
	C91.595848,27.597355 91.256821,27.770893 90.994293,27.991367 
	C90.994293,27.991367 90.943794,27.917181 90.408173,28.079859 
M288.069641,82.406837 
	C286.297485,79.890930 284.525299,77.375023 282.153168,74.007347 
	C287.456116,71.231712 292.066925,68.818359 298.011902,65.706680 
	C291.384216,65.706680 286.241425,65.706680 279.937500,65.706680 
	C282.259399,67.215965 283.502808,68.024216 285.167664,69.106400 
	C281.769684,71.894928 278.832367,74.305412 275.895081,76.715889 
	C275.470184,76.462082 275.045258,76.208275 274.620361,75.954468 
	C274.620361,64.986076 274.620361,54.017681 274.620361,42.365376 
	C270.817169,44.343170 267.844818,45.888901 263.905334,47.937576 
	C269.685638,49.656384 269.960022,53.464142 269.791840,57.656769 
	C269.611938,62.143089 270.096527,66.675201 269.671051,71.128082 
	C269.018341,77.958969 272.559357,85.546600 265.042297,91.835747 
	C271.154602,91.555916 276.011536,91.333565 281.237488,91.094315 
	C278.918396,89.142853 276.119171,87.880783 275.311890,85.833328 
	C274.285889,83.231216 274.413513,79.752068 278.917480,78.949677 
	C280.601379,81.306015 282.105072,83.911293 284.099426,86.061440 
	C286.136414,88.257538 288.382629,90.766449 291.045471,91.721680 
	C293.353333,92.549545 296.372498,91.394432 299.146576,91.108627 
	C295.072113,87.979523 291.801056,85.467415 288.069641,82.406837 
M155.053055,56.801781 
	C155.053055,64.796097 155.032639,72.790482 155.061752,80.784691 
	C155.076187,84.752098 155.536850,88.879868 150.626068,90.928436 
	C156.372345,90.928436 162.118622,90.928436 167.864914,90.928436 
	C167.921066,90.530487 167.977234,90.132538 168.033386,89.734589 
	C166.727142,89.421906 165.292953,89.346542 164.150299,88.730446 
	C162.984833,88.102036 161.291443,86.987053 161.237503,86.007530 
	C160.949142,80.772354 161.101532,75.512894 161.101532,70.053787 
	C164.314957,70.214317 167.106903,69.680710 169.202408,70.651070 
	C171.227570,71.588875 172.535156,74.076347 174.860046,76.664780 
	C174.860046,71.266518 174.860046,66.716988 174.860046,62.167454 
	C172.167862,69.488914 166.321548,66.708656 161.343933,67.034744 
	C161.343933,61.193588 161.343933,55.782288 161.343933,50.025574 
	C165.066452,50.025574 168.705841,49.352238 171.926605,50.224567 
	C174.850250,51.016434 177.318192,53.490814 180.139709,55.322544 
	C180.432999,52.762131 180.761978,49.890213 181.099487,46.943840 
	C175.561203,46.943840 170.590393,46.943840 165.619598,46.943840 
	C160.585251,46.943840 155.550903,46.943840 151.372070,46.943840 
	C152.638687,50.019978 153.845779,52.951569 155.053055,56.801781 
M223.728073,64.812500 
	C219.370682,66.048874 214.971664,67.165192 210.698944,68.645851 
	C210.026901,68.878738 209.926956,70.762497 209.562485,71.882935 
	C210.887436,72.054985 212.377029,72.677353 213.490234,72.270317 
	C214.567551,71.876411 215.101456,70.181938 216.158325,69.498055 
	C217.391647,68.700005 219.671387,67.544312 220.198334,68.010811 
	C221.609894,69.260475 222.981262,71.248528 223.104645,73.030746 
	C223.195663,74.345650 221.585205,76.320404 220.221237,77.069046 
	C218.086761,78.240623 215.439346,78.430801 213.152756,79.381844 
	C208.257050,81.418091 206.602432,84.440292 208.038849,88.172760 
	C209.327515,91.521240 213.221207,92.828644 217.865005,91.421333 
	C218.972946,91.085571 220.002884,90.398781 221.123352,90.224152 
	C222.266998,90.045921 223.664078,89.935310 224.626663,90.427650 
	C228.497772,92.407593 231.044418,91.655006 233.643387,87.234833 
	C231.966629,87.092865 230.415741,86.961563 228.415955,86.792252 
	C228.415955,81.686852 228.415695,76.909271 228.416061,72.131691 
	C228.416306,69.016533 228.158295,66.043144 223.728073,64.812500 
M253.548950,76.934380 
	C251.162872,75.772888 248.657532,74.795013 246.448669,73.360611 
	C245.549988,72.777008 244.722488,71.091080 244.911789,70.108917 
	C245.094543,69.160561 246.723785,67.711227 247.549957,67.815117 
	C249.880890,68.108246 252.197586,68.919975 254.375000,69.862144 
	C255.509964,70.353241 256.339722,71.549667 257.840118,72.910851 
	C257.929779,64.963486 255.907715,63.610447 247.448456,64.789246 
	C243.850800,65.290573 241.056854,66.907707 240.160614,70.600418 
	C239.234100,74.417885 241.224762,77.012283 244.398209,78.790215 
	C247.001587,80.248749 249.834015,81.346916 252.270325,83.030983 
	C253.227814,83.692841 253.892471,85.580826 253.732773,86.783241 
	C253.620285,87.630203 251.749634,89.014198 250.911224,88.855141 
	C247.954117,88.294167 244.994720,87.401131 242.281860,86.115585 
	C241.510880,85.750229 241.575394,83.621780 241.256744,82.301872 
	C240.517563,83.000267 239.778381,83.698654 239.039200,84.397049 
	C239.500549,86.916222 237.120255,90.245041 241.984360,91.411415 
	C249.809433,93.287804 256.622894,91.824219 258.462189,87.113434 
	C260.236084,82.570053 258.233856,79.421814 253.548950,76.934380 
M189.578278,45.958969 
	C188.722824,46.527069 187.867386,47.095173 186.048218,48.303276 
	C191.804504,49.537331 191.857941,53.232765 191.834579,57.046936 
	C191.785706,65.024643 191.742386,73.003922 191.853500,80.980377 
	C191.906479,84.783562 192.158554,88.522339 186.715622,90.971375 
	C193.061600,90.971375 197.929306,90.971375 202.796997,90.971375 
	C195.196182,88.852341 197.168289,82.904228 197.076035,77.927071 
	C197.020584,74.936279 197.056244,71.943756 197.055725,68.952011 
	C197.054245,60.372925 197.055191,51.793835 197.055191,42.248852 
	C194.267227,43.692551 192.278717,44.722275 189.578278,45.958969 
M123.643478,87.783295 
	C124.220566,87.208916 125.388626,86.280106 125.287933,86.112213 
	C123.014008,82.320641 120.600960,78.612511 118.262955,74.964935 
	C116.412277,79.245193 118.199715,84.113014 123.643478,87.783295 
M113.782478,66.168045 
	C113.919800,66.077278 114.046509,65.950294 114.197464,65.906021 
	C114.346031,65.862450 114.657257,65.880463 114.661942,65.909447 
	C115.065880,68.409485 115.446960,70.913216 115.829659,73.416687 
	C116.392250,73.335693 116.954842,73.254700 117.517433,73.173706 
	C117.084373,69.179047 116.651314,65.184387 116.218246,61.189728 
	C115.812813,61.277084 115.407372,61.364441 115.001930,61.451797 
	C114.420425,63.025806 113.838928,64.599815 113.782478,66.168045 
M118.637856,42.684227 
	C118.028374,42.899982 116.896637,43.104630 116.891777,43.333244 
	C116.851822,45.212326 121.917778,48.570427 123.676025,47.845043 
	C124.171051,47.640820 124.730263,46.960728 124.771614,46.458675 
	C124.816612,45.912319 124.444298,45.051216 123.990158,44.795170 
	C122.448372,43.925888 120.790100,43.263226 118.637856,42.684227 
M110.981483,55.135525 
	C114.520348,56.865410 115.433647,56.222160 115.674522,51.109516 
	C113.853844,52.396042 112.407883,53.417793 110.981483,55.135525 
M109.173241,68.189125 
	C109.810623,68.709435 110.448006,69.229744 111.085388,69.750053 
	C110.416451,67.579391 112.502640,63.412380 107.304970,64.448692 
	C107.953888,65.642982 108.464539,66.582809 109.173241,68.189125 
M112.854477,45.982403 
	C112.710526,46.858036 112.566574,47.733669 112.422615,48.609303 
	C113.452972,48.507637 114.483330,48.405972 115.513687,48.304310 
	C114.873436,47.519325 114.233192,46.734341 112.854477,45.982403 
M133.649292,97.739754 
	C134.865875,95.352356 134.865875,95.352356 131.187241,95.040207 
	C130.726501,95.503075 130.265778,95.965942 129.805038,96.428810 
	C130.868317,96.789047 131.931610,97.149284 133.649292,97.739754 
M129.039612,90.609306 
	C128.426880,91.112434 127.814163,91.615562 127.201447,92.118690 
	C127.892570,92.629295 128.583694,93.139893 129.274826,93.650490 
	C129.359238,92.805962 129.443649,91.961441 129.039612,90.609306 
M111.069443,58.797634 
	C110.783035,59.182598 110.496628,59.567562 110.210220,59.952526 
	C110.584030,60.131115 110.957848,60.309700 111.331650,60.488285 
	C111.376907,60.054707 111.422165,59.621128 111.069443,58.797634 
M114.623505,58.278561 
	C114.495255,58.552177 114.367004,58.825790 114.238747,59.099403 
	C114.498672,59.177845 114.758598,59.256287 115.018524,59.334728 
	C115.046402,58.961670 115.074280,58.588615 114.623505,58.278561 
M109.302895,47.479103 
	C109.302895,47.479103 109.560318,47.604378 109.560318,47.604378 
	C109.560318,47.604378 109.507538,47.330502 109.302895,47.479103 
M136.600433,96.524086 
	C136.600433,96.524086 136.475693,96.604355 136.600433,96.524086 
z"/>
<path fill="#040404" opacity="1.000000" stroke="none" 
	d="
M146.009140,101.837067 
	C150.629944,103.061745 154.955353,103.118935 158.665726,99.019447 
	C159.513077,99.541100 159.858612,99.805130 160.204163,100.069160 
	C159.736496,100.853249 159.268845,101.637329 158.545151,102.983284 
	C158.786026,104.267136 159.282928,104.989113 159.779831,105.711090 
	C160.198303,105.097420 160.616791,104.483749 161.035263,103.870079 
	C163.053070,103.903015 165.070862,103.935951 167.546402,104.197060 
	C168.157623,104.666542 168.311111,104.907845 168.464600,105.149155 
	C168.674423,104.665489 168.884232,104.181831 169.094055,103.698166 
	C169.822556,103.781174 170.551086,103.864182 171.683167,104.319763 
	C172.412277,104.990349 172.737823,105.288361 173.063370,105.586380 
	C173.376953,105.082390 173.690521,104.578400 174.004089,104.074409 
	C174.943207,104.465477 175.882324,104.856544 176.821442,105.247620 
	C176.138214,106.003799 175.538284,107.314011 174.758957,107.431198 
	C166.160583,108.724136 157.534348,109.831680 148.396027,110.563797 
	C146.581207,110.369232 145.286026,110.600319 143.990829,110.831406 
	C143.547470,110.884148 143.104126,110.936890 142.315353,110.659760 
	C141.794708,110.093040 141.619476,109.856194 141.444260,109.619347 
	C141.283936,110.041817 141.123611,110.464287 140.963287,110.886757 
	C139.845474,110.517967 138.727676,110.149178 137.004913,109.470139 
	C134.864288,109.183067 133.328613,109.206238 131.792953,109.229401 
	C130.710312,109.184341 129.627686,109.139282 128.260101,108.601593 
	C125.787071,105.364113 123.366066,104.983246 121.070633,107.022743 
	C117.001312,105.294090 112.931992,103.565445 108.976471,101.383377 
	C109.302711,100.266830 109.515137,99.603706 109.727554,98.940575 
	C108.859535,98.957779 107.991516,98.974983 107.123497,98.992195 
	C105.787575,98.255974 104.451653,97.519753 103.436432,96.396088 
	C104.117943,95.625534 104.478760,95.242409 104.839577,94.859276 
	C104.209869,94.922844 103.580154,94.986420 102.950447,95.049995 
	C102.950447,95.049995 102.947792,94.969162 102.977974,94.573166 
	C101.927948,93.483810 100.847733,92.790436 99.767525,92.097069 
	C97.722427,89.122520 95.677322,86.147964 93.332718,82.579163 
	C92.078300,79.653275 91.123390,77.321640 90.083366,74.635277 
	C89.405998,73.441269 91.680817,70.298370 88.071846,71.882950 
	C87.806488,70.959946 87.541130,70.036949 87.905899,69.020737 
	C88.870750,68.498184 89.205475,68.068832 89.540207,67.639488 
	C88.959526,67.453865 88.378845,67.268242 87.798164,67.082619 
	C84.852722,65.513817 79.878395,50.210186 81.764854,47.745583 
	C83.870232,44.994972 87.687737,42.908878 88.444107,39.942944 
	C89.298485,36.592731 93.948059,34.142891 91.117004,29.222761 
	C90.968597,28.329628 90.956192,28.123405 90.943794,27.917181 
	C90.943794,27.917181 90.994293,27.991367 91.256424,27.988010 
	C91.718597,27.973404 91.918640,27.962151 92.118690,27.950897 
	C92.841705,27.966190 93.564713,27.981482 94.679314,28.437931 
	C95.129822,29.109438 95.188751,29.339790 95.247681,29.570145 
	C95.422089,30.192093 95.571510,31.346891 95.774635,31.356415 
	C99.056602,31.510303 101.154716,33.401417 103.506813,35.500652 
	C105.658928,37.421410 108.805321,38.228130 111.731430,40.233864 
	C111.936478,41.241447 111.923676,41.540939 111.627480,41.914963 
	C110.384972,42.085430 109.425850,42.181366 108.103638,42.140717 
	C106.494865,40.882629 105.249176,39.761135 103.969551,38.609089 
	C103.123734,39.288254 102.085625,40.121834 101.055489,40.643063 
	C100.955643,39.777222 100.847809,39.223724 100.739983,38.670231 
	C100.495644,38.730576 100.251312,38.790920 100.006973,38.851265 
	C100.323486,39.577881 100.639992,40.304497 100.967300,41.405479 
	C100.979279,42.778534 100.980453,43.777218 100.981628,44.775902 
	C100.244858,44.857521 99.508095,44.939137 98.014053,44.988319 
	C95.439354,46.624775 91.091057,43.872208 90.606735,48.588188 
	C88.892006,48.328449 87.562012,48.022717 86.232018,47.716988 
	C86.034920,48.308014 85.837822,48.899040 85.640724,49.490067 
	C87.043709,50.011780 88.446693,50.533493 90.251633,51.065948 
	C92.669716,51.063065 94.685844,51.049438 96.746811,51.285088 
	C96.860535,51.688507 96.929436,51.842659 96.877029,52.270798 
	C96.198112,53.353603 95.640518,54.162422 94.768303,54.991280 
	C94.084801,55.395138 93.715919,55.778954 93.347031,56.162769 
	C93.883026,56.396675 94.419029,56.630585 94.968185,57.196327 
	C94.984886,57.970882 94.988419,58.413605 94.991951,58.856327 
	C93.982979,60.040089 91.026344,60.396317 93.570648,63.363861 
	C93.901474,64.160202 93.912582,64.546638 93.682785,65.167000 
	C93.385139,66.407639 93.328415,67.414360 93.214447,68.790718 
	C93.477364,69.942017 93.797508,70.723679 94.117661,71.505341 
	C94.419594,70.978523 94.721535,70.451714 95.337769,70.042938 
	C96.110352,70.629646 96.568642,71.098320 97.068054,71.665329 
	C97.109184,71.763657 97.461365,71.995659 97.622437,72.309555 
	C98.162621,73.820030 98.541733,75.016609 98.836487,76.445236 
	C98.847321,77.016228 98.942520,77.355171 99.037720,77.694115 
	C99.351395,77.113899 99.665062,76.533676 99.914124,75.663643 
	C99.903061,74.262672 99.956596,73.151520 99.993286,72.018936 
	C99.976440,71.997505 99.948418,72.044273 100.281265,72.083061 
	C100.798019,72.750992 100.981934,73.380127 101.165848,74.009270 
	C101.116074,74.169655 101.066307,74.330040 100.985931,75.116379 
	C101.310898,77.643982 102.138489,79.599541 101.928612,81.436569 
	C101.414253,85.938744 102.794258,87.493774 107.581993,87.339050 
	C107.344734,88.757072 107.151360,89.902893 106.871414,91.292740 
	C106.816704,91.916405 106.848557,92.296028 106.880402,92.675659 
	C107.273270,92.167511 107.666130,91.659370 108.383438,91.108932 
	C109.142342,91.039719 109.576790,91.012802 110.057938,91.156906 
	C110.212433,91.382790 110.320229,91.437637 110.428024,91.492493 
	C110.280586,91.332230 110.133141,91.171967 109.985870,90.650360 
	C109.345306,89.066452 108.704567,87.843887 107.998482,86.281128 
	C106.960785,83.389702 105.988434,80.838478 105.016075,78.287247 
	C106.078186,78.095093 107.140305,77.902939 108.607071,78.040039 
	C109.011734,78.369286 109.078476,78.819557 109.062332,79.127747 
	C109.569260,80.764427 110.092323,82.092918 110.615395,83.421410 
	C112.524757,85.023666 114.434113,86.625923 115.954819,88.610001 
	C115.386719,88.998024 115.207275,89.004234 114.695320,89.037308 
	C114.861191,91.069580 115.359589,93.074997 115.682167,95.332687 
	C114.772301,96.017929 114.038246,96.450890 112.740936,97.216072 
	C117.342476,97.663361 117.342476,97.663361 116.088913,94.532913 
	C116.046410,93.458397 116.020248,92.741959 116.332596,92.011658 
	C117.117210,91.943291 117.563324,91.888786 118.009438,91.834282 
	C119.457031,92.491371 120.904633,93.148460 122.048584,94.322319 
	C121.355927,95.213585 120.966911,95.588089 120.577896,95.962585 
	C120.778732,96.124413 121.146736,96.437172 121.156433,96.426430 
	C121.644218,95.886154 122.101379,95.318230 122.561859,94.753311 
	C123.428986,95.294487 124.296112,95.835663 125.172234,96.988510 
	C125.796410,98.040871 126.411591,98.481567 127.026772,98.922264 
	C127.068146,99.114624 127.109528,99.306976 126.845558,99.793854 
	C126.177765,100.243309 126.048592,100.510841 125.870193,100.939064 
	C125.158127,101.266983 124.728539,101.546829 124.298958,101.826675 
	C124.459427,102.014244 124.619888,102.201805 124.780357,102.389374 
	C125.226067,101.878273 125.671768,101.367172 126.348160,100.897552 
	C126.578842,100.939026 127.042015,100.866829 127.042015,100.866829 
	C129.067703,101.775948 131.093384,102.685066 133.649323,103.901962 
	C137.157990,106.544838 140.271530,107.584244 143.173996,105.260628 
	C144.377563,106.327156 145.229965,107.212753 146.233765,107.865623 
	C146.442566,108.001442 147.689011,107.173927 147.644211,106.963249 
	C147.387299,105.755035 147.065384,104.476006 146.385788,103.480164 
	C146.074371,103.023865 144.896118,103.159134 144.122665,102.690628 
	C144.759277,102.182442 145.384201,102.009750 146.009140,101.837067 
M98.790665,37.177864 
	C98.635170,36.585575 98.479683,35.993286 98.324196,35.400997 
	C97.936943,35.607613 97.549698,35.814228 97.162437,36.020847 
	C97.544785,36.560310 97.927124,37.099773 98.790665,37.177864 
M132.900085,106.845634 
	C132.770508,106.368202 132.640915,105.890770 132.511337,105.413338 
	C132.142426,105.598900 131.773514,105.784462 131.404602,105.970024 
	C131.720383,106.278778 132.036163,106.587532 132.900085,106.845634 
M99.714172,81.707016 
	C99.286964,81.395996 98.859749,81.084984 98.432541,80.773964 
	C98.361214,81.194298 98.289879,81.614624 98.218544,82.034966 
	C98.693802,82.113487 99.169060,82.192009 99.714172,81.707016 
M119.425705,99.708588 
	C119.641869,100.001862 119.858025,100.295135 120.074181,100.588402 
	C120.262054,100.408302 120.449921,100.228195 120.637794,100.048103 
	C120.355194,99.818085 120.072594,99.588066 119.425705,99.708588 
M95.962952,41.338985 
	C96.116539,41.087139 96.270134,40.835293 96.423721,40.583447 
	C96.161949,40.491188 95.900185,40.398926 95.638412,40.306664 
	C95.596161,40.682343 95.553909,41.058025 95.962952,41.338985 
M97.002441,33.856846 
	C97.407509,33.682674 97.812576,33.508503 98.217644,33.334339 
	C97.709671,33.375076 97.201698,33.415813 97.002441,33.856846 
M90.525620,58.371666 
	C90.525620,58.371666 90.427757,58.545105 90.427757,58.545105 
	C90.427757,58.545105 90.624855,58.519444 90.525620,58.371666 
M112.519791,101.406921 
	C112.519791,101.406921 112.591568,101.523521 112.519791,101.406921 
z"/>
<path fill="#090909" opacity="1.000000" stroke="none" 
	d="
M288.299805,82.681068 
	C291.801056,85.467415 295.072113,87.979523 299.146576,91.108627 
	C296.372498,91.394432 293.353333,92.549545 291.045471,91.721680 
	C288.382629,90.766449 286.136414,88.257538 284.099426,86.061440 
	C282.105072,83.911293 280.601379,81.306015 278.917480,78.949677 
	C274.413513,79.752068 274.285889,83.231216 275.311890,85.833328 
	C276.119171,87.880783 278.918396,89.142853 281.237488,91.094315 
	C276.011536,91.333565 271.154602,91.555916 265.042297,91.835747 
	C272.559357,85.546600 269.018341,77.958969 269.671051,71.128082 
	C270.096527,66.675201 269.611938,62.143089 269.791840,57.656769 
	C269.960022,53.464142 269.685638,49.656384 263.905334,47.937576 
	C267.844818,45.888901 270.817169,44.343170 274.620361,42.365376 
	C274.620361,54.017681 274.620361,64.986076 274.620361,75.954468 
	C275.045258,76.208275 275.470184,76.462082 275.895081,76.715889 
	C278.832367,74.305412 281.769684,71.894928 285.167664,69.106400 
	C283.502808,68.024216 282.259399,67.215965 279.937500,65.706680 
	C286.241425,65.706680 291.384216,65.706680 298.011902,65.706680 
	C292.066925,68.818359 287.456116,71.231712 282.153168,74.007347 
	C284.525299,77.375023 286.297485,79.890930 288.299805,82.681068 
z"/>
<path fill="#080808" opacity="1.000000" stroke="none" 
	d="
M155.052979,56.342468 
	C153.845779,52.951569 152.638687,50.019978 151.372070,46.943840 
	C155.550903,46.943840 160.585251,46.943840 165.619598,46.943840 
	C170.590393,46.943840 175.561203,46.943840 181.099487,46.943840 
	C180.761978,49.890213 180.432999,52.762131 180.139709,55.322544 
	C177.318192,53.490814 174.850250,51.016434 171.926605,50.224567 
	C168.705841,49.352238 165.066452,50.025574 161.343933,50.025574 
	C161.343933,55.782288 161.343933,61.193588 161.343933,67.034744 
	C166.321548,66.708656 172.167862,69.488914 174.860046,62.167454 
	C174.860046,66.716988 174.860046,71.266518 174.860046,76.664780 
	C172.535156,74.076347 171.227570,71.588875 169.202408,70.651070 
	C167.106903,69.680710 164.314957,70.214317 161.101532,70.053787 
	C161.101532,75.512894 160.949142,80.772354 161.237503,86.007530 
	C161.291443,86.987053 162.984833,88.102036 164.150299,88.730446 
	C165.292953,89.346542 166.727142,89.421906 168.033386,89.734589 
	C167.977234,90.132538 167.921066,90.530487 167.864914,90.928436 
	C162.118622,90.928436 156.372345,90.928436 150.626068,90.928436 
	C155.536850,88.879868 155.076187,84.752098 155.061752,80.784691 
	C155.032639,72.790482 155.053055,64.796097 155.052979,56.342468 
z"/>
<path fill="#0E0E0E" opacity="1.000000" stroke="none" 
	d="
M224.104919,64.875984 
	C228.158295,66.043144 228.416306,69.016533 228.416061,72.131691 
	C228.415695,76.909271 228.415955,81.686852 228.415955,86.792252 
	C230.415741,86.961563 231.966629,87.092865 233.643387,87.234833 
	C231.044418,91.655006 228.497772,92.407593 224.626663,90.427650 
	C223.664078,89.935310 222.266998,90.045921 221.123352,90.224152 
	C220.002884,90.398781 218.972946,91.085571 217.865005,91.421333 
	C213.221207,92.828644 209.327515,91.521240 208.038849,88.172760 
	C206.602432,84.440292 208.257050,81.418091 213.152756,79.381844 
	C215.439346,78.430801 218.086761,78.240623 220.221237,77.069046 
	C221.585205,76.320404 223.195663,74.345650 223.104645,73.030746 
	C222.981262,71.248528 221.609894,69.260475 220.198334,68.010811 
	C219.671387,67.544312 217.391647,68.700005 216.158325,69.498055 
	C215.101456,70.181938 214.567551,71.876411 213.490234,72.270317 
	C212.377029,72.677353 210.887436,72.054985 209.562500,71.882935 
	C209.926956,70.762497 210.026901,68.878738 210.698944,68.645851 
	C214.971664,67.165192 219.370682,66.048874 224.104919,64.875984 
M213.978653,86.707306 
	C216.410019,89.693474 219.933762,89.197418 221.831055,87.258095 
	C223.424347,85.629478 223.137238,82.161194 223.762405,79.119240 
	C215.111298,80.468353 214.140411,81.210846 213.978653,86.707306 
z"/>
<path fill="#0B0B0B" opacity="1.000000" stroke="none" 
	d="
M253.891571,77.085373 
	C258.233856,79.421814 260.236084,82.570053 258.462189,87.113434 
	C256.622894,91.824219 249.809433,93.287804 241.984360,91.411415 
	C237.120255,90.245041 239.500549,86.916222 239.039200,84.397049 
	C239.778381,83.698654 240.517563,83.000267 241.256744,82.301872 
	C241.575394,83.621780 241.510880,85.750229 242.281860,86.115585 
	C244.994720,87.401131 247.954117,88.294167 250.911224,88.855141 
	C251.749634,89.014198 253.620285,87.630203 253.732773,86.783241 
	C253.892471,85.580826 253.227814,83.692841 252.270325,83.030983 
	C249.834015,81.346916 247.001587,80.248749 244.398209,78.790215 
	C241.224762,77.012283 239.234100,74.417885 240.160614,70.600418 
	C241.056854,66.907707 243.850800,65.290573 247.448456,64.789246 
	C255.907715,63.610447 257.929779,64.963486 257.840118,72.910851 
	C256.339722,71.549667 255.509964,70.353241 254.375000,69.862144 
	C252.197586,68.919975 249.880890,68.108246 247.549957,67.815117 
	C246.723785,67.711227 245.094543,69.160561 244.911789,70.108917 
	C244.722488,71.091080 245.549988,72.777008 246.448669,73.360611 
	C248.657532,74.795013 251.162872,75.772888 253.891571,77.085373 
z"/>
<path fill="#040404" opacity="1.000000" stroke="none" 
	d="
M189.934235,45.855484 
	C192.278717,44.722275 194.267227,43.692551 197.055191,42.248852 
	C197.055191,51.793835 197.054245,60.372925 197.055725,68.952011 
	C197.056244,71.943756 197.020584,74.936279 197.076035,77.927071 
	C197.168289,82.904228 195.196182,88.852341 202.796997,90.971375 
	C197.929306,90.971375 193.061600,90.971375 186.715622,90.971375 
	C192.158554,88.522339 191.906479,84.783562 191.853500,80.980377 
	C191.742386,73.003922 191.785706,65.024643 191.834579,57.046936 
	C191.857941,53.232765 191.804504,49.537331 186.048218,48.303276 
	C187.867386,47.095173 188.722824,46.527069 189.934235,45.855484 
z"/>
<path fill="#0F0F0F" opacity="1.000000" stroke="none" 
	d="
M104.626389,78.271042 
	C105.988434,80.838478 106.960785,83.389702 107.911102,86.414246 
	C107.889076,86.887558 107.625870,87.066849 107.625870,87.066849 
	C102.794258,87.493774 101.414253,85.938744 101.928612,81.436569 
	C102.138489,79.599541 101.310898,77.643982 100.978783,75.368179 
	C102.080399,76.080956 103.158546,77.167900 104.626389,78.271042 
z"/>
<path fill="#F1F1F1" opacity="1.000000" stroke="none" 
	d="
M123.311203,87.627960 
	C118.199715,84.113014 116.412277,79.245193 118.262955,74.964935 
	C120.600960,78.612511 123.014008,82.320641 125.287933,86.112213 
	C125.388626,86.280106 124.220566,87.208916 123.311203,87.627960 
z"/>
<path fill="#0F0F0F" opacity="1.000000" stroke="none" 
	d="
M144.110992,103.026123 
	C144.896118,103.159134 146.074371,103.023865 146.385788,103.480164 
	C147.065384,104.476006 147.387299,105.755035 147.644211,106.963249 
	C147.689011,107.173927 146.442566,108.001442 146.233765,107.865623 
	C145.229965,107.212753 144.377563,106.327156 143.173996,105.260628 
	C140.271530,107.584244 137.157990,106.544838 134.017441,103.865189 
	C135.636948,103.322594 137.418594,103.124557 139.881775,103.084717 
	C141.745880,103.170654 142.928436,103.098389 144.110992,103.026123 
z"/>
<path fill="#CDCDCD" opacity="1.000000" stroke="none" 
	d="
M96.701981,51.035812 
	C94.685844,51.049438 92.669716,51.063065 90.247787,50.766510 
	C89.884865,50.261341 89.927727,50.066357 90.249817,49.940323 
	C90.925659,49.868881 91.322258,49.728485 91.718849,49.588089 
	C91.477524,49.245567 91.236198,48.903053 90.976028,48.567276 
	C90.957176,48.574013 90.991478,48.542191 90.991478,48.542191 
	C91.091057,43.872208 95.439354,46.624775 97.643127,45.033440 
	C97.810478,46.526375 97.591476,47.941757 97.344025,49.796246 
	C97.111038,50.502171 96.906509,50.768990 96.701981,51.035812 
z"/>
<path fill="#F1F1F1" opacity="1.000000" stroke="none" 
	d="
M100.019867,67.261650 
	C100.019867,67.261650 100.032242,67.622604 99.816864,67.808617 
	C99.601479,67.994629 99.186928,67.995316 99.111542,67.710175 
	C98.701225,67.280807 98.366295,67.136589 97.798340,67.030495 
	C97.565308,67.068619 97.293663,66.683594 97.465820,66.236427 
	C97.759384,65.493782 97.880783,65.198311 98.331375,64.883102 
	C98.440086,64.246780 98.219612,63.630196 98.071152,62.927620 
	C98.143173,62.841625 98.020836,62.653576 98.020836,62.653576 
	C98.682327,61.444397 99.343811,60.235214 100.005295,59.026031 
	C100.529541,59.115891 101.053787,59.205746 101.578033,59.295601 
	C101.200111,58.404293 100.822189,57.512985 100.230812,56.118256 
	C104.109680,57.007465 104.693153,58.830097 103.155640,61.612091 
	C102.461464,62.868130 101.706627,64.090645 100.720871,65.823990 
	C100.314911,66.633621 100.167389,66.947632 100.019867,67.261650 
z"/>
<path fill="#F1F1F1" opacity="1.000000" stroke="none" 
	d="
M113.519951,66.170929 
	C113.838928,64.599815 114.420425,63.025806 115.001930,61.451797 
	C115.407372,61.364441 115.812813,61.277084 116.218246,61.189728 
	C116.651314,65.184387 117.084373,69.179047 117.517433,73.173706 
	C116.954842,73.254700 116.392250,73.335693 115.829659,73.416687 
	C115.446960,70.913216 115.065880,68.409485 114.661942,65.909447 
	C114.657257,65.880463 114.346031,65.862450 114.197464,65.906021 
	C114.046509,65.950294 113.919800,66.077278 113.519951,66.170929 
z"/>
<path fill="#ECECEC" opacity="1.000000" stroke="none" 
	d="
M118.907089,42.602936 
	C120.790100,43.263226 122.448372,43.925888 123.990158,44.795170 
	C124.444298,45.051216 124.816612,45.912319 124.771614,46.458675 
	C124.730263,46.960728 124.171051,47.640820 123.676025,47.845043 
	C121.917778,48.570427 116.851822,45.212326 116.891777,43.333244 
	C116.896637,43.104630 118.028374,42.899982 118.907089,42.602936 
z"/>
<path fill="#040404" opacity="1.000000" stroke="none" 
	d="
M96.746811,51.285084 
	C96.906509,50.768990 97.111038,50.502171 97.407791,50.093781 
	C100.030060,49.631863 102.560097,49.311516 105.611862,49.322868 
	C106.055161,50.088852 105.976746,50.523140 105.898338,50.957436 
	C103.502975,51.906548 101.107605,52.855656 98.348938,53.476334 
	C97.656540,52.764206 97.327446,52.380508 96.998344,51.996811 
	C96.929436,51.842659 96.860535,51.688507 96.746811,51.285084 
z"/>
<path fill="#F1F1F1" opacity="1.000000" stroke="none" 
	d="
M144.122665,102.690628 
	C142.928436,103.098389 141.745880,103.170654 140.278564,103.066856 
	C139.423584,101.569069 138.853378,100.247337 137.867447,97.961998 
	C141.013641,99.256012 143.463242,100.263519 145.960983,101.554047 
	C145.384201,102.009750 144.759277,102.182442 144.122665,102.690628 
z"/>
<path fill="#141414" opacity="1.000000" stroke="none" 
	d="
M101.047508,40.955414 
	C102.085625,40.121834 103.123734,39.288254 103.969551,38.609089 
	C105.249176,39.761135 106.494865,40.882629 107.724449,42.737968 
	C108.057236,43.789223 108.406128,44.106636 108.755013,44.424049 
	C107.882439,43.891823 107.009872,43.359592 105.265930,42.858902 
	C103.906654,43.191814 103.418755,43.493187 102.930855,43.794556 
	C102.473785,44.123802 102.016716,44.453045 101.270645,44.779099 
	C100.980453,43.777218 100.979279,42.778534 100.990784,41.387436 
	C101.003471,40.995022 101.047508,40.955414 101.047508,40.955414 
z"/>
<path fill="#F1F1F1" opacity="1.000000" stroke="none" 
	d="
M110.971695,54.787533 
	C112.407883,53.417793 113.853844,52.396042 115.674522,51.109516 
	C115.433647,56.222160 114.520348,56.865410 110.971695,54.787533 
z"/>
<path fill="#0F0F0F" opacity="1.000000" stroke="none" 
	d="
M121.346642,107.021645 
	C123.366066,104.983246 125.787071,105.364113 127.990921,108.497665 
	C125.878662,108.264435 123.750656,107.642494 121.346642,107.021645 
z"/>
<path fill="#F1F1F1" opacity="1.000000" stroke="none" 
	d="
M109.074219,67.855881 
	C108.464539,66.582809 107.953888,65.642982 107.304970,64.448692 
	C112.502640,63.412380 110.416451,67.579391 111.085388,69.750053 
	C110.448006,69.229744 109.810623,68.709435 109.074219,67.855881 
z"/>
<path fill="#0F0F0F" opacity="1.000000" stroke="none" 
	d="
M90.168480,74.990013 
	C91.123390,77.321640 92.078300,79.653275 93.024139,82.372528 
	C92.064247,80.756226 91.113434,78.752281 90.096497,76.125473 
	C90.076401,75.331741 90.122437,75.160873 90.168480,74.990013 
z"/>
<path fill="#141414" opacity="1.000000" stroke="none" 
	d="
M97.461365,71.995659 
	C97.461365,71.995659 97.109184,71.763657 97.119553,71.322807 
	C97.319633,70.461655 97.509354,70.041351 97.873825,69.505981 
	C98.048569,69.390923 98.312202,69.065567 98.403427,69.058624 
	C98.494652,69.051689 98.675385,69.023041 98.820572,69.288208 
	C99.629036,69.340500 100.292305,69.127625 101.306961,68.958130 
	C102.091942,69.029816 102.525528,69.058121 102.965271,69.044739 
	C102.971420,69.003059 102.915123,69.065758 102.797348,69.371307 
	C102.848267,69.815445 103.016945,69.954041 103.185616,70.092636 
	C103.291489,70.570068 103.397354,71.047493 102.939697,71.725388 
	C101.566925,71.965332 100.757668,72.004807 99.948418,72.044273 
	C99.948418,72.044273 99.976440,71.997505 99.570961,71.911575 
	C98.597443,71.882317 98.029404,71.938988 97.461365,71.995659 
z"/>
<path fill="#ECECEC" opacity="1.000000" stroke="none" 
	d="
M108.933868,44.576263 
	C108.406128,44.106636 108.057236,43.789223 108.087540,42.874557 
	C109.425850,42.181366 110.384972,42.085430 111.803711,42.002640 
	C112.536026,41.992355 112.786713,42.055824 113.015396,42.206188 
	C111.714508,43.046951 110.413620,43.887714 108.933868,44.576263 
z"/>
<path fill="#ECECEC" opacity="1.000000" stroke="none" 
	d="
M113.223709,45.965881 
	C114.233192,46.734341 114.873436,47.519325 115.513687,48.304310 
	C114.483330,48.405972 113.452972,48.507637 112.422623,48.609303 
	C112.566574,47.733669 112.710526,46.858036 113.223709,45.965881 
z"/>
<path fill="#0F0F0F" opacity="1.000000" stroke="none" 
	d="
M110.903847,83.120216 
	C110.092323,82.092918 109.569260,80.764427 109.382843,79.198380 
	C110.147507,78.955269 110.575523,78.949715 111.003540,78.944153 
	C111.066460,80.235779 111.129379,81.527397 110.903847,83.120216 
z"/>
<path fill="#0F0F0F" opacity="1.000000" stroke="none" 
	d="
M96.877029,52.270798 
	C97.327446,52.380508 97.656540,52.764206 98.000626,53.415131 
	C97.574539,54.419739 97.029976,55.116253 96.718559,55.904839 
	C96.328094,56.893616 96.128868,57.957916 95.419525,58.922974 
	C94.988419,58.413605 94.984886,57.970882 95.062996,56.868332 
	C95.124069,55.796085 95.103493,55.383659 95.082924,54.971237 
	C95.640518,54.162422 96.198112,53.353603 96.877029,52.270798 
z"/>
<path fill="#F1F1F1" opacity="1.000000" stroke="none" 
	d="
M133.322083,97.624634 
	C131.931610,97.149284 130.868317,96.789047 129.805038,96.428810 
	C130.265778,95.965942 130.726501,95.503075 131.187241,95.040207 
	C134.865875,95.352356 134.865875,95.352356 133.322083,97.624634 
z"/>
<path fill="#828282" opacity="1.000000" stroke="none" 
	d="
M98.002182,64.902832 
	C97.880783,65.198311 97.759384,65.493782 97.429764,66.364273 
	C97.221542,66.939285 96.967934,67.018463 96.849716,66.668449 
	C96.506233,66.231064 96.280968,66.143692 95.944366,65.727470 
	C95.196579,65.243439 94.560135,65.088257 93.923691,64.933083 
	C93.912582,64.546638 93.901474,64.160202 93.869461,63.484291 
	C94.963188,63.075890 96.077827,62.956955 97.606651,62.745796 
	C98.020836,62.653576 98.143173,62.841625 97.907310,63.221706 
	C97.781693,64.035469 97.891937,64.469154 98.002182,64.902832 
z"/>
<path fill="#F1F1F1" opacity="1.000000" stroke="none" 
	d="
M129.283844,90.863113 
	C129.443649,91.961441 129.359238,92.805962 129.274826,93.650490 
	C128.583694,93.139893 127.892570,92.629295 127.201447,92.118690 
	C127.814163,91.615562 128.426880,91.112434 129.283844,90.863113 
z"/>
<path fill="#6A6A6A" opacity="1.000000" stroke="none" 
	d="
M131.833847,109.624115 
	C133.328613,109.206238 134.864288,109.183067 136.680710,109.418777 
	C135.265900,109.791382 133.570312,109.905098 131.833847,109.624115 
z"/>
<path fill="#CDCDCD" opacity="1.000000" stroke="none" 
	d="
M90.083366,74.635277 
	C90.122437,75.160873 90.076401,75.331741 89.977097,75.762650 
	C89.249802,74.812294 88.575775,73.601898 87.986801,72.137222 
	C91.680817,70.298370 89.405998,73.441269 90.083366,74.635277 
z"/>
<path fill="#0F0F0F" opacity="1.000000" stroke="none" 
	d="
M160.742432,103.762474 
	C160.616791,104.483749 160.198303,105.097420 159.779831,105.711090 
	C159.282928,104.989113 158.786026,104.267136 158.486633,103.325363 
	C159.272629,103.288666 159.861099,103.471771 160.742432,103.762474 
z"/>
<path fill="#0F0F0F" opacity="1.000000" stroke="none" 
	d="
M144.389679,110.894844 
	C145.286026,110.600319 146.581207,110.369232 147.943588,110.469681 
	C146.936691,110.853569 145.862595,110.905922 144.389679,110.894844 
z"/>
<path fill="#0F0F0F" opacity="1.000000" stroke="none" 
	d="
M99.915359,92.406357 
	C100.847733,92.790436 101.927948,93.483810 103.016960,94.562454 
	C102.038246,94.203697 101.050720,93.459671 99.915359,92.406357 
z"/>
<path fill="#F1F1F1" opacity="1.000000" stroke="none" 
	d="
M117.976288,91.534836 
	C117.563324,91.888786 117.117210,91.943291 116.214508,91.697296 
	C115.514557,90.601357 115.271194,89.805901 115.027840,89.010452 
	C115.207275,89.004234 115.386719,88.998024 115.834595,89.013443 
	C116.716408,89.768517 117.329773,90.501953 117.976288,91.534836 
z"/>
<path fill="#0F0F0F" opacity="1.000000" stroke="none" 
	d="
M107.101486,99.263733 
	C107.991516,98.974983 108.859535,98.957779 109.727554,98.940575 
	C109.515137,99.603706 109.302711,100.266830 108.782364,101.050194 
	C108.009453,100.625374 107.544464,100.080330 107.101486,99.263733 
z"/>
<path fill="#F1F1F1" opacity="1.000000" stroke="none" 
	d="
M100.281265,72.083061 
	C100.757668,72.004807 101.566925,71.965332 102.701294,72.004501 
	C102.605438,72.692802 102.184456,73.302452 101.464661,73.960686 
	C100.981934,73.380127 100.798019,72.750992 100.281265,72.083061 
z"/>
<path fill="#F1F1F1" opacity="1.000000" stroke="none" 
	d="
M110.975235,78.627411 
	C110.575523,78.949715 110.147507,78.955269 109.398987,78.890190 
	C109.078476,78.819557 109.011734,78.369286 109.017403,78.141754 
	C109.023071,77.288284 109.023071,76.662346 109.023071,74.736626 
	C110.038879,76.623726 110.492905,77.467194 110.975235,78.627411 
z"/>
<path fill="#F1F1F1" opacity="1.000000" stroke="none" 
	d="
M111.268433,58.992592 
	C111.422165,59.621128 111.376907,60.054707 111.331650,60.488285 
	C110.957848,60.309700 110.584030,60.131115 110.210220,59.952522 
	C110.496628,59.567562 110.783035,59.182598 111.268433,58.992592 
z"/>
<path fill="#6A6A6A" opacity="1.000000" stroke="none" 
	d="
M102.136566,67.535561 
	C103.112885,67.405182 104.089211,67.274803 104.848846,67.638947 
	C104.402817,68.434509 104.173470,68.735542 103.685730,69.003357 
	C103.256592,69.002014 103.085861,69.033890 102.915123,69.065758 
	C102.915123,69.065758 102.971420,69.003059 102.853424,68.607231 
	C102.535805,67.986122 102.336189,67.760841 102.136566,67.535561 
z"/>
<path fill="#141414" opacity="1.000000" stroke="none" 
	d="
M113.319618,42.126007 
	C112.786713,42.055824 112.536026,41.992355 112.087097,41.928104 
	C111.923676,41.540939 111.936478,41.241447 111.971893,40.492882 
	C113.130035,40.517834 114.265564,40.991867 115.728722,41.602669 
	C114.802765,41.797615 114.213303,41.921719 113.319618,42.126007 
z"/>
<path fill="#ECECEC" opacity="1.000000" stroke="none" 
	d="
M106.220306,50.940491 
	C105.976746,50.523140 106.055161,50.088852 106.049438,49.334324 
	C106.527847,49.231422 107.090385,49.448753 107.652931,49.666088 
	C107.282715,50.085243 106.912498,50.504395 106.220306,50.940491 
z"/>
<path fill="#0F0F0F" opacity="1.000000" stroke="none" 
	d="
M173.672119,103.989525 
	C173.690521,104.578400 173.376953,105.082390 173.063370,105.586380 
	C172.737823,105.288361 172.412277,104.990349 172.040253,104.405228 
	C172.442551,104.046967 172.891342,103.975807 173.672119,103.989525 
z"/>
<path fill="#ECECEC" opacity="1.000000" stroke="none" 
	d="
M103.076485,44.048637 
	C103.418755,43.493187 103.906654,43.191814 104.701591,42.992302 
	C104.413124,43.497017 103.817619,43.899868 103.076485,44.048637 
z"/>
<path fill="#0F0F0F" opacity="1.000000" stroke="none" 
	d="
M87.883217,67.390434 
	C88.378845,67.268242 88.959526,67.453865 89.540207,67.639488 
	C89.205475,68.068832 88.870750,68.498184 88.212875,68.941925 
	C87.915916,68.536964 87.942093,68.117607 87.883217,67.390434 
z"/>
<path fill="#0F0F0F" opacity="1.000000" stroke="none" 
	d="
M160.444778,99.956337 
	C159.858612,99.805130 159.513077,99.541100 159.028046,98.977661 
	C159.487503,99.066673 160.086456,99.455093 160.444778,99.956337 
z"/>
<path fill="#141414" opacity="1.000000" stroke="none" 
	d="
M103.944122,69.036575 
	C104.173470,68.735542 104.402817,68.434509 104.885063,67.998413 
	C105.538948,68.263512 105.939949,68.663681 106.340942,69.063843 
	C105.805801,69.468842 105.270660,69.873840 104.386398,69.910446 
	C104.006226,69.373573 103.975174,69.205078 103.944122,69.036575 
z"/>
<path fill="#0F0F0F" opacity="1.000000" stroke="none" 
	d="
M122.526268,94.731308 
	C122.101379,95.318230 121.644218,95.886154 121.156433,96.426430 
	C121.146736,96.437172 120.778732,96.124413 120.577896,95.962585 
	C120.966911,95.588089 121.355927,95.213585 122.109657,94.733154 
	C122.474365,94.627228 122.490677,94.709305 122.526268,94.731308 
z"/>
<path fill="#F1F1F1" opacity="1.000000" stroke="none" 
	d="
M127.012726,98.638084 
	C126.411591,98.481567 125.796410,98.040871 125.331017,97.287270 
	C125.986755,97.434212 126.492714,97.894058 127.012726,98.638084 
z"/>
<path fill="#0F0F0F" opacity="1.000000" stroke="none" 
	d="
M168.996323,103.484726 
	C168.884232,104.181831 168.674423,104.665489 168.464600,105.149155 
	C168.311111,104.907845 168.157623,104.666542 167.981918,104.146545 
	C168.272659,103.669006 168.585617,103.470146 168.996323,103.484726 
z"/>
<path fill="#565656" opacity="1.000000" stroke="none" 
	d="
M102.993309,95.308060 
	C103.580154,94.986420 104.209869,94.922844 104.839577,94.859276 
	C104.478760,95.242409 104.117943,95.625534 103.459297,96.041374 
	C103.119698,95.904762 103.077934,95.735435 102.993309,95.308060 
z"/>
<path fill="#F1F1F1" opacity="1.000000" stroke="none" 
	d="
M114.862831,58.247059 
	C115.074280,58.588615 115.046402,58.961670 115.018524,59.334728 
	C114.758598,59.256287 114.498672,59.177845 114.238754,59.099403 
	C114.367004,58.825790 114.495255,58.552177 114.862831,58.247059 
z"/>
<path fill="#ECECEC" opacity="1.000000" stroke="none" 
	d="
M100.955574,68.914749 
	C100.292305,69.127625 99.629036,69.340500 98.937866,69.025986 
	C99.002289,68.330833 99.094604,68.163078 99.186928,67.995316 
	C99.186928,67.995316 99.601479,67.994629 99.809135,67.989029 
	C100.016792,67.983437 100.476845,67.987694 100.722351,68.215729 
	C100.967857,68.443764 100.955574,68.914749 100.955574,68.914749 
z"/>
<path fill="#0F0F0F" opacity="1.000000" stroke="none" 
	d="
M141.228149,110.911713 
	C141.123611,110.464287 141.283936,110.041817 141.444260,109.619347 
	C141.619476,109.856194 141.794708,110.093040 141.990021,110.570625 
	C141.837738,110.853134 141.665375,110.894897 141.228149,110.911713 
z"/>
<path fill="#A4A4A4" opacity="1.000000" stroke="none" 
	d="
M101.306961,68.958130 
	C100.955574,68.914749 100.967857,68.443764 100.952278,68.208618 
	C101.212250,67.897507 101.481735,67.804047 101.940857,67.614334 
	C102.336189,67.760841 102.535805,67.986122 102.847275,68.648911 
	C102.525528,69.058121 102.091942,69.029816 101.306961,68.958130 
z"/>
<path fill="#141414" opacity="1.000000" stroke="none" 
	d="
M95.480362,29.386799 
	C95.188751,29.339790 95.129822,29.109438 95.030449,28.524736 
	C95.231010,28.514742 95.472023,28.859098 95.480362,29.386799 
z"/>
<path fill="#ECECEC" opacity="1.000000" stroke="none" 
	d="
M109.405212,47.404800 
	C109.507538,47.330502 109.560318,47.604378 109.560318,47.604378 
	C109.560318,47.604378 109.302895,47.479103 109.405212,47.404800 
z"/>
<path fill="#0F0F0F" opacity="1.000000" stroke="none" 
	d="
M92.026779,27.687357 
	C91.918640,27.962151 91.718597,27.973404 91.218170,27.964544 
	C91.256821,27.770893 91.595848,27.597355 92.026779,27.687357 
z"/>
<path fill="#A4A4A4" opacity="1.000000" stroke="none" 
	d="
M103.685730,69.003357 
	C103.975174,69.205078 104.006226,69.373573 103.985413,69.793777 
	C103.933540,70.045486 103.569939,70.233444 103.377777,70.163040 
	C103.016945,69.954041 102.848267,69.815445 102.797348,69.371307 
	C103.085861,69.033890 103.256592,69.002014 103.685730,69.003357 
z"/>
<path fill="#F1F1F1" opacity="1.000000" stroke="none" 
	d="
M136.538055,96.564224 
	C136.475693,96.604355 136.600433,96.524086 136.538055,96.564224 
z"/>
<path fill="#0F0F0F" opacity="1.000000" stroke="none" 
	d="
M90.675980,27.998520 
	C90.956192,28.123405 90.968597,28.329628 90.958191,28.844978 
	C90.759651,28.796022 90.583916,28.437941 90.675980,27.998520 
z"/>
<path fill="#DADADA" opacity="1.000000" stroke="none" 
	d="
M100.218956,67.101883 
	C100.167389,66.947632 100.314911,66.633621 100.698563,66.203690 
	C100.762489,66.372559 100.590263,66.657333 100.218956,67.101883 
z"/>
<path fill="#F1F1F1" opacity="1.000000" stroke="none" 
	d="
M127.035446,100.669289 
	C127.042015,100.866829 126.578842,100.939026 126.305557,100.957794 
	C126.032280,100.976555 126.152687,100.890991 126.152687,100.890991 
	C126.048592,100.510841 126.177765,100.243309 126.783600,100.082413 
	C127.026993,100.076454 127.028870,100.471748 127.035446,100.669289 
z"/>
<path fill="#DADADA" opacity="1.000000" stroke="none" 
	d="
M93.682785,65.167000 
	C94.560135,65.088257 95.196579,65.243439 95.865929,66.038742 
	C96.222321,67.399895 96.545807,68.120918 97.068825,69.045151 
	C97.411926,69.372597 97.555496,69.496826 97.699074,69.621048 
	C97.509354,70.041351 97.319633,70.461655 97.078423,71.224472 
	C96.568642,71.098320 96.110352,70.629646 95.317474,69.803711 
	C94.982880,69.446449 94.836227,68.989220 94.830048,68.641296 
	C94.310135,68.333626 93.796417,68.373871 93.339325,68.478233 
	C93.395958,68.542351 93.271683,68.421082 93.271683,68.421082 
	C93.328415,67.414360 93.385139,66.407639 93.682785,65.167000 
z"/>
<path fill="#222222" opacity="1.000000" stroke="none" 
	d="
M107.976456,86.754440 
	C108.704567,87.843887 109.345306,89.066452 109.992905,90.644508 
	C109.999779,91.000000 110.011246,90.985886 110.011246,90.985886 
	C109.576790,91.012802 109.142342,91.039719 108.109451,91.065598 
	C107.326668,91.059273 107.142326,91.053993 106.957977,91.048714 
	C107.151360,89.902893 107.344734,88.757072 107.581993,87.339050 
	C107.625870,87.066849 107.889076,86.887558 107.976456,86.754440 
z"/>
<path fill="#141414" opacity="1.000000" stroke="none" 
	d="
M89.970581,49.871372 
	C89.927727,50.066357 89.884865,50.261341 89.845840,50.755768 
	C88.446693,50.533493 87.043709,50.011780 85.640724,49.490067 
	C85.837822,48.899040 86.034920,48.308014 86.232018,47.716988 
	C87.562012,48.022717 88.892006,48.328449 90.606735,48.588188 
	C90.991478,48.542191 90.957176,48.574013 90.670204,48.856705 
	C90.245674,49.383392 90.108124,49.627384 89.970581,49.871372 
z"/>
<path fill="#0F0F0F" opacity="1.000000" stroke="none" 
	d="
M114.695320,89.037308 
	C115.271194,89.805901 115.514557,90.601357 115.876007,91.711166 
	C116.020248,92.741959 116.046410,93.458397 116.030777,94.585068 
	C115.988976,94.995300 115.857986,95.080406 115.857986,95.080406 
	C115.359589,93.074997 114.861191,91.069580 114.695320,89.037308 
z"/>
<path fill="#0F0F0F" opacity="1.000000" stroke="none" 
	d="
M116.047119,94.943153 
	C117.342476,97.663361 117.342476,97.663361 112.740936,97.216072 
	C114.038246,96.450890 114.772301,96.017929 115.682167,95.332687 
	C115.857986,95.080406 115.988976,94.995300 116.047119,94.943153 
z"/>
<path fill="#565656" opacity="1.000000" stroke="none" 
	d="
M97.622437,72.309555 
	C98.029404,71.938988 98.597443,71.882317 99.587807,71.933006 
	C99.956596,73.151520 99.903061,74.262672 99.650696,75.732780 
	C99.274857,76.132225 99.097855,76.172707 98.920845,76.213196 
	C98.541733,75.016609 98.162621,73.820030 97.622437,72.309555 
z"/>
<path fill="#0F0F0F" opacity="1.000000" stroke="none" 
	d="
M93.214447,68.790718 
	C93.271683,68.421082 93.395958,68.542351 93.705055,68.693390 
	C94.288185,68.892693 94.562210,68.940956 94.836227,68.989220 
	C94.836227,68.989220 94.982880,69.446449 95.003174,69.685669 
	C94.721535,70.451714 94.419594,70.978523 94.117661,71.505341 
	C93.797508,70.723679 93.477364,69.942017 93.214447,68.790718 
z"/>
<path fill="#141414" opacity="1.000000" stroke="none" 
	d="
M98.550064,37.408554 
	C97.927124,37.099773 97.544785,36.560310 97.162445,36.020844 
	C97.549698,35.814228 97.936943,35.607613 98.324196,35.400997 
	C98.479683,35.993286 98.635170,36.585575 98.550064,37.408554 
z"/>
<path fill="#0F0F0F" opacity="1.000000" stroke="none" 
	d="
M132.626007,106.870964 
	C132.036163,106.587532 131.720383,106.278778 131.404602,105.970024 
	C131.773514,105.784462 132.142426,105.598900 132.511337,105.413338 
	C132.640915,105.890770 132.770508,106.368202 132.626007,106.870964 
z"/>
<path fill="#0F0F0F" opacity="1.000000" stroke="none" 
	d="
M99.679245,81.988777 
	C99.169060,82.192009 98.693802,82.113487 98.218544,82.034958 
	C98.289879,81.614624 98.361214,81.194298 98.432541,80.773964 
	C98.859749,81.084984 99.286964,81.395996 99.679245,81.988777 
z"/>
<path fill="#F1F1F1" opacity="1.000000" stroke="none" 
	d="
M94.768303,54.991280 
	C95.103493,55.383659 95.124069,55.796085 95.049835,56.536499 
	C94.419029,56.630585 93.883026,56.396675 93.347031,56.162769 
	C93.715919,55.778954 94.084801,55.395138 94.768303,54.991280 
z"/>
<path fill="#0F0F0F" opacity="1.000000" stroke="none" 
	d="
M119.607849,99.533318 
	C120.072594,99.588066 120.355194,99.818085 120.637787,100.048096 
	C120.449921,100.228195 120.262054,100.408302 120.074188,100.588409 
	C119.858025,100.295135 119.641869,100.001862 119.607849,99.533318 
z"/>
<path fill="#0F0F0F" opacity="1.000000" stroke="none" 
	d="
M126.074875,100.916313 
	C125.671768,101.367172 125.226067,101.878273 124.780357,102.389374 
	C124.619888,102.201805 124.459427,102.014244 124.298958,101.826675 
	C124.728539,101.546829 125.158127,101.266983 125.870193,100.939064 
	C126.152687,100.890991 126.032280,100.976555 126.074875,100.916313 
z"/>
<path fill="#141414" opacity="1.000000" stroke="none" 
	d="
M95.737305,41.386345 
	C95.553909,41.058025 95.596161,40.682343 95.638412,40.306664 
	C95.900185,40.398926 96.161949,40.491188 96.423721,40.583447 
	C96.270134,40.835293 96.116539,41.087139 95.737305,41.386345 
z"/>
<path fill="#0F0F0F" opacity="1.000000" stroke="none" 
	d="
M106.871414,91.292740 
	C107.142326,91.053993 107.326668,91.059273 107.785004,91.107887 
	C107.666130,91.659370 107.273270,92.167511 106.880402,92.675659 
	C106.848557,92.296028 106.816704,91.916405 106.871414,91.292740 
z"/>
<path fill="#141414" opacity="1.000000" stroke="none" 
	d="
M100.979988,41.013065 
	C100.639992,40.304497 100.323486,39.577881 100.006973,38.851265 
	C100.251312,38.790920 100.495644,38.730576 100.739983,38.670231 
	C100.847809,39.223724 100.955643,39.777222 101.055489,40.643066 
	C101.047508,40.955414 101.003471,40.995022 100.979988,41.013065 
z"/>
<path fill="#141414" opacity="1.000000" stroke="none" 
	d="
M96.848083,33.656700 
	C97.201698,33.415813 97.709671,33.375076 98.217644,33.334335 
	C97.812576,33.508503 97.407509,33.682674 96.848083,33.656700 
z"/>
<path fill="#0F0F0F" opacity="1.000000" stroke="none" 
	d="
M98.836487,76.445236 
	C99.097855,76.172707 99.274857,76.132225 99.715294,76.022598 
	C99.665062,76.533676 99.351395,77.113899 99.037720,77.694115 
	C98.942520,77.355171 98.847321,77.016228 98.836487,76.445236 
z"/>
<path fill="#222222" opacity="1.000000" stroke="none" 
	d="
M109.992737,91.005852 
	C110.133141,91.171967 110.280586,91.332230 110.428024,91.492493 
	C110.320229,91.437637 110.212433,91.382790 110.057938,91.156906 
	C110.011246,90.985886 109.999779,91.000000 109.992737,91.005852 
z"/>
<path fill="#0F0F0F" opacity="1.000000" stroke="none" 
	d="
M90.575241,58.445557 
	C90.624855,58.519444 90.427757,58.545105 90.427757,58.545105 
	C90.427757,58.545105 90.525620,58.371666 90.575241,58.445557 
z"/>
<path fill="#0F0F0F" opacity="1.000000" stroke="none" 
	d="
M112.555679,101.465225 
	C112.591568,101.523521 112.519791,101.406921 112.555679,101.465225 
z"/>
<path fill="#EFEFEF" opacity="1.000000" stroke="none" 
	d="
M213.860062,86.371323 
	C214.140411,81.210846 215.111298,80.468353 223.762405,79.119240 
	C223.137238,82.161194 223.424347,85.629478 221.831055,87.258095 
	C219.933762,89.197418 216.410019,89.693474 213.860062,86.371323 
z"/>
<path fill="#040404" opacity="1.000000" stroke="none" 
	d="
M90.249817,49.940323 
	C90.108124,49.627384 90.245674,49.383392 90.689056,48.849968 
	C91.236198,48.903053 91.477524,49.245567 91.718849,49.588089 
	C91.322258,49.728485 90.925659,49.868881 90.249817,49.940323 
z"/>
<path fill="#222222" opacity="1.000000" stroke="none" 
	d="
M99.111542,67.710175 
	C99.094604,68.163078 99.002289,68.330833 98.792679,68.760818 
	C98.675385,69.023041 98.494652,69.051689 98.253441,68.726013 
	C98.029518,67.925560 98.046806,67.450790 98.052650,66.981064 
	C98.041199,66.986107 98.031364,66.992371 98.031364,66.992371 
	C98.366295,67.136589 98.701225,67.280807 99.111542,67.710175 
z"/>
<path fill="#0E0E0E" opacity="1.000000" stroke="none" 
	d="
M98.331367,64.883102 
	C97.891937,64.469154 97.781693,64.035469 97.835289,63.307701 
	C98.219612,63.630196 98.440086,64.246780 98.331367,64.883102 
z"/>
<path fill="#222222" opacity="1.000000" stroke="none" 
	d="
M96.967934,67.018463 
	C96.967934,67.018463 97.221542,66.939285 97.257599,66.811440 
	C97.293663,66.683594 97.565308,67.068619 97.798340,67.030495 
	C98.031364,66.992371 98.041199,66.986107 97.776237,66.786697 
	C97.349953,66.744476 97.188622,66.901657 97.012627,67.045425 
	C96.997963,67.032005 96.967934,67.018463 96.967934,67.018463 
z"/>
<path fill="#DADADA" opacity="1.000000" stroke="none" 
	d="
M97.027290,67.058846 
	C97.188622,66.901657 97.349953,66.744476 97.787689,66.781654 
	C98.046806,67.450790 98.029518,67.925560 98.162216,68.732956 
	C98.312202,69.065567 98.048569,69.390923 97.873825,69.505981 
	C97.555496,69.496826 97.411926,69.372597 97.131683,68.749184 
	C97.005783,67.852951 97.016533,67.455902 97.027290,67.058846 
z"/>
<path fill="#141414" opacity="1.000000" stroke="none" 
	d="
M97.012627,67.045425 
	C97.016533,67.455902 97.005783,67.852951 96.932159,68.545975 
	C96.545807,68.120918 96.222321,67.399895 95.977272,66.367599 
	C96.280968,66.143692 96.506233,66.231064 96.849716,66.668449 
	C96.967934,67.018463 96.997963,67.032005 97.012627,67.045425 
z"/>
<path fill="#040404" opacity="1.000000" stroke="none" 
	d="
M94.830048,68.641296 
	C94.562210,68.940956 94.288185,68.892693 93.648422,68.629272 
	C93.796417,68.373871 94.310135,68.333626 94.830048,68.641296 
z"/>
</svg>