<svg version="1.1" id="Layer_1" xmlns="http://www.w3.org/2000/svg" xmlns:xlink="http://www.w3.org/1999/xlink" x="0px" y="0px"
	 width="100%" viewBox="0 0 318 159" enable-background="new 0 0 318 159" xml:space="preserve">
<path fill="#FFFEFE" opacity="1.000000" stroke="none" 
	d="
M189.000000,160.000000 
	C126.000008,160.000000 63.500015,160.000000 1.000011,160.000000 
	C1.000000,108.333344 1.043077,56.666576 0.902571,5.000306 
	C0.893257,1.575157 1.575920,0.900631 5.000066,0.904517 
	C108.333252,1.021778 211.666626,1.021773 314.999786,0.904535 
	C318.423676,0.900650 319.107178,1.574707 319.097534,5.000195 
	C318.955780,55.333122 318.955841,105.666702 319.097534,155.999634 
	C319.107178,159.424744 318.425842,160.110641 314.999725,160.098267 
	C273.166901,159.947083 231.333359,160.000000 189.000000,160.000000 
z"/>
<path fill="#F37A2A" opacity="1.000000" stroke="none" 
	d="
M41.242100,47.235001 
	C66.884407,24.175602 100.804886,40.247639 106.926842,61.452484 
	C95.767021,52.302662 83.337280,48.662758 69.663635,48.668606 
	C56.023506,48.674442 43.599510,52.312321 32.528957,60.698315 
	C33.976326,55.221256 37.277046,51.216949 41.242100,47.235001 
z"/>
<path fill="#F37929" opacity="1.000000" stroke="none" 
	d="
M56.950066,118.266342 
	C44.252384,114.566017 36.574619,106.017853 31.429483,94.610794 
	C42.220455,103.790344 54.826843,107.622032 68.700005,107.947670 
	C82.656509,108.275269 95.239357,104.247200 106.717361,96.187233 
	C100.877983,109.416061 90.862671,117.247856 76.388458,119.984146 
	C69.696564,120.356598 63.458427,120.101479 56.950066,118.266342 
z"/>
<path fill="#5A5A5A" opacity="1.000000" stroke="none" 
	d="
M185.811798,97.736313 
	C186.044968,100.307678 185.200974,101.243164 182.981873,101.042015 
	C180.957245,100.858490 181.202866,99.445625 181.196198,98.153687 
	C181.145493,88.337654 181.179825,78.520546 181.033752,68.706062 
	C180.993637,66.010017 183.209641,64.871910 184.201157,66.233704 
	C186.353867,69.190369 187.653244,67.270424 189.458328,66.395721 
	C191.265625,65.519951 193.197205,65.088013 195.267807,65.422752 
	C199.948486,66.179443 202.812225,69.111908 203.793030,73.457733 
	C205.080963,79.164330 204.927612,84.920563 199.867004,89.001595 
	C196.177872,91.976616 191.984177,92.218010 187.827362,89.589348 
	C187.442322,89.345863 186.986130,89.214912 185.812683,88.706879 
	C185.812683,91.836067 185.812683,94.559784 185.811798,97.736313 
z"/>
<path fill="#565656" opacity="1.000000" stroke="none" 
	d="
M208.757141,69.169937 
	C208.445663,67.830917 206.959839,66.523651 208.989471,66.088997 
	C210.558029,65.753075 212.285019,65.631470 213.036728,67.854156 
	C214.523239,72.249596 216.174210,76.589554 217.768082,80.948463 
	C218.151642,81.997391 218.023911,83.317070 219.283295,83.925652 
	C223.525238,78.510986 221.309860,69.371796 229.280960,66.083336 
	C226.114227,76.709915 223.402878,87.419159 217.469543,96.837830 
	C216.227585,98.809341 214.480286,100.356560 212.251373,101.302452 
	C211.082993,101.798279 210.115189,102.247742 209.486862,100.626907 
	C209.033981,99.458656 208.715744,98.533302 210.200104,97.745277 
	C211.499039,97.055695 212.720337,96.116447 213.768204,95.077888 
	C216.322998,92.545837 217.244492,89.835976 215.539825,86.166534 
	C213.029724,80.763321 211.075012,75.102104 208.757141,69.169937 
z"/>
<path fill="#555555" opacity="1.000000" stroke="none" 
	d="
M272.234680,78.757751 
	C267.859253,79.003807 263.700745,79.076843 259.542236,79.149147 
	C258.235809,79.171867 256.912231,78.881683 256.892670,81.032127 
	C256.854980,85.164581 263.250610,89.706703 267.138184,88.150719 
	C267.593414,87.968506 268.012848,87.580673 268.470276,87.542137 
	C269.738892,87.435265 271.513275,85.754555 272.070801,88.301735 
	C272.569092,90.578308 270.409637,90.663780 269.164398,90.808472 
	C266.539429,91.113487 263.795898,91.340721 261.216675,90.909065 
	C255.115829,89.888023 251.720367,84.033508 252.596008,76.673546 
	C253.433609,69.633293 258.055145,65.147995 264.228943,65.383553 
	C270.581757,65.625931 274.131531,70.578865 273.314941,78.697960 
	C272.784485,78.746223 272.618011,78.665337 272.234680,78.757751 
z"/>
<path fill="#585858" opacity="1.000000" stroke="none" 
	d="
M169.166214,67.136719 
	C172.831772,65.457672 172.975998,65.455307 173.030594,68.790009 
	C173.135925,75.223061 173.060944,81.659058 172.988098,88.559097 
	C172.803848,89.174713 172.692215,89.325073 172.720245,89.719162 
	C172.510086,91.434799 170.701996,91.093033 170.564575,90.829796 
	C168.643661,87.150009 166.752167,89.497284 164.551498,90.525810 
	C159.231339,93.012299 153.960327,90.210358 152.868698,84.359871 
	C151.887253,79.099907 152.490036,73.750374 152.379425,68.440758 
	C152.347656,66.915024 152.787643,65.969193 154.605392,65.914085 
	C156.756470,65.848885 157.008240,67.027672 156.992798,68.725471 
	C156.955032,72.878914 156.924454,77.035210 157.037704,81.186340 
	C157.126587,84.444611 158.197220,87.303627 162.004517,87.461456 
	C166.002426,87.627182 168.211594,85.178291 168.494675,81.379417 
	C168.802673,77.246269 168.649277,73.078735 168.813171,68.475571 
	C169.279419,67.894608 169.419601,67.645981 169.166214,67.136719 
z"/>
<path fill="#9A999A" opacity="1.000000" stroke="none" 
	d="
M41.930737,118.759674 
	C45.544643,121.222763 47.297665,124.136963 46.117958,128.262863 
	C45.208607,131.443237 43.065781,133.369965 39.880638,133.930054 
	C36.420773,134.538452 33.639427,133.155518 31.884512,130.166214 
	C30.261887,127.402267 30.197075,124.391937 32.016586,121.701889 
	C34.331570,118.279312 37.629444,117.275146 41.930737,118.759674 
z"/>
<path fill="#505050" opacity="1.000000" stroke="none" 
	d="
M241.545853,60.745781 
	C242.318909,63.279156 241.030701,66.805153 245.665527,66.011116 
	C246.679321,65.837433 248.272980,65.539589 248.229248,67.368805 
	C248.196747,68.728096 247.106125,69.470856 245.816315,69.266708 
	C242.002609,68.663063 241.902878,70.954468 242.029633,73.714569 
	C242.159027,76.532372 242.074768,79.360802 242.055344,82.184387 
	C242.035477,85.072929 242.433136,87.651901 246.183517,87.628578 
	C247.409439,87.620956 247.987793,88.041855 248.042038,89.307465 
	C248.117371,91.064308 246.871628,90.966011 245.729263,91.127518 
	C241.136307,91.776848 238.263458,89.650444 237.941467,85.028847 
	C237.711029,81.721565 237.926590,78.385643 237.804657,75.067581 
	C237.715866,72.651459 238.928192,69.677338 234.956573,68.766701 
	C234.043488,68.557343 232.998886,66.252586 235.315262,66.097374 
	C238.701004,65.870522 237.598923,63.567554 237.934265,61.405861 
	C238.997238,60.333717 240.035706,60.008224 241.545853,60.745781 
z"/>
<path fill="#606060" opacity="1.000000" stroke="none" 
	d="
M289.305054,70.089111 
	C285.563934,71.799782 284.933014,74.778091 284.952484,78.105942 
	C284.972931,81.596428 284.905457,85.087837 284.958740,88.577576 
	C284.984253,90.249199 284.331940,90.950523 282.627350,90.963928 
	C280.843475,90.977943 280.338715,90.083237 280.329407,88.509491 
	C280.288940,81.695183 280.236603,74.880806 280.146515,68.067017 
	C280.116028,65.760239 282.644958,65.359406 282.989471,66.117264 
	C285.227783,71.040955 286.801849,66.287872 288.630127,65.972412 
	C289.946198,65.745316 291.679962,64.358421 292.395020,66.621979 
	C293.084381,68.804184 292.195190,70.160072 289.305054,70.089111 
z"/>
<path fill="#515151" opacity="1.000000" stroke="none" 
	d="
M139.871399,75.045563 
	C139.876907,72.396469 139.889557,70.239372 139.885422,68.082306 
	C139.882706,66.672050 140.489624,66.014511 141.977905,66.003548 
	C143.412811,65.992981 144.188324,66.489082 144.168823,67.969101 
	C144.055222,76.591263 144.252396,85.234428 143.680557,93.826302 
	C143.407883,97.923424 140.368774,100.568939 136.069046,101.208900 
	C134.415268,101.455048 133.022537,100.028969 134.272415,99.222885 
	C143.422638,93.321503 138.647675,84.219910 139.864868,76.532112 
	C139.916122,76.208359 139.871414,75.869423 139.871399,75.045563 
z"/>
<path fill="#79797A" opacity="1.000000" stroke="none" 
	d="
M105.135666,37.159515 
	C99.759109,40.983028 94.609756,39.425049 93.983002,34.111115 
	C93.659264,31.366255 94.727959,29.209307 97.100769,27.809063 
	C99.514290,26.384808 101.933434,26.601202 104.036072,28.406178 
	C106.824173,30.799572 107.187447,33.698505 105.135666,37.159515 
z"/>
<path fill="#757676" opacity="1.000000" stroke="none" 
	d="
M30.087475,45.933083 
	C27.619234,44.187813 27.014097,42.088680 28.139938,39.714890 
	C28.958689,37.988586 30.492901,36.938454 32.499218,37.059860 
	C34.506050,37.181297 35.815868,38.434868 36.551079,40.207916 
	C38.032402,43.780289 35.243832,46.424706 30.087475,45.933083 
z"/>
<path fill="#F48334" opacity="1.000000" stroke="none" 
	d="
M56.830811,118.443329 
	C62.855145,118.590469 69.157814,119.014214 75.725204,119.703888 
	C69.552216,121.730186 63.314037,120.476395 56.830811,118.443329 
z"/>
<path fill="#494949" opacity="1.000000" stroke="none" 
	d="
M241.941315,60.644150 
	C240.855469,60.998348 239.821579,61.002247 238.399994,61.002701 
	C239.929367,58.944359 240.443558,58.853249 241.941315,60.644150 
z"/>
<path fill="#404040" opacity="1.000000" stroke="none" 
	d="
M272.259460,78.980560 
	C272.261169,78.803391 272.504547,78.675713 272.849487,78.687576 
	C272.950989,78.827103 272.501190,79.030067 272.259460,78.980560 
z"/>
<path fill="#404040" opacity="1.000000" stroke="none" 
	d="
M168.894257,67.248138 
	C169.161713,67.174042 169.352478,67.344765 169.506287,67.544014 
	C169.527023,67.570885 169.361816,67.741295 169.106018,67.935104 
	C168.888199,67.850609 168.847092,67.676262 168.894257,67.248138 
z"/>
<path fill="#404040" opacity="1.000000" stroke="none" 
	d="
M172.938660,89.732101 
	C172.701309,89.796013 172.527771,89.639595 172.397141,89.453110 
	C172.372177,89.417450 172.516327,89.263329 172.748962,89.094109 
	C172.915482,89.024353 173.017395,89.501305 172.938660,89.732101 
z"/>
<path fill="#FBFBFB" opacity="1.000000" stroke="none" 
	d="
M185.918777,81.524513 
	C185.877640,79.447868 185.783340,77.787361 185.900650,76.141930 
	C186.183731,72.170822 188.250656,69.570786 192.269104,69.133545 
	C196.252884,68.700081 198.243423,71.272163 199.437317,74.683846 
	C200.172668,76.785187 200.160126,78.956146 199.694611,81.050957 
	C198.932541,84.480377 197.252014,87.456032 193.357697,87.726227 
	C189.407120,88.000320 186.760864,86.007553 185.918777,81.524513 
z"/>
<path fill="#F6F6F6" opacity="1.000000" stroke="none" 
	d="
M257.121918,75.304245 
	C257.677368,71.224236 259.567139,68.830795 263.589294,68.748878 
	C266.487396,68.689850 268.205200,70.243439 269.126099,72.866272 
	C269.778961,74.725754 269.855560,76.150124 267.183807,76.020569 
	C263.876556,75.860184 260.563995,75.809357 257.121918,75.304245 
z"/>
</svg>