<?xml version="1.0" encoding="UTF-8"?>
<svg xmlns="http://www.w3.org/2000/svg" xmlns:xlink="http://www.w3.org/1999/xlink" width="59px" height="20px" viewBox="0 0 40 20" version="1.1">
<g id="surface1">
<path style=" stroke:none;fill-rule:nonzero;fill:rgb(100%,99.607843%,99.607843%);fill-opacity:1;" d="M 23.773438 20.125 C 15.847656 20.125 7.988281 20.125 0.125 20.125 C 0.125 13.625 0.132812 7.128906 0.113281 0.628906 C 0.113281 0.199219 0.199219 0.113281 0.628906 0.113281 C 13.625 0.128906 26.625 0.128906 39.621094 0.113281 C 40.054688 0.113281 40.140625 0.199219 40.136719 0.628906 C 40.121094 6.960938 40.121094 13.292969 40.136719 19.621094 C 40.140625 20.054688 40.054688 20.140625 39.621094 20.136719 C 34.359375 20.117188 29.097656 20.125 23.773438 20.125 Z M 23.773438 20.125 "/>
<path style=" stroke:none;fill-rule:nonzero;fill:rgb(95.294118%,47.843137%,16.470588%);fill-opacity:1;" d="M 5.1875 5.941406 C 8.414062 3.039062 12.679688 5.0625 13.449219 7.730469 C 12.046875 6.578125 10.484375 6.121094 8.761719 6.121094 C 7.046875 6.121094 5.484375 6.582031 4.089844 7.636719 C 4.273438 6.945312 4.6875 6.441406 5.1875 5.941406 Z M 5.1875 5.941406 "/>
<path style=" stroke:none;fill-rule:nonzero;fill:rgb(95.294118%,47.45098%,16.078431%);fill-opacity:1;" d="M 7.164062 14.875 C 5.566406 14.410156 4.601562 13.335938 3.953125 11.902344 C 5.3125 13.054688 6.894531 13.539062 8.640625 13.578125 C 10.398438 13.621094 11.980469 13.113281 13.421875 12.097656 C 12.6875 13.761719 11.429688 14.75 9.609375 15.09375 C 8.765625 15.140625 7.980469 15.105469 7.164062 14.875 Z M 7.164062 14.875 "/>
<path style=" stroke:none;fill-rule:nonzero;fill:rgb(35.294118%,35.294118%,35.294118%);fill-opacity:1;" d="M 23.371094 12.292969 C 23.402344 12.617188 23.296875 12.734375 23.015625 12.710938 C 22.761719 12.6875 22.792969 12.507812 22.792969 12.347656 C 22.785156 11.113281 22.789062 9.875 22.773438 8.640625 C 22.765625 8.304688 23.046875 8.160156 23.171875 8.332031 C 23.441406 8.703125 23.605469 8.460938 23.832031 8.351562 C 24.058594 8.242188 24.300781 8.1875 24.5625 8.230469 C 25.152344 8.324219 25.511719 8.691406 25.632812 9.238281 C 25.796875 9.957031 25.777344 10.683594 25.140625 11.195312 C 24.675781 11.570312 24.148438 11.601562 23.625 11.269531 C 23.578125 11.238281 23.519531 11.222656 23.371094 11.15625 C 23.371094 11.550781 23.371094 11.894531 23.371094 12.292969 Z M 23.371094 12.292969 "/>
<path style=" stroke:none;fill-rule:nonzero;fill:rgb(33.72549%,33.72549%,33.72549%);fill-opacity:1;" d="M 26.257812 8.699219 C 26.21875 8.53125 26.03125 8.367188 26.289062 8.3125 C 26.484375 8.269531 26.703125 8.253906 26.796875 8.535156 C 26.984375 9.089844 27.191406 9.632812 27.390625 10.183594 C 27.441406 10.3125 27.425781 10.480469 27.582031 10.558594 C 28.117188 9.875 27.835938 8.726562 28.839844 8.3125 C 28.441406 9.648438 28.101562 10.996094 27.355469 12.179688 C 27.199219 12.429688 26.980469 12.625 26.699219 12.742188 C 26.550781 12.804688 26.429688 12.863281 26.351562 12.65625 C 26.292969 12.511719 26.253906 12.394531 26.441406 12.296875 C 26.605469 12.207031 26.757812 12.089844 26.890625 11.960938 C 27.210938 11.640625 27.328125 11.300781 27.113281 10.839844 C 26.796875 10.160156 26.550781 9.445312 26.257812 8.699219 Z M 26.257812 8.699219 "/>
<path style=" stroke:none;fill-rule:nonzero;fill:rgb(33.333333%,33.333333%,33.333333%);fill-opacity:1;" d="M 34.242188 9.90625 C 33.691406 9.9375 33.167969 9.945312 32.648438 9.957031 C 32.484375 9.957031 32.316406 9.921875 32.3125 10.191406 C 32.308594 10.710938 33.113281 11.285156 33.601562 11.089844 C 33.660156 11.066406 33.710938 11.015625 33.769531 11.011719 C 33.929688 11 34.152344 10.785156 34.222656 11.105469 C 34.285156 11.394531 34.015625 11.402344 33.855469 11.421875 C 33.527344 11.460938 33.183594 11.488281 32.859375 11.433594 C 32.089844 11.308594 31.664062 10.570312 31.773438 9.644531 C 31.878906 8.757812 32.460938 8.195312 33.238281 8.222656 C 34.035156 8.253906 34.480469 8.878906 34.378906 9.898438 C 34.3125 9.90625 34.292969 9.894531 34.242188 9.90625 Z M 34.242188 9.90625 "/>
<path style=" stroke:none;fill-rule:nonzero;fill:rgb(34.509804%,34.509804%,34.509804%);fill-opacity:1;" d="M 21.277344 8.445312 C 21.738281 8.234375 21.757812 8.234375 21.765625 8.652344 C 21.777344 9.460938 21.769531 10.273438 21.757812 11.140625 C 21.738281 11.21875 21.722656 11.234375 21.726562 11.285156 C 21.699219 11.5 21.472656 11.457031 21.453125 11.425781 C 21.214844 10.960938 20.976562 11.257812 20.699219 11.386719 C 20.027344 11.699219 19.367188 11.347656 19.230469 10.609375 C 19.105469 9.949219 19.179688 9.277344 19.167969 8.609375 C 19.164062 8.417969 19.21875 8.296875 19.445312 8.292969 C 19.71875 8.28125 19.75 8.429688 19.746094 8.644531 C 19.742188 9.167969 19.738281 9.691406 19.753906 10.210938 C 19.765625 10.621094 19.898438 10.980469 20.378906 11 C 20.878906 11.023438 21.160156 10.714844 21.195312 10.238281 C 21.234375 9.714844 21.214844 9.191406 21.234375 8.613281 C 21.292969 8.539062 21.3125 8.507812 21.277344 8.445312 Z M 21.277344 8.445312 "/>
<path style=" stroke:none;fill-rule:nonzero;fill:rgb(60.392157%,60%,60.392157%);fill-opacity:1;" d="M 5.273438 14.9375 C 5.730469 15.25 5.949219 15.613281 5.800781 16.132812 C 5.6875 16.535156 5.417969 16.777344 5.015625 16.847656 C 4.582031 16.921875 4.230469 16.75 4.011719 16.375 C 3.804688 16.027344 3.796875 15.648438 4.027344 15.308594 C 4.320312 14.878906 4.734375 14.75 5.273438 14.9375 Z M 5.273438 14.9375 "/>
<path style=" stroke:none;fill-rule:nonzero;fill:rgb(31.372549%,31.372549%,31.372549%);fill-opacity:1;" d="M 30.382812 7.640625 C 30.480469 7.960938 30.316406 8.402344 30.902344 8.304688 C 31.027344 8.28125 31.230469 8.242188 31.222656 8.472656 C 31.21875 8.644531 31.082031 8.738281 30.921875 8.710938 C 30.441406 8.636719 30.429688 8.925781 30.445312 9.273438 C 30.460938 9.625 30.449219 9.984375 30.445312 10.335938 C 30.445312 10.699219 30.496094 11.027344 30.964844 11.023438 C 31.121094 11.023438 31.195312 11.074219 31.199219 11.234375 C 31.210938 11.453125 31.054688 11.441406 30.910156 11.460938 C 30.332031 11.542969 29.96875 11.277344 29.929688 10.695312 C 29.902344 10.28125 29.929688 9.859375 29.914062 9.441406 C 29.902344 9.136719 30.054688 8.765625 29.554688 8.648438 C 29.4375 8.625 29.308594 8.332031 29.597656 8.3125 C 30.023438 8.285156 29.886719 7.996094 29.929688 7.722656 C 30.0625 7.589844 30.191406 7.546875 30.382812 7.640625 Z M 30.382812 7.640625 "/>
<path style=" stroke:none;fill-rule:nonzero;fill:rgb(37.647059%,37.647059%,37.647059%);fill-opacity:1;" d="M 36.390625 8.816406 C 35.921875 9.03125 35.839844 9.40625 35.84375 9.824219 C 35.84375 10.265625 35.835938 10.703125 35.84375 11.140625 C 35.847656 11.351562 35.765625 11.441406 35.550781 11.441406 C 35.328125 11.445312 35.261719 11.332031 35.261719 11.132812 C 35.257812 10.277344 35.25 9.417969 35.238281 8.5625 C 35.234375 8.273438 35.554688 8.222656 35.597656 8.316406 C 35.878906 8.9375 36.074219 8.339844 36.304688 8.296875 C 36.472656 8.269531 36.6875 8.09375 36.777344 8.378906 C 36.867188 8.65625 36.753906 8.824219 36.390625 8.816406 Z M 36.390625 8.816406 "/>
<path style=" stroke:none;fill-rule:nonzero;fill:rgb(31.764706%,31.764706%,31.764706%);fill-opacity:1;" d="M 17.59375 9.441406 C 17.59375 9.105469 17.597656 8.835938 17.59375 8.5625 C 17.59375 8.386719 17.671875 8.304688 17.859375 8.300781 C 18.039062 8.300781 18.136719 8.363281 18.132812 8.550781 C 18.121094 9.632812 18.144531 10.722656 18.074219 11.800781 C 18.039062 12.316406 17.65625 12.648438 17.117188 12.730469 C 16.90625 12.761719 16.730469 12.582031 16.890625 12.480469 C 18.039062 11.738281 17.441406 10.59375 17.59375 9.625 C 17.597656 9.585938 17.59375 9.542969 17.59375 9.441406 Z M 17.59375 9.441406 "/>
<path style=" stroke:none;fill-rule:nonzero;fill:rgb(47.45098%,47.45098%,47.843137%);fill-opacity:1;" d="M 13.226562 4.675781 C 12.546875 5.15625 11.902344 4.960938 11.820312 4.289062 C 11.78125 3.945312 11.914062 3.675781 12.214844 3.496094 C 12.515625 3.320312 12.820312 3.347656 13.085938 3.574219 C 13.4375 3.875 13.484375 4.238281 13.226562 4.675781 Z M 13.226562 4.675781 "/>
<path style=" stroke:none;fill-rule:nonzero;fill:rgb(45.882353%,46.27451%,46.27451%);fill-opacity:1;" d="M 3.785156 5.777344 C 3.472656 5.558594 3.398438 5.292969 3.539062 4.996094 C 3.644531 4.777344 3.835938 4.644531 4.089844 4.660156 C 4.339844 4.675781 4.503906 4.835938 4.597656 5.058594 C 4.785156 5.507812 4.433594 5.839844 3.785156 5.777344 Z M 3.785156 5.777344 "/>
<path style=" stroke:none;fill-rule:nonzero;fill:rgb(95.686275%,51.372549%,20.392157%);fill-opacity:1;" d="M 7.148438 14.898438 C 7.90625 14.917969 8.699219 14.96875 9.523438 15.058594 C 8.75 15.3125 7.964844 15.152344 7.148438 14.898438 Z M 7.148438 14.898438 "/>
<path style=" stroke:none;fill-rule:nonzero;fill:rgb(28.627451%,28.627451%,28.627451%);fill-opacity:1;" d="M 30.433594 7.628906 C 30.296875 7.671875 30.167969 7.671875 29.988281 7.671875 C 30.179688 7.414062 30.246094 7.402344 30.433594 7.628906 Z M 30.433594 7.628906 "/>
<path style=" stroke:none;fill-rule:nonzero;fill:rgb(25.098039%,25.098039%,25.098039%);fill-opacity:1;" d="M 34.246094 9.933594 C 34.246094 9.914062 34.277344 9.894531 34.320312 9.898438 C 34.332031 9.914062 34.277344 9.941406 34.246094 9.933594 Z M 34.246094 9.933594 "/>
<path style=" stroke:none;fill-rule:nonzero;fill:rgb(25.098039%,25.098039%,25.098039%);fill-opacity:1;" d="M 21.246094 8.457031 C 21.277344 8.449219 21.300781 8.472656 21.320312 8.496094 C 21.324219 8.5 21.304688 8.519531 21.269531 8.546875 C 21.242188 8.535156 21.238281 8.511719 21.246094 8.457031 Z M 21.246094 8.457031 "/>
<path style=" stroke:none;fill-rule:nonzero;fill:rgb(25.098039%,25.098039%,25.098039%);fill-opacity:1;" d="M 21.753906 11.285156 C 21.722656 11.296875 21.703125 11.277344 21.683594 11.253906 C 21.683594 11.246094 21.699219 11.226562 21.730469 11.207031 C 21.75 11.199219 21.761719 11.257812 21.753906 11.285156 Z M 21.753906 11.285156 "/>
<path style=" stroke:none;fill-rule:nonzero;fill:rgb(98.431373%,98.431373%,98.431373%);fill-opacity:1;" d="M 23.386719 10.253906 C 23.378906 9.992188 23.367188 9.785156 23.382812 9.578125 C 23.417969 9.078125 23.679688 8.75 24.183594 8.695312 C 24.6875 8.640625 24.9375 8.964844 25.085938 9.394531 C 25.179688 9.660156 25.175781 9.929688 25.117188 10.195312 C 25.023438 10.625 24.8125 11 24.320312 11.035156 C 23.824219 11.070312 23.492188 10.820312 23.386719 10.253906 Z M 23.386719 10.253906 "/>
<path style=" stroke:none;fill-rule:nonzero;fill:rgb(96.470588%,96.470588%,96.470588%);fill-opacity:1;" d="M 32.34375 9.472656 C 32.414062 8.960938 32.648438 8.65625 33.15625 8.648438 C 33.519531 8.640625 33.738281 8.835938 33.851562 9.164062 C 33.933594 9.398438 33.945312 9.578125 33.609375 9.5625 C 33.191406 9.542969 32.773438 9.535156 32.34375 9.472656 Z M 32.34375 9.472656 "/>
</g>
</svg>
