<svg version="1.1" id="Layer_1" xmlns="http://www.w3.org/2000/svg" xmlns:xlink="http://www.w3.org/1999/xlink" x="0px" y="0px"
	 width="100%" viewBox="0 0 288 288" enable-background="new 0 0 288 288" xml:space="preserve">
<path fill="#FFFFFE" opacity="1.000000" stroke="none" 
	d="
M145.000000,289.000000 
	C97.853592,289.000000 51.207127,288.972412 4.560915,289.068390 
	C1.753511,289.074158 0.900902,288.720917 0.904855,285.563690 
	C1.022076,191.937836 1.021595,98.311775 0.910200,4.685902 
	C0.906301,1.408202 1.840821,0.930777 4.811007,0.933359 
	C98.270340,1.014597 191.729782,1.014604 285.189117,0.933332 
	C288.159637,0.930749 289.093658,1.408663 289.089752,4.686035 
	C288.978394,98.311905 288.977936,191.937958 289.095184,285.563812 
	C289.099121,288.721436 288.246002,289.074097 285.438934,289.068329 
	C238.792786,288.972412 192.146362,289.000000 145.000000,289.000000 
z"/>
<path fill="#497284" opacity="1.000000" stroke="none" 
	d="
M69.792313,178.677444 
	C71.573601,173.242325 73.557434,168.262222 74.803001,163.103821 
	C76.050079,157.939163 79.854553,160.021790 82.792419,159.712860 
	C86.241081,159.350204 85.699600,162.145203 85.916641,164.161469 
	C87.270798,176.741562 88.373146,189.339493 88.889610,201.989578 
	C89.015251,205.066956 88.430534,206.388168 84.945488,206.423370 
	C81.428261,206.458908 80.945091,205.036484 80.898064,202.029297 
	C80.743607,192.151779 80.244583,182.283630 77.902855,172.314468 
	C76.330612,177.127380 74.745171,181.936050 73.189743,186.754410 
	C71.553680,191.822556 69.942650,196.898834 68.328163,201.973938 
	C67.639473,204.138794 67.492752,206.400070 64.073334,206.415070 
	C60.764954,206.429550 60.396736,204.463974 59.689365,202.169449 
	C57.140499,193.901581 54.527420,185.652588 51.825611,177.433594 
	C51.280727,175.776047 51.237450,173.834000 49.270527,172.119888 
	C48.023483,182.321365 47.773033,192.154984 47.859730,201.982422 
	C47.891499,205.583847 46.608639,206.560745 43.216644,206.375092 
	C40.634159,206.233734 40.226696,205.121323 40.353436,202.925171 
	C41.111244,189.793701 41.734821,176.653305 43.326347,163.585556 
	C43.559856,161.668259 43.313290,159.187042 46.430050,159.709488 
	C49.332603,160.196030 53.161232,157.774109 54.674728,162.769943 
	C57.424263,171.845810 60.527718,180.814606 63.499699,189.822723 
	C63.738926,190.547821 64.103249,191.231644 64.642570,192.469894 
	C67.242058,187.938034 67.962029,183.301376 69.792313,178.677444 
z"/>
<path fill="#D28D41" opacity="1.000000" stroke="none" 
	d="
M191.650116,163.334351 
	C198.978928,172.583862 199.693283,190.503403 192.916885,199.766235 
	C190.708328,202.785172 190.822586,203.949173 194.239349,205.333313 
	C195.790070,205.961502 198.960007,206.025253 197.190628,209.615372 
	C195.358185,213.333496 193.330246,211.632355 191.273666,210.255264 
	C187.313019,207.603195 183.295059,206.437775 178.265884,206.796661 
	C168.676956,207.480957 163.020981,202.652771 160.912781,193.192368 
	C159.483353,186.777908 159.513306,180.303009 161.032364,173.902634 
	C164.457138,159.472794 179.432053,154.160233 191.650116,163.334351 
z"/>
<path fill="#557C8C" opacity="1.000000" stroke="none" 
	d="
M172.864655,112.566727 
	C170.701828,109.903015 169.372009,107.205879 168.473785,104.336586 
	C166.918716,99.368935 164.892471,94.714592 161.440140,90.699951 
	C159.498169,88.441689 158.469162,85.656113 160.607910,82.953865 
	C162.596725,80.441093 165.669739,80.454308 167.886139,81.974899 
	C175.390579,87.123405 185.087128,86.589531 192.487259,92.080643 
	C201.106949,98.476692 208.195770,105.925522 212.144989,116.067070 
	C212.929337,118.081291 213.982010,119.990517 214.778549,122.000618 
	C216.985504,127.569954 220.020355,131.976410 226.185257,134.205688 
	C230.655350,135.822128 234.368225,139.270950 237.719391,142.807114 
	C239.500549,144.686615 239.260544,145.849564 236.535126,146.437714 
	C233.791443,147.029831 230.856735,146.824341 227.401993,148.861176 
	C232.512451,152.601608 238.148895,155.413452 240.913025,160.742752 
	C237.871231,159.185898 234.477509,157.601227 231.243088,155.739792 
	C229.094727,154.503387 226.968857,153.084000 225.194214,151.372009 
	C221.468140,147.777451 221.911087,146.138046 226.797699,144.854874 
	C229.132751,144.241714 231.555466,143.962341 234.592682,143.413589 
	C230.199020,139.443069 225.936981,136.449051 220.738251,135.131897 
	C217.520432,134.316605 215.515579,132.413116 214.218216,129.511459 
	C212.111771,124.800232 210.000092,120.091164 207.858093,115.396019 
	C203.121918,105.014641 195.797516,96.898636 185.444412,92.161156 
	C179.231247,89.318077 172.029297,88.878151 166.111542,84.977966 
	C165.195572,84.374298 163.789581,84.150551 162.898270,85.253494 
	C162.000595,86.364288 162.564484,87.760452 163.314835,88.460297 
	C169.966263,94.663940 169.703064,104.517830 175.442291,111.189323 
	C177.198547,113.230873 175.637268,115.293503 175.059189,117.307800 
	C173.169479,123.892464 172.988083,130.246719 177.440979,136.716980 
	C179.723663,132.652069 178.425400,127.672157 182.924637,125.102379 
	C185.419205,130.387726 187.888458,135.619431 190.217270,140.553589 
	C186.871994,139.550644 185.293976,136.175522 183.385254,133.092896 
	C182.993286,133.553314 182.688965,133.767273 182.586823,134.053391 
	C181.746719,136.406799 182.334915,140.022888 178.557587,139.993164 
	C175.270462,139.967285 173.903366,137.072052 172.818237,134.427475 
	C170.657425,129.161407 170.559677,123.749825 171.991272,118.262283 
	C172.448547,116.509544 172.692963,114.701279 172.864655,112.566727 
z"/>
<path fill="#D38F43" opacity="1.000000" stroke="none" 
	d="
M154.227203,185.918121 
	C159.408569,194.416504 156.161072,203.243805 147.053009,206.026718 
	C141.385757,207.758316 135.847824,207.089508 130.589157,204.368866 
	C129.169525,203.634399 127.309296,203.087708 128.333939,200.736725 
	C129.260544,198.610687 130.695053,198.902512 132.420792,199.624924 
	C135.217484,200.795654 138.149902,201.416016 141.197388,201.040009 
	C144.544632,200.627029 147.353745,199.332672 148.271988,195.734665 
	C149.149918,192.294708 147.352432,189.894806 144.673355,188.192093 
	C141.306656,186.052353 137.717926,184.264084 134.327835,182.158585 
	C129.151886,178.944016 127.203697,174.617645 128.216309,169.077484 
	C129.082367,164.339050 133.126541,160.354202 138.445877,159.341766 
	C142.788376,158.515228 147.079987,158.948578 151.126648,160.846710 
	C152.385803,161.437347 154.201920,161.746506 153.545303,163.914703 
	C152.924911,165.963318 151.623703,166.229797 149.673172,165.721680 
	C147.600327,165.181702 145.432602,164.843704 143.292953,164.760315 
	C140.068268,164.634644 137.286270,165.703888 136.185913,169.064804 
	C135.136902,172.268921 136.801819,174.653214 139.291718,176.294968 
	C142.617081,178.487640 146.190155,180.300858 149.589554,182.386719 
	C151.135742,183.335449 152.520493,184.547318 154.227203,185.918121 
z"/>
<path fill="#4B7385" opacity="1.000000" stroke="none" 
	d="
M101.791885,176.003769 
	C104.070259,183.492828 106.234955,190.592194 108.739594,198.806442 
	C112.057281,190.810562 113.486732,183.408264 114.561813,175.951157 
	C114.991478,172.970856 115.929527,171.623428 119.216759,171.794937 
	C121.932846,171.936646 122.683685,172.631165 122.101112,175.316223 
	C119.771240,186.054718 117.264122,196.730835 111.935776,206.472092 
	C109.521141,210.886520 106.596054,214.925903 101.897392,217.238846 
	C99.762611,218.289688 97.509018,218.739563 95.122597,218.230499 
	C93.421577,217.867645 91.895424,217.480423 92.005722,215.160431 
	C92.119064,212.776428 93.784966,213.306641 95.207283,213.160080 
	C101.854408,212.475159 104.288773,209.113663 102.395744,202.622833 
	C99.931503,194.173477 97.036278,185.849472 94.595848,177.393799 
	C94.126808,175.768677 91.397858,173.197464 94.543732,172.147476 
	C97.301003,171.227173 101.054581,170.897354 101.791885,176.003769 
z"/>
<path fill="#D39046" opacity="1.000000" stroke="none" 
	d="
M211.796783,176.002228 
	C211.796982,182.986603 211.989609,189.479355 211.722198,195.953079 
	C211.572861,199.568207 212.926559,200.656982 216.306824,200.329391 
	C218.612976,200.105896 220.965363,200.400314 223.284348,200.257019 
	C225.624664,200.112396 226.542526,200.944473 226.536011,203.367584 
	C226.529343,205.851227 225.437408,206.472351 223.191376,206.430664 
	C217.872375,206.331909 212.548843,206.328156 207.230072,206.433380 
	C204.923187,206.479004 203.998688,205.745529 204.014740,203.303253 
	C204.104340,189.669159 204.119186,176.033691 204.014160,162.399841 
	C203.989349,159.179428 206.011475,159.607620 207.993195,159.555450 
	C210.106140,159.499817 211.975967,159.429611 211.841141,162.535126 
	C211.653824,166.850143 211.795853,171.179459 211.796783,176.002228 
z"/>
<path fill="#E5BF93" opacity="1.000000" stroke="none" 
	d="
M239.226547,201.415771 
	C241.701141,200.063522 242.528168,201.237122 242.726746,203.193283 
	C242.862061,204.526474 242.820480,206.130203 241.163651,206.405365 
	C239.147614,206.740204 236.791656,207.551056 235.393372,205.119781 
	C234.934464,204.321884 234.903091,203.278091 234.680328,202.363632 
	C232.198547,202.503036 233.802521,205.085846 232.039551,205.770584 
	C230.358383,204.423584 231.376160,202.161896 230.284164,200.408722 
	C233.507523,199.726486 236.308807,199.929077 239.226547,201.415771 
z"/>
<path fill="#8A9CAA" opacity="1.000000" stroke="none" 
	d="
M180.585785,98.790123 
	C177.315643,101.278854 178.119995,97.282516 176.728607,96.621315 
	C176.176559,96.358971 176.469528,95.271606 177.232162,95.221909 
	C179.444611,95.077721 180.284073,96.581230 180.585785,98.790123 
z"/>
<path fill="#FEFCFA" opacity="1.000000" stroke="none" 
	d="
M189.247986,187.695267 
	C189.001816,191.518707 188.282455,194.763412 186.224274,197.494827 
	C181.866516,203.278061 172.796417,202.128860 170.021179,195.237625 
	C167.013351,187.768768 167.152649,179.959885 169.213089,172.274216 
	C170.436005,167.712601 173.428543,164.840500 178.526245,164.818069 
	C183.549057,164.795975 186.571701,167.149643 188.198761,172.427155 
	C189.695511,177.281921 189.383682,182.266266 189.247986,187.695267 
z"/>
</svg>