<?xml version="1.0" encoding="UTF-8"?>
<svg xmlns="http://www.w3.org/2000/svg" xmlns:xlink="http://www.w3.org/1999/xlink" width="59px" height="20px" viewBox="0 0 20 20" version="1.1">
<g id="surface1">
<path style=" stroke:none;fill-rule:nonzero;fill:rgb(100%,99.607843%,99.607843%);fill-opacity:1;" d="M 12.054688 20.089844 C 8.035156 20.089844 4.0625 20.089844 0.0898438 20.089844 C 0.0898438 13.421875 0.0898438 6.757812 0.0898438 0.0898438 C 6.757812 0.0898438 13.421875 0.0898438 20.089844 0.0898438 C 20.089844 6.757812 20.089844 13.421875 20.089844 20.089844 C 17.425781 20.089844 14.761719 20.089844 12.054688 20.089844 M 4.777344 12.359375 C 4.777344 12.292969 4.78125 12.222656 4.792969 12.089844 C 4.789062 12.042969 4.785156 12 4.800781 11.917969 C 4.800781 11.917969 4.78125 11.882812 4.792969 11.804688 C 4.785156 11.117188 4.777344 10.425781 4.789062 9.675781 C 4.785156 9.636719 4.777344 9.597656 4.792969 9.480469 C 4.789062 9.296875 4.785156 9.113281 4.800781 8.851562 C 4.800781 8.484375 4.800781 8.121094 4.800781 7.757812 C 4.210938 7.757812 3.699219 7.757812 3.132812 7.757812 C 3.132812 8.136719 3.132812 8.488281 3.050781 8.855469 C 2.101562 8.886719 2.101562 8.886719 2.160156 9.804688 C 2.15625 9.898438 2.152344 9.996094 2.0625 10.085938 C 1.066406 10.085938 1.175781 9.984375 1.167969 10.988281 C 1.164062 11.078125 1.179688 11.167969 1.171875 11.335938 C 1.167969 11.601562 1.125 11.878906 1.179688 12.132812 C 1.207031 12.269531 1.398438 12.460938 1.523438 12.46875 C 2.027344 12.5 2.53125 12.46875 3.09375 12.472656 C 3.132812 12.46875 3.171875 12.464844 3.257812 12.476562 C 3.277344 12.472656 3.292969 12.46875 3.378906 12.476562 C 3.472656 12.472656 3.566406 12.46875 3.722656 12.488281 C 3.84375 12.476562 3.96875 12.464844 4.160156 12.453125 C 4.207031 12.453125 4.253906 12.453125 4.347656 12.484375 C 4.46875 12.464844 4.59375 12.441406 4.730469 12.410156 C 4.730469 12.410156 4.730469 12.390625 4.777344 12.359375 M 10.863281 11.003906 C 10.839844 11.015625 10.816406 11.019531 10.789062 10.960938 C 10.578125 10.566406 10.707031 10.003906 10.296875 9.710938 C 10.253906 9.730469 10.210938 9.75 10.167969 9.769531 C 10.296875 10.175781 10.425781 10.578125 10.5625 11.035156 C 10.582031 11.078125 10.601562 11.125 10.621094 11.234375 C 10.710938 11.289062 10.804688 11.34375 10.929688 11.402344 C 10.953125 11.386719 10.957031 11.367188 10.984375 11.289062 C 11.035156 11.132812 11.085938 10.976562 11.160156 10.753906 C 11.207031 10.605469 11.257812 10.457031 11.308594 10.308594 C 11.5 10.621094 11.589844 10.941406 11.703125 11.25 C 11.730469 11.324219 11.832031 11.394531 11.914062 11.417969 C 11.945312 11.429688 12.042969 11.320312 12.066406 11.25 C 12.222656 10.761719 12.371094 10.265625 12.519531 9.777344 C 12.472656 9.753906 12.429688 9.734375 12.382812 9.714844 C 12.003906 10.011719 12.15625 10.574219 11.851562 10.980469 C 11.75 10.613281 11.664062 10.28125 11.558594 9.953125 C 11.535156 9.867188 11.453125 9.804688 11.402344 9.730469 C 11.324219 9.800781 11.214844 9.863281 11.183594 9.949219 C 11.097656 10.1875 11.046875 10.433594 10.957031 10.722656 C 10.933594 10.808594 10.914062 10.894531 10.863281 11.003906 M 16.753906 10.832031 C 16.753906 11.019531 16.753906 11.210938 16.753906 11.4375 C 17.300781 11.375 17.886719 11.59375 18.167969 10.953125 C 18.339844 10.5625 18.097656 10.320312 17.765625 10.140625 C 18.058594 9.9375 18.214844 9.660156 18.027344 9.363281 C 17.726562 8.878906 17.230469 9.070312 16.753906 9.058594 C 16.753906 9.652344 16.753906 10.199219 16.753906 10.832031 M 7.332031 10.523438 C 7.910156 10.421875 8.191406 10.121094 8.132812 9.671875 C 8.066406 9.148438 7.683594 8.984375 6.679688 9.070312 C 6.679688 9.789062 6.675781 10.511719 6.691406 11.234375 C 6.691406 11.304688 6.808594 11.375 6.875 11.445312 C 6.964844 11.1875 6.980469 10.980469 6.960938 10.777344 C 6.9375 10.53125 7.070312 10.507812 7.332031 10.523438 M 13.101562 10.644531 C 13.464844 10.644531 13.832031 10.644531 14.195312 10.644531 C 14.167969 9.96875 13.984375 9.71875 13.550781 9.703125 C 13.128906 9.683594 12.816406 9.949219 12.753906 10.378906 C 12.671875 10.949219 12.882812 11.34375 13.3125 11.433594 C 13.726562 11.519531 13.976562 11.414062 14.066406 11.117188 C 13.3125 11.316406 13.144531 11.246094 13.101562 10.644531 M 9.46875 11.398438 C 9.570312 11.320312 9.695312 11.253906 9.777344 11.15625 C 10.015625 10.867188 10.023438 10.277344 9.800781 9.988281 C 9.546875 9.652344 9.1875 9.652344 8.835938 9.746094 C 8.480469 9.835938 8.273438 10.226562 8.300781 10.667969 C 8.335938 11.238281 8.703125 11.492188 9.46875 11.398438 M 18.992188 11.332031 C 18.996094 10.648438 19.003906 9.96875 18.996094 9.289062 C 18.992188 9.203125 18.890625 9.121094 18.835938 9.035156 C 18.78125 9.121094 18.683594 9.207031 18.683594 9.296875 C 18.671875 9.917969 18.679688 10.539062 18.675781 11.160156 C 18.675781 11.351562 18.707031 11.492188 18.992188 11.332031 M 14.894531 11.007812 C 14.925781 10.664062 14.960938 10.324219 15 9.925781 C 14.941406 9.882812 14.8125 9.792969 14.609375 9.648438 C 14.609375 10.199219 14.601562 10.640625 14.613281 11.082031 C 14.617188 11.195312 14.6875 11.308594 14.726562 11.421875 C 14.78125 11.3125 14.835938 11.199219 14.894531 11.007812 Z M 14.894531 11.007812 "/>
<path style=" stroke:none;fill-rule:nonzero;fill:rgb(96.078431%,84.705882%,39.215686%);fill-opacity:1;" d="M 3.035156 12.460938 C 2.53125 12.46875 2.027344 12.5 1.523438 12.46875 C 1.398438 12.460938 1.207031 12.269531 1.179688 12.132812 C 1.125 11.878906 1.167969 11.601562 1.214844 11.292969 C 1.367188 11.226562 1.503906 11.234375 1.585938 11.171875 C 1.972656 10.871094 2.390625 10.835938 2.847656 11.015625 C 2.855469 11.179688 2.859375 11.304688 2.859375 11.472656 C 2.933594 11.824219 2.667969 12.203125 3.035156 12.460938 Z M 3.035156 12.460938 "/>
<path style=" stroke:none;fill-rule:nonzero;fill:rgb(10.588235%,10.588235%,10.196078%);fill-opacity:1;" d="M 16.753906 10.789062 C 16.753906 10.199219 16.753906 9.652344 16.753906 9.058594 C 17.230469 9.070312 17.726562 8.878906 18.027344 9.363281 C 18.214844 9.660156 18.058594 9.9375 17.765625 10.140625 C 18.097656 10.320312 18.339844 10.5625 18.167969 10.953125 C 17.886719 11.59375 17.300781 11.375 16.753906 11.4375 C 16.753906 11.210938 16.753906 11.019531 16.753906 10.789062 M 17.339844 11.160156 C 17.65625 11.175781 17.914062 11.09375 17.921875 10.71875 C 17.929688 10.40625 17.640625 10.277344 17.03125 10.335938 C 17.03125 10.550781 17.011719 10.769531 17.042969 10.984375 C 17.050781 11.050781 17.183594 11.105469 17.339844 11.160156 M 17.339844 9.300781 C 16.675781 9.351562 17.195312 9.804688 17.003906 10.066406 C 17.382812 10.078125 17.699219 10.121094 17.792969 9.730469 C 17.863281 9.445312 17.671875 9.335938 17.339844 9.300781 Z M 17.339844 9.300781 "/>
<path style=" stroke:none;fill-rule:nonzero;fill:rgb(87.843137%,64.705882%,12.156863%);fill-opacity:1;" d="M 3.132812 8.839844 C 3.132812 8.488281 3.132812 8.136719 3.132812 7.757812 C 3.699219 7.757812 4.210938 7.757812 4.800781 7.757812 C 4.800781 8.121094 4.800781 8.484375 4.777344 8.890625 C 4.75 8.929688 4.722656 8.925781 4.726562 8.890625 C 4.71875 8.769531 4.714844 8.675781 4.707031 8.585938 C 4.683594 8.585938 4.664062 8.589844 4.640625 8.589844 C 4.640625 8.703125 4.640625 8.816406 4.601562 8.929688 C 4.320312 8.957031 4.074219 8.988281 3.800781 9.003906 C 3.558594 8.9375 3.347656 8.890625 3.132812 8.839844 Z M 3.132812 8.839844 "/>
<path style=" stroke:none;fill-rule:nonzero;fill:rgb(11.764706%,11.764706%,11.764706%);fill-opacity:1;" d="M 7.292969 10.523438 C 7.070312 10.507812 6.9375 10.53125 6.960938 10.777344 C 6.980469 10.980469 6.964844 11.1875 6.875 11.445312 C 6.808594 11.375 6.691406 11.304688 6.691406 11.234375 C 6.675781 10.511719 6.679688 9.789062 6.679688 9.070312 C 7.683594 8.984375 8.066406 9.148438 8.132812 9.671875 C 8.191406 10.121094 7.910156 10.421875 7.292969 10.523438 M 7.804688 9.984375 C 7.875 9.398438 7.652344 9.226562 6.988281 9.351562 C 6.988281 9.65625 6.988281 9.957031 6.988281 10.375 C 7.292969 10.246094 7.535156 10.148438 7.804688 9.984375 Z M 7.804688 9.984375 "/>
<path style=" stroke:none;fill-rule:nonzero;fill:rgb(96.862745%,87.843137%,47.058824%);fill-opacity:1;" d="M 2.84375 10.976562 C 2.390625 10.835938 1.972656 10.871094 1.585938 11.171875 C 1.503906 11.234375 1.367188 11.226562 1.21875 11.253906 C 1.179688 11.167969 1.164062 11.078125 1.167969 10.988281 C 1.175781 9.984375 1.066406 10.085938 2.144531 10.085938 C 2.53125 10.101562 2.949219 9.964844 2.855469 10.574219 C 2.851562 10.734375 2.847656 10.855469 2.84375 10.976562 Z M 2.84375 10.976562 "/>
<path style=" stroke:none;fill-rule:nonzero;fill:rgb(83.137255%,56.862745%,5.098039%);fill-opacity:1;" d="M 4.773438 9.554688 C 4.777344 9.597656 4.785156 9.636719 4.75 9.71875 C 4.6875 10.136719 4.640625 10.511719 4.644531 10.886719 C 4.652344 11.386719 4.355469 11.667969 3.839844 11.578125 C 3.808594 11.449219 3.78125 11.351562 3.753906 11.214844 C 3.78125 10.902344 3.804688 10.628906 3.832031 10.3125 C 3.835938 10.066406 3.839844 9.855469 3.882812 9.644531 C 4.203125 9.613281 4.488281 9.585938 4.773438 9.554688 Z M 4.773438 9.554688 "/>
<path style=" stroke:none;fill-rule:nonzero;fill:rgb(8.627451%,8.627451%,8.627451%);fill-opacity:1;" d="M 13.074219 10.671875 C 13.144531 11.246094 13.3125 11.316406 14.066406 11.117188 C 13.976562 11.414062 13.726562 11.519531 13.3125 11.433594 C 12.882812 11.34375 12.671875 10.949219 12.753906 10.378906 C 12.816406 9.949219 13.128906 9.683594 13.550781 9.703125 C 13.984375 9.71875 14.167969 9.96875 14.195312 10.644531 C 13.832031 10.644531 13.464844 10.644531 13.074219 10.671875 M 13.894531 10.402344 C 13.960938 10.101562 13.808594 9.933594 13.535156 9.925781 C 13.238281 9.914062 13.046875 10.074219 13.050781 10.425781 C 13.324219 10.425781 13.574219 10.425781 13.894531 10.402344 Z M 13.894531 10.402344 "/>
<path style=" stroke:none;fill-rule:nonzero;fill:rgb(94.901961%,80.784314%,28.235294%);fill-opacity:1;" d="M 3.089844 8.847656 C 3.347656 8.890625 3.558594 8.9375 3.804688 9.039062 C 3.832031 9.183594 3.828125 9.277344 3.808594 9.386719 C 3.554688 9.492188 3.289062 9.542969 3.09375 9.6875 C 2.78125 9.917969 2.496094 9.953125 2.175781 9.734375 C 2.101562 8.886719 2.101562 8.886719 3.089844 8.847656 Z M 3.089844 8.847656 "/>
<path style=" stroke:none;fill-rule:nonzero;fill:rgb(7.843137%,7.843137%,7.843137%);fill-opacity:1;" d="M 9.4375 11.410156 C 8.703125 11.492188 8.335938 11.238281 8.300781 10.667969 C 8.273438 10.226562 8.480469 9.835938 8.835938 9.746094 C 9.1875 9.652344 9.546875 9.652344 9.800781 9.988281 C 10.023438 10.277344 10.015625 10.867188 9.777344 11.15625 C 9.695312 11.253906 9.570312 11.320312 9.4375 11.410156 M 8.882812 9.976562 C 8.539062 10.230469 8.484375 10.574219 8.671875 10.917969 C 8.753906 11.066406 8.984375 11.203125 9.15625 11.214844 C 9.308594 11.222656 9.574219 11.070312 9.605469 10.945312 C 9.664062 10.691406 9.667969 10.367188 9.554688 10.144531 C 9.488281 10.011719 9.15625 10.007812 8.882812 9.976562 Z M 8.882812 9.976562 "/>
<path style=" stroke:none;fill-rule:nonzero;fill:rgb(10.588235%,10.588235%,10.196078%);fill-opacity:1;" d="M 10.984375 10.679688 C 11.046875 10.433594 11.097656 10.1875 11.183594 9.949219 C 11.214844 9.863281 11.324219 9.800781 11.402344 9.730469 C 11.453125 9.804688 11.535156 9.867188 11.558594 9.953125 C 11.664062 10.28125 11.75 10.613281 11.851562 10.980469 C 12.15625 10.574219 12.003906 10.011719 12.382812 9.714844 C 12.429688 9.734375 12.472656 9.753906 12.519531 9.777344 C 12.371094 10.265625 12.222656 10.761719 12.066406 11.25 C 12.042969 11.320312 11.945312 11.429688 11.914062 11.417969 C 11.832031 11.394531 11.730469 11.324219 11.703125 11.25 C 11.589844 10.941406 11.5 10.621094 11.308594 10.308594 C 11.257812 10.457031 11.207031 10.605469 11.113281 10.75 C 11.039062 10.71875 11.011719 10.699219 10.984375 10.679688 Z M 10.984375 10.679688 "/>
<path style=" stroke:none;fill-rule:nonzero;fill:rgb(79.607843%,50.196078%,3.137255%);fill-opacity:1;" d="M 3.839844 11.609375 C 4.355469 11.667969 4.652344 11.386719 4.644531 10.886719 C 4.640625 10.511719 4.6875 10.136719 4.738281 9.75 C 4.777344 10.425781 4.785156 11.117188 4.777344 11.851562 C 4.75 11.921875 4.757812 11.945312 4.78125 11.957031 C 4.785156 12 4.789062 12.042969 4.769531 12.140625 C 4.746094 12.257812 4.738281 12.324219 4.730469 12.390625 C 4.730469 12.390625 4.730469 12.410156 4.6875 12.410156 C 4.53125 12.429688 4.414062 12.441406 4.300781 12.453125 C 4.253906 12.453125 4.207031 12.453125 4.097656 12.4375 C 3.964844 12.417969 3.898438 12.414062 3.832031 12.367188 C 3.835938 12.085938 3.839844 11.847656 3.839844 11.609375 Z M 3.839844 11.609375 "/>
<path style=" stroke:none;fill-rule:nonzero;fill:rgb(93.72549%,77.254902%,21.176471%);fill-opacity:1;" d="M 2.167969 9.769531 C 2.496094 9.953125 2.78125 9.917969 3.09375 9.6875 C 3.289062 9.542969 3.554688 9.492188 3.8125 9.417969 C 3.835938 9.507812 3.839844 9.574219 3.84375 9.644531 C 3.839844 9.855469 3.835938 10.066406 3.796875 10.316406 C 3.695312 10.40625 3.625 10.449219 3.566406 10.503906 C 3.339844 10.710938 3.109375 10.820312 2.859375 10.539062 C 2.949219 9.964844 2.53125 10.101562 2.183594 10.085938 C 2.152344 9.996094 2.15625 9.898438 2.167969 9.769531 Z M 2.167969 9.769531 "/>
<path style=" stroke:none;fill-rule:nonzero;fill:rgb(90.588235%,69.411765%,9.411765%);fill-opacity:1;" d="M 3.839844 11.578125 C 3.839844 11.847656 3.835938 12.085938 3.808594 12.371094 C 3.742188 12.429688 3.699219 12.449219 3.65625 12.464844 C 3.566406 12.46875 3.472656 12.472656 3.335938 12.457031 C 3.265625 12.449219 3.238281 12.453125 3.210938 12.460938 C 3.171875 12.464844 3.132812 12.46875 3.0625 12.46875 C 2.667969 12.203125 2.933594 11.824219 2.882812 11.488281 C 2.957031 11.582031 3.011719 11.699219 3.039062 11.761719 C 3.285156 11.585938 3.519531 11.417969 3.753906 11.253906 C 3.78125 11.351562 3.808594 11.449219 3.839844 11.578125 Z M 3.839844 11.578125 "/>
<path style=" stroke:none;fill-rule:nonzero;fill:rgb(21.960784%,21.960784%,21.960784%);fill-opacity:1;" d="M 18.972656 11.363281 C 18.707031 11.492188 18.675781 11.351562 18.675781 11.160156 C 18.679688 10.539062 18.671875 9.917969 18.683594 9.296875 C 18.683594 9.207031 18.78125 9.121094 18.835938 9.035156 C 18.890625 9.121094 18.992188 9.203125 18.996094 9.289062 C 19.003906 9.96875 18.996094 10.648438 18.972656 11.363281 Z M 18.972656 11.363281 "/>
<path style=" stroke:none;fill-rule:nonzero;fill:rgb(11.764706%,11.764706%,11.764706%);fill-opacity:1;" d="M 14.894531 11.046875 C 14.835938 11.199219 14.78125 11.3125 14.726562 11.421875 C 14.6875 11.308594 14.617188 11.195312 14.613281 11.082031 C 14.601562 10.640625 14.609375 10.199219 14.609375 9.648438 C 14.8125 9.792969 14.941406 9.882812 15 9.925781 C 14.960938 10.324219 14.925781 10.664062 14.894531 11.046875 Z M 14.894531 11.046875 "/>
<path style=" stroke:none;fill-rule:nonzero;fill:rgb(85.490196%,60.392157%,5.490196%);fill-opacity:1;" d="M 3.882812 9.644531 C 3.839844 9.574219 3.835938 9.507812 3.828125 9.40625 C 3.828125 9.277344 3.832031 9.183594 3.832031 9.054688 C 4.074219 8.988281 4.320312 8.957031 4.621094 8.925781 C 4.679688 8.925781 4.722656 8.925781 4.722656 8.925781 C 4.722656 8.925781 4.75 8.929688 4.765625 8.929688 C 4.785156 9.113281 4.789062 9.296875 4.785156 9.519531 C 4.488281 9.585938 4.203125 9.613281 3.882812 9.644531 M 4.679688 9.238281 C 4.679688 9.238281 4.6875 9.234375 4.679688 9.238281 Z M 4.679688 9.238281 "/>
<path style=" stroke:none;fill-rule:nonzero;fill:rgb(10.588235%,10.588235%,10.196078%);fill-opacity:1;" d="M 10.894531 11.398438 C 10.804688 11.34375 10.710938 11.289062 10.621094 11.175781 C 10.601562 11.074219 10.578125 11.027344 10.558594 10.984375 C 10.425781 10.578125 10.296875 10.175781 10.167969 9.769531 C 10.210938 9.75 10.253906 9.730469 10.296875 9.710938 C 10.707031 10.003906 10.578125 10.566406 10.796875 11.011719 C 10.832031 11.035156 10.863281 11.007812 10.890625 10.980469 C 10.914062 10.894531 10.933594 10.808594 10.96875 10.699219 C 11.011719 10.699219 11.039062 10.71875 11.101562 10.78125 C 11.085938 10.976562 11.035156 11.132812 10.953125 11.324219 C 10.90625 11.367188 10.898438 11.382812 10.894531 11.398438 Z M 10.894531 11.398438 "/>
<path style=" stroke:none;fill-rule:nonzero;fill:rgb(96.078431%,84.705882%,39.215686%);fill-opacity:1;" d="M 4.324219 12.46875 C 4.414062 12.441406 4.53125 12.429688 4.679688 12.417969 C 4.59375 12.441406 4.46875 12.464844 4.324219 12.46875 Z M 4.324219 12.46875 "/>
<path style=" stroke:none;fill-rule:nonzero;fill:rgb(96.078431%,84.705882%,39.215686%);fill-opacity:1;" d="M 3.6875 12.476562 C 3.699219 12.449219 3.742188 12.429688 3.808594 12.410156 C 3.898438 12.414062 3.964844 12.417969 4.0625 12.441406 C 3.96875 12.464844 3.84375 12.476562 3.6875 12.476562 Z M 3.6875 12.476562 "/>
<path style=" stroke:none;fill-rule:nonzero;fill:rgb(87.843137%,64.705882%,12.156863%);fill-opacity:1;" d="M 4.753906 12.375 C 4.738281 12.324219 4.746094 12.257812 4.765625 12.171875 C 4.78125 12.222656 4.777344 12.292969 4.753906 12.375 Z M 4.753906 12.375 "/>
<path style=" stroke:none;fill-rule:nonzero;fill:rgb(11.764706%,11.764706%,11.764706%);fill-opacity:1;" d="M 10.878906 10.992188 C 10.863281 11.007812 10.832031 11.035156 10.796875 11.039062 C 10.816406 11.019531 10.839844 11.015625 10.878906 10.992188 Z M 10.878906 10.992188 "/>
<path style=" stroke:none;fill-rule:nonzero;fill:rgb(11.764706%,11.764706%,11.764706%);fill-opacity:1;" d="M 10.558594 11.007812 C 10.578125 11.027344 10.601562 11.074219 10.621094 11.140625 C 10.601562 11.125 10.582031 11.078125 10.558594 11.007812 Z M 10.558594 11.007812 "/>
<path style=" stroke:none;fill-rule:nonzero;fill:rgb(11.764706%,11.764706%,11.764706%);fill-opacity:1;" d="M 10.910156 11.398438 C 10.898438 11.382812 10.90625 11.367188 10.933594 11.347656 C 10.957031 11.367188 10.953125 11.386719 10.910156 11.398438 Z M 10.910156 11.398438 "/>
<path style=" stroke:none;fill-rule:nonzero;fill:rgb(87.843137%,64.705882%,12.156863%);fill-opacity:1;" d="M 4.792969 11.9375 C 4.757812 11.945312 4.75 11.921875 4.773438 11.886719 C 4.78125 11.882812 4.800781 11.917969 4.792969 11.9375 Z M 4.792969 11.9375 "/>
<path style=" stroke:none;fill-rule:nonzero;fill:rgb(96.078431%,84.705882%,39.215686%);fill-opacity:1;" d="M 3.234375 12.46875 C 3.238281 12.453125 3.265625 12.449219 3.300781 12.453125 C 3.292969 12.46875 3.277344 12.472656 3.234375 12.46875 Z M 3.234375 12.46875 "/>
<path style=" stroke:none;fill-rule:nonzero;fill:rgb(92.54902%,73.72549%,15.686275%);fill-opacity:1;" d="M 3.753906 11.214844 C 3.519531 11.417969 3.285156 11.585938 3.039062 11.761719 C 3.011719 11.699219 2.957031 11.582031 2.882812 11.449219 C 2.859375 11.304688 2.855469 11.179688 2.847656 11.015625 C 2.847656 10.855469 2.851562 10.734375 2.855469 10.574219 C 3.109375 10.820312 3.339844 10.710938 3.566406 10.503906 C 3.625 10.449219 3.695312 10.40625 3.796875 10.355469 C 3.804688 10.628906 3.78125 10.902344 3.753906 11.214844 Z M 3.753906 11.214844 "/>
<path style=" stroke:none;fill-rule:nonzero;fill:rgb(94.509804%,94.117647%,94.117647%);fill-opacity:1;" d="M 17.296875 11.164062 C 17.183594 11.105469 17.050781 11.050781 17.042969 10.984375 C 17.011719 10.769531 17.03125 10.550781 17.03125 10.335938 C 17.640625 10.277344 17.929688 10.40625 17.921875 10.71875 C 17.914062 11.09375 17.65625 11.175781 17.296875 11.164062 Z M 17.296875 11.164062 "/>
<path style=" stroke:none;fill-rule:nonzero;fill:rgb(92.156863%,92.156863%,91.372549%);fill-opacity:1;" d="M 17.378906 9.300781 C 17.671875 9.335938 17.863281 9.445312 17.792969 9.730469 C 17.699219 10.121094 17.382812 10.078125 17.003906 10.066406 C 17.195312 9.804688 16.675781 9.351562 17.378906 9.300781 Z M 17.378906 9.300781 "/>
<path style=" stroke:none;fill-rule:nonzero;fill:rgb(83.137255%,56.862745%,5.098039%);fill-opacity:1;" d="M 4.726562 8.890625 C 4.722656 8.925781 4.679688 8.925781 4.660156 8.925781 C 4.640625 8.816406 4.640625 8.703125 4.640625 8.589844 C 4.664062 8.589844 4.683594 8.585938 4.707031 8.585938 C 4.714844 8.675781 4.71875 8.769531 4.726562 8.890625 Z M 4.726562 8.890625 "/>
<path style=" stroke:none;fill-rule:nonzero;fill:rgb(94.509804%,94.117647%,94.117647%);fill-opacity:1;" d="M 7.789062 10.015625 C 7.535156 10.148438 7.292969 10.246094 6.988281 10.375 C 6.988281 9.957031 6.988281 9.65625 6.988281 9.351562 C 7.652344 9.226562 7.875 9.398438 7.789062 10.015625 Z M 7.789062 10.015625 "/>
<path style=" stroke:none;fill-rule:nonzero;fill:rgb(87.843137%,87.843137%,87.843137%);fill-opacity:1;" d="M 13.859375 10.414062 C 13.574219 10.425781 13.324219 10.425781 13.050781 10.425781 C 13.046875 10.074219 13.238281 9.914062 13.535156 9.925781 C 13.808594 9.933594 13.960938 10.101562 13.859375 10.414062 Z M 13.859375 10.414062 "/>
<path style=" stroke:none;fill-rule:nonzero;fill:rgb(95.686275%,95.686275%,95.294118%);fill-opacity:1;" d="M 8.914062 9.960938 C 9.15625 10.007812 9.488281 10.011719 9.554688 10.144531 C 9.667969 10.367188 9.664062 10.691406 9.605469 10.945312 C 9.574219 11.070312 9.308594 11.222656 9.15625 11.214844 C 8.984375 11.203125 8.753906 11.066406 8.671875 10.917969 C 8.484375 10.574219 8.539062 10.230469 8.914062 9.960938 Z M 8.914062 9.960938 "/>
</g>
</svg>
