<svg version="1.1" id="Layer_1" xmlns="http://www.w3.org/2000/svg" xmlns:xlink="http://www.w3.org/1999/xlink" x="0px" y="0px"
	 width="100%" viewBox="0 0 224 224" enable-background="new 0 0 224 224" xml:space="preserve">
<path fill="#FFFEFE" opacity="1.000000" stroke="none" 
	d="
M135.000000,225.000000 
	C90.000000,225.000000 45.500004,225.000000 1.000006,225.000000 
	C1.000004,150.333344 1.000004,75.666679 1.000002,1.000016 
	C75.666656,1.000011 150.333313,1.000011 224.999969,1.000005 
	C224.999985,75.666649 224.999985,150.333298 225.000000,224.999969 
	C195.166672,225.000000 165.333328,225.000000 135.000000,225.000000 
M53.489208,138.442764 
	C53.518528,137.665100 53.547848,136.887436 53.667320,135.385147 
	C53.635387,134.900421 53.603455,134.415710 53.765537,133.500412 
	C53.765537,133.500412 53.571621,133.069809 53.673393,132.230759 
	C53.581089,124.497505 53.488789,116.764252 53.651260,108.383339 
	C53.585331,107.930000 53.519405,107.476669 53.690922,106.172829 
	C53.641689,104.119957 53.592461,102.067085 53.776531,99.118073 
	C53.776531,95.045952 53.776531,90.973831 53.776531,86.898712 
	C47.177647,86.898712 41.449844,86.898712 35.075893,86.898712 
	C35.075893,91.113930 35.075893,95.065933 34.172424,99.176369 
	C23.524670,99.535347 23.524670,99.535347 24.212822,109.821922 
	C24.150133,110.882133 24.087444,111.942345 23.114470,112.962021 
	C11.930543,112.971733 13.168997,111.821060 13.062829,123.087929 
	C13.053545,124.073189 13.216172,125.060066 13.128095,126.948776 
	C13.097828,129.943161 12.619421,133.031387 13.218878,135.893906 
	C13.537485,137.415329 15.659551,139.581589 17.078720,139.669876 
	C22.692200,140.019104 28.349621,139.661972 34.643406,139.708694 
	C35.081825,139.663086 35.520245,139.617462 36.499779,139.737106 
	C36.684734,139.700226 36.869686,139.663361 37.832947,139.735886 
	C38.877861,139.698624 39.922779,139.661377 41.675014,139.857635 
	C43.059528,139.735550 44.444038,139.613464 46.608681,139.456039 
	C47.128983,139.468826 47.649284,139.481613 48.681351,139.836227 
	C50.064304,139.596802 51.447254,139.357376 52.971340,138.973709 
	C52.971340,138.973709 52.986893,138.772491 53.489208,138.442764 
M121.676872,123.261620 
	C121.406654,123.372963 121.125877,123.417053 120.838249,122.748520 
	C118.482323,118.342056 119.901627,112.063660 115.333893,108.753914 
	C114.849854,108.974457 114.365807,109.195007 113.881767,109.415558 
	C115.335510,113.952896 116.789261,118.490242 118.286728,123.580513 
	C118.514107,124.081284 118.741486,124.582047 118.949974,125.809746 
	C119.975693,126.430923 121.001419,127.052101 122.399536,127.687019 
	C122.669823,127.532372 122.731331,127.317848 123.008530,126.443909 
	C123.576080,124.695091 124.143631,122.946266 124.975395,120.450974 
	C125.538177,118.793022 126.100960,117.135071 126.663742,115.477119 
	C128.794342,118.972992 129.787674,122.533203 131.060699,125.990433 
	C131.373383,126.839592 132.520538,127.604546 133.444702,127.892342 
	C133.799332,128.002777 134.901016,126.768181 135.153656,125.982834 
	C136.914261,120.510056 138.541306,114.994308 140.211136,109.492332 
	C139.704987,109.263161 139.198822,109.033989 138.692673,108.804825 
	C134.453873,112.117592 136.131256,118.446579 132.737610,123.002914 
	C131.586655,118.878494 130.617584,115.140747 129.464828,111.460541 
	C129.174530,110.533752 128.296112,109.791176 127.687950,108.963951 
	C126.846672,109.779366 125.597137,110.448700 125.243011,111.438423 
	C124.296501,114.083725 123.734383,116.866547 122.707253,120.102638 
	C122.466331,121.055870 122.225410,122.009102 121.676872,123.261620 
M187.635513,121.316895 
	C187.635513,123.429771 187.635513,125.542656 187.635513,128.088348 
	C193.784988,127.399902 200.338379,129.841019 203.473343,122.693886 
	C205.393082,118.317276 202.702072,115.576408 198.969131,113.580917 
	C202.247543,111.282166 203.989822,108.200752 201.923920,104.886848 
	C198.524048,99.433151 192.959473,101.604134 187.635559,101.436066 
	C187.635559,108.085838 187.635559,114.222023 187.635513,121.316895 
M82.106110,117.883675 
	C88.582794,116.738335 91.748344,113.367210 91.097649,108.308205 
	C90.348320,102.482468 86.066910,100.643219 74.828552,101.565712 
	C74.828552,109.616997 74.767754,117.718384 74.922569,125.815659 
	C74.938065,126.625633 76.263145,127.410568 76.980438,128.207123 
	C78.013519,125.298851 78.200340,122.972290 77.965378,120.689125 
	C77.683144,117.946609 79.181694,117.690186 82.106110,117.883675 
M146.756622,119.199883 
	C150.827881,119.199883 154.899139,119.199883 158.974930,119.199883 
	C158.659561,111.662117 156.623352,108.859512 151.765625,108.657028 
	C147.062576,108.460999 143.560898,111.435051 142.857452,116.222916 
	C141.917236,122.622337 144.268982,127.070671 149.114594,128.058334 
	C153.756683,129.004532 156.530258,127.839439 157.534012,124.521629 
	C149.091248,126.736534 147.232056,125.977913 146.756622,119.199883 
M106.042580,127.657066 
	C107.209023,126.766998 108.589561,126.054276 109.501526,124.953392 
	C112.169823,121.732330 112.251892,115.085892 109.786873,111.854797 
	C106.914337,108.089554 102.915771,108.108604 98.942635,109.143982 
	C94.976631,110.177521 92.669365,114.536308 92.974449,119.479218 
	C93.369034,125.872131 97.496170,128.691605 106.042580,127.657066 
M212.703888,126.898216 
	C212.743912,119.276520 212.849380,111.653900 212.741165,104.034309 
	C212.727631,103.081718 211.584427,102.145164 210.964661,101.201180 
	C210.368439,102.168716 209.276520,103.125648 209.255554,104.105499 
	C209.106613,111.063179 209.193863,118.025627 209.167191,124.986397 
	C209.158859,127.152298 209.540527,128.731827 212.703888,126.898216 
M166.804138,123.286842 
	C167.179413,119.453979 167.554703,115.621124 167.991241,111.162582 
	C167.342606,110.704437 165.886307,109.675827 163.624954,108.078583 
	C163.624954,114.239349 163.537613,119.180649 163.684402,124.114983 
	C163.722656,125.400673 164.490891,126.664658 164.923859,127.938614 
	C165.550583,126.682724 166.177307,125.426826 166.804138,123.286842 
z"/>
<path fill="#F5D864" opacity="1.000000" stroke="none" 
	d="
M33.990749,139.566757 
	C28.349621,139.661972 22.692200,140.019104 17.078720,139.669876 
	C15.659551,139.581589 13.537485,137.415329 13.218878,135.893906 
	C12.619421,133.031387 13.097828,129.943161 13.586266,126.484840 
	C15.293567,125.743462 16.829893,125.835487 17.742975,125.125740 
	C22.098585,121.740051 26.796360,121.360359 31.905495,123.379204 
	C31.985802,125.214081 32.016273,126.627190 32.019653,128.491257 
	C32.860535,132.445755 29.878706,136.673340 33.990749,139.566757 
z"/>
<path fill="#1B1B1A" opacity="1.000000" stroke="none" 
	d="
M187.635529,120.837555 
	C187.635559,114.222023 187.635559,108.085838 187.635559,101.436066 
	C192.959473,101.604134 198.524048,99.433151 201.923920,104.886848 
	C203.989822,108.200752 202.247543,111.282166 198.969131,113.580917 
	C202.702072,115.576408 205.393082,118.317276 203.473343,122.693886 
	C200.338379,129.841019 193.784988,127.399902 187.635513,128.088348 
	C187.635513,125.542656 187.635513,123.429771 187.635529,120.837555 
M194.184952,125.001106 
	C197.737442,125.156746 200.638565,124.236641 200.728561,120.051544 
	C200.804184,116.533936 197.554153,115.124191 190.746399,115.776482 
	C190.746399,118.154762 190.546600,120.625717 190.863144,123.028648 
	C190.963501,123.790497 192.441040,124.370926 194.184952,125.001106 
M194.209061,104.157196 
	C186.757492,104.716476 192.578384,109.832680 190.430313,112.753426 
	C194.682343,112.883789 198.236694,113.350739 199.286530,108.983253 
	C200.055237,105.785278 197.914673,104.550690 194.209061,104.157196 
z"/>
<path fill="#E0A51F" opacity="1.000000" stroke="none" 
	d="
M35.075893,99.017937 
	C35.075893,95.065933 35.075893,91.113930 35.075893,86.898712 
	C41.449844,86.898712 47.177647,86.898712 53.776531,86.898712 
	C53.776531,90.973831 53.776531,95.045952 53.496071,99.564339 
	C53.215607,100.010605 52.892223,99.957550 52.916145,99.589508 
	C52.862782,98.199348 52.785488,97.177231 52.708199,96.155106 
	C52.463387,96.175301 52.218575,96.195496 51.973763,96.215691 
	C51.973763,97.474480 51.973763,98.733276 51.546799,99.991631 
	C48.378681,100.335739 45.637527,100.680283 42.583603,100.836182 
	C39.872513,100.104340 37.474205,99.561134 35.075893,99.017937 
z"/>
<path fill="#1E1E1E" opacity="1.000000" stroke="none" 
	d="
M81.669235,117.877655 
	C79.181694,117.690186 77.683144,117.946609 77.965378,120.689125 
	C78.200340,122.972290 78.013519,125.298851 76.980438,128.207123 
	C76.263145,127.410568 74.938065,126.625633 74.922569,125.815659 
	C74.767754,117.718384 74.828552,109.616997 74.828552,101.565712 
	C86.066910,100.643219 90.348320,102.482468 91.097649,108.308205 
	C91.748344,113.367210 88.582794,116.738335 81.669235,117.877655 
M87.429253,111.815384 
	C88.217003,105.248833 85.712234,103.324959 78.272125,104.752731 
	C78.272125,108.152092 78.272125,111.535866 78.272125,116.180313 
	C81.674744,114.770615 84.378975,113.650253 87.429253,111.815384 
z"/>
<path fill="#F7E078" opacity="1.000000" stroke="none" 
	d="
M31.855656,122.957436 
	C26.796360,121.360359 22.098585,121.740051 17.742975,125.125740 
	C16.829893,125.835487 15.293567,125.743462 13.671694,126.033554 
	C13.216172,125.060066 13.053545,124.073189 13.062829,123.087929 
	C13.168997,111.821060 11.930543,112.971733 24.011333,112.963333 
	C28.344164,113.149109 33.017841,111.590942 31.995089,118.427902 
	C31.931307,120.211990 31.893482,121.584709 31.855656,122.957436 
z"/>
<path fill="#D4910D" opacity="1.000000" stroke="none" 
	d="
M53.453480,107.023331 
	C53.519405,107.476669 53.585331,107.930000 53.197876,108.861282 
	C52.485603,113.532623 51.984646,117.728485 52.027294,121.918808 
	C52.084431,127.532997 48.797951,130.665405 43.002594,129.662811 
	C42.673275,128.224564 42.360310,127.132538 42.056675,125.625168 
	C42.333420,122.127121 42.600838,119.044418 42.900833,115.521545 
	C42.972618,112.723679 43.011818,110.365967 43.484261,108.005386 
	C47.096161,107.676117 50.274822,107.349724 53.453480,107.023331 
z"/>
<path fill="#161616" opacity="1.000000" stroke="none" 
	d="
M146.411163,119.520981 
	C147.232056,125.977913 149.091248,126.736534 157.534012,124.521629 
	C156.530258,127.839439 153.756683,129.004532 149.114594,128.058334 
	C144.268982,127.070671 141.917236,122.622337 142.857452,116.222916 
	C143.560898,111.435051 147.062576,108.460999 151.765625,108.657028 
	C156.623352,108.859512 158.659561,111.662117 158.974930,119.199883 
	C154.899139,119.199883 150.827881,119.199883 146.411163,119.520981 
M155.627747,116.516449 
	C156.364899,113.148575 154.649994,111.262054 151.574234,111.162979 
	C148.271255,111.056572 146.130264,112.819351 146.159851,116.783669 
	C149.213394,116.783669 152.022980,116.783669 155.627747,116.516449 
z"/>
<path fill="#F2CE48" opacity="1.000000" stroke="none" 
	d="
M34.624161,99.097153 
	C37.474205,99.561134 39.872513,100.104340 42.607021,101.229263 
	C42.910748,102.860100 42.878277,103.909218 42.646156,105.118172 
	C39.825474,106.308762 36.852539,106.862900 34.663666,108.478989 
	C31.145046,111.076866 27.953438,111.476204 24.375830,109.042747 
	C23.524670,99.535347 23.524670,99.535347 34.624161,99.097153 
z"/>
<path fill="#141414" opacity="1.000000" stroke="none" 
	d="
M105.699356,127.797455 
	C97.496170,128.691605 93.369034,125.872131 92.974449,119.479218 
	C92.669365,114.536308 94.976631,110.177521 98.942635,109.143982 
	C102.915771,108.108604 106.914337,108.089554 109.786873,111.854797 
	C112.251892,115.085892 112.169823,121.732330 109.501526,124.953392 
	C108.589561,126.054276 107.209023,126.766998 105.699356,127.797455 
M99.469017,111.738007 
	C95.646164,114.581093 95.007851,118.432396 97.139053,122.281616 
	C98.063385,123.951065 100.642731,125.490128 102.551491,125.593742 
	C104.248123,125.685837 107.247421,123.986237 107.567467,122.593788 
	C108.226891,119.724770 108.279472,116.131401 107.016907,113.624039 
	C106.255104,112.111153 102.551903,112.079384 99.469017,111.738007 
z"/>
<path fill="#1B1B1A" opacity="1.000000" stroke="none" 
	d="
M123.019516,119.594727 
	C123.734383,116.866547 124.296501,114.083725 125.243011,111.438423 
	C125.597137,110.448700 126.846672,109.779366 127.687950,108.963951 
	C128.296112,109.791176 129.174530,110.533752 129.464828,111.460541 
	C130.617584,115.140747 131.586655,118.878494 132.737610,123.002914 
	C136.131256,118.446579 134.453873,112.117592 138.692673,108.804825 
	C139.198822,109.033989 139.704987,109.263161 140.211136,109.492332 
	C138.541306,114.994308 136.914261,120.510056 135.153656,125.982834 
	C134.901016,126.768181 133.799332,128.002777 133.444702,127.892342 
	C132.520538,127.604546 131.373383,126.839592 131.060699,125.990433 
	C129.787674,122.533203 128.794342,118.972992 126.663742,115.477119 
	C126.100960,117.135071 125.538177,118.793022 124.462219,120.379150 
	C123.639206,120.069786 123.329361,119.832260 123.019516,119.594727 
z"/>
<path fill="#CB8008" opacity="1.000000" stroke="none" 
	d="
M43.018948,130.009033 
	C48.797951,130.665405 52.084431,127.532997 52.027294,121.918808 
	C51.984646,117.728485 52.485603,113.532623 53.070488,109.185120 
	C53.488789,116.764252 53.581089,124.497505 53.503082,132.729187 
	C53.193527,133.536133 53.273109,133.770584 53.571522,133.930984 
	C53.603455,134.415710 53.635387,134.900421 53.440498,135.962830 
	C53.138084,137.284500 53.062489,138.028488 52.986893,138.772491 
	C52.986893,138.772491 52.971340,138.973709 52.504761,139.008255 
	C50.748650,139.193344 49.459118,139.343872 48.169586,139.494415 
	C47.649284,139.481613 47.128983,139.468826 45.892578,139.305435 
	C44.419991,139.088715 43.663506,139.022598 42.925026,138.509796 
	C42.968334,135.378418 42.993641,132.693726 43.018948,130.009033 
z"/>
<path fill="#EFC536" opacity="1.000000" stroke="none" 
	d="
M24.294327,109.432335 
	C27.953438,111.476204 31.145046,111.076866 34.663666,108.478989 
	C36.852539,106.862900 39.825474,106.308762 42.696411,105.497986 
	C42.981216,106.481392 43.016117,107.244827 43.051018,108.008263 
	C43.011818,110.365967 42.972618,112.723679 42.538067,115.543442 
	C41.409180,116.543961 40.619022,117.020630 39.952152,117.631821 
	C37.398636,119.972122 34.826782,121.195381 32.021046,118.016541 
	C33.017841,111.590942 28.344164,113.149109 24.466476,112.983597 
	C24.087444,111.942345 24.150133,110.882133 24.294327,109.432335 
z"/>
<path fill="#E7B118" opacity="1.000000" stroke="none" 
	d="
M43.002594,129.662811 
	C42.993641,132.693726 42.968334,135.378418 42.663200,138.549255 
	C41.911480,139.231628 41.439590,139.427872 40.967697,139.624115 
	C39.922779,139.661377 38.877861,139.698624 37.342674,139.539139 
	C36.554493,139.418884 36.256577,139.495361 35.958664,139.571838 
	C35.520245,139.617462 35.081825,139.663086 34.317078,139.637726 
	C29.878706,136.673340 32.860535,132.445755 32.272160,128.690445 
	C33.131542,129.730499 33.711323,131.022324 34.028263,131.728500 
	C36.800762,129.761948 39.424053,127.901230 42.047344,126.040504 
	C42.360310,127.132538 42.673275,128.224564 43.002594,129.662811 
z"/>
<path fill="#383838" opacity="1.000000" stroke="none" 
	d="
M212.486633,127.286652 
	C209.540527,128.731827 209.158859,127.152298 209.167191,124.986397 
	C209.193863,118.025627 209.106613,111.063179 209.255554,104.105499 
	C209.276520,103.125648 210.368439,102.168716 210.964661,101.201180 
	C211.584427,102.145164 212.727631,103.081718 212.741165,104.034309 
	C212.849380,111.653900 212.743912,119.276520 212.486633,127.286652 
z"/>
<path fill="#1E1E1E" opacity="1.000000" stroke="none" 
	d="
M166.804077,123.728882 
	C166.177307,125.426826 165.550583,126.682724 164.923859,127.938614 
	C164.490891,126.664658 163.722656,125.400673 163.684402,124.114983 
	C163.537613,119.180649 163.624954,114.239349 163.624954,108.078583 
	C165.886307,109.675827 167.342606,110.704437 167.991241,111.162582 
	C167.554703,115.621124 167.179413,119.453979 166.804077,123.728882 
z"/>
<path fill="#DA9A0E" opacity="1.000000" stroke="none" 
	d="
M43.484261,108.005386 
	C43.016117,107.244827 42.981216,106.481392 42.896057,105.338150 
	C42.878277,103.909218 42.910748,102.860100 42.919800,101.417908 
	C45.637527,100.680283 48.378681,100.335739 51.776802,99.989227 
	C52.433777,99.987251 52.892223,99.957550 52.892223,99.957550 
	C52.892223,99.957550 53.215607,100.010605 53.379417,100.012405 
	C53.592461,102.067085 53.641689,104.119957 53.572201,106.598076 
	C50.274822,107.349724 47.096161,107.676117 43.484261,108.005386 
M52.410835,103.483017 
	C52.410835,103.483017 52.521175,103.416229 52.410835,103.483017 
z"/>
<path fill="#1B1B1A" opacity="1.000000" stroke="none" 
	d="
M122.027145,127.673279 
	C121.001419,127.052101 119.975693,126.430923 118.966293,125.158340 
	C118.736076,124.013824 118.489540,123.520706 118.243011,123.027588 
	C116.789261,118.490242 115.335510,113.952896 113.881767,109.415558 
	C114.365807,109.195007 114.849854,108.974457 115.333893,108.753914 
	C119.901627,112.063660 118.482323,118.342056 120.913574,123.328278 
	C121.320770,123.592804 121.652626,123.277565 121.984482,122.962326 
	C122.225410,122.009102 122.466331,121.055870 122.863388,119.848679 
	C123.329361,119.832260 123.639206,120.069786 124.330109,120.752380 
	C124.143631,122.946266 123.576080,124.695091 122.666328,126.811081 
	C122.168114,127.309052 122.069122,127.474060 122.027145,127.673279 
z"/>
<path fill="#F5D864" opacity="1.000000" stroke="none" 
	d="
M48.425468,139.665314 
	C49.459118,139.343872 50.748650,139.193344 52.434193,139.080368 
	C51.447254,139.357376 50.064304,139.596802 48.425468,139.665314 
z"/>
<path fill="#F5D864" opacity="1.000000" stroke="none" 
	d="
M41.321358,139.740875 
	C41.439590,139.427872 41.911480,139.231628 42.645199,138.995941 
	C43.663506,139.022598 44.419991,139.088715 45.502510,139.323105 
	C44.444038,139.613464 43.059528,139.735550 41.321358,139.740875 
z"/>
<path fill="#E0A51F" opacity="1.000000" stroke="none" 
	d="
M53.238052,138.607635 
	C53.062489,138.028488 53.138084,137.284500 53.395424,136.325134 
	C53.547848,136.887436 53.518528,137.665100 53.238052,138.607635 
z"/>
<path fill="#1E1E1E" opacity="1.000000" stroke="none" 
	d="
M121.830673,123.111969 
	C121.652626,123.277565 121.320770,123.592804 120.911728,123.650970 
	C121.125877,123.417053 121.406654,123.372963 121.830673,123.111969 
z"/>
<path fill="#1E1E1E" opacity="1.000000" stroke="none" 
	d="
M118.264862,123.304047 
	C118.489540,123.520706 118.736076,124.013824 118.975739,124.794876 
	C118.741486,124.582047 118.514107,124.081284 118.264862,123.304047 
z"/>
<path fill="#1E1E1E" opacity="1.000000" stroke="none" 
	d="
M122.213341,127.680145 
	C122.069122,127.474060 122.168114,127.309052 122.454102,127.110847 
	C122.731331,127.317848 122.669823,127.532372 122.213341,127.680145 
z"/>
<path fill="#E0A51F" opacity="1.000000" stroke="none" 
	d="
M53.668530,133.715698 
	C53.273109,133.770584 53.193527,133.536133 53.452194,133.148712 
	C53.571621,133.069809 53.765537,133.500412 53.668530,133.715698 
z"/>
<path fill="#F5D864" opacity="1.000000" stroke="none" 
	d="
M36.229218,139.654480 
	C36.256577,139.495361 36.554493,139.418884 36.953522,139.484436 
	C36.869686,139.663361 36.684734,139.700226 36.229218,139.654480 
z"/>
<path fill="#ECBC28" opacity="1.000000" stroke="none" 
	d="
M42.056675,125.625168 
	C39.424053,127.901230 36.800762,129.761948 34.028263,131.728500 
	C33.711323,131.022324 33.131542,129.730499 32.299252,128.239487 
	C32.016273,126.627190 31.985802,125.214081 31.905495,123.379204 
	C31.893482,121.584709 31.931307,120.211990 31.995089,118.427902 
	C34.826782,121.195381 37.398636,119.972122 39.952152,117.631821 
	C40.619022,117.020630 41.409180,116.543961 42.505486,115.983612 
	C42.600838,119.044418 42.333420,122.127121 42.056675,125.625168 
z"/>
<path fill="#F1F0F0" opacity="1.000000" stroke="none" 
	d="
M193.736664,125.017746 
	C192.441040,124.370926 190.963501,123.790497 190.863144,123.028648 
	C190.546600,120.625717 190.746399,118.154762 190.746399,115.776482 
	C197.554153,115.124191 200.804184,116.533936 200.728561,120.051544 
	C200.638565,124.236641 197.737442,125.156746 193.736664,125.017746 
z"/>
<path fill="#EBEBE9" opacity="1.000000" stroke="none" 
	d="
M194.647141,104.182236 
	C197.914673,104.550690 200.055237,105.785278 199.286530,108.983253 
	C198.236694,113.350739 194.682343,112.883789 190.430313,112.753426 
	C192.578384,109.832680 186.757492,104.716476 194.647141,104.182236 
z"/>
<path fill="#D4910D" opacity="1.000000" stroke="none" 
	d="
M52.916145,99.589508 
	C52.892223,99.957550 52.433777,99.987251 52.203770,99.989655 
	C51.973763,98.733276 51.973763,97.474480 51.973763,96.215691 
	C52.218575,96.195496 52.463387,96.175301 52.708199,96.155106 
	C52.785488,97.177231 52.862782,98.199348 52.916145,99.589508 
z"/>
<path fill="#F1F0F0" opacity="1.000000" stroke="none" 
	d="
M87.256226,112.172638 
	C84.378975,113.650253 81.674744,114.770615 78.272125,116.180313 
	C78.272125,111.535866 78.272125,108.152092 78.272125,104.752731 
	C85.712234,103.324959 88.217003,105.248833 87.256226,112.172638 
z"/>
<path fill="#E0E0E0" opacity="1.000000" stroke="none" 
	d="
M155.230164,116.650055 
	C152.022980,116.783669 149.213394,116.783669 146.159851,116.783669 
	C146.130264,112.819351 148.271255,111.056572 151.574234,111.162979 
	C154.649994,111.262054 156.364899,113.148575 155.230164,116.650055 
z"/>
<path fill="#F4F4F3" opacity="1.000000" stroke="none" 
	d="
M99.819702,111.560043 
	C102.551903,112.079384 106.255104,112.111153 107.016907,113.624039 
	C108.279472,116.131401 108.226891,119.724770 107.567467,122.593788 
	C107.247421,123.986237 104.248123,125.685837 102.551491,125.593742 
	C100.642731,125.490128 98.063385,123.951065 97.139053,122.281616 
	C95.007851,118.432396 95.646164,114.581093 99.819702,111.560043 
z"/>
<path fill="#D4910D" opacity="1.000000" stroke="none" 
	d="
M52.466003,103.449623 
	C52.521175,103.416229 52.410835,103.483017 52.466003,103.449623 
z"/>
</svg>