<svg version="1.1" id="Layer_1" xmlns="http://www.w3.org/2000/svg" xmlns:xlink="http://www.w3.org/1999/xlink" x="0px" y="0px"
	 width="100%" viewBox="0 0 360 140" enable-background="new 0 0 360 140" xml:space="preserve">
<path fill="#FEFEFE" opacity="1.000000" stroke="none" 
	d="
M234.000000,141.000000 
	C157.333344,141.000000 81.166641,140.970581 5.000186,141.096207 
	C1.575804,141.101868 0.890961,140.425385 0.902060,136.999710 
	C1.048931,91.666862 1.000000,46.333374 1.000000,1.000022 
	C119.666634,1.000000 238.333282,1.018983 356.999817,0.904806 
	C360.423553,0.901512 361.109558,1.574349 361.098053,5.000241 
	C360.949799,49.166405 360.962463,93.333336 361.083527,137.499664 
	C361.091705,140.482590 360.483490,141.092850 357.499847,141.083801 
	C316.500183,140.959579 275.500031,141.000000 234.000000,141.000000 
z"/>
<path fill="#050605" opacity="1.000000" stroke="none" 
	d="
M96.736862,33.533062 
	C104.028679,33.188259 100.298996,38.931683 101.600990,41.940071 
	C103.133766,46.531582 102.407150,50.952435 102.497452,55.768806 
	C102.437889,56.865387 102.421791,57.493198 102.422058,58.595413 
	C102.436722,59.387203 102.445900,59.704868 102.493996,60.500198 
	C102.656815,71.126961 102.671898,81.277313 102.535378,91.425110 
	C102.456627,97.278625 101.242340,98.363800 95.430389,98.564667 
	C92.435562,98.668182 89.447235,98.289513 85.977829,98.420059 
	C83.033989,98.409241 80.563499,98.376434 77.642128,98.407730 
	C73.380508,98.384872 69.569550,98.378998 65.337143,98.390869 
	C63.561619,98.425812 62.195583,98.282593 60.480251,98.774841 
	C57.960049,99.432312 55.923717,98.679230 53.458534,98.395172 
	C52.275425,98.388344 51.485439,98.351059 50.290886,98.356758 
	C49.614094,98.361374 49.341419,98.364426 48.655914,98.369942 
	C45.424801,98.283653 42.598385,98.503159 39.364502,98.034805 
	C38.679996,97.787361 38.418095,97.654289 37.838089,97.213448 
	C36.220806,94.435417 36.704128,91.740738 36.560856,88.699402 
	C36.643719,85.766495 36.648750,83.261246 36.630806,80.356766 
	C36.624638,79.697151 36.624294,79.436653 36.628250,78.792068 
	C36.667263,76.937149 36.774235,75.468102 36.721779,73.642639 
	C36.670689,72.821747 36.623783,72.355408 36.506126,71.540070 
	C36.435173,70.950424 36.419067,70.711365 36.423851,70.110909 
	C36.512299,69.261086 36.572258,68.771736 36.631519,67.890976 
	C36.637131,67.230690 36.635338,66.960838 36.628166,66.274963 
	C36.766064,55.714470 36.251480,45.563789 37.065647,34.984550 
	C37.397560,34.284885 37.573021,34.024815 38.139175,33.497879 
	C47.054180,31.851187 55.639038,32.938103 64.189682,32.610912 
	C66.331329,32.528957 68.478699,32.604771 71.097321,32.584229 
	C72.204361,32.576160 72.837486,32.576153 73.946930,32.577110 
	C81.716805,33.003727 89.064941,31.765482 96.736862,33.533062 
z"/>
<path fill="#23D78A" opacity="1.000000" stroke="none" 
	d="
M37.161156,69.693466 
	C37.230274,70.143349 37.213394,70.460831 37.181423,70.616547 
	C37.109695,70.979546 37.069942,71.186821 36.936241,71.696503 
	C36.744804,72.185272 36.647324,72.371658 36.383873,72.824814 
	C35.760662,73.782516 35.271053,74.450172 34.579411,75.345886 
	C34.261463,75.736526 34.131779,75.889221 33.810234,76.269394 
	C33.252594,76.963448 32.913891,77.448540 32.458199,78.217255 
	C31.826029,79.129089 31.263275,79.713974 30.599663,80.618042 
	C29.184511,82.636330 27.967232,84.413200 26.139545,86.101051 
	C23.040710,85.339149 23.482351,81.998383 21.256077,80.233109 
	C22.371162,64.314499 23.781662,48.627419 25.064409,32.929905 
	C25.252754,30.625067 26.690413,29.821316 28.394114,29.108870 
	C39.093758,24.634537 49.832653,20.252728 60.498444,15.699477 
	C64.494537,13.993534 65.836052,17.951077 68.732758,19.319431 
	C67.192574,21.630379 67.598457,23.708349 68.551727,25.978861 
	C69.410606,28.024548 70.747826,30.188499 68.516479,32.617294 
	C60.122192,33.241405 52.085999,32.860538 44.054554,33.009293 
	C42.271782,33.042316 40.436462,32.687832 38.396439,33.839806 
	C38.063019,34.140869 38.050499,34.051170 38.095520,34.056034 
	C36.718956,35.341438 37.007290,37.063915 37.011848,38.674980 
	C37.040680,48.864506 36.875488,59.054626 37.161156,69.693466 
z"/>
<path fill="#101010" opacity="1.000000" stroke="none" 
	d="
M301.906067,57.551384 
	C304.719299,58.368717 308.591095,54.793159 310.044922,59.776806 
	C310.436554,61.119236 311.536377,59.429531 312.211090,58.994308 
	C317.022827,55.890587 320.533325,55.811340 324.851654,59.606277 
	C326.544830,61.094223 327.159973,60.533581 328.434479,59.517155 
	C332.125214,56.573704 336.349854,55.639458 340.511444,58.014717 
	C344.811768,60.469170 346.808167,64.564545 346.728302,69.607483 
	C346.667664,73.438744 346.716156,77.271744 346.716370,81.103966 
	C346.716644,85.619629 342.306793,88.217255 338.257172,86.142593 
	C336.792023,85.391991 337.378540,84.132011 337.361420,83.083992 
	C337.290619,78.753036 337.345367,74.420219 337.318878,70.088295 
	C337.299103,66.852745 336.003784,64.308861 332.497375,64.346855 
	C329.067749,64.384026 327.646454,66.877510 327.603851,70.111618 
	C327.548920,74.276375 327.320801,78.464127 327.663055,82.600952 
	C327.942841,85.983322 326.518707,86.343544 323.672211,86.335037 
	C320.722015,86.326210 319.026123,86.055641 319.337463,82.393867 
	C319.689026,78.258675 319.437225,74.069717 319.398804,69.904594 
	C319.368561,66.626389 317.944427,64.238815 314.435608,64.360390 
	C311.241608,64.471054 309.868866,66.799316 309.819336,69.834236 
	C309.754089,73.832001 309.575287,77.846840 309.854828,81.825569 
	C310.096252,85.261894 309.064789,86.393295 305.488495,86.373222 
	C302.084778,86.354111 301.332794,85.262878 301.495300,82.086128 
	C301.767365,76.768356 301.566437,71.426384 301.542725,65.638870 
	C300.444244,62.740513 300.208527,60.301483 301.906067,57.551384 
z"/>
<path fill="#F7F44B" opacity="1.000000" stroke="none" 
	d="
M84.587479,97.331116 
	C89.280220,97.127785 93.595497,96.862091 97.886887,97.075928 
	C100.837578,97.222954 101.441498,96.140106 101.405907,93.411842 
	C101.265404,82.639313 101.356163,71.863762 101.398598,60.634132 
	C101.813499,59.493683 102.208694,58.822037 103.181717,58.125286 
	C106.554901,56.433636 108.665291,57.305710 109.640221,60.516121 
	C110.629852,63.774967 112.696976,66.845047 111.673393,70.905151 
	C114.436028,81.581467 117.119698,91.869034 119.778236,102.163094 
	C120.102127,103.417229 121.661926,104.974609 119.161339,105.732788 
	C108.881248,108.849716 99.136505,113.638351 88.200470,115.343414 
	C87.774208,111.927513 89.494209,109.092590 89.651642,105.923950 
	C89.913239,100.658592 89.635010,100.268219 83.962074,100.354141 
	C81.687614,100.403481 79.791779,100.474228 77.597954,99.635788 
	C77.067505,99.207878 76.901230,98.984657 76.782104,98.347061 
	C79.239822,97.037010 81.751984,97.771049 84.587479,97.331116 
z"/>
<path fill="#050505" opacity="1.000000" stroke="none" 
	d="
M162.463394,58.510818 
	C162.587051,58.688137 162.282898,58.975197 162.284088,59.260975 
	C162.329926,70.145927 157.828629,75.173309 147.027832,74.744591 
	C141.548508,74.527092 140.669189,76.441124 141.060211,81.147713 
	C141.461090,85.972969 138.878265,87.563042 134.185669,86.235313 
	C132.464691,85.748383 132.800385,84.627670 132.797714,83.566132 
	C132.770889,72.901764 132.861252,62.236290 132.724075,51.573624 
	C132.690018,48.926224 133.860077,48.602989 136.023819,48.659061 
	C140.519943,48.775585 145.024628,48.587582 149.519241,48.730930 
	C156.309509,48.947498 160.015991,51.927708 162.463394,58.510818 
z"/>
<path fill="#0C0C0C" opacity="1.000000" stroke="none" 
	d="
M226.084839,80.667549 
	C220.414612,85.536285 214.398361,88.071663 207.169312,86.478020 
	C197.007904,84.237938 191.759811,77.190346 191.837830,65.496277 
	C190.722412,62.501991 191.870956,60.484177 193.648010,58.255623 
	C201.855545,46.756432 213.780823,44.680626 225.090439,52.775459 
	C225.621475,58.579445 222.545776,60.824120 217.385834,58.812725 
	C210.067673,55.960022 205.083023,57.398842 202.605820,63.079014 
	C200.729034,67.382408 201.738388,72.476685 205.056396,75.447342 
	C208.066376,78.142204 212.779449,78.409943 217.207291,76.137627 
	C222.365112,73.490685 224.801788,74.629265 226.084839,80.667549 
z"/>
<path fill="#0B0B0B" opacity="1.000000" stroke="none" 
	d="
M235.942627,60.235744 
	C239.690063,57.197041 243.492340,55.652416 247.962006,57.756561 
	C252.796753,60.032578 253.460220,64.343636 253.327057,69.020172 
	C253.280090,70.669838 253.293900,72.321236 253.291260,74.426361 
	C254.374207,76.608383 254.548294,78.410545 253.527481,80.707306 
	C254.399826,85.902336 251.887421,86.631462 247.879089,86.311150 
	C245.658066,86.133667 245.111298,85.420532 245.195526,83.313881 
	C245.361588,79.160538 245.193756,74.995056 245.268692,70.836487 
	C245.333755,67.224319 244.254120,64.267052 240.172607,64.382690 
	C236.166046,64.496201 235.147888,67.530289 235.201035,71.081451 
	C235.255814,74.741333 235.168091,78.403389 235.227234,82.063133 
	C235.265976,84.460503 235.592743,86.501915 231.835587,86.360649 
	C228.479980,86.234467 226.268509,85.954643 226.974426,81.443344 
	C224.429260,71.990974 224.990234,62.920914 226.635345,53.414188 
	C228.339615,51.079475 224.583115,46.975540 229.761688,46.535179 
	C233.696381,46.200592 236.147202,46.749924 235.282425,51.627472 
	C234.855179,54.037170 235.172638,56.578899 235.240387,59.520531 
	C235.454956,60.118057 235.582306,60.255943 235.942627,60.235744 
z"/>
<path fill="#0E0E0E" opacity="1.000000" stroke="none" 
	d="
M162.824249,58.502754 
	C168.221039,55.530895 171.349899,56.607868 173.117157,62.027065 
	C174.588974,66.540352 176.123489,71.033195 178.076813,76.869377 
	C179.673630,71.961540 181.267242,68.254990 182.046631,64.384499 
	C183.172180,58.794975 185.757706,55.878380 192.086029,57.592361 
	C192.796768,60.326275 191.770477,62.398613 190.326309,64.730171 
	C187.054932,72.969070 184.163818,80.956535 180.943741,88.809097 
	C178.408600,94.991348 172.971390,97.022377 167.654816,94.187950 
	C166.518478,93.582138 164.687210,93.160233 165.985931,91.461098 
	C166.984970,90.153999 166.098007,87.294846 169.440018,87.685150 
	C174.567978,88.284050 174.812088,87.775810 172.966324,83.047668 
	C169.822342,74.993942 166.654831,66.949394 163.123016,58.651333 
	C162.748810,58.401672 162.811218,58.461525 162.824249,58.502754 
z"/>
<path fill="#0C0C0C" opacity="1.000000" stroke="none" 
	d="
M254.655487,75.344711 
	C257.887238,68.061806 263.891815,68.635681 269.794556,68.915146 
	C270.822662,68.963821 272.175140,70.300537 272.816376,68.669342 
	C273.366455,67.270012 272.334839,66.094421 271.194061,65.319405 
	C268.456818,63.459812 265.410370,63.704605 262.557465,64.728165 
	C259.489685,65.828819 258.617401,64.559135 257.690125,61.870045 
	C256.545654,58.550980 259.013489,58.730091 260.673981,58.084465 
	C263.524048,56.976318 266.531342,56.880322 269.539551,57.054108 
	C276.423370,57.451801 280.327881,61.137142 280.754913,68.021095 
	C281.032990,72.503586 280.876038,77.014381 280.874817,81.512489 
	C280.873657,85.870201 276.998657,88.464409 273.702545,85.741936 
	C271.928772,84.276863 271.455414,84.669006 270.005951,85.376740 
	C264.016571,88.301170 259.415222,87.092232 255.090881,81.338921 
	C253.762115,79.365486 253.865753,77.576019 254.655487,75.344711 
z"/>
<path fill="#F2F2F2" opacity="1.000000" stroke="none" 
	d="
M226.636169,52.972225 
	C226.982178,62.033203 227.079391,71.074158 227.020798,80.561653 
	C226.685944,81.007179 226.506897,81.006172 226.063080,80.960297 
	C222.904602,75.274277 222.145569,75.001221 217.112900,77.790886 
	C212.342545,80.435150 206.504150,79.475525 203.119843,75.490929 
	C199.417084,71.131393 199.236252,64.441750 202.696747,59.838917 
	C205.983307,55.467438 211.614624,53.750202 216.332047,56.979767 
	C221.610504,60.593410 223.379196,57.461792 225.428406,53.352928 
	C225.722275,52.925255 226.054459,52.919117 226.636169,52.972225 
z"/>
<path fill="#3EDA87" opacity="1.000000" stroke="none" 
	d="
M20.828083,80.373505 
	C24.911055,79.921730 23.999573,83.695099 25.722233,85.781822 
	C32.455463,86.878403 36.760788,90.962700 38.388222,97.601791 
	C41.804920,98.311089 44.923336,97.754631 48.354259,98.276413 
	C50.696724,99.751183 49.750225,103.157967 52.919846,104.040939 
	C55.574760,105.204079 58.253822,105.437439 60.355194,107.671951 
	C54.121258,116.074081 54.076477,116.152794 45.177986,111.090607 
	C37.226799,106.567314 29.454937,101.725929 21.458153,97.287582 
	C19.288956,96.083641 18.774563,94.923279 19.176228,92.612160 
	C19.858173,88.688354 20.180693,84.702087 20.828083,80.373505 
z"/>
<path fill="#0C0C0C" opacity="1.000000" stroke="none" 
	d="
M300.173645,64.552795 
	C292.274994,67.080803 290.930389,68.862206 290.838989,76.908798 
	C290.820038,78.574623 290.632172,80.271614 290.877960,81.900551 
	C291.409210,85.421028 290.043793,86.265686 286.578918,86.381966 
	C282.826385,86.507881 282.693298,84.840645 282.749695,81.999634 
	C282.885254,75.171776 282.724731,68.338478 282.806854,61.508858 
	C282.829346,59.639103 281.690796,56.792007 285.585327,57.229797 
	C288.161804,57.519421 291.887817,55.945187 290.756500,61.717171 
	C293.650055,59.471416 295.481171,56.490757 299.444763,57.037018 
	C301.630463,59.345394 301.078552,61.768875 300.173645,64.552795 
z"/>
<path fill="#0EC6EB" opacity="1.000000" stroke="none" 
	d="
M111.960800,70.977798 
	C110.779739,67.996986 109.711311,64.725052 108.843735,61.400707 
	C107.953133,57.988144 106.230400,57.178986 102.903946,59.385193 
	C102.285210,59.468384 102.068886,59.437752 101.639381,59.158226 
	C101.424103,58.482605 101.422012,58.055882 101.549728,57.335518 
	C104.020966,55.320061 104.908066,53.026360 104.685425,50.130814 
	C104.547066,48.331493 104.528641,46.465424 105.720482,44.515133 
	C109.995567,47.426849 113.939140,50.678616 118.026756,53.737923 
	C119.762337,55.036877 119.667007,56.197319 118.747459,57.898643 
	C116.471298,62.109932 114.346954,66.403282 111.960800,70.977798 
z"/>
<path fill="#EAF355" opacity="1.000000" stroke="none" 
	d="
M76.637955,98.739792 
	C79.033226,98.995636 81.073410,99.000313 83.550667,99.005753 
	C86.108604,102.496742 85.035683,106.328064 85.000038,109.998665 
	C84.973930,112.686882 82.768394,112.798172 80.316902,112.793381 
	C75.806030,111.888611 71.638939,110.729988 67.195786,109.332748 
	C68.481003,105.777397 68.141708,101.802765 70.854843,98.540169 
	C72.917542,97.938560 74.613747,97.807541 76.637955,98.739792 
z"/>
<path fill="#A1E371" opacity="1.000000" stroke="none" 
	d="
M96.414993,28.546619 
	C96.576607,29.331419 96.663124,29.832802 96.710228,30.716358 
	C95.769005,33.281704 93.816307,32.971283 92.055923,32.976795 
	C87.307434,32.991669 82.558167,33.070133 77.377426,32.852684 
	C74.522697,29.429760 77.471428,28.505613 79.908463,27.096912 
	C84.891487,23.331804 89.446342,19.627207 94.554642,15.472484 
	C95.145851,19.775183 95.635330,23.337446 96.107796,27.316027 
	C96.173828,27.909296 96.256866,28.086248 96.414993,28.546619 
z"/>
<path fill="#24D695" opacity="1.000000" stroke="none" 
	d="
M80.075500,26.785927 
	C78.961403,28.489725 77.586182,29.943048 76.044327,31.681358 
	C75.660431,32.733288 75.121727,33.111187 74.010712,33.165955 
	C72.277565,32.844479 70.799461,33.236954 69.238327,32.251167 
	C69.021774,28.720650 67.143600,26.060980 65.997086,23.204514 
	C64.980835,20.672602 65.729820,19.900927 68.529099,19.696297 
	C72.913742,21.386150 76.353874,23.976755 80.075500,26.785927 
z"/>
<path fill="#F6F74F" opacity="1.000000" stroke="none" 
	d="
M80.337029,113.123123 
	C83.540848,111.979256 84.631523,109.834053 83.681427,106.113411 
	C83.185799,104.172447 83.853325,101.934464 83.991608,99.418579 
	C85.468948,98.925415 86.978645,98.994911 88.423546,98.721748 
	C89.931953,98.436592 90.817863,99.055733 90.874580,100.362343 
	C91.086426,105.242302 91.520851,110.200806 88.145195,114.811600 
	C85.299232,115.305389 83.129433,113.767479 80.337029,113.123123 
z"/>
<path fill="#D5E95A" opacity="1.000000" stroke="none" 
	d="
M70.673752,98.727844 
	C69.912308,100.748940 69.823547,102.686584 70.030693,104.600151 
	C70.261841,106.735382 69.306770,107.894608 67.162865,108.800835 
	C65.024605,108.717293 63.129482,108.340454 60.886326,107.988861 
	C58.172913,107.211182 55.807537,106.408272 53.171852,105.373276 
	C52.761707,103.010422 54.359146,103.465363 55.535595,103.441002 
	C56.673725,103.417442 57.800335,103.840569 58.948532,103.702454 
	C60.349609,103.533913 60.910515,102.466141 60.916199,101.279884 
	C60.924080,99.635185 59.530548,100.412987 58.709282,100.266876 
	C56.495556,99.873016 53.607185,101.156532 52.817848,97.490616 
	C54.962864,97.200211 56.911999,97.189621 59.116905,97.451309 
	C60.507614,97.644653 61.635139,97.444283 63.206291,97.519119 
	C65.837898,98.106674 68.170822,97.746094 70.673752,98.727844 
z"/>
<path fill="#0FC7DF" opacity="1.000000" stroke="none" 
	d="
M105.837616,44.034714 
	C105.995171,47.399921 105.866692,50.553970 106.037277,53.691753 
	C106.186256,56.432102 104.861969,57.220501 102.065063,57.028229 
	C101.569244,52.474361 101.458939,47.906841 101.377701,42.831223 
	C101.406761,42.323116 101.449615,42.428192 101.398529,42.452888 
	C102.041473,42.395790 102.732529,42.415905 103.914978,42.701736 
	C104.833405,43.182495 105.257462,43.499493 105.837616,44.034714 
z"/>
<path fill="#9BDE77" opacity="1.000000" stroke="none" 
	d="
M74.531021,33.512745 
	C74.515358,32.752384 74.951813,32.457661 75.632980,32.064644 
	C82.574371,31.710939 89.302475,32.677372 96.322472,31.273911 
	C96.837158,31.761038 97.003502,32.423542 97.160530,33.429863 
	C89.761856,33.841915 82.372498,33.910149 74.531021,33.512745 
z"/>
<path fill="#ABABAB" opacity="1.000000" stroke="none" 
	d="
M300.154175,64.901405 
	C299.827942,62.606350 299.784363,60.304226 299.778717,57.572525 
	C300.360046,57.151085 300.903442,57.159225 301.853394,57.200462 
	C302.125366,59.603817 301.990814,61.974083 301.688568,64.763748 
	C301.159546,65.086868 300.798157,64.990601 300.154175,64.901405 
z"/>
<path fill="#B7B7B7" opacity="1.000000" stroke="none" 
	d="
M190.380798,65.021973 
	C190.757263,62.880001 191.426620,60.720230 192.251648,58.208488 
	C192.738007,57.869160 193.068710,57.881802 193.651947,57.925468 
	C193.326462,60.099464 192.748444,62.242435 192.008240,64.722527 
	C191.455261,65.041153 191.064468,65.022659 190.380798,65.021973 
z"/>
<path fill="#B1B1B1" opacity="1.000000" stroke="none" 
	d="
M254.624268,74.962540 
	C254.936752,76.684883 254.982849,78.421700 254.989471,80.592003 
	C254.586182,81.050713 254.222366,81.075928 253.580353,81.111191 
	C253.213806,79.329002 253.125443,77.536766 253.169815,75.312706 
	C253.654327,74.912918 254.006088,74.944962 254.624268,74.962540 
z"/>
<path fill="#0EC6EB" opacity="1.000000" stroke="none" 
	d="
M104.217682,42.582653 
	C103.721016,42.843170 103.032692,42.820847 101.845901,42.638054 
	C102.064651,39.771812 103.114670,42.080509 104.217682,42.582653 
z"/>
<path fill="#F2F2F2" opacity="1.000000" stroke="none" 
	d="
M235.966476,60.028206 
	C235.997009,60.627480 235.747269,60.981495 235.250214,60.211174 
	C235.327621,59.980175 235.757370,59.978756 235.966476,60.028206 
z"/>
<path fill="#9BDE77" opacity="1.000000" stroke="none" 
	d="
M96.535629,28.623169 
	C96.285774,28.643394 96.158546,28.413925 96.099594,27.936989 
	C96.342674,27.897055 96.506134,28.125042 96.535629,28.623169 
z"/>
<path fill="#ECECEC" opacity="1.000000" stroke="none" 
	d="
M48.811440,68.108902 
	C45.008564,68.772774 43.697395,67.611298 43.882076,63.983776 
	C44.194122,57.854507 44.066975,51.695366 43.917793,45.553810 
	C43.857971,43.090992 44.369495,41.828640 47.150558,42.013874 
	C50.293003,42.223179 53.477993,41.886292 56.607079,42.182320 
	C61.541462,42.649132 64.563332,45.925354 64.822563,50.616829 
	C65.082565,55.322292 62.433681,59.675056 57.595085,59.753086 
	C51.470818,59.851845 48.956463,62.092434 48.811440,68.108902 
z"/>
<path fill="#EDEDED" opacity="1.000000" stroke="none" 
	d="
M80.121681,41.861115 
	C83.083527,41.782963 85.681587,41.914612 87.748779,43.406658 
	C88.864120,44.211685 92.006264,44.587151 89.858444,47.234741 
	C88.656143,48.716805 87.827560,51.022865 84.885391,48.732590 
	C81.618607,46.189632 77.885712,46.676704 75.080124,49.954929 
	C72.224930,53.291115 72.108055,57.041962 74.817879,60.470493 
	C77.551514,63.929165 81.248314,64.810814 84.952759,62.211235 
	C87.427818,60.474369 88.979424,61.188869 90.240677,63.234894 
	C91.788551,65.745880 89.136086,66.254280 87.859245,67.059280 
	C83.129959,70.040901 76.802841,69.685112 72.359756,66.415665 
	C68.078651,63.265415 65.890602,57.277157 67.167549,52.205570 
	C68.676338,46.213120 72.792542,42.814587 80.121681,41.861115 
z"/>
<path fill="#E3E3E3" opacity="1.000000" stroke="none" 
	d="
M66.560898,85.201080 
	C68.930420,87.639832 68.746445,89.219841 65.333450,89.255608 
	C59.174786,89.320160 53.014957,89.273811 46.855618,89.273224 
	C45.465389,89.273087 44.167812,89.225006 44.085674,87.296867 
	C43.984844,84.929863 45.626789,85.149818 47.122066,85.147095 
	C53.447868,85.135567 59.773697,85.140656 66.560898,85.201080 
z"/>
<path fill="#C5E760" opacity="1.000000" stroke="none" 
	d="
M52.641800,97.120071 
	C55.600029,101.285522 59.828152,97.590157 62.919838,99.431381 
	C63.314171,107.558434 57.592911,104.730072 53.127098,104.862198 
	C48.442215,105.695770 48.734921,102.823822 49.124962,99.464905 
	C49.117977,98.859283 49.100567,98.677971 49.160576,98.234589 
	C49.346603,97.826561 49.455212,97.680618 49.778458,97.366188 
	C50.752026,97.141579 51.510948,97.085464 52.641800,97.120071 
z"/>
<path fill="#4ADB80" opacity="1.000000" stroke="none" 
	d="
M38.210098,97.568176 
	C36.387581,91.918373 31.704447,88.916931 26.202478,86.257973 
	C26.110735,83.480614 28.611450,82.437195 29.723881,80.182739 
	C32.484695,80.621353 33.707088,82.982452 35.997292,84.427444 
	C37.008900,85.447044 36.853813,86.660294 37.720741,87.742691 
	C38.013935,90.590996 38.097065,93.208427 38.151775,96.256851 
	C38.216904,96.835365 38.310448,96.982903 38.210098,97.568176 
z"/>
<path fill="#25EE98" opacity="1.000000" stroke="none" 
	d="
M37.482590,70.049858 
	C36.083012,69.413010 36.002659,68.260719 36.002926,67.068787 
	C36.005169,57.078571 35.998852,47.088345 36.010769,37.098145 
	C36.012135,35.953907 35.871078,34.702030 37.729507,34.124336 
	C38.117031,45.066784 38.093521,56.072666 37.992615,67.542068 
	C37.804016,68.174698 37.692810,68.343811 37.769184,68.751633 
	C37.882812,69.312347 37.808861,69.634361 37.482590,70.049858 
z"/>
<path fill="#25EE98" opacity="1.000000" stroke="none" 
	d="
M68.526688,31.993860 
	C70.517403,32.154095 72.040001,32.317753 73.820755,32.764259 
	C74.078911,33.047112 74.051704,33.022053 74.057022,33.028008 
	C73.626511,33.450943 73.054947,33.466782 72.261589,33.688553 
	C61.002918,33.875092 49.992031,33.932507 38.522079,34.065395 
	C38.345440,31.266432 40.579685,32.038868 42.235813,32.027531 
	C50.843067,31.968616 59.450924,31.998394 68.526688,31.993860 
z"/>
<path fill="#71E880" opacity="1.000000" stroke="none" 
	d="
M38.013489,87.531433 
	C36.453224,87.926865 35.966396,87.036331 35.986374,85.355423 
	C34.446526,83.243256 34.592350,81.075966 34.523952,78.509415 
	C34.529278,76.224144 35.262489,74.535675 35.772785,72.363144 
	C35.977734,71.962837 35.998096,72.002296 35.979858,71.989410 
	C36.366947,71.666077 36.826561,71.539139 37.633163,71.787979 
	C37.989979,73.723511 38.046726,75.441856 38.018341,77.582733 
	C37.816284,78.167740 37.699356,78.330231 37.754196,78.739014 
	C37.982708,81.686646 38.039444,84.387970 38.013489,87.531433 
z"/>
<path fill="#FBFC65" opacity="1.000000" stroke="none" 
	d="
M71.416031,99.011406 
	C68.917107,98.809547 66.745323,99.497192 64.444145,98.131783 
	C63.916256,97.848167 63.731350,97.744972 63.789677,97.437492 
	C68.042976,97.179848 72.053040,97.126480 76.519341,97.146599 
	C77.157196,97.356453 77.338821,97.492821 77.250351,97.836823 
	C76.980247,98.044449 76.990875,98.517761 76.991959,98.754356 
	C75.277199,98.995155 73.561363,98.999359 71.416031,99.011406 
z"/>
<path fill="#4CFB95" opacity="1.000000" stroke="none" 
	d="
M49.641449,97.732742 
	C49.783695,98.299065 49.695503,98.567795 49.314781,98.919983 
	C45.617058,98.893707 42.098721,98.746811 38.298294,98.302917 
	C38.016201,98.005928 38.000080,98.000916 38.003063,98.006195 
	C38.148705,97.846733 38.291367,97.681984 38.719154,97.357346 
	C42.035740,97.170128 45.067200,97.142799 48.547951,97.183517 
	C49.172878,97.325157 49.348515,97.398735 49.641449,97.732742 
z"/>
<path fill="#D5E95A" opacity="1.000000" stroke="none" 
	d="
M77.406647,98.030190 
	C76.980247,98.044449 76.955078,97.632393 76.965332,97.426239 
	C79.351318,97.149086 81.727058,97.078087 84.538963,97.098045 
	C82.746643,98.779289 80.203156,97.648849 77.406647,98.030190 
z"/>
<path fill="#C5E760" opacity="1.000000" stroke="none" 
	d="
M63.631962,97.132492 
	C64.032913,97.233215 64.083633,97.591248 64.092400,97.771309 
	C62.836956,97.931015 61.572750,97.910652 59.840607,97.806931 
	C60.468361,96.430916 61.935627,97.210670 63.631962,97.132492 
z"/>
<path fill="#23D78A" opacity="1.000000" stroke="none" 
	d="
M72.349808,33.913372 
	C72.502701,33.555351 72.991592,33.293026 73.771408,33.032333 
	C74.062340,33.033962 74.083313,33.431190 74.074127,33.629883 
	C73.605232,33.888737 73.145523,33.948906 72.349808,33.913372 
z"/>
<path fill="#75DC75" opacity="1.000000" stroke="none" 
	d="
M37.976971,71.723907 
	C37.495270,72.001595 37.057312,71.998024 36.290482,71.985489 
	C36.209019,71.692833 36.456421,71.409149 36.926636,70.948860 
	C37.439869,70.995728 37.730289,71.219193 37.976971,71.723907 
z"/>
<path fill="#2A848A" opacity="1.000000" stroke="none" 
	d="
M101.330673,59.227493 
	C101.736267,58.863464 102.012581,58.939674 102.378326,59.318485 
	C102.268387,59.723637 102.035240,59.948254 101.619080,60.175903 
	C101.369095,59.967846 101.302124,59.756752 101.330673,59.227493 
z"/>
<path fill="#3EDA87" opacity="1.000000" stroke="none" 
	d="
M49.850964,97.804222 
	C49.522621,97.909225 49.323372,97.771782 49.079124,97.416222 
	C49.160759,97.194992 49.324280,97.138397 49.740448,97.139755 
	C49.993103,97.197693 49.943176,97.615257 49.850964,97.804222 
z"/>
<path fill="#3EDA87" opacity="1.000000" stroke="none" 
	d="
M38.807014,97.030365 
	C38.890594,97.487137 38.695854,97.704025 38.213051,97.929802 
	C38.020409,97.790443 38.034775,97.569405 38.086250,97.018105 
	C38.285484,96.746307 38.447617,96.804779 38.807014,97.030365 
z"/>
<path fill="#75DC75" opacity="1.000000" stroke="none" 
	d="
M38.004551,78.740868 
	C37.764786,78.821556 37.586346,78.670006 37.455383,78.484871 
	C37.425236,78.442245 37.557980,78.284401 37.774487,78.092422 
	C37.983185,78.168976 38.033157,78.332703 38.004551,78.740868 
z"/>
<path fill="#23D78A" opacity="1.000000" stroke="none" 
	d="
M38.024727,68.740845 
	C37.836315,68.722404 37.715858,68.454460 37.755314,68.096054 
	C37.974377,68.167511 38.033527,68.329437 38.024727,68.740845 
z"/>
<path fill="#61DD7B" opacity="1.000000" stroke="none" 
	d="
M35.760941,77.687569 
	C35.981159,80.046135 35.985935,82.088448 35.982735,84.568680 
	C33.173809,84.702934 32.010826,82.285789 30.139439,80.295532 
	C30.458578,79.410561 30.922285,78.826248 31.641006,78.118942 
	C32.406815,77.606728 32.508713,77.017769 32.812202,76.200287 
	C32.972664,75.951668 32.989552,76.005539 32.969147,75.985863 
	C34.613998,74.956718 35.255581,75.839066 35.760941,77.687569 
z"/>
<path fill="#75DC75" opacity="1.000000" stroke="none" 
	d="
M35.984047,77.573212 
	C35.178135,77.356537 34.379887,76.709236 33.265194,76.014069 
	C33.777588,74.740547 34.606430,73.514900 35.706501,72.126053 
	C35.982391,73.689423 35.987053,75.416016 35.984047,77.573212 
z"/>
<path fill="#75DC75" opacity="1.000000" stroke="none" 
	d="
M32.728363,76.129196 
	C32.794582,76.529411 32.616501,77.107162 32.167221,77.840424 
	C32.092037,77.432877 32.288052,76.869804 32.728363,76.129196 
z"/>
<path fill="#ECECEC" opacity="1.000000" stroke="none" 
	d="
M141.103699,64.688034 
	C141.103622,63.735672 141.103683,63.240383 141.103622,62.745090 
	C141.102539,55.425537 141.723907,54.870949 148.835358,56.058929 
	C152.126114,56.608646 154.434647,58.338749 154.345215,61.914322 
	C154.256866,65.448059 151.900757,67.679138 148.635986,67.450203 
	C146.147308,67.275688 142.214142,70.200470 141.103699,64.688034 
z"/>
<path fill="#E6E6E6" opacity="1.000000" stroke="none" 
	d="
M262.408051,77.210632 
	C264.471680,72.287003 268.238098,73.052902 271.771271,74.086823 
	C274.422546,74.862671 273.421417,77.100647 272.511353,78.584518 
	C270.128601,82.469635 264.540894,81.852745 262.408051,77.210632 
z"/>
<path fill="#111111" opacity="1.000000" stroke="none" 
	d="
M57.903908,53.937489 
	C52.173481,56.754486 49.902359,56.214378 49.907925,52.305405 
	C49.910099,50.776875 48.957272,48.442921 50.642929,47.849148 
	C52.677967,47.132301 55.237083,47.006313 57.261887,48.463821 
	C59.142700,49.817684 59.406101,51.642170 57.903908,53.937489 
z"/>
</svg>