<?xml version="1.0" encoding="UTF-8"?>
<svg xmlns="http://www.w3.org/2000/svg" xmlns:xlink="http://www.w3.org/1999/xlink" width="59px" height="20px" viewBox="0 0 21 20" version="1.1">
<g id="surface1">
<path style=" stroke:none;fill-rule:nonzero;fill:rgb(99.607843%,100%,100%);fill-opacity:1;" d="M 14.449219 20.105469 C 9.753906 20.105469 5.113281 20.101562 0.46875 20.113281 C 0.15625 20.117188 0.09375 20.050781 0.09375 19.734375 C 0.105469 13.191406 0.105469 6.648438 0.105469 0.105469 C 6.964844 0.105469 13.828125 0.109375 20.6875 0.09375 C 21.042969 0.09375 21.113281 0.167969 21.113281 0.527344 C 21.101562 6.914062 21.101562 13.296875 21.113281 19.683594 C 21.113281 20.046875 21.042969 20.121094 20.6875 20.117188 C 18.625 20.09375 16.5625 20.105469 14.449219 20.105469 Z M 14.449219 20.105469 "/>
<path style=" stroke:none;fill-rule:nonzero;fill:rgb(76.078431%,76.470588%,78.039216%);fill-opacity:1;" d="M 1.894531 10.078125 C 1.601562 9.167969 1.824219 8.375 2.324219 7.636719 C 3.234375 6.296875 4.574219 5.632812 6.097656 5.207031 C 6.253906 5.433594 6.042969 5.582031 5.976562 5.804688 C 5.242188 5.804688 5.207031 6.421875 5.035156 6.871094 C 4.945312 7.109375 4.867188 7.324219 4.664062 7.480469 C 4.496094 7.609375 4.371094 7.78125 4.304688 7.984375 C 4.140625 8.480469 3.839844 8.855469 3.496094 9.242188 C 3.1875 9.585938 3.003906 10.0625 2.636719 10.386719 C 2.523438 10.484375 2.488281 10.710938 2.304688 10.679688 C 2.113281 10.648438 2.050781 10.464844 2.027344 10.28125 C 2.019531 10.207031 1.96875 10.15625 1.894531 10.078125 Z M 1.894531 10.078125 "/>
<path style=" stroke:none;fill-rule:nonzero;fill:rgb(74.117647%,74.509804%,76.078431%);fill-opacity:1;" d="M 1.871094 10.09375 C 1.96875 10.0625 2.132812 10.03125 2.140625 10.140625 C 2.203125 10.980469 2.449219 10.371094 2.605469 10.199219 C 2.847656 9.921875 3.3125 9.769531 3.171875 9.246094 C 3.164062 9.21875 3.261719 9.140625 3.320312 9.121094 C 3.765625 8.976562 3.941406 8.59375 4.082031 8.195312 C 4.210938 7.828125 4.382812 7.523438 4.703125 7.265625 C 5.011719 7.007812 5.050781 6.527344 5.15625 6.164062 C 5.296875 5.671875 5.484375 5.667969 5.886719 5.816406 C 6.09375 6.003906 6.0625 6.214844 5.949219 6.390625 C 5.691406 6.78125 5.652344 7.261719 5.410156 7.695312 C 5.390625 7.753906 5.378906 7.773438 5.351562 7.824219 C 5.226562 7.941406 5.109375 8.015625 5.082031 8.203125 C 5.019531 8.402344 4.972656 8.566406 4.769531 8.667969 C 4.496094 8.714844 4.488281 8.890625 4.5 9.117188 C 4.5 9.28125 4.492188 9.410156 4.449219 9.570312 C 4.253906 10.152344 3.875 10.476562 3.34375 10.640625 C 3.121094 10.707031 2.960938 10.875 2.808594 11.042969 C 2.671875 11.191406 2.535156 11.335938 2.292969 11.140625 C 2.007812 10.84375 1.949219 10.484375 1.871094 10.09375 Z M 1.871094 10.09375 "/>
<path style=" stroke:none;fill-rule:nonzero;fill:rgb(10.588235%,37.647059%,68.235294%);fill-opacity:1;" d="M 14.011719 14.480469 C 14.027344 14.5 14.046875 14.535156 14.042969 14.558594 C 14.082031 14.648438 14.136719 14.707031 14.210938 14.792969 C 14.230469 14.816406 14.25 14.855469 14.25 14.878906 C 14.320312 15.039062 14.355469 15.179688 14.171875 15.320312 C 14.121094 15.351562 14.101562 15.355469 14.058594 15.351562 C 13.507812 15.226562 12.976562 15.320312 12.410156 15.289062 C 11.949219 14.855469 11.414062 14.480469 11.617188 13.699219 C 11.6875 13.226562 11.9375 12.925781 12.304688 12.65625 C 12.457031 12.566406 12.578125 12.511719 12.75 12.542969 C 12.957031 12.796875 13.074219 13.074219 13.316406 13.292969 C 13.339844 13.308594 13.324219 13.320312 13.332031 13.316406 C 13.347656 13.367188 13.394531 13.417969 13.4375 13.507812 C 13.484375 13.597656 13.519531 13.652344 13.585938 13.730469 C 13.609375 13.753906 13.628906 13.792969 13.628906 13.816406 C 13.636719 13.871094 13.65625 13.902344 13.695312 13.945312 C 13.714844 13.964844 13.734375 14.003906 13.734375 14.023438 C 13.792969 14.140625 13.84375 14.242188 13.921875 14.363281 C 13.949219 14.386719 13.9375 14.386719 13.9375 14.382812 C 13.949219 14.410156 13.96875 14.4375 14.011719 14.480469 Z M 14.011719 14.480469 "/>
<path style=" stroke:none;fill-rule:nonzero;fill:rgb(73.333333%,73.72549%,74.901961%);fill-opacity:1;" d="M 5.367188 7.875 C 5.21875 7.335938 5.597656 6.960938 5.742188 6.519531 C 5.804688 6.316406 5.945312 6.140625 5.925781 5.863281 C 5.894531 5.601562 5.972656 5.425781 6.128906 5.242188 C 6.652344 5.09375 7.167969 4.960938 7.75 4.972656 C 8 5.238281 7.90625 5.484375 7.722656 5.683594 C 7.472656 5.953125 7.328125 6.304688 7.050781 6.546875 C 6.871094 6.699219 6.972656 6.816406 7.085938 6.976562 C 6.597656 7.4375 6.03125 7.730469 5.367188 7.875 Z M 5.367188 7.875 "/>
<path style=" stroke:none;fill-rule:nonzero;fill:rgb(71.372549%,71.372549%,73.333333%);fill-opacity:1;" d="M 7.128906 7.027344 C 6.628906 6.855469 6.65625 6.765625 6.996094 6.390625 C 7.324219 6.027344 7.832031 5.683594 7.796875 5.015625 C 8.320312 4.976562 8.84375 4.976562 9.414062 4.984375 C 9.648438 5.460938 9.425781 5.828125 9.140625 6.148438 C 8.9375 6.375 8.675781 6.550781 8.441406 6.8125 C 8 6.964844 7.605469 7.167969 7.128906 7.027344 Z M 7.128906 7.027344 "/>
<path style=" stroke:none;fill-rule:nonzero;fill:rgb(72.941176%,73.333333%,74.117647%);fill-opacity:1;" d="M 2.269531 11.15625 C 2.359375 11.125 2.523438 11.167969 2.550781 11.125 C 2.867188 10.605469 3.425781 10.472656 3.914062 10.234375 C 4.167969 10.105469 4.082031 9.785156 4.324219 9.636719 C 4.597656 9.96875 4.492188 10.402344 4.671875 10.796875 C 4.683594 11.058594 4.5625 11.195312 4.382812 11.285156 C 3.953125 11.5 3.625 11.769531 3.796875 12.335938 C 3.824219 12.421875 3.757812 12.496094 3.632812 12.523438 C 2.984375 12.25 2.605469 11.746094 2.269531 11.15625 Z M 2.269531 11.15625 "/>
<path style=" stroke:none;fill-rule:nonzero;fill:rgb(66.27451%,66.666667%,68.627451%);fill-opacity:1;" d="M 10.683594 5.246094 C 11.277344 5.363281 11.84375 5.511719 12.375 5.84375 C 12.351562 6.304688 11.933594 6.550781 11.847656 7.003906 C 11.449219 7.144531 11.109375 6.992188 10.757812 6.953125 C 10.234375 6.898438 9.710938 6.828125 9.144531 6.761719 C 8.910156 6.558594 8.996094 6.367188 9.207031 6.410156 C 9.980469 6.574219 10.332031 5.984375 10.785156 5.5625 C 10.8125 5.535156 10.742188 5.535156 10.71875 5.515625 C 10.648438 5.445312 10.640625 5.367188 10.683594 5.246094 Z M 10.683594 5.246094 "/>
<path style=" stroke:none;fill-rule:nonzero;fill:rgb(68.627451%,69.019608%,70.980392%);fill-opacity:1;" d="M 10.667969 5.203125 C 10.914062 5.746094 10.328125 6.515625 9.714844 6.570312 C 9.496094 6.589844 9.265625 6.382812 9.050781 6.632812 C 8.886719 6.839844 8.699219 6.898438 8.453125 6.78125 C 8.4375 6.542969 8.582031 6.441406 8.726562 6.34375 C 9.171875 6.039062 9.390625 5.601562 9.460938 5.03125 C 9.851562 5.058594 10.238281 5.125 10.667969 5.203125 Z M 10.667969 5.203125 "/>
<path style=" stroke:none;fill-rule:nonzero;fill:rgb(70.980392%,71.372549%,72.54902%);fill-opacity:1;" d="M 3.613281 12.542969 C 3.636719 12.457031 3.714844 12.382812 3.703125 12.355469 C 3.390625 11.667969 3.816406 11.398438 4.335938 11.175781 C 4.445312 11.128906 4.550781 11.070312 4.585938 10.894531 C 4.929688 11.011719 5.210938 11.226562 5.335938 11.636719 C 5.246094 12.132812 4.875 12.441406 4.726562 12.867188 C 4.683594 12.996094 4.546875 13.011719 4.386719 13.035156 C 4.078125 12.933594 3.820312 12.804688 3.613281 12.542969 Z M 3.613281 12.542969 "/>
<path style=" stroke:none;fill-rule:nonzero;fill:rgb(69.019608%,69.411765%,70.980392%);fill-opacity:1;" d="M 4.375 13.070312 C 4.757812 12.65625 4.953125 12.125 5.273438 11.644531 C 5.757812 11.71875 6.140625 11.90625 6.410156 12.339844 C 6.292969 12.839844 6.03125 13.214844 5.644531 13.539062 C 5.164062 13.515625 4.796875 13.269531 4.375 13.070312 Z M 4.375 13.070312 "/>
<path style=" stroke:none;fill-rule:nonzero;fill:rgb(57.647059%,58.431373%,60.392157%);fill-opacity:1;" d="M 15.03125 9.289062 C 15.109375 10.796875 14.371094 11.820312 13.179688 12.597656 C 12.949219 12.6875 12.910156 12.519531 12.835938 12.363281 C 12.820312 12.210938 12.851562 12.09375 12.9375 12.035156 C 13.605469 11.566406 13.984375 10.890625 14.285156 10.117188 C 14.554688 10.078125 14.6875 9.957031 14.726562 9.707031 C 14.757812 9.53125 14.726562 9.292969 15.03125 9.289062 Z M 15.03125 9.289062 "/>
<path style=" stroke:none;fill-rule:nonzero;fill:rgb(16.470588%,36.078431%,60%);fill-opacity:1;" d="M 9.582031 13.914062 C 9.539062 14.066406 9.523438 14.1875 9.519531 14.3125 C 9.488281 15.378906 9.488281 15.378906 8.457031 15.378906 C 8.09375 15.378906 7.730469 15.367188 7.324219 15.347656 C 7.226562 14.457031 7.105469 13.578125 7.125 12.644531 C 7.15625 11.058594 7.085938 9.519531 7.183594 7.9375 C 7.546875 7.621094 7.503906 7.925781 7.539062 8.171875 C 7.542969 9.734375 7.550781 11.242188 7.539062 12.800781 C 7.542969 13.355469 7.53125 13.855469 7.535156 14.359375 C 7.542969 15.046875 7.566406 15.070312 8.21875 15.082031 C 8.304688 15.082031 8.390625 15.082031 8.515625 15.085938 C 8.667969 15.089844 8.78125 15.085938 8.929688 15.085938 C 9.222656 15.101562 9.222656 14.910156 9.210938 14.742188 C 9.1875 14.417969 9.21875 14.09375 9.222656 13.734375 C 9.222656 13.625 9.226562 13.550781 9.226562 13.441406 C 9.226562 13.359375 9.226562 13.308594 9.222656 13.230469 C 9.210938 13.148438 9.203125 13.101562 9.1875 13.023438 C 9.175781 12.941406 9.171875 12.894531 9.183594 12.808594 C 9.226562 12.636719 9.242188 12.484375 9.386719 12.367188 C 9.503906 12.371094 9.546875 12.433594 9.605469 12.53125 C 9.632812 12.589844 9.640625 12.617188 9.660156 12.679688 C 9.675781 12.746094 9.679688 12.773438 9.6875 12.839844 C 9.695312 12.90625 9.695312 12.933594 9.699219 13.003906 C 9.691406 13.328125 9.757812 13.617188 9.582031 13.914062 Z M 9.582031 13.914062 "/>
<path style=" stroke:none;fill-rule:nonzero;fill:rgb(64.705882%,64.313725%,66.27451%);fill-opacity:1;" d="M 11.886719 7.042969 C 11.765625 6.503906 12.019531 6.207031 12.375 5.910156 C 12.816406 6.015625 13.203125 6.222656 13.511719 6.609375 C 13.625 6.960938 13.433594 7.136719 13.183594 7.320312 C 13.125 7.34375 13.101562 7.351562 13.042969 7.355469 C 12.878906 7.191406 12.71875 7.160156 12.5 7.246094 C 12.277344 7.242188 12.085938 7.21875 11.886719 7.042969 Z M 11.886719 7.042969 "/>
<path style=" stroke:none;fill-rule:nonzero;fill:rgb(66.666667%,66.666667%,67.843137%);fill-opacity:1;" d="M 5.640625 13.578125 C 5.855469 13.171875 6.097656 12.789062 6.347656 12.371094 C 6.535156 12.234375 6.703125 12.277344 6.90625 12.394531 C 6.988281 12.464844 7.023438 12.515625 7.066406 12.617188 C 7.121094 13.046875 7.171875 13.429688 7 13.839844 C 6.515625 13.871094 6.089844 13.738281 5.640625 13.578125 Z M 5.640625 13.578125 "/>
<path style=" stroke:none;fill-rule:nonzero;fill:rgb(12.54902%,39.215686%,68.235294%);fill-opacity:1;" d="M 9.503906 12.417969 C 9.300781 12.457031 9.394531 12.652344 9.28125 12.78125 C 8.980469 12.460938 9.019531 12.242188 9.378906 12.097656 C 10.035156 11.828125 10.707031 12.070312 11.078125 12.695312 C 11.261719 13.007812 11.371094 13.375 11.714844 13.625 C 11.644531 14.175781 11.683594 14.640625 12.234375 14.914062 C 12.273438 14.933594 12.257812 15.074219 12.265625 15.195312 C 12.234375 15.296875 12.167969 15.285156 12.085938 15.3125 C 11.648438 14.828125 11.472656 14.183594 11.066406 13.644531 C 10.777344 13.414062 10.773438 13.035156 10.5 12.796875 C 10.40625 12.714844 10.339844 12.652344 10.234375 12.585938 C 10.035156 12.480469 9.84375 12.523438 9.632812 12.480469 C 9.578125 12.460938 9.554688 12.449219 9.503906 12.417969 Z M 9.503906 12.417969 "/>
<path style=" stroke:none;fill-rule:nonzero;fill:rgb(58.039216%,61.960784%,69.803922%);fill-opacity:1;" d="M 10.480469 12.703125 C 10.859375 12.871094 10.894531 13.242188 11.03125 13.589844 C 10.589844 13.84375 10.105469 13.859375 9.59375 13.945312 C 9.550781 13.636719 9.546875 13.328125 9.550781 12.972656 C 9.570312 12.90625 9.585938 12.886719 9.632812 12.859375 C 9.695312 12.851562 9.71875 12.855469 9.773438 12.871094 C 9.902344 12.953125 9.984375 13.113281 10.136719 12.902344 C 10.25 12.808594 10.347656 12.757812 10.480469 12.703125 Z M 10.480469 12.703125 "/>
<path style=" stroke:none;fill-rule:nonzero;fill:rgb(61.960784%,61.960784%,63.529412%);fill-opacity:1;" d="M 13.03125 7.425781 C 13.152344 7.140625 13.457031 7.023438 13.511719 6.679688 C 13.789062 6.71875 13.945312 6.929688 14.132812 7.152344 C 14.183594 7.238281 14.1875 7.304688 14.238281 7.378906 C 14.261719 7.394531 14.257812 7.386719 14.261719 7.386719 C 14.554688 7.992188 14.472656 8.203125 13.886719 8.257812 C 13.527344 8.035156 13.136719 7.902344 13.03125 7.425781 Z M 13.03125 7.425781 "/>
<path style=" stroke:none;fill-rule:nonzero;fill:rgb(58.039216%,58.039216%,60.784314%);fill-opacity:1;" d="M 15.066406 9.269531 C 14.742188 9.386719 14.929688 9.667969 14.847656 9.835938 C 14.757812 10.03125 14.789062 10.402344 14.359375 10.167969 C 14.160156 9.867188 14.148438 9.554688 14.15625 9.195312 C 14.265625 8.976562 14.398438 8.824219 14.484375 8.632812 C 14.566406 8.453125 14.703125 8.371094 14.917969 8.542969 C 15.007812 8.789062 15.09375 8.996094 15.066406 9.269531 Z M 15.066406 9.269531 "/>
<path style=" stroke:none;fill-rule:nonzero;fill:rgb(61.568627%,61.176471%,61.568627%);fill-opacity:1;" d="M 14.945312 8.535156 C 14.75 8.519531 14.5625 8.476562 14.554688 8.785156 C 14.546875 8.9375 14.480469 9.050781 14.289062 9.097656 C 13.945312 8.890625 13.855469 8.558594 13.785156 8.1875 C 14.332031 8.199219 14.375 8.132812 14.257812 7.425781 C 14.675781 7.640625 14.753906 8.105469 14.945312 8.535156 Z M 14.945312 8.535156 "/>
<path style=" stroke:none;fill-rule:nonzero;fill:rgb(56.470588%,65.490196%,76.078431%);fill-opacity:1;" d="M 6.996094 13.902344 C 6.96875 13.476562 6.96875 13.078125 6.972656 12.628906 C 7.039062 12.519531 7.109375 12.511719 7.222656 12.554688 C 7.265625 13.464844 7.277344 14.351562 7.285156 15.285156 C 7.105469 15.046875 7.234375 14.726562 7.199219 14.425781 C 7.179688 14.246094 7.261719 14.03125 6.996094 13.902344 Z M 6.996094 13.902344 "/>
<path style=" stroke:none;fill-rule:nonzero;fill:rgb(16.470588%,36.078431%,60%);fill-opacity:1;" d="M 12.867188 12.253906 C 12.910156 12.410156 12.976562 12.507812 13.105469 12.589844 C 12.988281 12.875 13.28125 13.011719 13.34375 13.257812 C 12.972656 13.269531 12.832031 13.015625 12.785156 12.632812 C 12.507812 12.496094 12.195312 12.496094 11.949219 12.234375 C 11.917969 12.179688 11.910156 12.152344 11.902344 12.089844 C 11.917969 12 11.949219 11.960938 12.03125 11.921875 C 12.351562 11.953125 12.605469 12.066406 12.867188 12.253906 Z M 12.867188 12.253906 "/>
<path style=" stroke:none;fill-rule:nonzero;fill:rgb(10.588235%,32.156863%,56.862745%);fill-opacity:1;" d="M 12.105469 15.34375 C 12.109375 15.296875 12.160156 15.265625 12.238281 15.234375 C 12.835938 15.273438 13.40625 15.179688 14.003906 15.3125 C 13.40625 15.351562 12.78125 15.355469 12.105469 15.34375 Z M 12.105469 15.34375 "/>
<path style=" stroke:none;fill-rule:nonzero;fill:rgb(15.294118%,34.117647%,55.294118%);fill-opacity:1;" d="M 14.175781 15.355469 C 14.175781 15.222656 14.210938 15.101562 14.246094 14.9375 C 14.40625 14.984375 14.519531 15.136719 14.507812 15.292969 C 14.496094 15.425781 14.316406 15.347656 14.175781 15.355469 Z M 14.175781 15.355469 "/>
<path style=" stroke:none;fill-rule:nonzero;fill:rgb(15.294118%,34.117647%,55.294118%);fill-opacity:1;" d="M 13.945312 14.351562 C 13.8125 14.351562 13.742188 14.261719 13.730469 14.082031 C 13.855469 14.09375 13.921875 14.183594 13.945312 14.351562 Z M 13.945312 14.351562 "/>
<path style=" stroke:none;fill-rule:nonzero;fill:rgb(15.294118%,34.117647%,55.294118%);fill-opacity:1;" d="M 14.230469 14.78125 C 14.128906 14.804688 14.050781 14.765625 14.042969 14.613281 C 14.105469 14.632812 14.167969 14.691406 14.230469 14.78125 Z M 14.230469 14.78125 "/>
<path style=" stroke:none;fill-rule:nonzero;fill:rgb(15.294118%,34.117647%,55.294118%);fill-opacity:1;" d="M 13.609375 13.722656 C 13.515625 13.75 13.441406 13.714844 13.414062 13.578125 C 13.425781 13.535156 13.441406 13.523438 13.476562 13.53125 C 13.535156 13.597656 13.570312 13.644531 13.609375 13.722656 Z M 13.609375 13.722656 "/>
<path style=" stroke:none;fill-rule:nonzero;fill:rgb(16.470588%,36.078431%,60%);fill-opacity:1;" d="M 13.496094 13.519531 C 13.496094 13.550781 13.453125 13.546875 13.433594 13.546875 C 13.382812 13.484375 13.355469 13.425781 13.339844 13.328125 C 13.398438 13.359375 13.445312 13.425781 13.496094 13.519531 Z M 13.496094 13.519531 "/>
<path style=" stroke:none;fill-rule:nonzero;fill:rgb(61.568627%,61.176471%,61.568627%);fill-opacity:1;" d="M 14.265625 7.363281 C 14.222656 7.347656 14.183594 7.300781 14.144531 7.21875 C 14.183594 7.234375 14.222656 7.28125 14.265625 7.363281 Z M 14.265625 7.363281 "/>
<path style=" stroke:none;fill-rule:nonzero;fill:rgb(15.294118%,34.117647%,55.294118%);fill-opacity:1;" d="M 14.03125 14.46875 C 14.003906 14.476562 13.976562 14.453125 13.945312 14.402344 C 13.96875 14.398438 14 14.417969 14.03125 14.46875 Z M 14.03125 14.46875 "/>
<path style=" stroke:none;fill-rule:nonzero;fill:rgb(15.294118%,34.117647%,55.294118%);fill-opacity:1;" d="M 13.714844 13.9375 C 13.691406 13.941406 13.664062 13.914062 13.632812 13.863281 C 13.65625 13.859375 13.6875 13.882812 13.714844 13.9375 Z M 13.714844 13.9375 "/>
<path style=" stroke:none;fill-rule:nonzero;fill:rgb(99.215686%,99.215686%,99.215686%);fill-opacity:1;" d="M 6.898438 12.445312 C 6.71875 12.433594 6.570312 12.390625 6.390625 12.339844 C 6.027344 12.109375 5.703125 11.890625 5.34375 11.652344 C 5.089844 11.394531 4.867188 11.152344 4.621094 10.882812 C 4.390625 10.503906 4.339844 10.121094 4.363281 9.675781 C 4.363281 9.488281 4.371094 9.347656 4.375 9.167969 C 4.460938 8.953125 4.421875 8.710938 4.671875 8.59375 C 4.910156 8.554688 4.875 8.34375 4.984375 8.203125 C 5.066406 8.054688 5.152344 7.960938 5.289062 7.863281 C 5.3125 7.84375 5.320312 7.851562 5.328125 7.855469 C 5.898438 7.585938 6.46875 7.320312 7.066406 7.023438 C 7.507812 6.921875 7.921875 6.84375 8.378906 6.757812 C 8.605469 6.726562 8.785156 6.703125 9.003906 6.675781 C 9.964844 6.671875 10.871094 6.773438 11.8125 6.980469 C 11.855469 6.980469 11.847656 6.992188 11.84375 7 C 11.976562 7.175781 11.882812 7.328125 11.789062 7.515625 C 11.578125 7.683594 11.324219 7.621094 11.109375 7.796875 C 10.785156 7.902344 10.488281 7.871094 10.152344 7.875 C 10.019531 7.875 9.933594 7.882812 9.800781 7.875 C 9.429688 7.867188 9.105469 7.871094 8.738281 7.867188 C 8.640625 7.859375 8.585938 7.851562 8.492188 7.824219 C 8.160156 7.609375 7.855469 7.585938 7.5 7.761719 C 7.40625 7.773438 7.355469 7.78125 7.265625 7.8125 C 7.046875 8.039062 7.171875 8.273438 7.171875 8.492188 C 7.171875 9.597656 7.171875 10.703125 7.171875 11.808594 C 7.171875 12.046875 7.128906 12.261719 6.898438 12.445312 Z M 6.898438 12.445312 "/>
<path style=" stroke:none;fill-rule:nonzero;fill:rgb(72.941176%,73.333333%,74.117647%);fill-opacity:1;" d="M 4.664062 8.578125 C 4.613281 8.746094 4.523438 8.914062 4.402344 9.101562 C 4.414062 8.921875 4.21875 8.613281 4.664062 8.578125 Z M 4.664062 8.578125 "/>
<path style=" stroke:none;fill-rule:nonzero;fill:rgb(73.333333%,73.72549%,74.901961%);fill-opacity:1;" d="M 5.273438 7.839844 C 5.316406 8.015625 5.210938 8.101562 5.03125 8.160156 C 4.984375 7.992188 4.988281 7.828125 5.273438 7.839844 Z M 5.273438 7.839844 "/>
<path style=" stroke:none;fill-rule:nonzero;fill:rgb(12.54902%,40%,71.372549%);fill-opacity:1;" d="M 11.9375 12.03125 C 11.953125 12.078125 11.953125 12.097656 11.957031 12.140625 C 12.03125 12.375 12.265625 12.4375 12.363281 12.664062 C 12.175781 12.996094 11.8125 13.175781 11.75 13.613281 C 11.519531 13.722656 11.410156 13.683594 11.292969 13.421875 C 11.136719 13.078125 10.972656 12.730469 10.691406 12.429688 C 10.300781 12.019531 9.882812 12.148438 9.464844 12.195312 C 9.171875 12.226562 9.066406 12.441406 9.238281 12.769531 C 9.253906 12.851562 9.253906 12.898438 9.253906 12.980469 C 9.269531 13.03125 9.289062 13.050781 9.328125 13.09375 C 9.351562 13.167969 9.355469 13.214844 9.351562 13.296875 C 9.269531 13.429688 9.261719 13.558594 9.183594 13.699219 C 9.125 13.765625 9.089844 13.800781 9.015625 13.851562 C 8.757812 13.988281 8.785156 14.210938 8.769531 14.414062 C 8.75 14.667969 8.8125 14.933594 8.652344 15.203125 C 7.382812 15.246094 7.382812 15.246094 7.382812 14 C 7.382812 13.671875 7.382812 13.339844 7.382812 12.960938 C 7.898438 12.714844 8.230469 12.269531 8.652344 11.953125 C 8.796875 11.84375 8.878906 11.683594 8.921875 11.515625 C 9.027344 11.101562 9.304688 10.914062 9.738281 10.867188 C 10.195312 10.742188 10.636719 10.804688 11.085938 10.675781 C 11.53125 10.0625 11.523438 9.890625 11.015625 9.472656 C 10.914062 9.28125 10.90625 9.085938 11.101562 9.0625 C 11.699219 8.984375 11.898438 8.511719 12.136719 8.058594 C 12.148438 8.03125 12.1875 8.015625 12.253906 7.984375 C 12.535156 7.886719 12.71875 8.09375 12.980469 8.136719 C 13.171875 8.203125 13.3125 8.277344 13.449219 8.429688 C 13.53125 8.746094 13.757812 8.980469 13.695312 9.332031 C 13.464844 9.71875 13.496094 10.078125 13.644531 10.476562 C 13.707031 10.640625 13.664062 10.753906 13.574219 10.894531 C 12.992188 11.183594 12.558594 11.675781 11.949219 11.855469 C 11.910156 11.871094 11.910156 11.945312 11.9375 12.03125 Z M 11.9375 12.03125 "/>
<path style=" stroke:none;fill-rule:nonzero;fill:rgb(12.54902%,39.215686%,68.235294%);fill-opacity:1;" d="M 12.40625 12.695312 C 12.21875 12.5625 11.964844 12.519531 11.957031 12.207031 C 12.21875 12.289062 12.480469 12.414062 12.765625 12.5625 C 12.671875 12.625 12.558594 12.660156 12.40625 12.695312 Z M 12.40625 12.695312 "/>
<path style=" stroke:none;fill-rule:nonzero;fill:rgb(68.627451%,69.019608%,70.980392%);fill-opacity:1;" d="M 10.78125 6.308594 C 10.796875 6.289062 10.820312 6.289062 10.84375 6.285156 C 10.824219 6.296875 10.808594 6.308594 10.78125 6.308594 Z M 10.78125 6.308594 "/>
<path style=" stroke:none;fill-rule:nonzero;fill:rgb(90.980392%,96.470588%,98.823529%);fill-opacity:1;" d="M 13.433594 8.527344 C 13.296875 8.417969 13.1875 8.339844 13.046875 8.253906 C 12.621094 7.914062 12.132812 7.941406 11.671875 7.878906 C 11.503906 7.855469 11.332031 7.871094 11.152344 7.746094 C 11.207031 7.382812 11.476562 7.5625 11.707031 7.515625 C 11.945312 7.335938 12.199219 7.371094 12.46875 7.304688 C 12.609375 7.273438 12.710938 7.269531 12.855469 7.25 C 12.917969 7.253906 12.945312 7.261719 12.984375 7.304688 C 13 7.339844 13.019531 7.363281 13.027344 7.375 C 13.167969 7.734375 13.546875 7.828125 13.777344 8.125 C 13.9375 8.445312 14.078125 8.738281 14.234375 9.066406 C 14.277344 9.421875 14.300781 9.742188 14.324219 10.109375 C 14.164062 11.0625 13.652344 11.722656 12.898438 12.25 C 12.585938 12.320312 12.363281 12.078125 12.058594 11.996094 C 12.089844 11.789062 12.25 11.773438 12.390625 11.722656 C 12.800781 11.578125 13.101562 11.273438 13.449219 10.96875 C 13.933594 10.148438 13.835938 9.351562 13.433594 8.527344 Z M 13.433594 8.527344 "/>
<path style=" stroke:none;fill-rule:nonzero;fill:rgb(15.294118%,41.568627%,74.117647%);fill-opacity:1;" d="M 12.230469 8.011719 C 12.132812 8.292969 12.015625 8.546875 11.835938 8.777344 C 11.632812 9.035156 11.484375 9.296875 11.101562 9.148438 C 11.09375 9.148438 11.046875 9.261719 11.019531 9.359375 C 10.660156 9.710938 10.226562 9.519531 9.789062 9.574219 C 9.476562 9.550781 9.371094 9.695312 9.417969 9.949219 C 9.460938 10.167969 9.433594 10.394531 9.503906 10.640625 C 9.558594 10.722656 9.605469 10.765625 9.6875 10.816406 C 9.75 10.863281 9.777344 10.898438 9.785156 10.972656 C 9.351562 10.996094 9.199219 11.25 9.011719 11.617188 C 8.691406 12.234375 8.210938 12.761719 7.425781 12.910156 C 7.386719 11.355469 7.382812 9.800781 7.382812 8.199219 C 7.652344 7.632812 8.144531 7.859375 8.582031 7.769531 C 8.972656 7.757812 9.328125 7.75 9.726562 7.757812 C 9.859375 7.976562 9.695312 8.007812 9.566406 8.042969 C 9.382812 8.097656 9.191406 8.078125 9 8.097656 C 9.71875 8.050781 10.421875 8.265625 11.140625 8.210938 C 11.339844 8.199219 11.5625 8.242188 11.730469 8 C 11.910156 7.914062 12.054688 7.929688 12.230469 8.011719 Z M 12.230469 8.011719 "/>
<path style=" stroke:none;fill-rule:nonzero;fill:rgb(90.980392%,96.470588%,98.823529%);fill-opacity:1;" d="M 6.882812 12.484375 C 7.269531 11.082031 7.039062 9.667969 7.007812 8.265625 C 7 8.023438 6.972656 7.855469 7.25 7.742188 C 7.304688 7.746094 7.316406 7.761719 7.3125 7.804688 C 7.285156 9.382812 7.273438 10.933594 7.257812 12.53125 C 7.183594 12.582031 7.113281 12.582031 7.007812 12.582031 C 6.953125 12.554688 6.929688 12.527344 6.882812 12.484375 Z M 6.882812 12.484375 "/>
<path style=" stroke:none;fill-rule:nonzero;fill:rgb(12.54902%,39.215686%,68.235294%);fill-opacity:1;" d="M 8.667969 15.234375 C 8.628906 14.855469 8.636719 14.472656 8.625 14.09375 C 8.621094 13.847656 8.71875 13.738281 9 13.757812 C 9.265625 14.214844 9.234375 14.679688 9.074219 15.195312 C 8.933594 15.234375 8.820312 15.238281 8.667969 15.234375 Z M 8.667969 15.234375 "/>
<path style=" stroke:none;fill-rule:nonzero;fill:rgb(7.843137%,39.607843%,72.941176%);fill-opacity:1;" d="M 9.085938 15.234375 C 9.042969 14.777344 9.042969 14.316406 9.042969 13.804688 C 9.054688 13.722656 9.074219 13.695312 9.125 13.660156 C 9.1875 13.609375 9.234375 13.59375 9.320312 13.628906 C 9.355469 14.050781 9.355469 14.453125 9.355469 14.851562 C 9.355469 15.019531 9.394531 15.222656 9.085938 15.234375 Z M 9.085938 15.234375 "/>
<path style=" stroke:none;fill-rule:nonzero;fill:rgb(94.901961%,98.823529%,99.215686%);fill-opacity:1;" d="M 9.8125 12.957031 C 9.753906 12.929688 9.738281 12.925781 9.695312 12.910156 C 9.640625 12.882812 9.613281 12.859375 9.566406 12.816406 C 9.539062 12.785156 9.535156 12.769531 9.539062 12.722656 C 9.738281 12.515625 9.980469 12.472656 10.257812 12.460938 C 10.359375 12.535156 10.425781 12.585938 10.5 12.664062 C 10.503906 12.847656 10.425781 12.925781 10.230469 12.910156 C 10.089844 12.996094 9.976562 13.027344 9.8125 12.957031 Z M 9.8125 12.957031 "/>
<path style=" stroke:none;fill-rule:nonzero;fill:rgb(25.882353%,44.313725%,69.411765%);fill-opacity:1;" d="M 7.320312 7.835938 C 7.292969 7.832031 7.28125 7.78125 7.285156 7.757812 C 7.332031 7.730469 7.375 7.730469 7.453125 7.722656 C 7.761719 7.5625 8.050781 7.609375 8.378906 7.691406 C 8.46875 7.726562 8.511719 7.734375 8.589844 7.75 C 8.429688 7.933594 8.195312 7.953125 7.957031 7.933594 C 7.761719 7.917969 7.59375 7.964844 7.417969 8.128906 C 7.34375 8.050781 7.515625 7.925781 7.320312 7.835938 Z M 7.320312 7.835938 "/>
<path style=" stroke:none;fill-rule:nonzero;fill:rgb(84.313725%,95.686275%,99.607843%);fill-opacity:1;" d="M 10.269531 12.453125 C 10.070312 12.554688 9.847656 12.625 9.585938 12.695312 C 9.539062 12.679688 9.53125 12.664062 9.515625 12.621094 C 9.515625 12.550781 9.519531 12.507812 9.542969 12.433594 C 9.792969 12.375 10.015625 12.359375 10.269531 12.453125 Z M 10.269531 12.453125 "/>
<path style=" stroke:none;fill-rule:nonzero;fill:rgb(12.54902%,39.215686%,68.235294%);fill-opacity:1;" d="M 9.355469 13.613281 C 9.308594 13.652344 9.261719 13.652344 9.183594 13.652344 C 9.148438 13.527344 9.195312 13.433594 9.324219 13.347656 C 9.355469 13.414062 9.355469 13.492188 9.355469 13.613281 Z M 9.355469 13.613281 "/>
<path style=" stroke:none;fill-rule:nonzero;fill:rgb(58.039216%,61.960784%,69.803922%);fill-opacity:1;" d="M 9.542969 12.402344 C 9.558594 12.453125 9.550781 12.496094 9.523438 12.566406 C 9.496094 12.546875 9.484375 12.496094 9.472656 12.421875 C 9.476562 12.394531 9.523438 12.394531 9.542969 12.402344 Z M 9.542969 12.402344 "/>
<path style=" stroke:none;fill-rule:nonzero;fill:rgb(84.313725%,95.686275%,99.607843%);fill-opacity:1;" d="M 9.539062 12.835938 C 9.578125 12.820312 9.609375 12.839844 9.652344 12.878906 C 9.648438 12.90625 9.628906 12.910156 9.582031 12.921875 C 9.546875 12.90625 9.539062 12.886719 9.539062 12.835938 Z M 9.539062 12.835938 "/>
<path style=" stroke:none;fill-rule:nonzero;fill:rgb(12.54902%,39.215686%,68.235294%);fill-opacity:1;" d="M 9.34375 13.097656 C 9.320312 13.109375 9.292969 13.089844 9.265625 13.039062 C 9.289062 13.027344 9.3125 13.046875 9.34375 13.097656 Z M 9.34375 13.097656 "/>
<path style=" stroke:none;fill-rule:nonzero;fill:rgb(97.647059%,96.470588%,94.117647%);fill-opacity:1;" d="M 12.609375 7.371094 C 12.34375 7.46875 12.097656 7.546875 11.792969 7.515625 C 11.777344 7.371094 11.808594 7.226562 11.839844 7.042969 C 12.03125 7.0625 12.21875 7.117188 12.441406 7.183594 C 12.5 7.175781 12.519531 7.164062 12.574219 7.171875 C 12.628906 7.238281 12.636719 7.285156 12.609375 7.371094 Z M 12.609375 7.371094 "/>
<path style=" stroke:none;fill-rule:nonzero;fill:rgb(61.960784%,61.960784%,63.529412%);fill-opacity:1;" d="M 12.589844 7.230469 C 12.554688 7.207031 12.515625 7.203125 12.496094 7.195312 C 12.660156 7.136719 12.882812 6.773438 13 7.300781 C 13 7.339844 12.964844 7.351562 12.953125 7.339844 C 12.816406 7.363281 12.722656 7.304688 12.589844 7.230469 Z M 12.589844 7.230469 "/>
<path style=" stroke:none;fill-rule:nonzero;fill:rgb(61.568627%,61.176471%,61.568627%);fill-opacity:1;" d="M 9.777344 12.972656 C 9.882812 12.925781 9.996094 12.917969 10.152344 12.914062 C 10.179688 13.035156 10.210938 13.1875 10.046875 13.210938 C 9.90625 13.230469 9.824219 13.140625 9.777344 12.972656 Z M 9.777344 12.972656 "/>
<path style=" stroke:none;fill-rule:nonzero;fill:rgb(12.54902%,39.215686%,68.235294%);fill-opacity:1;" d="M 13.535156 10.964844 C 13.234375 11.589844 12.664062 11.753906 12.070312 11.953125 C 12.007812 11.980469 11.988281 12 11.964844 12.042969 C 11.675781 12 11.707031 11.742188 11.875 11.71875 C 12.476562 11.636719 12.800781 11.09375 13.328125 10.910156 C 13.359375 10.902344 13.398438 10.902344 13.46875 10.898438 C 13.523438 10.910156 13.542969 10.925781 13.535156 10.964844 Z M 13.535156 10.964844 "/>
<path style=" stroke:none;fill-rule:nonzero;fill:rgb(13.333333%,41.960784%,71.764706%);fill-opacity:1;" d="M 11.714844 8.007812 C 11.75 8.210938 11.722656 8.34375 11.503906 8.359375 C 10.570312 8.425781 9.652344 8.195312 8.71875 8.246094 C 8.625 8.25 8.546875 8.191406 8.558594 8.085938 C 8.570312 7.945312 8.6875 7.953125 8.792969 7.9375 C 9.105469 7.886719 9.441406 8.042969 9.757812 7.804688 C 9.847656 7.761719 9.925781 7.753906 10.042969 7.753906 C 10.375 7.960938 10.710938 7.871094 11.03125 7.894531 C 11.25 7.910156 11.476562 7.871094 11.714844 8.007812 Z M 11.714844 8.007812 "/>
<path style=" stroke:none;fill-rule:nonzero;fill:rgb(25.882353%,44.313725%,69.411765%);fill-opacity:1;" d="M 11.792969 8.039062 C 11.359375 8.039062 10.96875 8.039062 10.578125 8.039062 C 10.390625 8.039062 10.195312 8.0625 10.089844 7.800781 C 10.394531 7.753906 10.710938 7.742188 11.074219 7.722656 C 11.59375 7.75 12.074219 7.726562 12.53125 7.886719 C 12.699219 7.945312 12.898438 7.976562 13.003906 8.207031 C 12.746094 8.328125 12.59375 8.027344 12.304688 8.039062 C 12.121094 8.039062 11.976562 8.039062 11.792969 8.039062 Z M 11.792969 8.039062 "/>
<path style=" stroke:none;fill-rule:nonzero;fill:rgb(90.980392%,96.470588%,98.823529%);fill-opacity:1;" d="M 8.410156 7.675781 C 8.140625 7.722656 7.859375 7.730469 7.53125 7.726562 C 7.761719 7.351562 8.082031 7.488281 8.410156 7.675781 Z M 8.410156 7.675781 "/>
<path style=" stroke:none;fill-rule:nonzero;fill:rgb(94.901961%,98.823529%,99.215686%);fill-opacity:1;" d="M 9.539062 9.457031 C 10.015625 9.417969 10.46875 9.414062 10.972656 9.402344 C 11.652344 9.667969 11.734375 10.070312 11.246094 10.640625 C 10.792969 10.917969 10.3125 10.722656 9.816406 10.8125 C 9.742188 10.796875 9.710938 10.792969 9.636719 10.773438 C 9.539062 10.726562 9.492188 10.6875 9.433594 10.59375 C 9.484375 10.203125 9.351562 9.832031 9.539062 9.457031 Z M 9.539062 9.457031 "/>
<path style=" stroke:none;fill-rule:nonzero;fill:rgb(21.960784%,41.176471%,66.666667%);fill-opacity:1;" d="M 13.546875 10.976562 C 13.511719 10.988281 13.511719 10.941406 13.507812 10.921875 C 13.542969 10.78125 13.578125 10.664062 13.617188 10.511719 C 13.441406 10.160156 13.507812 9.828125 13.589844 9.457031 C 13.714844 9.09375 13.378906 8.882812 13.40625 8.539062 C 14 9.125 14.0625 10.027344 13.546875 10.976562 Z M 13.546875 10.976562 "/>
<path style=" stroke:none;fill-rule:nonzero;fill:rgb(16.470588%,36.078431%,60%);fill-opacity:1;" d="M 9.648438 10.753906 C 10.15625 10.710938 10.644531 10.695312 11.179688 10.671875 C 11.210938 10.925781 11.023438 10.902344 10.855469 10.898438 C 10.519531 10.890625 10.183594 10.894531 9.816406 11.003906 C 9.761719 10.96875 9.742188 10.941406 9.6875 10.910156 C 9.632812 10.867188 9.617188 10.828125 9.648438 10.753906 Z M 9.648438 10.753906 "/>
<path style=" stroke:none;fill-rule:nonzero;fill:rgb(7.843137%,39.607843%,72.941176%);fill-opacity:1;" d="M 13.585938 9.40625 C 13.621094 9.738281 13.621094 10.058594 13.621094 10.429688 C 13.585938 10.484375 13.527344 10.507812 13.523438 10.5 C 13.367188 10.128906 13.296875 9.757812 13.585938 9.40625 Z M 13.585938 9.40625 "/>
<path style=" stroke:none;fill-rule:nonzero;fill:rgb(12.54902%,39.215686%,68.235294%);fill-opacity:1;" d="M 11.050781 12.25 C 10.949219 12.125 10.859375 12.011719 10.984375 11.914062 C 11.09375 11.832031 11.207031 11.945312 11.300781 12.007812 C 11.40625 12.074219 11.476562 12.191406 11.382812 12.308594 C 11.285156 12.433594 11.175781 12.351562 11.050781 12.25 Z M 11.050781 12.25 "/>
<path style=" stroke:none;fill-rule:nonzero;fill:rgb(64.705882%,64.313725%,66.27451%);fill-opacity:1;" d="M 12.5625 7.238281 C 12.65625 7.234375 12.757812 7.265625 12.898438 7.3125 C 12.84375 7.355469 12.753906 7.378906 12.628906 7.402344 C 12.582031 7.359375 12.574219 7.316406 12.5625 7.238281 Z M 12.5625 7.238281 "/>
<path style=" stroke:none;fill-rule:nonzero;fill:rgb(16.470588%,36.078431%,60%);fill-opacity:1;" d="M 9.527344 9.425781 C 9.554688 9.761719 9.542969 10.101562 9.515625 10.480469 C 9.496094 10.539062 9.492188 10.5625 9.496094 10.625 C 9.507812 10.6875 9.507812 10.710938 9.484375 10.765625 C 9.371094 10.339844 9.054688 9.878906 9.527344 9.425781 Z M 9.527344 9.425781 "/>
<path style=" stroke:none;fill-rule:nonzero;fill:rgb(12.54902%,40%,71.372549%);fill-opacity:1;" d="M 9.476562 10.820312 C 9.460938 10.792969 9.460938 10.742188 9.460938 10.71875 C 9.480469 10.675781 9.496094 10.664062 9.535156 10.667969 C 9.578125 10.695312 9.597656 10.699219 9.644531 10.714844 C 9.667969 10.765625 9.667969 10.804688 9.667969 10.871094 C 9.609375 10.882812 9.550781 10.863281 9.476562 10.820312 Z M 9.476562 10.820312 "/>
<path style=" stroke:none;fill-rule:nonzero;fill:rgb(97.647059%,96.470588%,94.117647%);fill-opacity:1;" d="M 11.078125 10.335938 C 10.925781 10.40625 10.8125 10.507812 10.59375 10.390625 C 10.917969 10.273438 10.738281 9.699219 11.167969 9.816406 C 11.394531 9.878906 11.320312 10.164062 11.078125 10.335938 Z M 11.078125 10.335938 "/>
<path style=" stroke:none;fill-rule:nonzero;fill:rgb(15.294118%,41.568627%,74.117647%);fill-opacity:1;" d="M 9.554688 10.65625 C 9.558594 10.6875 9.511719 10.691406 9.488281 10.691406 C 9.464844 10.660156 9.46875 10.632812 9.484375 10.558594 C 9.515625 10.550781 9.53125 10.589844 9.554688 10.65625 Z M 9.554688 10.65625 "/>
</g>
</svg>
