<svg version="1.1" id="Layer_1" xmlns="http://www.w3.org/2000/svg" xmlns:xlink="http://www.w3.org/1999/xlink" x="0px" y="0px"
	 width="100%" viewBox="0 0 202 189" enable-background="new 0 0 202 189" xml:space="preserve">
<path fill="#FEFFFF" opacity="1.000000" stroke="none" 
	d="
M139.000000,190.000000 
	C93.833336,190.000000 49.166573,189.962845 4.500234,190.083496 
	C1.517100,190.091553 0.912126,189.482483 0.917414,186.499863 
	C1.027027,124.666733 1.000000,62.833351 1.000000,1.000010 
	C66.999992,1.000000 133.000046,1.033890 198.999771,0.903389 
	C202.424408,0.896617 203.104507,1.575250 203.096909,5.000183 
	C202.962982,65.333214 202.962997,125.666710 203.096909,185.999741 
	C203.104507,189.424515 202.429855,190.138153 198.998978,190.102020 
	C179.167831,189.893005 159.333344,190.000000 139.000000,190.000000 
z"/>
<path fill="#C2C3C7" opacity="1.000000" stroke="none" 
	d="
M18.238737,95.246346 
	C15.402694,86.625137 17.559946,79.134644 22.351479,72.183952 
	C31.096918,59.497635 43.986893,53.248234 58.639763,49.195923 
	C60.139420,51.365353 58.142220,52.765598 57.501633,54.837929 
	C50.442883,54.846218 50.084126,60.674038 48.422871,64.946167 
	C47.554321,67.179733 46.829700,69.226738 44.860973,70.697945 
	C43.229641,71.917023 42.037830,73.535004 41.390133,75.468742 
	C39.829765,80.127289 36.931526,83.669212 33.612305,87.332565 
	C30.651201,90.600677 28.899256,95.100731 25.352718,98.154984 
	C24.273314,99.084564 23.943037,101.203026 22.180403,100.930740 
	C20.318161,100.643082 19.731010,98.904243 19.517103,97.149399 
	C19.432161,96.452553 18.950464,95.970413 18.238737,95.246346 
z"/>
<path fill="#BDBEC2" opacity="1.000000" stroke="none" 
	d="
M17.982258,95.389618 
	C18.944502,95.079803 20.516838,94.788437 20.597017,95.835289 
	C21.205608,103.781319 23.577169,98.021400 25.056589,96.370308 
	C27.402903,93.751701 31.853392,92.331657 30.518360,87.393158 
	C30.446281,87.126526 31.359438,86.371536 31.925095,86.189857 
	C36.217304,84.811157 37.903072,81.208450 39.253643,77.462440 
	C40.511292,73.974159 42.167347,71.106903 45.224857,68.647675 
	C48.215855,66.241951 48.583607,61.696682 49.597607,58.248428 
	C50.963470,53.603588 52.765884,53.553192 56.614941,54.953861 
	C58.625328,56.729984 58.329494,58.740067 57.223110,60.395153 
	C54.750603,64.093887 54.368881,68.628654 52.024677,72.718445 
	C51.837925,73.260780 51.746815,73.469948 51.462540,73.956841 
	C50.263393,75.031708 49.149612,75.744896 48.887459,77.511703 
	C48.289532,79.384125 47.818699,80.960106 45.880142,81.898422 
	C43.263809,82.362122 43.175400,84.032715 43.292458,86.165176 
	C43.302124,87.718384 43.226997,88.919151 42.789940,90.447006 
	C40.902416,95.923973 37.281677,98.996635 32.158054,100.542618 
	C30.035938,101.182930 28.485275,102.774185 27.002615,104.372879 
	C25.706362,105.770561 24.391376,107.121620 22.046074,105.284035 
	C19.310602,102.455269 18.751289,99.072281 17.982258,95.389618 
z"/>
<path fill="#1B60AE" opacity="1.000000" stroke="none" 
	d="
M134.774445,136.831223 
	C134.937180,137.014206 135.108200,137.365463 135.097015,137.560486 
	C135.460907,138.434738 135.999725,138.984848 136.692017,139.780518 
	C136.875946,140.002045 137.060669,140.380295 137.069397,140.590591 
	C137.733047,142.131546 138.092743,143.430023 136.334946,144.782440 
	C135.828766,145.076935 135.658905,145.123413 135.238068,145.087494 
	C129.941940,143.878311 124.827858,144.768021 119.356071,144.486206 
	C114.950401,140.386612 109.788681,136.854080 111.762863,129.446045 
	C112.420769,124.996353 114.827461,122.130219 118.373352,119.600311 
	C119.808578,118.735481 120.972633,118.248772 122.657806,118.531036 
	C124.651970,120.923325 125.760094,123.560509 128.105408,125.618271 
	C128.313293,125.770828 128.173294,125.893402 128.239136,125.828278 
	C128.406860,126.313553 128.858398,126.795044 129.260162,127.634308 
	C129.689758,128.490295 130.035950,129.023712 130.676361,129.743027 
	C130.893875,129.979706 131.092239,130.347198 131.093658,130.556000 
	C131.189240,131.087860 131.351852,131.371674 131.752853,131.795746 
	C131.922775,131.975250 132.108810,132.329468 132.104095,132.529449 
	C132.691299,133.629242 133.160049,134.597229 133.912704,135.747711 
	C134.165802,135.947266 134.054413,135.958969 134.059082,135.903168 
	C134.175247,136.163010 134.357895,136.429962 134.774445,136.831223 
z"/>
<path fill="#BBBCBF" opacity="1.000000" stroke="none" 
	d="
M51.612282,74.422882 
	C50.203789,69.325264 53.849491,65.780411 55.215733,61.608700 
	C55.838509,59.707108 57.194946,58.012959 56.998688,55.398743 
	C56.692024,52.951767 57.445824,51.291096 58.936653,49.538158 
	C64.000229,48.124695 68.963745,46.884346 74.562012,46.982132 
	C76.946541,49.487480 76.061737,51.819809 74.267334,53.716499 
	C71.862930,56.257977 70.479645,59.585247 67.803749,61.862392 
	C66.089806,63.320938 67.064011,64.418739 68.177246,65.940765 
	C63.459137,70.284447 58.007374,73.048973 51.612282,74.422882 
z"/>
<path fill="#B6B6BB" opacity="1.000000" stroke="none" 
	d="
M68.555099,66.400620 
	C63.777851,64.796547 64.017639,63.953007 67.308685,60.375469 
	C70.457893,56.952126 75.344490,53.711517 75.001228,47.415443 
	C80.031418,47.024727 85.060844,47.031525 90.553665,47.107712 
	C92.805748,51.605854 90.679710,55.090893 87.935486,58.103519 
	C85.976631,60.253971 83.470947,61.922260 81.198410,64.388351 
	C76.961319,65.816551 73.170349,67.721420 68.555099,66.400620 
z"/>
<path fill="#BABBBD" opacity="1.000000" stroke="none" 
	d="
M21.816887,105.434982 
	C22.690401,105.127312 24.272375,105.547180 24.528416,105.137787 
	C27.593403,100.237038 32.962326,98.977486 37.636169,96.697281 
	C40.108353,95.491196 39.265488,92.469254 41.588058,91.071281 
	C44.228600,94.190559 43.193100,98.301094 44.943085,102.036751 
	C45.060497,104.511292 43.880211,105.779503 42.152546,106.635414 
	C38.030022,108.677757 34.880611,111.214012 36.530609,116.562881 
	C36.780598,117.373283 36.138592,118.101013 34.958794,118.328148 
	C28.699936,115.771400 25.070354,111.014099 21.816887,105.434982 
z"/>
<path fill="#A9AAAF" opacity="1.000000" stroke="none" 
	d="
M102.783333,49.581718 
	C108.477570,50.691330 113.926460,52.098816 119.036316,55.206169 
	C118.819420,59.573372 114.788803,61.916424 113.947632,66.188065 
	C110.147552,67.530045 106.845543,66.078941 103.469757,65.718582 
	C98.429642,65.180557 93.400940,64.536865 87.979950,63.887825 
	C85.720184,61.981403 86.552330,60.170170 88.559456,60.581219 
	C96.014465,62.107952 99.395111,56.547512 103.727112,52.570049 
	C104.002846,52.316887 103.311516,52.307930 103.104622,52.110550 
	C102.424057,51.461227 102.346832,50.712406 102.783333,49.581718 
z"/>
<path fill="#AFB0B5" opacity="1.000000" stroke="none" 
	d="
M102.628807,49.167587 
	C104.994789,54.301109 99.358665,61.567013 93.454185,62.096519 
	C91.325653,62.287407 89.119247,60.315208 87.053429,62.696556 
	C85.471291,64.643753 83.686943,65.190048 81.294952,64.078064 
	C81.148140,61.838093 82.553452,60.889164 83.940399,59.959480 
	C88.228493,57.085114 90.325294,52.936539 91.010925,47.562256 
	C94.755455,47.798752 98.493843,48.420403 102.628807,49.167587 
z"/>
<path fill="#B5B6B9" opacity="1.000000" stroke="none" 
	d="
M34.740189,118.513634 
	C34.967045,117.701187 35.735416,117.021339 35.611443,116.751534 
	C32.626541,110.255867 36.727207,107.710426 41.702454,105.598640 
	C42.754265,105.152191 43.787346,104.622612 44.121887,102.952690 
	C47.415123,104.072556 50.122025,106.080734 51.315208,109.955475 
	C50.458462,114.655151 46.884769,117.561859 45.463127,121.593262 
	C45.036114,122.804146 43.719658,122.961510 42.195419,123.177811 
	C39.240837,122.211319 36.749035,121.004250 34.740189,118.513634 
z"/>
<path fill="#B0B1B5" opacity="1.000000" stroke="none" 
	d="
M42.078663,123.501526 
	C45.781349,119.590332 47.651421,114.578011 50.730858,110.035538 
	C55.384533,110.743073 59.068962,112.515800 61.657761,116.604965 
	C60.534470,121.345467 58.003181,124.873489 54.300865,127.955452 
	C49.691059,127.711815 46.123756,125.412903 42.078663,123.501526 
z"/>
<path fill="#93959A" opacity="1.000000" stroke="none" 
	d="
M144.583313,87.799278 
	C145.345703,102.028114 138.219223,111.698204 126.758255,119.055824 
	C124.540665,119.889732 124.191612,118.318977 123.461365,116.832428 
	C123.323540,115.385994 123.625168,114.303223 124.433037,113.748283 
	C130.886368,109.315430 134.502838,102.920738 137.408234,95.615944 
	C140.019714,95.246323 141.281860,94.084389 141.673233,91.731682 
	C141.949982,90.067978 141.664413,87.832199 144.583313,87.799278 
z"/>
<path fill="#2A5C99" opacity="1.000000" stroke="none" 
	d="
M92.163185,131.492004 
	C91.767906,132.931824 91.609726,134.088974 91.572891,135.249985 
	C91.253059,145.330109 91.259506,145.343552 81.345375,145.323288 
	C77.849586,145.316132 74.353966,145.226700 70.468491,145.045898 
	C69.496864,136.606506 68.339386,128.331711 68.532494,119.489105 
	C68.835274,104.490761 68.173889,89.968193 69.096626,75.007500 
	C72.588623,72.014320 72.180321,74.883850 72.524246,77.217484 
	C72.559090,91.976997 72.617294,106.256966 72.509109,120.984680 
	C72.541054,126.192055 72.447311,130.951859 72.488029,135.711380 
	C72.543381,142.180161 72.786591,142.427292 79.057770,142.515884 
	C79.878342,142.527481 80.699188,142.517929 81.928238,142.551239 
	C83.393440,142.598587 84.450058,142.556213 85.877502,142.557358 
	C88.729576,142.708755 88.726852,140.912323 88.610008,139.304550 
	C88.387070,136.236847 88.668007,133.187927 88.702637,129.780960 
	C88.701355,128.738068 88.741699,128.046249 88.755623,127.014633 
	C88.757935,126.229721 88.755150,125.783920 88.710457,125.011047 
	C88.606506,124.249458 88.530090,123.816505 88.375259,123.058395 
	C88.248619,122.284546 88.239555,121.836136 88.321365,121.050110 
	C88.768379,119.411011 88.898643,117.994171 90.307465,116.866257 
	C91.404869,116.924156 91.829178,117.496353 92.395805,118.431900 
	C92.658043,118.991013 92.745872,119.224159 92.927902,119.823334 
	C93.065392,120.440170 93.108665,120.690979 93.195389,121.325905 
	C93.256279,121.970390 93.273705,122.230751 93.306534,122.885788 
	C93.206505,125.942902 93.858604,128.689087 92.163185,131.492004 
z"/>
<path fill="#A5A4A9" opacity="1.000000" stroke="none" 
	d="
M114.351562,66.546692 
	C113.171814,61.468918 115.609535,58.638287 119.044708,55.866859 
	C123.297249,56.838795 127.000908,58.815708 129.984711,62.456013 
	C131.070236,65.778419 129.233978,67.453178 126.806641,69.172302 
	C126.260406,69.413467 126.033112,69.480011 125.461441,69.497360 
	C123.867699,67.966309 122.347382,67.658669 120.254982,68.460358 
	C118.080467,68.428261 116.267487,68.215706 114.351562,66.546692 
z"/>
<path fill="#AAAAAD" opacity="1.000000" stroke="none" 
	d="
M54.251774,128.312073 
	C56.323425,124.465294 58.667591,120.865738 61.069489,116.891998 
	C62.843521,115.622986 64.469482,116.026436 66.424301,117.117035 
	C67.216217,117.788742 67.561852,118.268097 67.971619,119.235809 
	C68.513695,123.282272 68.981270,126.905235 67.317719,130.779968 
	C62.680706,131.071594 58.596436,129.845047 54.251774,128.312073 
z"/>
<path fill="#2064AE" opacity="1.000000" stroke="none" 
	d="
M91.437134,117.341476 
	C89.469734,117.732430 90.374489,119.566818 89.274216,120.791664 
	C86.387573,117.760124 86.757782,115.700775 90.219131,114.317825 
	C96.538399,111.793007 103.008812,114.060600 106.542320,119.960503 
	C108.319389,122.927673 109.386040,126.394318 112.698288,128.760895 
	C111.992851,133.978149 112.391487,138.358887 117.666122,140.925568 
	C118.060081,141.117279 117.899414,142.448792 117.996155,143.585205 
	C117.682625,144.555008 117.047844,144.446487 116.259796,144.705933 
	C112.042633,140.115753 110.359596,134.039703 106.437439,128.931519 
	C103.684547,126.747444 103.628311,123.195122 100.984116,120.935822 
	C100.088234,120.159836 99.471931,119.555038 98.457443,118.935150 
	C96.527710,117.938934 94.705246,118.331421 92.649765,117.951218 
	C92.114784,117.761841 91.911896,117.656281 91.437134,117.341476 
z"/>
<path fill="#949EB2" opacity="1.000000" stroke="none" 
	d="
M100.820847,120.054901 
	C104.453979,121.625465 104.778587,125.143532 106.115143,128.405746 
	C101.881844,130.806671 97.213989,130.957108 92.282486,131.772949 
	C91.857689,128.862640 91.845551,125.952400 91.865303,122.603699 
	C92.043724,121.979996 92.190247,121.794769 92.674721,121.515785 
	C93.241371,121.447929 93.470070,121.473839 94.007477,121.642395 
	C95.242058,122.416916 96.052299,123.938896 97.509270,121.938965 
	C98.583252,121.054680 99.536034,120.579056 100.820847,120.054901 
z"/>
<path fill="#9E9EA2" opacity="1.000000" stroke="none" 
	d="
M125.355011,70.181953 
	C126.525482,67.465492 129.444107,66.364082 129.952850,63.122879 
	C132.638535,63.487755 134.156128,65.499687 135.943710,67.595566 
	C136.431320,68.395088 136.460602,69.023895 136.943619,69.731415 
	C137.200150,69.888115 137.146301,69.819435 137.187439,69.804878 
	C140.010468,75.508141 139.222916,77.509605 133.562195,78.050438 
	C130.128815,75.938499 126.374672,74.679977 125.355011,70.181953 
z"/>
<path fill="#94949B" opacity="1.000000" stroke="none" 
	d="
M144.911819,87.606842 
	C141.822189,88.704216 143.591599,91.349342 142.831467,92.961830 
	C141.970505,94.788231 142.258926,98.288795 138.109970,96.072418 
	C136.208359,93.250031 136.105179,90.278778 136.159439,86.911636 
	C137.203415,84.831818 138.501801,83.374306 139.329605,81.579948 
	C140.105087,79.899071 141.434296,79.089500 143.496857,80.737373 
	C144.344833,83.042381 145.177200,85.023781 144.911819,87.606842 
z"/>
<path fill="#9D9C9D" opacity="1.000000" stroke="none" 
	d="
M143.759979,80.657890 
	C141.879303,80.496048 140.079147,80.111618 139.989899,83.006554 
	C139.944626,84.475090 139.289352,85.515770 137.447876,85.960114 
	C134.138824,84.033707 133.261703,80.888634 132.592834,77.356750 
	C137.867691,77.478409 138.287399,76.857613 137.156265,70.184525 
	C141.157425,72.206253 141.912689,76.593864 143.759979,80.657890 
z"/>
<path fill="#90A7C2" opacity="1.000000" stroke="none" 
	d="
M67.314156,131.362503 
	C67.023033,127.348045 67.038849,123.581223 67.073906,119.345558 
	C67.693512,118.310287 68.400749,118.250526 69.462753,118.657883 
	C69.879265,127.247322 69.993706,135.619507 70.093430,144.454315 
	C68.333046,142.195450 69.573402,139.182755 69.251160,136.321564 
	C69.059128,134.616486 69.837883,132.605087 67.314156,131.362503 
z"/>
<path fill="#2A5C99" opacity="1.000000" stroke="none" 
	d="
M123.759766,115.811554 
	C124.198517,117.267082 124.819420,118.185219 126.079521,118.974167 
	C124.948555,121.655083 127.768578,122.947060 128.359985,125.304703 
	C124.796867,125.382507 123.428307,123.001259 122.988678,119.379517 
	C120.323486,118.090187 117.301521,118.099495 114.932213,115.611679 
	C114.629280,115.086716 114.548500,114.854233 114.476616,114.251297 
	C114.647575,113.398636 114.947380,113.022179 115.727905,112.658997 
	C118.806396,112.966454 121.254303,114.023964 123.759766,115.811554 
z"/>
<path fill="#1B5291" opacity="1.000000" stroke="none" 
	d="
M116.457024,145.000244 
	C116.480789,144.562912 116.952255,144.276611 117.709717,143.955139 
	C123.457832,144.343460 128.959396,143.449661 134.696259,144.708221 
	C128.959641,145.053848 122.932182,145.102570 116.457024,145.000244 
z"/>
<path fill="#27578D" opacity="1.000000" stroke="none" 
	d="
M136.365601,145.124466 
	C136.339981,143.866455 136.681305,142.702454 137.050369,141.169678 
	C138.587585,141.592575 139.655518,143.032837 139.538147,144.513245 
	C139.437347,145.784561 137.721710,145.026566 136.365601,145.124466 
z"/>
<path fill="#27578D" opacity="1.000000" stroke="none" 
	d="
M134.122116,135.606979 
	C132.873444,135.605652 132.178802,134.763290 132.080872,133.082977 
	C133.275436,133.172409 133.922241,134.028214 134.122116,135.606979 
z"/>
<path fill="#27578D" opacity="1.000000" stroke="none" 
	d="
M136.890503,139.685822 
	C135.901596,139.904785 135.165115,139.536530 135.083008,138.090698 
	C135.692245,138.293533 136.298645,138.831573 136.890503,139.685822 
z"/>
<path fill="#27578D" opacity="1.000000" stroke="none" 
	d="
M130.900299,129.690689 
	C130.001389,129.923111 129.297745,129.611191 129.041656,128.330536 
	C129.144287,127.903633 129.287170,127.785851 129.632080,127.858688 
	C130.191635,128.500107 130.549194,128.950882 130.900299,129.690689 
z"/>
<path fill="#2A5C99" opacity="1.000000" stroke="none" 
	d="
M129.806885,127.761108 
	C129.834091,128.049316 129.417786,128.032959 129.209595,128.027191 
	C128.735138,127.444031 128.468872,126.866631 128.323792,125.964905 
	C128.889893,126.251350 129.334793,126.862129 129.806885,127.761108 
z"/>
<path fill="#9D9C9D" opacity="1.000000" stroke="none" 
	d="
M137.205505,69.577377 
	C136.819794,69.441925 136.439423,68.995743 136.044571,68.231476 
	C136.423676,68.364471 136.817276,68.815552 137.205505,69.577377 
z"/>
<path fill="#27578D" opacity="1.000000" stroke="none" 
	d="
M134.963593,136.731842 
	C134.686188,136.792404 134.435196,136.570587 134.123993,136.098068 
	C134.372498,136.048080 134.681244,136.248779 134.963593,136.731842 
z"/>
<path fill="#27578D" opacity="1.000000" stroke="none" 
	d="
M131.934082,131.701599 
	C131.682159,131.740158 131.441544,131.505066 131.148010,131.017395 
	C131.378525,130.985870 131.661942,131.206909 131.934082,131.701599 
z"/>
<path fill="#FDFDFD" opacity="1.000000" stroke="none" 
	d="
M66.366554,117.610718 
	C64.611626,117.479439 63.218620,117.104622 61.476418,116.623810 
	C57.985111,114.433334 54.843002,112.348854 51.402115,110.113640 
	C48.956676,107.680710 46.810013,105.398506 44.433338,102.848389 
	C42.216347,99.270363 41.752533,95.646400 41.967022,91.440742 
	C41.983837,89.678146 42.031380,88.351143 42.079582,86.625824 
	C42.914177,84.598679 42.518642,82.329201 44.948971,81.229309 
	C47.231556,80.841202 46.875885,78.830627 47.937355,77.502899 
	C48.722942,76.122849 49.569923,75.216957 50.862732,74.308243 
	C51.119884,74.130821 51.188427,74.199715 51.235413,74.218323 
	C56.752327,71.698105 62.222248,69.159279 67.962387,66.379837 
	C72.225632,65.406998 76.218643,64.674759 80.615700,63.847382 
	C82.760406,63.548637 84.501083,63.345036 86.618118,63.096035 
	C95.837456,63.051373 104.574951,64.002274 113.612289,65.954163 
	C114.023857,65.948608 113.963921,66.085045 113.937363,66.154663 
	C115.218002,67.804321 114.308205,69.255592 113.390991,71.030960 
	C111.368576,72.608505 108.919044,72.012123 106.863792,73.679184 
	C103.732887,74.683189 100.902626,74.375351 97.668335,74.401688 
	C96.389221,74.411880 95.536301,74.479729 94.255730,74.413422 
	C90.713226,74.344315 87.596794,74.389442 84.066933,74.328308 
	C83.115234,74.273521 82.585579,74.185921 81.699936,73.922737 
	C78.498055,71.902771 75.552742,71.701439 72.135895,73.346519 
	C71.254845,73.474205 70.736946,73.517532 69.883316,73.815613 
	C67.765488,75.965683 69.001724,78.173119 68.999184,80.243248 
	C68.986351,90.690842 68.979317,101.138573 69.000359,111.586159 
	C69.004913,113.849716 68.571480,115.865982 66.366554,117.610718 
z"/>
<path fill="#BABBBD" opacity="1.000000" stroke="none" 
	d="
M44.858356,81.075836 
	C44.388817,82.664040 43.496677,84.228691 42.342388,86.010422 
	C42.456009,84.316093 40.584862,81.381989 44.858356,81.075836 
z"/>
<path fill="#BBBCBF" opacity="1.000000" stroke="none" 
	d="
M50.729126,74.094498 
	C51.136032,75.763222 50.128277,76.559235 48.409328,77.130356 
	C47.955017,75.536209 47.982559,73.964279 50.729126,74.094498 
z"/>
<path fill="#2066B6" opacity="1.000000" stroke="none" 
	d="
M114.817474,113.692757 
	C114.995193,114.153847 114.995758,114.323128 114.998642,114.746323 
	C115.747520,116.934723 117.991783,117.539658 118.937622,119.680862 
	C117.101242,122.822243 113.623322,124.514130 113.028587,128.653748 
	C110.821457,129.681030 109.768570,129.301865 108.624680,126.825073 
	C107.122704,123.572929 105.549072,120.286674 102.827751,117.464233 
	C99.100266,113.598221 95.073036,114.797134 91.057091,115.237335 
	C88.231537,115.547058 87.212616,117.571861 88.863480,120.668671 
	C89.017342,121.449326 89.018814,121.887497 89.025085,122.654373 
	C89.182762,123.154854 89.335632,123.326622 89.728889,123.745728 
	C89.970940,124.439400 89.972595,124.885735 89.970665,125.666824 
	C89.155426,126.901825 89.096001,128.141693 88.332291,129.448730 
	C87.790680,130.090958 87.426727,130.406235 86.733047,130.894287 
	C84.244179,132.194931 84.496780,134.281281 84.358086,136.208282 
	C84.184410,138.621460 84.773552,141.128830 83.229027,143.685272 
	C71.034271,144.079483 71.032578,144.079483 71.013863,132.308594 
	C71.008888,129.183167 71.017815,126.057709 71.032227,122.463470 
	C75.973839,120.146431 79.165672,115.956848 83.227539,112.939400 
	C84.608780,111.913322 85.408646,110.417610 85.821121,108.816109 
	C86.830711,104.896194 89.494621,103.146591 93.673355,102.693115 
	C98.077232,101.510490 102.325607,102.116455 106.627113,100.876274 
	C110.936020,95.092194 110.839203,93.483536 105.973969,89.513062 
	C104.991730,87.720200 104.905258,85.878738 106.784599,85.634628 
	C112.549339,84.885857 114.465820,80.420448 116.727798,76.168442 
	C116.873596,75.894363 117.234268,75.749779 117.856110,75.441620 
	C120.593643,74.537148 122.352554,76.486794 124.865089,76.905388 
	C126.702370,77.513733 128.061417,78.209900 129.372421,79.673874 
	C130.142120,82.667442 132.328415,84.878662 131.746063,88.196335 
	C129.508850,91.824417 129.817841,95.250320 131.238968,99.016457 
	C131.857407,100.546333 131.423187,101.627563 130.577164,102.950607 
	C124.956352,105.695908 120.797920,110.331276 114.956474,112.049675 
	C114.563850,112.165161 114.549660,112.895226 114.817474,113.692757 
z"/>
<path fill="#2064AE" opacity="1.000000" stroke="none" 
	d="
M119.348976,119.970016 
	C117.517967,118.715897 115.075058,118.315529 115.005547,115.352570 
	C117.528946,116.149185 120.056938,117.298134 122.781174,118.727737 
	C121.882301,119.317642 120.787186,119.626892 119.348976,119.970016 
z"/>
<path fill="#AFB0B5" opacity="1.000000" stroke="none" 
	d="
M103.723038,59.601410 
	C103.849548,59.442207 104.068665,59.419338 104.287781,59.396469 
	C104.130402,59.510227 103.973022,59.623989 103.723038,59.601410 
z"/>
<path fill="#E8F6FC" opacity="1.000000" stroke="none" 
	d="
M129.206940,80.569382 
	C127.905220,79.561897 126.850555,78.821625 125.483055,77.995262 
	C121.401199,74.782631 116.719582,75.053955 112.274597,74.463997 
	C110.668953,74.250893 109.003708,74.373344 107.257492,73.214119 
	C107.809319,69.775024 110.393417,71.457909 112.606674,71.007919 
	C114.887459,69.337669 117.347069,69.652824 119.919579,69.026382 
	C121.277344,68.744812 122.284386,68.679665 123.652939,68.500130 
	C124.270744,68.548080 124.512337,68.614578 124.902496,69.026352 
	C125.051056,69.371620 125.220718,69.594742 125.310837,69.703613 
	C126.678093,73.104225 130.312302,73.991753 132.515488,76.785980 
	C134.079758,79.795937 135.419769,82.587570 136.928848,85.695755 
	C137.326965,89.039886 137.556015,92.067451 137.770538,95.516373 
	C136.254150,104.557671 131.312759,110.768990 124.059448,115.748566 
	C121.049698,116.408539 118.928406,114.128601 115.994415,113.354889 
	C116.298866,111.405037 117.830833,111.276016 119.203697,110.796364 
	C123.142006,109.420403 126.039627,106.538750 129.361694,103.661316 
	C134.045486,95.909317 133.092102,88.358833 129.206940,80.569382 
z"/>
<path fill="#276ABD" opacity="1.000000" stroke="none" 
	d="
M117.643555,75.698784 
	C116.722328,78.367462 115.589272,80.753922 113.846939,82.931915 
	C111.896545,85.369987 110.473839,87.870033 106.768486,86.463753 
	C106.729713,86.449036 106.275452,87.529037 106.003662,88.442596 
	C102.528900,91.757385 98.368759,89.963608 94.161758,90.475746 
	C91.170311,90.268112 90.134201,91.637939 90.596008,94.016457 
	C90.999252,96.093399 90.756310,98.214142 91.402267,100.543091 
	C91.927811,101.315964 92.386322,101.724899 93.191940,102.213699 
	C93.799637,102.652473 94.047966,102.991364 94.113449,103.691116 
	C89.942520,103.917870 88.502380,106.297928 86.672951,109.770859 
	C83.589844,115.623779 78.969002,120.612732 71.428268,121.995590 
	C71.037529,107.307899 71.030968,92.621124 71.032318,77.465561 
	C73.594673,72.143715 78.337563,74.255905 82.559875,73.428238 
	C86.326378,73.306732 89.711441,73.254189 93.544830,73.305450 
	C94.824097,75.388748 93.246185,75.664612 92.029228,76.019043 
	C90.257317,76.535088 88.400780,76.322624 86.571625,76.517563 
	C93.476089,76.094986 100.236282,78.112785 107.149437,77.609070 
	C109.094429,77.467361 111.214813,77.901848 112.840248,75.598671 
	C114.558662,74.779053 115.936447,74.948997 117.643555,75.698784 
z"/>
<path fill="#E8F6FC" opacity="1.000000" stroke="none" 
	d="
M66.217529,117.990616 
	C69.921577,104.730171 67.726997,91.363113 67.396492,78.093246 
	C67.340340,75.838783 67.070618,74.227119 69.755295,73.180435 
	C70.247223,73.211891 70.387573,73.361000 70.342278,73.754829 
	C70.062881,88.652245 69.969131,103.304955 69.820099,118.416397 
	C69.095757,118.896202 68.426704,118.917259 67.425400,118.907516 
	C66.872238,118.626808 66.651337,118.376900 66.217529,117.990616 
z"/>
<path fill="#2064AE" opacity="1.000000" stroke="none" 
	d="
M83.390564,143.976944 
	C82.995094,140.369766 83.080399,136.768845 82.977890,133.173264 
	C82.911865,130.857086 83.848900,129.818436 86.570694,130.005707 
	C89.108528,134.316574 88.810883,138.739288 87.298080,143.593048 
	C85.930298,143.983231 84.861000,143.984344 83.390564,143.976944 
z"/>
<path fill="#1465BA" opacity="1.000000" stroke="none" 
	d="
M87.404068,143.977844 
	C86.998306,139.632294 86.997032,135.282471 86.993973,130.468536 
	C87.097160,129.679565 87.287148,129.416031 87.783142,129.103851 
	C88.385300,128.617111 88.839897,128.474609 89.667831,128.792862 
	C89.976395,132.795486 90.007423,136.571823 89.983177,140.347809 
	C89.972885,141.951477 90.353256,143.859695 87.404068,143.977844 
z"/>
<path fill="#F2FCFD" opacity="1.000000" stroke="none" 
	d="
M94.382561,122.454468 
	C93.829430,122.193466 93.662239,122.140594 93.244873,122.006523 
	C92.716309,121.737114 92.466690,121.516785 92.036560,121.128555 
	C91.770622,120.829468 91.718819,120.660721 91.749069,120.240219 
	C93.661011,118.258720 95.990814,117.873871 98.685455,117.771248 
	C99.648056,118.449364 100.274330,118.921898 101.012848,119.675461 
	C101.021095,121.414848 100.291336,122.141602 98.423317,122.013641 
	C97.065254,122.823570 95.982811,123.108467 94.382561,122.454468 
z"/>
<path fill="#4271B1" opacity="1.000000" stroke="none" 
	d="
M70.423851,74.044868 
	C70.156624,73.999542 70.056778,73.534988 70.081818,73.298882 
	C70.529343,73.057709 70.951828,73.052635 71.684875,72.984863 
	C74.656570,71.458611 77.432762,71.906609 80.612152,72.676422 
	C81.445549,72.998909 81.880119,73.072433 82.628006,73.252609 
	C81.081215,74.958138 78.849823,75.152992 76.554016,74.976830 
	C74.673866,74.832558 73.039215,75.276894 71.368820,76.818893 
	C70.626205,76.063667 72.296501,74.880188 70.423851,74.044868 
z"/>
<path fill="#D7F4FE" opacity="1.000000" stroke="none" 
	d="
M98.769135,117.665115 
	C96.882133,118.644531 94.742477,119.312233 92.216965,119.984207 
	C91.750221,119.837341 91.669334,119.686218 91.524536,119.286041 
	C91.517746,118.611267 91.556755,118.183891 91.793411,117.515289 
	C94.182442,116.946045 96.353493,116.812096 98.769135,117.665115 
z"/>
<path fill="#2064AE" opacity="1.000000" stroke="none" 
	d="
M89.978210,128.641846 
	C89.531479,129.012939 89.095238,129.006592 88.331558,128.997070 
	C87.998100,127.849030 88.435295,126.932968 89.683662,126.145462 
	C89.974281,126.755852 89.981483,127.510132 89.978210,128.641846 
z"/>
<path fill="#949EB2" opacity="1.000000" stroke="none" 
	d="
M91.803993,117.205200 
	C91.935295,117.684837 91.861534,118.093979 91.624207,118.770050 
	C91.339584,118.568832 91.218536,118.100685 91.131378,117.382385 
	C91.165268,117.132233 91.598938,117.134689 91.803993,117.205200 
z"/>
<path fill="#D7F4FE" opacity="1.000000" stroke="none" 
	d="
M91.758347,121.295273 
	C92.122093,121.160538 92.421768,121.322861 92.858070,121.705261 
	C92.812279,121.967445 92.629875,122.009560 92.172333,122.108444 
	C91.829552,121.974258 91.761909,121.783295 91.758347,121.295273 
z"/>
<path fill="#2064AE" opacity="1.000000" stroke="none" 
	d="
M89.875259,123.773270 
	C89.654305,123.888313 89.403694,123.698570 89.123657,123.203453 
	C89.343178,123.090446 89.593628,123.280586 89.875259,123.773270 
z"/>
<path fill="#F9F6F0" opacity="1.000000" stroke="none" 
	d="
M121.307541,69.648376 
	C118.739792,70.575432 116.372490,71.322273 113.433167,71.006332 
	C113.299995,69.643318 113.585953,68.280235 113.891357,66.570709 
	C115.718086,66.747810 117.525368,67.271347 119.678650,67.869835 
	C120.233093,67.821579 120.441544,67.698364 120.964394,67.756432 
	C121.484848,68.383667 121.561913,68.849014 121.307541,69.648376 
z"/>
<path fill="#9E9EA2" opacity="1.000000" stroke="none" 
	d="
M121.096664,68.313278 
	C120.756653,68.106400 120.378342,68.080971 120.201492,68.012878 
	C121.784508,67.423706 123.917786,64.024872 125.034180,68.982132 
	C125.051056,69.371620 124.723679,69.456993 124.578537,69.370087 
	C123.297653,69.566269 122.374001,69.016357 121.096664,68.313278 
z"/>
<path fill="#9D9C9D" opacity="1.000000" stroke="none" 
	d="
M94.050438,122.584839 
	C95.079346,122.159050 96.162079,122.071754 97.653809,122.026321 
	C97.932388,123.178452 98.232430,124.613022 96.634621,124.840599 
	C95.298805,125.030869 94.492989,124.166840 94.050438,122.584839 
z"/>
<path fill="#2064AE" opacity="1.000000" stroke="none" 
	d="
M130.196304,103.604828 
	C127.286888,109.529564 121.802048,111.061043 116.120773,112.969528 
	C115.506088,113.210236 115.314125,113.390846 115.082855,113.804024 
	C112.315697,113.405144 112.607277,110.976852 114.220375,110.756134 
	C119.994614,109.966057 123.142830,104.847664 128.210785,103.114830 
	C128.515274,103.010719 128.864594,103.037689 129.564102,102.993103 
	C130.094360,103.115471 130.253571,103.248421 130.196304,103.604828 
z"/>
<path fill="#226BB7" opacity="1.000000" stroke="none" 
	d="
M112.703743,75.686127 
	C113.013939,77.597946 112.748489,78.859848 110.648018,79.005470 
	C101.678734,79.627266 92.830887,77.458641 83.872017,77.908463 
	C82.981766,77.953156 82.204041,77.412300 82.307480,76.409927 
	C82.442596,75.100540 83.571060,75.159706 84.561386,75.006241 
	C87.603355,74.534836 90.832359,76.015327 93.863266,73.766922 
	C94.736328,73.341621 95.479515,73.273987 96.590393,73.285156 
	C99.805702,75.245140 103.028419,74.372704 106.098198,74.587807 
	C108.217735,74.736328 110.393684,74.385223 112.703743,75.686127 
z"/>
<path fill="#4271B1" opacity="1.000000" stroke="none" 
	d="
M113.422134,75.972473 
	C109.252922,75.972481 105.498032,75.974831 101.743141,75.970840 
	C99.952698,75.968933 98.061333,76.202515 97.043350,73.727203 
	C100.000435,73.259926 103.042778,73.155876 106.535309,72.982475 
	C111.526802,73.223663 116.142143,73.029640 120.521881,74.528152 
	C122.157074,75.087624 124.067215,75.368835 125.076683,77.556290 
	C122.594795,78.718193 121.122391,75.840652 118.360580,75.984123 
	C116.596077,75.978355 115.216263,75.975288 113.422134,75.972473 
z"/>
<path fill="#E8F6FC" opacity="1.000000" stroke="none" 
	d="
M80.915558,72.547531 
	C78.301849,72.981583 75.592728,73.037773 72.439529,73.008064 
	C74.665504,69.487198 77.737892,70.770592 80.915558,72.547531 
z"/>
<path fill="#F2FCFD" opacity="1.000000" stroke="none" 
	d="
M91.738815,89.357903 
	C96.352905,88.987419 100.713943,88.957619 105.533577,88.857513 
	C112.083939,91.378494 112.882980,95.180695 108.194939,100.539078 
	C103.822769,103.191849 99.184875,101.324608 94.425751,102.188881 
	C93.696121,102.035896 93.403793,101.980583 92.684158,101.800140 
	C91.744919,101.371727 91.313431,100.980125 90.758530,100.116821 
	C91.224792,96.423683 89.956802,92.931099 91.738815,89.357903 
z"/>
<path fill="#3869AA" opacity="1.000000" stroke="none" 
	d="
M130.316925,103.720184 
	C129.979828,103.828285 129.962891,103.405373 129.949036,103.193954 
	C130.271057,101.885612 130.606964,100.788696 130.970520,99.346466 
	C129.306473,96.012283 129.950653,92.884087 130.729141,89.380600 
	C131.918716,85.943039 128.675491,83.952507 128.968536,80.678192 
	C134.658981,86.235802 135.279190,94.769333 130.316925,103.720184 
z"/>
<path fill="#2A5C99" opacity="1.000000" stroke="none" 
	d="
M92.799065,101.621780 
	C97.695366,101.222527 102.377739,101.063560 107.523621,100.862503 
	C107.836838,103.236847 106.036209,103.020531 104.431015,102.985367 
	C101.190720,102.914398 97.971611,102.964066 94.426285,103.982819 
	C93.906761,103.663239 93.713058,103.401352 93.200142,103.104485 
	C92.641396,102.690422 92.521004,102.307846 92.799065,101.621780 
z"/>
<path fill="#1465BA" opacity="1.000000" stroke="none" 
	d="
M130.688995,88.897011 
	C131.010193,92.028557 131.009384,95.060593 131.003372,98.546898 
	C130.681793,99.085045 130.104828,99.280495 130.086166,99.236916 
	C128.581039,95.721321 127.899101,92.210785 130.688995,88.897011 
z"/>
<path fill="#2064AE" opacity="1.000000" stroke="none" 
	d="
M106.304108,115.753212 
	C105.335213,114.590446 104.456413,113.493370 105.671982,112.591805 
	C106.723045,111.812263 107.785782,112.888016 108.684242,113.464897 
	C109.704193,114.119766 110.393890,115.192329 109.503242,116.300911 
	C108.555885,117.480072 107.489403,116.723831 106.304108,115.753212 
z"/>
<path fill="#A5A4A9" opacity="1.000000" stroke="none" 
	d="
M120.820984,68.415062 
	C121.743690,68.382027 122.730721,68.657654 124.075577,69.108231 
	C123.560394,69.504250 122.687386,69.725319 121.470169,69.953125 
	C121.045753,69.547821 120.965530,69.135765 120.820984,68.415062 
z"/>
<path fill="#2A5C99" opacity="1.000000" stroke="none" 
	d="
M91.634445,89.080727 
	C91.894684,92.242393 91.797516,95.467575 91.533485,99.025467 
	C91.329742,99.592690 91.292870,99.827179 91.356300,100.403610 
	C91.457100,100.983238 91.457603,101.220924 91.232635,101.734787 
	C90.141724,97.702011 87.081055,93.347015 91.634445,89.080727 
z"/>
<path fill="#2066B6" opacity="1.000000" stroke="none" 
	d="
M91.170441,102.253906 
	C91.007149,102.010963 91.011810,101.523529 91.017929,101.279877 
	C91.174789,100.896904 91.325531,100.757584 91.712021,100.816315 
	C92.129662,101.062943 92.311546,101.111526 92.753220,101.270798 
	C93.004105,101.741150 92.995216,102.100822 92.980576,102.730263 
	C92.427795,102.832314 91.880768,102.664581 91.170441,102.253906 
z"/>
<path fill="#F9F6F0" opacity="1.000000" stroke="none" 
	d="
M106.578339,97.668686 
	C105.108528,98.344116 104.014320,99.304413 101.898407,98.207428 
	C105.014359,97.083061 103.309074,91.675476 107.431068,92.775360 
	C109.622246,93.360046 108.895233,96.057831 106.578339,97.668686 
z"/>
<path fill="#276ABD" opacity="1.000000" stroke="none" 
	d="
M91.897278,100.716888 
	C91.947769,101.014366 91.485580,101.023521 91.254814,101.029877 
	C91.054199,100.751793 91.084358,100.467354 91.240570,99.770554 
	C91.526680,99.711929 91.686737,100.065666 91.897278,100.716888 
z"/>
</svg>