<?xml version="1.0" encoding="UTF-8"?>
<svg xmlns="http://www.w3.org/2000/svg" xmlns:xlink="http://www.w3.org/1999/xlink" width="59px" height="20px" viewBox="0 0 56 20" version="1.1">
<g id="surface1">
<path style=" stroke:none;fill-rule:nonzero;fill:rgb(99.607843%,99.607843%,99.607843%);fill-opacity:1;" d="M 10.636719 0.148438 C 25.800781 0.148438 40.960938 0.148438 56.132812 0.148438 C 56.132812 6.804688 56.132812 13.457031 56.132812 20.148438 C 41.023438 20.148438 25.902344 20.148438 10.742188 20.101562 C 11.09375 19.992188 11.484375 19.941406 11.867188 19.871094 C 16.261719 19.066406 19.582031 15.214844 19.839844 10.878906 C 20.152344 5.601562 16.605469 1.539062 12.542969 0.574219 C 11.910156 0.421875 11.273438 0.289062 10.636719 0.148438 M 54.871094 5.984375 C 54.851562 6.050781 54.828125 6.117188 54.796875 6.273438 C 54.789062 6.335938 54.777344 6.398438 54.671875 6.464844 C 54.390625 6.792969 54.53125 6.96875 55.226562 7.128906 C 55.242188 6.929688 55.253906 6.738281 55.292969 6.429688 C 55.304688 6.390625 55.3125 6.355469 55.386719 6.253906 C 55.246094 6.148438 55.105469 6.039062 54.871094 5.984375 M 47.128906 14.375 C 47.179688 14.394531 47.230469 14.414062 47.402344 14.460938 C 47.609375 14.449219 47.816406 14.441406 48.113281 14.441406 C 48.132812 14.386719 48.152344 14.335938 48.195312 14.144531 C 48.1875 12.1875 48.179688 10.230469 48.179688 8.183594 C 48.128906 8.167969 48.074219 8.152344 47.902344 8.117188 C 47.695312 8.125 47.488281 8.128906 47.195312 8.128906 C 47.171875 8.175781 47.152344 8.222656 47.105469 8.410156 C 47.117188 10.367188 47.125 12.328125 47.128906 14.375 M 32.714844 8.128906 C 32.699219 8.175781 32.679688 8.222656 32.640625 8.40625 C 32.640625 9.710938 32.605469 11.011719 32.65625 12.3125 C 32.722656 14.027344 34.003906 15.015625 35.492188 14.503906 C 35.996094 14.328125 36.433594 13.941406 36.890625 13.652344 C 36.984375 14.523438 37.050781 14.570312 37.847656 14.367188 C 37.847656 12.324219 37.847656 10.300781 37.851562 8.183594 C 37.792969 8.167969 37.738281 8.152344 37.558594 8.117188 C 37.351562 8.125 37.144531 8.128906 36.855469 8.125 C 36.835938 8.171875 36.820312 8.222656 36.78125 8.410156 C 36.777344 9.585938 36.792969 10.761719 36.769531 11.941406 C 36.753906 12.953125 36.082031 13.640625 35.113281 13.675781 C 34.414062 13.703125 33.941406 13.175781 33.8125 12.191406 C 33.765625 11.820312 33.753906 11.441406 33.753906 11.066406 C 33.746094 10.101562 33.75 9.132812 33.75 8.136719 C 33.378906 8.136719 33.089844 8.136719 32.714844 8.128906 M 44.308594 14.425781 C 44.960938 14.582031 45.238281 14.394531 45.226562 13.640625 C 45.183594 11.085938 45.203125 8.53125 45.199219 5.976562 C 45.199219 5.710938 45.199219 5.441406 45.199219 5.167969 C 44.773438 5.167969 44.441406 5.167969 44.03125 5.167969 C 44.03125 6.386719 44.03125 7.566406 44.03125 8.8125 C 42.78125 7.734375 41.429688 7.714844 40.367188 8.6875 C 39.386719 9.589844 39.050781 11.347656 39.585938 12.800781 C 40.050781 14.066406 41.121094 14.808594 42.40625 14.558594 C 43.03125 14.441406 43.59375 14 44.171875 13.710938 C 44.183594 13.847656 44.203125 14.089844 44.308594 14.425781 M 22.570312 13.390625 C 22.367188 13.3125 22.164062 13.234375 21.933594 13.140625 C 21.84375 13.453125 21.757812 13.734375 21.664062 14.050781 C 22.820312 14.671875 23.992188 14.78125 25.1875 14.417969 C 26.390625 14.054688 27.042969 12.96875 26.890625 11.691406 C 26.78125 10.753906 26.195312 10.175781 25.40625 9.777344 C 24.816406 9.476562 24.191406 9.234375 23.621094 8.898438 C 23.113281 8.601562 22.875 8.113281 23.007812 7.496094 C 23.152344 6.84375 23.597656 6.484375 24.210938 6.472656 C 24.882812 6.460938 25.558594 6.585938 26.304688 6.65625 C 26.351562 6.5 26.441406 6.222656 26.542969 5.894531 C 25.410156 5.359375 24.292969 5.285156 23.175781 5.785156 C 22.171875 6.238281 21.679688 7.222656 21.878906 8.308594 C 22.046875 9.203125 22.675781 9.710938 23.429688 10.089844 C 24.003906 10.375 24.601562 10.609375 25.148438 10.941406 C 25.691406 11.269531 25.929688 11.859375 25.699219 12.429688 C 25.523438 12.859375 25.128906 13.285156 24.726562 13.511719 C 24.074219 13.882812 23.347656 13.796875 22.570312 13.390625 M 49.855469 12.601562 C 50.160156 13.476562 50.71875 14.105469 51.578125 14.429688 C 53.886719 15.304688 55.957031 13.5 55.730469 10.816406 C 55.597656 9.207031 54.53125 8.097656 53.011719 7.976562 C 51.421875 7.851562 50.074219 8.824219 49.792969 10.417969 C 49.671875 11.085938 49.796875 11.796875 49.855469 12.601562 M 31.332031 8.359375 C 30.808594 8.308594 30.285156 8.257812 29.734375 8.203125 C 29.734375 7.933594 29.742188 7.710938 29.730469 7.488281 C 29.71875 7.171875 29.851562 6.792969 29.28125 6.804688 C 28.773438 6.8125 28.613281 7.070312 28.664062 7.496094 C 28.761719 8.339844 28.277344 8.355469 27.648438 8.214844 C 27.671875 8.496094 27.691406 8.734375 27.710938 8.984375 C 28.050781 9.003906 28.332031 9.023438 28.65625 9.042969 C 28.65625 10.300781 28.640625 11.5 28.660156 12.699219 C 28.6875 14.125 29.332031 14.699219 30.699219 14.597656 C 31.25 14.554688 31.472656 14.351562 31.226562 13.800781 C 30.324219 13.84375 29.867188 13.628906 29.820312 12.90625 C 29.738281 11.625 29.796875 10.332031 29.796875 9.011719 C 30.1875 9.011719 30.535156 8.984375 30.875 9.015625 C 31.28125 9.054688 31.40625 8.875 31.332031 8.359375 M 47.875 5.632812 C 47.578125 5.777344 47.160156 5.847656 47.03125 6.085938 C 46.933594 6.265625 47.136719 6.765625 47.347656 6.914062 C 47.511719 7.03125 48.011719 6.929688 48.15625 6.753906 C 48.441406 6.410156 48.441406 5.96875 47.875 5.632812 M 54.886719 5.6875 C 54.886719 5.6875 54.90625 5.632812 54.90625 5.632812 C 54.90625 5.632812 54.859375 5.648438 54.886719 5.6875 M 55.480469 5.65625 C 55.480469 5.65625 55.46875 5.636719 55.480469 5.65625 Z M 55.480469 5.65625 "/>
<path style=" stroke:none;fill-rule:nonzero;fill:rgb(46.27451%,66.666667%,85.882353%);fill-opacity:1;" d="M 10.574219 0.148438 C 11.273438 0.289062 11.910156 0.421875 12.542969 0.574219 C 16.605469 1.539062 20.152344 5.601562 19.839844 10.878906 C 19.582031 15.214844 16.261719 19.066406 11.867188 19.871094 C 11.484375 19.941406 11.09375 19.992188 10.671875 20.101562 C 10.335938 20.148438 10.035156 20.148438 9.636719 20.101562 C 9.175781 19.992188 8.8125 19.933594 8.453125 19.871094 C 4.121094 19.089844 0.765625 15.363281 0.449219 10.992188 C 0.117188 6.351562 2.839844 2.167969 7.144531 0.761719 C 7.988281 0.488281 8.882812 0.351562 9.753906 0.148438 C 10.003906 0.148438 10.257812 0.148438 10.574219 0.148438 M 12.257812 9.398438 C 13.070312 8.6875 13.335938 7.804688 13.011719 6.765625 C 12.695312 5.746094 11.894531 5.3125 10.929688 5.265625 C 9.546875 5.203125 8.160156 5.25 6.734375 5.25 C 6.734375 5.535156 6.734375 5.742188 6.734375 5.9375 C 8.105469 6.265625 7.863281 6.015625 7.875 7.308594 C 7.890625 9.011719 7.882812 10.714844 7.878906 12.417969 C 7.875 12.683594 7.851562 12.949219 7.839844 13.195312 C 6.605469 13.355469 6.605469 13.355469 6.808594 14.078125 C 7.929688 14.078125 9.046875 14.078125 10.167969 14.078125 C 10.167969 13.796875 10.167969 13.582031 10.167969 13.320312 C 9.730469 13.28125 9.328125 13.25 8.90625 13.214844 C 8.90625 12.152344 8.90625 11.140625 8.90625 10.171875 C 9.84375 9.851562 10.429688 10.164062 10.871094 10.992188 C 11.28125 11.761719 11.8125 12.460938 12.289062 13.1875 C 12.992188 14.261719 13.21875 14.347656 14.527344 14.027344 C 14.679688 13.488281 14.523438 13.226562 13.929688 13.253906 C 13.734375 13.265625 13.449219 13.1875 13.347656 13.046875 C 12.636719 12.042969 11.964844 11.015625 11.277344 9.988281 C 11.625 9.785156 11.902344 9.625 12.257812 9.398438 Z M 12.257812 9.398438 "/>
<path style=" stroke:none;fill-rule:nonzero;fill:rgb(99.607843%,99.607843%,100%);fill-opacity:1;" d="M 9.683594 0.148438 C 8.882812 0.351562 7.988281 0.488281 7.144531 0.761719 C 2.839844 2.167969 0.117188 6.351562 0.449219 10.992188 C 0.765625 15.363281 4.121094 19.089844 8.453125 19.871094 C 8.8125 19.933594 9.175781 19.992188 9.570312 20.101562 C 6.457031 20.148438 3.308594 20.148438 0.15625 20.148438 C 0.15625 13.5 0.15625 6.851562 0.15625 0.148438 C 3.304688 0.148438 6.457031 0.148438 9.683594 0.148438 Z M 9.683594 0.148438 "/>
<path style=" stroke:none;fill-rule:nonzero;fill:rgb(31.764706%,31.764706%,31.764706%);fill-opacity:1;" d="M 44.265625 14.382812 C 44.203125 14.089844 44.183594 13.847656 44.171875 13.710938 C 43.59375 14 43.03125 14.441406 42.40625 14.558594 C 41.121094 14.808594 40.050781 14.066406 39.585938 12.800781 C 39.050781 11.347656 39.386719 9.589844 40.367188 8.6875 C 41.429688 7.714844 42.78125 7.734375 44.03125 8.8125 C 44.03125 7.566406 44.03125 6.386719 44.03125 5.167969 C 44.441406 5.167969 44.773438 5.167969 45.199219 5.167969 C 45.199219 5.441406 45.199219 5.710938 45.199219 5.976562 C 45.203125 8.53125 45.183594 11.085938 45.226562 13.640625 C 45.238281 14.394531 44.960938 14.582031 44.265625 14.382812 M 43.496094 13.21875 C 44.269531 12.472656 44.027344 11.5 44.027344 10.59375 C 44.027344 9.738281 43.492188 9.097656 42.714844 8.910156 C 41.984375 8.738281 41.082031 9.097656 40.84375 9.886719 C 40.621094 10.613281 40.503906 11.46875 40.648438 12.203125 C 40.941406 13.664062 42.148438 14.078125 43.496094 13.21875 Z M 43.496094 13.21875 "/>
<path style=" stroke:none;fill-rule:nonzero;fill:rgb(31.764706%,31.764706%,31.764706%);fill-opacity:1;" d="M 22.621094 13.414062 C 23.347656 13.796875 24.074219 13.882812 24.726562 13.511719 C 25.128906 13.285156 25.523438 12.859375 25.699219 12.429688 C 25.929688 11.859375 25.691406 11.269531 25.148438 10.941406 C 24.601562 10.609375 24.003906 10.375 23.429688 10.089844 C 22.675781 9.710938 22.046875 9.203125 21.878906 8.308594 C 21.679688 7.222656 22.171875 6.238281 23.175781 5.785156 C 24.292969 5.285156 25.410156 5.359375 26.542969 5.894531 C 26.441406 6.222656 26.351562 6.5 26.304688 6.65625 C 25.558594 6.585938 24.882812 6.460938 24.210938 6.472656 C 23.597656 6.484375 23.152344 6.84375 23.007812 7.496094 C 22.875 8.113281 23.113281 8.601562 23.621094 8.898438 C 24.191406 9.234375 24.816406 9.476562 25.40625 9.777344 C 26.195312 10.175781 26.78125 10.753906 26.890625 11.691406 C 27.042969 12.96875 26.390625 14.054688 25.1875 14.417969 C 23.992188 14.78125 22.820312 14.671875 21.664062 14.050781 C 21.757812 13.734375 21.84375 13.453125 21.933594 13.140625 C 22.164062 13.234375 22.367188 13.3125 22.621094 13.414062 Z M 22.621094 13.414062 "/>
<path style=" stroke:none;fill-rule:nonzero;fill:rgb(31.372549%,31.372549%,31.372549%);fill-opacity:1;" d="M 49.832031 12.546875 C 49.796875 11.796875 49.671875 11.085938 49.792969 10.417969 C 50.074219 8.824219 51.421875 7.851562 53.011719 7.976562 C 54.53125 8.097656 55.597656 9.207031 55.730469 10.816406 C 55.957031 13.5 53.886719 15.304688 51.578125 14.429688 C 50.71875 14.105469 50.160156 13.476562 49.832031 12.546875 M 54.339844 12.625 C 54.726562 11.675781 54.738281 10.730469 54.261719 9.8125 C 53.9375 9.195312 53.4375 8.851562 52.722656 8.855469 C 52.007812 8.859375 51.496094 9.191406 51.175781 9.808594 C 50.78125 10.566406 50.710938 11.375 50.945312 12.199219 C 51.175781 12.996094 51.605469 13.597656 52.472656 13.71875 C 53.304688 13.839844 53.878906 13.429688 54.339844 12.625 Z M 54.339844 12.625 "/>
<path style=" stroke:none;fill-rule:nonzero;fill:rgb(30.980392%,30.980392%,30.980392%);fill-opacity:1;" d="M 37.847656 8.277344 C 37.847656 10.300781 37.847656 12.324219 37.847656 14.367188 C 37.050781 14.570312 36.984375 14.523438 36.890625 13.652344 C 36.433594 13.941406 35.996094 14.328125 35.492188 14.503906 C 34.003906 15.015625 32.722656 14.027344 32.65625 12.3125 C 32.605469 11.011719 32.640625 9.710938 32.683594 8.328125 C 32.765625 8.21875 32.789062 8.183594 32.796875 8.136719 C 33.089844 8.136719 33.378906 8.136719 33.75 8.136719 C 33.75 9.132812 33.746094 10.101562 33.753906 11.066406 C 33.753906 11.441406 33.765625 11.820312 33.8125 12.191406 C 33.941406 13.175781 34.414062 13.703125 35.113281 13.675781 C 36.082031 13.640625 36.753906 12.953125 36.769531 11.941406 C 36.792969 10.761719 36.777344 9.585938 36.820312 8.328125 C 36.902344 8.21875 36.925781 8.179688 36.9375 8.136719 C 37.144531 8.128906 37.351562 8.125 37.636719 8.160156 C 37.761719 8.226562 37.804688 8.253906 37.847656 8.277344 Z M 37.847656 8.277344 "/>
<path style=" stroke:none;fill-rule:nonzero;fill:rgb(31.372549%,31.372549%,31.372549%);fill-opacity:1;" d="M 31.34375 8.429688 C 31.40625 8.875 31.28125 9.054688 30.875 9.015625 C 30.535156 8.984375 30.1875 9.011719 29.796875 9.011719 C 29.796875 10.332031 29.738281 11.625 29.820312 12.90625 C 29.867188 13.628906 30.324219 13.84375 31.226562 13.800781 C 31.472656 14.351562 31.25 14.554688 30.699219 14.597656 C 29.332031 14.699219 28.6875 14.125 28.660156 12.699219 C 28.640625 11.5 28.65625 10.300781 28.65625 9.042969 C 28.332031 9.023438 28.050781 9.003906 27.710938 8.984375 C 27.691406 8.734375 27.671875 8.496094 27.648438 8.214844 C 28.277344 8.355469 28.761719 8.339844 28.664062 7.496094 C 28.613281 7.070312 28.773438 6.8125 29.28125 6.804688 C 29.851562 6.792969 29.71875 7.171875 29.730469 7.488281 C 29.742188 7.710938 29.734375 7.933594 29.734375 8.203125 C 30.285156 8.257812 30.808594 8.308594 31.34375 8.429688 Z M 31.34375 8.429688 "/>
<path style=" stroke:none;fill-rule:nonzero;fill:rgb(30.196078%,30.196078%,30.196078%);fill-opacity:1;" d="M 47.28125 8.136719 C 47.488281 8.128906 47.695312 8.125 47.976562 8.160156 C 48.085938 8.238281 48.125 8.261719 48.171875 8.269531 C 48.179688 10.230469 48.1875 12.1875 48.152344 14.230469 C 48.0625 14.34375 48.035156 14.382812 48.023438 14.433594 C 47.816406 14.441406 47.609375 14.449219 47.328125 14.414062 C 47.222656 14.324219 47.183594 14.296875 47.132812 14.285156 C 47.125 12.328125 47.117188 10.367188 47.152344 8.328125 C 47.238281 8.21875 47.265625 8.183594 47.28125 8.136719 Z M 47.28125 8.136719 "/>
<path style=" stroke:none;fill-rule:nonzero;fill:rgb(33.72549%,33.72549%,33.72549%);fill-opacity:1;" d="M 47.925781 5.65625 C 48.441406 5.96875 48.441406 6.410156 48.15625 6.753906 C 48.011719 6.929688 47.511719 7.03125 47.347656 6.914062 C 47.136719 6.765625 46.933594 6.265625 47.03125 6.085938 C 47.160156 5.847656 47.578125 5.777344 47.925781 5.65625 Z M 47.925781 5.65625 "/>
<path style=" stroke:none;fill-rule:nonzero;fill:rgb(91.764706%,91.764706%,91.764706%);fill-opacity:1;" d="M 55.265625 6.542969 C 55.253906 6.738281 55.242188 6.929688 55.226562 7.128906 C 54.53125 6.96875 54.390625 6.792969 54.777344 6.488281 C 54.925781 6.519531 54.96875 6.527344 55.015625 6.546875 C 55.019531 6.554688 55.078125 6.539062 55.089844 6.523438 C 55.101562 6.507812 55.113281 6.472656 55.148438 6.5 C 55.210938 6.53125 55.238281 6.539062 55.265625 6.542969 M 54.878906 6.84375 C 54.878906 6.84375 54.898438 6.835938 54.878906 6.84375 Z M 54.878906 6.84375 "/>
<path style=" stroke:none;fill-rule:nonzero;fill:rgb(79.607843%,79.607843%,79.607843%);fill-opacity:1;" d="M 55.007812 6.535156 C 54.96875 6.527344 54.925781 6.519531 54.824219 6.484375 C 54.777344 6.398438 54.789062 6.335938 54.851562 6.203125 C 54.921875 6.066406 54.945312 6 54.964844 5.929688 C 55.105469 6.039062 55.246094 6.148438 55.304688 6.289062 C 55.183594 6.371094 55.148438 6.421875 55.113281 6.472656 C 55.113281 6.472656 55.101562 6.507812 55.070312 6.515625 C 55.042969 6.519531 55.007812 6.535156 55.007812 6.535156 Z M 55.007812 6.535156 "/>
<path style=" stroke:none;fill-rule:nonzero;fill:rgb(24.705882%,24.705882%,24.705882%);fill-opacity:1;" d="M 37.847656 8.230469 C 37.804688 8.253906 37.761719 8.226562 37.699219 8.171875 C 37.738281 8.152344 37.792969 8.167969 37.847656 8.230469 Z M 37.847656 8.230469 "/>
<path style=" stroke:none;fill-rule:nonzero;fill:rgb(24.313725%,24.313725%,24.313725%);fill-opacity:1;" d="M 48.066406 14.4375 C 48.035156 14.382812 48.0625 14.34375 48.136719 14.300781 C 48.152344 14.335938 48.132812 14.386719 48.066406 14.4375 Z M 48.066406 14.4375 "/>
<path style=" stroke:none;fill-rule:nonzero;fill:rgb(24.313725%,24.313725%,24.313725%);fill-opacity:1;" d="M 47.128906 14.332031 C 47.183594 14.296875 47.222656 14.324219 47.265625 14.398438 C 47.230469 14.414062 47.179688 14.394531 47.128906 14.332031 Z M 47.128906 14.332031 "/>
<path style=" stroke:none;fill-rule:nonzero;fill:rgb(70.980392%,70.980392%,70.980392%);fill-opacity:1;" d="M 54.871094 5.667969 C 54.859375 5.648438 54.90625 5.632812 54.90625 5.632812 C 54.90625 5.632812 54.886719 5.6875 54.871094 5.667969 Z M 54.871094 5.667969 "/>
<path style=" stroke:none;fill-rule:nonzero;fill:rgb(93.333333%,93.333333%,93.333333%);fill-opacity:1;" d="M 55.472656 5.644531 C 55.46875 5.636719 55.480469 5.65625 55.472656 5.644531 Z M 55.472656 5.644531 "/>
<path style=" stroke:none;fill-rule:nonzero;fill:rgb(24.313725%,24.313725%,24.313725%);fill-opacity:1;" d="M 48.175781 8.226562 C 48.125 8.261719 48.085938 8.238281 48.039062 8.167969 C 48.074219 8.152344 48.128906 8.167969 48.175781 8.226562 Z M 48.175781 8.226562 "/>
<path style=" stroke:none;fill-rule:nonzero;fill:rgb(24.313725%,24.313725%,24.313725%);fill-opacity:1;" d="M 47.238281 8.132812 C 47.265625 8.183594 47.238281 8.21875 47.164062 8.257812 C 47.152344 8.222656 47.171875 8.175781 47.238281 8.132812 Z M 47.238281 8.132812 "/>
<path style=" stroke:none;fill-rule:nonzero;fill:rgb(58.039216%,58.039216%,58.039216%);fill-opacity:1;" d="M 55.148438 6.5 C 55.148438 6.421875 55.183594 6.371094 55.273438 6.320312 C 55.3125 6.355469 55.304688 6.390625 55.28125 6.488281 C 55.238281 6.539062 55.210938 6.53125 55.148438 6.5 Z M 55.148438 6.5 "/>
<path style=" stroke:none;fill-rule:nonzero;fill:rgb(24.705882%,24.705882%,24.705882%);fill-opacity:1;" d="M 36.894531 8.128906 C 36.925781 8.179688 36.902344 8.21875 36.832031 8.257812 C 36.820312 8.222656 36.835938 8.171875 36.894531 8.128906 Z M 36.894531 8.128906 "/>
<path style=" stroke:none;fill-rule:nonzero;fill:rgb(23.137255%,23.137255%,23.137255%);fill-opacity:1;" d="M 32.757812 8.132812 C 32.789062 8.183594 32.765625 8.21875 32.695312 8.257812 C 32.679688 8.222656 32.699219 8.175781 32.757812 8.132812 Z M 32.757812 8.132812 "/>
<path style=" stroke:none;fill-rule:nonzero;fill:rgb(58.039216%,58.039216%,58.039216%);fill-opacity:1;" d="M 54.917969 5.957031 C 54.945312 6 54.921875 6.066406 54.855469 6.15625 C 54.828125 6.117188 54.851562 6.050781 54.917969 5.957031 Z M 54.917969 5.957031 "/>
<path style=" stroke:none;fill-rule:nonzero;fill:rgb(98.039216%,98.823529%,99.607843%);fill-opacity:1;" d="M 12.21875 9.433594 C 11.902344 9.625 11.625 9.785156 11.277344 9.988281 C 11.964844 11.015625 12.636719 12.042969 13.347656 13.046875 C 13.449219 13.1875 13.734375 13.265625 13.929688 13.253906 C 14.523438 13.226562 14.679688 13.488281 14.527344 14.027344 C 13.21875 14.347656 12.992188 14.261719 12.289062 13.1875 C 11.8125 12.460938 11.28125 11.761719 10.871094 10.992188 C 10.429688 10.164062 9.84375 9.851562 8.90625 10.171875 C 8.90625 11.140625 8.90625 12.152344 8.90625 13.214844 C 9.328125 13.25 9.730469 13.28125 10.167969 13.320312 C 10.167969 13.582031 10.167969 13.796875 10.167969 14.078125 C 9.046875 14.078125 7.929688 14.078125 6.808594 14.078125 C 6.605469 13.355469 6.605469 13.355469 7.839844 13.195312 C 7.851562 12.949219 7.875 12.683594 7.878906 12.417969 C 7.882812 10.714844 7.890625 9.011719 7.875 7.308594 C 7.863281 6.015625 8.105469 6.265625 6.734375 5.9375 C 6.734375 5.742188 6.734375 5.535156 6.734375 5.25 C 8.160156 5.25 9.546875 5.203125 10.929688 5.265625 C 11.894531 5.3125 12.695312 5.746094 13.011719 6.765625 C 13.335938 7.804688 13.070312 8.6875 12.21875 9.433594 M 10.761719 6.046875 C 10.140625 6.046875 9.519531 6.046875 8.90625 6.046875 C 8.90625 7.257812 8.90625 8.242188 8.90625 9.339844 C 9.550781 9.28125 10.132812 9.261719 10.707031 9.167969 C 11.636719 9.011719 12.097656 8.519531 12.132812 7.726562 C 12.175781 6.773438 11.898438 6.40625 10.761719 6.046875 Z M 10.761719 6.046875 "/>
<path style=" stroke:none;fill-rule:nonzero;fill:rgb(99.215686%,99.215686%,99.215686%);fill-opacity:1;" d="M 43.453125 13.257812 C 42.148438 14.078125 40.941406 13.664062 40.648438 12.203125 C 40.503906 11.46875 40.621094 10.613281 40.84375 9.886719 C 41.082031 9.097656 41.984375 8.738281 42.714844 8.910156 C 43.492188 9.097656 44.027344 9.738281 44.027344 10.59375 C 44.027344 11.5 44.269531 12.472656 43.453125 13.257812 Z M 43.453125 13.257812 "/>
<path style=" stroke:none;fill-rule:nonzero;fill:rgb(99.215686%,99.215686%,99.215686%);fill-opacity:1;" d="M 54.308594 12.671875 C 53.878906 13.429688 53.304688 13.839844 52.472656 13.71875 C 51.605469 13.597656 51.175781 12.996094 50.945312 12.199219 C 50.710938 11.375 50.78125 10.566406 51.175781 9.808594 C 51.496094 9.191406 52.007812 8.859375 52.722656 8.855469 C 53.4375 8.851562 53.9375 9.195312 54.261719 9.8125 C 54.738281 10.730469 54.726562 11.675781 54.308594 12.671875 Z M 54.308594 12.671875 "/>
<path style=" stroke:none;fill-rule:nonzero;fill:rgb(99.607843%,99.607843%,99.607843%);fill-opacity:1;" d="M 55.015625 6.546875 C 55.007812 6.535156 55.042969 6.519531 55.058594 6.53125 C 55.078125 6.539062 55.019531 6.554688 55.015625 6.546875 Z M 55.015625 6.546875 "/>
<path style=" stroke:none;fill-rule:nonzero;fill:rgb(46.666667%,67.058824%,86.27451%);fill-opacity:1;" d="M 10.820312 6.0625 C 11.898438 6.40625 12.175781 6.773438 12.132812 7.726562 C 12.097656 8.519531 11.636719 9.011719 10.707031 9.167969 C 10.132812 9.261719 9.550781 9.28125 8.90625 9.339844 C 8.90625 8.242188 8.90625 7.257812 8.90625 6.046875 C 9.519531 6.046875 10.140625 6.046875 10.820312 6.0625 Z M 10.820312 6.0625 "/>
</g>
</svg>
