<svg version="1.1" id="Layer_1" xmlns="http://www.w3.org/2000/svg" xmlns:xlink="http://www.w3.org/1999/xlink" x="0px" y="0px"
	 width="100%" viewBox="0 0 379 133" enable-background="new 0 0 379 133" xml:space="preserve">
<path fill="#FEFEFE" opacity="1.000000" stroke="none" 
	d="
M72.000000,1.000000 
	C174.606674,1.000000 277.213348,1.000000 379.910034,1.000000 
	C379.910034,45.247288 379.910034,89.494820 379.910034,134.000000 
	C277.645905,134.000000 175.291611,134.000000 72.699707,133.670029 
	C75.083641,132.942169 77.716225,132.605728 80.325035,132.136993 
	C110.048004,126.796600 132.521057,101.171799 134.261230,72.344086 
	C136.380249,37.239960 112.394310,10.243107 84.886063,3.805674 
	C80.606232,2.804115 76.296112,1.931982 72.000000,1.000000 
M371.367584,39.787670 
	C371.221008,40.228848 371.074432,40.670025 370.867065,41.730667 
	C370.797668,42.138439 370.728241,42.546207 370.005951,42.986401 
	C368.109467,45.162304 369.057678,46.343914 373.767792,47.400642 
	C373.860382,46.081272 373.950317,44.799900 374.213104,42.759811 
	C374.283508,42.510086 374.353943,42.260365 374.861847,41.595604 
	C373.906708,40.877872 372.951599,40.160141 371.367584,39.787670 
M318.948608,95.606209 
	C319.297791,95.731987 319.646942,95.857758 320.819366,96.152489 
	C322.214050,96.096146 323.608765,96.039795 325.617828,96.028496 
	C325.751953,95.683998 325.886047,95.339493 326.189697,94.071335 
	C326.133209,81.048981 326.076721,68.026619 326.069153,54.418251 
	C325.720551,54.315220 325.371979,54.212193 324.188934,53.983746 
	C322.785858,54.025623 321.382812,54.067497 319.399811,54.051430 
	C319.263641,54.368328 319.127441,54.685230 318.812225,55.924618 
	C318.871918,68.949089 318.931610,81.973564 318.948608,95.606209 
M221.419067,54.045765 
	C221.297073,54.359356 221.175095,54.672951 220.897141,55.914314 
	C220.911407,64.570198 220.657013,73.236938 221.006409,81.879272 
	C221.467087,93.273438 230.127228,99.858658 240.207047,96.440720 
	C243.628098,95.280685 246.566864,92.698326 249.673401,90.798103 
	C250.303253,96.588890 250.754913,96.895920 256.146088,95.542610 
	C256.146088,81.951584 256.146088,68.494522 256.165649,54.414169 
	C255.785675,54.313808 255.405716,54.213448 254.192215,53.981220 
	C252.788681,54.019573 251.385162,54.057926 249.421829,54.036995 
	C249.301788,54.353470 249.181763,54.669945 248.918915,55.915997 
	C248.909729,63.743961 248.999405,71.573677 248.861359,79.399368 
	C248.742401,86.143188 244.187653,90.697510 237.645432,90.940414 
	C232.917618,91.115952 229.714218,87.614891 228.841766,81.065758 
	C228.513641,78.602783 228.454666,76.092400 228.433853,73.602287 
	C228.380035,67.164948 228.415833,60.726864 228.415833,54.103527 
	C225.902298,54.103527 223.939819,54.103527 221.419067,54.045765 
M299.884918,95.935516 
	C304.297791,96.982918 306.176544,95.727791 306.089691,90.721260 
	C305.795044,73.732216 305.931610,56.735680 305.904297,39.742004 
	C305.901459,37.968079 305.903931,36.194145 305.903931,34.361946 
	C303.019958,34.361946 300.774017,34.361946 297.997620,34.361946 
	C297.997620,42.473850 297.997620,50.317448 297.997620,58.591934 
	C289.524597,51.435966 280.379181,51.297550 273.211731,57.768833 
	C266.568542,63.766773 264.300659,75.472168 267.910370,85.131386 
	C271.055450,93.547302 278.298248,98.468742 286.998535,96.827362 
	C291.224457,96.030106 295.046326,93.091148 298.949677,91.171646 
	C299.023590,92.082664 299.155457,93.708252 299.884918,95.935516 
M152.748123,89.058884 
	C151.380157,88.529602 150.012192,88.000320 148.444351,87.393707 
	C147.824142,89.464615 147.263580,91.336372 146.631638,93.446487 
	C154.440369,97.570549 162.373337,98.297928 170.472000,95.887993 
	C178.609344,93.466545 183.031006,86.254669 181.998306,77.754921 
	C181.239716,71.511383 177.279358,67.673241 171.957230,65.016647 
	C167.951630,63.017216 163.734680,61.404442 159.867050,59.176483 
	C156.436249,57.200180 154.808426,53.960163 155.718674,49.851299 
	C156.678970,45.516495 159.704926,43.126850 163.850128,43.048244 
	C168.405441,42.961864 172.978088,43.789009 178.020767,44.263023 
	C178.353119,43.225590 178.945221,41.377319 179.639801,39.209198 
	C171.969284,35.643757 164.405640,35.143261 156.854401,38.475353 
	C150.045547,41.479843 146.715958,48.030510 148.076080,55.246197 
	C149.200562,61.211693 153.478195,64.575600 158.580856,67.088501 
	C162.445038,68.991493 166.501373,70.557350 170.190674,72.747452 
	C173.868179,74.930550 175.498657,78.872597 173.931473,82.666290 
	C172.749771,85.526855 170.076889,88.339371 167.338455,89.859459 
	C162.926117,92.308701 158.007217,91.740517 152.748123,89.058884 
M337.402802,83.812180 
	C339.469238,89.619110 343.267395,93.801094 349.083771,95.962730 
	C364.709198,101.769875 378.713043,89.769714 377.182556,71.921951 
	C376.265228,61.225067 369.058228,53.837109 358.771851,53.049072 
	C348.021088,52.225460 338.897675,58.680252 336.981537,69.287666 
	C336.179932,73.725220 337.018524,78.459076 337.402802,83.812180 
M212.045044,55.584408 
	C208.507294,55.244457 204.969543,54.904510 201.237061,54.545849 
	C201.237061,52.752438 201.292969,51.265957 201.223602,49.785351 
	C201.125809,47.698082 202.035294,45.184269 198.160324,45.249859 
	C194.723602,45.308029 193.653351,47.011154 193.987152,49.845314 
	C194.647354,55.450790 191.378204,55.560616 187.115829,54.626308 
	C187.272202,56.503433 187.403290,58.077213 187.542404,59.747192 
	C189.845718,59.885784 191.755066,60.000668 193.941132,60.132206 
	C193.941132,68.497589 193.826736,76.470024 193.970688,84.437798 
	C194.142166,93.928749 198.507370,97.738091 207.774002,97.063347 
	C211.504013,96.791748 212.992508,95.445297 211.333527,91.767960 
	C205.224289,92.058273 202.127701,90.621742 201.817780,85.821648 
	C201.267303,77.295677 201.663208,68.708611 201.663208,59.918705 
	C204.312027,59.918705 206.649765,59.753586 208.953857,59.961441 
	C211.695923,60.208809 212.553711,59.009613 212.045044,55.584408 
M324.005829,37.453320 
	C322.012848,38.408817 319.161011,38.897568 318.305695,40.471352 
	C317.652100,41.673954 319.012085,44.986046 320.438049,45.979656 
	C321.560852,46.762024 324.927216,46.093586 325.923096,44.911774 
	C327.849579,42.625565 327.850647,39.704292 324.005829,37.453320 
M371.469940,37.818390 
	C371.469940,37.818390 371.605560,37.455883 371.605560,37.455883 
	C371.605560,37.455883 371.275299,37.554321 371.469940,37.818390 
M375.481262,37.610287 
	C375.481262,37.610287 375.403778,37.484100 375.481262,37.610287 
z"/>
<path fill="#76AADB" opacity="1.000000" stroke="none" 
	d="
M71.571533,1.000000 
	C76.296112,1.931982 80.606232,2.804115 84.886063,3.805674 
	C112.394310,10.243107 136.380249,37.239960 134.261230,72.344086 
	C132.521057,101.171799 110.048004,126.796600 80.325035,132.136993 
	C77.716225,132.605728 75.083641,132.942169 72.231049,133.670029 
	C69.958336,134.000000 67.916664,134.000000 65.211998,133.672882 
	C62.100334,132.943192 59.646965,132.567184 57.203735,132.133987 
	C27.885750,126.936012 5.169310,102.162811 3.049361,73.087555 
	C0.799711,42.233429 19.212599,14.413356 48.340439,5.074389 
	C54.073101,3.236384 60.105721,2.333924 66.000000,1.000000 
	C67.714355,1.000000 69.428719,1.000000 71.571533,1.000000 
M82.969261,62.492386 
	C88.467705,57.769905 90.268097,51.899288 88.071808,45.001923 
	C85.910828,38.215458 80.496147,35.315247 73.966896,35.025177 
	C64.608017,34.609398 55.216911,34.919174 45.582153,34.919174 
	C45.582153,36.804184 45.582153,38.187935 45.582153,39.494213 
	C54.859783,41.672646 53.218327,39.994392 53.299221,48.604378 
	C53.405651,59.931313 53.337116,71.260025 53.313061,82.587914 
	C53.309322,84.348351 53.141987,86.108452 53.056076,87.757881 
	C44.695335,88.813934 44.695335,88.813934 46.067112,93.608856 
	C53.668533,93.608856 61.233688,93.608856 68.811638,93.608856 
	C68.811638,91.758827 68.811638,90.308960 68.811638,88.570320 
	C65.860397,88.329292 63.128143,88.106148 60.279488,87.873497 
	C60.279488,80.812576 60.279488,74.094383 60.279488,67.654869 
	C66.626060,65.523270 70.590286,67.590935 73.583183,73.107979 
	C76.349411,78.207161 79.934196,82.862816 83.166237,87.708633 
	C87.917274,94.831894 89.460609,95.399330 98.323425,93.287766 
	C99.352417,89.706108 98.295731,87.946472 94.271118,88.140694 
	C92.952904,88.204308 91.016205,87.701935 90.335419,86.757202 
	C85.534508,80.094864 80.987366,73.249672 76.330849,66.421265 
	C78.679787,65.083679 80.550842,64.018219 82.969261,62.492386 
z"/>
<path fill="#FEFEFF" opacity="1.000000" stroke="none" 
	d="
M65.531342,1.000000 
	C60.105721,2.333924 54.073101,3.236384 48.340439,5.074389 
	C19.212599,14.413356 0.799711,42.233429 3.049361,73.087555 
	C5.169310,102.162811 27.885750,126.936012 57.203735,132.133987 
	C59.646965,132.567184 62.100334,132.943192 64.774498,133.672882 
	C43.702339,134.000000 22.404676,134.000000 1.053507,134.000000 
	C1.053507,89.776520 1.053507,45.552963 1.053507,1.000000 
	C22.353098,1.000000 43.707890,1.000000 65.531342,1.000000 
z"/>
<path fill="#515151" opacity="1.000000" stroke="none" 
	d="
M299.586121,95.634674 
	C299.155457,93.708252 299.023590,92.082664 298.949677,91.171646 
	C295.046326,93.091148 291.224457,96.030106 286.998535,96.827362 
	C278.298248,98.468742 271.055450,93.547302 267.910370,85.131386 
	C264.300659,75.472168 266.568542,63.766773 273.211731,57.768833 
	C280.379181,51.297550 289.524597,51.435966 297.997620,58.591934 
	C297.997620,50.317448 297.997620,42.473850 297.997620,34.361946 
	C300.774017,34.361946 303.019958,34.361946 305.903931,34.361946 
	C305.903931,36.194145 305.901459,37.968079 305.904297,39.742004 
	C305.931610,56.735680 305.795044,73.732216 306.089691,90.721260 
	C306.176544,95.727791 304.297791,96.982918 299.586121,95.634674 
M294.370331,87.911560 
	C299.608917,82.936211 297.978271,76.471077 297.979340,70.452751 
	C297.980377,64.747040 294.359406,60.501598 289.095825,59.261414 
	C284.153961,58.097034 278.042145,60.509617 276.421661,65.735016 
	C274.917969,70.583832 274.113159,76.258293 275.103394,81.142914 
	C277.072784,90.857445 285.253326,93.630630 294.370331,87.911560 
z"/>
<path fill="#515151" opacity="1.000000" stroke="none" 
	d="
M153.100906,89.202042 
	C158.007217,91.740517 162.926117,92.308701 167.338455,89.859459 
	C170.076889,88.339371 172.749771,85.526855 173.931473,82.666290 
	C175.498657,78.872597 173.868179,74.930550 170.190674,72.747452 
	C166.501373,70.557350 162.445038,68.991493 158.580856,67.088501 
	C153.478195,64.575600 149.200562,61.211693 148.076080,55.246197 
	C146.715958,48.030510 150.045547,41.479843 156.854401,38.475353 
	C164.405640,35.143261 171.969284,35.643757 179.639801,39.209198 
	C178.945221,41.377319 178.353119,43.225590 178.020767,44.263023 
	C172.978088,43.789009 168.405441,42.961864 163.850128,43.048244 
	C159.704926,43.126850 156.678970,45.516495 155.718674,49.851299 
	C154.808426,53.960163 156.436249,57.200180 159.867050,59.176483 
	C163.734680,61.404442 167.951630,63.017216 171.957230,65.016647 
	C177.279358,67.673241 181.239716,71.511383 181.998306,77.754921 
	C183.031006,86.254669 178.609344,93.466545 170.472000,95.887993 
	C162.373337,98.297928 154.440369,97.570549 146.631638,93.446487 
	C147.263580,91.336372 147.824142,89.464615 148.444351,87.393707 
	C150.012192,88.000320 151.380157,88.529602 153.100906,89.202042 
z"/>
<path fill="#505050" opacity="1.000000" stroke="none" 
	d="
M337.257111,83.435196 
	C337.018524,78.459076 336.179932,73.725220 336.981537,69.287666 
	C338.897675,58.680252 348.021088,52.225460 358.771851,53.049072 
	C369.058228,53.837109 376.265228,61.225067 377.182556,71.921951 
	C378.713043,89.769714 364.709198,101.769875 349.083771,95.962730 
	C343.267395,93.801094 339.469238,89.619110 337.257111,83.435196 
M367.761963,83.944923 
	C370.373260,77.632210 370.461243,71.349136 367.225159,65.248436 
	C365.048340,61.144707 361.662994,58.853645 356.806274,58.884418 
	C351.984985,58.914967 348.516449,61.131485 346.340515,65.232079 
	C343.668579,70.267418 343.197937,75.637978 344.800842,81.137398 
	C346.343933,86.431473 349.267517,90.418983 355.123535,91.241394 
	C360.770782,92.034492 364.631531,89.305367 367.761963,83.944923 
z"/>
<path fill="#4F4F4F" opacity="1.000000" stroke="none" 
	d="
M256.146088,55.037453 
	C256.146088,68.494522 256.146088,81.951584 256.146088,95.542610 
	C250.754913,96.895920 250.303253,96.588890 249.673401,90.798103 
	C246.566864,92.698326 243.628098,95.280685 240.207047,96.440720 
	C230.127228,99.858658 221.467087,93.273438 221.006409,81.879272 
	C220.657013,73.236938 220.911407,64.570198 221.187180,55.372917 
	C221.746811,54.659554 221.913513,54.416889 221.977356,54.103527 
	C223.939819,54.103527 225.902298,54.103527 228.415833,54.103527 
	C228.415833,60.726864 228.380035,67.164948 228.433853,73.602287 
	C228.454666,76.092400 228.513641,78.602783 228.841766,81.065758 
	C229.714218,87.614891 232.917618,91.115952 237.645432,90.940414 
	C244.187653,90.697510 248.742401,86.143188 248.861359,79.399368 
	C248.999405,71.573677 248.909729,63.743961 249.200500,55.370049 
	C249.747482,54.649384 249.914001,54.406780 249.981628,54.096279 
	C251.385162,54.057926 252.788681,54.019573 254.731384,54.267872 
	C255.562393,54.715500 255.854248,54.876476 256.146088,55.037453 
z"/>
<path fill="#505050" opacity="1.000000" stroke="none" 
	d="
M212.124451,56.047092 
	C212.553711,59.009613 211.695923,60.208809 208.953857,59.961441 
	C206.649765,59.753586 204.312027,59.918705 201.663208,59.918705 
	C201.663208,68.708611 201.267303,77.295677 201.817780,85.821648 
	C202.127701,90.621742 205.224289,92.058273 211.333527,91.767960 
	C212.992508,95.445297 211.504013,96.791748 207.774002,97.063347 
	C198.507370,97.738091 194.142166,93.928749 193.970688,84.437798 
	C193.826736,76.470024 193.941132,68.497589 193.941132,60.132206 
	C191.755066,60.000668 189.845718,59.885784 187.542404,59.747192 
	C187.403290,58.077213 187.272202,56.503433 187.115829,54.626308 
	C191.378204,55.560616 194.647354,55.450790 193.987152,49.845314 
	C193.653351,47.011154 194.723602,45.308029 198.160324,45.249859 
	C202.035294,45.184269 201.125809,47.698082 201.223602,49.785351 
	C201.292969,51.265957 201.237061,52.752438 201.237061,54.545849 
	C204.969543,54.904510 208.507294,55.244457 212.124451,56.047092 
z"/>
<path fill="#4D4D4D" opacity="1.000000" stroke="none" 
	d="
M319.979736,54.109375 
	C321.382812,54.067497 322.785858,54.025623 324.710083,54.255783 
	C325.440735,54.775272 325.703705,54.934086 326.020233,55.004265 
	C326.076721,68.026619 326.133209,81.048981 325.877502,94.630981 
	C325.275909,95.382500 325.088623,95.646774 325.003448,95.983452 
	C323.608765,96.039795 322.214050,96.096146 320.307312,95.843689 
	C319.592743,95.257828 319.324768,95.078880 318.991272,94.998039 
	C318.931610,81.973564 318.871918,68.949089 319.117676,55.377567 
	C319.704865,54.664383 319.890411,54.424004 319.979736,54.109375 
z"/>
<path fill="#565656" opacity="1.000000" stroke="none" 
	d="
M324.360046,37.622334 
	C327.850647,39.704292 327.849579,42.625565 325.923096,44.911774 
	C324.927216,46.093586 321.560852,46.762024 320.438049,45.979656 
	C319.012085,44.986046 317.652100,41.673954 318.305695,40.471352 
	C319.161011,38.897568 322.012848,38.408817 324.360046,37.622334 
z"/>
<path fill="#EAEAEA" opacity="1.000000" stroke="none" 
	d="
M374.040222,43.518528 
	C373.950317,44.799900 373.860382,46.081272 373.767792,47.400642 
	C369.057678,46.343914 368.109467,45.162304 370.727509,43.142769 
	C371.729950,43.355778 372.010834,43.412418 372.334106,43.527756 
	C372.376434,43.586452 372.748230,43.481915 372.832916,43.384811 
	C372.917603,43.287708 373.002808,43.044525 373.233582,43.225605 
	C373.656281,43.443962 373.848236,43.481243 374.040222,43.518528 
M371.421509,45.508183 
	C371.421509,45.508183 371.536377,45.455662 371.421509,45.508183 
z"/>
<path fill="#CBCBCB" opacity="1.000000" stroke="none" 
	d="
M372.291748,43.469063 
	C372.010834,43.412418 371.729950,43.355778 371.053955,43.126556 
	C370.728241,42.546207 370.797668,42.138439 371.216370,41.259438 
	C371.709259,40.339607 371.852875,39.891010 371.996460,39.442406 
	C372.951599,40.160141 373.906708,40.877872 374.294312,41.815826 
	C373.485474,42.372208 373.244141,42.708366 373.002808,43.044525 
	C373.002808,43.044525 372.917603,43.287708 372.720520,43.323265 
	C372.523407,43.358822 372.291748,43.469063 372.291748,43.469063 
z"/>
<path fill="#3F3F3F" opacity="1.000000" stroke="none" 
	d="
M256.155884,54.725811 
	C255.854248,54.876476 255.562393,54.715500 255.148148,54.333805 
	C255.405716,54.213448 255.785675,54.313808 256.155884,54.725811 
z"/>
<path fill="#3E3E3E" opacity="1.000000" stroke="none" 
	d="
M325.310638,96.005974 
	C325.088623,95.646774 325.275909,95.382500 325.792755,95.092804 
	C325.886047,95.339493 325.751953,95.683998 325.310638,96.005974 
z"/>
<path fill="#3E3E3E" opacity="1.000000" stroke="none" 
	d="
M318.969940,95.302124 
	C319.324768,95.078880 319.592743,95.257828 319.895691,95.759201 
	C319.646942,95.857758 319.297791,95.731987 318.969940,95.302124 
z"/>
<path fill="#B5B5B5" opacity="1.000000" stroke="none" 
	d="
M371.372620,37.686356 
	C371.275299,37.554321 371.605560,37.455883 371.605560,37.455883 
	C371.605560,37.455883 371.469940,37.818390 371.372620,37.686356 
z"/>
<path fill="#EEEEEE" opacity="1.000000" stroke="none" 
	d="
M375.442505,37.547195 
	C375.403778,37.484100 375.481262,37.610287 375.442505,37.547195 
z"/>
<path fill="#3E3E3E" opacity="1.000000" stroke="none" 
	d="
M326.044678,54.711258 
	C325.703705,54.934086 325.440735,54.775272 325.127319,54.318497 
	C325.371979,54.212193 325.720551,54.315220 326.044678,54.711258 
z"/>
<path fill="#3E3E3E" opacity="1.000000" stroke="none" 
	d="
M319.689758,54.080402 
	C319.890411,54.424004 319.704865,54.664383 319.207214,54.916325 
	C319.127441,54.685230 319.263641,54.368328 319.689758,54.080402 
z"/>
<path fill="#949494" opacity="1.000000" stroke="none" 
	d="
M373.233582,43.225605 
	C373.244141,42.708366 373.485474,42.372208 374.075562,42.023346 
	C374.353943,42.260365 374.283508,42.510086 374.126648,43.139168 
	C373.848236,43.481243 373.656281,43.443962 373.233582,43.225605 
z"/>
<path fill="#3F3F3F" opacity="1.000000" stroke="none" 
	d="
M249.701721,54.066635 
	C249.914001,54.406780 249.747482,54.649384 249.271912,54.905258 
	C249.181763,54.669945 249.301788,54.353470 249.701721,54.066635 
z"/>
<path fill="#3B3B3B" opacity="1.000000" stroke="none" 
	d="
M221.698212,54.074646 
	C221.913513,54.416889 221.746811,54.659554 221.265167,54.909031 
	C221.175095,54.672951 221.297073,54.359356 221.698212,54.074646 
z"/>
<path fill="#949494" opacity="1.000000" stroke="none" 
	d="
M371.682007,39.615040 
	C371.852875,39.891010 371.709259,40.339607 371.246765,40.949707 
	C371.074432,40.670025 371.221008,40.228848 371.682007,39.615040 
z"/>
<path fill="#FAFCFE" opacity="1.000000" stroke="none" 
	d="
M82.695580,62.722572 
	C80.550842,64.018219 78.679787,65.083679 76.330849,66.421265 
	C80.987366,73.249672 85.534508,80.094864 90.335419,86.757202 
	C91.016205,87.701935 92.952904,88.204308 94.271118,88.140694 
	C98.295731,87.946472 99.352417,89.706108 98.323425,93.287766 
	C89.460609,95.399330 87.917274,94.831894 83.166237,87.708633 
	C79.934196,82.862816 76.349411,78.207161 73.583183,73.107979 
	C70.590286,67.590935 66.626060,65.523270 60.279488,67.654869 
	C60.279488,74.094383 60.279488,80.812576 60.279488,87.873497 
	C63.128143,88.106148 65.860397,88.329292 68.811638,88.570320 
	C68.811638,90.308960 68.811638,91.758827 68.811638,93.608856 
	C61.233688,93.608856 53.668533,93.608856 46.067112,93.608856 
	C44.695335,88.813934 44.695335,88.813934 53.056076,87.757881 
	C53.141987,86.108452 53.309322,84.348351 53.313061,82.587914 
	C53.337116,71.260025 53.405651,59.931313 53.299221,48.604378 
	C53.218327,39.994392 54.859783,41.672646 45.582153,39.494213 
	C45.582153,38.187935 45.582153,36.804184 45.582153,34.919174 
	C55.216911,34.919174 64.608017,34.609398 73.966896,35.025177 
	C80.496147,35.315247 85.910828,38.215458 88.071808,45.001923 
	C90.268097,51.899288 88.467705,57.769905 82.695580,62.722572 
M72.830536,40.207245 
	C68.630516,40.207245 64.430504,40.207245 60.287880,40.207245 
	C60.287880,48.259132 60.287880,54.822796 60.287880,62.111404 
	C64.632538,61.720730 68.584915,61.597515 72.453949,60.964703 
	C78.746323,59.935532 81.874855,56.650032 82.117744,51.382030 
	C82.409561,45.052780 80.521942,42.611717 72.830536,40.207245 
z"/>
<path fill="#FDFDFD" opacity="1.000000" stroke="none" 
	d="
M294.084595,88.168060 
	C285.253326,93.630630 277.072784,90.857445 275.103394,81.142914 
	C274.113159,76.258293 274.917969,70.583832 276.421661,65.735016 
	C278.042145,60.509617 284.153961,58.097034 289.095825,59.261414 
	C294.359406,60.501598 297.980377,64.747040 297.979340,70.452751 
	C297.978271,76.471077 299.608917,82.936211 294.084595,88.168060 
z"/>
<path fill="#FDFDFD" opacity="1.000000" stroke="none" 
	d="
M367.557678,84.270119 
	C364.631531,89.305367 360.770782,92.034492 355.123535,91.241394 
	C349.267517,90.418983 346.343933,86.431473 344.800842,81.137398 
	C343.197937,75.637978 343.668579,70.267418 346.340515,65.232079 
	C348.516449,61.131485 351.984985,58.914967 356.806274,58.884418 
	C361.662994,58.853645 365.048340,61.144707 367.225159,65.248436 
	C370.461243,71.349136 370.373260,77.632210 367.557678,84.270119 
z"/>
<path fill="#FEFEFE" opacity="1.000000" stroke="none" 
	d="
M371.478943,45.481922 
	C371.536377,45.455662 371.421509,45.508183 371.478943,45.481922 
z"/>
<path fill="#FEFEFE" opacity="1.000000" stroke="none" 
	d="
M372.334106,43.527756 
	C372.291748,43.469063 372.523407,43.358822 372.635803,43.420368 
	C372.748230,43.481915 372.376434,43.586452 372.334106,43.527756 
z"/>
<path fill="#77ABDC" opacity="1.000000" stroke="none" 
	d="
M73.238647,40.317310 
	C80.521942,42.611717 82.409561,45.052780 82.117744,51.382030 
	C81.874855,56.650032 78.746323,59.935532 72.453949,60.964703 
	C68.584915,61.597515 64.632538,61.720730 60.287880,62.111404 
	C60.287880,54.822796 60.287880,48.259132 60.287880,40.207245 
	C64.430504,40.207245 68.630516,40.207245 73.238647,40.317310 
z"/>
</svg>