<svg version="1.1" id="Layer_1" xmlns="http://www.w3.org/2000/svg" xmlns:xlink="http://www.w3.org/1999/xlink" x="0px" y="0px"
	 width="100%" viewBox="0 0 300 168" enable-background="new 0 0 300 168" xml:space="preserve">
<path fill="#F5F5F6" opacity="1.000000" stroke="none" 
	d="
M198.000000,169.000000 
	C132.000015,169.000000 66.500015,169.000000 1.000018,169.000000 
	C1.000012,113.000015 1.000012,57.000031 1.000006,1.000033 
	C100.999969,1.000022 200.999939,1.000022 300.999939,1.000011 
	C300.999939,56.999966 300.999939,112.999931 300.999969,168.999939 
	C266.833344,169.000000 232.666672,169.000000 198.000000,169.000000 
M134.559006,64.323753 
	C133.378143,64.179573 132.197281,64.035393 130.827179,63.170162 
	C127.092300,61.575550 119.417809,63.599171 116.098137,67.055496 
	C115.064583,68.031105 114.031029,69.006714 112.434311,70.244911 
	C110.662857,72.527428 108.891403,74.809937 106.921959,77.891228 
	C106.931877,82.284035 106.941788,86.676842 107.040512,91.778404 
	C113.178139,106.120987 127.717697,111.525253 139.976425,103.841728 
	C147.351440,99.219193 150.929825,92.186569 150.442368,83.623055 
	C150.008377,75.998360 146.739182,69.721748 138.684784,66.157204 
	C137.459702,65.729576 136.234604,65.301949 134.559006,64.323753 
M47.128826,99.734596 
	C47.752907,99.156158 48.376991,98.577721 49.000637,97.190552 
	C48.537334,96.574486 48.083622,95.430397 47.609283,95.421783 
	C40.814823,95.298355 34.016403,95.277908 27.223776,95.438110 
	C26.788645,95.448372 26.393213,97.141876 25.741863,98.609947 
	C25.552862,99.178879 25.363861,99.747818 25.412529,101.036491 
	C32.598366,102.540375 39.754814,103.215141 47.128826,99.734596 
M45.919384,72.213112 
	C45.396427,71.640503 44.893993,70.591942 44.347363,70.568367 
	C38.403530,70.312057 32.452763,70.195877 26.503941,70.197960 
	C26.358873,70.198013 26.214436,71.999596 25.810228,73.634666 
	C26.146587,74.669540 26.462391,76.599236 26.822329,76.607498 
	C34.408833,76.781754 42.000320,76.739296 49.590828,76.739296 
	C49.698956,76.272011 49.807087,75.804726 49.915215,75.337440 
	C48.606506,74.558853 47.297798,73.780273 45.919384,72.213112 
M287.870667,73.271362 
	C284.514313,63.447136 268.593658,61.031780 259.070374,69.982674 
	C249.047119,62.480537 241.231293,62.453571 231.617569,69.887955 
	C223.919464,64.305763 217.234665,63.280895 201.322235,65.316956 
	C201.146835,66.619705 200.962341,67.989975 200.709763,69.866096 
	C195.894653,65.633766 190.734940,63.872162 184.799393,64.652084 
	C177.419724,65.621765 172.625107,69.527290 171.969299,75.163086 
	C171.345795,80.521255 175.460190,85.905510 182.134933,88.401283 
	C184.783218,89.391510 187.538010,90.136993 190.089813,91.325615 
	C191.125931,91.808220 192.606201,93.521927 192.385010,94.066864 
	C191.917084,95.219658 190.501846,96.670708 189.404419,96.731956 
	C187.563507,96.834686 185.004059,96.556625 183.913116,95.368256 
	C179.899063,90.995621 175.614304,93.453239 171.157440,93.459602 
	C174.496063,106.614098 189.043198,109.300949 200.131577,103.167107 
	C203.629272,107.849754 208.091125,104.854408 212.636032,105.680092 
	C212.636032,100.998726 212.636032,97.090057 212.636032,92.837082 
	C221.030563,93.123581 228.680649,92.611481 232.858582,85.183388 
	C238.056015,87.231750 242.901505,88.906693 247.497025,91.104355 
	C248.774170,91.715103 250.358551,94.289101 249.981583,95.243057 
	C249.019836,97.676849 246.785919,99.018463 243.998032,97.288666 
	C243.311234,96.862534 242.770599,96.198662 242.169525,95.636871 
	C238.832230,92.517731 233.752075,91.976227 229.326248,94.270767 
	C233.477341,106.811951 245.413040,109.498192 260.678314,101.237900 
	C267.978912,107.640907 275.967682,107.725044 284.218506,103.246155 
	C288.744080,100.789482 290.761780,96.778046 290.353363,91.616829 
	C289.965912,86.720482 287.069702,83.692841 282.723938,82.037994 
	C279.622711,80.857071 276.328644,80.190628 273.192108,79.090805 
	C271.691284,78.564537 270.356323,77.565300 268.946259,76.780281 
	C269.049469,76.172775 269.152710,75.565269 269.255951,74.957771 
	C271.173950,74.758545 273.982666,73.654411 274.857178,74.515259 
	C278.842712,78.438423 283.511444,76.865402 288.643860,76.883591 
	C289.765686,76.906227 290.991119,77.222290 291.981537,76.872635 
	C293.068512,76.488892 294.217926,75.659225 294.796051,74.696960 
	C295.127747,74.144890 294.645477,72.472565 294.057373,72.140198 
	C293.060089,71.576584 291.579407,71.295753 290.508057,71.606583 
	C289.553925,71.883377 288.879028,73.122665 287.870667,73.271362 
M12.837606,95.415520 
	C11.109439,95.648140 9.381271,95.880760 7.653104,96.113380 
	C7.723392,96.458359 7.793678,96.803329 7.863966,97.148308 
	C12.853127,97.148308 17.842287,97.148308 22.831450,97.148308 
	C22.837414,96.571625 22.843380,95.994934 22.849346,95.418251 
	C19.811134,95.418251 16.772923,95.418251 12.837606,95.415520 
M14.557231,74.174828 
	C12.364236,74.315102 10.171241,74.455383 7.978245,74.595657 
	C8.028315,75.077400 8.078383,75.559135 8.128452,76.040878 
	C13.051739,76.040878 17.975025,76.040878 22.898312,76.040878 
	C22.914892,75.532639 22.931475,75.024399 22.948055,74.516159 
	C20.462481,74.402573 17.976908,74.288986 14.557231,74.174828 
M87.273933,76.204704 
	C86.702202,75.530853 86.090797,74.246010 85.565025,74.280151 
	C81.480171,74.545403 77.133354,73.156174 73.278816,75.097702 
	C73.315254,75.599304 73.351692,76.100899 73.388130,76.602501 
	C77.782722,76.602501 82.177322,76.602501 87.273933,76.204704 
M55.849140,76.727814 
	C59.334442,76.727814 62.819744,76.727814 66.305046,76.727814 
	C66.287079,76.137886 66.269112,75.547966 66.251144,74.958038 
	C61.547115,74.958038 56.843090,74.958038 52.139061,74.958038 
	C52.095646,75.268791 52.052231,75.579544 52.008816,75.890297 
	C52.995705,76.169106 53.982597,76.447914 55.849140,76.727814 
M33.744652,89.146828 
	C38.316051,89.146828 42.887447,89.146828 47.458847,89.146828 
	C47.461224,88.707237 47.463600,88.267639 47.465981,87.828049 
	C41.464451,86.331367 35.412212,87.054184 29.369154,87.375046 
	C29.336138,87.796341 29.303122,88.217644 29.270107,88.638939 
	C30.453449,88.808136 31.636791,88.977333 33.744652,89.146828 
M45.870609,84.991211 
	C46.485718,84.617058 47.100822,84.242897 48.088730,83.641983 
	C41.744061,83.641983 35.994556,83.641983 30.245056,83.641983 
	C30.257542,84.100250 30.270025,84.558510 30.282511,85.016777 
	C35.185482,85.016777 40.088455,85.016777 45.870609,84.991211 
M9.937184,99.968796 
	C9.325100,100.211540 8.713017,100.454285 8.100933,100.697037 
	C8.166010,100.956322 8.231087,101.215614 8.296164,101.474899 
	C13.092767,101.474899 17.889370,101.474899 22.685974,101.474899 
	C22.696228,100.967400 22.706482,100.459892 22.716736,99.952393 
	C18.760735,99.952393 14.804733,99.952393 9.937184,99.968796 
M21.002081,70.054123 
	C16.768625,70.054123 12.535169,70.054123 8.301712,70.054123 
	C8.304169,70.665024 8.306625,71.275917 8.309083,71.886818 
	C12.895945,71.886818 17.482805,71.886818 22.069668,71.886818 
	C22.007210,71.308380 21.944752,70.729935 21.002081,70.054123 
M81.926575,83.055122 
	C77.668045,83.135094 73.409515,83.215065 69.150986,83.295036 
	C69.190140,83.848640 69.229301,84.402252 69.268456,84.955856 
	C71.416542,84.955856 73.584389,85.137749 75.707397,84.907021 
	C78.041969,84.653305 80.335289,84.019943 81.926575,83.055122 
M64.475861,70.731400 
	C60.435371,70.471313 56.394878,70.211227 52.354389,69.951134 
	C52.350502,70.701225 52.346611,71.451309 52.342724,72.201401 
	C56.410316,71.993446 60.477905,71.785492 64.475861,70.731400 
M83.228874,72.167038 
	C84.630707,71.984512 86.032539,71.801994 87.434372,71.619476 
	C87.364296,71.304138 87.294228,70.988800 87.224159,70.673462 
	C83.222847,70.673462 79.221535,70.673462 75.220222,70.673462 
	C75.218132,71.171394 75.216042,71.669334 75.213951,72.167267 
	C77.585976,72.167267 79.958000,72.167267 83.228874,72.167038 
z"/>
<path fill="#E91449" opacity="1.000000" stroke="none" 
	d="
M287.990387,76.993042 
	C283.511444,76.865402 278.842712,78.438423 274.857178,74.515259 
	C273.982666,73.654411 271.173950,74.758545 269.255951,74.957771 
	C269.152710,75.565269 269.049469,76.172775 268.946259,76.780281 
	C270.356323,77.565300 271.691284,78.564537 273.192108,79.090805 
	C276.328644,80.190628 279.622711,80.857071 282.723938,82.037994 
	C287.069702,83.692841 289.965912,86.720482 290.353363,91.616829 
	C290.761780,96.778046 288.744080,100.789482 284.218506,103.246155 
	C275.967682,107.725044 267.978912,107.640907 260.678314,101.237900 
	C245.413040,109.498192 233.477341,106.811951 229.326248,94.270767 
	C233.752075,91.976227 238.832230,92.517731 242.169525,95.636871 
	C242.770599,96.198662 243.311234,96.862534 243.998032,97.288666 
	C246.785919,99.018463 249.019836,97.676849 249.981583,95.243057 
	C250.358551,94.289101 248.774170,91.715103 247.497025,91.104355 
	C242.901505,88.906693 238.056015,87.231750 232.858582,85.183388 
	C228.680649,92.611481 221.030563,93.123581 212.636032,92.837082 
	C212.636032,97.090057 212.636032,100.998726 212.636032,105.680092 
	C208.091125,104.854408 203.629272,107.849754 200.131577,103.167107 
	C189.043198,109.300949 174.496063,106.614098 171.157440,93.459602 
	C175.614304,93.453239 179.899063,90.995621 183.913116,95.368256 
	C185.004059,96.556625 187.563507,96.834686 189.404419,96.731956 
	C190.501846,96.670708 191.917084,95.219658 192.385010,94.066864 
	C192.606201,93.521927 191.125931,91.808220 190.089813,91.325615 
	C187.538010,90.136993 184.783218,89.391510 182.134933,88.401283 
	C175.460190,85.905510 171.345795,80.521255 171.969299,75.163086 
	C172.625107,69.527290 177.419724,65.621765 184.799393,64.652084 
	C190.734940,63.872162 195.894653,65.633766 200.709763,69.866096 
	C200.962341,67.989975 201.146835,66.619705 201.322235,65.316956 
	C217.234665,63.280895 223.919464,64.305763 231.617569,69.887955 
	C241.231293,62.453571 249.047119,62.480537 259.070374,69.982674 
	C268.593658,61.031780 284.514313,63.447136 287.917419,73.983337 
	C287.972931,75.461227 287.981659,76.227135 287.990387,76.993042 
M271.327393,97.154839 
	C272.979706,96.992317 274.788818,97.202713 276.250885,96.587784 
	C279.085602,95.395531 279.220154,92.705269 276.434296,91.474052 
	C271.213135,89.166534 265.811432,87.267532 259.779388,84.924614 
	C261.741302,88.188194 263.013641,91.164764 265.070923,93.427696 
	C266.467499,94.963890 268.965393,95.498848 271.327393,97.154839 
M212.395432,79.180115 
	C211.924667,82.592445 213.077087,84.079865 216.796432,83.518166 
	C220.092255,83.020416 223.391617,82.876717 223.063339,78.327560 
	C222.794815,74.606499 220.006775,73.607124 212.664398,74.553169 
	C212.577560,75.785950 212.486694,77.075912 212.395432,79.180115 
M191.909424,80.473389 
	C194.818298,81.466034 197.727188,82.458672 200.774567,83.498581 
	C200.774567,81.362335 200.774567,79.463058 200.774567,78.571571 
	C196.360199,76.957016 192.619598,75.265411 188.698898,74.323326 
	C187.247925,73.974678 185.373627,75.387779 183.692383,75.997406 
	C184.751678,77.011528 185.672302,78.270210 186.909042,78.971352 
	C188.159134,79.680069 189.722321,79.836479 191.909424,80.473389 
M243.058075,78.345177 
	C248.290100,79.948761 253.522141,81.552338 259.178894,83.286095 
	C258.668091,78.901527 257.660950,76.461174 253.275436,76.947777 
	C251.803818,77.111069 250.214676,75.518166 248.583542,75.127380 
	C246.777313,74.694664 244.853546,74.585892 243.002365,74.695999 
	C242.739685,74.711624 242.597916,76.759995 243.058075,78.345177 
z"/>
<path fill="#5F96C6" opacity="1.000000" stroke="none" 
	d="
M139.033661,66.729660 
	C146.739182,69.721748 150.008377,75.998360 150.442368,83.623055 
	C150.929825,92.186569 147.351440,99.219193 139.976425,103.841728 
	C127.717697,111.525253 113.178139,106.120987 107.026871,91.091797 
	C107.678123,89.942520 108.550621,88.944183 108.972786,89.107803 
	C111.053131,89.914070 113.014076,91.028366 114.820724,92.297653 
	C114.288498,93.201721 113.952721,93.842079 113.535500,94.637764 
	C128.256592,95.915825 130.375687,95.525497 130.594437,92.130791 
	C126.056740,92.130791 121.490417,92.130791 116.952652,91.817734 
	C117.317131,91.002480 117.653061,90.500275 118.242867,90.019470 
	C118.666496,90.043633 118.836250,90.046379 119.283035,90.319595 
	C124.983971,91.820221 129.392059,90.083221 133.354340,85.994934 
	C136.974121,85.725960 140.233383,85.453064 144.700058,85.079086 
	C142.312714,81.309258 140.631607,78.654625 138.964066,75.543564 
	C138.996307,72.301308 139.014984,69.515480 139.033661,66.729660 
z"/>
<path fill="#B4D1E8" opacity="1.000000" stroke="none" 
	d="
M116.667885,66.903702 
	C119.417809,63.599171 127.092300,61.575550 130.895538,63.802887 
	C130.952576,64.617188 130.941284,64.798759 130.589035,65.053078 
	C130.499847,67.416275 130.751617,69.706718 130.761749,72.157547 
	C130.347687,73.542351 130.175247,74.766777 129.716019,76.135910 
	C128.622025,77.521744 127.814835,78.762871 126.725861,80.142784 
	C125.600945,81.169930 124.757805,82.058289 123.901505,82.634697 
	C123.587372,81.550148 123.286400,80.777557 123.294029,79.850151 
	C127.356865,75.716370 127.429955,75.367035 124.957611,72.621719 
	C124.232338,67.269432 121.596230,65.316986 116.667885,66.903702 
M127.422546,64.485924 
	C127.422546,64.485924 127.524582,64.428490 127.422546,64.485924 
z"/>
<path fill="#9BB5D6" opacity="1.000000" stroke="none" 
	d="
M45.989090,73.001694 
	C47.297798,73.780273 48.606506,74.558853 49.915215,75.337440 
	C49.807087,75.804726 49.698956,76.272011 49.590828,76.739296 
	C42.000320,76.739296 34.408833,76.781754 26.822329,76.607498 
	C26.462391,76.599236 26.146587,74.669540 26.401836,73.335197 
	C33.325325,73.024384 39.657207,73.013039 45.989090,73.001694 
z"/>
<path fill="#80ABD1" opacity="1.000000" stroke="none" 
	d="
M115.017166,92.033951 
	C113.014076,91.028366 111.053131,89.914070 108.972786,89.107803 
	C108.550621,88.944183 107.678123,89.942520 106.982468,90.737419 
	C106.941788,86.676842 106.931877,82.284035 107.297951,77.484116 
	C108.097572,77.386520 108.521202,77.696022 108.692154,78.247467 
	C107.070450,82.265068 110.067444,83.167717 112.340202,84.785454 
	C114.410820,86.259308 116.120316,88.240494 117.988983,89.998070 
	C117.653061,90.500275 117.317131,91.002480 116.635910,91.785706 
	C115.866142,92.055801 115.441650,92.044876 115.017166,92.033951 
z"/>
<path fill="#B8D5EC" opacity="1.000000" stroke="none" 
	d="
M108.944832,78.005531 
	C108.521202,77.696022 108.097572,77.386520 107.396942,77.084732 
	C108.891403,74.809937 110.662857,72.527428 112.738586,70.409973 
	C113.353844,71.049385 113.664825,71.523735 113.998154,72.348175 
	C116.322151,75.812927 118.623787,78.927582 120.597275,82.187798 
	C115.197029,84.285362 112.713531,79.463997 108.944832,78.005531 
z"/>
<path fill="#8EA7C9" opacity="1.000000" stroke="none" 
	d="
M25.979313,98.052345 
	C26.393213,97.141876 26.788645,95.448372 27.223776,95.438110 
	C34.016403,95.277908 40.814823,95.298355 47.609283,95.421783 
	C48.083622,95.430397 48.537334,96.574486 48.532112,97.597717 
	C40.702164,98.020706 33.340740,98.036530 25.979313,98.052345 
z"/>
<path fill="#C5DDEE" opacity="1.000000" stroke="none" 
	d="
M113.975807,71.998085 
	C113.664825,71.523735 113.353844,71.049385 113.020164,70.278687 
	C114.031029,69.006714 115.064583,68.031105 116.383011,66.979599 
	C121.596230,65.316986 124.232338,67.269432 124.622665,72.654549 
	C123.205147,73.729721 122.076660,74.393394 120.639847,74.898415 
	C118.212952,73.825874 116.094383,72.911980 113.975807,71.998085 
z"/>
<path fill="#698ABA" opacity="1.000000" stroke="none" 
	d="
M45.954239,72.607407 
	C39.657207,73.013039 33.325325,73.024384 26.531574,72.998329 
	C26.214436,71.999596 26.358873,70.198013 26.503941,70.197960 
	C32.452763,70.195877 38.403530,70.312057 44.347363,70.568367 
	C44.893993,70.591942 45.396427,71.640503 45.954239,72.607407 
z"/>
<path fill="#7090BE" opacity="1.000000" stroke="none" 
	d="
M13.286159,95.416885 
	C16.772923,95.418251 19.811134,95.418251 22.849346,95.418251 
	C22.843380,95.994934 22.837414,96.571625 22.831450,97.148308 
	C17.842287,97.148308 12.853127,97.148308 7.863966,97.148308 
	C7.793678,96.803329 7.723392,96.458359 7.653104,96.113380 
	C9.381271,95.880760 11.109439,95.648140 13.286159,95.416885 
z"/>
<path fill="#7696C2" opacity="1.000000" stroke="none" 
	d="
M15.024282,74.175110 
	C17.976908,74.288986 20.462481,74.402573 22.948055,74.516159 
	C22.931475,75.024399 22.914892,75.532639 22.898312,76.040878 
	C17.975025,76.040878 13.051739,76.040878 8.128452,76.040878 
	C8.078383,75.559135 8.028315,75.077400 7.978245,74.595657 
	C10.171241,74.455383 12.364236,74.315102 15.024282,74.175110 
z"/>
<path fill="#7898C4" opacity="1.000000" stroke="none" 
	d="
M86.922928,76.403603 
	C82.177322,76.602501 77.782722,76.602501 73.388130,76.602501 
	C73.351692,76.100899 73.315254,75.599304 73.278816,75.097702 
	C77.133354,73.156174 81.480171,74.545403 85.565025,74.280151 
	C86.090797,74.246010 86.702202,75.530853 86.922928,76.403603 
z"/>
<path fill="#E8F4FF" opacity="1.000000" stroke="none" 
	d="
M25.860588,98.331146 
	C33.340740,98.036530 40.702164,98.020706 48.532333,98.002090 
	C48.376991,98.577721 47.752907,99.156158 46.513771,99.908875 
	C38.990765,100.161011 32.082813,100.238876 25.174860,100.316750 
	C25.363861,99.747818 25.552862,99.178879 25.860588,98.331146 
z"/>
<path fill="#7797C2" opacity="1.000000" stroke="none" 
	d="
M55.409313,76.727264 
	C53.982597,76.447914 52.995705,76.169106 52.008816,75.890297 
	C52.052231,75.579544 52.095646,75.268791 52.139061,74.958038 
	C56.843090,74.958038 61.547115,74.958038 66.251144,74.958038 
	C66.269112,75.547966 66.287079,76.137886 66.305046,76.727814 
	C62.819744,76.727814 59.334442,76.727814 55.409313,76.727264 
z"/>
<path fill="#6788B6" opacity="1.000000" stroke="none" 
	d="
M25.293694,100.676620 
	C32.082813,100.238876 38.990765,100.161011 46.340996,100.181076 
	C39.754814,103.215141 32.598366,102.540375 25.293694,100.676620 
z"/>
<path fill="#7BA9D4" opacity="1.000000" stroke="none" 
	d="
M138.859222,66.443436 
	C139.014984,69.515480 138.996307,72.301308 138.751038,75.663681 
	C138.262604,76.452721 138.075302,76.717880 137.596069,77.014175 
	C136.619141,76.601280 135.508850,76.246735 135.476898,75.812798 
	C135.209061,72.174889 135.139099,68.522408 135.009521,64.874321 
	C136.234604,65.301949 137.459702,65.729576 138.859222,66.443436 
z"/>
<path fill="#93B8DA" opacity="1.000000" stroke="none" 
	d="
M134.784271,64.599037 
	C135.139099,68.522408 135.209061,72.174889 135.476898,75.812798 
	C135.508850,76.246735 136.619141,76.601280 137.590332,77.314651 
	C137.628433,78.111618 137.305786,78.586563 136.747742,79.104500 
	C136.512344,79.147491 136.078156,79.348785 135.913361,79.104324 
	C134.836594,78.910164 133.924652,78.960472 133.006775,78.671921 
	C132.995117,77.881592 132.989365,77.430122 132.968628,76.609322 
	C132.943756,75.500809 132.933884,74.761635 133.194351,73.815170 
	C133.309799,72.405342 133.154892,71.202805 132.994202,69.642029 
	C132.302261,67.849304 131.616119,66.414818 130.929993,64.980324 
	C130.941284,64.798759 130.952576,64.617188 130.990143,64.163414 
	C132.197281,64.035393 133.378143,64.179573 134.784271,64.599037 
z"/>
<path fill="#6687B5" opacity="1.000000" stroke="none" 
	d="
M33.282394,89.146675 
	C31.636791,88.977333 30.453449,88.808136 29.270107,88.638939 
	C29.303122,88.217644 29.336138,87.796341 29.369154,87.375046 
	C35.412212,87.054184 41.464451,86.331367 47.465981,87.828049 
	C47.463600,88.267639 47.461224,88.707237 47.458847,89.146828 
	C42.887447,89.146828 38.316051,89.146828 33.282394,89.146675 
z"/>
<path fill="#6085B6" opacity="1.000000" stroke="none" 
	d="
M45.431019,85.003998 
	C40.088455,85.016777 35.185482,85.016777 30.282511,85.016777 
	C30.270025,84.558510 30.257542,84.100250 30.245056,83.641983 
	C35.994556,83.641983 41.744061,83.641983 48.088730,83.641983 
	C47.100822,84.242897 46.485718,84.617058 45.431019,85.003998 
z"/>
<path fill="#EAA2B4" opacity="1.000000" stroke="none" 
	d="
M288.317139,76.938316 
	C287.981659,76.227135 287.972931,75.461227 288.022583,74.316246 
	C288.879028,73.122665 289.553925,71.883377 290.508057,71.606583 
	C291.579407,71.295753 293.060089,71.576584 294.057373,72.140198 
	C294.645477,72.472565 295.127747,74.144890 294.796051,74.696960 
	C294.217926,75.659225 293.068512,76.488892 291.981537,76.872635 
	C290.991119,77.222290 289.765686,76.906227 288.317139,76.938316 
z"/>
<path fill="#6284B4" opacity="1.000000" stroke="none" 
	d="
M10.392958,99.960594 
	C14.804733,99.952393 18.760735,99.952393 22.716736,99.952393 
	C22.706482,100.459892 22.696228,100.967400 22.685974,101.474899 
	C17.889370,101.474899 13.092767,101.474899 8.296164,101.474899 
	C8.231087,101.215614 8.166010,100.956322 8.100933,100.697037 
	C8.713017,100.454285 9.325100,100.211540 10.392958,99.960594 
z"/>
<path fill="#6D8DBB" opacity="1.000000" stroke="none" 
	d="
M21.442188,70.102814 
	C21.944752,70.729935 22.007210,71.308380 22.069668,71.886818 
	C17.482805,71.886818 12.895945,71.886818 8.309083,71.886818 
	C8.306625,71.275917 8.304169,70.665024 8.301712,70.054123 
	C12.535169,70.054123 16.768625,70.054123 21.442188,70.102814 
z"/>
<path fill="#6A8CBA" opacity="1.000000" stroke="none" 
	d="
M82.286575,83.303558 
	C80.335289,84.019943 78.041969,84.653305 75.707397,84.907021 
	C73.584389,85.137749 71.416542,84.955856 69.268456,84.955856 
	C69.229301,84.402252 69.190140,83.848640 69.150986,83.295036 
	C73.409515,83.215065 77.668045,83.135094 82.286575,83.303558 
z"/>
<path fill="#6D8DBA" opacity="1.000000" stroke="none" 
	d="
M64.510681,71.154465 
	C60.477905,71.785492 56.410316,71.993446 52.342724,72.201401 
	C52.346611,71.451309 52.350502,70.701225 52.354389,69.951134 
	C56.394878,70.211227 60.435371,70.471313 64.510681,71.154465 
z"/>
<path fill="#6D8DBB" opacity="1.000000" stroke="none" 
	d="
M82.779449,72.167152 
	C79.958000,72.167267 77.585976,72.167267 75.213951,72.167267 
	C75.216042,71.669334 75.218132,71.171394 75.220222,70.673462 
	C79.221535,70.673462 83.222847,70.673462 87.224159,70.673462 
	C87.294228,70.988800 87.364296,71.304138 87.434372,71.619476 
	C86.032539,71.801994 84.630707,71.984512 82.779449,72.167152 
z"/>
<path fill="#F8E1E8" opacity="1.000000" stroke="none" 
	d="
M271.149078,96.818199 
	C268.965393,95.498848 266.467499,94.963890 265.070923,93.427696 
	C263.013641,91.164764 261.741302,88.188194 259.779388,84.924614 
	C265.811432,87.267532 271.213135,89.166534 276.434296,91.474052 
	C279.220154,92.705269 279.085602,95.395531 276.250885,96.587784 
	C274.788818,97.202713 272.979706,96.992317 271.149078,96.818199 
z"/>
<path fill="#F7E1E7" opacity="1.000000" stroke="none" 
	d="
M212.395630,78.772995 
	C212.486694,77.075912 212.577560,75.785950 212.664398,74.553169 
	C220.006775,73.607124 222.794815,74.606499 223.063339,78.327560 
	C223.391617,82.876717 220.092255,83.020416 216.796432,83.518166 
	C213.077087,84.079865 211.924667,82.592445 212.395630,78.772995 
z"/>
<path fill="#F8DEE6" opacity="1.000000" stroke="none" 
	d="
M191.528900,80.354111 
	C189.722321,79.836479 188.159134,79.680069 186.909042,78.971352 
	C185.672302,78.270210 184.751678,77.011528 183.692383,75.997406 
	C185.373627,75.387779 187.247925,73.974678 188.698898,74.323326 
	C192.619598,75.265411 196.360199,76.957016 200.774567,78.571571 
	C200.774567,79.463058 200.774567,81.362335 200.774567,83.498581 
	C197.727188,82.458672 194.818298,81.466034 191.528900,80.354111 
z"/>
<path fill="#F8DFE8" opacity="1.000000" stroke="none" 
	d="
M242.729126,78.106354 
	C242.597916,76.759995 242.739685,74.711624 243.002365,74.695999 
	C244.853546,74.585892 246.777313,74.694664 248.583542,75.127380 
	C250.214676,75.518166 251.803818,77.111069 253.275436,76.947777 
	C257.660950,76.461174 258.668091,78.901527 259.178894,83.286095 
	C253.522141,81.552338 248.290100,79.948761 242.729126,78.106354 
z"/>
<path fill="#9DBFDD" opacity="1.000000" stroke="none" 
	d="
M108.692154,78.247467 
	C112.713531,79.463997 115.197029,84.285362 120.824463,82.333588 
	C122.224762,82.538109 123.069710,82.742378 123.914665,82.946655 
	C124.757805,82.058289 125.600945,81.169930 127.123955,80.142059 
	C128.866135,80.000214 129.928467,79.997887 130.843964,80.298431 
	C128.530975,82.360840 126.428261,84.207741 124.173615,85.845490 
	C122.922554,86.754250 121.417755,87.313698 119.906166,88.286697 
	C119.525345,89.044922 119.265671,89.547028 119.005997,90.049126 
	C118.836250,90.046379 118.666496,90.043633 118.242867,90.019470 
	C116.120316,88.240494 114.410820,86.259308 112.340202,84.785454 
	C110.067444,83.167717 107.070450,82.265068 108.692154,78.247467 
z"/>
<path fill="#77A3CA" opacity="1.000000" stroke="none" 
	d="
M136.983139,79.061508 
	C137.305786,78.586563 137.628433,78.111618 137.956818,77.336197 
	C138.075302,76.717880 138.262604,76.452721 138.737488,76.120117 
	C140.631607,78.654625 142.312714,81.309258 144.700058,85.079086 
	C140.233383,85.453064 136.974121,85.725960 133.358551,85.650803 
	C133.043365,83.859047 133.084473,82.415344 133.103790,80.651299 
	C133.067886,79.903030 133.053802,79.475113 133.032806,79.035530 
	C133.025894,79.023872 133.012695,79.010788 133.012695,79.010788 
	C133.924652,78.960472 134.836594,78.910164 135.905273,79.450241 
	C136.204636,81.209663 136.347290,82.378700 136.599121,84.442467 
	C137.956055,82.689613 138.705887,81.721016 139.482437,80.717865 
	C138.546341,80.097488 137.764740,79.579498 136.983139,79.061508 
z"/>
<path fill="#7FABD4" opacity="1.000000" stroke="none" 
	d="
M133.125595,80.971642 
	C133.084473,82.415344 133.043365,83.859047 132.998047,85.646881 
	C129.392059,90.083221 124.983971,91.820221 119.283043,90.319595 
	C119.265671,89.547028 119.525345,89.044922 120.307312,88.276398 
	C126.413559,88.258682 129.772156,84.619659 133.125595,80.971642 
z"/>
<path fill="#E8F4FA" opacity="1.000000" stroke="none" 
	d="
M114.820724,92.297653 
	C115.441650,92.044876 115.866142,92.055801 116.607361,92.098755 
	C121.490417,92.130791 126.056740,92.130791 130.594437,92.130791 
	C130.375687,95.525497 128.256592,95.915825 113.535500,94.637764 
	C113.952721,93.842079 114.288498,93.201721 114.820724,92.297653 
z"/>
<path fill="#F7FCFF" opacity="1.000000" stroke="none" 
	d="
M123.901505,82.634697 
	C123.069710,82.742378 122.224762,82.538109 121.152618,82.188034 
	C118.623787,78.927582 116.322151,75.812927 113.998154,72.348175 
	C116.094383,72.911980 118.212952,73.825874 120.630135,75.203125 
	C121.614296,77.112640 122.299858,78.558807 122.985420,80.004967 
	C123.286400,80.777557 123.587372,81.550148 123.901505,82.634697 
z"/>
<path fill="#B8D5EB" opacity="1.000000" stroke="none" 
	d="
M123.294029,79.850151 
	C122.299858,78.558807 121.614296,77.112640 120.938454,75.361771 
	C122.076660,74.393394 123.205147,73.729721 124.668579,73.033226 
	C127.429955,75.367035 127.356865,75.716370 123.294029,79.850151 
z"/>
<path fill="#A1C3E1" opacity="1.000000" stroke="none" 
	d="
M130.589035,65.053078 
	C131.616119,66.414818 132.302261,67.849304 132.750793,69.818375 
	C132.332932,70.916519 132.152634,71.480080 131.729950,72.035431 
	C131.487549,72.027222 131.003387,71.997162 131.003387,71.997162 
	C130.751617,69.706718 130.499847,67.416275 130.589035,65.053078 
z"/>
<path fill="#B8D5EB" opacity="1.000000" stroke="none" 
	d="
M130.761749,72.157547 
	C131.003387,71.997162 131.487549,72.027222 131.753494,72.324036 
	C132.320969,73.088051 132.622482,73.555252 132.924011,74.022453 
	C132.933884,74.761635 132.943756,75.500809 132.639252,76.615707 
	C131.884171,76.991287 131.443451,76.991150 130.893219,76.773727 
	C130.576126,76.295197 130.315826,76.106789 130.002808,75.991203 
	C130.175247,74.766777 130.347687,73.542351 130.761749,72.157547 
z"/>
<path fill="#A1C3E1" opacity="1.000000" stroke="none" 
	d="
M129.716019,76.135910 
	C130.315826,76.106789 130.576126,76.295197 130.892059,77.109222 
	C131.000488,78.107903 131.000549,78.553795 130.998169,79.248665 
	C130.995728,79.497635 130.990784,79.995567 130.990784,79.995567 
	C129.928467,79.997887 128.866135,80.000214 127.405724,80.003265 
	C127.814835,78.762871 128.622025,77.521744 129.716019,76.135910 
z"/>
<path fill="#A1C3E1" opacity="1.000000" stroke="none" 
	d="
M127.473564,64.457207 
	C127.524582,64.428490 127.422546,64.485924 127.473564,64.457207 
z"/>
<path fill="#5F96C6" opacity="1.000000" stroke="none" 
	d="
M136.747742,79.104500 
	C137.764740,79.579498 138.546341,80.097488 139.482437,80.717865 
	C138.705887,81.721016 137.956055,82.689613 136.599121,84.442467 
	C136.347290,82.378700 136.204636,81.209663 136.070068,79.694710 
	C136.078156,79.348785 136.512344,79.147491 136.747742,79.104500 
z"/>
<path fill="#9DBFDD" opacity="1.000000" stroke="none" 
	d="
M133.194351,73.815170 
	C132.622482,73.555252 132.320969,73.088051 131.995895,72.332245 
	C132.152634,71.480080 132.332932,70.916519 132.756607,70.176605 
	C133.154892,71.202805 133.309799,72.405342 133.194351,73.815170 
z"/>
<path fill="#9DBFDD" opacity="1.000000" stroke="none" 
	d="
M131.000610,78.999695 
	C131.000549,78.553795 131.000488,78.107903 131.001587,77.326508 
	C131.443451,76.991150 131.884171,76.991287 132.654251,76.985046 
	C132.989365,77.430122 132.995117,77.881592 133.006775,78.671921 
	C133.012695,79.010788 133.025894,79.023872 132.692703,79.018646 
	C131.906540,79.008850 131.453583,79.004272 131.000610,78.999695 
z"/>
<path fill="#93B8DA" opacity="1.000000" stroke="none" 
	d="
M130.998169,79.248657 
	C131.453583,79.004272 131.906540,79.008850 132.699615,79.030304 
	C133.053802,79.475113 133.067886,79.903030 133.103790,80.651299 
	C129.772156,84.619659 126.413559,88.258682 120.428452,88.020279 
	C121.417755,87.313698 122.922554,86.754250 124.173615,85.845490 
	C126.428261,84.207741 128.530975,82.360840 130.843964,80.298431 
	C130.990784,79.995567 130.995728,79.497635 130.998169,79.248657 
z"/>
</svg>