<svg version="1.1" id="Layer_1" xmlns="http://www.w3.org/2000/svg" xmlns:xlink="http://www.w3.org/1999/xlink" x="0px" y="0px"
	 width="100%" viewBox="0 0 318 159" enable-background="new 0 0 318 159" xml:space="preserve">
<path fill="#FEFEFE" opacity="1.000000" stroke="none" 
	d="
M192.000000,160.000000 
	C129.333344,160.000000 67.166603,159.964066 5.000229,160.096802 
	C1.575483,160.104111 0.892820,159.425125 0.902465,155.999756 
	C1.044193,105.666824 1.044185,55.333244 0.902475,5.000316 
	C0.892832,1.575096 1.575920,0.900631 5.000066,0.904517 
	C108.333252,1.021778 211.666626,1.021772 314.999786,0.904535 
	C318.423676,0.900650 319.107178,1.574706 319.097534,5.000195 
	C318.955780,55.333122 318.955841,105.666702 319.097534,155.999634 
	C319.107178,159.424744 318.425903,160.111160 314.999725,160.098373 
	C274.166931,159.945831 233.333359,160.000000 192.000000,160.000000 
z"/>
<path fill="#901010" opacity="1.000000" stroke="none" 
	d="
M70.740372,104.994041 
	C64.943405,104.990829 59.613918,105.101158 54.291382,104.956230 
	C47.315155,104.766281 43.105949,100.688835 43.021507,93.696930 
	C42.864735,80.715706 42.855934,67.729607 43.028267,54.748764 
	C43.118755,47.932358 47.624508,43.823597 54.576668,43.794853 
	C67.393135,43.741859 80.210175,43.737583 93.026588,43.796593 
	C100.175171,43.829506 104.136902,47.682625 104.426582,54.773186 
	C104.541985,57.598206 104.474236,60.431732 104.447884,63.260998 
	C104.437302,64.398071 104.585091,65.652000 102.857788,65.811020 
	C101.238953,65.960052 100.758583,65.092384 100.897285,63.734554 
	C101.134918,61.408531 99.684174,61.183769 97.876823,60.804302 
	C84.152275,57.922703 84.159912,57.885067 75.620125,69.168587 
	C74.716965,70.361923 73.821518,71.561104 72.917183,72.753548 
	C63.215984,85.545387 63.212601,85.547005 71.304749,99.188499 
	C71.717491,99.884277 72.135368,100.865997 72.768417,101.084618 
	C74.293777,101.611397 76.563675,101.474449 75.628777,103.964958 
	C74.859840,106.013344 72.702553,104.630074 70.740372,104.994041 
z"/>
<path fill="#373737" opacity="1.000000" stroke="none" 
	d="
M168.245209,104.789047 
	C167.182770,105.096779 166.364319,105.275116 165.539154,105.315239 
	C153.024139,105.923988 149.664902,102.896965 149.260010,90.399529 
	C149.087479,85.073578 149.243790,79.737732 149.156921,74.407913 
	C149.118774,72.067184 149.059647,70.218758 152.396591,70.224388 
	C156.103378,70.230644 155.225266,72.659576 155.249023,74.655769 
	C155.314468,80.152733 155.160126,85.655434 155.348801,91.147057 
	C155.612656,98.825699 157.108246,100.180977 164.563965,100.147301 
	C172.113113,100.113205 172.113205,100.113205 172.113342,92.770599 
	C172.113464,86.439659 172.215973,80.106255 172.063690,73.778984 
	C172.001251,71.183762 172.845490,70.265381 175.466980,70.240227 
	C178.203491,70.213982 178.308884,71.670044 178.292801,73.720322 
	C178.209213,84.382057 178.371429,95.048485 178.114822,105.705254 
	C177.899246,114.657974 174.502594,117.758965 165.391174,118.009331 
	C162.562851,118.087044 159.729630,117.969963 156.898651,117.971207 
	C153.685867,117.972626 152.220032,116.642082 153.658081,113.229233 
	C154.210297,113.224571 154.379425,113.318832 154.769150,113.224144 
	C158.777237,112.949768 162.574631,113.005493 166.349594,112.741104 
	C170.520187,112.449020 172.682388,109.792946 172.045639,106.266151 
	C171.775421,104.769516 170.712219,105.168800 169.392120,105.038010 
	C168.820572,104.836082 168.653336,104.715721 168.245209,104.789047 
z"/>
<path fill="#373737" opacity="1.000000" stroke="none" 
	d="
M113.237129,116.241165 
	C112.984489,102.067169 112.948265,88.116783 112.801903,74.167542 
	C112.777946,71.884773 113.449188,71.042984 115.847466,70.838196 
	C121.635124,70.343987 127.371490,69.455345 133.197449,70.567787 
	C137.887054,71.463257 140.473083,74.189240 141.160690,78.841179 
	C142.015686,84.625618 142.246613,90.406311 141.255051,96.207855 
	C140.254364,102.062805 137.618103,104.638168 131.781235,105.255798 
	C130.792984,105.360359 129.792343,105.357140 128.796906,105.382774 
	C125.682419,105.462967 121.671562,104.379837 119.693558,105.916748 
	C117.516922,107.607986 119.020012,111.815239 118.975182,114.914429 
	C118.905411,119.737671 115.583817,117.575897 113.226669,117.360901 
	C113.221825,116.794662 113.319328,116.629906 113.237129,116.241165 
z"/>
<path fill="#343434" opacity="1.000000" stroke="none" 
	d="
M204.241974,104.800751 
	C202.181534,105.122726 200.356964,105.407921 198.547714,105.331200 
	C190.337601,104.983055 187.485031,102.587799 186.457214,94.486168 
	C185.937653,90.390854 185.859772,86.158127 186.235535,82.047249 
	C187.062286,73.002831 190.379410,70.286064 199.531448,69.959290 
	C202.597733,69.849815 206.606506,71.769249 208.441818,69.515350 
	C209.934357,67.682457 208.974518,63.795555 208.969757,60.819729 
	C208.966339,58.685448 208.887100,57.015701 211.954880,56.928707 
	C215.391571,56.831253 215.148422,58.796547 215.142548,61.059929 
	C215.110565,73.373558 214.839798,85.697243 215.264603,97.996284 
	C215.441513,103.118073 213.925858,105.307961 208.871323,105.029640 
	C207.879715,104.975037 206.878326,105.097755 205.437546,105.056931 
	C204.824066,104.849220 204.654480,104.723267 204.241974,104.800751 
z"/>
<path fill="#363636" opacity="1.000000" stroke="none" 
	d="
M223.289276,82.278870 
	C224.048355,72.489563 227.379913,69.822891 238.193298,70.002625 
	C247.413589,70.155884 250.610641,73.099648 251.236511,82.012436 
	C251.831909,90.491287 251.831924,90.491310 243.189484,90.491432 
	C240.192093,90.491470 237.167419,90.249352 234.207672,90.583122 
	C232.462967,90.779861 229.309143,88.772224 229.184479,92.494514 
	C229.077255,95.695862 229.737991,99.133530 233.738449,99.753937 
	C236.837814,100.234596 240.040466,100.055710 243.197723,100.153076 
	C244.195938,100.183861 245.196564,100.184914 246.194794,100.155563 
	C247.910339,100.105133 249.084641,100.505379 249.027405,102.621094 
	C248.981232,104.327721 248.180130,104.971169 246.611008,105.088997 
	C241.454697,105.476196 236.279907,105.738991 231.162704,104.929268 
	C227.176254,104.298462 224.786392,101.810783 223.782166,97.789619 
	C222.630646,93.178543 222.956497,88.531250 223.017822,83.422852 
	C223.217163,82.814812 223.321747,82.665291 223.289276,82.278870 
z"/>
<path fill="#373737" opacity="1.000000" stroke="none" 
	d="
M98.224350,104.788803 
	C93.370193,105.776512 88.727448,105.353432 84.084541,105.111221 
	C82.236877,105.014839 80.308075,105.209679 80.479309,102.353088 
	C80.635101,99.754120 82.442947,100.171814 84.060402,100.158424 
	C87.886177,100.126755 91.712997,100.155174 95.537590,100.074127 
	C97.404388,100.034569 99.329811,99.818764 99.772003,97.474678 
	C100.193939,95.237946 99.295204,93.468498 97.253448,92.557686 
	C93.924294,91.072586 90.474670,89.858772 87.136078,88.393333 
	C82.116890,86.190231 80.159866,82.347839 81.055191,76.663574 
	C81.801422,71.925865 85.379448,70.811203 89.370819,70.266510 
	C93.359108,69.722244 97.345016,70.006630 101.313934,70.433098 
	C103.076134,70.622437 104.459785,71.585556 104.414047,73.564453 
	C104.357536,76.008720 102.370674,75.202820 101.056854,75.247452 
	C98.231911,75.343422 95.400436,75.230614 92.573624,75.293106 
	C90.210106,75.345337 87.702507,75.426964 87.157967,78.464432 
	C86.610909,81.515923 88.546921,83.002533 91.057793,84.013519 
	C94.290787,85.315239 97.619202,86.433434 100.716530,88.005096 
	C104.561310,89.956039 106.401016,93.251869 105.933228,97.670280 
	C105.524788,101.528000 103.853966,104.289452 99.336403,104.906052 
	C98.792580,104.780891 98.618996,104.685722 98.224350,104.788803 
z"/>
<path fill="#353535" opacity="1.000000" stroke="none" 
	d="
M263.200012,104.742584 
	C259.517029,105.842621 258.330963,104.551186 258.443909,100.921150 
	C258.676880,93.434235 258.540161,85.934883 258.502350,78.440910 
	C258.486298,75.253906 258.989594,72.148300 262.402252,71.114960 
	C266.670898,69.822411 271.096527,69.190422 275.347595,71.554810 
	C276.369446,72.123138 276.771057,72.875618 276.544739,73.960022 
	C276.275635,75.249298 275.223602,75.138824 274.219482,75.267517 
	C264.432709,76.521942 264.439911,76.534538 264.432098,86.597229 
	C264.427826,92.092613 264.400970,97.587982 264.235229,103.530258 
	C263.816986,104.143028 263.581268,104.347458 263.200012,104.742584 
z"/>
<path fill="#111111" opacity="1.000000" stroke="none" 
	d="
M223.086426,82.270149 
	C223.315796,82.205238 223.495285,82.356918 223.629944,82.541328 
	C223.657776,82.579445 223.518768,82.739365 223.284607,82.903732 
	C223.112564,82.964333 223.020630,82.498337 223.086426,82.270149 
z"/>
<path fill="#1E1E1E" opacity="1.000000" stroke="none" 
	d="
M98.252182,105.030243 
	C98.256737,104.848343 98.510185,104.709641 98.864899,104.723503 
	C98.811134,104.941849 98.656105,105.007645 98.252182,105.030243 
z"/>
<path fill="#1D1D1D" opacity="1.000000" stroke="none" 
	d="
M168.251862,105.038254 
	C168.174484,104.640564 168.304764,104.211945 168.901703,104.782578 
	C168.825012,105.002220 168.662201,105.048012 168.251862,105.038254 
z"/>
<path fill="#1E1E1E" opacity="1.000000" stroke="none" 
	d="
M204.249664,105.064758 
	C204.177643,104.673225 204.304626,104.229874 204.905853,104.801643 
	C204.829193,105.025223 204.664734,105.075272 204.249664,105.064758 
z"/>
<path fill="#222222" opacity="1.000000" stroke="none" 
	d="
M263.322266,104.926933 
	C263.138062,104.576546 263.344574,104.334869 263.863403,104.073425 
	C263.931915,104.304482 263.777649,104.631813 263.322266,104.926933 
z"/>
<path fill="#141414" opacity="1.000000" stroke="none" 
	d="
M154.744965,112.983078 
	C154.846390,113.368736 154.750778,113.789932 154.139465,113.287506 
	C154.194183,113.063873 154.347198,112.997421 154.744965,112.983078 
z"/>
<path fill="#131313" opacity="1.000000" stroke="none" 
	d="
M113.006729,116.257523 
	C113.408203,116.156342 113.795540,116.276764 113.285187,116.867226 
	C113.124313,116.959427 112.956039,116.497864 113.006729,116.257523 
z"/>
<path fill="#FBF7F7" opacity="1.000000" stroke="none" 
	d="
M58.974869,64.252411 
	C62.577698,56.521866 68.268280,54.868500 75.633789,57.339695 
	C76.692619,57.694946 77.804466,57.892185 79.488174,58.310844 
	C73.712532,66.019470 68.201988,73.374268 62.356575,81.176018 
	C60.396564,77.156326 58.808506,73.534225 56.895721,70.092598 
	C55.375584,67.357452 57.842281,66.298828 58.974869,64.252411 
z"/>
<path fill="#FCF9F9" opacity="1.000000" stroke="none" 
	d="
M55.337460,101.359200 
	C48.181522,100.191551 45.515545,96.314209 46.837837,89.666229 
	C46.901974,89.343796 46.835075,88.970467 46.972561,88.691483 
	C47.877766,86.854668 60.743263,85.680084 61.691864,87.473930 
	C63.992031,91.823647 66.047997,96.302498 68.511009,101.363525 
	C63.737720,101.363525 59.766220,101.363525 55.337460,101.359200 
z"/>
<path fill="#F7F0F0" opacity="1.000000" stroke="none" 
	d="
M84.852898,55.244621 
	C81.827507,53.397255 81.887207,50.476048 82.485313,48.201744 
	C83.019424,46.170773 85.677513,47.413948 87.376472,47.254890 
	C89.353401,47.069801 91.385933,47.049240 93.353371,47.290852 
	C96.462059,47.672611 99.063660,48.965122 100.293785,52.165356 
	C101.904861,56.356655 100.938850,57.667637 96.582680,57.043056 
	C92.806320,56.501614 89.036987,55.911179 84.852898,55.244621 
z"/>
<path fill="#FCF8F8" opacity="1.000000" stroke="none" 
	d="
M52.406567,70.090454 
	C54.957981,74.204361 57.108715,78.226570 59.468082,82.638954 
	C58.295033,82.837830 57.705917,82.932449 57.118774,83.038025 
	C45.952347,85.046051 45.312664,84.324844 46.773849,72.843636 
	C47.259281,69.029381 50.090027,70.602928 52.406567,70.090454 
z"/>
<path fill="#F3E8E8" opacity="1.000000" stroke="none" 
	d="
M79.292633,53.149017 
	C74.973511,55.237652 70.985016,52.756542 66.803680,52.609821 
	C64.873878,52.542103 65.128136,50.485859 65.031990,49.024342 
	C64.890465,46.873077 66.481316,47.230179 67.740906,47.199997 
	C69.563377,47.156330 71.420448,47.408463 73.204689,47.143433 
	C77.609200,46.489201 79.734283,48.110973 79.292633,53.149017 
z"/>
<path fill="#F8F2F2" opacity="1.000000" stroke="none" 
	d="
M53.078632,53.900467 
	C55.927692,54.360886 58.359863,54.761044 61.520008,55.280972 
	C59.103352,58.480370 56.961231,61.316307 54.407642,64.696991 
	C52.817963,61.612598 51.519703,59.014679 50.149914,56.455048 
	C48.262012,52.927238 50.736256,53.664196 53.078632,53.900467 
z"/>
<path fill="#EDDEDE" opacity="1.000000" stroke="none" 
	d="
M61.121536,47.614197 
	C62.321644,50.643562 62.399551,52.494480 58.468464,51.466660 
	C55.441334,50.675190 52.281872,50.389843 48.737221,49.806343 
	C52.527122,46.017132 56.802444,47.352585 61.121536,47.614197 
z"/>
<path fill="#EFE0E0" opacity="1.000000" stroke="none" 
	d="
M46.778030,60.103767 
	C48.504478,60.285542 51.437138,64.950798 50.842430,66.184990 
	C50.379917,67.144829 49.423420,66.792198 48.675629,66.951660 
	C47.493141,67.203804 46.768665,66.787117 46.775097,65.457985 
	C46.783134,63.796848 46.767773,62.135593 46.778030,60.103767 
z"/>
<path fill="#F9F9F9" opacity="1.000000" stroke="none" 
	d="
M135.603973,93.247131 
	C134.107407,99.133278 124.641953,102.720428 119.847198,99.615791 
	C118.629562,98.827362 118.931702,97.583900 118.926872,96.469902 
	C118.900948,90.496208 119.028397,84.519180 118.862846,78.549965 
	C118.788589,75.872383 119.793587,75.276611 122.322914,75.197083 
	C134.164398,74.824722 135.849838,76.371513 135.842941,88.349396 
	C135.842087,89.841026 135.739288,91.332588 135.603973,93.247131 
z"/>
<path fill="#F9F9F9" opacity="1.000000" stroke="none" 
	d="
M208.480347,75.663124 
	C208.882126,82.962708 208.887436,89.950874 209.037170,96.935928 
	C209.082108,99.032112 208.435043,99.810417 206.245514,99.908897 
	C194.204071,100.450439 192.169266,101.101952 192.139297,87.779518 
	C192.137039,86.781067 192.115906,85.781960 192.143204,84.784241 
	C192.350739,77.201904 194.153519,75.381546 201.650986,75.261978 
	C203.812698,75.227509 205.976425,75.317551 208.480347,75.663124 
z"/>
<path fill="#F3F3F3" opacity="1.000000" stroke="none" 
	d="
M245.210663,82.233429 
	C245.507996,84.572441 245.238876,85.902458 242.778107,85.789360 
	C239.804321,85.652687 236.809692,85.902397 233.843140,85.702377 
	C232.212784,85.592453 229.691757,86.898575 229.123703,84.483055 
	C228.523254,81.929825 228.857437,78.946274 231.117249,77.162224 
	C234.020065,74.870583 237.450455,74.885567 241.005112,75.841324 
	C244.212784,76.703781 244.976196,78.983185 245.210663,82.233429 
z"/>
</svg>