<svg version="1.1" id="Layer_1" xmlns="http://www.w3.org/2000/svg" xmlns:xlink="http://www.w3.org/1999/xlink" x="0px" y="0px"
	 width="100%" viewBox="0 0 288 288" enable-background="new 0 0 288 288" xml:space="preserve">
<path fill="#FEFEFF" opacity="1.000000" stroke="none" 
	d="
M195.000000,289.000000 
	C130.028000,289.000000 65.556000,289.000000 1.041999,289.000000 
	C1.041999,193.069687 1.041999,97.139351 1.041999,1.104510 
	C96.888550,1.104510 192.777252,1.104510 288.832977,1.104510 
	C288.832977,96.999756 288.832977,192.999863 288.832977,289.000000 
	C257.806183,289.000000 226.653091,289.000000 195.000000,289.000000 
M136.108597,46.878895 
	C133.416336,47.010685 130.724075,47.142471 127.189377,47.079941 
	C117.668633,48.542812 108.025658,49.471828 98.660866,51.615887 
	C88.931183,53.843491 79.409874,57.155064 71.521072,63.729618 
	C63.588684,70.340500 63.335083,78.610977 70.979286,85.479698 
	C73.426254,87.678429 76.277855,89.544754 79.199219,91.077271 
	C91.921745,97.751366 105.791832,100.463196 119.875137,102.030632 
	C138.970901,104.155937 158.071823,104.034515 177.094025,100.957947 
	C189.810150,98.901306 202.315765,96.005600 213.361801,89.073616 
	C227.436234,80.241165 227.100861,68.556900 212.679184,60.350185 
	C196.671112,51.240723 179.053345,48.283714 160.099411,47.032337 
	C157.394699,47.034973 154.690002,47.037609 151.331070,46.563236 
	C146.554657,46.710361 141.778259,46.857483 136.108597,46.878895 
M70.849861,195.739960 
	C69.362396,194.857498 67.874939,193.975052 65.398491,192.505859 
	C65.398491,199.480530 65.715820,205.435989 65.317162,211.343155 
	C64.832512,218.524612 68.042030,223.462631 73.657806,227.244461 
	C87.470367,236.546173 103.329971,240.158325 119.391983,241.399384 
	C135.741913,242.662704 152.307495,242.441147 168.698151,241.486954 
	C183.664383,240.615662 198.435440,237.249390 211.551071,229.484802 
	C215.913498,226.902206 221.222168,222.909180 222.377487,218.570236 
	C224.511368,210.556168 223.897186,201.810379 224.496948,192.270523 
	C221.687241,193.770981 220.448196,194.602631 219.090912,195.129898 
	C210.289871,198.548874 201.681229,202.733566 192.602249,205.114014 
	C169.013412,211.298813 144.925415,211.642258 120.758461,209.363632 
	C103.584694,207.744385 86.949135,204.096817 70.849861,195.739960 
M200.345718,109.912437 
	C154.461212,122.256187 109.520622,121.137222 65.398430,100.598480 
	C65.398430,106.586678 65.679115,112.712196 65.322418,118.800369 
	C64.937027,125.378296 67.530792,130.653809 72.978836,133.411606 
	C81.810013,137.881927 90.894806,142.352661 100.387596,144.915009 
	C123.480919,151.148422 147.184830,151.043518 170.775116,148.437485 
	C184.842026,146.883514 198.699692,143.698334 211.290787,136.718079 
	C217.039108,133.531326 222.936905,129.860672 223.611969,122.642273 
	C224.300125,115.284187 223.764160,107.811623 223.764160,100.431732 
	C216.015976,103.590416 208.558640,106.630531 200.345718,109.912437 
M169.527908,195.038452 
	C171.992218,194.696945 174.469574,194.430008 176.918625,194.001312 
	C188.931274,191.898560 200.778214,189.210602 211.529297,183.129501 
	C217.134384,179.959122 222.818695,176.271393 223.509537,169.338409 
	C224.255005,161.857239 223.678177,154.244324 223.678177,147.359406 
	C170.922867,170.331802 118.480064,170.183151 65.398071,147.530411 
	C65.398071,152.377655 65.844078,157.540909 65.302711,162.598480 
	C64.262413,172.317169 68.898422,178.567245 76.902908,182.756927 
	C81.749283,185.293579 86.800125,187.639816 92.014397,189.239380 
	C117.085533,196.930328 142.732315,197.808548 169.527908,195.038452 
z"/>
<path fill="#4676CB" opacity="1.000000" stroke="none" 
	d="
M160.970032,47.267284 
	C179.053345,48.283714 196.671112,51.240723 212.679184,60.350185 
	C227.100861,68.556900 227.436234,80.241165 213.361801,89.073616 
	C202.315765,96.005600 189.810150,98.901306 177.094025,100.957947 
	C158.071823,104.034515 138.970901,104.155937 119.875137,102.030632 
	C105.791832,100.463196 91.921745,97.751366 79.199219,91.077271 
	C76.277855,89.544754 73.426254,87.678429 70.979286,85.479698 
	C63.335083,78.610977 63.588684,70.340500 71.521072,63.729618 
	C79.409874,57.155064 88.931183,53.843491 98.660866,51.615887 
	C108.025658,49.471828 117.668633,48.542812 127.726196,47.547550 
	C128.807510,48.330578 129.350082,48.917198 129.896790,48.921078 
	C139.393661,48.988464 148.891571,49.029118 158.387451,48.920403 
	C159.254501,48.910480 160.109467,47.843437 160.970032,47.267284 
z"/>
<path fill="#4877CB" opacity="1.000000" stroke="none" 
	d="
M71.165222,195.930054 
	C86.949135,204.096817 103.584694,207.744385 120.758461,209.363632 
	C144.925415,211.642258 169.013412,211.298813 192.602249,205.114014 
	C201.681229,202.733566 210.289871,198.548874 219.090912,195.129898 
	C220.448196,194.602631 221.687241,193.770981 224.496948,192.270523 
	C223.897186,201.810379 224.511368,210.556168 222.377487,218.570236 
	C221.222168,222.909180 215.913498,226.902206 211.551071,229.484802 
	C198.435440,237.249390 183.664383,240.615662 168.698151,241.486954 
	C152.307495,242.441147 135.741913,242.662704 119.391983,241.399384 
	C103.329971,240.158325 87.470367,236.546173 73.657806,227.244461 
	C68.042030,223.462631 64.832512,218.524612 65.317162,211.343155 
	C65.715820,205.435989 65.398491,199.480530 65.398491,192.505859 
	C67.874939,193.975052 69.362396,194.857498 71.165222,195.930054 
z"/>
<path fill="#4877CB" opacity="1.000000" stroke="none" 
	d="
M200.723511,109.791542 
	C208.558640,106.630531 216.015976,103.590416 223.764160,100.431732 
	C223.764160,107.811623 224.300125,115.284187 223.611969,122.642273 
	C222.936905,129.860672 217.039108,133.531326 211.290787,136.718079 
	C198.699692,143.698334 184.842026,146.883514 170.775116,148.437485 
	C147.184830,151.043518 123.480919,151.148422 100.387596,144.915009 
	C90.894806,142.352661 81.810013,137.881927 72.978836,133.411606 
	C67.530792,130.653809 64.937027,125.378296 65.322418,118.800369 
	C65.679115,112.712196 65.398430,106.586678 65.398430,100.598480 
	C109.520622,121.137222 154.461212,122.256187 200.723511,109.791542 
z"/>
<path fill="#4877CB" opacity="1.000000" stroke="none" 
	d="
M169.077637,195.048126 
	C142.732315,197.808548 117.085533,196.930328 92.014397,189.239380 
	C86.800125,187.639816 81.749283,185.293579 76.902908,182.756927 
	C68.898422,178.567245 64.262413,172.317169 65.302711,162.598480 
	C65.844078,157.540909 65.398071,152.377655 65.398071,147.530411 
	C118.480064,170.183151 170.922867,170.331802 223.678177,147.359406 
	C223.678177,154.244324 224.255005,161.857239 223.509537,169.338409 
	C222.818695,176.271393 217.134384,179.959122 211.529297,183.129501 
	C200.778214,189.210602 188.931274,191.898560 176.918625,194.001312 
	C174.469574,194.430008 171.992218,194.696945 169.077637,195.048126 
z"/>
<path fill="#376BC6" opacity="1.000000" stroke="none" 
	d="
M160.534729,47.149811 
	C160.109467,47.843437 159.254501,48.910480 158.387451,48.920403 
	C148.891571,49.029118 139.393661,48.988464 129.896790,48.921078 
	C129.350082,48.917198 128.807510,48.330578 128.147415,47.644707 
	C130.724075,47.142471 133.416336,47.010685 136.843994,47.241276 
	C142.381363,47.415852 147.183334,47.228046 151.985291,47.040245 
	C154.690002,47.037609 157.394699,47.034973 160.534729,47.149811 
z"/>
<path fill="#4676CB" opacity="1.000000" stroke="none" 
	d="
M151.658173,46.801739 
	C147.183334,47.228046 142.381363,47.415852 137.290619,47.304131 
	C141.778259,46.857483 146.554657,46.710361 151.658173,46.801739 
z"/>
</svg>