<svg version="1.1" id="Layer_1" xmlns="http://www.w3.org/2000/svg" xmlns:xlink="http://www.w3.org/1999/xlink" x="0px" y="0px"
	 width="100%" viewBox="0 0 225 225" enable-background="new 0 0 225 225" xml:space="preserve">
<path fill="#FFFFFF" opacity="1.000000" stroke="none" 
	d="
M1.255768,112.225594 
	C1.000000,76.202003 1.028102,40.403934 0.943181,4.606134 
	C0.936833,1.930158 1.096508,0.888588 4.387297,0.894809 
	C77.148552,1.032367 149.910202,1.037493 222.671402,0.883863 
	C226.131775,0.876557 226.045242,2.148337 226.040817,4.664818 
	C225.980255,39.130692 226.000000,73.596703 226.000000,108.531342 
	C224.288681,110.266495 224.509598,112.135826 224.436295,113.928879 
	C224.355988,115.893272 224.328690,117.876381 223.343964,119.672203 
	C222.364410,121.458626 220.857483,122.211502 218.847519,121.927330 
	C216.898788,121.651825 216.138336,120.290169 215.828766,118.543159 
	C215.512207,116.756729 215.643051,114.943123 215.466125,112.838364 
	C215.341934,112.198685 215.230011,111.880875 214.799988,111.688194 
	C213.432098,122.252838 215.515900,123.987160 225.681519,120.862534 
	C226.000000,154.799820 225.969360,188.599701 226.058395,222.399292 
	C226.065475,225.090240 225.882492,226.110260 222.607285,226.104141 
	C149.846375,225.968109 77.085045,225.962097 4.324204,226.116898 
	C0.851092,226.124283 0.956433,224.835495 0.960484,222.330826 
	C1.018374,186.533066 1.000000,150.735168 1.000000,114.468658 
	C1.891725,113.074753 2.960779,112.971062 4.123951,113.336502 
	C5.075390,113.635406 5.877746,115.103622 7.043431,113.689903 
	C7.369132,113.294891 7.544962,112.926453 7.184573,112.447861 
	C5.909042,110.753990 4.944352,112.535439 3.847945,112.749481 
	C3.019457,112.911217 2.250110,112.868164 1.255768,112.225594 
z"/>
<path fill="#15407C" opacity="1.000000" stroke="none" 
	d="
M215.800049,109.742310 
	C216.118408,112.409142 216.174988,114.867325 216.221436,117.325706 
	C216.263474,119.551208 216.861572,121.007538 219.601273,121.031845 
	C222.416290,121.056816 222.908035,119.560791 222.889023,117.317657 
	C222.872314,115.347069 222.974945,113.374016 222.911530,111.405708 
	C222.859207,109.781677 223.408463,108.913704 225.574585,109.068558 
	C226.000000,112.692909 226.000000,116.385818 226.000000,120.539368 
	C224.187164,121.939293 222.468185,123.253685 220.540985,123.735977 
	C217.054657,124.608437 213.955093,123.255432 213.474884,119.609032 
	C213.032089,116.246880 211.865875,112.554375 214.536865,109.229828 
	C215.138565,109.316772 215.336197,109.425262 215.800049,109.742310 
z"/>
<path fill="#85A8B3" opacity="1.000000" stroke="none" 
	d="
M1.000000,112.333328 
	C4.340720,113.204773 5.042006,110.857399 5.561895,106.865166 
	C6.926157,110.344032 6.982770,113.279205 10.896308,112.819679 
	C8.378140,114.267899 5.630289,114.438164 6.495204,118.265343 
	C4.603830,116.485413 4.954092,113.157539 1.397173,114.034210 
	C1.000000,113.555557 1.000000,113.111107 1.000000,112.333328 
z"/>
<path fill="#2F5186" opacity="1.000000" stroke="none" 
	d="
M122.696342,102.336319 
	C124.227654,102.727997 123.789627,103.867432 123.779846,104.756195 
	C123.744194,107.991920 123.696266,110.514465 128.532852,109.293594 
	C131.285583,108.598747 133.390823,111.297935 133.893707,114.086449 
	C134.534744,117.641190 134.230286,121.190437 130.347153,122.993782 
	C128.224274,123.979652 125.894348,124.215630 123.253296,123.426445 
	C121.298767,122.002365 121.533607,120.199806 121.171021,118.241196 
	C120.853165,116.916321 120.786438,115.860939 120.819801,114.419220 
	C122.116432,112.278000 121.326492,110.345726 121.167290,108.231483 
	C120.852890,106.589043 120.785889,105.206993 120.817307,103.419525 
	C121.370560,102.675392 121.892929,102.521049 122.696342,102.336319 
z"/>
<path fill="#1E4680" opacity="1.000000" stroke="none" 
	d="
M168.908600,108.995529 
	C171.039017,109.111649 172.508209,109.816322 173.707520,111.053986 
	C175.076782,112.467033 175.764542,114.379204 175.240891,116.090485 
	C174.701416,117.853508 172.687912,116.871979 171.336716,116.977325 
	C169.379135,117.129936 167.400787,117.016418 165.313644,117.016418 
	C165.444641,120.846497 168.146179,120.776978 170.553452,121.198189 
	C171.424606,121.350616 172.844589,121.678215 172.957825,122.169395 
	C173.202606,123.231216 172.258011,123.865616 171.096954,123.944023 
	C167.335648,124.198067 164.061005,123.304771 162.345413,119.624336 
	C160.653732,115.995148 162.196213,111.589340 165.670410,109.744560 
	C166.513199,109.297050 167.559860,109.233452 168.908600,108.995529 
z"/>
<path fill="#15407C" opacity="1.000000" stroke="none" 
	d="
M105.189857,122.629974 
	C101.476944,123.975266 98.024178,124.983574 94.749054,122.286842 
	C91.968971,119.997719 91.441284,117.047096 92.411491,113.851135 
	C93.277687,110.997772 94.841629,109.132355 98.493164,109.873581 
	C100.283333,110.236961 102.340057,109.287163 104.628922,108.990875 
	C105.150482,109.199677 105.319267,109.349274 105.537285,109.833572 
	C105.561516,113.462357 105.536522,116.756432 105.493752,120.439774 
	C105.462212,121.330643 105.444252,121.832100 105.189857,122.629974 
z"/>
<path fill="#1E4680" opacity="1.000000" stroke="none" 
	d="
M199.364929,122.822159 
	C191.182648,125.123940 186.191498,121.164902 187.896393,114.145042 
	C189.256790,108.543648 193.764908,108.792046 198.589935,109.067749 
	C201.655609,113.461113 200.643494,117.994659 199.364929,122.822159 
z"/>
<path fill="#2F5186" opacity="1.000000" stroke="none" 
	d="
M73.006836,114.248154 
	C72.725708,116.939949 72.572830,119.326927 72.469582,121.716034 
	C72.420143,122.860069 72.522499,124.048332 70.450645,123.971756 
	C69.903313,123.747841 69.756462,123.583778 69.518539,123.102234 
	C69.424019,122.293877 69.419205,121.803009 69.417343,121.312119 
	C69.386658,113.227982 69.798363,114.862045 62.568794,114.624557 
	C61.920391,114.562393 61.705887,114.522125 61.312187,114.207870 
	C60.732891,110.370354 63.543705,111.802292 64.849396,111.889915 
	C68.195129,112.114426 69.754227,111.217300 69.450165,107.545547 
	C69.327713,106.066864 68.172783,103.147995 70.926903,103.183113 
	C73.568909,103.216812 71.983841,106.039864 72.391296,107.588814 
	C72.513123,108.051956 72.385841,108.580627 72.261711,109.515778 
	C72.150734,109.952271 71.735069,110.216179 71.735069,110.216179 
	C71.735069,110.216179 71.766083,110.707367 71.981689,110.826111 
	C72.461792,111.102364 72.675117,111.311958 72.975708,111.752335 
	C73.185188,112.600914 73.297440,113.269951 73.006836,114.248154 
z"/>
<path fill="#EA8647" opacity="1.000000" stroke="none" 
	d="
M18.489529,111.949516 
	C22.353266,112.291023 24.743610,111.643257 23.994228,107.274696 
	C23.799864,106.141624 24.394926,104.790649 25.917217,105.003494 
	C27.306555,105.197754 26.933798,106.587837 26.822025,107.445084 
	C26.383320,110.809700 27.499386,112.459106 31.116131,111.891602 
	C32.068642,111.742142 33.233055,111.774063 33.303837,113.194275 
	C33.372261,114.567131 32.332668,114.891724 31.303026,114.722427 
	C27.294001,114.063271 26.390200,116.110451 26.822649,119.557343 
	C26.945755,120.538574 26.793756,121.703934 25.494015,121.823952 
	C23.612331,121.997688 23.834515,120.407608 23.974884,119.405457 
	C24.486322,115.754135 23.218187,114.233742 19.388464,114.665512 
	C17.665766,114.859734 16.307953,114.002975 18.489529,111.949516 
z"/>
<path fill="#1E4680" opacity="1.000000" stroke="none" 
	d="
M149.128189,116.938141 
	C149.126099,119.753853 149.126053,122.081833 149.120987,124.409805 
	C149.118652,125.476212 148.958267,126.420753 147.550583,126.365318 
	C146.173264,126.311081 146.058121,125.373756 146.059753,124.303795 
	C146.071411,116.654724 146.063034,109.005623 146.081848,101.356575 
	C146.084244,100.379707 146.044968,99.286285 147.441284,99.153954 
	C149.301529,98.977654 149.102966,100.370949 149.110016,101.484901 
	C149.141617,106.473244 149.126450,111.461884 149.128189,116.938141 
z"/>
<path fill="#CA2B40" opacity="1.000000" stroke="none" 
	d="
M14.032498,128.504883 
	C13.920430,129.776962 14.354663,130.978729 12.996788,131.248352 
	C12.272572,131.392151 11.598060,130.858337 11.759633,130.114639 
	C12.879358,124.960762 8.951384,125.857460 5.607306,125.421417 
	C10.961340,124.799576 12.370267,121.425865 12.154750,117.173897 
	C14.323058,117.489975 14.068172,118.679916 14.002935,119.570229 
	C13.776675,122.658066 14.171391,124.966698 18.220036,123.852013 
	C19.001369,123.636894 19.937933,123.790321 19.842682,124.999496 
	C19.769854,125.923988 18.928167,125.706718 18.343447,125.900276 
	C16.792778,126.413589 13.960342,124.490715 14.032498,128.504883 
z"/>
<path fill="#EA8647" opacity="1.000000" stroke="none" 
	d="
M7.038846,102.690338 
	C5.789277,102.185951 5.368240,101.018364 6.366238,100.950294 
	C10.009673,100.701782 12.319933,99.606865 11.682526,95.386826 
	C11.580791,94.713287 12.125536,94.095467 12.912126,94.266922 
	C13.281826,94.347519 13.879372,94.929893 13.828126,95.166931 
	C12.722879,100.279137 16.454596,100.742760 19.927551,101.100327 
	C19.722038,102.288666 19.195566,102.705917 18.494831,102.642555 
	C15.354919,102.358650 13.333623,103.143990 13.937676,106.901245 
	C14.051094,107.606712 14.220451,108.731590 13.065842,108.877129 
	C11.593420,109.062729 11.515145,107.823822 11.627996,106.901260 
	C12.030263,103.612732 10.630919,102.284836 7.038846,102.690338 
z"/>
<path fill="#6C769D" opacity="1.000000" stroke="none" 
	d="
M39.360016,99.736221 
	C41.204731,101.039482 43.496750,99.759178 44.915161,101.353523 
	C44.658878,102.443047 44.108158,102.819130 43.405640,102.732719 
	C40.052864,102.320343 38.441208,103.547379 39.012676,107.102280 
	C39.134586,107.860657 39.129253,108.859154 37.960400,108.939240 
	C37.161251,108.993980 36.671173,108.358910 36.811928,107.687683 
	C37.814720,102.905540 34.299000,102.633316 30.437834,101.667770 
	C35.780666,101.372391 37.384323,98.276535 37.154556,93.435585 
	C39.904015,95.423126 38.617897,97.632164 39.360016,99.736221 
z"/>
<path fill="#2F5186" opacity="1.000000" stroke="none" 
	d="
M37.204437,126.252686 
	C35.047905,125.937439 33.245270,125.828461 30.000963,125.632317 
	C34.438030,124.150848 38.150131,123.205132 36.907532,118.429039 
	C36.764511,117.879311 37.366333,117.139465 38.176613,117.403946 
	C38.524544,117.517517 39.005272,118.087967 38.966488,118.392326 
	C38.429321,122.607422 39.771889,125.288147 45.601273,124.496773 
	C45.221687,124.958504 44.842102,125.420242 44.462517,125.881973 
	C42.932018,125.881973 41.401524,125.881973 39.472458,125.951759 
	C38.633530,126.391953 38.128338,126.537743 37.204437,126.252686 
z"/>
<path fill="#6C769D" opacity="1.000000" stroke="none" 
	d="
M49.197563,113.948288 
	C44.941906,113.300827 46.386898,117.370071 44.698875,119.068016 
	C42.827866,117.159515 44.131596,112.518768 38.929554,113.741211 
	C42.405605,112.577881 43.913216,110.643456 44.726700,107.634857 
	C44.811188,111.164520 47.900139,111.850594 49.197563,113.948288 
z"/>
<path fill="#6C769D" opacity="1.000000" stroke="none" 
	d="
M27.857986,133.022842 
	C25.634855,133.861496 27.362942,136.432861 25.051655,137.386734 
	C24.322977,134.910904 23.674189,132.208466 19.946171,131.924438 
	C23.659798,131.576019 24.639633,129.286911 24.731359,125.875854 
	C27.143742,127.616936 25.833210,131.780243 29.878386,131.432999 
	C30.655493,131.366287 29.257727,132.790375 27.857986,133.022842 
z"/>
<path fill="#6C769D" opacity="1.000000" stroke="none" 
	d="
M25.940987,98.403336 
	C23.396816,98.496849 24.631863,94.107536 21.053137,95.004326 
	C24.030188,93.513023 24.030188,93.513023 25.233234,89.763367 
	C26.237644,92.150314 25.996201,95.522705 30.167152,93.619202 
	C28.875738,96.139336 25.228678,94.878143 25.940987,98.403336 
z"/>
<path fill="#15407C" opacity="1.000000" stroke="none" 
	d="
M73.306152,114.555588 
	C72.578491,113.789612 71.662224,113.081100 72.886879,112.070679 
	C75.124969,111.915154 77.135803,111.899269 79.567062,111.983398 
	C80.514389,112.566498 80.481667,113.187569 80.166687,114.009346 
	C77.863663,114.320801 75.808884,114.439934 73.306152,114.555588 
z"/>
<path fill="#15407C" opacity="1.000000" stroke="none" 
	d="
M199.478485,123.118805 
	C200.542877,118.730347 200.352905,114.299828 199.190521,109.480118 
	C199.627853,109.199638 200.762848,109.283752 200.763733,109.378448 
	C200.806610,113.975304 202.312103,118.677216 199.478485,123.118805 
z"/>
<path fill="#15407C" opacity="1.000000" stroke="none" 
	d="
M36.861015,126.488022 
	C37.344601,126.025322 37.838661,126.004227 38.703308,126.002335 
	C39.063076,126.354332 39.110817,126.701805 39.031643,127.017448 
	C38.615921,128.674713 39.920883,131.830109 38.171383,131.771286 
	C35.555382,131.683319 37.437141,128.602676 36.861015,126.488022 
z"/>
<path fill="#15407C" opacity="1.000000" stroke="none" 
	d="
M120.844711,118.389816 
	C122.687210,119.001129 121.672943,121.172501 122.861702,122.831512 
	C119.479492,123.096695 121.157356,120.436989 120.844711,118.389816 
z"/>
<path fill="#15407C" opacity="1.000000" stroke="none" 
	d="
M120.844604,108.399330 
	C122.747452,109.662987 122.147743,111.619629 121.225670,113.805481 
	C120.869698,112.297775 120.819511,110.562668 120.844604,108.399330 
z"/>
<path fill="#2F5186" opacity="1.000000" stroke="none" 
	d="
M80.200867,114.238663 
	C79.943336,113.672287 79.968246,113.142914 79.990318,112.348465 
	C81.535568,112.501404 80.894829,113.414452 80.200867,114.238663 
z"/>
<path fill="#85A8B3" opacity="1.000000" stroke="none" 
	d="
M105.214607,122.846581 
	C105.011894,122.440948 105.066170,121.955360 105.298218,121.149406 
	C105.970100,121.476021 106.006706,122.121971 105.214607,122.846581 
z"/>
<path fill="#15407C" opacity="1.000000" stroke="none" 
	d="
M122.621429,102.108566 
	C122.462608,102.489960 121.979523,102.760506 121.206085,103.022583 
	C120.926109,102.063553 121.575844,101.981972 122.621429,102.108566 
z"/>
<path fill="#15407C" opacity="1.000000" stroke="none" 
	d="
M72.247101,110.693825 
	C71.857536,110.780937 71.256668,110.756874 71.958054,110.045372 
	C72.199455,110.115776 72.248177,110.279289 72.247101,110.693825 
z"/>
<path fill="#85A8B3" opacity="1.000000" stroke="none" 
	d="
M61.161095,114.201591 
	C61.396187,114.020119 61.647442,114.132950 62.010826,114.437531 
	C61.819668,114.558205 61.504433,114.513748 61.161095,114.201591 
z"/>
<path fill="#6C769D" opacity="1.000000" stroke="none" 
	d="
M216.035004,109.657654 
	C215.757660,109.890182 215.482224,109.759560 215.090454,109.383652 
	C215.295212,109.260338 215.649490,109.312386 216.035004,109.657654 
z"/>
<path fill="#85A8B3" opacity="1.000000" stroke="none" 
	d="
M105.710434,109.907974 
	C105.317787,110.006981 105.164711,109.770744 105.054497,109.254822 
	C105.265923,109.249283 105.550140,109.448479 105.710434,109.907974 
z"/>
<path fill="#85A8B3" opacity="1.000000" stroke="none" 
	d="
M69.307861,122.977524 
	C69.553940,122.960121 69.680420,123.135475 69.928528,123.611374 
	C69.500885,123.969154 69.181297,123.759476 69.307861,122.977524 
z"/>
<path fill="#F6F7F9" opacity="1.000000" stroke="none" 
	d="
M130.154129,113.769333 
	C131.060791,115.148216 131.217590,116.355247 130.819031,117.437996 
	C129.944534,119.813614 128.609268,122.175011 125.695023,121.813370 
	C122.767052,121.450027 123.956520,118.744392 123.942383,117.043602 
	C123.928825,115.413315 122.837517,113.157700 125.044174,112.213852 
	C126.744041,111.486778 128.643219,111.679070 130.154129,113.769333 
z"/>
<path fill="#FFFFFF" opacity="1.000000" stroke="none" 
	d="
M171.108185,112.581398 
	C171.229324,116.445526 168.511612,114.565582 166.878479,114.867645 
	C166.251755,114.983566 165.769058,114.137505 166.151413,113.494133 
	C167.279861,111.595375 169.016449,111.746468 171.108185,112.581398 
z"/>
<path fill="#F6F7F9" opacity="1.000000" stroke="none" 
	d="
M102.629501,116.763748 
	C101.846703,118.869400 102.380562,121.688889 98.970764,120.971619 
	C96.203941,120.389603 95.071289,118.590179 95.237541,116.049065 
	C95.406487,113.466728 96.816994,111.799675 99.673172,111.871765 
	C102.791573,111.950478 102.830154,114.086746 102.629501,116.763748 
z"/>
<path fill="#F6F7F9" opacity="1.000000" stroke="none" 
	d="
M192.865005,120.335999 
	C190.489502,118.515465 190.596817,116.366394 191.277496,114.296394 
	C191.925903,112.324532 193.655060,111.773811 195.629807,111.891464 
	C197.897110,112.026543 198.092072,113.509239 198.041443,115.322510 
	C197.952042,118.523972 198.821304,122.496872 192.865005,120.335999 
z"/>
</svg>