<?xml version="1.0" encoding="UTF-8"?>
<svg xmlns="http://www.w3.org/2000/svg" xmlns:xlink="http://www.w3.org/1999/xlink" width="59px" height="20px" viewBox="0 0 20 20" version="1.1">
<g id="surface1">
<path style=" stroke:none;fill-rule:nonzero;fill:rgb(100%,100%,100%);fill-opacity:1;" d="M 0.113281 9.976562 C 0.0898438 6.773438 0.0898438 3.589844 0.0820312 0.410156 C 0.0820312 0.171875 0.0976562 0.078125 0.390625 0.078125 C 6.859375 0.0898438 13.324219 0.09375 19.792969 0.078125 C 20.101562 0.078125 20.09375 0.191406 20.09375 0.414062 C 20.085938 3.476562 20.089844 6.542969 20.089844 9.648438 C 19.9375 9.800781 19.957031 9.96875 19.949219 10.128906 C 19.941406 10.300781 19.941406 10.476562 19.851562 10.636719 C 19.765625 10.796875 19.632812 10.863281 19.453125 10.839844 C 19.28125 10.8125 19.210938 10.691406 19.183594 10.539062 C 19.15625 10.378906 19.167969 10.21875 19.152344 10.03125 C 19.140625 9.972656 19.132812 9.945312 19.09375 9.929688 C 18.972656 10.867188 19.15625 11.019531 20.0625 10.742188 C 20.089844 13.761719 20.085938 16.765625 20.09375 19.769531 C 20.09375 20.007812 20.078125 20.097656 19.789062 20.097656 C 13.320312 20.085938 6.851562 20.085938 0.382812 20.097656 C 0.0742188 20.101562 0.0859375 19.984375 0.0859375 19.761719 C 0.0898438 16.582031 0.0898438 13.398438 0.0898438 10.175781 C 0.167969 10.050781 0.261719 10.042969 0.367188 10.074219 C 0.449219 10.101562 0.523438 10.230469 0.625 10.105469 C 0.65625 10.070312 0.671875 10.039062 0.636719 9.996094 C 0.523438 9.84375 0.441406 10.003906 0.34375 10.023438 C 0.269531 10.035156 0.199219 10.03125 0.113281 9.976562 Z M 0.113281 9.976562 "/>
<path style=" stroke:none;fill-rule:nonzero;fill:rgb(8.235294%,25.098039%,48.627451%);fill-opacity:1;" d="M 19.183594 9.753906 C 19.210938 9.992188 19.214844 10.210938 19.21875 10.429688 C 19.222656 10.625 19.277344 10.757812 19.519531 10.757812 C 19.769531 10.761719 19.8125 10.628906 19.8125 10.429688 C 19.8125 10.253906 19.820312 10.078125 19.8125 9.902344 C 19.808594 9.757812 19.859375 9.679688 20.050781 9.695312 C 20.089844 10.015625 20.089844 10.34375 20.089844 10.714844 C 19.929688 10.839844 19.773438 10.957031 19.605469 11 C 19.292969 11.078125 19.019531 10.957031 18.976562 10.632812 C 18.9375 10.332031 18.832031 10.003906 19.070312 9.710938 C 19.125 9.71875 19.140625 9.726562 19.183594 9.753906 Z M 19.183594 9.753906 "/>
<path style=" stroke:none;fill-rule:nonzero;fill:rgb(52.156863%,65.882353%,70.196078%);fill-opacity:1;" d="M 0.0898438 9.984375 C 0.386719 10.0625 0.449219 9.855469 0.496094 9.5 C 0.617188 9.808594 0.621094 10.070312 0.96875 10.027344 C 0.746094 10.15625 0.5 10.171875 0.578125 10.511719 C 0.410156 10.355469 0.441406 10.058594 0.125 10.136719 C 0.0898438 10.09375 0.0898438 10.054688 0.0898438 9.984375 Z M 0.0898438 9.984375 "/>
<path style=" stroke:none;fill-rule:nonzero;fill:rgb(18.431373%,31.764706%,52.54902%);fill-opacity:1;" d="M 10.90625 9.097656 C 11.042969 9.132812 11.003906 9.234375 11.003906 9.3125 C 11 9.597656 10.996094 9.824219 11.425781 9.714844 C 11.667969 9.652344 11.855469 9.894531 11.902344 10.140625 C 11.957031 10.457031 11.929688 10.773438 11.585938 10.933594 C 11.398438 11.019531 11.191406 11.042969 10.957031 10.972656 C 10.78125 10.84375 10.804688 10.683594 10.769531 10.511719 C 10.742188 10.390625 10.738281 10.296875 10.738281 10.171875 C 10.855469 9.980469 10.785156 9.808594 10.769531 9.621094 C 10.742188 9.472656 10.738281 9.351562 10.738281 9.191406 C 10.789062 9.125 10.835938 9.113281 10.90625 9.097656 Z M 10.90625 9.097656 "/>
<path style=" stroke:none;fill-rule:nonzero;fill:rgb(11.764706%,27.45098%,50.196078%);fill-opacity:1;" d="M 15.015625 9.6875 C 15.203125 9.699219 15.335938 9.761719 15.441406 9.871094 C 15.5625 9.996094 15.625 10.167969 15.578125 10.320312 C 15.527344 10.476562 15.351562 10.386719 15.230469 10.398438 C 15.054688 10.410156 14.878906 10.402344 14.695312 10.402344 C 14.707031 10.742188 14.945312 10.734375 15.160156 10.773438 C 15.238281 10.785156 15.363281 10.816406 15.375 10.859375 C 15.394531 10.953125 15.3125 11.011719 15.207031 11.015625 C 14.875 11.039062 14.582031 10.960938 14.429688 10.632812 C 14.28125 10.3125 14.417969 9.917969 14.726562 9.753906 C 14.800781 9.714844 14.894531 9.710938 15.015625 9.6875 Z M 15.015625 9.6875 "/>
<path style=" stroke:none;fill-rule:nonzero;fill:rgb(8.235294%,25.098039%,48.627451%);fill-opacity:1;" d="M 9.351562 10.902344 C 9.019531 11.019531 8.714844 11.109375 8.421875 10.871094 C 8.175781 10.667969 8.128906 10.402344 8.214844 10.121094 C 8.292969 9.867188 8.429688 9.699219 8.753906 9.765625 C 8.914062 9.800781 9.097656 9.714844 9.300781 9.6875 C 9.347656 9.707031 9.363281 9.71875 9.382812 9.761719 C 9.382812 10.085938 9.382812 10.378906 9.378906 10.707031 C 9.375 10.785156 9.371094 10.828125 9.351562 10.902344 Z M 9.351562 10.902344 "/>
<path style=" stroke:none;fill-rule:nonzero;fill:rgb(11.764706%,27.45098%,50.196078%);fill-opacity:1;" d="M 17.722656 10.917969 C 16.992188 11.121094 16.550781 10.769531 16.703125 10.144531 C 16.824219 9.648438 17.222656 9.671875 17.652344 9.695312 C 17.925781 10.085938 17.835938 10.488281 17.722656 10.917969 Z M 17.722656 10.917969 "/>
<path style=" stroke:none;fill-rule:nonzero;fill:rgb(18.431373%,31.764706%,52.54902%);fill-opacity:1;" d="M 6.488281 10.15625 C 6.464844 10.394531 6.449219 10.605469 6.441406 10.820312 C 6.4375 10.921875 6.445312 11.027344 6.261719 11.019531 C 6.214844 11 6.199219 10.984375 6.179688 10.941406 C 6.171875 10.871094 6.171875 10.828125 6.171875 10.785156 C 6.167969 10.066406 6.203125 10.210938 5.5625 10.1875 C 5.503906 10.183594 5.484375 10.179688 5.449219 10.152344 C 5.398438 9.8125 5.648438 9.9375 5.765625 9.945312 C 6.0625 9.964844 6.199219 9.886719 6.171875 9.558594 C 6.164062 9.429688 6.058594 9.167969 6.304688 9.171875 C 6.539062 9.175781 6.398438 9.425781 6.433594 9.5625 C 6.445312 9.605469 6.433594 9.652344 6.421875 9.734375 C 6.414062 9.773438 6.375 9.796875 6.375 9.796875 C 6.375 9.796875 6.378906 9.839844 6.398438 9.851562 C 6.441406 9.875 6.460938 9.894531 6.488281 9.933594 C 6.503906 10.007812 6.515625 10.070312 6.488281 10.15625 Z M 6.488281 10.15625 "/>
<path style=" stroke:none;fill-rule:nonzero;fill:rgb(91.764706%,52.54902%,27.843137%);fill-opacity:1;" d="M 1.644531 9.949219 C 1.988281 9.980469 2.199219 9.925781 2.132812 9.535156 C 2.117188 9.433594 2.167969 9.316406 2.304688 9.332031 C 2.425781 9.351562 2.394531 9.472656 2.382812 9.550781 C 2.34375 9.851562 2.445312 9.996094 2.765625 9.945312 C 2.851562 9.933594 2.953125 9.933594 2.960938 10.0625 C 2.964844 10.183594 2.875 10.210938 2.78125 10.199219 C 2.425781 10.140625 2.347656 10.320312 2.382812 10.628906 C 2.394531 10.714844 2.382812 10.816406 2.265625 10.828125 C 2.097656 10.84375 2.117188 10.703125 2.132812 10.613281 C 2.175781 10.289062 2.0625 10.152344 1.722656 10.191406 C 1.570312 10.210938 1.449219 10.132812 1.644531 9.949219 Z M 1.644531 9.949219 "/>
<path style=" stroke:none;fill-rule:nonzero;fill:rgb(11.764706%,27.45098%,50.196078%);fill-opacity:1;" d="M 13.253906 10.394531 C 13.253906 10.644531 13.253906 10.851562 13.253906 11.058594 C 13.253906 11.152344 13.242188 11.238281 13.117188 11.234375 C 12.992188 11.226562 12.984375 11.144531 12.984375 11.050781 C 12.984375 10.371094 12.984375 9.6875 12.984375 9.007812 C 12.984375 8.921875 12.980469 8.824219 13.105469 8.8125 C 13.269531 8.796875 13.253906 8.921875 13.253906 9.019531 C 13.257812 9.464844 13.253906 9.90625 13.253906 10.394531 Z M 13.253906 10.394531 "/>
<path style=" stroke:none;fill-rule:nonzero;fill:rgb(79.215686%,16.862745%,25.098039%);fill-opacity:1;" d="M 1.246094 11.421875 C 1.238281 11.535156 1.277344 11.640625 1.15625 11.667969 C 1.089844 11.679688 1.03125 11.632812 1.046875 11.566406 C 1.144531 11.109375 0.796875 11.1875 0.5 11.148438 C 0.972656 11.09375 1.097656 10.792969 1.082031 10.414062 C 1.273438 10.445312 1.25 10.550781 1.246094 10.628906 C 1.222656 10.902344 1.257812 11.109375 1.621094 11.007812 C 1.6875 10.988281 1.773438 11.003906 1.765625 11.109375 C 1.757812 11.191406 1.683594 11.175781 1.628906 11.191406 C 1.492188 11.238281 1.242188 11.066406 1.246094 11.421875 Z M 1.246094 11.421875 "/>
<path style=" stroke:none;fill-rule:nonzero;fill:rgb(91.764706%,52.54902%,27.843137%);fill-opacity:1;" d="M 0.625 9.128906 C 0.515625 9.082031 0.476562 8.980469 0.566406 8.972656 C 0.890625 8.953125 1.09375 8.855469 1.039062 8.480469 C 1.03125 8.417969 1.078125 8.363281 1.148438 8.378906 C 1.179688 8.386719 1.234375 8.4375 1.230469 8.460938 C 1.132812 8.914062 1.460938 8.953125 1.769531 8.988281 C 1.753906 9.09375 1.707031 9.128906 1.644531 9.125 C 1.363281 9.097656 1.183594 9.167969 1.238281 9.503906 C 1.25 9.566406 1.265625 9.664062 1.160156 9.679688 C 1.03125 9.695312 1.023438 9.585938 1.035156 9.503906 C 1.070312 9.210938 0.945312 9.09375 0.625 9.128906 Z M 0.625 9.128906 "/>
<path style=" stroke:none;fill-rule:nonzero;fill:rgb(42.352941%,46.27451%,61.568627%);fill-opacity:1;" d="M 3.5 8.867188 C 3.664062 8.980469 3.867188 8.867188 3.992188 9.007812 C 3.96875 9.105469 3.921875 9.140625 3.859375 9.132812 C 3.558594 9.09375 3.417969 9.203125 3.46875 9.519531 C 3.480469 9.585938 3.476562 9.675781 3.375 9.683594 C 3.304688 9.6875 3.257812 9.632812 3.273438 9.570312 C 3.359375 9.148438 3.046875 9.121094 2.707031 9.039062 C 3.179688 9.011719 3.324219 8.734375 3.300781 8.304688 C 3.546875 8.480469 3.433594 8.679688 3.5 8.867188 Z M 3.5 8.867188 "/>
<path style=" stroke:none;fill-rule:nonzero;fill:rgb(18.431373%,31.764706%,52.54902%);fill-opacity:1;" d="M 3.308594 11.222656 C 3.117188 11.195312 2.957031 11.183594 2.667969 11.167969 C 3.0625 11.035156 3.390625 10.953125 3.28125 10.527344 C 3.269531 10.476562 3.320312 10.414062 3.394531 10.4375 C 3.425781 10.445312 3.46875 10.496094 3.464844 10.523438 C 3.414062 10.898438 3.535156 11.136719 4.054688 11.066406 C 4.019531 11.109375 3.984375 11.148438 3.953125 11.191406 C 3.816406 11.191406 3.679688 11.191406 3.507812 11.195312 C 3.433594 11.234375 3.390625 11.246094 3.308594 11.222656 Z M 3.308594 11.222656 "/>
<path style=" stroke:none;fill-rule:nonzero;fill:rgb(42.352941%,46.27451%,61.568627%);fill-opacity:1;" d="M 4.375 10.128906 C 3.996094 10.070312 4.125 10.433594 3.972656 10.582031 C 3.808594 10.414062 3.921875 10 3.460938 10.109375 C 3.769531 10.007812 3.902344 9.835938 3.976562 9.566406 C 3.984375 9.882812 4.257812 9.941406 4.375 10.128906 Z M 4.375 10.128906 "/>
<path style=" stroke:none;fill-rule:nonzero;fill:rgb(42.352941%,46.27451%,61.568627%);fill-opacity:1;" d="M 2.476562 11.824219 C 2.277344 11.898438 2.433594 12.128906 2.226562 12.210938 C 2.160156 11.992188 2.105469 11.75 1.773438 11.726562 C 2.101562 11.695312 2.191406 11.492188 2.199219 11.1875 C 2.414062 11.34375 2.296875 11.714844 2.65625 11.683594 C 2.726562 11.675781 2.601562 11.804688 2.476562 11.824219 Z M 2.476562 11.824219 "/>
<path style=" stroke:none;fill-rule:nonzero;fill:rgb(42.352941%,46.27451%,61.568627%);fill-opacity:1;" d="M 2.304688 8.746094 C 2.078125 8.753906 2.191406 8.363281 1.871094 8.445312 C 2.136719 8.3125 2.136719 8.3125 2.242188 7.980469 C 2.332031 8.191406 2.3125 8.492188 2.679688 8.320312 C 2.566406 8.546875 2.242188 8.433594 2.304688 8.746094 Z M 2.304688 8.746094 "/>
<path style=" stroke:none;fill-rule:nonzero;fill:rgb(8.235294%,25.098039%,48.627451%);fill-opacity:1;" d="M 6.515625 10.183594 C 6.453125 10.113281 6.371094 10.050781 6.480469 9.960938 C 6.679688 9.949219 6.855469 9.945312 7.074219 9.953125 C 7.15625 10.007812 7.152344 10.0625 7.125 10.132812 C 6.921875 10.160156 6.738281 10.171875 6.515625 10.183594 Z M 6.515625 10.183594 "/>
<path style=" stroke:none;fill-rule:nonzero;fill:rgb(8.235294%,25.098039%,48.627451%);fill-opacity:1;" d="M 17.730469 10.945312 C 17.824219 10.554688 17.808594 10.160156 17.707031 9.730469 C 17.746094 9.707031 17.84375 9.714844 17.84375 9.722656 C 17.847656 10.132812 17.984375 10.550781 17.730469 10.945312 Z M 17.730469 10.945312 "/>
<path style=" stroke:none;fill-rule:nonzero;fill:rgb(8.235294%,25.098039%,48.627451%);fill-opacity:1;" d="M 3.277344 11.242188 C 3.320312 11.203125 3.363281 11.199219 3.441406 11.199219 C 3.472656 11.230469 3.476562 11.261719 3.46875 11.289062 C 3.433594 11.4375 3.546875 11.71875 3.394531 11.714844 C 3.160156 11.707031 3.328125 11.429688 3.277344 11.242188 Z M 3.277344 11.242188 "/>
<path style=" stroke:none;fill-rule:nonzero;fill:rgb(8.235294%,25.098039%,48.627451%);fill-opacity:1;" d="M 10.742188 10.523438 C 10.90625 10.578125 10.816406 10.769531 10.921875 10.917969 C 10.621094 10.941406 10.769531 10.707031 10.742188 10.523438 Z M 10.742188 10.523438 "/>
<path style=" stroke:none;fill-rule:nonzero;fill:rgb(8.235294%,25.098039%,48.627451%);fill-opacity:1;" d="M 10.742188 9.636719 C 10.910156 9.746094 10.859375 9.921875 10.777344 10.117188 C 10.742188 9.980469 10.738281 9.828125 10.742188 9.636719 Z M 10.742188 9.636719 "/>
<path style=" stroke:none;fill-rule:nonzero;fill:rgb(18.431373%,31.764706%,52.54902%);fill-opacity:1;" d="M 7.128906 10.15625 C 7.105469 10.105469 7.109375 10.058594 7.109375 9.988281 C 7.246094 10 7.191406 10.082031 7.128906 10.15625 Z M 7.128906 10.15625 "/>
<path style=" stroke:none;fill-rule:nonzero;fill:rgb(52.156863%,65.882353%,70.196078%);fill-opacity:1;" d="M 9.351562 10.917969 C 9.335938 10.882812 9.339844 10.839844 9.359375 10.769531 C 9.417969 10.796875 9.421875 10.855469 9.351562 10.917969 Z M 9.351562 10.917969 "/>
<path style=" stroke:none;fill-rule:nonzero;fill:rgb(8.235294%,25.098039%,48.627451%);fill-opacity:1;" d="M 10.898438 9.078125 C 10.886719 9.109375 10.84375 9.132812 10.773438 9.15625 C 10.75 9.074219 10.808594 9.066406 10.898438 9.078125 Z M 10.898438 9.078125 "/>
<path style=" stroke:none;fill-rule:nonzero;fill:rgb(8.235294%,25.098039%,48.627451%);fill-opacity:1;" d="M 6.421875 9.839844 C 6.386719 9.847656 6.332031 9.84375 6.394531 9.78125 C 6.417969 9.789062 6.421875 9.800781 6.421875 9.839844 Z M 6.421875 9.839844 "/>
<path style=" stroke:none;fill-rule:nonzero;fill:rgb(52.156863%,65.882353%,70.196078%);fill-opacity:1;" d="M 5.4375 10.152344 C 5.457031 10.136719 5.480469 10.144531 5.511719 10.171875 C 5.496094 10.183594 5.46875 10.179688 5.4375 10.152344 Z M 5.4375 10.152344 "/>
<path style=" stroke:none;fill-rule:nonzero;fill:rgb(42.352941%,46.27451%,61.568627%);fill-opacity:1;" d="M 19.203125 9.746094 C 19.179688 9.769531 19.152344 9.757812 19.121094 9.722656 C 19.136719 9.710938 19.167969 9.714844 19.203125 9.746094 Z M 19.203125 9.746094 "/>
<path style=" stroke:none;fill-rule:nonzero;fill:rgb(52.156863%,65.882353%,70.196078%);fill-opacity:1;" d="M 9.394531 9.769531 C 9.363281 9.777344 9.347656 9.757812 9.339844 9.710938 C 9.355469 9.710938 9.382812 9.730469 9.394531 9.769531 Z M 9.394531 9.769531 "/>
<path style=" stroke:none;fill-rule:nonzero;fill:rgb(52.156863%,65.882353%,70.196078%);fill-opacity:1;" d="M 6.160156 10.929688 C 6.183594 10.929688 6.195312 10.945312 6.214844 10.988281 C 6.179688 11.019531 6.148438 11 6.160156 10.929688 Z M 6.160156 10.929688 "/>
<path style=" stroke:none;fill-rule:nonzero;fill:rgb(96.470588%,96.862745%,97.647059%);fill-opacity:1;" d="M 11.570312 10.113281 C 11.648438 10.234375 11.664062 10.34375 11.628906 10.4375 C 11.550781 10.648438 11.433594 10.859375 11.171875 10.828125 C 10.914062 10.796875 11.019531 10.554688 11.015625 10.402344 C 11.015625 10.257812 10.917969 10.058594 11.113281 9.972656 C 11.265625 9.910156 11.433594 9.925781 11.570312 10.113281 Z M 11.570312 10.113281 "/>
<path style=" stroke:none;fill-rule:nonzero;fill:rgb(100%,100%,100%);fill-opacity:1;" d="M 15.210938 10.007812 C 15.21875 10.351562 14.980469 10.183594 14.832031 10.210938 C 14.777344 10.222656 14.734375 10.144531 14.769531 10.089844 C 14.871094 9.917969 15.023438 9.933594 15.210938 10.007812 Z M 15.210938 10.007812 "/>
<path style=" stroke:none;fill-rule:nonzero;fill:rgb(96.470588%,96.862745%,97.647059%);fill-opacity:1;" d="M 9.121094 10.378906 C 9.054688 10.566406 9.101562 10.816406 8.796875 10.753906 C 8.550781 10.703125 8.449219 10.542969 8.464844 10.316406 C 8.480469 10.085938 8.605469 9.9375 8.859375 9.945312 C 9.136719 9.949219 9.140625 10.140625 9.121094 10.378906 Z M 9.121094 10.378906 "/>
<path style=" stroke:none;fill-rule:nonzero;fill:rgb(96.470588%,96.862745%,97.647059%);fill-opacity:1;" d="M 17.144531 10.695312 C 16.933594 10.535156 16.941406 10.34375 17.003906 10.160156 C 17.058594 9.984375 17.214844 9.933594 17.390625 9.945312 C 17.589844 9.957031 17.609375 10.089844 17.605469 10.25 C 17.597656 10.535156 17.671875 10.886719 17.144531 10.695312 Z M 17.144531 10.695312 "/>
</g>
</svg>
